	.include "MPlayDef.s"

	.equ	AOE8_grp, voicegroup000
	.equ	AOE8_pri, 0
	.equ	AOE8_rev, 0
	.equ	AOE8_mvl, 85
	.equ	AOE8_key, 0
	.equ	AOE8_tbs, 1
	.equ	AOE8_exg, 0
	.equ	AOE8_cmp, 1

	.section .rodata
	.global	AOE8
	.align	2

@**************** Track 1 (Midi-Chn.1) ****************@

AOE8_1:
	.byte	KEYSH , AOE8_key+0
AOE8_1_B1:
@ 000   ----------------------------------------
	.byte	TEMPO , 89*AOE8_tbs/2
	.byte		VOICE , 48
	.byte		VOL   , 127*AOE8_mvl/mxv
	.byte		PAN   , c_v+0
	.byte		N02   , Bn1 , v100
	.byte		N02   , Bn2 
	.byte	W06
	.byte		        Bn1 
	.byte		N02   , Bn2 
	.byte	W06
	.byte		N04   , Bn1 
	.byte		N05   , Bn2 
	.byte	W84
@ 001   ----------------------------------------
AOE8_1_001:
	.byte		N02   , Bn1 , v100
	.byte		N02   , Bn2 
	.byte	W06
	.byte		        Bn1 
	.byte		N02   , Bn2 
	.byte	W06
	.byte		N05   , Bn1 
	.byte		N06   , Bn2 
	.byte	W84
	.byte	PEND
@ 002   ----------------------------------------
AOE8_1_002:
	.byte		N02   , Bn1 , v100
	.byte		N02   , Bn2 
	.byte	W06
	.byte		        Bn1 
	.byte		N03   , Bn2 
	.byte	W06
	.byte		        Bn1 
	.byte		N04   , Bn2 
	.byte	W48
	.byte		N32   , Gn1 
	.byte		N30   , Gn2 
	.byte	W36
	.byte	PEND
@ 003   ----------------------------------------
AOE8_1_003:
	.byte		N02   , Bn1 , v100
	.byte		N02   , Bn2 
	.byte	W06
	.byte		        Bn1 
	.byte		N02   , Bn2 
	.byte	W06
	.byte		N03   , Bn1 
	.byte		N04   , Bn2 
	.byte	W84
	.byte	PEND
@ 004   ----------------------------------------
	.byte		N02   , Bn1 
	.byte		N02   , Bn2 
	.byte	W06
	.byte		        Bn1 
	.byte		N02   , Bn2 
	.byte	W06
	.byte		N04   , Bn1 
	.byte		N05   , Bn2 
	.byte	W84
@ 005   ----------------------------------------
	.byte	PATT
	 .word	AOE8_1_001
@ 006   ----------------------------------------
	.byte	PATT
	 .word	AOE8_1_002
@ 007   ----------------------------------------
	.byte	PATT
	 .word	AOE8_1_003
@ 008   ----------------------------------------
	.byte		N68   , Fs1 , v100
	.byte		N02   , Bn1 
	.byte		N02   , Bn2 
	.byte	W06
	.byte		        Bn1 
	.byte		N02   , Bn2 
	.byte	W06
	.byte		N04   , Bn1 
	.byte		N05   , Bn2 
	.byte	W60
	.byte		N24   , Gn1 
	.byte	W24
@ 009   ----------------------------------------
	.byte		TIE   , Dn1 
	.byte		N02   , Bn1 
	.byte		N02   , Bn2 
	.byte	W06
	.byte		        Bn1 
	.byte		N02   , Bn2 
	.byte	W06
	.byte		N05   , Bn1 
	.byte		N06   , Bn2 
	.byte	W84
@ 010   ----------------------------------------
	.byte		N72   , Cs1 
	.byte		N02   , Bn1 
	.byte		N02   , Bn2 
	.byte	W01
	.byte		EOT   , Dn1 
	.byte	W05
	.byte		N02   , Bn1 
	.byte		N03   , Bn2 
	.byte	W06
	.byte		        Bn1 
	.byte		N04   , Bn2 
	.byte	W48
	.byte		N32   , Gn1 
	.byte		N30   , Gn2 
	.byte	W12
	.byte		N24   , Dn1 
	.byte	W24
@ 011   ----------------------------------------
	.byte		N96   , Bn0 
	.byte		N02   , Bn1 
	.byte		N02   , Bn2 
	.byte	W06
	.byte		        Bn1 
	.byte		N02   , Bn2 
	.byte	W06
	.byte		N03   , Bn1 
	.byte		N04   , Bn2 
	.byte	W84
@ 012   ----------------------------------------
	.byte		N02   , Bn0 , v127
	.byte		N02   , Bn1 
	.byte		N02   , Bn2 
	.byte		N02   , Bn3 
	.byte		N92   , Bn4 , v064
	.byte	W06
	.byte		N02   , Bn0 , v127
	.byte		N02   , Bn1 
	.byte		N02   , Bn2 
	.byte		N03   , Bn3 
	.byte	W06
	.byte		N06   , Bn0 
	.byte		N05   , Bn1 
	.byte		N05   , Bn2 
	.byte		N06   , Bn3 
	.byte	W84
@ 013   ----------------------------------------
AOE8_1_013:
	.byte		N06   , Bn0 , v100
	.byte		N06   , Bn1 
	.byte		N02   , Bn2 
	.byte	W06
	.byte		N02   
	.byte	W06
	.byte		N04   
	.byte	W12
	.byte		N06   , Bn0 
	.byte		N06   , Bn1 
	.byte	W24
	.byte		        Bn0 
	.byte		N06   , Bn1 
	.byte	W24
	.byte		        Bn0 
	.byte		N05   , Bn1 
	.byte	W12
	.byte		N09   , An0 
	.byte		N09   , An1 
	.byte	W12
	.byte	PEND
@ 014   ----------------------------------------
AOE8_1_014:
	.byte		N07   , Bn0 , v100
	.byte		N08   , Bn1 
	.byte		N02   , Bn2 
	.byte	W06
	.byte		N02   
	.byte	W06
	.byte		N04   
	.byte	W12
	.byte		N07   , Bn0 
	.byte		N07   , Bn1 
	.byte	W24
	.byte		N08   , Bn0 
	.byte		N08   , Bn1 
	.byte	W24
	.byte		N07   , Bn0 
	.byte		N06   , Bn1 
	.byte	W12
	.byte		N09   , An0 
	.byte		N09   , An1 
	.byte	W12
	.byte	PEND
@ 015   ----------------------------------------
AOE8_1_015:
	.byte		N08   , Bn0 , v100
	.byte		N09   , Bn1 
	.byte		N02   , Bn2 
	.byte	W06
	.byte		N03   
	.byte	W06
	.byte		N04   
	.byte	W12
	.byte		N07   , Bn0 
	.byte		N08   , Bn1 
	.byte	W24
	.byte		N11   , Bn0 
	.byte		N10   , Bn1 
	.byte	W12
	.byte		N32   , Gn2 
	.byte	W12
	.byte		N07   , Bn0 
	.byte		N06   , Bn1 
	.byte	W12
	.byte		N08   , An0 
	.byte		N08   , An1 
	.byte	W12
	.byte	PEND
@ 016   ----------------------------------------
AOE8_1_016:
	.byte		N08   , Bn0 , v100
	.byte		N09   , Bn1 
	.byte		N02   , Bn2 
	.byte	W06
	.byte		N02   
	.byte	W06
	.byte		N04   
	.byte	W12
	.byte		N07   , Bn0 
	.byte		N06   , Bn1 
	.byte	W24
	.byte		        Bn0 
	.byte		N05   , Bn1 
	.byte	W24
	.byte		        Bn0 
	.byte		N05   , Bn1 
	.byte	W12
	.byte		N09   , An0 
	.byte		N08   , An1 
	.byte	W12
	.byte	PEND
@ 017   ----------------------------------------
	.byte	PATT
	 .word	AOE8_1_013
@ 018   ----------------------------------------
	.byte	PATT
	 .word	AOE8_1_014
@ 019   ----------------------------------------
	.byte	PATT
	 .word	AOE8_1_015
@ 020   ----------------------------------------
	.byte	PATT
	 .word	AOE8_1_016
@ 021   ----------------------------------------
AOE8_1_021:
	.byte		N02   , Bn0 , v120
	.byte		N02   , Bn1 
	.byte		N02   , Bn2 
	.byte		N02   , Bn3 
	.byte	W06
	.byte		        Bn0 
	.byte		N02   , Bn1 
	.byte		N02   , Bn2 
	.byte		N02   , Bn3 
	.byte	W06
	.byte		N06   , Bn0 
	.byte		N06   , Bn1 
	.byte		N05   , Bn2 
	.byte		N06   , Bn3 
	.byte	W18
	.byte		N07   , Bn0 
	.byte		N08   , Bn1 
	.byte		N07   , Bn2 
	.byte		N06   , Bn3 
	.byte	W24
	.byte		N09   , Bn0 
	.byte		N09   , Bn1 
	.byte		N06   , Bn2 
	.byte		N08   , Bn3 
	.byte	W18
	.byte		N03   , Bn0 
	.byte		N02   , Bn1 
	.byte		N02   , Bn2 
	.byte		N02   , Bn3 
	.byte	W06
	.byte		N03   , Bn0 
	.byte		N03   , Bn1 
	.byte		N02   , Bn2 
	.byte		N02   , Bn3 
	.byte	W06
	.byte		N09   , Bn0 
	.byte		N09   , Bn1 
	.byte		N07   , Bn2 
	.byte		N08   , Bn3 
	.byte	W12
	.byte	PEND
@ 022   ----------------------------------------
	.byte	PATT
	 .word	AOE8_1_021
@ 023   ----------------------------------------
	.byte		N92   , Bn0 , v104
	.byte		N92   , Bn1 , v088
	.byte	W96
@ 024   ----------------------------------------
	.byte		N06   , Bn0 
	.byte		N05   , Bn1 
	.byte	W96
@ 025   ----------------------------------------
	.byte		N96   , Bn0 , v104
	.byte		N96   , Bn1 
	.byte	W96
@ 026   ----------------------------------------
	.byte		N01   , Bn0 
	.byte		N02   , Bn1 
	.byte	W96
@ 027   ----------------------------------------
	.byte		TIE   , Bn3 , v048
	.byte	W96
@ 028   ----------------------------------------
	.byte	W96
@ 029   ----------------------------------------
	.byte	W96
@ 030   ----------------------------------------
	.byte	W72
	.byte		N03   , Bn2 , v052
	.byte		N04   , Bn4 
	.byte	W03
	.byte		N03   , An2 
	.byte		N03   , An4 
	.byte	W03
	.byte		N02   , Bn2 , v056
	.byte		N04   , En4 
	.byte	W04
	.byte		        En3 , v060
	.byte		N02   , Dn4 
	.byte	W03
	.byte		EOT   , Bn3 
	.byte		N04   , Bn3 , v064
	.byte	W01
	.byte		        Dn3 
	.byte	W03
	.byte		        An3 
	.byte	W01
	.byte		        En3 , v068
	.byte	W06
@ 031   ----------------------------------------
	.byte		N15   , Bn0 , v072
	.byte		N15   , Bn1 
	.byte		N01   , Bn3 
	.byte		N14   , Bn4 
	.byte	W96
@ 032   ----------------------------------------
	.byte	W96
@ 033   ----------------------------------------
	.byte	W96
@ 034   ----------------------------------------
	.byte	W72
	.byte		N07   , Fs1 
	.byte		N07   , Fs2 
	.byte		N05   , Fs4 
	.byte	W06
	.byte		N07   , En1 
	.byte		N07   , En2 
	.byte		N06   , En4 
	.byte	W06
	.byte		        Dn1 
	.byte		N05   , Dn2 
	.byte		N05   , Dn4 
	.byte	W06
	.byte		N07   , Bn0 
	.byte		N07   , Bn1 
	.byte		N06   , Bn3 
	.byte	W06
@ 035   ----------------------------------------
AOE8_1_035:
	.byte		N96   , Gn0 , v092
	.byte		N96   , Gn1 
	.byte		N05   , Dn4 
	.byte	W06
	.byte		N06   , As3 
	.byte	W06
	.byte		N05   , Gn3 
	.byte	W06
	.byte		N06   , Dn3 
	.byte	W06
	.byte		N05   , Gn3 
	.byte	W06
	.byte		N06   , Dn3 
	.byte	W06
	.byte		N05   , As2 
	.byte	W06
	.byte		N06   , Gn2 
	.byte	W06
	.byte		        Dn4 
	.byte	W06
	.byte		        As3 
	.byte	W06
	.byte		N04   , Gn3 
	.byte	W06
	.byte		N07   , Dn3 
	.byte	W06
	.byte		N05   , Gn3 
	.byte	W06
	.byte		        Dn3 
	.byte	W06
	.byte		N07   , As2 
	.byte	W06
	.byte		N05   , Gn2 
	.byte	W06
	.byte	PEND
@ 036   ----------------------------------------
AOE8_1_036:
	.byte		TIE   , Dn0 , v092
	.byte		TIE   , Dn1 
	.byte		N05   , Dn4 
	.byte	W06
	.byte		N06   , As3 
	.byte	W06
	.byte		N05   , Gn3 
	.byte	W06
	.byte		N06   , Dn3 
	.byte	W06
	.byte		N05   , Gn3 
	.byte	W06
	.byte		N06   , Dn3 
	.byte	W06
	.byte		N05   , As2 
	.byte	W06
	.byte		N06   , Gn2 
	.byte	W06
	.byte		        Dn4 
	.byte	W06
	.byte		        As3 
	.byte	W06
	.byte		N04   , Gn3 
	.byte	W06
	.byte		N07   , Dn3 
	.byte	W06
	.byte		N05   , Gn3 
	.byte	W06
	.byte		        Dn3 
	.byte	W06
	.byte		N07   , As2 
	.byte	W06
	.byte		N05   , Gn2 
	.byte	W06
	.byte	PEND
@ 037   ----------------------------------------
AOE8_1_037:
	.byte		N05   , Ds0 , v092
	.byte		N06   , Ds1 
	.byte		N05   , Dn4 
	.byte	W01
	.byte	PEND
	.byte		EOT   , Dn0 
	.byte		        Dn1 
	.byte	W05
	.byte		N06   , As3 
	.byte	W06
	.byte		N07   , Ds0 
	.byte		N07   , Ds1 
	.byte		N05   , Gn3 
	.byte	W06
	.byte		N06   , Dn3 
	.byte	W06
	.byte		N05   , Gn3 
	.byte	W06
	.byte		N06   , Dn3 
	.byte	W06
	.byte		N05   , As2 
	.byte	W06
	.byte		N06   , Gn2 
	.byte	W06
	.byte		        Dn4 
	.byte	W06
	.byte		        As3 
	.byte	W06
	.byte		N04   , Gn3 
	.byte	W06
	.byte		N07   , Dn3 
	.byte	W06
	.byte		N05   , Gn3 
	.byte	W06
	.byte		        Dn3 
	.byte	W06
	.byte		N07   , As2 
	.byte	W06
	.byte		N05   , Gn2 
	.byte	W06
@ 038   ----------------------------------------
AOE8_1_038:
	.byte		N05   , Ds0 , v092
	.byte		N05   , Ds1 
	.byte		N05   , Dn4 
	.byte	W06
	.byte		N06   , As3 
	.byte	W06
	.byte		        Ds0 
	.byte		N06   , Ds1 
	.byte		N05   , Gn3 
	.byte	W06
	.byte		N06   , Dn3 
	.byte	W06
	.byte		N05   , Gn3 
	.byte	W06
	.byte		N06   , Dn3 
	.byte	W06
	.byte		N05   , As2 
	.byte	W06
	.byte		N06   , Gn2 
	.byte	W06
	.byte		        Dn4 
	.byte	W06
	.byte		        As3 
	.byte	W06
	.byte		N04   , Gn3 
	.byte	W06
	.byte		N07   , Dn3 
	.byte	W06
	.byte		N05   , Gn3 
	.byte	W06
	.byte		        Dn3 
	.byte	W06
	.byte		N07   , As2 
	.byte	W06
	.byte		N05   , Gn2 
	.byte	W06
	.byte	PEND
@ 039   ----------------------------------------
	.byte	PATT
	 .word	AOE8_1_035
@ 040   ----------------------------------------
	.byte	PATT
	 .word	AOE8_1_036
@ 041   ----------------------------------------
	.byte	PATT
	 .word	AOE8_1_037
	.byte		EOT   , Dn0 
	.byte		        Dn1 
	.byte	W05
	.byte		N06   , As3 , v092
	.byte	W06
	.byte		N07   , Ds0 
	.byte		N07   , Ds1 
	.byte		N05   , Gn3 
	.byte	W06
	.byte		N06   , Dn3 
	.byte	W06
	.byte		N05   , Gn3 
	.byte	W06
	.byte		N06   , Dn3 
	.byte	W06
	.byte		N05   , As2 
	.byte	W06
	.byte		N06   , Gn2 
	.byte	W06
	.byte		        Dn4 
	.byte	W06
	.byte		        As3 
	.byte	W06
	.byte		N04   , Gn3 
	.byte	W06
	.byte		N07   , Dn3 
	.byte	W06
	.byte		N05   , Gn3 
	.byte	W06
	.byte		        Dn3 
	.byte	W06
	.byte		N07   , As2 
	.byte	W06
	.byte		N05   , Gn2 
	.byte	W06
@ 042   ----------------------------------------
	.byte	PATT
	 .word	AOE8_1_038
@ 043   ----------------------------------------
	.byte		N07   , Gn0 , v104
	.byte		N06   , Gn1 
	.byte		N06   , Gn2 
	.byte		N06   , Gn3 , v088
	.byte		N06   , Gn4 , v104
	.byte	W12
	.byte		N10   , Gn0 , v127
	.byte		N10   , Gn1 
	.byte		N09   , Gn2 , v104
	.byte		N10   , Gn3 
	.byte		N10   , Gn4 
	.byte	W84
@ 044   ----------------------------------------
AOE8_1_044:
	.byte		N05   , Bn0 , v100
	.byte		N05   , Bn1 
	.byte	W24
	.byte		        Bn0 
	.byte		N04   , Bn1 
	.byte	W24
	.byte		N05   , Bn0 
	.byte		N04   , Bn1 
	.byte	W24
	.byte		N11   , Bn0 
	.byte		N10   , Bn1 
	.byte	W12
	.byte		N13   , An0 
	.byte		N13   , An1 
	.byte	W12
	.byte	PEND
@ 045   ----------------------------------------
AOE8_1_045:
	.byte		N07   , Bn0 , v100
	.byte		N06   , Bn1 
	.byte	W24
	.byte		N05   , Bn0 
	.byte		N04   , Bn1 
	.byte	W24
	.byte		N05   , Bn0 
	.byte		N05   , Bn1 
	.byte	W24
	.byte		N11   , Bn0 
	.byte		N11   , Bn1 
	.byte	W12
	.byte		N12   , An0 
	.byte		N12   , An1 
	.byte	W12
	.byte	PEND
@ 046   ----------------------------------------
AOE8_1_046:
	.byte		N07   , Bn0 , v100
	.byte		N06   , Bn1 
	.byte	W24
	.byte		        Bn0 
	.byte		N04   , Bn1 
	.byte	W24
	.byte		N06   , Bn0 
	.byte		N05   , Bn1 
	.byte	W24
	.byte		N12   , Bn0 
	.byte		N10   , Bn1 
	.byte	W12
	.byte		N13   , Gn0 
	.byte		N14   , Gn1 
	.byte	W12
	.byte	PEND
@ 047   ----------------------------------------
AOE8_1_047:
	.byte		N07   , Bn0 , v100
	.byte		N05   , Bn1 
	.byte	W24
	.byte		N07   , Bn0 
	.byte		N06   , Bn1 
	.byte	W24
	.byte		        Bn0 
	.byte		N05   , Bn1 
	.byte	W24
	.byte		N22   , Dn1 
	.byte		N22   , Dn2 
	.byte	W24
	.byte	PEND
@ 048   ----------------------------------------
	.byte	PATT
	 .word	AOE8_1_044
@ 049   ----------------------------------------
	.byte	PATT
	 .word	AOE8_1_045
@ 050   ----------------------------------------
	.byte	PATT
	 .word	AOE8_1_046
@ 051   ----------------------------------------
	.byte	PATT
	 .word	AOE8_1_047
@ 052   ----------------------------------------
	.byte	PATT
	 .word	AOE8_1_044
@ 053   ----------------------------------------
	.byte	PATT
	 .word	AOE8_1_045
@ 054   ----------------------------------------
	.byte	PATT
	 .word	AOE8_1_046
@ 055   ----------------------------------------
	.byte	PATT
	 .word	AOE8_1_047
@ 056   ----------------------------------------
	.byte	PATT
	 .word	AOE8_1_044
@ 057   ----------------------------------------
	.byte	PATT
	 .word	AOE8_1_045
@ 058   ----------------------------------------
	.byte	PATT
	 .word	AOE8_1_046
@ 059   ----------------------------------------
	.byte	PATT
	 .word	AOE8_1_047
@ 060   ----------------------------------------
	.byte		N11   , Bn0 , v068
	.byte		N11   , Bn1 , v127
	.byte		N17   , Bn2 
	.byte		N11   , Bn3 
	.byte		N10   , Bn4 , v104
	.byte	W96
@ 061   ----------------------------------------
	.byte	W96
@ 062   ----------------------------------------
	.byte		N01   , Bn0 , v127
	.byte		N01   , Bn1 
	.byte		N03   , Bn2 
	.byte		N01   , Bn3 
	.byte		N02   , Bn4 
	.byte	W06
	.byte		N03   , Bn0 
	.byte		N03   , Bn1 
	.byte		N03   , Bn2 
	.byte		N02   , Bn3 
	.byte		N03   , Bn4 
	.byte	W06
	.byte		        Bn0 
	.byte		N02   , Bn1 
	.byte		N03   , Bn2 
	.byte		N02   , Bn3 
	.byte		N04   , Bn4 
	.byte	W06
	.byte		N03   , Bn0 
	.byte		N03   , Bn1 
	.byte		N03   , Bn2 
	.byte		N02   , Bn3 
	.byte		N04   , Bn4 
	.byte	W06
	.byte		N03   , Bn0 
	.byte		N03   , Bn1 
	.byte		N03   , Bn2 
	.byte		N02   , Bn3 
	.byte		N03   , Bn4 
	.byte	W06
	.byte		N11   , Bn0 
	.byte		N11   , Bn1 
	.byte		N08   , Bn2 
	.byte		N10   , Bn3 
	.byte		N10   , Bn4 
	.byte	W66
	.byte	GOTO
	 .word	AOE8_1_B1
AOE8_1_B2:
@ 063   ----------------------------------------
	.byte	FINE

@**************** Track 2 (Midi-Chn.2) ****************@

AOE8_2:
	.byte	KEYSH , AOE8_key+0
AOE8_2_B1:
@ 000   ----------------------------------------
	.byte		VOICE , 13
	.byte		VOL   , 85*AOE8_mvl/mxv
	.byte		PAN   , c_v+63
	.byte	W96
@ 001   ----------------------------------------
	.byte	W96
@ 002   ----------------------------------------
	.byte	W96
@ 003   ----------------------------------------
	.byte	W96
@ 004   ----------------------------------------
	.byte	W96
@ 005   ----------------------------------------
	.byte	W96
@ 006   ----------------------------------------
	.byte	W96
@ 007   ----------------------------------------
	.byte	W96
@ 008   ----------------------------------------
	.byte	W96
@ 009   ----------------------------------------
	.byte	W96
@ 010   ----------------------------------------
	.byte	W96
@ 011   ----------------------------------------
	.byte	W96
@ 012   ----------------------------------------
	.byte	W96
@ 013   ----------------------------------------
AOE8_2_013:
	.byte		N04   , Bn3 , v127
	.byte	W06
	.byte		        En3 
	.byte	W06
	.byte		N06   , Gn3 
	.byte	W06
	.byte		N05   , An3 
	.byte	W06
	.byte		        Dn4 
	.byte	W06
	.byte		N03   , Fs3 
	.byte	W06
	.byte		N06   , Gn3 
	.byte	W06
	.byte		N05   , An3 
	.byte	W06
	.byte		N04   , Bn3 
	.byte	W48
	.byte	PEND
@ 014   ----------------------------------------
	.byte	W96
@ 015   ----------------------------------------
	.byte	PATT
	 .word	AOE8_2_013
@ 016   ----------------------------------------
	.byte	W96
@ 017   ----------------------------------------
	.byte	PATT
	 .word	AOE8_2_013
@ 018   ----------------------------------------
	.byte	W96
@ 019   ----------------------------------------
	.byte	PATT
	 .word	AOE8_2_013
@ 020   ----------------------------------------
	.byte	W96
@ 021   ----------------------------------------
AOE8_2_021:
	.byte		N01   , Bn3 , v127
	.byte	W06
	.byte		N03   
	.byte	W06
	.byte		N05   
	.byte	W18
	.byte		N05   
	.byte	W24
	.byte		N05   
	.byte	W18
	.byte		N03   
	.byte	W06
	.byte		N03   
	.byte	W06
	.byte		N05   
	.byte	W12
	.byte	PEND
@ 022   ----------------------------------------
	.byte	PATT
	 .word	AOE8_2_021
@ 023   ----------------------------------------
	.byte	W96
@ 024   ----------------------------------------
	.byte	W96
@ 025   ----------------------------------------
	.byte	W96
@ 026   ----------------------------------------
	.byte	W96
@ 027   ----------------------------------------
	.byte	W96
@ 028   ----------------------------------------
	.byte	W96
@ 029   ----------------------------------------
	.byte	W96
@ 030   ----------------------------------------
	.byte	W96
@ 031   ----------------------------------------
	.byte	W96
@ 032   ----------------------------------------
	.byte	W96
@ 033   ----------------------------------------
	.byte	W96
@ 034   ----------------------------------------
	.byte	W96
@ 035   ----------------------------------------
	.byte	W96
@ 036   ----------------------------------------
	.byte	W96
@ 037   ----------------------------------------
	.byte	W96
@ 038   ----------------------------------------
	.byte	W96
@ 039   ----------------------------------------
	.byte	W96
@ 040   ----------------------------------------
	.byte	W96
@ 041   ----------------------------------------
	.byte	W96
@ 042   ----------------------------------------
	.byte	W96
@ 043   ----------------------------------------
	.byte	W96
@ 044   ----------------------------------------
	.byte	W96
@ 045   ----------------------------------------
	.byte	W96
@ 046   ----------------------------------------
	.byte	W96
@ 047   ----------------------------------------
	.byte	W96
@ 048   ----------------------------------------
	.byte	W96
@ 049   ----------------------------------------
	.byte	W96
@ 050   ----------------------------------------
	.byte	W96
@ 051   ----------------------------------------
	.byte	W96
@ 052   ----------------------------------------
	.byte	W96
@ 053   ----------------------------------------
	.byte	W96
@ 054   ----------------------------------------
	.byte	W96
@ 055   ----------------------------------------
	.byte		N05   , Bn4 , v127
	.byte	W06
	.byte		N08   , Fs4 
	.byte	W06
	.byte		N06   , Dn4 
	.byte	W06
	.byte		N07   , Bn3 
	.byte	W06
	.byte		N06   , Bn4 
	.byte	W06
	.byte		N07   , Fs4 
	.byte	W06
	.byte		N05   , Dn4 
	.byte	W06
	.byte		N06   , Bn3 
	.byte	W06
	.byte		        Bn4 
	.byte	W06
	.byte		N07   , Fs4 
	.byte	W06
	.byte		N06   , Dn4 
	.byte	W06
	.byte		        Bn3 
	.byte	W06
	.byte		N07   , Bn4 
	.byte	W06
	.byte		N08   , Fs4 
	.byte	W06
	.byte		N05   , Dn4 
	.byte	W06
	.byte		N06   , Bn3 
	.byte	W06
@ 056   ----------------------------------------
	.byte		N23   , Bn4 
	.byte	W96
@ 057   ----------------------------------------
	.byte	W96
@ 058   ----------------------------------------
	.byte	W96
@ 059   ----------------------------------------
	.byte		N06   
	.byte	W06
	.byte		N07   , Fs4 
	.byte	W06
	.byte		N06   , Dn4 
	.byte	W06
	.byte		N07   , Bn3 
	.byte	W06
	.byte		N06   , Bn4 
	.byte	W06
	.byte		N07   , Fs4 
	.byte	W06
	.byte		N05   , Dn4 
	.byte	W06
	.byte		N06   , Bn3 
	.byte	W06
	.byte		        Bn4 
	.byte	W06
	.byte		N07   , Fs4 
	.byte	W06
	.byte		N06   , Dn4 
	.byte	W06
	.byte		N05   , Bn3 
	.byte	W06
	.byte		N07   , Bn4 
	.byte	W06
	.byte		N06   , Fs4 
	.byte	W06
	.byte		        Dn4 
	.byte	W06
	.byte		        Bn3 
	.byte	W06
@ 060   ----------------------------------------
	.byte		N01   
	.byte	W96
@ 061   ----------------------------------------
	.byte	W96
@ 062   ----------------------------------------
	.byte		N02   , Bn2 
	.byte	W06
	.byte		N03   
	.byte	W06
	.byte		N02   
	.byte	W06
	.byte		N03   
	.byte	W06
	.byte		N03   
	.byte	W06
	.byte		N07   
	.byte	W66
	.byte	GOTO
	 .word	AOE8_2_B1
AOE8_2_B2:
@ 063   ----------------------------------------
	.byte	FINE

@**************** Track 3 (Midi-Chn.3) ****************@

AOE8_3:
	.byte	KEYSH , AOE8_key+0
AOE8_3_B1:
@ 000   ----------------------------------------
	.byte		VOICE , 60
	.byte		VOL   , 127*AOE8_mvl/mxv
	.byte		PAN   , c_v+0
	.byte	W96
@ 001   ----------------------------------------
	.byte	W96
@ 002   ----------------------------------------
	.byte	W96
@ 003   ----------------------------------------
	.byte	W96
@ 004   ----------------------------------------
AOE8_3_004:
	.byte		N72   , Fs3 , v080
	.byte	W72
	.byte		N24   , Gn3 
	.byte	W24
	.byte	PEND
@ 005   ----------------------------------------
	.byte		TIE   , Dn3 
	.byte	W96
@ 006   ----------------------------------------
	.byte		N68   , Cs3 
	.byte	W01
	.byte		EOT   , Dn3 
	.byte	W68
	.byte	W03
	.byte		N24   
	.byte	W24
@ 007   ----------------------------------------
	.byte		N92   , Bn2 
	.byte	W96
@ 008   ----------------------------------------
	.byte	PATT
	 .word	AOE8_3_004
@ 009   ----------------------------------------
	.byte		TIE   , Dn3 , v080
	.byte	W96
@ 010   ----------------------------------------
	.byte		N68   , Cs3 
	.byte	W01
	.byte		EOT   , Dn3 
	.byte	W68
	.byte	W03
	.byte		N24   
	.byte	W24
@ 011   ----------------------------------------
	.byte		N92   , Bn2 
	.byte	W96
@ 012   ----------------------------------------
	.byte	W96
@ 013   ----------------------------------------
	.byte	W96
@ 014   ----------------------------------------
	.byte	W96
@ 015   ----------------------------------------
	.byte	W96
@ 016   ----------------------------------------
	.byte	W96
@ 017   ----------------------------------------
	.byte	PATT
	 .word	AOE8_3_004
@ 018   ----------------------------------------
	.byte		TIE   , Dn3 , v080
	.byte	W96
@ 019   ----------------------------------------
	.byte		N68   , Cs3 
	.byte	W01
	.byte		EOT   , Dn3 
	.byte	W68
	.byte	W03
	.byte		N24   
	.byte	W24
@ 020   ----------------------------------------
	.byte		N92   , Bn2 
	.byte	W96
@ 021   ----------------------------------------
	.byte	W96
@ 022   ----------------------------------------
	.byte	W96
@ 023   ----------------------------------------
	.byte	W96
@ 024   ----------------------------------------
	.byte	W96
@ 025   ----------------------------------------
	.byte	W96
@ 026   ----------------------------------------
	.byte	W96
@ 027   ----------------------------------------
	.byte	W96
@ 028   ----------------------------------------
	.byte	W96
@ 029   ----------------------------------------
	.byte	W96
@ 030   ----------------------------------------
	.byte	W96
@ 031   ----------------------------------------
	.byte	W96
@ 032   ----------------------------------------
	.byte	W96
@ 033   ----------------------------------------
	.byte	W96
@ 034   ----------------------------------------
	.byte	W96
@ 035   ----------------------------------------
	.byte	W96
@ 036   ----------------------------------------
	.byte	W96
@ 037   ----------------------------------------
	.byte	W96
@ 038   ----------------------------------------
	.byte	W96
@ 039   ----------------------------------------
	.byte	W96
@ 040   ----------------------------------------
	.byte	W96
@ 041   ----------------------------------------
	.byte	W96
@ 042   ----------------------------------------
	.byte	W96
@ 043   ----------------------------------------
	.byte	W96
@ 044   ----------------------------------------
	.byte		N72   , Fs3 , v092
	.byte	W72
	.byte		N22   , Gn3 
	.byte	W24
@ 045   ----------------------------------------
	.byte		N92   , Dn3 
	.byte	W96
@ 046   ----------------------------------------
AOE8_3_046:
	.byte		N72   , Cs3 , v092
	.byte	W72
	.byte		N23   , Dn3 
	.byte	W24
	.byte	PEND
@ 047   ----------------------------------------
	.byte		TIE   , Bn2 
	.byte	W96
@ 048   ----------------------------------------
	.byte		N72   , Fs3 
	.byte	W01
	.byte		EOT   , Bn2 
	.byte	W68
	.byte	W03
	.byte		N22   , Gn3 
	.byte	W24
@ 049   ----------------------------------------
	.byte		N92   , Dn3 
	.byte	W96
@ 050   ----------------------------------------
	.byte	PATT
	 .word	AOE8_3_046
@ 051   ----------------------------------------
	.byte		TIE   , Bn2 , v092
	.byte	W96
@ 052   ----------------------------------------
	.byte	W01
	.byte		EOT   
	.byte	W92
	.byte	W03
@ 053   ----------------------------------------
	.byte	W96
@ 054   ----------------------------------------
	.byte	W96
@ 055   ----------------------------------------
	.byte	W96
@ 056   ----------------------------------------
	.byte	W96
@ 057   ----------------------------------------
	.byte	W96
@ 058   ----------------------------------------
	.byte		N72   , Cs3 , v096
	.byte	W72
	.byte		N23   , Dn3 
	.byte	W24
@ 059   ----------------------------------------
	.byte		N96   , Bn2 
	.byte	W96
@ 060   ----------------------------------------
	.byte		N01   , Bn2 , v104
	.byte	W96
@ 061   ----------------------------------------
	.byte	W96
@ 062   ----------------------------------------
	.byte	W96
	.byte	GOTO
	 .word	AOE8_3_B1
AOE8_3_B2:
@ 063   ----------------------------------------
	.byte	FINE

@**************** Track 4 (Midi-Chn.4) ****************@

AOE8_4:
	.byte	KEYSH , AOE8_key+0
AOE8_4_B1:
@ 000   ----------------------------------------
	.byte		VOICE , 70
	.byte		VOL   , 100*AOE8_mvl/mxv
	.byte		PAN   , c_v-44
	.byte	W96
@ 001   ----------------------------------------
	.byte	W96
@ 002   ----------------------------------------
	.byte	W96
@ 003   ----------------------------------------
	.byte	W96
@ 004   ----------------------------------------
	.byte	W96
@ 005   ----------------------------------------
	.byte	W96
@ 006   ----------------------------------------
	.byte	W96
@ 007   ----------------------------------------
	.byte	W96
@ 008   ----------------------------------------
	.byte	W96
@ 009   ----------------------------------------
	.byte	W96
@ 010   ----------------------------------------
	.byte	W96
@ 011   ----------------------------------------
	.byte	W96
@ 012   ----------------------------------------
	.byte	W96
@ 013   ----------------------------------------
	.byte	W96
@ 014   ----------------------------------------
	.byte	W96
@ 015   ----------------------------------------
	.byte	W96
@ 016   ----------------------------------------
	.byte	W96
@ 017   ----------------------------------------
	.byte	W96
@ 018   ----------------------------------------
	.byte	W96
@ 019   ----------------------------------------
	.byte	W96
@ 020   ----------------------------------------
	.byte	W96
@ 021   ----------------------------------------
	.byte	W96
@ 022   ----------------------------------------
	.byte	W96
@ 023   ----------------------------------------
	.byte	W96
@ 024   ----------------------------------------
	.byte	W96
@ 025   ----------------------------------------
	.byte	W96
@ 026   ----------------------------------------
	.byte	W96
@ 027   ----------------------------------------
	.byte	W96
@ 028   ----------------------------------------
	.byte	W96
@ 029   ----------------------------------------
	.byte	W96
@ 030   ----------------------------------------
	.byte	W96
@ 031   ----------------------------------------
	.byte	W96
@ 032   ----------------------------------------
	.byte	W96
@ 033   ----------------------------------------
	.byte	W96
@ 034   ----------------------------------------
	.byte	W96
@ 035   ----------------------------------------
	.byte	W96
@ 036   ----------------------------------------
	.byte	W96
@ 037   ----------------------------------------
	.byte	W96
@ 038   ----------------------------------------
	.byte	W96
@ 039   ----------------------------------------
	.byte	W96
@ 040   ----------------------------------------
	.byte	W96
@ 041   ----------------------------------------
	.byte	W96
@ 042   ----------------------------------------
	.byte	W96
@ 043   ----------------------------------------
	.byte	W96
@ 044   ----------------------------------------
	.byte	W96
@ 045   ----------------------------------------
	.byte	W96
@ 046   ----------------------------------------
	.byte	W96
@ 047   ----------------------------------------
	.byte	W96
@ 048   ----------------------------------------
	.byte	W96
@ 049   ----------------------------------------
	.byte	W96
@ 050   ----------------------------------------
	.byte	W96
@ 051   ----------------------------------------
	.byte	W96
@ 052   ----------------------------------------
	.byte	W96
@ 053   ----------------------------------------
	.byte	W96
@ 054   ----------------------------------------
	.byte	W96
@ 055   ----------------------------------------
	.byte	W96
@ 056   ----------------------------------------
	.byte		N72   , Dn2 , v080
	.byte	W72
	.byte		N24   , En2 
	.byte	W24
@ 057   ----------------------------------------
	.byte		TIE   , Bn1 
	.byte	W96
@ 058   ----------------------------------------
	.byte		N72   , An1 
	.byte	W01
	.byte		EOT   , Bn1 
	.byte	W68
	.byte	W03
	.byte		N24   
	.byte	W24
@ 059   ----------------------------------------
	.byte		N96   , Fs1 
	.byte	W96
@ 060   ----------------------------------------
	.byte		N13   , Bn1 , v104
	.byte	W96
@ 061   ----------------------------------------
	.byte	W96
@ 062   ----------------------------------------
	.byte	W96
	.byte	GOTO
	 .word	AOE8_4_B1
AOE8_4_B2:
@ 063   ----------------------------------------
	.byte	FINE

@**************** Track 5 (Midi-Chn.5) ****************@

AOE8_5:
	.byte	KEYSH , AOE8_key+0
AOE8_5_B1:
@ 000   ----------------------------------------
	.byte		VOICE , 14
	.byte		VOL   , 127*AOE8_mvl/mxv
	.byte		PAN   , c_v-64
	.byte	W96
@ 001   ----------------------------------------
	.byte	W96
@ 002   ----------------------------------------
	.byte	W96
@ 003   ----------------------------------------
	.byte	W96
@ 004   ----------------------------------------
	.byte	W96
@ 005   ----------------------------------------
	.byte	W96
@ 006   ----------------------------------------
	.byte	W96
@ 007   ----------------------------------------
	.byte	W96
@ 008   ----------------------------------------
	.byte	W96
@ 009   ----------------------------------------
	.byte	W96
@ 010   ----------------------------------------
	.byte	W96
@ 011   ----------------------------------------
	.byte	W96
@ 012   ----------------------------------------
	.byte	W96
@ 013   ----------------------------------------
	.byte		N72   , Fs4 , v104
	.byte	W72
	.byte		N24   , Gn4 
	.byte	W24
@ 014   ----------------------------------------
	.byte		TIE   , Dn4 
	.byte	W96
@ 015   ----------------------------------------
	.byte		N68   , Cs4 , v088
	.byte	W01
	.byte		EOT   , Dn4 
	.byte	W68
	.byte	W03
	.byte		N24   
	.byte	W24
@ 016   ----------------------------------------
	.byte		TIE   , Bn3 , v104
	.byte	W96
@ 017   ----------------------------------------
	.byte		N72   , Fs4 
	.byte	W04
	.byte		EOT   , Bn3 
	.byte	W68
	.byte		N24   , Gn4 
	.byte	W24
@ 018   ----------------------------------------
	.byte		TIE   , Dn4 
	.byte	W96
@ 019   ----------------------------------------
	.byte		N68   , Cs4 , v088
	.byte	W01
	.byte		EOT   , Dn4 
	.byte	W68
	.byte	W03
	.byte		N24   
	.byte	W24
@ 020   ----------------------------------------
	.byte		N96   , Bn3 , v104
	.byte	W96
@ 021   ----------------------------------------
AOE8_5_021:
	.byte		N02   , Bn3 , v127
	.byte	W06
	.byte		        Bn3 , v104
	.byte	W06
	.byte		N06   
	.byte	W18
	.byte		N04   , Bn3 , v127
	.byte	W24
	.byte		N05   
	.byte	W18
	.byte		N02   
	.byte	W06
	.byte		        Bn3 , v104
	.byte	W06
	.byte		N04   , Bn3 , v127
	.byte	W12
	.byte	PEND
@ 022   ----------------------------------------
	.byte	PATT
	 .word	AOE8_5_021
@ 023   ----------------------------------------
	.byte	W96
@ 024   ----------------------------------------
	.byte	W96
@ 025   ----------------------------------------
	.byte	W96
@ 026   ----------------------------------------
	.byte	W96
@ 027   ----------------------------------------
	.byte	W96
@ 028   ----------------------------------------
	.byte	W96
@ 029   ----------------------------------------
	.byte	W96
@ 030   ----------------------------------------
	.byte	W96
@ 031   ----------------------------------------
	.byte	W96
@ 032   ----------------------------------------
	.byte	W96
@ 033   ----------------------------------------
	.byte	W96
@ 034   ----------------------------------------
	.byte	W72
	.byte		N04   , Fs4 , v072
	.byte	W06
	.byte		        En4 
	.byte	W06
	.byte		N05   , Dn4 
	.byte	W06
	.byte		N03   , Bn3 
	.byte	W06
@ 035   ----------------------------------------
	.byte		N80   , Gn3 
	.byte	W96
@ 036   ----------------------------------------
	.byte		N80   
	.byte	W96
@ 037   ----------------------------------------
	.byte		N88   
	.byte	W96
@ 038   ----------------------------------------
	.byte		N84   
	.byte	W96
@ 039   ----------------------------------------
	.byte		N84   
	.byte	W96
@ 040   ----------------------------------------
	.byte		N80   
	.byte	W96
@ 041   ----------------------------------------
	.byte		N80   
	.byte	W96
@ 042   ----------------------------------------
	.byte		N76   
	.byte	W96
@ 043   ----------------------------------------
	.byte		N05   , Gn3 , v104
	.byte	W12
	.byte		N11   
	.byte	W84
@ 044   ----------------------------------------
	.byte	W96
@ 045   ----------------------------------------
	.byte	W96
@ 046   ----------------------------------------
	.byte	W96
@ 047   ----------------------------------------
	.byte	W96
@ 048   ----------------------------------------
	.byte	W96
@ 049   ----------------------------------------
	.byte	W96
@ 050   ----------------------------------------
	.byte	W96
@ 051   ----------------------------------------
	.byte	W96
@ 052   ----------------------------------------
	.byte	W96
@ 053   ----------------------------------------
	.byte	W96
@ 054   ----------------------------------------
	.byte	W96
@ 055   ----------------------------------------
	.byte	W96
@ 056   ----------------------------------------
	.byte	W96
@ 057   ----------------------------------------
	.byte	W96
@ 058   ----------------------------------------
	.byte	W96
@ 059   ----------------------------------------
	.byte	W96
@ 060   ----------------------------------------
	.byte		N14   , Bn3 , v127
	.byte	W96
@ 061   ----------------------------------------
	.byte	W96
@ 062   ----------------------------------------
	.byte		N02   
	.byte	W06
	.byte		N02   
	.byte	W06
	.byte		N03   
	.byte	W06
	.byte		N03   
	.byte	W06
	.byte		N03   
	.byte	W06
	.byte		N06   
	.byte	W66
	.byte	GOTO
	 .word	AOE8_5_B1
AOE8_5_B2:
@ 063   ----------------------------------------
	.byte	FINE

@**************** Track 6 (Midi-Chn.6) ****************@

AOE8_6:
	.byte	KEYSH , AOE8_key+0
AOE8_6_B1:
@ 000   ----------------------------------------
	.byte		VOICE , 45
	.byte		VOL   , 90*AOE8_mvl/mxv
	.byte		PAN   , c_v-24
	.byte	W96
@ 001   ----------------------------------------
	.byte	W96
@ 002   ----------------------------------------
	.byte	W96
@ 003   ----------------------------------------
	.byte	W96
@ 004   ----------------------------------------
	.byte	W96
@ 005   ----------------------------------------
	.byte	W96
@ 006   ----------------------------------------
	.byte	W96
@ 007   ----------------------------------------
	.byte	W96
@ 008   ----------------------------------------
	.byte	W96
@ 009   ----------------------------------------
	.byte	W96
@ 010   ----------------------------------------
	.byte	W96
@ 011   ----------------------------------------
	.byte	W96
@ 012   ----------------------------------------
	.byte	W96
@ 013   ----------------------------------------
	.byte	W96
@ 014   ----------------------------------------
	.byte	W96
@ 015   ----------------------------------------
	.byte	W96
@ 016   ----------------------------------------
	.byte	W96
@ 017   ----------------------------------------
	.byte	W96
@ 018   ----------------------------------------
	.byte	W96
@ 019   ----------------------------------------
	.byte	W96
@ 020   ----------------------------------------
	.byte	W96
@ 021   ----------------------------------------
	.byte	W96
@ 022   ----------------------------------------
	.byte	W96
@ 023   ----------------------------------------
	.byte		N11   , Bn1 , v127
	.byte	W12
	.byte		N06   , Bn2 
	.byte		N06   , Dn3 
	.byte	W12
	.byte		N03   , An2 
	.byte		N05   , Cs3 
	.byte	W06
	.byte		        Bn2 
	.byte		N05   , Dn3 
	.byte	W66
@ 024   ----------------------------------------
	.byte		N09   , Bn1 
	.byte	W12
	.byte		N06   , Bn2 
	.byte		N06   , Dn3 
	.byte	W12
	.byte		N03   , An2 
	.byte		N04   , Cs3 
	.byte	W06
	.byte		        Bn2 
	.byte		N04   , Dn3 
	.byte	W18
	.byte		N03   
	.byte		N05   , Gn3 
	.byte	W24
	.byte		N04   , Dn3 
	.byte		N05   , An3 
	.byte	W24
@ 025   ----------------------------------------
	.byte		N08   , Bn1 
	.byte	W12
	.byte		N05   , Bn2 
	.byte		N05   , Dn3 
	.byte	W12
	.byte		N03   , An2 
	.byte		N04   , Cs3 
	.byte	W06
	.byte		        Bn2 
	.byte		N05   , Dn3 
	.byte	W66
@ 026   ----------------------------------------
	.byte		N07   , Bn1 
	.byte	W12
	.byte		N05   , Bn2 
	.byte		N05   , Dn3 
	.byte	W12
	.byte		N03   , An2 
	.byte		N04   , Cs3 
	.byte	W06
	.byte		        Bn2 
	.byte		N04   , Dn3 
	.byte	W18
	.byte		N03   , En3 
	.byte		N04   , Gn3 
	.byte	W24
	.byte		        Dn3 
	.byte		N05   , Fs3 
	.byte	W24
@ 027   ----------------------------------------
	.byte		N08   , Bn0 
	.byte	W12
	.byte		N05   , Bn2 
	.byte	W12
	.byte		N06   , Bn0 
	.byte		N03   , An2 
	.byte	W06
	.byte		N05   , Bn2 
	.byte	W18
	.byte		N06   , Bn0 
	.byte	W24
	.byte		N06   
	.byte	W24
@ 028   ----------------------------------------
	.byte		N07   
	.byte	W12
	.byte		N04   , Bn2 
	.byte	W12
	.byte		N06   , Bn0 
	.byte		N04   , An2 
	.byte	W06
	.byte		        Bn2 
	.byte	W18
	.byte		N07   , Bn0 
	.byte		N04   , En3 
	.byte	W18
	.byte		        Dn3 
	.byte	W06
	.byte		N09   , Bn0 
	.byte	W12
	.byte		N06   , Cs3 
	.byte	W12
@ 029   ----------------------------------------
	.byte		N10   , Bn0 
	.byte	W12
	.byte		N05   , Bn2 
	.byte	W12
	.byte		N06   , Bn0 
	.byte		N04   , An2 
	.byte	W06
	.byte		N05   , Bn2 
	.byte	W18
	.byte		N06   , Bn0 
	.byte	W24
	.byte		N08   
	.byte	W24
@ 030   ----------------------------------------
	.byte		N08   
	.byte	W12
	.byte		N04   , Bn2 
	.byte	W12
	.byte		N06   , Bn0 
	.byte		N03   , An2 
	.byte	W06
	.byte		N04   , Bn2 
	.byte	W18
	.byte		N08   , Bn0 
	.byte		N05   , Gn3 
	.byte	W18
	.byte		N04   , Fs3 
	.byte	W06
	.byte		N11   , Bn0 
	.byte	W12
	.byte		N03   , En3 
	.byte	W06
	.byte		N04   , Dn3 
	.byte	W06
@ 031   ----------------------------------------
	.byte		N10   , Bn0 
	.byte		N05   , Bn3 
	.byte	W12
	.byte		N04   , Bn2 
	.byte	W12
	.byte		N06   , Bn0 
	.byte		N03   , An2 
	.byte		N02   , Bn3 
	.byte	W06
	.byte		N04   , Bn2 
	.byte	W18
	.byte		N08   , Bn0 
	.byte		N03   , Bn3 
	.byte	W24
	.byte		N08   , Bn0 
	.byte		N03   , Bn3 
	.byte	W24
@ 032   ----------------------------------------
	.byte		N08   , Bn0 
	.byte		N04   , Bn3 
	.byte	W12
	.byte		N05   , Bn2 
	.byte	W12
	.byte		N06   , Bn0 
	.byte		N04   , An2 
	.byte		N03   , Bn3 
	.byte	W06
	.byte		N05   , Bn2 
	.byte	W18
	.byte		N10   , Bn0 
	.byte		N05   , En3 
	.byte		N03   , Bn3 
	.byte	W18
	.byte		N04   , Dn3 
	.byte	W06
	.byte		N10   , Bn0 
	.byte		N05   , Bn3 
	.byte	W12
	.byte		N07   , Cs3 
	.byte	W12
@ 033   ----------------------------------------
	.byte		N11   , Bn0 
	.byte		N04   , Bn3 
	.byte	W12
	.byte		N05   , Bn2 
	.byte	W12
	.byte		N07   , Bn0 
	.byte		N04   , An2 
	.byte		N03   , Bn3 
	.byte	W06
	.byte		N05   , Bn2 
	.byte	W18
	.byte		N10   , Bn0 
	.byte		N04   , Bn3 
	.byte	W24
	.byte		N11   , Bn0 
	.byte		N03   , Bn3 
	.byte	W24
@ 034   ----------------------------------------
	.byte		N09   , Bn0 
	.byte		N04   , Bn3 
	.byte	W12
	.byte		N05   , Bn2 
	.byte	W12
	.byte		N09   , Bn0 
	.byte		N03   , An2 
	.byte		N04   , Bn3 
	.byte	W06
	.byte		        Bn2 
	.byte	W18
	.byte		N15   , Bn0 
	.byte		N04   , En3 
	.byte		N04   , Gn3 
	.byte		N04   , Bn3 
	.byte	W18
	.byte		        Dn3 
	.byte		N04   , An3 
	.byte	W06
	.byte		N09   , Bn0 
	.byte		N04   , Bn3 
	.byte	W12
	.byte		N03   , Bn2 
	.byte		N03   , Bn3 
	.byte	W06
	.byte		        Bn2 
	.byte		N05   , Bn3 
	.byte	W06
@ 035   ----------------------------------------
	.byte	W96
@ 036   ----------------------------------------
	.byte	W96
@ 037   ----------------------------------------
	.byte	W96
@ 038   ----------------------------------------
	.byte	W96
@ 039   ----------------------------------------
	.byte	W96
@ 040   ----------------------------------------
	.byte	W96
@ 041   ----------------------------------------
	.byte	W96
@ 042   ----------------------------------------
	.byte	W96
@ 043   ----------------------------------------
	.byte	W96
@ 044   ----------------------------------------
	.byte	W96
@ 045   ----------------------------------------
	.byte	W96
@ 046   ----------------------------------------
	.byte	W96
@ 047   ----------------------------------------
	.byte	W96
@ 048   ----------------------------------------
	.byte	W96
@ 049   ----------------------------------------
	.byte	W96
@ 050   ----------------------------------------
	.byte	W96
@ 051   ----------------------------------------
	.byte	W96
@ 052   ----------------------------------------
	.byte	W96
@ 053   ----------------------------------------
	.byte	W96
@ 054   ----------------------------------------
	.byte	W96
@ 055   ----------------------------------------
	.byte	W96
@ 056   ----------------------------------------
	.byte	W96
@ 057   ----------------------------------------
	.byte	W96
@ 058   ----------------------------------------
	.byte	W96
@ 059   ----------------------------------------
	.byte	W96
@ 060   ----------------------------------------
	.byte	W96
@ 061   ----------------------------------------
	.byte	W96
@ 062   ----------------------------------------
	.byte	W96
	.byte	GOTO
	 .word	AOE8_6_B1
AOE8_6_B2:
@ 063   ----------------------------------------
	.byte	FINE

@**************** Track 7 (Midi-Chn.7) ****************@

AOE8_7:
	.byte	KEYSH , AOE8_key+0
AOE8_7_B1:
@ 000   ----------------------------------------
	.byte		VOICE , 46
	.byte		VOL   , 98*AOE8_mvl/mxv
	.byte		PAN   , c_v+0
	.byte	W96
@ 001   ----------------------------------------
	.byte	W96
@ 002   ----------------------------------------
	.byte	W96
@ 003   ----------------------------------------
	.byte	W96
@ 004   ----------------------------------------
	.byte	W96
@ 005   ----------------------------------------
	.byte	W96
@ 006   ----------------------------------------
	.byte	W96
@ 007   ----------------------------------------
	.byte	W96
@ 008   ----------------------------------------
	.byte	W96
@ 009   ----------------------------------------
	.byte	W96
@ 010   ----------------------------------------
	.byte	W96
@ 011   ----------------------------------------
	.byte	W96
@ 012   ----------------------------------------
	.byte	W96
@ 013   ----------------------------------------
	.byte	W96
@ 014   ----------------------------------------
	.byte	W96
@ 015   ----------------------------------------
	.byte	W96
@ 016   ----------------------------------------
	.byte	W96
@ 017   ----------------------------------------
	.byte	W96
@ 018   ----------------------------------------
	.byte	W96
@ 019   ----------------------------------------
	.byte	W96
@ 020   ----------------------------------------
	.byte	W96
@ 021   ----------------------------------------
	.byte	W96
@ 022   ----------------------------------------
	.byte	W96
@ 023   ----------------------------------------
	.byte	W96
@ 024   ----------------------------------------
AOE8_7_024:
	.byte	W02
	.byte	W01
	.byte		N02   , Fs0 , v088
	.byte	W03
	.byte		N03   , Gn0 , v072
	.byte		N03   , An0 , v064
	.byte	W03
	.byte		N01   , Bn0 , v072
	.byte	W03
	.byte		N02   , Cs1 , v064
	.byte	W03
	.byte		        Dn1 , v072
	.byte	W03
	.byte		N01   , En1 , v088
	.byte	W03
	.byte		        Fs1 , v064
	.byte	W03
	.byte		N03   , Gn1 
	.byte	W03
	.byte		        An1 , v072
	.byte	W03
	.byte		N01   , Bn1 , v088
	.byte	W03
	.byte		N02   , Cs2 , v072
	.byte	W03
	.byte		        Dn2 
	.byte	W03
	.byte		N01   , En2 , v088
	.byte	W03
	.byte		N02   , Fs2 , v064
	.byte	W03
	.byte		N03   , Gn2 , v072
	.byte	W03
	.byte		        An2 
	.byte	W03
	.byte		N01   , Bn2 , v104
	.byte	W03
	.byte		N02   , Cs3 , v064
	.byte	W03
	.byte		N03   , Dn3 , v088
	.byte	W03
	.byte		N01   , En3 , v072
	.byte	W03
	.byte		        Fs3 
	.byte	W03
	.byte		N03   , Gn3 , v064
	.byte	W03
	.byte		        An3 , v072
	.byte	W03
	.byte		N01   , Bn3 , v088
	.byte	W03
	.byte		        Cs4 , v072
	.byte	W03
	.byte		N03   , Dn4 , v056
	.byte	W03
	.byte		N02   , En4 , v072
	.byte	W03
	.byte		N01   , Fs4 , v064
	.byte	W03
	.byte		N03   , Gn4 , v072
	.byte	W03
	.byte		        An4 
	.byte	W03
	.byte		N01   , Bn4 , v104
	.byte	W03
	.byte	PEND
@ 025   ----------------------------------------
AOE8_7_025:
	.byte		N05   , Dn5 , v100
	.byte	W30
	.byte	W66
	.byte	PEND
@ 026   ----------------------------------------
	.byte	W96
@ 027   ----------------------------------------
	.byte	W96
@ 028   ----------------------------------------
	.byte	W96
@ 029   ----------------------------------------
	.byte	W96
@ 030   ----------------------------------------
	.byte	W96
@ 031   ----------------------------------------
	.byte	W96
@ 032   ----------------------------------------
	.byte	W96
@ 033   ----------------------------------------
	.byte	W96
@ 034   ----------------------------------------
	.byte	W96
@ 035   ----------------------------------------
	.byte	W96
@ 036   ----------------------------------------
	.byte	W96
@ 037   ----------------------------------------
	.byte	W96
@ 038   ----------------------------------------
	.byte	W96
@ 039   ----------------------------------------
AOE8_7_039:
	.byte		N05   , Dn4 , v080
	.byte	W06
	.byte		N03   , As3 
	.byte	W06
	.byte		        Gn3 
	.byte	W06
	.byte		        Dn3 
	.byte	W06
	.byte		N02   , Gn3 
	.byte	W06
	.byte		N03   , Dn3 
	.byte	W06
	.byte		        As2 
	.byte	W06
	.byte		N02   , Gn2 
	.byte	W06
	.byte		N04   , Dn4 
	.byte	W06
	.byte		N03   , As3 
	.byte	W06
	.byte		        Gn3 
	.byte	W06
	.byte		        Dn3 
	.byte	W06
	.byte		N02   , Gn3 
	.byte	W06
	.byte		N03   , Dn3 
	.byte	W06
	.byte		        As2 
	.byte	W06
	.byte		        Gn2 
	.byte	W06
	.byte	PEND
@ 040   ----------------------------------------
AOE8_7_040:
	.byte	W48
	.byte		N05   , Dn4 , v080
	.byte	W06
	.byte		N04   , As3 
	.byte	W06
	.byte		N05   , Gn3 
	.byte	W06
	.byte		N04   , Dn3 
	.byte	W06
	.byte		        Gn3 
	.byte	W06
	.byte		        Dn3 
	.byte	W06
	.byte		        As2 
	.byte	W06
	.byte		N03   , Gn2 
	.byte	W06
	.byte	PEND
@ 041   ----------------------------------------
	.byte	PATT
	 .word	AOE8_7_039
@ 042   ----------------------------------------
	.byte	PATT
	 .word	AOE8_7_040
@ 043   ----------------------------------------
	.byte	PATT
	 .word	AOE8_7_024
@ 044   ----------------------------------------
	.byte	PATT
	 .word	AOE8_7_025
@ 045   ----------------------------------------
	.byte	W96
@ 046   ----------------------------------------
	.byte	W96
@ 047   ----------------------------------------
	.byte	W96
@ 048   ----------------------------------------
	.byte	W96
@ 049   ----------------------------------------
	.byte	W96
@ 050   ----------------------------------------
	.byte	W96
@ 051   ----------------------------------------
	.byte	W96
@ 052   ----------------------------------------
	.byte	W96
@ 053   ----------------------------------------
	.byte	W96
@ 054   ----------------------------------------
	.byte	W96
@ 055   ----------------------------------------
	.byte	W96
@ 056   ----------------------------------------
	.byte	W96
@ 057   ----------------------------------------
	.byte	W96
@ 058   ----------------------------------------
	.byte	W96
@ 059   ----------------------------------------
	.byte	W96
@ 060   ----------------------------------------
	.byte	W96
@ 061   ----------------------------------------
	.byte	W96
@ 062   ----------------------------------------
	.byte	W96
	.byte	GOTO
	 .word	AOE8_7_B1
AOE8_7_B2:
@ 063   ----------------------------------------
	.byte	FINE

@**************** Track 8 (Midi-Chn.8) ****************@

AOE8_8:
	.byte	KEYSH , AOE8_key+0
AOE8_8_B1:
@ 000   ----------------------------------------
	.byte		VOICE , 73
	.byte		VOL   , 106*AOE8_mvl/mxv
	.byte		PAN   , c_v+21
	.byte	W96
@ 001   ----------------------------------------
	.byte	W96
@ 002   ----------------------------------------
	.byte	W96
@ 003   ----------------------------------------
	.byte	W96
@ 004   ----------------------------------------
	.byte	W96
@ 005   ----------------------------------------
	.byte	W96
@ 006   ----------------------------------------
	.byte	W96
@ 007   ----------------------------------------
	.byte	W96
@ 008   ----------------------------------------
	.byte	W96
@ 009   ----------------------------------------
	.byte	W96
@ 010   ----------------------------------------
	.byte	W96
@ 011   ----------------------------------------
	.byte	W96
@ 012   ----------------------------------------
	.byte	W96
@ 013   ----------------------------------------
	.byte	W96
@ 014   ----------------------------------------
	.byte	W96
@ 015   ----------------------------------------
	.byte	W96
@ 016   ----------------------------------------
	.byte	W96
@ 017   ----------------------------------------
	.byte	W96
@ 018   ----------------------------------------
	.byte	W96
@ 019   ----------------------------------------
	.byte	W96
@ 020   ----------------------------------------
	.byte	W96
@ 021   ----------------------------------------
	.byte	W96
@ 022   ----------------------------------------
	.byte	W96
@ 023   ----------------------------------------
	.byte	W96
@ 024   ----------------------------------------
	.byte	W96
@ 025   ----------------------------------------
	.byte	W96
@ 026   ----------------------------------------
	.byte	W96
@ 027   ----------------------------------------
	.byte		N72   , Fs4 , v052
	.byte	W72
	.byte		N24   , Gn4 
	.byte	W24
@ 028   ----------------------------------------
	.byte		N92   , Dn4 
	.byte	W96
@ 029   ----------------------------------------
	.byte		N72   , Cs4 
	.byte	W72
	.byte		N22   , Dn4 
	.byte	W24
@ 030   ----------------------------------------
	.byte		TIE   , Bn3 
	.byte	W96
@ 031   ----------------------------------------
	.byte		N72   , Fs3 
	.byte	W03
	.byte		EOT   , Bn3 
	.byte	W68
	.byte	W01
	.byte		N23   , Gn3 
	.byte	W24
@ 032   ----------------------------------------
	.byte		N92   , Dn3 
	.byte	W96
@ 033   ----------------------------------------
	.byte		N72   , Cs3 
	.byte	W72
	.byte		N24   , Dn3 
	.byte	W24
@ 034   ----------------------------------------
	.byte		N92   , Bn2 
	.byte	W96
@ 035   ----------------------------------------
	.byte	W96
@ 036   ----------------------------------------
	.byte	W96
@ 037   ----------------------------------------
	.byte	W96
@ 038   ----------------------------------------
	.byte	W96
@ 039   ----------------------------------------
	.byte	W96
@ 040   ----------------------------------------
AOE8_8_040:
	.byte		N07   , Dn5 , v072
	.byte	W06
	.byte		N06   , As4 
	.byte	W06
	.byte		N05   , Gn4 
	.byte	W06
	.byte		N06   , Dn4 
	.byte	W06
	.byte		N05   , Gn4 
	.byte	W06
	.byte		N06   , Dn4 
	.byte	W06
	.byte		        As3 
	.byte	W06
	.byte		N08   , Gn3 
	.byte	W54
	.byte	PEND
@ 041   ----------------------------------------
	.byte	W96
@ 042   ----------------------------------------
	.byte	PATT
	 .word	AOE8_8_040
@ 043   ----------------------------------------
	.byte		N08   , Gn4 , v127
	.byte	W12
	.byte		N09   
	.byte	W84
@ 044   ----------------------------------------
	.byte	W96
@ 045   ----------------------------------------
	.byte	W96
@ 046   ----------------------------------------
	.byte	W96
@ 047   ----------------------------------------
	.byte	W96
@ 048   ----------------------------------------
	.byte	W96
@ 049   ----------------------------------------
	.byte	W96
@ 050   ----------------------------------------
	.byte	W96
@ 051   ----------------------------------------
	.byte	W96
@ 052   ----------------------------------------
	.byte		N72   , Fs4 , v088
	.byte	W72
	.byte		N24   , Gn4 
	.byte	W24
@ 053   ----------------------------------------
	.byte		TIE   , Dn4 
	.byte	W96
@ 054   ----------------------------------------
	.byte		N72   , Cs4 
	.byte	W01
	.byte		EOT   , Dn4 
	.byte	W68
	.byte	W03
	.byte		N20   
	.byte	W24
@ 055   ----------------------------------------
	.byte		TIE   , Bn3 
	.byte	W96
@ 056   ----------------------------------------
	.byte		N72   , Fs4 , v080
	.byte	W02
	.byte		EOT   , Bn3 
	.byte	W68
	.byte	W02
	.byte		N24   , Gn4 
	.byte	W24
@ 057   ----------------------------------------
	.byte		TIE   , Dn4 
	.byte	W96
@ 058   ----------------------------------------
	.byte		N72   , Cs4 
	.byte	W01
	.byte		EOT   , Dn4 
	.byte	W68
	.byte	W03
	.byte		N20   
	.byte	W24
@ 059   ----------------------------------------
	.byte		N96   , Bn3 
	.byte	W96
@ 060   ----------------------------------------
	.byte		N02   , Bn3 , v127
	.byte	W96
@ 061   ----------------------------------------
	.byte	W96
@ 062   ----------------------------------------
	.byte		N03   
	.byte	W06
	.byte		N03   
	.byte	W06
	.byte		N03   
	.byte	W06
	.byte		N03   
	.byte	W06
	.byte		N03   
	.byte	W06
	.byte		N08   
	.byte	W66
	.byte	GOTO
	 .word	AOE8_8_B1
AOE8_8_B2:
@ 063   ----------------------------------------
	.byte	FINE

@**************** Track 9 (Midi-Chn.9) ****************@

AOE8_9:
	.byte	KEYSH , AOE8_key+0
AOE8_9_B1:
@ 000   ----------------------------------------
	.byte		VOICE , 49
	.byte		VOL   , 110*AOE8_mvl/mxv
	.byte		PAN   , c_v+0
	.byte	W96
@ 001   ----------------------------------------
	.byte	W96
@ 002   ----------------------------------------
	.byte	W96
@ 003   ----------------------------------------
	.byte	W96
@ 004   ----------------------------------------
	.byte	W96
@ 005   ----------------------------------------
	.byte	W96
@ 006   ----------------------------------------
	.byte	W96
@ 007   ----------------------------------------
	.byte	W96
@ 008   ----------------------------------------
	.byte	W96
@ 009   ----------------------------------------
	.byte	W96
@ 010   ----------------------------------------
	.byte	W96
@ 011   ----------------------------------------
	.byte	W96
@ 012   ----------------------------------------
	.byte	W96
@ 013   ----------------------------------------
	.byte	W96
@ 014   ----------------------------------------
	.byte	W96
@ 015   ----------------------------------------
	.byte	W96
@ 016   ----------------------------------------
	.byte	W96
@ 017   ----------------------------------------
	.byte	W96
@ 018   ----------------------------------------
	.byte	W96
@ 019   ----------------------------------------
	.byte	W96
@ 020   ----------------------------------------
	.byte	W96
@ 021   ----------------------------------------
	.byte	W96
@ 022   ----------------------------------------
	.byte	W96
@ 023   ----------------------------------------
	.byte	W96
@ 024   ----------------------------------------
	.byte	W96
@ 025   ----------------------------------------
	.byte	W96
@ 026   ----------------------------------------
	.byte	W96
@ 027   ----------------------------------------
	.byte	W96
@ 028   ----------------------------------------
	.byte	W96
@ 029   ----------------------------------------
	.byte	W96
@ 030   ----------------------------------------
	.byte	W96
@ 031   ----------------------------------------
	.byte	W96
@ 032   ----------------------------------------
	.byte	W96
@ 033   ----------------------------------------
	.byte	W96
@ 034   ----------------------------------------
	.byte	W96
@ 035   ----------------------------------------
	.byte	W96
@ 036   ----------------------------------------
	.byte	W96
@ 037   ----------------------------------------
	.byte	W96
@ 038   ----------------------------------------
	.byte	W96
@ 039   ----------------------------------------
	.byte	W96
@ 040   ----------------------------------------
	.byte	W96
@ 041   ----------------------------------------
	.byte	W96
@ 042   ----------------------------------------
	.byte	W96
@ 043   ----------------------------------------
	.byte	W96
@ 044   ----------------------------------------
	.byte	W96
@ 045   ----------------------------------------
	.byte	W96
@ 046   ----------------------------------------
	.byte	W96
@ 047   ----------------------------------------
	.byte	W96
@ 048   ----------------------------------------
	.byte		TIE   , Bn2 , v076
	.byte		TIE   , Dn3 
	.byte		N96   , Fs3 
	.byte	W96
@ 049   ----------------------------------------
	.byte		N68   , Gn3 
	.byte	W60
	.byte	W03
	.byte	W08
	.byte		EOT   , Bn2 
	.byte		        Dn3 
	.byte	W24
	.byte	W01
@ 050   ----------------------------------------
	.byte		N72   , An2 , v080
	.byte		N72   , Cs3 
	.byte		N76   , En3 
	.byte	W01
	.byte	W60
	.byte	W02
	.byte	W32
	.byte	W01
@ 051   ----------------------------------------
	.byte		N80   , Bn2 
	.byte		N80   , Dn3 
	.byte		N84   , Fs3 
	.byte	W78
	.byte	W01
	.byte	W14
	.byte	W03
@ 052   ----------------------------------------
	.byte		TIE   , Bn0 , v104
	.byte	W96
@ 053   ----------------------------------------
	.byte	W96
@ 054   ----------------------------------------
	.byte	W96
@ 055   ----------------------------------------
	.byte	W92
	.byte	W03
	.byte		EOT   
	.byte	W01
@ 056   ----------------------------------------
	.byte	W96
@ 057   ----------------------------------------
	.byte	W96
@ 058   ----------------------------------------
	.byte	W96
@ 059   ----------------------------------------
	.byte	W96
@ 060   ----------------------------------------
	.byte	W96
@ 061   ----------------------------------------
	.byte	W96
@ 062   ----------------------------------------
	.byte	W96
	.byte	GOTO
	 .word	AOE8_9_B1
AOE8_9_B2:
@ 063   ----------------------------------------
	.byte	FINE

@**************** Track 10 (Midi-Chn.11) ****************@

AOE8_10:
	.byte	KEYSH , AOE8_key+0
AOE8_10_B1:
@ 000   ----------------------------------------
	.byte		VOICE , 127
	.byte		VOL   , 127*AOE8_mvl/mxv
	.byte		PAN   , c_v+0
	.byte		N16   , Cn1 , v104
	.byte	W24
	.byte		N14   , Cn1 , v088
	.byte	W24
	.byte		N14   
	.byte	W24
	.byte		N19   
	.byte	W24
@ 001   ----------------------------------------
AOE8_10_001:
	.byte		N16   , Cn1 , v104
	.byte	W24
	.byte		N14   , Cn1 , v088
	.byte	W24
	.byte		N14   
	.byte	W24
	.byte		N19   
	.byte	W24
	.byte	PEND
@ 002   ----------------------------------------
	.byte	PATT
	 .word	AOE8_10_001
@ 003   ----------------------------------------
	.byte	PATT
	 .word	AOE8_10_001
@ 004   ----------------------------------------
	.byte	PATT
	 .word	AOE8_10_001
@ 005   ----------------------------------------
	.byte	PATT
	 .word	AOE8_10_001
@ 006   ----------------------------------------
	.byte	PATT
	 .word	AOE8_10_001
@ 007   ----------------------------------------
	.byte	PATT
	 .word	AOE8_10_001
@ 008   ----------------------------------------
	.byte	PATT
	 .word	AOE8_10_001
@ 009   ----------------------------------------
	.byte	PATT
	 .word	AOE8_10_001
@ 010   ----------------------------------------
	.byte	PATT
	 .word	AOE8_10_001
@ 011   ----------------------------------------
	.byte		N16   , Cn1 , v104
	.byte	W24
	.byte		N14   , Cn1 , v088
	.byte	W24
	.byte		N14   
	.byte		N02   , Bn1 , v100
	.byte	W04
	.byte		        Bn1 , v072
	.byte	W04
	.byte		        Bn1 , v056
	.byte	W04
	.byte		        Bn1 , v060
	.byte	W04
	.byte		        Bn1 , v068
	.byte	W04
	.byte		        Bn1 , v072
	.byte	W04
	.byte		N19   , Cn1 , v088
	.byte		N02   , Bn1 , v076
	.byte	W04
	.byte		        Bn1 , v080
	.byte	W04
	.byte		        Bn1 , v088
	.byte	W04
	.byte		        Bn1 , v092
	.byte	W04
	.byte		        Bn1 , v096
	.byte	W04
	.byte		        Bn1 , v100
	.byte	W04
@ 012   ----------------------------------------
	.byte		N03   , Cn1 , v127
	.byte		N02   , Dn1 , v052
	.byte		N02   , Bn1 , v127
	.byte		N92   , An2 
	.byte	W06
	.byte		N03   , Cn1 
	.byte		N02   , Dn1 , v052
	.byte		N02   , Bn1 , v127
	.byte	W06
	.byte		N09   , Cn1 
	.byte		N07   , Dn1 , v052
	.byte		N10   , Bn1 , v127
	.byte	W84
@ 013   ----------------------------------------
AOE8_10_013:
	.byte		N16   , Cn1 , v104
	.byte		N06   , Dn1 , v052
	.byte	W12
	.byte		N05   
	.byte	W06
	.byte		N04   
	.byte	W06
	.byte		N14   , Cn1 , v088
	.byte		N06   , Dn1 , v052
	.byte	W12
	.byte		N06   
	.byte	W12
	.byte		N14   , Cn1 , v088
	.byte		N02   , Dn1 , v052
	.byte	W03
	.byte		N03   
	.byte	W03
	.byte		N01   
	.byte	W06
	.byte		N06   
	.byte	W12
	.byte		N19   , Cn1 , v088
	.byte		N07   , Dn1 , v052
	.byte	W24
	.byte	PEND
@ 014   ----------------------------------------
AOE8_10_014:
	.byte		N16   , Cn1 , v104
	.byte		N07   , Dn1 , v052
	.byte	W12
	.byte		N05   
	.byte	W06
	.byte		N04   
	.byte	W06
	.byte		N14   , Cn1 , v088
	.byte		N06   , Dn1 , v052
	.byte	W06
	.byte		N04   
	.byte	W06
	.byte		N05   
	.byte	W06
	.byte		N04   
	.byte	W06
	.byte		N14   , Cn1 , v088
	.byte		N06   , Dn1 , v052
	.byte	W24
	.byte		N19   , Cn1 , v088
	.byte		N05   , Dn1 , v052
	.byte	W12
	.byte		N04   
	.byte	W06
	.byte		N03   
	.byte	W06
	.byte	PEND
@ 015   ----------------------------------------
	.byte	PATT
	 .word	AOE8_10_013
@ 016   ----------------------------------------
	.byte	PATT
	 .word	AOE8_10_014
@ 017   ----------------------------------------
	.byte	PATT
	 .word	AOE8_10_013
@ 018   ----------------------------------------
	.byte	PATT
	 .word	AOE8_10_014
@ 019   ----------------------------------------
	.byte	PATT
	 .word	AOE8_10_013
@ 020   ----------------------------------------
	.byte		N16   , Cn1 , v104
	.byte		N07   , Dn1 , v052
	.byte	W12
	.byte		N02   
	.byte	W06
	.byte		N04   
	.byte	W06
	.byte		N14   , Cn1 , v088
	.byte		N02   , Dn1 , v052
	.byte	W06
	.byte		N04   
	.byte	W06
	.byte		N02   
	.byte	W06
	.byte		N04   
	.byte	W06
	.byte		N14   , Cn1 , v088
	.byte		N06   , Dn1 , v052
	.byte		N02   , Bn1 , v100
	.byte	W04
	.byte		        Bn1 , v072
	.byte	W04
	.byte		        Bn1 , v056
	.byte	W04
	.byte		        Bn1 , v060
	.byte	W04
	.byte		        Bn1 , v068
	.byte	W04
	.byte		        Bn1 , v072
	.byte	W04
	.byte		N19   , Cn1 , v088
	.byte		N05   , Dn1 , v052
	.byte		N02   , Bn1 , v076
	.byte	W04
	.byte		        Bn1 , v080
	.byte	W04
	.byte		        Bn1 , v088
	.byte	W04
	.byte		N04   , Dn1 , v052
	.byte		N02   , Bn1 , v092
	.byte	W04
	.byte		        Bn1 , v096
	.byte	W02
	.byte		N03   , Dn1 , v052
	.byte	W02
	.byte		N02   , Bn1 , v100
	.byte	W04
@ 021   ----------------------------------------
	.byte		        Cn1 , v127
	.byte		N02   , Dn1 
	.byte		N02   , Bn1 
	.byte		N84   , An2 
	.byte	W06
	.byte		N02   , Cn1 
	.byte		N02   , Dn1 
	.byte		N02   , Bn1 
	.byte	W06
	.byte		N05   , Cn1 
	.byte		N07   , Dn1 , v104
	.byte		N05   , Bn1 , v127
	.byte	W18
	.byte		        Cn1 
	.byte		N06   , Dn1 
	.byte		N05   , Bn1 
	.byte	W24
	.byte		N04   , Cn1 
	.byte		N06   , Dn1 
	.byte		N04   , Bn1 
	.byte	W18
	.byte		N02   , Cn1 
	.byte		N03   , Dn1 
	.byte		N02   , Bn1 
	.byte	W06
	.byte		        Cn1 
	.byte		N03   , Dn1 , v104
	.byte		N03   , Bn1 , v127
	.byte	W06
	.byte		N04   , Cn1 
	.byte		N05   , Dn1 , v104
	.byte		N05   , Bn1 , v127
	.byte	W12
@ 022   ----------------------------------------
	.byte		N02   , Cn1 
	.byte		N02   , Dn1 
	.byte		N02   , Bn1 
	.byte	W06
	.byte		        Cn1 
	.byte		N02   , Dn1 
	.byte		N02   , Bn1 
	.byte	W06
	.byte		N05   , Cn1 
	.byte		N07   , Dn1 , v104
	.byte		N05   , Bn1 , v127
	.byte	W18
	.byte		        Cn1 
	.byte		N06   , Dn1 
	.byte		N05   , Bn1 
	.byte	W24
	.byte		N04   , Cn1 
	.byte		N06   , Dn1 
	.byte		N04   , Bn1 
	.byte	W18
	.byte		N02   , Cn1 
	.byte		N03   , Dn1 
	.byte		N02   , Bn1 
	.byte	W06
	.byte		        Cn1 
	.byte		N03   , Dn1 , v104
	.byte		N03   , Bn1 , v127
	.byte	W06
	.byte		N04   , Cn1 
	.byte		N05   , Dn1 , v104
	.byte		N05   , Bn1 , v127
	.byte	W12
@ 023   ----------------------------------------
	.byte		N04   , As4 , v072
	.byte	W12
	.byte		N02   , An3 , v064
	.byte	W06
	.byte		N04   
	.byte	W06
	.byte		        As4 , v072
	.byte	W12
	.byte		N02   , An3 , v052
	.byte		N60   , Bn4 , v072
	.byte	W06
	.byte		N04   , An3 , v064
	.byte	W06
	.byte		        As4 , v072
	.byte	W12
	.byte		N01   , An3 , v048
	.byte	W06
	.byte		N03   , An3 , v052
	.byte	W06
	.byte		N04   , As4 , v088
	.byte	W12
	.byte		N02   , An3 , v056
	.byte	W06
	.byte		N04   , An3 , v064
	.byte	W06
@ 024   ----------------------------------------
	.byte		        As4 , v088
	.byte	W12
	.byte		N03   , An3 , v064
	.byte	W06
	.byte		N04   
	.byte	W06
	.byte		        As4 , v088
	.byte	W12
	.byte		N02   , An3 , v064
	.byte	W06
	.byte		N04   
	.byte	W06
	.byte		        As4 , v072
	.byte	W12
	.byte		N03   , An3 , v056
	.byte	W06
	.byte		N04   , An3 , v064
	.byte	W06
	.byte		        As4 , v088
	.byte	W12
	.byte		N03   , An3 , v056
	.byte	W06
	.byte		N04   , An3 , v072
	.byte	W06
@ 025   ----------------------------------------
	.byte		        As4 , v088
	.byte	W12
	.byte		N03   , An3 , v064
	.byte	W06
	.byte		N04   
	.byte	W06
	.byte		        As4 , v072
	.byte	W12
	.byte		N02   , An3 , v056
	.byte		N68   , Bn4 , v088
	.byte	W06
	.byte		N04   , An3 , v056
	.byte	W06
	.byte		        As4 , v072
	.byte	W12
	.byte		N02   , An3 , v064
	.byte	W06
	.byte		N05   , An3 , v056
	.byte	W06
	.byte		N04   , As4 , v072
	.byte	W12
	.byte		N03   , An3 , v064
	.byte	W06
	.byte		N04   
	.byte	W06
@ 026   ----------------------------------------
	.byte		        As4 , v088
	.byte	W12
	.byte		N03   , An3 , v064
	.byte	W06
	.byte		N04   , An3 , v072
	.byte	W06
	.byte		N05   , As4 
	.byte	W12
	.byte		N03   , An3 , v056
	.byte	W06
	.byte		N04   , An3 , v052
	.byte	W06
	.byte		        As4 , v088
	.byte	W12
	.byte		N02   , An3 , v052
	.byte	W06
	.byte		N05   , An3 , v064
	.byte	W06
	.byte		N02   , As4 , v072
	.byte	W06
	.byte		N04   , As4 , v056
	.byte	W06
	.byte		N03   , An3 , v052
	.byte	W06
	.byte		N04   , An3 , v064
	.byte	W06
@ 027   ----------------------------------------
AOE8_10_027:
	.byte		N04   , As4 , v052
	.byte	W12
	.byte		N03   , An3 
	.byte	W06
	.byte		N04   
	.byte	W06
	.byte		        As4 
	.byte	W12
	.byte		N02   , An3 
	.byte	W06
	.byte		N04   
	.byte	W06
	.byte		        As4 
	.byte	W12
	.byte		N02   , An3 
	.byte	W06
	.byte		N05   
	.byte	W06
	.byte		N04   , As4 
	.byte	W12
	.byte		N03   , An3 
	.byte	W06
	.byte		N04   
	.byte	W06
	.byte	PEND
@ 028   ----------------------------------------
	.byte	PATT
	 .word	AOE8_10_027
@ 029   ----------------------------------------
	.byte	PATT
	 .word	AOE8_10_027
@ 030   ----------------------------------------
	.byte	PATT
	 .word	AOE8_10_027
@ 031   ----------------------------------------
	.byte	PATT
	 .word	AOE8_10_027
@ 032   ----------------------------------------
	.byte	PATT
	 .word	AOE8_10_027
@ 033   ----------------------------------------
	.byte	PATT
	 .word	AOE8_10_027
@ 034   ----------------------------------------
	.byte		N04   , As4 , v052
	.byte	W12
	.byte		N03   , An3 
	.byte	W06
	.byte		N04   
	.byte	W06
	.byte		        As4 
	.byte	W12
	.byte		N02   , An3 
	.byte	W06
	.byte		N04   
	.byte	W06
	.byte		        As4 
	.byte	W12
	.byte		        Dn1 
	.byte		N02   , An3 
	.byte	W06
	.byte		N04   , Dn1 
	.byte		N05   , An3 
	.byte	W06
	.byte		        Dn1 
	.byte		N04   , As4 
	.byte	W06
	.byte		        Dn1 
	.byte	W06
	.byte		N04   
	.byte		N03   , An3 
	.byte	W06
	.byte		N06   , Dn1 
	.byte		N04   , An3 
	.byte	W06
@ 035   ----------------------------------------
	.byte		N72   , An2 , v104
	.byte	W06
	.byte		N05   , Dn1 , v068
	.byte	W06
	.byte		N05   
	.byte	W12
	.byte		N05   
	.byte	W12
	.byte		N02   
	.byte	W04
	.byte		N03   
	.byte	W04
	.byte		N02   
	.byte	W04
	.byte		N09   
	.byte	W12
	.byte		N02   
	.byte	W04
	.byte		N03   
	.byte	W04
	.byte		N02   
	.byte	W04
	.byte		N09   
	.byte	W12
	.byte		N04   , Dn1 , v072
	.byte	W06
	.byte		N04   
	.byte	W06
@ 036   ----------------------------------------
AOE8_10_036:
	.byte		N04   , Dn1 , v068
	.byte	W06
	.byte		N05   
	.byte	W06
	.byte		N05   
	.byte	W12
	.byte		N05   
	.byte	W12
	.byte		N02   
	.byte	W04
	.byte		N03   
	.byte	W04
	.byte		N02   
	.byte	W04
	.byte		N09   
	.byte	W12
	.byte		N02   
	.byte	W04
	.byte		N03   
	.byte	W04
	.byte		N02   
	.byte	W04
	.byte		N09   
	.byte	W12
	.byte		N04   , Dn1 , v072
	.byte	W06
	.byte		N04   
	.byte	W06
	.byte	PEND
@ 037   ----------------------------------------
	.byte	PATT
	 .word	AOE8_10_036
@ 038   ----------------------------------------
	.byte	PATT
	 .word	AOE8_10_036
@ 039   ----------------------------------------
	.byte	PATT
	 .word	AOE8_10_036
@ 040   ----------------------------------------
	.byte	PATT
	 .word	AOE8_10_036
@ 041   ----------------------------------------
	.byte	PATT
	 .word	AOE8_10_036
@ 042   ----------------------------------------
	.byte	PATT
	 .word	AOE8_10_036
@ 043   ----------------------------------------
	.byte		N06   , Cn1 , v127
	.byte		N05   , Dn1 
	.byte		N06   , Gn1 
	.byte	W12
	.byte		N32   , Cn1 
	.byte		N13   , Dn1 
	.byte		N32   , Gn1 
	.byte	W84
@ 044   ----------------------------------------
	.byte		N14   , Cn1 
	.byte		N80   , An2 
	.byte	W24
	.byte		N14   , Cn1 , v088
	.byte	W24
	.byte		N10   
	.byte	W24
	.byte		N11   , Cn1 , v104
	.byte		N11   , Bn1 
	.byte	W12
	.byte		N10   , An1 
	.byte	W12
@ 045   ----------------------------------------
AOE8_10_045:
	.byte		N14   , Cn1 , v127
	.byte		N56   , Bn1 , v104
	.byte	W24
	.byte		N14   , Cn1 , v088
	.byte	W24
	.byte		N10   
	.byte	W24
	.byte		N11   , Cn1 , v104
	.byte		N11   , Bn1 
	.byte	W12
	.byte		        An1 
	.byte	W12
	.byte	PEND
@ 046   ----------------------------------------
AOE8_10_046:
	.byte		N14   , Cn1 , v127
	.byte		N56   , Bn1 , v104
	.byte	W24
	.byte		N14   , Cn1 , v088
	.byte	W24
	.byte		N10   
	.byte	W24
	.byte		N11   , Cn1 , v104
	.byte		N10   , Bn1 , v088
	.byte	W12
	.byte		        Gn1 , v127
	.byte	W12
	.byte	PEND
@ 047   ----------------------------------------
	.byte		N14   , Cn1 
	.byte		N60   , Bn1 , v104
	.byte	W24
	.byte		N14   , Cn1 , v088
	.byte	W24
	.byte		N10   
	.byte	W24
	.byte		N11   , Cn1 , v104
	.byte		N16   , Dn2 , v127
	.byte	W24
@ 048   ----------------------------------------
	.byte		N14   , Cn1 
	.byte	W24
	.byte		        Cn1 , v088
	.byte	W24
	.byte		N10   
	.byte	W24
	.byte		N11   , Cn1 , v104
	.byte		N11   , Bn1 
	.byte	W12
	.byte		N10   , An1 
	.byte	W12
@ 049   ----------------------------------------
	.byte	PATT
	 .word	AOE8_10_045
@ 050   ----------------------------------------
	.byte	PATT
	 .word	AOE8_10_046
@ 051   ----------------------------------------
	.byte		N14   , Cn1 , v127
	.byte		N30   , Bn1 , v104
	.byte	W24
	.byte		N14   , Cn1 , v088
	.byte	W24
	.byte		N10   
	.byte		N02   , Bn1 , v100
	.byte	W04
	.byte		        Bn1 , v072
	.byte	W04
	.byte		        Bn1 , v056
	.byte	W04
	.byte		        Bn1 , v060
	.byte	W04
	.byte		        Bn1 , v068
	.byte	W04
	.byte		        Bn1 , v072
	.byte	W04
	.byte		N11   , Cn1 , v104
	.byte		N02   , Bn1 , v076
	.byte	W04
	.byte		        Bn1 , v080
	.byte	W04
	.byte		        Bn1 , v088
	.byte	W04
	.byte		        Bn1 , v092
	.byte	W04
	.byte		        Bn1 , v096
	.byte	W04
	.byte		        Bn1 , v100
	.byte	W04
@ 052   ----------------------------------------
AOE8_10_052:
	.byte		N14   , Cn1 , v127
	.byte		N44   , Bn1 
	.byte	W24
	.byte		N14   , Cn1 , v088
	.byte	W12
	.byte		N05   , Dn1 , v072
	.byte	W06
	.byte		N04   
	.byte	W06
	.byte		N10   , Cn1 , v088
	.byte		N08   , Dn1 , v072
	.byte	W24
	.byte		N11   , Cn1 , v104
	.byte		N11   , Bn1 
	.byte	W12
	.byte		N10   , An1 
	.byte	W12
	.byte	PEND
@ 053   ----------------------------------------
AOE8_10_053:
	.byte		N14   , Cn1 , v127
	.byte		N56   , Bn1 , v104
	.byte	W24
	.byte		N14   , Cn1 , v088
	.byte	W12
	.byte		N05   , Dn1 , v072
	.byte	W06
	.byte		N04   
	.byte	W06
	.byte		N10   , Cn1 , v088
	.byte		N05   , Dn1 , v072
	.byte	W12
	.byte		N06   
	.byte	W12
	.byte		N11   , Cn1 , v104
	.byte		N11   , Bn1 
	.byte	W12
	.byte		        An1 
	.byte	W12
	.byte	PEND
@ 054   ----------------------------------------
	.byte	PATT
	 .word	AOE8_10_052
@ 055   ----------------------------------------
	.byte	PATT
	 .word	AOE8_10_053
@ 056   ----------------------------------------
	.byte	PATT
	 .word	AOE8_10_052
@ 057   ----------------------------------------
	.byte	PATT
	 .word	AOE8_10_053
@ 058   ----------------------------------------
	.byte	PATT
	 .word	AOE8_10_053
@ 059   ----------------------------------------
	.byte		N14   , Cn1 , v127
	.byte		N30   , Bn1 , v104
	.byte	W24
	.byte		N14   , Cn1 , v088
	.byte	W12
	.byte		N05   , Dn1 , v072
	.byte	W06
	.byte		N04   
	.byte	W06
	.byte		N10   , Cn1 , v088
	.byte		N05   , Dn1 , v072
	.byte		N02   , Bn1 , v100
	.byte	W04
	.byte		        Bn1 , v072
	.byte	W04
	.byte		        Bn1 , v056
	.byte	W04
	.byte		N05   , Dn1 , v072
	.byte		N02   , Bn1 , v060
	.byte	W04
	.byte		        Bn1 , v068
	.byte	W02
	.byte		N05   , Dn1 , v072
	.byte	W02
	.byte		N02   , Bn1 
	.byte	W04
	.byte		N11   , Cn1 , v104
	.byte		N05   , Dn1 , v072
	.byte		N02   , Bn1 , v076
	.byte	W04
	.byte		        Bn1 , v080
	.byte	W02
	.byte		N05   , Dn1 , v072
	.byte	W02
	.byte		N02   , Bn1 , v088
	.byte	W04
	.byte		N06   , Dn1 , v072
	.byte		N02   , Bn1 , v092
	.byte	W04
	.byte		        Bn1 , v096
	.byte	W02
	.byte		N06   , Dn1 , v072
	.byte	W02
	.byte		N02   , Bn1 , v100
	.byte	W04
@ 060   ----------------------------------------
	.byte		N24   , Cn1 , v127
	.byte		N05   , Dn1 , v104
	.byte		N78   , Bn1 , v127
	.byte		N60   , An2 
	.byte	W24
	.byte		N14   , Cn1 , v064
	.byte	W24
	.byte		N14   
	.byte	W24
	.byte		N05   , Cn1 , v056
	.byte	W24
@ 061   ----------------------------------------
	.byte		N15   , Cn1 , v052
	.byte	W24
	.byte		N14   , Cn1 , v056
	.byte	W24
	.byte		N14   
	.byte	W24
	.byte		N15   
	.byte	W24
@ 062   ----------------------------------------
	.byte		N03   , Cn1 , v127
	.byte		N04   , Dn1 
	.byte		N02   , Bn1 
	.byte	W06
	.byte		N03   , Cn1 
	.byte		N03   , Dn1 
	.byte		N03   , Bn1 
	.byte	W06
	.byte		        Cn1 
	.byte		N04   , Dn1 
	.byte		N03   , Bn1 
	.byte	W06
	.byte		        Cn1 
	.byte		N04   , Dn1 
	.byte		N03   , Bn1 
	.byte	W06
	.byte		        Cn1 
	.byte		N04   , Dn1 
	.byte		N02   , Bn1 
	.byte	W06
	.byte		N06   , Cn1 
	.byte		N08   , Dn1 
	.byte		N40   , Bn1 
	.byte	W66
	.byte	GOTO
	 .word	AOE8_10_B1
AOE8_10_B2:
@ 063   ----------------------------------------
	.byte	FINE

@******************************************************@
	.align	2

AOE8:
	.byte	10	@ NumTrks
	.byte	0	@ NumBlks
	.byte	AOE8_pri	@ Priority
	.byte	AOE8_rev	@ Reverb.

	.word	AOE8_grp

	.word	AOE8_1
	.word	AOE8_2
	.word	AOE8_3
	.word	AOE8_4
	.word	AOE8_5
	.word	AOE8_6
	.word	AOE8_7
	.word	AOE8_8
	.word	AOE8_9
	.word	AOE8_10

	.end
