//Event file generated from Sappy .s format.
	#include "MPlayDef.event"

	#define	DeadlySix_grp  voicegroup000
	#define	DeadlySix_pri  0
	#define	DeadlySix_rev  0
	#define	DeadlySix_mvl  85
	#define	DeadlySix_key  0
	#define	DeadlySix_tbs  1
	#define	DeadlySix_exg  0
	#define	DeadlySix_cmp  1

	// .rodata
	//	DeadlySix
	ALIGN 4

//**************** Track 1 (Midi-Chn.1) ****************//

DeadlySix_1:
	BYTE	KEYSH   DeadlySix_key+0
// 000   ----------------------------------------
	BYTE	TEMPO   163*DeadlySix_tbs/2
	BYTE		VOICE   57
	BYTE		PAN     c_v+24
	BYTE		VOL     105*DeadlySix_mvl/mxv
	BYTE	W24
	BYTE		N23     Cn1   v080
	BYTE	W24
	BYTE		N23   
	BYTE	W24
	BYTE		N23   
	BYTE	W24
// 001   ----------------------------------------
	BYTE		N23   
	BYTE	W24
	BYTE		N23   
	BYTE	W24
	BYTE		N23   
	BYTE	W24
	BYTE		N23   
	BYTE	W24
// 002   ----------------------------------------
	BYTE		N23   
	BYTE	W24
	BYTE		N11   
	BYTE		N11     Cn2 
	BYTE	W12
	BYTE		        Cn1 
	BYTE		N11     Cn2 
	BYTE	W24
	BYTE		        Cn1 
	BYTE		N11     Cn2 
	BYTE	W12
	BYTE		        Cn1 
	BYTE		N11     Cn2 
	BYTE	W24
// 003   ----------------------------------------
	BYTE		N23     Cn1 
	BYTE		N23     Cn2 
	BYTE	W24
	BYTE		N11     Cn1 
	BYTE		N11     Cn2 
	BYTE	W12
	BYTE		        Cn1 
	BYTE		N11     Cn2 
	BYTE	W60
// 004   ----------------------------------------
	BYTE	W24
DeadlySix_1_B1:
	BYTE	W72
// 005   ----------------------------------------
	BYTE	W96
// 006   ----------------------------------------
	BYTE	W96
// 007   ----------------------------------------
	BYTE	W96
// 008   ----------------------------------------
	BYTE	W96
// 009   ----------------------------------------
	BYTE	W96
// 010   ----------------------------------------
	BYTE	W96
// 011   ----------------------------------------
	BYTE	W96
// 012   ----------------------------------------
	BYTE	W24
	BYTE		N32     Cn1   v080
	BYTE		N32     Cn2 
	BYTE	W36
	BYTE		N23     Cn1 
	BYTE		N23     Cn2 
	BYTE	W24
	BYTE		N11     Cn1 
	BYTE		N11     Cn2 
	BYTE	W12
// 013   ----------------------------------------
	BYTE		N23     Cn1 
	BYTE		N23     Cn2 
	BYTE	W24
	BYTE		N32     Fs1 
	BYTE		N32     Fs2 
	BYTE	W36
	BYTE		N23     Fs1 
	BYTE		N23     Fs2 
	BYTE	W24
	BYTE		N11     Fs1 
	BYTE		N11     Fs2 
	BYTE	W12
// 014   ----------------------------------------
	BYTE		N23     Fs1 
	BYTE		N23     Fs2 
	BYTE	W24
	BYTE		N32     Cn1 
	BYTE		N32     Cn2 
	BYTE	W36
	BYTE		N23     Cn1 
	BYTE		N23     Cn2 
	BYTE	W24
	BYTE		N11     Cn1 
	BYTE		N11     Cn2 
	BYTE	W12
// 015   ----------------------------------------
DeadlySix_1_015:
	BYTE		N23     Cn1   v080
	BYTE		N23     Cn2 
	BYTE	W24
	BYTE		N32     Gs1 
	BYTE		N32     Gs2 
	BYTE	W36
	BYTE		N23     Gs1 
	BYTE		N23     Gs2 
	BYTE	W24
	BYTE		N11     Gs1 
	BYTE		N11     Gs2 
	BYTE	W12
	BYTE	PEND
// 016   ----------------------------------------
	BYTE		N23     Gs1 
	BYTE		N23     Gs2 
	BYTE	W24
	BYTE		N32     Cn1 
	BYTE		N32     Cn2 
	BYTE	W36
	BYTE		N23     Cn1 
	BYTE		N23     Cn2 
	BYTE	W24
	BYTE		N11     Cn1 
	BYTE		N11     Cn2 
	BYTE	W12
// 017   ----------------------------------------
	BYTE	PATT
	 POIN2	DeadlySix_1_015
// 018   ----------------------------------------
	BYTE		N23     Gs1   v080
	BYTE		N23     Gs2 
	BYTE	W24
	BYTE		N92     Gn1 
	BYTE		N92     Gn2 
	BYTE	W72
// 019   ----------------------------------------
	BYTE	W24
	BYTE		N32     Gn1 
	BYTE		N32     Gn2 
	BYTE	W36
	BYTE		N11     Cn1 
	BYTE		N11     Cn2 
	BYTE		N56     Cn3 
	BYTE	W12
	BYTE		N44     Bn0 
	BYTE		N44     Cn2 
	BYTE	W24
// 020   ----------------------------------------
	BYTE	W24
	BYTE		N23     An1 
	BYTE		N23     An2 
	BYTE	W24
	BYTE		N11     An1 
	BYTE		N11     An2 
	BYTE	W12
	BYTE		        An1 
	BYTE		N11     An2 
	BYTE	W12
	BYTE		N23     An1 
	BYTE		N23     An2 
	BYTE	W24
// 021   ----------------------------------------
	BYTE		        An1 
	BYTE		N23     An2 
	BYTE	W24
	BYTE		N11     An1 
	BYTE		N11     An2 
	BYTE	W12
	BYTE		        An1 
	BYTE		N11     An2 
	BYTE	W12
	BYTE		N23     An1 
	BYTE		N23     An2 
	BYTE	W24
	BYTE		        An1 
	BYTE		N23     An2 
	BYTE	W24
// 022   ----------------------------------------
	BYTE		        An1 
	BYTE		N23     An2 
	BYTE	W24
	BYTE		        Cn2 
	BYTE		N23     Cn3 
	BYTE	W24
	BYTE		N11     Cn2 
	BYTE		N11     Cn3 
	BYTE	W12
	BYTE		        Cn2 
	BYTE		N11     Cn3 
	BYTE	W12
	BYTE		N23     Cn2 
	BYTE		N23     Cn3 
	BYTE	W24
// 023   ----------------------------------------
	BYTE		        Cn2 
	BYTE		N23     Cn3 
	BYTE	W24
	BYTE		N11     Cn2 
	BYTE		N11     Cn3 
	BYTE	W12
	BYTE		        Cn2 
	BYTE		N11     Cn3 
	BYTE	W12
	BYTE		N23     Cn2 
	BYTE		N23     Cn3 
	BYTE	W24
	BYTE		        Cn2 
	BYTE		N23     Cn3 
	BYTE	W24
// 024   ----------------------------------------
	BYTE		        Cn2 
	BYTE		N23     Cn3 
	BYTE	W24
	BYTE		        Fn1   v127
	BYTE	W24
	BYTE		N23   
	BYTE	W24
	BYTE		N23   
	BYTE	W24
// 025   ----------------------------------------
	BYTE		N23   
	BYTE	W24
	BYTE		        Ds1 
	BYTE	W24
	BYTE		N23   
	BYTE	W24
	BYTE		N23   
	BYTE	W24
// 026   ----------------------------------------
	BYTE		N23   
	BYTE	W24
	BYTE		N92     Gn1 
	BYTE	W72
// 027   ----------------------------------------
	BYTE	W24
	BYTE		N44   
	BYTE	W48
	BYTE		N44   
	BYTE	W24
// 028   ----------------------------------------
DeadlySix_1_028:
	BYTE	W24
	BYTE		N32     Cn1   v127
	BYTE	W36
	BYTE		        Cn2 
	BYTE	W36
	BYTE	PEND
// 029   ----------------------------------------
DeadlySix_1_029:
	BYTE		N23     Cn2   v127
	BYTE	W24
	BYTE		N32     As1 
	BYTE	W36
	BYTE		N11   
	BYTE	W12
	BYTE		N23   
	BYTE	W24
	BYTE	PEND
// 030   ----------------------------------------
	BYTE		N11   
	BYTE	W12
	BYTE		        Gn1 
	BYTE	W12
	BYTE		N44     Gs1 
	BYTE	W60
	BYTE		N32   
	BYTE	W12
// 031   ----------------------------------------
	BYTE	W24
	BYTE		        Gn1 
	BYTE	W36
	BYTE		N11   
	BYTE	W12
	BYTE		N44   
	BYTE	W24
// 032   ----------------------------------------
	BYTE	PATT
	 POIN2	DeadlySix_1_028
// 033   ----------------------------------------
	BYTE	PATT
	 POIN2	DeadlySix_1_029
// 034   ----------------------------------------
	BYTE		N11     As1   v127
	BYTE	W12
	BYTE		        Gn1 
	BYTE	W12
	BYTE		N44     Gs1 
	BYTE	W48
	BYTE		        Gn1 
	BYTE	W24
// 035   ----------------------------------------
	BYTE	W24
	BYTE		N23     Cn2 
	BYTE	W24
	BYTE		        Gn1 
	BYTE	W24
	BYTE		        Fn1 
	BYTE	W24
// 036   ----------------------------------------
	BYTE		        Ds1 
	BYTE	W24
	BYTE		N05     Cn0   v112
	BYTE		N05     Cn1 
	BYTE		N05     Cn2 
	BYTE	W12
	BYTE		        Cn0 
	BYTE		N05     Cn1 
	BYTE		N05     Cn2 
	BYTE	W60
// 037   ----------------------------------------
DeadlySix_1_037:
	BYTE		N05     Cn0   v112
	BYTE		N05     Cn1 
	BYTE		N05     Cn2 
	BYTE	W12
	BYTE		        Cn0 
	BYTE		N05     Cn1 
	BYTE		N05     Cn2 
	BYTE	W84
	BYTE	PEND
// 038   ----------------------------------------
DeadlySix_1_038:
	BYTE	W24
	BYTE		N05     Cn0   v112
	BYTE		N05     Cn1 
	BYTE		N05     Cn2 
	BYTE	W12
	BYTE		        Cn0 
	BYTE		N05     Cn1 
	BYTE		N05     Cn2 
	BYTE	W60
	BYTE	PEND
// 039   ----------------------------------------
	BYTE	PATT
	 POIN2	DeadlySix_1_037
// 040   ----------------------------------------
	BYTE	PATT
	 POIN2	DeadlySix_1_038
// 041   ----------------------------------------
	BYTE	PATT
	 POIN2	DeadlySix_1_037
// 042   ----------------------------------------
	BYTE	PATT
	 POIN2	DeadlySix_1_038
// 043   ----------------------------------------
	BYTE	W96
// 044   ----------------------------------------
	BYTE	W96
// 045   ----------------------------------------
	BYTE	W72
	BYTE	GoTo
	 POIN2	DeadlySix_1_B1
DeadlySix_1_B2:
	BYTE	FINE

//**************** Track 2 (Midi-Chn.2) ****************//

DeadlySix_2:
	BYTE	KEYSH   DeadlySix_key+0
// 000   ----------------------------------------
	BYTE		VOICE   61
	BYTE		PAN     c_v-27
	BYTE		VOL     84*DeadlySix_mvl/mxv
	BYTE	W24
	BYTE		N11     Cn4   v080
	BYTE	W12
	BYTE		        Dn4   v112
	BYTE	W12
	BYTE		        Ds4 
	BYTE	W12
	BYTE		        Gn4 
	BYTE	W12
	BYTE		N23     Fs4 
	BYTE	W24
// 001   ----------------------------------------
	BYTE		        Dn4 
	BYTE	W24
	BYTE		        Fn4 
	BYTE	W24
	BYTE		        Ds4 
	BYTE	W24
	BYTE		        Cn4 
	BYTE	W24
// 002   ----------------------------------------
	BYTE		        Gs3 
	BYTE	W24
	BYTE		N05     Gn3 
	BYTE	W06
	BYTE		        Fs3 
	BYTE	W06
	BYTE		        Gn3 
	BYTE	W24
	BYTE		N05   
	BYTE	W06
	BYTE		        Fs3 
	BYTE	W06
	BYTE		        Gn3 
	BYTE	W24
// 003   ----------------------------------------
	BYTE		N23     Gs3 
	BYTE	W24
	BYTE		N05     Gn3 
	BYTE	W06
	BYTE		        Fs3 
	BYTE	W06
	BYTE		        Gn3 
	BYTE	W60
// 004   ----------------------------------------
	BYTE	W24
DeadlySix_2_B1:
	BYTE		N11     Cn4   v112
	BYTE	W12
	BYTE		        Dn4 
	BYTE	W12
	BYTE		        Ds4 
	BYTE	W12
	BYTE		        Dn4 
	BYTE	W24
	BYTE		        Cn4 
	BYTE	W12
// 005   ----------------------------------------
DeadlySix_2_005:
	BYTE		N11     Ds4   v112
	BYTE	W12
	BYTE		        Cn4 
	BYTE	W12
	BYTE		        Gn4 
	BYTE	W12
	BYTE		N80     Fs4 
	BYTE	W60
	BYTE	PEND
// 006   ----------------------------------------
DeadlySix_2_006:
	BYTE	W24
	BYTE		N11     Cn4   v112
	BYTE	W12
	BYTE		        Dn4 
	BYTE	W12
	BYTE		        Ds4 
	BYTE	W12
	BYTE		        Dn4 
	BYTE	W24
	BYTE		        Cn4 
	BYTE	W12
	BYTE	PEND
// 007   ----------------------------------------
DeadlySix_2_007:
	BYTE		N11     Ds4   v112
	BYTE	W12
	BYTE		        Cn4 
	BYTE	W12
	BYTE		        Gn4 
	BYTE	W12
	BYTE		N80     Gs4 
	BYTE	W60
	BYTE	PEND
// 008   ----------------------------------------
	BYTE	PATT
	 POIN2	DeadlySix_2_006
// 009   ----------------------------------------
	BYTE	PATT
	 POIN2	DeadlySix_2_005
// 010   ----------------------------------------
	BYTE	W24
	BYTE		N11     Gn4   v112
	BYTE	W12
	BYTE		N11   
	BYTE	W12
	BYTE		        Bn4 
	BYTE	W12
	BYTE		N11   
	BYTE	W12
	BYTE		        Dn5 
	BYTE	W12
	BYTE		N11   
	BYTE	W12
// 011   ----------------------------------------
	BYTE		        Fn5 
	BYTE	W12
	BYTE		N11   
	BYTE	W12
	BYTE		        Gn5 
	BYTE	W12
	BYTE		        Dn5 
	BYTE	W12
	BYTE		        Bn4 
	BYTE	W12
	BYTE		N23     Fn5 
	BYTE	W24
	BYTE		N11     Ds5 
	BYTE	W12
// 012   ----------------------------------------
	BYTE		        Dn5 
	BYTE	W12
	BYTE		        Cn5 
	BYTE	W12
	BYTE		        Cn4 
	BYTE	W12
	BYTE		        Dn4 
	BYTE	W12
	BYTE		        Ds4 
	BYTE	W12
	BYTE		        Dn4 
	BYTE	W24
	BYTE		        Cn4 
	BYTE	W12
// 013   ----------------------------------------
	BYTE	PATT
	 POIN2	DeadlySix_2_005
// 014   ----------------------------------------
	BYTE	PATT
	 POIN2	DeadlySix_2_006
// 015   ----------------------------------------
	BYTE	PATT
	 POIN2	DeadlySix_2_007
// 016   ----------------------------------------
	BYTE	PATT
	 POIN2	DeadlySix_2_006
// 017   ----------------------------------------
	BYTE		N11     Ds4   v112
	BYTE	W12
	BYTE		        Cn4 
	BYTE	W12
	BYTE		        Gn4 
	BYTE		N11     Cn5 
	BYTE	W12
	BYTE		        Fs4 
	BYTE		N80     Bn4 
	BYTE	W12
	BYTE		N68     Fs4 
	BYTE	W48
// 018   ----------------------------------------
	BYTE	W24
	BYTE		N11     Gn3 
	BYTE		N11     Gn4 
	BYTE	W12
	BYTE		        Bn3 
	BYTE		N11     Bn4 
	BYTE	W12
	BYTE		        Dn4 
	BYTE		N11     Dn5 
	BYTE	W12
	BYTE		        Bn3 
	BYTE		N11     Bn4 
	BYTE	W12
	BYTE		        Dn4 
	BYTE		N11     Dn5 
	BYTE	W12
	BYTE		        Fn4 
	BYTE		N11     Fn5 
	BYTE	W12
// 019   ----------------------------------------
	BYTE		        Dn4 
	BYTE		N11     Dn5 
	BYTE	W12
	BYTE		        Fn4 
	BYTE		N11     Fn5 
	BYTE	W12
	BYTE		        Gn4 
	BYTE		N11     Gn5 
	BYTE	W12
	BYTE		        Ds4 
	BYTE		N11     Ds5 
	BYTE	W12
	BYTE		        Dn4 
	BYTE		N11     Dn5 
	BYTE	W12
	BYTE		        Cn4 
	BYTE		N56     Cn5 
	BYTE	W12
	BYTE		N44     Cn4 
	BYTE	W24
// 020   ----------------------------------------
	BYTE	W24
	BYTE		N11     An2 
	BYTE	W12
	BYTE		        Dn3 
	BYTE	W12
	BYTE		        En3 
	BYTE	W12
	BYTE		        Fn3 
	BYTE	W12
	BYTE		N56     En3 
	BYTE	W24
// 021   ----------------------------------------
	BYTE	W36
	BYTE		N05   
	BYTE	W06
	BYTE		        Fn3 
	BYTE	W06
	BYTE		N11     En3 
	BYTE	W12
	BYTE		        Dn3 
	BYTE	W12
	BYTE		N44     En3 
	BYTE	W24
// 022   ----------------------------------------
	BYTE	W24
	BYTE		N11     Cn3 
	BYTE	W12
	BYTE		        Dn3 
	BYTE	W12
	BYTE		        Ds3 
	BYTE	W12
	BYTE		        Fn3 
	BYTE	W12
	BYTE		N56     Gn3 
	BYTE	W24
// 023   ----------------------------------------
	BYTE	W36
	BYTE		N05   
	BYTE	W06
	BYTE		        Gs3 
	BYTE	W06
	BYTE		N11     Gn3 
	BYTE	W12
	BYTE		        Fn3 
	BYTE	W12
	BYTE		N44     Gn3 
	BYTE	W24
// 024   ----------------------------------------
	BYTE	W24
	BYTE		N11     Fn3 
	BYTE	W12
	BYTE		        Gs3 
	BYTE	W12
	BYTE		        Cn4 
	BYTE	W12
	BYTE		        Dn4 
	BYTE	W12
	BYTE		        Ds4 
	BYTE	W12
	BYTE		        Dn4 
	BYTE	W12
// 025   ----------------------------------------
	BYTE		        Cn4 
	BYTE	W12
	BYTE		        Gs3 
	BYTE	W12
	BYTE		        Ds3 
	BYTE	W12
	BYTE		        Gs3 
	BYTE	W12
	BYTE		        Cn4 
	BYTE	W12
	BYTE		        Dn4 
	BYTE	W12
	BYTE		        Ds4 
	BYTE	W12
	BYTE		        Dn4 
	BYTE	W12
// 026   ----------------------------------------
	BYTE		        Ds4 
	BYTE	W12
	BYTE		        Fn4 
	BYTE	W12
	BYTE		N23     Gn4 
	BYTE	W24
	BYTE		        Cn5 
	BYTE	W24
	BYTE		N44     Bn4 
	BYTE	W24
// 027   ----------------------------------------
	BYTE	W36
	BYTE		N11     Gn4 
	BYTE	W12
	BYTE		        Fn4 
	BYTE	W12
	BYTE		        Gn4 
	BYTE	W12
	BYTE		        Ds4 
	BYTE	W12
	BYTE		        Gn4 
	BYTE	W12
// 028   ----------------------------------------
	BYTE		        Dn4 
	BYTE	W12
	BYTE		        Gn4 
	BYTE	W12
	BYTE		N44     Cn4 
	BYTE	W60
	BYTE		N23     Dn4 
	BYTE	W12
// 029   ----------------------------------------
	BYTE	W12
	BYTE		N11     Ds4 
	BYTE	W12
	BYTE		N15     Gn4 
	BYTE	W16
	BYTE		        Fn4 
	BYTE	W16
	BYTE		        Ds4 
	BYTE	W16
	BYTE		N23     Dn4 
	BYTE	W24
// 030   ----------------------------------------
	BYTE		        Gn3 
	BYTE	W24
	BYTE		N44     Gs3 
	BYTE	W60
	BYTE		N11     Ds3 
	BYTE	W12
// 031   ----------------------------------------
	BYTE		        Gs3 
	BYTE	W12
	BYTE		        Cn4 
	BYTE	W12
	BYTE		N32     Bn3 
	BYTE	W36
	BYTE		N05     Cn4 
	BYTE	W06
	BYTE		        Bn3 
	BYTE	W06
	BYTE		N44     Gn3 
	BYTE	W24
// 032   ----------------------------------------
	BYTE	W24
	BYTE		        Cn4 
	BYTE	W60
	BYTE		N23     Dn4 
	BYTE	W12
// 033   ----------------------------------------
	BYTE	W12
	BYTE		N11     Ds4 
	BYTE	W12
	BYTE		N15     Dn4 
	BYTE	W16
	BYTE		        Gn4 
	BYTE	W16
	BYTE		        Fn4 
	BYTE	W16
	BYTE		        Ds4 
	BYTE	W16
	BYTE		        Dn4 
	BYTE	W08
// 034   ----------------------------------------
	BYTE	W08
	BYTE		        Gn3 
	BYTE	W16
	BYTE		N44     Cn4 
	BYTE	W48
	BYTE		N23     Bn3 
	BYTE	W24
// 035   ----------------------------------------
	BYTE		        Dn4 
	BYTE	W24
	BYTE		N15     Cn4 
	BYTE	W16
	BYTE		        Ds4 
	BYTE	W16
	BYTE		        Fn4 
	BYTE	W16
	BYTE		N05     Cn5   v127
	BYTE	W06
	BYTE		N02     Bn4 
	BYTE	W03
	BYTE		        Gn4 
	BYTE	W03
	BYTE		N01     Fn4 
	BYTE	W01
	BYTE		        Ds4 
	BYTE	W02
	BYTE		N02     Dn4 
	BYTE	W03
	BYTE		N01     Cn4 
	BYTE	W01
	BYTE		N02     As3 
	BYTE	W03
	BYTE		N01     An3 
	BYTE	W02
// 036   ----------------------------------------
	BYTE		        Gn3 
	BYTE	W02
	BYTE		        Fn3 
	BYTE	W02
	BYTE		        En3 
	BYTE	W02
	BYTE		N02     Cn3 
	BYTE	W03
	BYTE		        An2 
	BYTE	W03
	BYTE		        Gn2 
	BYTE	W03
	BYTE		        Fn2 
	BYTE	W80
	BYTE	W01
// 037   ----------------------------------------
	BYTE	W96
// 038   ----------------------------------------
	BYTE	W96
// 039   ----------------------------------------
	BYTE	W96
// 040   ----------------------------------------
	BYTE	W96
// 041   ----------------------------------------
	BYTE	W96
// 042   ----------------------------------------
	BYTE	W96
// 043   ----------------------------------------
	BYTE		N11     Ds3   v080
	BYTE	W12
	BYTE		        Dn3 
	BYTE	W12
	BYTE		        Ds3 
	BYTE	W24
	BYTE		        Gn3 
	BYTE	W12
	BYTE		        Fs3 
	BYTE	W12
	BYTE		        Gn3 
	BYTE	W12
	BYTE		        Cn4 
	BYTE	W12
// 044   ----------------------------------------
	BYTE		        Bn3 
	BYTE	W12
	BYTE		        Cn4 
	BYTE	W12
	BYTE		        Ds4 
	BYTE	W12
	BYTE		        Dn4 
	BYTE	W12
	BYTE		        Ds4 
	BYTE	W12
	BYTE		        Gn4 
	BYTE	W12
	BYTE		        Fs4 
	BYTE	W12
	BYTE		        Gn4 
	BYTE	W12
// 045   ----------------------------------------
	BYTE		        Cn5 
	BYTE	W12
	BYTE		        Bn4 
	BYTE	W60
	BYTE	GoTo
	 POIN2	DeadlySix_2_B1
DeadlySix_2_B2:
	BYTE	FINE

//**************** Track 3 (Midi-Chn.3) ****************//

DeadlySix_3:
	BYTE	KEYSH   DeadlySix_key+0
// 000   ----------------------------------------
	BYTE		VOICE   58
	BYTE		PAN     c_v+16
	BYTE		VOL     106*DeadlySix_mvl/mxv
	BYTE	W24
	BYTE		N23     Cn1   v080
	BYTE		N23     Cn2 
	BYTE	W24
	BYTE		        Cn1 
	BYTE		N23     Cn2 
	BYTE	W24
	BYTE		        Cn1 
	BYTE		N23     Cn2 
	BYTE	W24
// 001   ----------------------------------------
	BYTE		        Cn1 
	BYTE		N23     Cn2 
	BYTE	W24
	BYTE		        Cn1 
	BYTE		N23     Cn2 
	BYTE	W24
	BYTE		        Cn1 
	BYTE		N23     Cn2 
	BYTE	W24
	BYTE		        Cn1 
	BYTE		N23     Cn2 
	BYTE	W24
// 002   ----------------------------------------
	BYTE		        Cn1 
	BYTE		N23     Cn2 
	BYTE	W24
	BYTE		N11     Cn1 
	BYTE		N11     Cn2 
	BYTE	W12
	BYTE		        Cn1 
	BYTE		N11     Cn2 
	BYTE	W24
	BYTE		        Cn1 
	BYTE		N11     Cn2 
	BYTE	W12
	BYTE		        Cn1 
	BYTE		N11     Cn2 
	BYTE	W24
// 003   ----------------------------------------
	BYTE		N23     Cn1 
	BYTE		N23     Cn2 
	BYTE	W24
	BYTE		N11     Cn1 
	BYTE		N11     Cn2 
	BYTE	W12
	BYTE		        Cn1 
	BYTE		N11     Cn2 
	BYTE	W60
// 004   ----------------------------------------
	BYTE	W24
DeadlySix_3_B1:
	BYTE		N32     Cn1   v080
	BYTE		N32     Cn2 
	BYTE	W36
	BYTE		N23     Cn1 
	BYTE		N23     Cn2 
	BYTE	W24
	BYTE		N11     Cn1 
	BYTE		N11     Cn2 
	BYTE	W12
// 005   ----------------------------------------
DeadlySix_3_005:
	BYTE		N23     Cn1   v080
	BYTE		N23     Cn2 
	BYTE	W24
	BYTE		N32     Fs1 
	BYTE		N32     Fs2 
	BYTE	W36
	BYTE		N23     Fs1 
	BYTE		N23     Fs2 
	BYTE	W24
	BYTE		N11     Fs1 
	BYTE		N11     Fs2 
	BYTE	W12
	BYTE	PEND
// 006   ----------------------------------------
DeadlySix_3_006:
	BYTE		N23     Fs1   v080
	BYTE		N23     Fs2 
	BYTE	W24
	BYTE		N32     Cn1 
	BYTE		N32     Cn2 
	BYTE	W36
	BYTE		N23     Cn1 
	BYTE		N23     Cn2 
	BYTE	W24
	BYTE		N11     Cn1 
	BYTE		N11     Cn2 
	BYTE	W12
	BYTE	PEND
// 007   ----------------------------------------
DeadlySix_3_007:
	BYTE		N23     Cn1   v080
	BYTE		N23     Cn2 
	BYTE	W24
	BYTE		N32     Gs1 
	BYTE		N32     Gs2 
	BYTE	W36
	BYTE		N23     Gs1 
	BYTE		N23     Gs2 
	BYTE	W24
	BYTE		N11     Gs1 
	BYTE		N11     Gs2 
	BYTE	W12
	BYTE	PEND
// 008   ----------------------------------------
DeadlySix_3_008:
	BYTE		N23     Gs1   v080
	BYTE		N23     Gs2 
	BYTE	W24
	BYTE		N32     Cn1 
	BYTE		N32     Cn2 
	BYTE	W36
	BYTE		N23     Cn1 
	BYTE		N23     Cn2 
	BYTE	W24
	BYTE		N11     Cn1 
	BYTE		N11     Cn2 
	BYTE	W12
	BYTE	PEND
// 009   ----------------------------------------
	BYTE	PATT
	 POIN2	DeadlySix_3_005
// 010   ----------------------------------------
	BYTE		N23     Fs1   v080
	BYTE		N23     Fs2 
	BYTE	W24
	BYTE		N92     Gn1 
	BYTE		N92     Gn2 
	BYTE	W72
// 011   ----------------------------------------
	BYTE	W24
	BYTE		N32     Gn1 
	BYTE		N32     Gn2 
	BYTE	W36
	BYTE		        Fn1 
	BYTE		N32     Fn2 
	BYTE	W36
// 012   ----------------------------------------
	BYTE		N23     Fn1 
	BYTE		N23     Fn2 
	BYTE	W24
	BYTE		N32     Cn1 
	BYTE		N32     Cn2 
	BYTE	W36
	BYTE		N23     Cn1 
	BYTE		N23     Cn2 
	BYTE	W24
	BYTE		N11     Cn1 
	BYTE		N11     Cn2 
	BYTE	W12
// 013   ----------------------------------------
	BYTE	PATT
	 POIN2	DeadlySix_3_005
// 014   ----------------------------------------
	BYTE	PATT
	 POIN2	DeadlySix_3_006
// 015   ----------------------------------------
	BYTE	PATT
	 POIN2	DeadlySix_3_007
// 016   ----------------------------------------
	BYTE	PATT
	 POIN2	DeadlySix_3_008
// 017   ----------------------------------------
	BYTE	PATT
	 POIN2	DeadlySix_3_007
// 018   ----------------------------------------
	BYTE		N23     Gs1   v080
	BYTE		N23     Gs2 
	BYTE	W24
	BYTE		N92     Gn1 
	BYTE		N92     Gn2 
	BYTE	W72
// 019   ----------------------------------------
	BYTE	W24
	BYTE		N32     Gn1 
	BYTE		N32     Gn2 
	BYTE	W36
	BYTE		N11     Cn1 
	BYTE		N11     Cn2 
	BYTE		N56     Cn3 
	BYTE	W12
	BYTE		N44     Cn1 
	BYTE		N44     Cn2 
	BYTE	W24
// 020   ----------------------------------------
	BYTE	W24
	BYTE		N23     An0 
	BYTE		N23     An1 
	BYTE	W24
	BYTE		N11     An0 
	BYTE		N11     An1 
	BYTE	W12
	BYTE		        An0 
	BYTE		N11     An1 
	BYTE	W12
	BYTE		N23     An0 
	BYTE		N23     An1 
	BYTE	W24
// 021   ----------------------------------------
	BYTE		        An0 
	BYTE		N23     An1 
	BYTE	W24
	BYTE		N11     An0 
	BYTE		N11     An1 
	BYTE	W12
	BYTE		        An0 
	BYTE		N11     An1 
	BYTE	W12
	BYTE		N23     An0 
	BYTE		N23     An1 
	BYTE	W24
	BYTE		        An0 
	BYTE		N23     An1 
	BYTE	W24
// 022   ----------------------------------------
	BYTE		        An0 
	BYTE		N23     An1 
	BYTE	W24
	BYTE		        Cn1 
	BYTE		N23     Cn2 
	BYTE	W24
	BYTE		N11     Cn1 
	BYTE		N11     Cn2 
	BYTE	W12
	BYTE		        Cn1 
	BYTE		N11     Cn2 
	BYTE	W12
	BYTE		N23     Cn1 
	BYTE		N23     Cn2 
	BYTE	W24
// 023   ----------------------------------------
	BYTE		        Cn1 
	BYTE		N23     Cn2 
	BYTE	W24
	BYTE		N11     Cn1 
	BYTE		N11     Cn2 
	BYTE	W12
	BYTE		        Cn1 
	BYTE		N11     Cn2 
	BYTE	W12
	BYTE		N23     Cn1 
	BYTE		N23     Cn2 
	BYTE	W24
	BYTE		        Cn1 
	BYTE		N23     Cn2 
	BYTE	W24
// 024   ----------------------------------------
	BYTE		        Cn1 
	BYTE		N23     Cn2 
	BYTE	W24
	BYTE		        Fn1   v127
	BYTE	W24
	BYTE		N23   
	BYTE	W24
	BYTE		N23   
	BYTE	W24
// 025   ----------------------------------------
	BYTE		N23   
	BYTE	W24
	BYTE		        Ds1 
	BYTE	W24
	BYTE		N23   
	BYTE	W24
	BYTE		N23   
	BYTE	W24
// 026   ----------------------------------------
	BYTE		N23   
	BYTE	W24
	BYTE		N92     Gn1 
	BYTE	W72
// 027   ----------------------------------------
	BYTE	W24
	BYTE		N44   
	BYTE	W48
	BYTE		N44   
	BYTE	W24
// 028   ----------------------------------------
DeadlySix_3_028:
	BYTE	W24
	BYTE		N32     Cn1   v127
	BYTE	W36
	BYTE		        Cn2 
	BYTE	W36
	BYTE	PEND
// 029   ----------------------------------------
DeadlySix_3_029:
	BYTE		N23     Cn2   v127
	BYTE	W24
	BYTE		N32     As1 
	BYTE	W36
	BYTE		N11   
	BYTE	W12
	BYTE		N23   
	BYTE	W24
	BYTE	PEND
// 030   ----------------------------------------
	BYTE		N11   
	BYTE	W12
	BYTE		        Gn1 
	BYTE	W12
	BYTE		N44     Gs1 
	BYTE	W60
	BYTE		N32   
	BYTE	W12
// 031   ----------------------------------------
	BYTE	W24
	BYTE		        Gn1 
	BYTE	W36
	BYTE		N11   
	BYTE	W12
	BYTE		N44   
	BYTE	W24
// 032   ----------------------------------------
	BYTE	PATT
	 POIN2	DeadlySix_3_028
// 033   ----------------------------------------
	BYTE	PATT
	 POIN2	DeadlySix_3_029
// 034   ----------------------------------------
	BYTE		N11     As1   v127
	BYTE	W12
	BYTE		        Gn1 
	BYTE	W12
	BYTE		N44     Gs1 
	BYTE	W48
	BYTE		        Gn1 
	BYTE	W24
// 035   ----------------------------------------
	BYTE	W24
	BYTE		N23     Cn2 
	BYTE	W24
	BYTE		        Gn1 
	BYTE	W24
	BYTE		        Fn1 
	BYTE	W24
// 036   ----------------------------------------
	BYTE		        Ds1 
	BYTE	W24
	BYTE		N05     Cn1   v112
	BYTE		N05     Cn2 
	BYTE		N05     Cn3 
	BYTE	W12
	BYTE		        Cn1 
	BYTE		N05     Cn2 
	BYTE		N05     Cn3 
	BYTE	W60
// 037   ----------------------------------------
DeadlySix_3_037:
	BYTE		N05     Cn1   v112
	BYTE		N05     Cn2 
	BYTE		N05     Cn3 
	BYTE	W12
	BYTE		        Cn1 
	BYTE		N05     Cn2 
	BYTE		N05     Cn3 
	BYTE	W84
	BYTE	PEND
// 038   ----------------------------------------
DeadlySix_3_038:
	BYTE	W24
	BYTE		N05     Cn1   v112
	BYTE		N05     Cn2 
	BYTE		N05     Cn3 
	BYTE	W12
	BYTE		        Cn1 
	BYTE		N05     Cn2 
	BYTE		N05     Cn3 
	BYTE	W60
	BYTE	PEND
// 039   ----------------------------------------
	BYTE	PATT
	 POIN2	DeadlySix_3_037
// 040   ----------------------------------------
	BYTE	PATT
	 POIN2	DeadlySix_3_038
// 041   ----------------------------------------
	BYTE	PATT
	 POIN2	DeadlySix_3_037
// 042   ----------------------------------------
	BYTE	PATT
	 POIN2	DeadlySix_3_038
// 043   ----------------------------------------
	BYTE	W96
// 044   ----------------------------------------
	BYTE	W96
// 045   ----------------------------------------
	BYTE	W72
	BYTE	GoTo
	 POIN2	DeadlySix_3_B1
DeadlySix_3_B2:
	BYTE	FINE

//**************** Track 4 (Midi-Chn.4) ****************//

DeadlySix_4:
	BYTE	KEYSH   DeadlySix_key+0
// 000   ----------------------------------------
	BYTE		VOICE   66
	BYTE		PAN     c_v-21
	BYTE		VOL     90*DeadlySix_mvl/mxv
	BYTE	W24
	BYTE		N11     Cn2   v080
	BYTE	W12
	BYTE		        Dn2 
	BYTE	W12
	BYTE		        Ds2 
	BYTE	W12
	BYTE		        Gn2 
	BYTE	W12
	BYTE		N23     Fs2 
	BYTE	W24
// 001   ----------------------------------------
	BYTE		        Dn2 
	BYTE	W24
	BYTE		        Fn2 
	BYTE	W24
	BYTE		        Ds2 
	BYTE	W24
	BYTE		        Cn2 
	BYTE	W24
// 002   ----------------------------------------
	BYTE		        Gs1 
	BYTE	W24
	BYTE		N05     Gn1 
	BYTE	W06
	BYTE		        Fs1 
	BYTE	W06
	BYTE		        Gn1 
	BYTE	W24
	BYTE		N05   
	BYTE	W06
	BYTE		        Fs1 
	BYTE	W06
	BYTE		        Gn1 
	BYTE	W24
// 003   ----------------------------------------
	BYTE		N23     Gs1 
	BYTE	W24
	BYTE		N05     Gn1 
	BYTE	W06
	BYTE		        Fs1 
	BYTE	W06
	BYTE		        Gn1 
	BYTE	W60
// 004   ----------------------------------------
	BYTE	W24
DeadlySix_4_B1:
	BYTE	W72
// 005   ----------------------------------------
	BYTE	W96
// 006   ----------------------------------------
	BYTE	W96
// 007   ----------------------------------------
	BYTE	W96
// 008   ----------------------------------------
	BYTE	W96
// 009   ----------------------------------------
	BYTE	W96
// 010   ----------------------------------------
	BYTE	W96
// 011   ----------------------------------------
	BYTE	W96
// 012   ----------------------------------------
	BYTE	W96
// 013   ----------------------------------------
	BYTE	W96
// 014   ----------------------------------------
	BYTE	W96
// 015   ----------------------------------------
	BYTE	W96
// 016   ----------------------------------------
	BYTE	W96
// 017   ----------------------------------------
	BYTE	W96
// 018   ----------------------------------------
	BYTE	W96
// 019   ----------------------------------------
	BYTE	W96
// 020   ----------------------------------------
	BYTE	W24
	BYTE		N11     An2   v080
	BYTE		N11     An3 
	BYTE	W72
// 021   ----------------------------------------
	BYTE		        An2 
	BYTE		N11     An3 
	BYTE	W72
	BYTE		        An2 
	BYTE		N11     An3 
	BYTE	W24
// 022   ----------------------------------------
	BYTE	W24
	BYTE		        Cn3 
	BYTE		N11     Cn4 
	BYTE	W72
// 023   ----------------------------------------
	BYTE		        Cn3 
	BYTE		N11     Cn4 
	BYTE	W72
	BYTE		        Cn3 
	BYTE		N11     Cn4 
	BYTE	W24
// 024   ----------------------------------------
	BYTE	W24
	BYTE		        Fn2 
	BYTE	W12
	BYTE		        Gs2 
	BYTE	W12
	BYTE		        Cn3 
	BYTE	W12
	BYTE		        Dn3 
	BYTE	W12
	BYTE		        Ds3 
	BYTE	W12
	BYTE		        Dn3 
	BYTE	W12
// 025   ----------------------------------------
	BYTE		        Cn3 
	BYTE	W12
	BYTE		        Gs2 
	BYTE	W12
	BYTE		        Ds2 
	BYTE	W12
	BYTE		        Gs2 
	BYTE	W12
	BYTE		        Cn3 
	BYTE	W12
	BYTE		        Dn3 
	BYTE	W12
	BYTE		        Ds3 
	BYTE	W12
	BYTE		        Dn3 
	BYTE	W12
// 026   ----------------------------------------
	BYTE		        Ds3 
	BYTE	W12
	BYTE		        Fn3 
	BYTE	W12
	BYTE		N23     Gn3 
	BYTE	W24
	BYTE		        Cn4 
	BYTE	W24
	BYTE		N44     Bn3 
	BYTE	W24
// 027   ----------------------------------------
	BYTE	W36
	BYTE		N11     Gn3 
	BYTE	W12
	BYTE		        Fn3 
	BYTE	W12
	BYTE		        Gn3 
	BYTE	W12
	BYTE		        Ds3 
	BYTE	W12
	BYTE		        Gn3 
	BYTE	W12
// 028   ----------------------------------------
	BYTE		        Dn3 
	BYTE	W12
	BYTE		        Gn3 
	BYTE	W12
	BYTE		N44     Cn4   v112
	BYTE	W60
	BYTE		N23     Dn4 
	BYTE	W12
// 029   ----------------------------------------
	BYTE	W12
	BYTE		N11     Ds4 
	BYTE	W12
	BYTE		N15     Gn4 
	BYTE	W16
	BYTE		        Fn4 
	BYTE	W16
	BYTE		        Ds4 
	BYTE	W16
	BYTE		N23     Dn4 
	BYTE	W24
// 030   ----------------------------------------
	BYTE		        Gn3 
	BYTE	W24
	BYTE		N44     Gs3 
	BYTE	W60
	BYTE		N11     Ds3 
	BYTE	W12
// 031   ----------------------------------------
	BYTE		        Gs3 
	BYTE	W12
	BYTE		        Cn4 
	BYTE	W12
	BYTE		N32     Bn3 
	BYTE	W36
	BYTE		N05     Cn4 
	BYTE	W06
	BYTE		        Bn3 
	BYTE	W06
	BYTE		N44     Gn3 
	BYTE	W24
// 032   ----------------------------------------
	BYTE	W24
	BYTE		        Cn4 
	BYTE	W60
	BYTE		N23     Dn4 
	BYTE	W12
// 033   ----------------------------------------
	BYTE	W12
	BYTE		N11     Ds4 
	BYTE	W12
	BYTE		N15     Dn4 
	BYTE	W16
	BYTE		        Gn4 
	BYTE	W16
	BYTE		        Fn4 
	BYTE	W16
	BYTE		        Ds4 
	BYTE	W16
	BYTE		        Dn4 
	BYTE	W08
// 034   ----------------------------------------
	BYTE	W08
	BYTE		        Gn3 
	BYTE	W16
	BYTE		N44     Cn4 
	BYTE	W48
	BYTE		N23     Bn3 
	BYTE	W24
// 035   ----------------------------------------
	BYTE		        Dn4 
	BYTE	W24
	BYTE		N15     Cn4 
	BYTE	W16
	BYTE		        Ds4 
	BYTE	W16
	BYTE		        Fn4 
	BYTE	W16
	BYTE		N05     Cn5   v127
	BYTE	W06
	BYTE		N02     Bn4 
	BYTE	W03
	BYTE		        Gn4 
	BYTE	W03
	BYTE		N01     Fn4 
	BYTE	W01
	BYTE		        Ds4 
	BYTE	W02
	BYTE		N02     Dn4 
	BYTE	W03
	BYTE		N01     Cn4 
	BYTE	W01
	BYTE		N02     As3 
	BYTE	W03
	BYTE		N01     An3 
	BYTE	W02
// 036   ----------------------------------------
	BYTE		        Gn3 
	BYTE	W02
	BYTE		        Fn3 
	BYTE	W02
	BYTE		        En3 
	BYTE	W02
	BYTE		N02     Cn3 
	BYTE	W03
	BYTE		        An2 
	BYTE	W03
	BYTE		        Gn2 
	BYTE	W03
	BYTE		        Fn2 
	BYTE	W09
	BYTE		N05     Cn2 
	BYTE		N05     Cn3 
	BYTE		N05     Cn4 
	BYTE	W12
	BYTE		        Cn2 
	BYTE		N05     Cn3 
	BYTE		N05     Cn4 
	BYTE	W60
// 037   ----------------------------------------
DeadlySix_4_037:
	BYTE		N05     Cn2   v127
	BYTE		N05     Cn3 
	BYTE		N05     Cn4 
	BYTE	W12
	BYTE		        Cn2 
	BYTE		N05     Cn3 
	BYTE		N05     Cn4 
	BYTE	W84
	BYTE	PEND
// 038   ----------------------------------------
DeadlySix_4_038:
	BYTE	W24
	BYTE		N05     Cn2   v127
	BYTE		N05     Cn3 
	BYTE		N05     Cn4 
	BYTE	W12
	BYTE		        Cn2 
	BYTE		N05     Cn3 
	BYTE		N05     Cn4 
	BYTE	W60
	BYTE	PEND
// 039   ----------------------------------------
	BYTE	PATT
	 POIN2	DeadlySix_4_037
// 040   ----------------------------------------
	BYTE	PATT
	 POIN2	DeadlySix_4_038
// 041   ----------------------------------------
	BYTE	PATT
	 POIN2	DeadlySix_4_037
// 042   ----------------------------------------
	BYTE	PATT
	 POIN2	DeadlySix_4_038
// 043   ----------------------------------------
	BYTE	W96
// 044   ----------------------------------------
	BYTE	W96
// 045   ----------------------------------------
	BYTE	W72
	BYTE	GoTo
	 POIN2	DeadlySix_4_B1
DeadlySix_4_B2:
	BYTE	FINE

//**************** Track 5 (Midi-Chn.5) ****************//

DeadlySix_5:
	BYTE	KEYSH   DeadlySix_key+0
// 000   ----------------------------------------
	BYTE		VOICE   67
	BYTE		PAN     c_v+14
	BYTE		VOL     108*DeadlySix_mvl/mxv
	BYTE	W24
	BYTE		N23     Cn1   v080
	BYTE	W24
	BYTE		N23   
	BYTE	W24
	BYTE		N23   
	BYTE	W24
// 001   ----------------------------------------
	BYTE		N23   
	BYTE	W24
	BYTE		N23   
	BYTE	W24
	BYTE		N23   
	BYTE	W24
	BYTE		N23   
	BYTE	W24
// 002   ----------------------------------------
	BYTE		N23   
	BYTE	W96
// 003   ----------------------------------------
	BYTE	W96
// 004   ----------------------------------------
	BYTE	W24
DeadlySix_5_B1:
	BYTE	W72
// 005   ----------------------------------------
	BYTE	W96
// 006   ----------------------------------------
	BYTE	W96
// 007   ----------------------------------------
	BYTE	W96
// 008   ----------------------------------------
	BYTE	W96
// 009   ----------------------------------------
	BYTE	W96
// 010   ----------------------------------------
	BYTE	W96
// 011   ----------------------------------------
	BYTE	W96
// 012   ----------------------------------------
	BYTE	W24
	BYTE		N32     Cn1   v080
	BYTE		N32     Cn2 
	BYTE	W36
	BYTE		N23     Cn1 
	BYTE		N23     Cn2 
	BYTE	W24
	BYTE		N11     Cn1 
	BYTE		N11     Cn2 
	BYTE	W12
// 013   ----------------------------------------
	BYTE		N23     Cn1 
	BYTE		N23     Cn2 
	BYTE	W24
	BYTE		N32     Fs1 
	BYTE		N32     Fs2 
	BYTE	W36
	BYTE		N23     Fs1 
	BYTE		N23     Fs2 
	BYTE	W24
	BYTE		N11     Fs1 
	BYTE		N11     Fs2 
	BYTE	W12
// 014   ----------------------------------------
	BYTE		N23     Fs1 
	BYTE		N23     Fs2 
	BYTE	W24
	BYTE		N32     Cn1 
	BYTE		N32     Cn2 
	BYTE	W36
	BYTE		N23     Cn1 
	BYTE		N23     Cn2 
	BYTE	W24
	BYTE		N11     Cn1 
	BYTE		N11     Cn2 
	BYTE	W12
// 015   ----------------------------------------
DeadlySix_5_015:
	BYTE		N23     Cn1   v080
	BYTE		N23     Cn2 
	BYTE	W24
	BYTE		N32     Gs1 
	BYTE		N32     Gs2 
	BYTE	W36
	BYTE		N23     Gs1 
	BYTE		N23     Gs2 
	BYTE	W24
	BYTE		N11     Gs1 
	BYTE		N11     Gs2 
	BYTE	W12
	BYTE	PEND
// 016   ----------------------------------------
	BYTE		N23     Gs1 
	BYTE		N23     Gs2 
	BYTE	W24
	BYTE		N32     Cn1 
	BYTE		N32     Cn2 
	BYTE	W36
	BYTE		N23     Cn1 
	BYTE		N23     Cn2 
	BYTE	W24
	BYTE		N11     Cn1 
	BYTE		N11     Cn2 
	BYTE	W12
// 017   ----------------------------------------
	BYTE	PATT
	 POIN2	DeadlySix_5_015
// 018   ----------------------------------------
	BYTE		N23     Gs1   v080
	BYTE		N23     Gs2 
	BYTE	W24
	BYTE		N92     Gn1 
	BYTE		N92     Gn2 
	BYTE	W72
// 019   ----------------------------------------
	BYTE	W24
	BYTE		N32     Gn1 
	BYTE		N32     Gn2 
	BYTE	W36
	BYTE		N11     Cn1 
	BYTE		N11     Cn2 
	BYTE		N56     Cn3 
	BYTE	W12
	BYTE		N44     Cn1 
	BYTE		N44     Cn2 
	BYTE	W24
// 020   ----------------------------------------
	BYTE	W24
	BYTE		N23     An0 
	BYTE		N23     An1 
	BYTE	W24
	BYTE		N11     An0 
	BYTE		N11     An1 
	BYTE	W12
	BYTE		        An0 
	BYTE		N11     An1 
	BYTE	W12
	BYTE		N23     An0 
	BYTE		N23     An1 
	BYTE	W24
// 021   ----------------------------------------
	BYTE		        An0 
	BYTE		N23     An1 
	BYTE	W24
	BYTE		N11     An0 
	BYTE		N11     An1 
	BYTE	W12
	BYTE		        An0 
	BYTE		N11     An1 
	BYTE	W12
	BYTE		N23     An0 
	BYTE		N23     An1 
	BYTE	W24
	BYTE		        An0 
	BYTE		N23     An1 
	BYTE	W24
// 022   ----------------------------------------
	BYTE		        An0 
	BYTE		N23     An1 
	BYTE	W24
	BYTE		        Cn1 
	BYTE		N23     Cn2 
	BYTE	W24
	BYTE		N11     Cn1 
	BYTE		N11     Cn2 
	BYTE	W12
	BYTE		        Cn1 
	BYTE		N11     Cn2 
	BYTE	W12
	BYTE		N23     Cn1 
	BYTE		N23     Cn2 
	BYTE	W24
// 023   ----------------------------------------
	BYTE		        Cn1 
	BYTE		N23     Cn2 
	BYTE	W24
	BYTE		N11     Cn1 
	BYTE		N11     Cn2 
	BYTE	W12
	BYTE		        Cn1 
	BYTE		N11     Cn2 
	BYTE	W12
	BYTE		N23     Cn1 
	BYTE		N23     Cn2 
	BYTE	W24
	BYTE		        Cn1 
	BYTE		N23     Cn2 
	BYTE	W24
// 024   ----------------------------------------
	BYTE		        Cn1 
	BYTE		N23     Cn2 
	BYTE	W24
	BYTE		        Fn1 
	BYTE	W24
	BYTE		N23   
	BYTE	W24
	BYTE		N23   
	BYTE	W24
// 025   ----------------------------------------
	BYTE		N23   
	BYTE	W24
	BYTE		        Ds1 
	BYTE	W24
	BYTE		N23   
	BYTE	W24
	BYTE		N23   
	BYTE	W24
// 026   ----------------------------------------
	BYTE		N23   
	BYTE	W24
	BYTE		N92     Gn1 
	BYTE	W72
// 027   ----------------------------------------
	BYTE	W24
	BYTE		N44   
	BYTE	W48
	BYTE		N44   
	BYTE	W24
// 028   ----------------------------------------
DeadlySix_5_028:
	BYTE	W24
	BYTE		N32     Cn1   v112
	BYTE	W36
	BYTE		        Cn2 
	BYTE	W36
	BYTE	PEND
// 029   ----------------------------------------
DeadlySix_5_029:
	BYTE		N23     Cn2   v112
	BYTE	W24
	BYTE		N32     As1 
	BYTE	W36
	BYTE		N11   
	BYTE	W12
	BYTE		N23   
	BYTE	W24
	BYTE	PEND
// 030   ----------------------------------------
	BYTE		N11   
	BYTE	W12
	BYTE		        Gn1 
	BYTE	W12
	BYTE		N44     Gs1 
	BYTE	W60
	BYTE		N32   
	BYTE	W12
// 031   ----------------------------------------
	BYTE	W24
	BYTE		        Gn1 
	BYTE	W36
	BYTE		N11   
	BYTE	W12
	BYTE		N44   
	BYTE	W24
// 032   ----------------------------------------
	BYTE	PATT
	 POIN2	DeadlySix_5_028
// 033   ----------------------------------------
	BYTE	PATT
	 POIN2	DeadlySix_5_029
// 034   ----------------------------------------
	BYTE		N11     As1   v112
	BYTE	W12
	BYTE		        Gn1 
	BYTE	W12
	BYTE		N44     Gs1 
	BYTE	W48
	BYTE		        Gn1 
	BYTE	W24
// 035   ----------------------------------------
	BYTE	W24
	BYTE		N23     Cn2 
	BYTE	W24
	BYTE		        Gn1 
	BYTE	W24
	BYTE		        Fn1 
	BYTE	W24
// 036   ----------------------------------------
	BYTE		        Ds1 
	BYTE	W96
// 037   ----------------------------------------
	BYTE	W96
// 038   ----------------------------------------
	BYTE	W96
// 039   ----------------------------------------
	BYTE	W96
// 040   ----------------------------------------
	BYTE	W96
// 041   ----------------------------------------
	BYTE	W96
// 042   ----------------------------------------
	BYTE	W96
// 043   ----------------------------------------
	BYTE	W96
// 044   ----------------------------------------
	BYTE	W96
// 045   ----------------------------------------
	BYTE	W72
	BYTE	GoTo
	 POIN2	DeadlySix_5_B1
DeadlySix_5_B2:
	BYTE	FINE

//**************** Track 6 (Midi-Chn.6) ****************//

DeadlySix_6:
	BYTE	KEYSH   DeadlySix_key+0
// 000   ----------------------------------------
	BYTE		VOICE   70
	BYTE		PAN     c_v-18
	BYTE		VOL     88*DeadlySix_mvl/mxv
	BYTE	W24
	BYTE		N11     Cn2   v080
	BYTE	W12
	BYTE		        Dn2 
	BYTE	W12
	BYTE		        Ds2 
	BYTE	W12
	BYTE		        Gn2 
	BYTE	W12
	BYTE		N23     Fs2 
	BYTE	W24
// 001   ----------------------------------------
	BYTE		        Dn2 
	BYTE	W24
	BYTE		        Fn2 
	BYTE	W24
	BYTE		        Ds2 
	BYTE	W24
	BYTE		        Cn2 
	BYTE	W24
// 002   ----------------------------------------
	BYTE		        Gs1 
	BYTE	W24
	BYTE		N05     Gn1 
	BYTE	W06
	BYTE		        Fs1 
	BYTE	W06
	BYTE		        Gn1 
	BYTE	W24
	BYTE		N05   
	BYTE	W06
	BYTE		        Fs1 
	BYTE	W06
	BYTE		        Gn1 
	BYTE	W24
// 003   ----------------------------------------
	BYTE		N23     Gs1 
	BYTE	W24
	BYTE		N05     Gn1 
	BYTE	W06
	BYTE		        Fs1 
	BYTE	W06
	BYTE		        Gn1 
	BYTE	W60
// 004   ----------------------------------------
	BYTE	W24
DeadlySix_6_B1:
	BYTE		N11     Cn2   v080
	BYTE	W12
	BYTE		        Dn2 
	BYTE	W12
	BYTE		        Ds2 
	BYTE	W12
	BYTE		        Dn2 
	BYTE	W24
	BYTE		        Cn2 
	BYTE	W12
// 005   ----------------------------------------
DeadlySix_6_005:
	BYTE		N11     Ds2   v080
	BYTE	W12
	BYTE		        Cn2 
	BYTE	W12
	BYTE		        Gn2 
	BYTE	W12
	BYTE		N80     Fs2 
	BYTE	W60
	BYTE	PEND
// 006   ----------------------------------------
DeadlySix_6_006:
	BYTE	W24
	BYTE		N11     Cn2   v080
	BYTE	W12
	BYTE		        Dn2 
	BYTE	W12
	BYTE		        Ds2 
	BYTE	W12
	BYTE		        Dn2 
	BYTE	W24
	BYTE		        Cn2 
	BYTE	W12
	BYTE	PEND
// 007   ----------------------------------------
DeadlySix_6_007:
	BYTE		N11     Ds2   v080
	BYTE	W12
	BYTE		        Cn2 
	BYTE	W12
	BYTE		        Gn2 
	BYTE	W12
	BYTE		N80     Gs2 
	BYTE	W60
	BYTE	PEND
// 008   ----------------------------------------
	BYTE	PATT
	 POIN2	DeadlySix_6_006
// 009   ----------------------------------------
	BYTE	PATT
	 POIN2	DeadlySix_6_005
// 010   ----------------------------------------
	BYTE	W24
	BYTE		N11     Gn2   v080
	BYTE	W12
	BYTE		N11   
	BYTE	W12
	BYTE		        Bn2 
	BYTE	W12
	BYTE		N11   
	BYTE	W12
	BYTE		        Dn3 
	BYTE	W12
	BYTE		N11   
	BYTE	W12
// 011   ----------------------------------------
	BYTE		        Fn3 
	BYTE	W12
	BYTE		N11   
	BYTE	W12
	BYTE		        Gn3 
	BYTE	W12
	BYTE		        Dn3 
	BYTE	W12
	BYTE		        Bn2 
	BYTE	W12
	BYTE		N23     Fn3 
	BYTE	W24
	BYTE		N11     Ds3 
	BYTE	W12
// 012   ----------------------------------------
	BYTE		        Dn3 
	BYTE	W12
	BYTE		        Cn3 
	BYTE	W12
	BYTE		        Cn2 
	BYTE	W12
	BYTE		        Dn2 
	BYTE	W12
	BYTE		        Ds2 
	BYTE	W12
	BYTE		        Dn2 
	BYTE	W24
	BYTE		        Cn2 
	BYTE	W12
// 013   ----------------------------------------
	BYTE	PATT
	 POIN2	DeadlySix_6_005
// 014   ----------------------------------------
	BYTE	PATT
	 POIN2	DeadlySix_6_006
// 015   ----------------------------------------
	BYTE	PATT
	 POIN2	DeadlySix_6_007
// 016   ----------------------------------------
	BYTE	PATT
	 POIN2	DeadlySix_6_006
// 017   ----------------------------------------
	BYTE		N11     Ds2   v080
	BYTE	W12
	BYTE		        Cn2 
	BYTE	W12
	BYTE		        Gn2 
	BYTE		N11     Cn3 
	BYTE	W12
	BYTE		        Fs2 
	BYTE		N80     Bn2 
	BYTE	W12
	BYTE		N68     Fs2 
	BYTE	W48
// 018   ----------------------------------------
	BYTE	W24
	BYTE		N11     Gn2 
	BYTE	W12
	BYTE		        Bn2 
	BYTE	W12
	BYTE		        Dn3 
	BYTE	W12
	BYTE		        Bn2 
	BYTE	W12
	BYTE		        Dn3 
	BYTE	W12
	BYTE		        Fn3 
	BYTE	W12
// 019   ----------------------------------------
	BYTE		        Dn3 
	BYTE	W12
	BYTE		        Fn3 
	BYTE	W12
	BYTE		        Gn3 
	BYTE	W12
	BYTE		        Ds3 
	BYTE	W12
	BYTE		        Dn3 
	BYTE	W12
	BYTE		N56     Cn3 
	BYTE	W36
// 020   ----------------------------------------
	BYTE	W24
	BYTE		N11     An2 
	BYTE		N11     An3 
	BYTE	W72
// 021   ----------------------------------------
	BYTE		        An2 
	BYTE		N11     An3 
	BYTE	W72
	BYTE		        An2 
	BYTE		N11     An3 
	BYTE	W24
// 022   ----------------------------------------
	BYTE	W24
	BYTE		        Cn3 
	BYTE		N11     Cn4 
	BYTE	W72
// 023   ----------------------------------------
	BYTE		        Cn3 
	BYTE		N11     Cn4 
	BYTE	W72
	BYTE		        Cn3 
	BYTE		N11     Cn4 
	BYTE	W24
// 024   ----------------------------------------
	BYTE	W24
	BYTE		        Fn2 
	BYTE	W12
	BYTE		        Gs2 
	BYTE	W12
	BYTE		        Cn3 
	BYTE	W12
	BYTE		        Dn3 
	BYTE	W12
	BYTE		        Ds3 
	BYTE	W12
	BYTE		        Dn3 
	BYTE	W12
// 025   ----------------------------------------
	BYTE		        Cn3 
	BYTE	W12
	BYTE		        Gs2 
	BYTE	W12
	BYTE		        Ds2 
	BYTE	W12
	BYTE		        Gs2 
	BYTE	W12
	BYTE		        Cn3 
	BYTE	W12
	BYTE		        Dn3 
	BYTE	W12
	BYTE		        Ds3 
	BYTE	W12
	BYTE		        Dn3 
	BYTE	W12
// 026   ----------------------------------------
	BYTE		        Ds3 
	BYTE	W12
	BYTE		        Fn3 
	BYTE	W12
	BYTE		N92     Gn3 
	BYTE	W72
// 027   ----------------------------------------
	BYTE	W36
	BYTE		N11   
	BYTE	W12
	BYTE		        Fn3 
	BYTE	W12
	BYTE		        Gn3 
	BYTE	W12
	BYTE		        Ds3 
	BYTE	W12
	BYTE		        Gn3 
	BYTE	W12
// 028   ----------------------------------------
	BYTE		        Dn3 
	BYTE	W12
	BYTE		        Gn3 
	BYTE	W12
	BYTE		N44     Cn3   v112
	BYTE	W60
	BYTE		N23     Dn3 
	BYTE	W12
// 029   ----------------------------------------
	BYTE	W12
	BYTE		N11     Ds3 
	BYTE	W12
	BYTE		N15     Gn3 
	BYTE	W16
	BYTE		        Fn3 
	BYTE	W16
	BYTE		        Ds3 
	BYTE	W16
	BYTE		N23     Dn3 
	BYTE	W24
// 030   ----------------------------------------
	BYTE		        Gn2 
	BYTE	W24
	BYTE		N44     Gs2 
	BYTE	W60
	BYTE		N11     Ds2 
	BYTE	W12
// 031   ----------------------------------------
	BYTE		        Gs2 
	BYTE	W12
	BYTE		        Cn3 
	BYTE	W12
	BYTE		N32     Bn2 
	BYTE	W36
	BYTE		N05     Cn3 
	BYTE	W06
	BYTE		        Bn2 
	BYTE	W06
	BYTE		N44     Gn2 
	BYTE	W24
// 032   ----------------------------------------
	BYTE	W24
	BYTE		        Cn3 
	BYTE	W60
	BYTE		N23     Dn3 
	BYTE	W12
// 033   ----------------------------------------
	BYTE	W12
	BYTE		N11     Ds3 
	BYTE	W12
	BYTE		N15     Dn3 
	BYTE	W16
	BYTE		        Gn3 
	BYTE	W16
	BYTE		        Fn3 
	BYTE	W16
	BYTE		        Ds3 
	BYTE	W16
	BYTE		        Dn3 
	BYTE	W08
// 034   ----------------------------------------
	BYTE	W08
	BYTE		        Gn2 
	BYTE	W16
	BYTE		N44     Cn3 
	BYTE	W48
	BYTE		N23     Bn2 
	BYTE	W24
// 035   ----------------------------------------
	BYTE		        Dn3 
	BYTE	W24
	BYTE		N15     Cn3 
	BYTE	W16
	BYTE		        Ds3 
	BYTE	W16
	BYTE		        Fn3 
	BYTE	W16
	BYTE		N05     Cn4   v127
	BYTE	W06
	BYTE		N02     Bn3 
	BYTE	W03
	BYTE		        Gn3 
	BYTE	W03
	BYTE		N01     Fn3 
	BYTE	W01
	BYTE		        Ds3 
	BYTE	W02
	BYTE		N02     Dn3 
	BYTE	W03
	BYTE		N01     Cn3 
	BYTE	W01
	BYTE		N02     As2 
	BYTE	W03
	BYTE		N01     An2 
	BYTE	W02
// 036   ----------------------------------------
	BYTE		        Gn2 
	BYTE	W02
	BYTE		        Fn2 
	BYTE	W02
	BYTE		        En2 
	BYTE	W02
	BYTE		N02     Cn2 
	BYTE	W03
	BYTE		        An1 
	BYTE	W03
	BYTE		        Gn1 
	BYTE	W03
	BYTE		        Fn1 
	BYTE	W09
	BYTE		N05     Cn2 
	BYTE		N05     Cn3 
	BYTE		N05     Cn4 
	BYTE	W12
	BYTE		        Cn2 
	BYTE		N05     Cn3 
	BYTE		N05     Cn4 
	BYTE	W60
// 037   ----------------------------------------
DeadlySix_6_037:
	BYTE		N05     Cn2   v127
	BYTE		N05     Cn3 
	BYTE		N05     Cn4 
	BYTE	W12
	BYTE		        Cn2 
	BYTE		N05     Cn3 
	BYTE		N05     Cn4 
	BYTE	W84
	BYTE	PEND
// 038   ----------------------------------------
DeadlySix_6_038:
	BYTE	W24
	BYTE		N05     Cn2   v127
	BYTE		N05     Cn3 
	BYTE		N05     Cn4 
	BYTE	W12
	BYTE		        Cn2 
	BYTE		N05     Cn3 
	BYTE		N05     Cn4 
	BYTE	W60
	BYTE	PEND
// 039   ----------------------------------------
	BYTE	PATT
	 POIN2	DeadlySix_6_037
// 040   ----------------------------------------
	BYTE	PATT
	 POIN2	DeadlySix_6_038
// 041   ----------------------------------------
	BYTE	PATT
	 POIN2	DeadlySix_6_037
// 042   ----------------------------------------
	BYTE	PATT
	 POIN2	DeadlySix_6_038
// 043   ----------------------------------------
	BYTE		N11     Ds2   v127
	BYTE	W12
	BYTE		        Dn2 
	BYTE	W12
	BYTE		        Ds2 
	BYTE	W24
	BYTE		        Gn2 
	BYTE	W12
	BYTE		        Fs2 
	BYTE	W12
	BYTE		        Gn2 
	BYTE	W12
	BYTE		        Cn3 
	BYTE	W12
// 044   ----------------------------------------
	BYTE		        Bn2 
	BYTE	W12
	BYTE		        Cn3 
	BYTE	W12
	BYTE		        Ds3 
	BYTE	W12
	BYTE		        Dn3 
	BYTE	W12
	BYTE		        Ds3 
	BYTE	W12
	BYTE		        Gn3 
	BYTE	W12
	BYTE		        Fs3 
	BYTE	W12
	BYTE		        Gn3 
	BYTE	W12
// 045   ----------------------------------------
	BYTE		        Cn4 
	BYTE	W12
	BYTE		        Bn3 
	BYTE	W12
	BYTE		        Gn3 
	BYTE	W12
	BYTE		        Cn4 
	BYTE	W12
	BYTE		N05     As3 
	BYTE	W06
	BYTE		        Gn3 
	BYTE	W06
	BYTE		        Ds3 
	BYTE	W06
	BYTE		        As2 
	BYTE	W06
	BYTE	GoTo
	 POIN2	DeadlySix_6_B1
DeadlySix_6_B2:
	BYTE	FINE

//**************** Track 7 (Midi-Chn.8) ****************//

DeadlySix_7:
	BYTE	KEYSH   DeadlySix_key+0
// 000   ----------------------------------------
	BYTE		VOICE   62
	BYTE		PAN     c_v+25
	BYTE		VOL     112*DeadlySix_mvl/mxv
	BYTE	W24
	BYTE		N11     Cn3   v080
	BYTE	W12
	BYTE		        Dn3 
	BYTE	W12
	BYTE		        Ds3 
	BYTE	W12
	BYTE		        Gn3 
	BYTE	W12
	BYTE		N23     Fs3 
	BYTE	W24
// 001   ----------------------------------------
	BYTE		        Dn3 
	BYTE	W24
	BYTE		        Fn3 
	BYTE	W24
	BYTE		        Ds3 
	BYTE	W24
	BYTE		        Cn3 
	BYTE	W24
// 002   ----------------------------------------
	BYTE		        Gs2 
	BYTE	W24
	BYTE		N05     Gn2 
	BYTE	W06
	BYTE		        Fs2 
	BYTE	W06
	BYTE		        Gn2 
	BYTE	W24
	BYTE		N05   
	BYTE	W06
	BYTE		        Fs2 
	BYTE	W06
	BYTE		        Gn2 
	BYTE	W24
// 003   ----------------------------------------
	BYTE		N23     Gs2 
	BYTE	W24
	BYTE		N05     Gn2 
	BYTE	W06
	BYTE		        Fs2 
	BYTE	W06
	BYTE		        Gn2 
	BYTE	W60
// 004   ----------------------------------------
	BYTE	W24
DeadlySix_7_B1:
	BYTE		N11     Cn3   v080
	BYTE	W12
	BYTE		        Dn3 
	BYTE	W12
	BYTE		        Ds3 
	BYTE	W12
	BYTE		        Dn3 
	BYTE	W24
	BYTE		        Cn3 
	BYTE	W12
// 005   ----------------------------------------
DeadlySix_7_005:
	BYTE		N11     Ds3   v080
	BYTE	W12
	BYTE		        Cn3 
	BYTE	W12
	BYTE		        Gn3 
	BYTE	W12
	BYTE		N80     Fs3 
	BYTE	W60
	BYTE	PEND
// 006   ----------------------------------------
DeadlySix_7_006:
	BYTE	W24
	BYTE		N11     Cn3   v080
	BYTE	W12
	BYTE		        Dn3 
	BYTE	W12
	BYTE		        Ds3 
	BYTE	W12
	BYTE		        Dn3 
	BYTE	W24
	BYTE		        Cn3 
	BYTE	W12
	BYTE	PEND
// 007   ----------------------------------------
DeadlySix_7_007:
	BYTE		N11     Ds3   v080
	BYTE	W12
	BYTE		        Cn3 
	BYTE	W12
	BYTE		        Gn3 
	BYTE	W12
	BYTE		N80     Gs3 
	BYTE	W60
	BYTE	PEND
// 008   ----------------------------------------
	BYTE	PATT
	 POIN2	DeadlySix_7_006
// 009   ----------------------------------------
	BYTE	PATT
	 POIN2	DeadlySix_7_005
// 010   ----------------------------------------
	BYTE	W24
	BYTE		N11     Gn3   v080
	BYTE	W12
	BYTE		N11   
	BYTE	W12
	BYTE		        Bn3 
	BYTE	W12
	BYTE		N11   
	BYTE	W12
	BYTE		        Dn4 
	BYTE	W12
	BYTE		N11   
	BYTE	W12
// 011   ----------------------------------------
	BYTE		        Fn4 
	BYTE	W12
	BYTE		N11   
	BYTE	W12
	BYTE		        Gn4 
	BYTE	W12
	BYTE		        Dn4 
	BYTE	W12
	BYTE		        Bn3 
	BYTE	W12
	BYTE		N23     Fn4 
	BYTE	W24
	BYTE		N11     Bn3 
	BYTE	W12
// 012   ----------------------------------------
	BYTE		N11   
	BYTE	W12
	BYTE		        An3 
	BYTE	W12
	BYTE		        Cn3 
	BYTE	W12
	BYTE		        Dn3 
	BYTE	W12
	BYTE		        Ds3 
	BYTE	W12
	BYTE		        Dn3 
	BYTE	W24
	BYTE		        Cn3 
	BYTE	W12
// 013   ----------------------------------------
	BYTE	PATT
	 POIN2	DeadlySix_7_005
// 014   ----------------------------------------
	BYTE	PATT
	 POIN2	DeadlySix_7_006
// 015   ----------------------------------------
	BYTE	PATT
	 POIN2	DeadlySix_7_007
// 016   ----------------------------------------
	BYTE	PATT
	 POIN2	DeadlySix_7_006
// 017   ----------------------------------------
	BYTE		N11     Ds3   v080
	BYTE	W12
	BYTE		        Cn3 
	BYTE	W12
	BYTE		        Gn3 
	BYTE		N11     Cn4 
	BYTE	W12
	BYTE		        Fs3 
	BYTE		N80     Bn3 
	BYTE	W12
	BYTE		N68     Fs3 
	BYTE	W48
// 018   ----------------------------------------
	BYTE	W24
	BYTE		N11     Gn3 
	BYTE	W12
	BYTE		        Bn3 
	BYTE	W12
	BYTE		        Dn4 
	BYTE	W12
	BYTE		        Bn3 
	BYTE	W12
	BYTE		        Dn4 
	BYTE	W12
	BYTE		        Fn4 
	BYTE	W12
// 019   ----------------------------------------
	BYTE		        Dn4 
	BYTE	W12
	BYTE		        Fn4 
	BYTE	W12
	BYTE		        Gn4 
	BYTE	W12
	BYTE		        Ds4 
	BYTE	W12
	BYTE		        Dn4 
	BYTE	W12
	BYTE		N56     Cn4 
	BYTE	W36
// 020   ----------------------------------------
	BYTE	W24
	BYTE		N11     An2   v127
	BYTE	W12
	BYTE		        Dn3 
	BYTE	W12
	BYTE		        En3 
	BYTE	W12
	BYTE		        Fn3 
	BYTE	W12
	BYTE		N56     En3 
	BYTE	W24
// 021   ----------------------------------------
	BYTE	W36
	BYTE		N05   
	BYTE	W06
	BYTE		        Fn3 
	BYTE	W06
	BYTE		N11     En3 
	BYTE	W12
	BYTE		        Dn3 
	BYTE	W12
	BYTE		N44     En3 
	BYTE	W24
// 022   ----------------------------------------
	BYTE	W24
	BYTE		N11     Cn3 
	BYTE	W12
	BYTE		        Dn3 
	BYTE	W12
	BYTE		        Ds3 
	BYTE	W12
	BYTE		        Fn3 
	BYTE	W12
	BYTE		N56     Gn3 
	BYTE	W24
// 023   ----------------------------------------
	BYTE	W36
	BYTE		N05   
	BYTE	W06
	BYTE		        Gs3 
	BYTE	W06
	BYTE		N11     Gn3 
	BYTE	W12
	BYTE		        Fn3 
	BYTE	W12
	BYTE		N44     Gn3 
	BYTE	W24
// 024   ----------------------------------------
	BYTE	W24
	BYTE		N11     Fn2 
	BYTE	W12
	BYTE		        Gs2 
	BYTE	W12
	BYTE		        Cn3 
	BYTE	W12
	BYTE		        Dn3 
	BYTE	W12
	BYTE		        Ds3 
	BYTE	W12
	BYTE		        Dn3 
	BYTE	W12
// 025   ----------------------------------------
	BYTE		        Cn3 
	BYTE	W12
	BYTE		        Gs2 
	BYTE	W12
	BYTE		        Ds2 
	BYTE	W12
	BYTE		        Gs2 
	BYTE	W12
	BYTE		        Cn3 
	BYTE	W12
	BYTE		        Dn3 
	BYTE	W12
	BYTE		        Ds3 
	BYTE	W12
	BYTE		        Dn3 
	BYTE	W12
// 026   ----------------------------------------
	BYTE		        Ds3 
	BYTE	W12
	BYTE		        Fn3 
	BYTE	W12
	BYTE		N23     Gn3 
	BYTE	W24
	BYTE		        Cn4 
	BYTE	W24
	BYTE		N44     Bn3 
	BYTE	W24
// 027   ----------------------------------------
	BYTE	W36
	BYTE		N11     Gn3 
	BYTE	W12
	BYTE		        Fn3 
	BYTE	W12
	BYTE		        Gn3 
	BYTE	W12
	BYTE		        Ds3 
	BYTE	W12
	BYTE		        Gn3 
	BYTE	W12
// 028   ----------------------------------------
	BYTE		        Dn3 
	BYTE	W12
	BYTE		        Gn3 
	BYTE	W12
	BYTE		N44     Cn3   v112
	BYTE	W60
	BYTE		N23     Dn3 
	BYTE	W12
// 029   ----------------------------------------
	BYTE	W12
	BYTE		N11     Ds3 
	BYTE	W12
	BYTE		N15     Gn3 
	BYTE	W16
	BYTE		        Fn3 
	BYTE	W16
	BYTE		        Ds3 
	BYTE	W16
	BYTE		N23     Dn3 
	BYTE	W24
// 030   ----------------------------------------
	BYTE		        Gn2 
	BYTE	W24
	BYTE		N44     Gs2 
	BYTE	W60
	BYTE		N11     Ds2 
	BYTE	W12
// 031   ----------------------------------------
	BYTE		        Gs2 
	BYTE	W12
	BYTE		        Cn3 
	BYTE	W12
	BYTE		N32     Bn2 
	BYTE	W36
	BYTE		N05     Cn3 
	BYTE	W06
	BYTE		        Bn2 
	BYTE	W06
	BYTE		N44     Gn2 
	BYTE	W24
// 032   ----------------------------------------
	BYTE	W24
	BYTE		        Cn3 
	BYTE	W60
	BYTE		N23     Dn3 
	BYTE	W12
// 033   ----------------------------------------
	BYTE	W12
	BYTE		N11     Ds3 
	BYTE	W12
	BYTE		N15     Dn3 
	BYTE	W16
	BYTE		        Gn3 
	BYTE	W16
	BYTE		        Fn3 
	BYTE	W16
	BYTE		        Ds3 
	BYTE	W16
	BYTE		        Dn3 
	BYTE	W08
// 034   ----------------------------------------
	BYTE	W08
	BYTE		        Gn2 
	BYTE	W16
	BYTE		N44     Cn3 
	BYTE	W48
	BYTE		N23     Bn2 
	BYTE	W24
// 035   ----------------------------------------
	BYTE		        Dn3 
	BYTE	W24
	BYTE		N15     Cn3 
	BYTE	W16
	BYTE		        Ds3 
	BYTE	W16
	BYTE		        Fn3 
	BYTE	W16
	BYTE		N44     Cn4 
	BYTE	W24
// 036   ----------------------------------------
	BYTE	W48
	BYTE		N11     Cn3 
	BYTE	W12
	BYTE		        Bn2 
	BYTE	W12
	BYTE		N23     Cn3 
	BYTE	W24
// 037   ----------------------------------------
	BYTE	W24
	BYTE		N11   
	BYTE	W12
	BYTE		        Bn2 
	BYTE	W12
	BYTE		        Cn3 
	BYTE	W24
	BYTE		        Ds3 
	BYTE	W12
	BYTE		        Dn3 
	BYTE	W12
// 038   ----------------------------------------
	BYTE		        Cn3 
	BYTE	W12
	BYTE		        Bn2 
	BYTE	W12
	BYTE		        Cn2 
	BYTE	W12
	BYTE		N11   
	BYTE	W12
	BYTE		        Cn3 
	BYTE	W12
	BYTE		        Bn2 
	BYTE	W12
	BYTE		N23     Cn3 
	BYTE	W24
// 039   ----------------------------------------
	BYTE	W12
	BYTE		N11     Cn2 
	BYTE	W12
	BYTE		        Cn3 
	BYTE	W12
	BYTE		        Bn2 
	BYTE	W12
	BYTE		        Cn3 
	BYTE	W24
	BYTE		        Gn3 
	BYTE	W12
	BYTE		        Gs3 
	BYTE	W12
// 040   ----------------------------------------
	BYTE		        Gn3 
	BYTE	W12
	BYTE		        Ds3 
	BYTE	W12
	BYTE		        Cn2 
	BYTE	W12
	BYTE		N11   
	BYTE	W12
	BYTE		        Cn3 
	BYTE	W12
	BYTE		        Bn2 
	BYTE	W12
	BYTE		N23     Cn3 
	BYTE	W24
// 041   ----------------------------------------
	BYTE	W12
	BYTE		N11     Cn2 
	BYTE	W12
	BYTE		        Cn3 
	BYTE	W12
	BYTE		        Bn2 
	BYTE	W12
	BYTE		        Cn3 
	BYTE	W24
	BYTE		        Ds3 
	BYTE	W12
	BYTE		        Dn3 
	BYTE	W12
// 042   ----------------------------------------
	BYTE		        Cn3 
	BYTE	W12
	BYTE		        Bn2 
	BYTE	W12
	BYTE		        Cn3 
	BYTE	W12
	BYTE		N11   
	BYTE	W12
	BYTE		N11   
	BYTE	W12
	BYTE		        Bn2 
	BYTE	W12
	BYTE		        Cn3 
	BYTE	W24
// 043   ----------------------------------------
	BYTE		        Ds3 
	BYTE	W12
	BYTE		        Dn3 
	BYTE	W12
	BYTE		        Ds3 
	BYTE	W24
	BYTE		        Gn3 
	BYTE	W12
	BYTE		        Fs3 
	BYTE	W12
	BYTE		        Gn3 
	BYTE	W12
	BYTE		        Cn4 
	BYTE	W12
// 044   ----------------------------------------
	BYTE		        Bn3 
	BYTE	W12
	BYTE		        Cn4 
	BYTE	W12
	BYTE		        Ds4 
	BYTE	W12
	BYTE		        Dn4 
	BYTE	W12
	BYTE		        Ds4 
	BYTE	W12
	BYTE		        Gn4 
	BYTE	W12
	BYTE		        Fs4 
	BYTE	W12
	BYTE		        Gn4 
	BYTE	W12
// 045   ----------------------------------------
	BYTE		        Cn4 
	BYTE		N11     Cn5 
	BYTE	W12
	BYTE		        Bn3 
	BYTE		N11     Bn4 
	BYTE	W60
	BYTE	GoTo
	 POIN2	DeadlySix_7_B1
DeadlySix_7_B2:
	BYTE	FINE

//**************** Track 8 (Midi-Chn.9) ****************//

DeadlySix_8:
	BYTE	KEYSH   DeadlySix_key+0
// 000   ----------------------------------------
	BYTE		VOICE   123
	BYTE		VOL     90*DeadlySix_mvl/mxv
	BYTE		PAN     c_v-9
	BYTE	W12
	BYTE		N05     Cn2   v127
	BYTE	W06
	BYTE		        An1 
	BYTE	W06
	BYTE		N23     Cn1 
	BYTE		N11     Fs1 
	BYTE		N11     An2 
	BYTE	W12
	BYTE		        Fs1 
	BYTE		N11     Bn1 
	BYTE	W12
	BYTE		N23     Cn1 
	BYTE		N11     Fs1 
	BYTE		N11     Bn1 
	BYTE	W12
	BYTE		N05     Fs1 
	BYTE	W06
	BYTE		N05   
	BYTE	W06
	BYTE		N23     Cn1 
	BYTE		N11     Fs1 
	BYTE	W12
	BYTE		N11   
	BYTE		N11     Dn2 
	BYTE	W12
// 001   ----------------------------------------
	BYTE		N23     Cn1 
	BYTE		N11     Fs1 
	BYTE		N11     Cn2 
	BYTE	W12
	BYTE		        Fs1 
	BYTE		N11     An1 
	BYTE	W12
	BYTE		N23     Cn1 
	BYTE		N11     Fs1 
	BYTE	W12
	BYTE		N11   
	BYTE	W12
	BYTE		N23     Cn1 
	BYTE		N11     Fs1 
	BYTE	W12
	BYTE		N05   
	BYTE	W06
	BYTE		N05   
	BYTE	W06
	BYTE		N23     Cn1 
	BYTE		N11     Fs1 
	BYTE	W12
	BYTE		N11   
	BYTE	W12
// 002   ----------------------------------------
	BYTE		        Cn1 
	BYTE		N11     Fs1 
	BYTE	W12
	BYTE		        Cn1 
	BYTE		N11     Fs1 
	BYTE	W12
	BYTE		N32     Cn1 
	BYTE	W24
	BYTE		N11     Dn1 
	BYTE	W12
	BYTE		N32     Cn1 
	BYTE	W24
	BYTE		N11     Dn1 
	BYTE	W12
// 003   ----------------------------------------
	BYTE		N23     Cn1 
	BYTE	W24
	BYTE		N11   
	BYTE		N11     Dn1 
	BYTE	W12
	BYTE		        Cn1 
	BYTE		N11     Dn1 
	BYTE	W36
	BYTE		N01   
	BYTE	W01
	BYTE		N01   
	BYTE	W02
	BYTE		N01   
	BYTE	W01
	BYTE		N01   
	BYTE	W02
	BYTE		N01   
	BYTE	W01
	BYTE		N02   
	BYTE	W03
	BYTE		N02   
	BYTE	W03
	BYTE		N02   
	BYTE	W03
	BYTE		N02   
	BYTE	W03
	BYTE		N02   
	BYTE	W05
// 004   ----------------------------------------
	BYTE		N11   
	BYTE	W12
	BYTE		N03   
	BYTE	W04
	BYTE		N04   
	BYTE	W08
DeadlySix_8_B1:
	BYTE		N32     Bn0   v127
	BYTE		N11     Fs1 
	BYTE		N11     Cs2 
	BYTE	W12
	BYTE		        Fs1 
	BYTE	W12
	BYTE		        Dn1 
	BYTE		N11     Fs1 
	BYTE	W12
	BYTE		        Cn1 
	BYTE		N05     Fs1 
	BYTE	W06
	BYTE		N05   
	BYTE	W06
	BYTE		N44     Cn1 
	BYTE		N11     Fs1 
	BYTE	W12
	BYTE		N11   
	BYTE	W12
// 005   ----------------------------------------
DeadlySix_8_005:
	BYTE		N11     Dn1   v127
	BYTE		N11     Fs1 
	BYTE	W12
	BYTE		N11   
	BYTE	W12
	BYTE		N32     Cn1 
	BYTE		N11     Fs1 
	BYTE	W12
	BYTE		N11   
	BYTE	W12
	BYTE		        Dn1 
	BYTE		N11     Fs1 
	BYTE	W12
	BYTE		        Cn1 
	BYTE		N05     Fs1 
	BYTE	W06
	BYTE		N05   
	BYTE	W06
	BYTE		N44     Cn1 
	BYTE		N11     Fs1 
	BYTE	W12
	BYTE		N11   
	BYTE	W12
	BYTE	PEND
// 006   ----------------------------------------
	BYTE	PATT
	 POIN2	DeadlySix_8_005
// 007   ----------------------------------------
	BYTE	PATT
	 POIN2	DeadlySix_8_005
// 008   ----------------------------------------
	BYTE	PATT
	 POIN2	DeadlySix_8_005
// 009   ----------------------------------------
	BYTE	PATT
	 POIN2	DeadlySix_8_005
// 010   ----------------------------------------
	BYTE		N11     Dn1   v127
	BYTE		N11     Fs1 
	BYTE	W12
	BYTE		N11   
	BYTE	W12
	BYTE		N32     Cn1 
	BYTE		N11     Fs1 
	BYTE		N11     Cs2 
	BYTE	W12
	BYTE		N05     Fs1 
	BYTE	W06
	BYTE		N05   
	BYTE	W06
	BYTE		N11     Dn1 
	BYTE		N11     Fs1 
	BYTE	W12
	BYTE		        Cn1 
	BYTE		N05     Fs1 
	BYTE	W06
	BYTE		N05   
	BYTE	W06
	BYTE		N44     Cn1 
	BYTE		N11     Fs1 
	BYTE	W12
	BYTE		N11   
	BYTE	W12
// 011   ----------------------------------------
	BYTE		        Dn1 
	BYTE		N11     Fs1 
	BYTE	W12
	BYTE		N11   
	BYTE	W12
	BYTE		N23     Cn1 
	BYTE		N11     Dn1 
	BYTE		N11     Fs1 
	BYTE		N11     Bn1 
	BYTE		N11     Cs2 
	BYTE	W12
	BYTE		        Dn1 
	BYTE		N11     Fs1 
	BYTE		N11     An1 
	BYTE	W12
	BYTE		N23     Cn1 
	BYTE		N11     Fs1 
	BYTE	W12
	BYTE		N05     Dn1 
	BYTE		N05     Fs1 
	BYTE		N05     An1 
	BYTE	W06
	BYTE		        Dn1 
	BYTE		N05     Fs1 
	BYTE		N05     Bn1 
	BYTE	W06
	BYTE		N23     Cn1 
	BYTE		N11     Dn1 
	BYTE		N11     Fs1 
	BYTE		N11     Cn2 
	BYTE		N11     Cs2 
	BYTE	W12
	BYTE		        Dn1 
	BYTE		N11     Fs1 
	BYTE		N11     Bn1 
	BYTE	W12
// 012   ----------------------------------------
	BYTE		N23     Cn1 
	BYTE		N11     Dn1 
	BYTE		N11     Fs1 
	BYTE		N11     An1 
	BYTE		N11     Cs2 
	BYTE	W12
	BYTE		        Dn1 
	BYTE		N11     Fn1 
	BYTE		N11     Fs1 
	BYTE		N11     Cs2 
	BYTE	W12
	BYTE		N32     Cn1 
	BYTE		N11     Fs1 
	BYTE	W12
	BYTE		N11   
	BYTE	W12
	BYTE		        Dn1 
	BYTE		N11     Fs1 
	BYTE	W12
	BYTE		        Cn1 
	BYTE		N05     Fs1 
	BYTE	W06
	BYTE		N05   
	BYTE	W06
	BYTE		N44     Cn1 
	BYTE		N11     Fs1 
	BYTE	W12
	BYTE		N11   
	BYTE	W12
// 013   ----------------------------------------
	BYTE	PATT
	 POIN2	DeadlySix_8_005
// 014   ----------------------------------------
	BYTE	PATT
	 POIN2	DeadlySix_8_005
// 015   ----------------------------------------
	BYTE	PATT
	 POIN2	DeadlySix_8_005
// 016   ----------------------------------------
	BYTE	PATT
	 POIN2	DeadlySix_8_005
// 017   ----------------------------------------
	BYTE	PATT
	 POIN2	DeadlySix_8_005
// 018   ----------------------------------------
	BYTE		N11     Dn1   v127
	BYTE		N11     Fs1 
	BYTE	W12
	BYTE		N11   
	BYTE	W12
	BYTE		N32     Cn1 
	BYTE		N11     Fs1 
	BYTE		N11     Cs2 
	BYTE	W12
	BYTE		        Fs1 
	BYTE	W12
	BYTE		        Dn1 
	BYTE		N11     Fs1 
	BYTE	W12
	BYTE		        Cn1 
	BYTE		N05     Fs1 
	BYTE	W06
	BYTE		N05   
	BYTE	W06
	BYTE		N44     Cn1 
	BYTE		N05     Fs1 
	BYTE		N05     Cs2 
	BYTE	W06
	BYTE		        Fs1 
	BYTE	W06
	BYTE		N11   
	BYTE	W12
// 019   ----------------------------------------
	BYTE		        Dn1 
	BYTE		N11     Fs1 
	BYTE	W12
	BYTE		N11   
	BYTE	W12
	BYTE		        Cn1 
	BYTE		N11     Fs1 
	BYTE		N11     Dn2 
	BYTE	W12
	BYTE		N05     Cn1 
	BYTE		N05     Fs1 
	BYTE		N05     Cn2 
	BYTE	W06
	BYTE		        Cn1 
	BYTE		N05     Fs1 
	BYTE	W06
	BYTE		N11     Cn1 
	BYTE		N11     Fs1 
	BYTE		N11     Bn1 
	BYTE	W12
	BYTE		N56     Cn1 
	BYTE		N11     Fs1 
	BYTE		N11     An1 
	BYTE	W12
	BYTE		N05     Fs1 
	BYTE		N05     Dn2 
	BYTE	W06
	BYTE		        Fs1 
	BYTE		N05     Cn2 
	BYTE	W06
	BYTE		        Fs1 
	BYTE		N05     Bn1 
	BYTE	W06
	BYTE		        Fn1 
	BYTE		N05     Fs1 
	BYTE		N05     An1 
	BYTE	W06
// 020   ----------------------------------------
	BYTE		        Fs1 
	BYTE		N05     Dn2 
	BYTE	W06
	BYTE		        Fs1 
	BYTE		N05     Bn1 
	BYTE	W06
	BYTE		        Fs1 
	BYTE		N05     Cn2 
	BYTE	W06
	BYTE		        Fn1 
	BYTE		N05     Fs1 
	BYTE		N05     An1 
	BYTE	W06
	BYTE		N11     Cn1 
	BYTE		N11     Fs1 
	BYTE		N11     Cs2 
	BYTE	W12
	BYTE		N05     Fs1 
	BYTE	W06
	BYTE		N05   
	BYTE	W06
	BYTE		N11     Cn1 
	BYTE		N11     Dn1 
	BYTE		N11     Fs1 
	BYTE	W12
	BYTE		N11   
	BYTE	W12
	BYTE		        Cn1 
	BYTE		N11     Fs1 
	BYTE	W12
	BYTE		N05   
	BYTE	W06
	BYTE		N05   
	BYTE	W06
// 021   ----------------------------------------
DeadlySix_8_021:
	BYTE		N11     Cn1   v127
	BYTE		N11     Dn1 
	BYTE		N11     Fs1 
	BYTE		N11     Cs2 
	BYTE	W12
	BYTE		        Fs1 
	BYTE	W12
	BYTE		        Cn1 
	BYTE		N11     Fs1 
	BYTE	W12
	BYTE		N11   
	BYTE	W12
	BYTE		        Cn1 
	BYTE		N11     Dn1 
	BYTE		N11     Fs1 
	BYTE	W12
	BYTE		N11   
	BYTE	W12
	BYTE		        Cn1 
	BYTE		N11     Fs1 
	BYTE		N11     Cs2 
	BYTE	W12
	BYTE		N05     Fs1 
	BYTE	W06
	BYTE		N05   
	BYTE	W06
	BYTE	PEND
// 022   ----------------------------------------
	BYTE		N11     Cn1 
	BYTE		N05     Dn1 
	BYTE		N05     Fs1 
	BYTE	W06
	BYTE		N05   
	BYTE	W06
	BYTE		N05   
	BYTE	W06
	BYTE		N05   
	BYTE	W06
	BYTE		N11     Cn1 
	BYTE		N11     Fs1 
	BYTE		N11     Cs2 
	BYTE	W12
	BYTE		N05     Fs1 
	BYTE	W06
	BYTE		N05   
	BYTE	W06
	BYTE		N11     Cn1 
	BYTE		N11     Dn1 
	BYTE		N11     Fs1 
	BYTE	W12
	BYTE		N11   
	BYTE	W12
	BYTE		        Cn1 
	BYTE		N11     Fs1 
	BYTE	W12
	BYTE		N05   
	BYTE	W06
	BYTE		N05   
	BYTE	W06
// 023   ----------------------------------------
	BYTE	PATT
	 POIN2	DeadlySix_8_021
// 024   ----------------------------------------
	BYTE		N11     Cn1   v127
	BYTE		N05     Dn1 
	BYTE		N05     Fs1 
	BYTE	W06
	BYTE		N05   
	BYTE	W06
	BYTE		N05   
	BYTE	W06
	BYTE		N05   
	BYTE	W06
	BYTE		N32     Cn1 
	BYTE		N11     Fs1 
	BYTE	W12
	BYTE		N11   
	BYTE	W12
	BYTE		N11   
	BYTE	W12
	BYTE		        Cn1 
	BYTE		N11     Fs1 
	BYTE	W12
	BYTE		N05     Cn1 
	BYTE		N05     Fs1 
	BYTE	W06
	BYTE		        Cn1 
	BYTE		N05     Fs1 
	BYTE	W06
	BYTE		N23     Cn1 
	BYTE		N11     Fs1 
	BYTE	W12
// 025   ----------------------------------------
	BYTE		N11   
	BYTE	W12
	BYTE		        Cn1 
	BYTE		N11     Fs1 
	BYTE	W12
	BYTE		N32     Cn1 
	BYTE		N11     Fs1 
	BYTE	W12
	BYTE		N11   
	BYTE	W12
	BYTE		N11   
	BYTE	W12
	BYTE		        Cn1 
	BYTE		N11     Fs1 
	BYTE	W12
	BYTE		        Cn1 
	BYTE		N05     Fs1 
	BYTE	W06
	BYTE		N05   
	BYTE	W06
	BYTE		N11     Cn1 
	BYTE		N11     Fs1 
	BYTE	W12
// 026   ----------------------------------------
	BYTE		N05     Cn1 
	BYTE		N11     Fs1 
	BYTE	W06
	BYTE		N05     Cn1 
	BYTE	W06
	BYTE		N05   
	BYTE		N05     Fs1 
	BYTE	W06
	BYTE		        Cn1 
	BYTE		N05     Fs1 
	BYTE	W06
	BYTE		N23     Cn1 
	BYTE		N17     Fs1 
	BYTE	W18
	BYTE		N05   
	BYTE	W06
	BYTE		N17     Cn1 
	BYTE		N23     Dn1 
	BYTE		N17     Fs1 
	BYTE	W18
	BYTE		N05     Cn1 
	BYTE		N05     Fs1 
	BYTE	W06
	BYTE		N11     Cn1 
	BYTE		N05     Fs1 
	BYTE	W06
	BYTE		N05   
	BYTE	W06
	BYTE		N11     Cn1 
	BYTE		N05     Fs1 
	BYTE	W06
	BYTE		N05   
	BYTE	W06
// 027   ----------------------------------------
	BYTE		N23     Cn1 
	BYTE		N23     Dn1 
	BYTE		N05     Fs1 
	BYTE	W06
	BYTE		N11   
	BYTE	W12
	BYTE		N05   
	BYTE	W06
	BYTE		N23     Cn1 
	BYTE		N11     Dn1 
	BYTE		N23     As1 
	BYTE		N23     Ds2 
	BYTE	W12
	BYTE		N05     Dn1 
	BYTE	W06
	BYTE		N11   
	BYTE	W06
	BYTE		N23     Cn1 
	BYTE		N23     As1 
	BYTE		N23     Ds2 
	BYTE	W06
	BYTE		N05     Dn1 
	BYTE	W06
	BYTE		        Dn2 
	BYTE	W06
	BYTE		N05   
	BYTE	W06
	BYTE		N23     Cn1 
	BYTE		N23     As1 
	BYTE		N05     Cn2 
	BYTE		N23     Ds2 
	BYTE	W06
	BYTE		N05     Cn2 
	BYTE	W06
	BYTE		        Bn1 
	BYTE	W06
	BYTE		N05   
	BYTE	W06
// 028   ----------------------------------------
	BYTE		N23     Cn1 
	BYTE		N05     An1 
	BYTE		N23     As1 
	BYTE		N23     Ds2 
	BYTE	W06
	BYTE		N05     An1 
	BYTE	W06
	BYTE		        Fn1 
	BYTE	W06
	BYTE		N05   
	BYTE	W06
	BYTE		N32     Cn1 
	BYTE		N11     Fs1 
	BYTE		N92     Cs2 
	BYTE		N92     Ds2 
	BYTE		N92     An2 
	BYTE	W12
	BYTE		N11     Fs1 
	BYTE	W12
	BYTE		N23     Dn1 
	BYTE		N11     Fs1 
	BYTE	W12
	BYTE		N23     Cn1 
	BYTE		N11     Fs1 
	BYTE	W12
	BYTE		N11   
	BYTE	W12
	BYTE		        Cn1 
	BYTE		N05     Fs1 
	BYTE	W06
	BYTE		N05   
	BYTE	W06
// 029   ----------------------------------------
DeadlySix_8_029:
	BYTE		N23     Cn1   v127
	BYTE		N23     Dn1 
	BYTE		N11     Fs1 
	BYTE	W12
	BYTE		N11   
	BYTE	W12
	BYTE		N32     Cn1 
	BYTE		N11     Fs1 
	BYTE	W12
	BYTE		N11   
	BYTE	W12
	BYTE		N23     Dn1 
	BYTE		N11     Fs1 
	BYTE	W12
	BYTE		N23     Cn1 
	BYTE		N11     Fs1 
	BYTE	W12
	BYTE		N11   
	BYTE	W12
	BYTE		        Cn1 
	BYTE		N05     Fs1 
	BYTE	W06
	BYTE		N05   
	BYTE	W06
	BYTE	PEND
// 030   ----------------------------------------
DeadlySix_8_030:
	BYTE		N23     Cn1   v127
	BYTE		N23     Dn1 
	BYTE		N11     Fs1 
	BYTE	W12
	BYTE		N11   
	BYTE	W12
	BYTE		N32     Cn1 
	BYTE		N11     Fs1 
	BYTE	W12
	BYTE		N11   
	BYTE	W12
	BYTE		N23     Dn1 
	BYTE		N11     Fs1 
	BYTE	W12
	BYTE		N23     Cn1 
	BYTE		N05     Fs1 
	BYTE	W06
	BYTE		N05   
	BYTE	W06
	BYTE		N05   
	BYTE	W06
	BYTE		N05   
	BYTE	W06
	BYTE		N11     Cn1 
	BYTE		N11     Fs1 
	BYTE	W12
	BYTE	PEND
// 031   ----------------------------------------
	BYTE	PATT
	 POIN2	DeadlySix_8_029
// 032   ----------------------------------------
	BYTE		N23     Cn1   v127
	BYTE		N23     Dn1 
	BYTE		N11     Fs1 
	BYTE	W12
	BYTE		N11   
	BYTE	W12
	BYTE		N32     Cn1 
	BYTE		N11     Fs1 
	BYTE		N11     Cs2 
	BYTE	W12
	BYTE		        Fs1 
	BYTE	W12
	BYTE		N23     Dn1 
	BYTE		N11     Fs1 
	BYTE	W12
	BYTE		N23     Cn1 
	BYTE		N05     Fs1 
	BYTE	W06
	BYTE		N05   
	BYTE	W06
	BYTE		N05   
	BYTE	W06
	BYTE		N05   
	BYTE	W06
	BYTE		N11     Cn1 
	BYTE		N11     Fs1 
	BYTE	W12
// 033   ----------------------------------------
	BYTE	PATT
	 POIN2	DeadlySix_8_030
// 034   ----------------------------------------
	BYTE		N23     Cn1   v127
	BYTE		N23     Dn1 
	BYTE		N11     Fs1 
	BYTE	W12
	BYTE		N11   
	BYTE	W12
	BYTE		N32     Cn1 
	BYTE		N11     Fs1 
	BYTE		N11     Cs2 
	BYTE	W12
	BYTE		        Fs1 
	BYTE	W12
	BYTE		N23     Dn1 
	BYTE		N11     Fs1 
	BYTE	W12
	BYTE		N23     Cn1 
	BYTE		N05     Fs1 
	BYTE	W06
	BYTE		N05   
	BYTE	W06
	BYTE		N05   
	BYTE		N05     Cs2 
	BYTE	W06
	BYTE		        Fs1 
	BYTE	W06
	BYTE		N11     Cn1 
	BYTE		N11     Fs1 
	BYTE	W12
// 035   ----------------------------------------
	BYTE		N23     Cn1 
	BYTE		N23     Dn1 
	BYTE		N11     Fs1 
	BYTE	W12
	BYTE		N11   
	BYTE	W12
	BYTE		N15     Cn1 
	BYTE		N11     Dn1 
	BYTE		N23     Cs2 
	BYTE	W12
	BYTE		N05     Dn1 
	BYTE	W04
	BYTE		N15     Cn1 
	BYTE	W02
	BYTE		N11     Dn1 
	BYTE	W06
	BYTE		N23     Cs2 
	BYTE	W06
	BYTE		N11     Dn1 
	BYTE	W02
	BYTE		N15     Cn1 
	BYTE	W10
	BYTE		N05     Dn2 
	BYTE	W06
	BYTE		N11     Cn1 
	BYTE		N23     Cs2 
	BYTE		N05     Dn2 
	BYTE	W06
	BYTE		N05   
	BYTE	W06
	BYTE		        Cn1 
	BYTE		N05     Dn2 
	BYTE	W06
	BYTE		        Cn1 
	BYTE		N05     Cn2 
	BYTE	W06
// 036   ----------------------------------------
	BYTE		N23     Cn1 
	BYTE		N05     Cn2 
	BYTE		N23     Cs2 
	BYTE	W06
	BYTE		N05     Bn1 
	BYTE	W06
	BYTE		        An1 
	BYTE	W06
	BYTE		        Fn1 
	BYTE	W06
	BYTE		N11     Cn1 
	BYTE		N11     Fs1 
	BYTE		N11     Cs2 
	BYTE	W12
	BYTE		        Cn1 
	BYTE		N05     Fs1 
	BYTE	W06
	BYTE		N05   
	BYTE	W06
	BYTE		N23     Dn1 
	BYTE		N11     Fs1 
	BYTE	W12
	BYTE		N11   
	BYTE	W12
	BYTE		N17     Dn1 
	BYTE		N11     Fs1 
	BYTE	W12
	BYTE		N11   
	BYTE	W06
	BYTE		N05     Dn1 
	BYTE	W06
// 037   ----------------------------------------
DeadlySix_8_037:
	BYTE		N11     Cn1   v127
	BYTE		N11     Fs1 
	BYTE		N11     Gn2 
	BYTE	W12
	BYTE		        Cn1 
	BYTE		N05     Fs1 
	BYTE	W06
	BYTE		N05   
	BYTE	W06
	BYTE		N23     Dn1 
	BYTE		N11     Fs1 
	BYTE	W12
	BYTE		N11   
	BYTE	W12
	BYTE		N17     Dn1 
	BYTE		N11     Fs1 
	BYTE	W12
	BYTE		N11   
	BYTE	W06
	BYTE		N05     Dn1 
	BYTE	W06
	BYTE		N17     Cn1 
	BYTE		N17     Dn1 
	BYTE		N11     Fs1 
	BYTE		N17     Dn2 
	BYTE		N11     Gn2 
	BYTE	W12
	BYTE		N05     Fs1 
	BYTE	W06
	BYTE		        Cn1 
	BYTE		N05     Dn1 
	BYTE		N05     Fs1 
	BYTE		N05     Dn2 
	BYTE	W06
	BYTE	PEND
// 038   ----------------------------------------
DeadlySix_8_038:
	BYTE		N11     Cn1   v127
	BYTE		N11     Dn1 
	BYTE		N11     Fs1 
	BYTE		N11     Cn2 
	BYTE		N11     Gn2 
	BYTE	W12
	BYTE		        Cn1 
	BYTE		N11     Dn1 
	BYTE		N11     Fs1 
	BYTE		N11     An1 
	BYTE	W12
	BYTE		        Cn1 
	BYTE		N11     Fs1 
	BYTE		N11     An2 
	BYTE	W12
	BYTE		        Cn1 
	BYTE		N05     Fs1 
	BYTE	W06
	BYTE		N05   
	BYTE	W06
	BYTE		N23     Dn1 
	BYTE		N11     Fs1 
	BYTE	W12
	BYTE		N11   
	BYTE	W12
	BYTE		N17     Dn1 
	BYTE		N11     Fs1 
	BYTE	W12
	BYTE		N11   
	BYTE	W06
	BYTE		N05     Dn1 
	BYTE	W06
	BYTE	PEND
// 039   ----------------------------------------
	BYTE	PATT
	 POIN2	DeadlySix_8_037
// 040   ----------------------------------------
	BYTE	PATT
	 POIN2	DeadlySix_8_038
// 041   ----------------------------------------
	BYTE	PATT
	 POIN2	DeadlySix_8_037
// 042   ----------------------------------------
	BYTE		N11     Cn1   v127
	BYTE		N11     Dn1 
	BYTE		N11     Fs1 
	BYTE		N11     Cn2 
	BYTE		N11     Gn2 
	BYTE	W12
	BYTE		        Cn1 
	BYTE		N11     Dn1 
	BYTE		N11     Fs1 
	BYTE		N11     An1 
	BYTE	W12
	BYTE		        Cn1 
	BYTE		N11     Dn1 
	BYTE		N11     Fs1 
	BYTE		N11     An2 
	BYTE	W12
	BYTE		        Cn1 
	BYTE		N05     Dn1 
	BYTE		N05     Fs1 
	BYTE	W06
	BYTE		        Dn1 
	BYTE		N05     Fs1 
	BYTE	W06
	BYTE		N11     Dn1 
	BYTE	W12
	BYTE		N11   
	BYTE	W12
	BYTE		N11   
	BYTE		N11     Cn2 
	BYTE	W12
	BYTE		        Cn1 
	BYTE	W12
// 043   ----------------------------------------
	BYTE		        An1 
	BYTE	W12
	BYTE		        Cn2 
	BYTE	W12
	BYTE		        Dn2 
	BYTE	W12
	BYTE		        Bn1 
	BYTE	W12
	BYTE		        Dn2 
	BYTE	W12
	BYTE		        Cn2 
	BYTE	W12
	BYTE		        Bn1 
	BYTE	W12
	BYTE		N11   
	BYTE	W12
// 044   ----------------------------------------
	BYTE		        An1 
	BYTE	W12
	BYTE		        Fn1 
	BYTE	W12
	BYTE		N05     Dn1 
	BYTE	W06
	BYTE		N05   
	BYTE	W06
	BYTE		N05   
	BYTE	W06
	BYTE		N05   
	BYTE	W06
	BYTE		        Cs1 
	BYTE		N05     Dn1 
	BYTE	W12
	BYTE		        Cn2 
	BYTE	W06
	BYTE		N05   
	BYTE	W06
	BYTE		N11   
	BYTE	W12
	BYTE		        An1 
	BYTE	W12
// 045   ----------------------------------------
	BYTE		        Bn1 
	BYTE	W12
	BYTE		        Fn1 
	BYTE	W60
	BYTE	GoTo
	 POIN2	DeadlySix_8_B1
DeadlySix_8_B2:
	BYTE	FINE

//**************** Track 9 (Midi-Chn.11) ****************//

DeadlySix_9:
	BYTE	KEYSH   DeadlySix_key+0
// 000   ----------------------------------------
	BYTE		VOICE   48
	BYTE		VOL     76*DeadlySix_mvl/mxv
	BYTE		PAN     c_v+26
	BYTE	W96
// 001   ----------------------------------------
	BYTE	W96
// 002   ----------------------------------------
	BYTE	W96
// 003   ----------------------------------------
	BYTE	W96
// 004   ----------------------------------------
	BYTE	W24
DeadlySix_9_B1:
	BYTE	W72
// 005   ----------------------------------------
	BYTE	W96
// 006   ----------------------------------------
	BYTE	W96
// 007   ----------------------------------------
	BYTE	W96
// 008   ----------------------------------------
	BYTE	W96
// 009   ----------------------------------------
	BYTE	W96
// 010   ----------------------------------------
	BYTE	W96
// 011   ----------------------------------------
	BYTE	W96
// 012   ----------------------------------------
	BYTE	W96
// 013   ----------------------------------------
	BYTE	W96
// 014   ----------------------------------------
	BYTE		N02     Dn4   v127
	BYTE	W03
	BYTE		        Ds4 
	BYTE	W03
	BYTE		        En4 
	BYTE	W03
	BYTE		        Fn4 
	BYTE	W03
	BYTE		        Fs4 
	BYTE	W03
	BYTE		        Gn4 
	BYTE	W03
	BYTE		        Gs4 
	BYTE	W03
	BYTE		        An4 
	BYTE	W03
	BYTE		TIE     As4 
	BYTE	W72
// 015   ----------------------------------------
	BYTE	W92
	BYTE	W03
	BYTE		EOT   
	BYTE	W01
// 016   ----------------------------------------
	BYTE		N02   
	BYTE	W03
	BYTE		        An4 
	BYTE	W03
	BYTE		        Gs4 
	BYTE	W03
	BYTE		        Gn4 
	BYTE	W03
	BYTE		        Fs4 
	BYTE	W03
	BYTE		        Fn4 
	BYTE	W03
	BYTE		        En4 
	BYTE	W03
	BYTE		        Ds4 
	BYTE	W03
	BYTE		N92     Dn4 
	BYTE		N92     Dn5 
	BYTE	W72
// 017   ----------------------------------------
	BYTE	W24
	BYTE		        Bn4 
	BYTE		N92     Bn5 
	BYTE	W72
// 018   ----------------------------------------
	BYTE	W24
	BYTE		N11     Gn4 
	BYTE	W12
	BYTE		        Bn4 
	BYTE	W12
	BYTE		        Dn5 
	BYTE	W12
	BYTE		        Bn4 
	BYTE	W12
	BYTE		        Dn5 
	BYTE	W12
	BYTE		        Fn5 
	BYTE	W12
// 019   ----------------------------------------
	BYTE		        Dn5 
	BYTE	W12
	BYTE		        Fn5 
	BYTE	W12
	BYTE		        Gn5 
	BYTE	W12
	BYTE		        Ds5 
	BYTE	W12
	BYTE		        Dn5 
	BYTE	W12
	BYTE		N56     Cn5 
	BYTE	W36
// 020   ----------------------------------------
	BYTE	W24
	BYTE		N11     An4 
	BYTE		N11     An5 
	BYTE	W72
// 021   ----------------------------------------
	BYTE		        An4 
	BYTE		N11     An5 
	BYTE	W72
	BYTE		        An4 
	BYTE		N11     An5 
	BYTE	W24
// 022   ----------------------------------------
	BYTE	W24
	BYTE		        Cn5 
	BYTE		N11     Cn6 
	BYTE	W72
// 023   ----------------------------------------
	BYTE		        Cn5 
	BYTE		N11     Cn6 
	BYTE	W72
	BYTE		        Cn5 
	BYTE		N11     Cn6 
	BYTE	W24
// 024   ----------------------------------------
	BYTE	W24
	BYTE		        Fn3 
	BYTE	W12
	BYTE		        Gs3 
	BYTE	W12
	BYTE		        Cn4 
	BYTE	W12
	BYTE		        Dn4 
	BYTE	W12
	BYTE		        Ds4 
	BYTE	W12
	BYTE		        Dn4 
	BYTE	W12
// 025   ----------------------------------------
	BYTE		        Cn4 
	BYTE	W12
	BYTE		        Gs3 
	BYTE	W12
	BYTE		        Ds3 
	BYTE	W12
	BYTE		        Gs3 
	BYTE	W12
	BYTE		        Cn4 
	BYTE	W12
	BYTE		        Dn4 
	BYTE	W12
	BYTE		        Ds4 
	BYTE	W12
	BYTE		        Dn4 
	BYTE	W12
// 026   ----------------------------------------
	BYTE		        Ds4 
	BYTE	W12
	BYTE		        Fn4 
	BYTE	W12
	BYTE		N23     Gn4 
	BYTE	W24
	BYTE		        Cn5 
	BYTE	W24
	BYTE		N44     Bn4 
	BYTE	W24
// 027   ----------------------------------------
	BYTE	W36
	BYTE		N11     Gn4 
	BYTE	W12
	BYTE		        Fn4 
	BYTE	W12
	BYTE		        Gn4 
	BYTE	W12
	BYTE		        Ds4 
	BYTE	W12
	BYTE		        Gn4 
	BYTE	W12
// 028   ----------------------------------------
	BYTE		        Dn4 
	BYTE	W12
	BYTE		        Gn4 
	BYTE	W12
	BYTE		N44     Cn5   v112
	BYTE	W60
	BYTE		N23     Dn5 
	BYTE	W12
// 029   ----------------------------------------
	BYTE	W12
	BYTE		N11     Ds5 
	BYTE	W12
	BYTE		N15     Gn5 
	BYTE	W16
	BYTE		        Fn5 
	BYTE	W16
	BYTE		        Ds5 
	BYTE	W16
	BYTE		N23     Dn5 
	BYTE	W24
// 030   ----------------------------------------
	BYTE		        Gn4 
	BYTE	W24
	BYTE		N44     Gs4 
	BYTE	W60
	BYTE		N11     Ds4 
	BYTE	W12
// 031   ----------------------------------------
	BYTE		        Gs4 
	BYTE	W12
	BYTE		        Cn5 
	BYTE	W12
	BYTE		N32     Bn4 
	BYTE	W36
	BYTE		N05     Cn5 
	BYTE	W06
	BYTE		        Bn4 
	BYTE	W06
	BYTE		N44     Gn4 
	BYTE	W24
// 032   ----------------------------------------
	BYTE	W24
	BYTE		        Cn5 
	BYTE	W60
	BYTE		N23     Dn5 
	BYTE	W12
// 033   ----------------------------------------
	BYTE	W12
	BYTE		N11     Ds5 
	BYTE	W12
	BYTE		N15     Dn5 
	BYTE	W16
	BYTE		        Gn5 
	BYTE	W16
	BYTE		        Fn5 
	BYTE	W16
	BYTE		        Ds5 
	BYTE	W16
	BYTE		        Dn5 
	BYTE	W08
// 034   ----------------------------------------
	BYTE	W08
	BYTE		        Gn4 
	BYTE	W16
	BYTE		N44     Cn5 
	BYTE	W48
	BYTE		N23     Bn4 
	BYTE	W24
// 035   ----------------------------------------
	BYTE		        Dn5 
	BYTE	W24
	BYTE		N15     Cn5 
	BYTE	W16
	BYTE		        Ds5 
	BYTE	W16
	BYTE		        Fn5 
	BYTE	W16
	BYTE		N05     Cn6   v127
	BYTE	W06
	BYTE		N02     Bn5 
	BYTE	W03
	BYTE		        Gn5 
	BYTE	W03
	BYTE		N01     Fn5 
	BYTE	W01
	BYTE		        Ds5 
	BYTE	W02
	BYTE		N02     Dn5 
	BYTE	W03
	BYTE		N01     Cn5 
	BYTE	W01
	BYTE		N02     As4 
	BYTE	W03
	BYTE		N01     An4 
	BYTE	W02
// 036   ----------------------------------------
	BYTE		        Gn4 
	BYTE	W02
	BYTE		        Fn4 
	BYTE	W02
	BYTE		        En4 
	BYTE	W02
	BYTE		N02     Cn4 
	BYTE	W03
	BYTE		        An3 
	BYTE	W03
	BYTE		        Gn3 
	BYTE	W03
	BYTE		        Fn3 
	BYTE	W09
	BYTE		N11     Cn3 
	BYTE	W12
	BYTE		N11   
	BYTE	W12
	BYTE		        Cn4 
	BYTE	W12
	BYTE		        Bn3 
	BYTE	W12
	BYTE		N23     Cn4 
	BYTE	W24
// 037   ----------------------------------------
DeadlySix_9_037:
	BYTE	W12
	BYTE		N11     Cn3   v127
	BYTE	W12
	BYTE		        Cn4 
	BYTE	W12
	BYTE		        Bn3 
	BYTE	W12
	BYTE		        Cn4 
	BYTE	W24
	BYTE		        Ds4 
	BYTE	W12
	BYTE		        Dn4 
	BYTE	W12
	BYTE	PEND
// 038   ----------------------------------------
	BYTE		        Cn4 
	BYTE	W12
	BYTE		        Bn3 
	BYTE	W12
	BYTE		        Cn3 
	BYTE	W12
	BYTE		N11   
	BYTE	W12
	BYTE		        Cn4 
	BYTE	W12
	BYTE		        Bn3 
	BYTE	W12
	BYTE		N23     Cn4 
	BYTE	W24
// 039   ----------------------------------------
	BYTE	W12
	BYTE		N11     Cn3 
	BYTE	W12
	BYTE		        Cn4 
	BYTE	W12
	BYTE		        Bn3 
	BYTE	W12
	BYTE		        Cn4 
	BYTE	W24
	BYTE		        Gn4 
	BYTE	W12
	BYTE		        Gs4 
	BYTE	W12
// 040   ----------------------------------------
	BYTE		        Gn4 
	BYTE	W12
	BYTE		        Ds4 
	BYTE	W12
	BYTE		        Cn3 
	BYTE	W12
	BYTE		N11   
	BYTE	W12
	BYTE		        Cn4 
	BYTE	W12
	BYTE		        Bn3 
	BYTE	W12
	BYTE		N23     Cn4 
	BYTE	W24
// 041   ----------------------------------------
	BYTE	PATT
	 POIN2	DeadlySix_9_037
// 042   ----------------------------------------
	BYTE		N11     Cn4   v127
	BYTE	W12
	BYTE		        Bn3 
	BYTE	W12
	BYTE		        Cn4 
	BYTE	W12
	BYTE		N11   
	BYTE	W12
	BYTE		N11   
	BYTE	W12
	BYTE		        Bn3 
	BYTE	W12
	BYTE		        Cn4 
	BYTE	W24
// 043   ----------------------------------------
	BYTE		        Ds4 
	BYTE	W12
	BYTE		        Dn4 
	BYTE	W12
	BYTE		        Ds4 
	BYTE	W24
	BYTE		        Gn4 
	BYTE	W12
	BYTE		        Fs4 
	BYTE	W12
	BYTE		        Gn4 
	BYTE	W12
	BYTE		        Cn5 
	BYTE	W12
// 044   ----------------------------------------
	BYTE		        Bn4 
	BYTE	W12
	BYTE		        Cn5 
	BYTE	W12
	BYTE		        Ds5 
	BYTE	W12
	BYTE		        Dn5 
	BYTE	W12
	BYTE		        Ds5 
	BYTE	W12
	BYTE		        Gn5 
	BYTE	W12
	BYTE		        Fs5 
	BYTE	W12
	BYTE		        Gn5 
	BYTE	W12
// 045   ----------------------------------------
	BYTE		        Cn6 
	BYTE	W12
	BYTE		        Bn5 
	BYTE	W12
	BYTE		        Gn4 
	BYTE	W12
	BYTE		        Cn5 
	BYTE	W12
	BYTE		N05     As4 
	BYTE	W06
	BYTE		        Gn4 
	BYTE	W06
	BYTE		        Ds4 
	BYTE	W06
	BYTE		        As3 
	BYTE	W06
	BYTE	GoTo
	 POIN2	DeadlySix_9_B1
DeadlySix_9_B2:
	BYTE	FINE

//**************** Track 10 (Midi-Chn.13) ****************//

DeadlySix_10:
	BYTE	KEYSH   DeadlySix_key+0
// 000   ----------------------------------------
	BYTE		VOICE   60
	BYTE		PAN     c_v+41
	BYTE		VOL     86*DeadlySix_mvl/mxv
	BYTE	W24
	BYTE		N11     Cn3   v127
	BYTE	W12
	BYTE		        Dn3 
	BYTE	W12
	BYTE		        Ds3 
	BYTE	W12
	BYTE		        Gn3 
	BYTE	W12
	BYTE		N23     Fs3 
	BYTE	W24
// 001   ----------------------------------------
	BYTE		        Dn3 
	BYTE	W24
	BYTE		        Fn3 
	BYTE	W24
	BYTE		        Ds3 
	BYTE	W24
	BYTE		        Cn3 
	BYTE	W24
// 002   ----------------------------------------
	BYTE		        Gs2 
	BYTE	W24
	BYTE		N05     Gn2 
	BYTE	W06
	BYTE		        Fs2 
	BYTE	W06
	BYTE		        Gn2 
	BYTE	W24
	BYTE		N05   
	BYTE	W06
	BYTE		        Fs2 
	BYTE	W06
	BYTE		        Gn2 
	BYTE	W24
// 003   ----------------------------------------
	BYTE		N23     Gs2 
	BYTE	W24
	BYTE		N05     Gn2 
	BYTE	W06
	BYTE		        Fs2 
	BYTE	W06
	BYTE		        Gn2 
	BYTE	W60
// 004   ----------------------------------------
	BYTE	W24
DeadlySix_10_B1:
	BYTE		N11     Cn3   v096
	BYTE	W12
	BYTE		        Dn3 
	BYTE	W12
	BYTE		        Ds3 
	BYTE	W12
	BYTE		        Dn3 
	BYTE	W24
	BYTE		        Cn3 
	BYTE	W12
// 005   ----------------------------------------
DeadlySix_10_005:
	BYTE		N11     Ds3   v096
	BYTE	W12
	BYTE		        Cn3 
	BYTE	W12
	BYTE		        Gn3 
	BYTE	W12
	BYTE		N80     Fs3 
	BYTE	W60
	BYTE	PEND
// 006   ----------------------------------------
DeadlySix_10_006:
	BYTE	W24
	BYTE		N11     Cn3   v096
	BYTE	W12
	BYTE		        Dn3 
	BYTE	W12
	BYTE		        Ds3 
	BYTE	W12
	BYTE		        Dn3 
	BYTE	W24
	BYTE		        Cn3 
	BYTE	W12
	BYTE	PEND
// 007   ----------------------------------------
DeadlySix_10_007:
	BYTE		N11     Ds3   v096
	BYTE	W12
	BYTE		        Cn3 
	BYTE	W12
	BYTE		        Gn3 
	BYTE	W12
	BYTE		N80     Gs3 
	BYTE	W60
	BYTE	PEND
// 008   ----------------------------------------
	BYTE	PATT
	 POIN2	DeadlySix_10_006
// 009   ----------------------------------------
	BYTE	PATT
	 POIN2	DeadlySix_10_005
// 010   ----------------------------------------
	BYTE	W24
	BYTE		N11     Gn3   v096
	BYTE	W12
	BYTE		N11   
	BYTE	W12
	BYTE		        Bn3 
	BYTE	W12
	BYTE		N11   
	BYTE	W12
	BYTE		        Dn4 
	BYTE	W12
	BYTE		N11   
	BYTE	W12
// 011   ----------------------------------------
	BYTE		        Fn4 
	BYTE	W12
	BYTE		N11   
	BYTE	W12
	BYTE		        Gn4 
	BYTE	W12
	BYTE		        Dn4 
	BYTE	W12
	BYTE		        Bn3 
	BYTE	W12
	BYTE		N23     Fn4 
	BYTE	W24
	BYTE		N11     Ds4 
	BYTE	W12
// 012   ----------------------------------------
	BYTE		        Dn4 
	BYTE	W12
	BYTE		        Cn4 
	BYTE	W12
	BYTE		        Cn3 
	BYTE	W12
	BYTE		        Dn3 
	BYTE	W12
	BYTE		        Ds3 
	BYTE	W12
	BYTE		        Dn3 
	BYTE	W24
	BYTE		        Cn3 
	BYTE	W12
// 013   ----------------------------------------
	BYTE	PATT
	 POIN2	DeadlySix_10_005
// 014   ----------------------------------------
	BYTE	PATT
	 POIN2	DeadlySix_10_006
// 015   ----------------------------------------
	BYTE	PATT
	 POIN2	DeadlySix_10_007
// 016   ----------------------------------------
	BYTE	PATT
	 POIN2	DeadlySix_10_006
// 017   ----------------------------------------
	BYTE		N11     Ds3   v096
	BYTE	W12
	BYTE		        Cn3 
	BYTE	W12
	BYTE		        Gn3 
	BYTE		N11     Cn4 
	BYTE	W12
	BYTE		        Fs3 
	BYTE		N80     Bn3 
	BYTE	W12
	BYTE		N68     Fs3 
	BYTE	W48
// 018   ----------------------------------------
	BYTE	W24
	BYTE		N11     Gn3 
	BYTE	W12
	BYTE		        Bn3 
	BYTE	W12
	BYTE		        Dn4 
	BYTE	W12
	BYTE		        Bn3 
	BYTE	W12
	BYTE		        Dn4 
	BYTE	W12
	BYTE		        Fn4 
	BYTE	W12
// 019   ----------------------------------------
	BYTE		        Dn4 
	BYTE	W12
	BYTE		        Fn4 
	BYTE	W12
	BYTE		        Gn4 
	BYTE	W12
	BYTE		        Ds4 
	BYTE	W12
	BYTE		        Dn4 
	BYTE	W12
	BYTE		N56     Cn4 
	BYTE	W36
// 020   ----------------------------------------
	BYTE	W24
	BYTE		N11     An2 
	BYTE	W12
	BYTE		        Dn3   v127
	BYTE	W12
	BYTE		        En3 
	BYTE	W12
	BYTE		        Fn3 
	BYTE	W12
	BYTE		N56     En3 
	BYTE	W24
// 021   ----------------------------------------
	BYTE	W36
	BYTE		N05   
	BYTE	W06
	BYTE		        Fn3 
	BYTE	W06
	BYTE		N11     En3 
	BYTE	W12
	BYTE		        Dn3 
	BYTE	W12
	BYTE		N44     En3 
	BYTE	W24
// 022   ----------------------------------------
	BYTE	W24
	BYTE		N11     Cn3 
	BYTE	W12
	BYTE		        Dn3 
	BYTE	W12
	BYTE		        Ds3 
	BYTE	W12
	BYTE		        Fn3 
	BYTE	W12
	BYTE		N56     Gn3 
	BYTE	W24
// 023   ----------------------------------------
	BYTE	W36
	BYTE		N05   
	BYTE	W06
	BYTE		        Gs3 
	BYTE	W06
	BYTE		N11     Gn3 
	BYTE	W12
	BYTE		        Fn3 
	BYTE	W12
	BYTE		N44     Gn3 
	BYTE	W24
// 024   ----------------------------------------
	BYTE	W24
	BYTE		N11     Fn3 
	BYTE	W12
	BYTE		        Gs3 
	BYTE	W12
	BYTE		        Cn4 
	BYTE	W12
	BYTE		        Dn4 
	BYTE	W12
	BYTE		        Ds4 
	BYTE	W12
	BYTE		        Dn4 
	BYTE	W12
// 025   ----------------------------------------
	BYTE		        Cn4 
	BYTE	W12
	BYTE		        Gs3 
	BYTE	W12
	BYTE		        Ds3 
	BYTE	W12
	BYTE		        Gs3 
	BYTE	W12
	BYTE		        Cn4 
	BYTE	W12
	BYTE		        Dn4 
	BYTE	W12
	BYTE		        Ds4 
	BYTE	W12
	BYTE		        Dn4 
	BYTE	W12
// 026   ----------------------------------------
	BYTE		        Ds4 
	BYTE	W12
	BYTE		        Fn4 
	BYTE	W12
	BYTE		N23     Gn4 
	BYTE	W24
	BYTE		        Cn5 
	BYTE	W24
	BYTE		N44     Bn4 
	BYTE	W24
// 027   ----------------------------------------
	BYTE	W36
	BYTE		N11     Gn4 
	BYTE	W12
	BYTE		        Fn4 
	BYTE	W12
	BYTE		        Gn4 
	BYTE	W12
	BYTE		        Ds4 
	BYTE	W12
	BYTE		        Gn4 
	BYTE	W12
// 028   ----------------------------------------
	BYTE		        Dn4 
	BYTE	W12
	BYTE		        Gn4 
	BYTE	W12
	BYTE		N44     Cn4 
	BYTE	W60
	BYTE		N23     Dn4 
	BYTE	W12
// 029   ----------------------------------------
	BYTE	W12
	BYTE		N11     Ds4 
	BYTE	W12
	BYTE		N15     Gn4 
	BYTE	W16
	BYTE		        Fn4 
	BYTE	W16
	BYTE		        Ds4 
	BYTE	W16
	BYTE		N23     Dn4 
	BYTE	W24
// 030   ----------------------------------------
	BYTE		        Gn3 
	BYTE	W24
	BYTE		N44     Gs3 
	BYTE	W60
	BYTE		N11     Ds3 
	BYTE	W12
// 031   ----------------------------------------
	BYTE		        Gs3 
	BYTE	W12
	BYTE		        Cn4 
	BYTE	W12
	BYTE		N32     Bn3 
	BYTE	W36
	BYTE		N05     Cn4 
	BYTE	W06
	BYTE		        Bn3 
	BYTE	W06
	BYTE		N44     Gn3 
	BYTE	W24
// 032   ----------------------------------------
	BYTE	W24
	BYTE		        Cn4 
	BYTE	W60
	BYTE		N23     Dn4 
	BYTE	W12
// 033   ----------------------------------------
	BYTE	W12
	BYTE		N11     Ds4 
	BYTE	W12
	BYTE		N15     Dn4 
	BYTE	W16
	BYTE		        Gn4 
	BYTE	W16
	BYTE		        Fn4 
	BYTE	W16
	BYTE		        Ds4 
	BYTE	W16
	BYTE		        Dn4 
	BYTE	W08
// 034   ----------------------------------------
	BYTE	W08
	BYTE		        Gn3 
	BYTE	W16
	BYTE		N44     Cn4 
	BYTE	W48
	BYTE		N23     Bn3 
	BYTE	W24
// 035   ----------------------------------------
	BYTE		        Dn4 
	BYTE	W24
	BYTE		N15     Cn4 
	BYTE	W16
	BYTE		        Ds4 
	BYTE	W16
	BYTE		        Fn4 
	BYTE	W16
	BYTE		N05     Cn5 
	BYTE	W06
	BYTE		N02     Bn4 
	BYTE	W03
	BYTE		        Gn4 
	BYTE	W03
	BYTE		N01     Fn4 
	BYTE	W01
	BYTE		        Ds4 
	BYTE	W02
	BYTE		N02     Dn4 
	BYTE	W03
	BYTE		N01     Cn4 
	BYTE	W01
	BYTE		N02     As3 
	BYTE	W03
	BYTE		N01     An3 
	BYTE	W02
// 036   ----------------------------------------
	BYTE		        Gn3 
	BYTE	W02
	BYTE		        Fn3 
	BYTE	W02
	BYTE		        En3 
	BYTE	W02
	BYTE		N02     Cn3 
	BYTE	W03
	BYTE		        An2 
	BYTE	W03
	BYTE		        Gn2 
	BYTE	W03
	BYTE		        Fn2 
	BYTE	W80
	BYTE	W01
// 037   ----------------------------------------
	BYTE	W96
// 038   ----------------------------------------
	BYTE	W96
// 039   ----------------------------------------
	BYTE	W96
// 040   ----------------------------------------
	BYTE	W96
// 041   ----------------------------------------
	BYTE	W96
// 042   ----------------------------------------
	BYTE	W96
// 043   ----------------------------------------
	BYTE	W96
// 044   ----------------------------------------
	BYTE	W96
// 045   ----------------------------------------
	BYTE	W72
	BYTE	GoTo
	 POIN2	DeadlySix_10_B1
DeadlySix_10_B2:
	BYTE	FINE

//**************** Track 11 (Midi-Chn.14) ****************//

DeadlySix_11:
	BYTE	KEYSH   DeadlySix_key+0
// 000   ----------------------------------------
	BYTE		VOICE   60
	BYTE		PAN     c_v-42
	BYTE		VOL     88*DeadlySix_mvl/mxv
	BYTE	W96
// 001   ----------------------------------------
	BYTE	W96
// 002   ----------------------------------------
	BYTE	W96
// 003   ----------------------------------------
	BYTE	W96
// 004   ----------------------------------------
	BYTE	W24
DeadlySix_11_B1:
	BYTE	W72
// 005   ----------------------------------------
	BYTE	W96
// 006   ----------------------------------------
	BYTE	W96
// 007   ----------------------------------------
	BYTE	W96
// 008   ----------------------------------------
	BYTE	W96
// 009   ----------------------------------------
	BYTE	W96
// 010   ----------------------------------------
	BYTE	W96
// 011   ----------------------------------------
	BYTE	W96
// 012   ----------------------------------------
	BYTE	W96
// 013   ----------------------------------------
	BYTE	W96
// 014   ----------------------------------------
	BYTE	W96
// 015   ----------------------------------------
	BYTE	W96
// 016   ----------------------------------------
	BYTE	W96
// 017   ----------------------------------------
	BYTE	W96
// 018   ----------------------------------------
	BYTE	W96
// 019   ----------------------------------------
	BYTE	W96
// 020   ----------------------------------------
	BYTE	W96
// 021   ----------------------------------------
	BYTE	W96
// 022   ----------------------------------------
	BYTE	W96
// 023   ----------------------------------------
	BYTE	W96
// 024   ----------------------------------------
	BYTE	W24
	BYTE		N11     Fn2   v080
	BYTE	W12
	BYTE		        Gs2 
	BYTE	W12
	BYTE		        Cn3 
	BYTE	W12
	BYTE		        Dn3 
	BYTE	W12
	BYTE		        Ds3 
	BYTE	W12
	BYTE		        Dn3 
	BYTE	W12
// 025   ----------------------------------------
	BYTE		        Cn3 
	BYTE	W12
	BYTE		        Gs2 
	BYTE	W12
	BYTE		        Ds2 
	BYTE	W12
	BYTE		        Gs2 
	BYTE	W12
	BYTE		        Cn3 
	BYTE	W12
	BYTE		        Dn3 
	BYTE	W12
	BYTE		        Ds3 
	BYTE	W12
	BYTE		        Dn3 
	BYTE	W12
// 026   ----------------------------------------
	BYTE		        Ds3 
	BYTE	W12
	BYTE		        Fn3 
	BYTE	W12
	BYTE		N23     Gn3 
	BYTE	W24
	BYTE		        Cn4 
	BYTE	W24
	BYTE		N44     Bn3 
	BYTE	W24
// 027   ----------------------------------------
	BYTE	W36
	BYTE		N11     Gn3 
	BYTE	W12
	BYTE		        Fn3 
	BYTE	W12
	BYTE		        Gn3 
	BYTE	W12
	BYTE		        Ds3 
	BYTE	W12
	BYTE		        Gn3 
	BYTE	W12
// 028   ----------------------------------------
	BYTE		        Dn3 
	BYTE	W12
	BYTE		        Gn3 
	BYTE	W12
	BYTE		N44     Cn3 
	BYTE	W60
	BYTE		N23     Dn3 
	BYTE	W12
// 029   ----------------------------------------
	BYTE	W12
	BYTE		N11     Ds3 
	BYTE	W12
	BYTE		N15     Gn3 
	BYTE	W16
	BYTE		        Fn3 
	BYTE	W16
	BYTE		        Ds3 
	BYTE	W16
	BYTE		N23     Dn3 
	BYTE	W24
// 030   ----------------------------------------
	BYTE		        Gn2 
	BYTE	W24
	BYTE		N44     Gs2 
	BYTE	W60
	BYTE		N11     Ds2 
	BYTE	W12
// 031   ----------------------------------------
	BYTE		        Gs2 
	BYTE	W12
	BYTE		        Cn3 
	BYTE	W12
	BYTE		N32     Bn2 
	BYTE	W36
	BYTE		N05     Cn3 
	BYTE	W06
	BYTE		        Bn2 
	BYTE	W06
	BYTE		N44     Gn2 
	BYTE	W24
// 032   ----------------------------------------
	BYTE	W24
	BYTE		        Cn3 
	BYTE	W60
	BYTE		N23     Dn3 
	BYTE	W12
// 033   ----------------------------------------
	BYTE	W12
	BYTE		N11     Ds3 
	BYTE	W12
	BYTE		N15     Dn3 
	BYTE	W16
	BYTE		        Gn3 
	BYTE	W16
	BYTE		        Fn3 
	BYTE	W16
	BYTE		        Ds3 
	BYTE	W16
	BYTE		        Dn3 
	BYTE	W08
// 034   ----------------------------------------
	BYTE	W08
	BYTE		        Gn2 
	BYTE	W16
	BYTE		N44     Cn3 
	BYTE	W48
	BYTE		N23     Bn2 
	BYTE	W24
// 035   ----------------------------------------
	BYTE		        Dn3 
	BYTE	W24
	BYTE		N15     Cn3 
	BYTE	W16
	BYTE		        Ds3 
	BYTE	W16
	BYTE		        Fn3 
	BYTE	W16
	BYTE		N05     Cn4   v127
	BYTE	W06
	BYTE		N02     Bn3 
	BYTE	W03
	BYTE		        Gn3 
	BYTE	W03
	BYTE		N01     Fn3 
	BYTE	W01
	BYTE		        Ds3 
	BYTE	W02
	BYTE		N02     Dn3 
	BYTE	W03
	BYTE		N01     Cn3 
	BYTE	W01
	BYTE		N02     As2 
	BYTE	W03
	BYTE		N01     An2 
	BYTE	W02
// 036   ----------------------------------------
	BYTE		        Gn2 
	BYTE	W02
	BYTE		        Fn2 
	BYTE	W02
	BYTE		        En2 
	BYTE	W02
	BYTE		N02     Cn2 
	BYTE	W03
	BYTE		        An1 
	BYTE	W03
	BYTE		        Gn1 
	BYTE	W03
	BYTE		        Fn1 
	BYTE	W80
	BYTE	W01
// 037   ----------------------------------------
	BYTE	W96
// 038   ----------------------------------------
	BYTE	W96
// 039   ----------------------------------------
	BYTE	W96
// 040   ----------------------------------------
	BYTE	W96
// 041   ----------------------------------------
	BYTE	W96
// 042   ----------------------------------------
	BYTE	W96
// 043   ----------------------------------------
	BYTE	W96
// 044   ----------------------------------------
	BYTE	W96
// 045   ----------------------------------------
	BYTE	W72
	BYTE	GoTo
	 POIN2	DeadlySix_11_B1
DeadlySix_11_B2:
	BYTE	FINE

//**************** Track 12 (Midi-Chn.15) ****************//

DeadlySix_12:
	BYTE	KEYSH   DeadlySix_key+0
// 000   ----------------------------------------
	BYTE		VOICE   57
	BYTE		PAN     c_v+44
	BYTE		VOL     76*DeadlySix_mvl/mxv
	BYTE	W24
	BYTE		N11     Cn3   v080
	BYTE	W12
	BYTE		        Dn3   v112
	BYTE	W12
	BYTE		        Ds3 
	BYTE	W12
	BYTE		        Gn3 
	BYTE	W12
	BYTE		N23     Fs3 
	BYTE	W24
// 001   ----------------------------------------
	BYTE		        Dn3 
	BYTE	W24
	BYTE		        Fn3 
	BYTE	W24
	BYTE		        Ds3 
	BYTE	W24
	BYTE		        Cn3 
	BYTE	W24
// 002   ----------------------------------------
	BYTE		        Gs2 
	BYTE	W24
	BYTE		N05     Gn2 
	BYTE	W06
	BYTE		        Fs2 
	BYTE	W06
	BYTE		        Gn2 
	BYTE	W24
	BYTE		N05   
	BYTE	W06
	BYTE		        Fs2 
	BYTE	W06
	BYTE		        Gn2 
	BYTE	W24
// 003   ----------------------------------------
	BYTE		N23     Gs2 
	BYTE	W24
	BYTE		N05     Gn2 
	BYTE	W06
	BYTE		        Fs2 
	BYTE	W06
	BYTE		        Gn2 
	BYTE	W60
// 004   ----------------------------------------
	BYTE	W24
DeadlySix_12_B1:
	BYTE		N11     Cn3   v112
	BYTE	W12
	BYTE		        Dn3 
	BYTE	W12
	BYTE		        Ds3 
	BYTE	W12
	BYTE		        Dn3 
	BYTE	W24
	BYTE		        Cn3 
	BYTE	W12
// 005   ----------------------------------------
DeadlySix_12_005:
	BYTE		N11     Ds3   v112
	BYTE	W12
	BYTE		        Cn3 
	BYTE	W12
	BYTE		        Gn3 
	BYTE	W12
	BYTE		N80     Fs3 
	BYTE	W60
	BYTE	PEND
// 006   ----------------------------------------
DeadlySix_12_006:
	BYTE	W24
	BYTE		N11     Cn3   v112
	BYTE	W12
	BYTE		        Dn3 
	BYTE	W12
	BYTE		        Ds3 
	BYTE	W12
	BYTE		        Dn3 
	BYTE	W24
	BYTE		        Cn3 
	BYTE	W12
	BYTE	PEND
// 007   ----------------------------------------
DeadlySix_12_007:
	BYTE		N11     Ds3   v112
	BYTE	W12
	BYTE		        Cn3 
	BYTE	W12
	BYTE		        Gn3 
	BYTE	W12
	BYTE		N80     Gs3 
	BYTE	W60
	BYTE	PEND
// 008   ----------------------------------------
	BYTE	PATT
	 POIN2	DeadlySix_12_006
// 009   ----------------------------------------
	BYTE	PATT
	 POIN2	DeadlySix_12_005
// 010   ----------------------------------------
	BYTE	W24
	BYTE		N11     Gn3   v112
	BYTE	W12
	BYTE		N11   
	BYTE	W12
	BYTE		        Bn3 
	BYTE	W12
	BYTE		N11   
	BYTE	W12
	BYTE		        Dn4 
	BYTE	W12
	BYTE		N11   
	BYTE	W12
// 011   ----------------------------------------
	BYTE		        Fn4 
	BYTE	W12
	BYTE		N11   
	BYTE	W12
	BYTE		        Gn4 
	BYTE	W12
	BYTE		        Dn4 
	BYTE	W12
	BYTE		        Bn3 
	BYTE	W12
	BYTE		N23     Fn4 
	BYTE	W24
	BYTE		N11     Ds4 
	BYTE	W12
// 012   ----------------------------------------
	BYTE		        Dn4 
	BYTE	W12
	BYTE		        Cn4 
	BYTE	W12
	BYTE		        Cn3 
	BYTE	W12
	BYTE		        Dn3 
	BYTE	W12
	BYTE		        Ds3 
	BYTE	W12
	BYTE		        Dn3 
	BYTE	W24
	BYTE		        Cn3 
	BYTE	W12
// 013   ----------------------------------------
	BYTE	PATT
	 POIN2	DeadlySix_12_005
// 014   ----------------------------------------
	BYTE	PATT
	 POIN2	DeadlySix_12_006
// 015   ----------------------------------------
	BYTE	PATT
	 POIN2	DeadlySix_12_007
// 016   ----------------------------------------
	BYTE	PATT
	 POIN2	DeadlySix_12_006
// 017   ----------------------------------------
	BYTE		N11     Ds3   v112
	BYTE	W12
	BYTE		        Cn3 
	BYTE	W12
	BYTE		        Gn3 
	BYTE		N11     Cn4 
	BYTE	W12
	BYTE		        Fs3 
	BYTE		N80     Bn3 
	BYTE	W12
	BYTE		N68     Fs3 
	BYTE	W48
// 018   ----------------------------------------
	BYTE	W24
	BYTE		N11     Gn2 
	BYTE		N11     Gn3 
	BYTE	W12
	BYTE		        Bn2 
	BYTE		N11     Bn3 
	BYTE	W12
	BYTE		        Dn3 
	BYTE		N11     Dn4 
	BYTE	W12
	BYTE		        Bn2 
	BYTE		N11     Bn3 
	BYTE	W12
	BYTE		        Dn3 
	BYTE		N11     Dn4 
	BYTE	W12
	BYTE		        Fn3 
	BYTE		N11     Fn4 
	BYTE	W12
// 019   ----------------------------------------
	BYTE		        Dn3 
	BYTE		N11     Dn4 
	BYTE	W12
	BYTE		        Fn3 
	BYTE		N11     Fn4 
	BYTE	W12
	BYTE		        Gn3 
	BYTE		N11     Gn4 
	BYTE	W12
	BYTE		        Ds3 
	BYTE		N11     Ds4 
	BYTE	W12
	BYTE		        Dn3 
	BYTE		N11     Dn4 
	BYTE	W12
	BYTE		N56     Cn3 
	BYTE		N11     Cn4 
	BYTE	W12
	BYTE		N44   
	BYTE	W24
// 020   ----------------------------------------
	BYTE	W24
	BYTE		N11     An1 
	BYTE	W12
	BYTE		        Dn2 
	BYTE	W12
	BYTE		        En2 
	BYTE	W12
	BYTE		        Fn2 
	BYTE	W12
	BYTE		N56     En2 
	BYTE	W24
// 021   ----------------------------------------
	BYTE	W36
	BYTE		N05   
	BYTE	W06
	BYTE		        Fn2 
	BYTE	W06
	BYTE		N11     En2 
	BYTE	W12
	BYTE		        Dn2 
	BYTE	W12
	BYTE		N44     En2 
	BYTE	W24
// 022   ----------------------------------------
	BYTE	W24
	BYTE		N11     Cn2 
	BYTE	W12
	BYTE		        Dn2 
	BYTE	W12
	BYTE		        Ds2 
	BYTE	W12
	BYTE		        Fn2 
	BYTE	W12
	BYTE		N56     Gn2 
	BYTE	W24
// 023   ----------------------------------------
	BYTE	W36
	BYTE		N05   
	BYTE	W06
	BYTE		        Gs2 
	BYTE	W06
	BYTE		N11     Gn2 
	BYTE	W12
	BYTE		        Fn2 
	BYTE	W12
	BYTE		N44     Gn2 
	BYTE	W24
// 024   ----------------------------------------
	BYTE	W24
	BYTE		N23     Fn2 
	BYTE	W24
	BYTE		N23   
	BYTE	W24
	BYTE		N23   
	BYTE	W24
// 025   ----------------------------------------
	BYTE		N23   
	BYTE	W24
	BYTE		        Ds2 
	BYTE	W24
	BYTE		N23   
	BYTE	W24
	BYTE		N23   
	BYTE	W24
// 026   ----------------------------------------
	BYTE		N23   
	BYTE	W24
	BYTE		N92     Gn2 
	BYTE	W72
// 027   ----------------------------------------
	BYTE	W24
	BYTE		N44   
	BYTE	W48
	BYTE		N44   
	BYTE	W24
// 028   ----------------------------------------
DeadlySix_12_028:
	BYTE	W24
	BYTE		N44     Cn3   v112
	BYTE	W60
	BYTE		N23     Dn3 
	BYTE	W12
	BYTE	PEND
// 029   ----------------------------------------
	BYTE	W12
	BYTE		N11     Ds3 
	BYTE	W12
	BYTE		N15     Gn3 
	BYTE	W16
	BYTE		        Fn3 
	BYTE	W16
	BYTE		        Ds3 
	BYTE	W16
	BYTE		N23     Dn3 
	BYTE	W24
// 030   ----------------------------------------
	BYTE		        Gn2 
	BYTE	W24
	BYTE		N44     Gs2 
	BYTE	W60
	BYTE		N11     Ds2 
	BYTE	W12
// 031   ----------------------------------------
	BYTE		        Gs2 
	BYTE	W12
	BYTE		        Cn3 
	BYTE	W12
	BYTE		N32     Bn2 
	BYTE	W36
	BYTE		N05     Cn3 
	BYTE	W06
	BYTE		        Bn2 
	BYTE	W06
	BYTE		N44     Gn2 
	BYTE	W24
// 032   ----------------------------------------
	BYTE	PATT
	 POIN2	DeadlySix_12_028
// 033   ----------------------------------------
	BYTE	W12
	BYTE		N11     Ds3   v112
	BYTE	W12
	BYTE		N15     Dn3 
	BYTE	W16
	BYTE		        Gn3 
	BYTE	W16
	BYTE		        Fn3 
	BYTE	W16
	BYTE		        Ds3 
	BYTE	W16
	BYTE		        Dn3 
	BYTE	W08
// 034   ----------------------------------------
	BYTE	W08
	BYTE		        Gn2 
	BYTE	W16
	BYTE		N44     Cn3 
	BYTE	W48
	BYTE		N23     Bn2 
	BYTE	W24
// 035   ----------------------------------------
	BYTE		        Dn3 
	BYTE	W24
	BYTE		N15     Cn3 
	BYTE	W16
	BYTE		        Ds3 
	BYTE	W16
	BYTE		        Fn3 
	BYTE	W16
	BYTE		N05     Cn4   v127
	BYTE	W06
	BYTE		N02     Bn3 
	BYTE	W03
	BYTE		        Gn3 
	BYTE	W03
	BYTE		N01     Fn3 
	BYTE	W01
	BYTE		        Ds3 
	BYTE	W02
	BYTE		N02     Dn3 
	BYTE	W03
	BYTE		N01     Cn3 
	BYTE	W01
	BYTE		N02     As2 
	BYTE	W03
	BYTE		N01     An2 
	BYTE	W02
// 036   ----------------------------------------
	BYTE		        Gn2 
	BYTE	W02
	BYTE		        Fn2 
	BYTE	W02
	BYTE		        En2 
	BYTE	W02
	BYTE		N02     Cn2 
	BYTE	W03
	BYTE		        An1 
	BYTE	W03
	BYTE		        Gn1 
	BYTE	W03
	BYTE		        Fn1 
	BYTE	W09
	BYTE		N05     Cn1   v112
	BYTE		N05     Cn2 
	BYTE		N05     Cn3 
	BYTE	W12
	BYTE		        Cn1 
	BYTE		N05     Cn2 
	BYTE		N05     Cn3 
	BYTE	W60
// 037   ----------------------------------------
DeadlySix_12_037:
	BYTE		N05     Cn1   v112
	BYTE		N05     Cn2 
	BYTE		N05     Cn3 
	BYTE	W12
	BYTE		        Cn1 
	BYTE		N05     Cn2 
	BYTE		N05     Cn3 
	BYTE	W84
	BYTE	PEND
// 038   ----------------------------------------
DeadlySix_12_038:
	BYTE	W24
	BYTE		N05     Cn1   v112
	BYTE		N05     Cn2 
	BYTE		N05     Cn3 
	BYTE	W12
	BYTE		        Cn1 
	BYTE		N05     Cn2 
	BYTE		N05     Cn3 
	BYTE	W60
	BYTE	PEND
// 039   ----------------------------------------
	BYTE	PATT
	 POIN2	DeadlySix_12_037
// 040   ----------------------------------------
	BYTE	PATT
	 POIN2	DeadlySix_12_038
// 041   ----------------------------------------
	BYTE	PATT
	 POIN2	DeadlySix_12_037
// 042   ----------------------------------------
	BYTE	PATT
	 POIN2	DeadlySix_12_038
// 043   ----------------------------------------
	BYTE	W96
// 044   ----------------------------------------
	BYTE	W96
// 045   ----------------------------------------
	BYTE	W72
	BYTE	GoTo
	 POIN2	DeadlySix_12_B1
DeadlySix_12_B2:
	BYTE	FINE

//**************** Track 13 (Midi-Chn.16) ****************//

DeadlySix_13:
	BYTE	KEYSH   DeadlySix_key+0
// 000   ----------------------------------------
	BYTE		VOICE   57
	BYTE		PAN     c_v-42
	BYTE		VOL     78*DeadlySix_mvl/mxv
	BYTE	W96
// 001   ----------------------------------------
	BYTE	W96
// 002   ----------------------------------------
	BYTE	W96
// 003   ----------------------------------------
	BYTE	W96
// 004   ----------------------------------------
	BYTE	W24
DeadlySix_13_B1:
	BYTE	W72
// 005   ----------------------------------------
	BYTE	W96
// 006   ----------------------------------------
	BYTE	W96
// 007   ----------------------------------------
	BYTE	W96
// 008   ----------------------------------------
	BYTE	W96
// 009   ----------------------------------------
	BYTE	W96
// 010   ----------------------------------------
	BYTE	W96
// 011   ----------------------------------------
	BYTE	W96
// 012   ----------------------------------------
	BYTE	W96
// 013   ----------------------------------------
	BYTE	W96
// 014   ----------------------------------------
	BYTE	W96
// 015   ----------------------------------------
	BYTE	W96
// 016   ----------------------------------------
	BYTE	W96
// 017   ----------------------------------------
	BYTE	W96
// 018   ----------------------------------------
	BYTE	W96
// 019   ----------------------------------------
	BYTE	W96
// 020   ----------------------------------------
	BYTE	W24
	BYTE		N11     An1   v080
	BYTE		N11     An2 
	BYTE	W72
// 021   ----------------------------------------
	BYTE		        An1 
	BYTE		N11     An2 
	BYTE	W72
	BYTE		        An1 
	BYTE		N11     An2 
	BYTE	W24
// 022   ----------------------------------------
	BYTE	W24
	BYTE		        Cn2 
	BYTE		N11     Cn3 
	BYTE	W72
// 023   ----------------------------------------
	BYTE		        Cn2 
	BYTE		N11     Cn3 
	BYTE	W72
	BYTE		        Cn2 
	BYTE		N11     Cn3 
	BYTE	W24
// 024   ----------------------------------------
	BYTE	W24
	BYTE		N23     Fn2 
	BYTE	W24
	BYTE		N23   
	BYTE	W24
	BYTE		N23   
	BYTE	W24
// 025   ----------------------------------------
	BYTE		N23   
	BYTE	W24
	BYTE		        Ds2 
	BYTE	W24
	BYTE		N23   
	BYTE	W24
	BYTE		N23   
	BYTE	W24
// 026   ----------------------------------------
	BYTE		N23   
	BYTE	W24
	BYTE		N92     Gn2 
	BYTE	W72
// 027   ----------------------------------------
	BYTE	W24
	BYTE		N44   
	BYTE	W48
	BYTE		N44   
	BYTE	W24
// 028   ----------------------------------------
DeadlySix_13_028:
	BYTE	W24
	BYTE		N44     Cn3   v080
	BYTE	W60
	BYTE		N23     Dn3 
	BYTE	W12
	BYTE	PEND
// 029   ----------------------------------------
	BYTE	W12
	BYTE		N11     Ds3 
	BYTE	W12
	BYTE		N15     Gn3 
	BYTE	W16
	BYTE		        Fn3 
	BYTE	W16
	BYTE		        Ds3 
	BYTE	W16
	BYTE		N23     Dn3 
	BYTE	W24
// 030   ----------------------------------------
	BYTE		        Gn2 
	BYTE	W24
	BYTE		N44     Gs2 
	BYTE	W60
	BYTE		N11     Ds2 
	BYTE	W12
// 031   ----------------------------------------
	BYTE		        Gs2 
	BYTE	W12
	BYTE		        Cn3 
	BYTE	W12
	BYTE		N32     Bn2 
	BYTE	W36
	BYTE		N05     Cn3 
	BYTE	W06
	BYTE		        Bn2 
	BYTE	W06
	BYTE		N44     Gn2 
	BYTE	W24
// 032   ----------------------------------------
	BYTE	PATT
	 POIN2	DeadlySix_13_028
// 033   ----------------------------------------
	BYTE	W12
	BYTE		N11     Ds3   v080
	BYTE	W12
	BYTE		N15     Dn3 
	BYTE	W16
	BYTE		        Gn3 
	BYTE	W16
	BYTE		        Fn3 
	BYTE	W16
	BYTE		        Ds3 
	BYTE	W16
	BYTE		        Dn3 
	BYTE	W08
// 034   ----------------------------------------
	BYTE	W08
	BYTE		        Gn2 
	BYTE	W16
	BYTE		N44     Cn3 
	BYTE	W48
	BYTE		N23     Bn2 
	BYTE	W24
// 035   ----------------------------------------
	BYTE		        Dn3 
	BYTE	W24
	BYTE		N15     Cn3 
	BYTE	W16
	BYTE		        Ds3 
	BYTE	W16
	BYTE		        Fn3 
	BYTE	W16
	BYTE		N05     Cn4   v127
	BYTE	W06
	BYTE		N02     Bn3 
	BYTE	W03
	BYTE		        Gn3 
	BYTE	W03
	BYTE		N01     Fn3 
	BYTE	W01
	BYTE		        Ds3 
	BYTE	W02
	BYTE		N02     Dn3 
	BYTE	W03
	BYTE		N01     Cn3 
	BYTE	W01
	BYTE		N02     As2 
	BYTE	W03
	BYTE		N01     An2 
	BYTE	W02
// 036   ----------------------------------------
	BYTE		        Gn2 
	BYTE	W02
	BYTE		        Fn2 
	BYTE	W02
	BYTE		        En2 
	BYTE	W02
	BYTE		N02     Cn2 
	BYTE	W03
	BYTE		        An1 
	BYTE	W03
	BYTE		        Gn1 
	BYTE	W03
	BYTE		        Fn1 
	BYTE	W80
	BYTE	W01
// 037   ----------------------------------------
	BYTE	W96
// 038   ----------------------------------------
	BYTE	W96
// 039   ----------------------------------------
	BYTE	W96
// 040   ----------------------------------------
	BYTE	W96
// 041   ----------------------------------------
	BYTE	W96
// 042   ----------------------------------------
	BYTE	W96
// 043   ----------------------------------------
	BYTE	W96
// 044   ----------------------------------------
	BYTE	W96
// 045   ----------------------------------------
	BYTE	W72
	BYTE	GoTo
	 POIN2	DeadlySix_13_B1
DeadlySix_13_B2:
	BYTE	FINE

//******************************************************//
	ALIGN 4

DeadlySix:
	BYTE	13	// NumTrks
	BYTE	0	// NumBlks
	BYTE	DeadlySix_pri	// Priority
	BYTE	DeadlySix_rev	// Reverb.

	POIN2	DeadlySix_grp

	POIN2	DeadlySix_1
	POIN2	DeadlySix_2
	POIN2	DeadlySix_3
	POIN2	DeadlySix_4
	POIN2	DeadlySix_5
	POIN2	DeadlySix_6
	POIN2	DeadlySix_7
	POIN2	DeadlySix_8
	POIN2	DeadlySix_9
	POIN2	DeadlySix_10
	POIN2	DeadlySix_11
	POIN2	DeadlySix_12
	POIN2	DeadlySix_13

	
