//Event file generated from Sappy .s format.
	#include "MPlayDef.event"

	#define	Friends_grp  voicegroup000
	#define	Friends_pri  0
	#define	Friends_rev  0
	#define	Friends_mvl  85
	#define	Friends_key  0
	#define	Friends_tbs  1
	#define	Friends_exg  0
	#define	Friends_cmp  1

	// .rodata
	//	Friends
	ALIGN 4

//**************** Track 1 (Midi-Chn.1) ****************//

Friends_1:
	BYTE	KEYSH   Friends_key+0
Friends_1_B1:
// 000   ----------------------------------------
	BYTE	TEMPO   250*Friends_tbs/2
	BYTE		VOICE   75
	BYTE		VOL     80*Friends_mvl/mxv
	BYTE		PAN     c_v+0
	BYTE		N12     Cn5   v100
	BYTE	W24
	BYTE		N09     An5 
	BYTE	W12
	BYTE		N12     Gn5 
	BYTE	W24
	BYTE		N09     Fn5 
	BYTE	W12
// 001   ----------------------------------------
Friends_1_001:
	BYTE		N12     Cn6   v100
	BYTE	W24
	BYTE		N09     An5 
	BYTE	W12
	BYTE		N12     Gn5 
	BYTE	W24
	BYTE		N09     Fn5 
	BYTE	W12
	BYTE	PEND
// 002   ----------------------------------------
Friends_1_002:
	BYTE		N21     Gn5   v100
	BYTE	W36
	BYTE		N09   
	BYTE	W24
	BYTE		        Fn5 
	BYTE	W12
	BYTE	PEND
// 003   ----------------------------------------
	BYTE		N21     Gn5 
	BYTE	W72
// 004   ----------------------------------------
Friends_1_004:
	BYTE		N12     Cn5   v100
	BYTE	W24
	BYTE		N09     An5 
	BYTE	W12
	BYTE		N12     Gn5 
	BYTE	W24
	BYTE		N09     Fn5 
	BYTE	W12
	BYTE	PEND
// 005   ----------------------------------------
	BYTE	PATT
	 POIN2	Friends_1_001
// 006   ----------------------------------------
Friends_1_006:
	BYTE		N21     Gn5   v100
	BYTE	W36
	BYTE		N09   
	BYTE	W24
	BYTE		        An5 
	BYTE	W12
	BYTE	PEND
// 007   ----------------------------------------
Friends_1_007:
	BYTE		N24     Gn5   v100
	BYTE	W36
	BYTE		N09     An5 
	BYTE	W24
	BYTE		        Gn5 
	BYTE	W12
	BYTE	PEND
// 008   ----------------------------------------
Friends_1_008:
	BYTE		N21     Fn5   v100
	BYTE	W36
	BYTE		N09   
	BYTE	W24
	BYTE		        Gn5 
	BYTE	W12
	BYTE	PEND
// 009   ----------------------------------------
Friends_1_009:
	BYTE		N21     An5   v100
	BYTE	W36
	BYTE		N09     Gn5 
	BYTE	W24
	BYTE		        Fn5 
	BYTE	W12
	BYTE	PEND
// 010   ----------------------------------------
Friends_1_010:
	BYTE		N12     En5   v100
	BYTE	W24
	BYTE		N09     Fn5 
	BYTE	W12
	BYTE		N12     En5 
	BYTE	W24
	BYTE		N09     An4 
	BYTE	W12
	BYTE	PEND
// 011   ----------------------------------------
	BYTE		N36     Cn5 
	BYTE	W72
// 012   ----------------------------------------
Friends_1_012:
	BYTE		N09     An4   v100
	BYTE	W36
	BYTE		N09   
	BYTE	W24
	BYTE		        Gn4 
	BYTE	W12
	BYTE	PEND
// 013   ----------------------------------------
Friends_1_013:
	BYTE		N12     Gn4   v100
	BYTE	W24
	BYTE		N09     Dn5 
	BYTE	W12
	BYTE		N12     En5 
	BYTE	W24
	BYTE		N09     Fn5 
	BYTE	W12
	BYTE	PEND
// 014   ----------------------------------------
Friends_1_014:
	BYTE		N09     Gn5   v100
	BYTE	W24
	BYTE		N09   
	BYTE	W36
	BYTE		        An5 
	BYTE	W12
	BYTE	PEND
// 015   ----------------------------------------
Friends_1_015:
	BYTE		N12     Gn5   v100
	BYTE	W24
	BYTE		N09     Cn6 
	BYTE	W12
	BYTE		N12     An5 
	BYTE	W24
	BYTE		N09     Gn5 
	BYTE	W12
	BYTE	PEND
// 016   ----------------------------------------
	BYTE	PATT
	 POIN2	Friends_1_004
// 017   ----------------------------------------
	BYTE	PATT
	 POIN2	Friends_1_001
// 018   ----------------------------------------
	BYTE	PATT
	 POIN2	Friends_1_002
// 019   ----------------------------------------
	BYTE		N21     Gn5   v100
	BYTE	W72
// 020   ----------------------------------------
	BYTE	PATT
	 POIN2	Friends_1_004
// 021   ----------------------------------------
	BYTE	PATT
	 POIN2	Friends_1_001
// 022   ----------------------------------------
	BYTE	PATT
	 POIN2	Friends_1_006
// 023   ----------------------------------------
	BYTE	PATT
	 POIN2	Friends_1_007
// 024   ----------------------------------------
	BYTE	PATT
	 POIN2	Friends_1_008
// 025   ----------------------------------------
	BYTE	PATT
	 POIN2	Friends_1_009
// 026   ----------------------------------------
	BYTE	PATT
	 POIN2	Friends_1_010
// 027   ----------------------------------------
	BYTE		N36     Cn5   v100
	BYTE	W72
// 028   ----------------------------------------
	BYTE	PATT
	 POIN2	Friends_1_012
// 029   ----------------------------------------
	BYTE	PATT
	 POIN2	Friends_1_013
// 030   ----------------------------------------
	BYTE	PATT
	 POIN2	Friends_1_014
// 031   ----------------------------------------
	BYTE	PATT
	 POIN2	Friends_1_015
// 032   ----------------------------------------
	BYTE	PATT
	 POIN2	Friends_1_004
// 033   ----------------------------------------
	BYTE	PATT
	 POIN2	Friends_1_001
// 034   ----------------------------------------
	BYTE	PATT
	 POIN2	Friends_1_002
// 035   ----------------------------------------
	BYTE		N21     Gn5   v100
	BYTE	W72
// 036   ----------------------------------------
	BYTE	PATT
	 POIN2	Friends_1_004
// 037   ----------------------------------------
	BYTE	PATT
	 POIN2	Friends_1_001
// 038   ----------------------------------------
	BYTE	PATT
	 POIN2	Friends_1_006
// 039   ----------------------------------------
	BYTE	PATT
	 POIN2	Friends_1_007
// 040   ----------------------------------------
	BYTE	PATT
	 POIN2	Friends_1_008
// 041   ----------------------------------------
	BYTE	PATT
	 POIN2	Friends_1_009
// 042   ----------------------------------------
	BYTE	PATT
	 POIN2	Friends_1_010
// 043   ----------------------------------------
	BYTE		N36     Cn5   v100
	BYTE	W72
// 044   ----------------------------------------
	BYTE	PATT
	 POIN2	Friends_1_012
// 045   ----------------------------------------
	BYTE	PATT
	 POIN2	Friends_1_013
// 046   ----------------------------------------
	BYTE	PATT
	 POIN2	Friends_1_014
// 047   ----------------------------------------
	BYTE	PATT
	 POIN2	Friends_1_015
// 048   ----------------------------------------
	BYTE	PATT
	 POIN2	Friends_1_004
// 049   ----------------------------------------
	BYTE	PATT
	 POIN2	Friends_1_001
// 050   ----------------------------------------
	BYTE	PATT
	 POIN2	Friends_1_002
// 051   ----------------------------------------
	BYTE		N21     Gn5   v100
	BYTE	W72
// 052   ----------------------------------------
	BYTE	PATT
	 POIN2	Friends_1_004
// 053   ----------------------------------------
	BYTE	PATT
	 POIN2	Friends_1_001
// 054   ----------------------------------------
	BYTE	PATT
	 POIN2	Friends_1_006
// 055   ----------------------------------------
	BYTE	PATT
	 POIN2	Friends_1_007
// 056   ----------------------------------------
	BYTE	PATT
	 POIN2	Friends_1_008
// 057   ----------------------------------------
	BYTE	PATT
	 POIN2	Friends_1_009
// 058   ----------------------------------------
	BYTE	PATT
	 POIN2	Friends_1_010
// 059   ----------------------------------------
	BYTE		N36     Cn5   v100
	BYTE	W72
// 060   ----------------------------------------
	BYTE	PATT
	 POIN2	Friends_1_012
// 061   ----------------------------------------
	BYTE	PATT
	 POIN2	Friends_1_013
// 062   ----------------------------------------
	BYTE	PATT
	 POIN2	Friends_1_014
// 063   ----------------------------------------
	BYTE	PATT
	 POIN2	Friends_1_015
	BYTE	GoTo
	 POIN2	Friends_1_B1
Friends_1_B2:
// 064   ----------------------------------------
	BYTE	FINE

//**************** Track 2 (Midi-Chn.2) ****************//

Friends_2:
	BYTE	KEYSH   Friends_key+0
Friends_2_B1:
// 000   ----------------------------------------
	BYTE		VOICE   127
	BYTE		VOL     127*Friends_mvl/mxv
	BYTE		PAN     c_v+0
	BYTE		N03     Cn1   v100
	BYTE	W24
	BYTE		        Fs1   v072
	BYTE	W12
	BYTE		        Fs1   v100
	BYTE	W24
	BYTE		        Fs1   v072
	BYTE	W12
// 001   ----------------------------------------
Friends_2_001:
	BYTE		N03     Cs1   v100
	BYTE		N03     Gs1 
	BYTE	W24
	BYTE		        Fs1   v072
	BYTE	W12
	BYTE		        Fs1   v100
	BYTE	W24
	BYTE		        As3 
	BYTE	W12
	BYTE	PEND
// 002   ----------------------------------------
Friends_2_002:
	BYTE		N03     Fs1   v100
	BYTE	W24
	BYTE		        Cn1 
	BYTE	W12
	BYTE		        Fs1 
	BYTE	W24
	BYTE		        Fs1   v072
	BYTE	W12
	BYTE	PEND
// 003   ----------------------------------------
Friends_2_003:
	BYTE		N03     Cs1   v100
	BYTE		N03     Gs1 
	BYTE	W24
	BYTE		        Fs1   v072
	BYTE	W12
	BYTE		        Fn3   v100
	BYTE	W24
	BYTE		        Fs1   v072
	BYTE	W12
	BYTE	PEND
// 004   ----------------------------------------
Friends_2_004:
	BYTE		N03     Cn1   v100
	BYTE	W24
	BYTE		        Fs1   v072
	BYTE	W12
	BYTE		        Fs1   v100
	BYTE	W24
	BYTE		        Fs1   v072
	BYTE	W12
	BYTE	PEND
// 005   ----------------------------------------
	BYTE	PATT
	 POIN2	Friends_2_001
// 006   ----------------------------------------
	BYTE	PATT
	 POIN2	Friends_2_002
// 007   ----------------------------------------
Friends_2_007:
	BYTE		N03     Cs1   v100
	BYTE		N03     Gs1 
	BYTE	W24
	BYTE		        Fn3 
	BYTE	W12
	BYTE		N03   
	BYTE	W24
	BYTE		        Fs1   v072
	BYTE	W12
	BYTE	PEND
// 008   ----------------------------------------
	BYTE	PATT
	 POIN2	Friends_2_004
// 009   ----------------------------------------
	BYTE	PATT
	 POIN2	Friends_2_001
// 010   ----------------------------------------
	BYTE	PATT
	 POIN2	Friends_2_002
// 011   ----------------------------------------
	BYTE	PATT
	 POIN2	Friends_2_003
// 012   ----------------------------------------
	BYTE	PATT
	 POIN2	Friends_2_004
// 013   ----------------------------------------
	BYTE	PATT
	 POIN2	Friends_2_001
// 014   ----------------------------------------
Friends_2_014:
	BYTE		N03     Fs1   v100
	BYTE	W24
	BYTE		        Cn1 
	BYTE	W12
	BYTE		        Fs1 
	BYTE	W12
	BYTE		N03   
	BYTE	W12
	BYTE		        Cs1 
	BYTE		N03     Gs1 
	BYTE	W12
	BYTE	PEND
// 015   ----------------------------------------
Friends_2_015:
	BYTE		N03     Cs1   v100
	BYTE		N03     Gs1 
	BYTE	W36
	BYTE		        Cn3 
	BYTE	W24
	BYTE		        Cn3   v072
	BYTE	W12
	BYTE	PEND
// 016   ----------------------------------------
	BYTE	PATT
	 POIN2	Friends_2_004
// 017   ----------------------------------------
	BYTE	PATT
	 POIN2	Friends_2_001
// 018   ----------------------------------------
	BYTE	PATT
	 POIN2	Friends_2_002
// 019   ----------------------------------------
	BYTE	PATT
	 POIN2	Friends_2_003
// 020   ----------------------------------------
	BYTE	PATT
	 POIN2	Friends_2_004
// 021   ----------------------------------------
	BYTE	PATT
	 POIN2	Friends_2_001
// 022   ----------------------------------------
	BYTE	PATT
	 POIN2	Friends_2_002
// 023   ----------------------------------------
	BYTE	PATT
	 POIN2	Friends_2_007
// 024   ----------------------------------------
	BYTE	PATT
	 POIN2	Friends_2_004
// 025   ----------------------------------------
	BYTE	PATT
	 POIN2	Friends_2_001
// 026   ----------------------------------------
	BYTE	PATT
	 POIN2	Friends_2_002
// 027   ----------------------------------------
	BYTE	PATT
	 POIN2	Friends_2_003
// 028   ----------------------------------------
	BYTE	PATT
	 POIN2	Friends_2_004
// 029   ----------------------------------------
	BYTE	PATT
	 POIN2	Friends_2_001
// 030   ----------------------------------------
	BYTE	PATT
	 POIN2	Friends_2_014
// 031   ----------------------------------------
	BYTE	PATT
	 POIN2	Friends_2_015
// 032   ----------------------------------------
	BYTE	PATT
	 POIN2	Friends_2_004
// 033   ----------------------------------------
	BYTE	PATT
	 POIN2	Friends_2_001
// 034   ----------------------------------------
	BYTE	PATT
	 POIN2	Friends_2_002
// 035   ----------------------------------------
	BYTE	PATT
	 POIN2	Friends_2_003
// 036   ----------------------------------------
	BYTE	PATT
	 POIN2	Friends_2_004
// 037   ----------------------------------------
	BYTE	PATT
	 POIN2	Friends_2_001
// 038   ----------------------------------------
	BYTE	PATT
	 POIN2	Friends_2_002
// 039   ----------------------------------------
	BYTE	PATT
	 POIN2	Friends_2_007
// 040   ----------------------------------------
	BYTE	PATT
	 POIN2	Friends_2_004
// 041   ----------------------------------------
	BYTE	PATT
	 POIN2	Friends_2_001
// 042   ----------------------------------------
	BYTE	PATT
	 POIN2	Friends_2_002
// 043   ----------------------------------------
	BYTE	PATT
	 POIN2	Friends_2_003
// 044   ----------------------------------------
	BYTE	PATT
	 POIN2	Friends_2_004
// 045   ----------------------------------------
	BYTE	PATT
	 POIN2	Friends_2_001
// 046   ----------------------------------------
	BYTE	PATT
	 POIN2	Friends_2_014
// 047   ----------------------------------------
	BYTE	PATT
	 POIN2	Friends_2_015
// 048   ----------------------------------------
	BYTE	PATT
	 POIN2	Friends_2_004
// 049   ----------------------------------------
	BYTE	PATT
	 POIN2	Friends_2_001
// 050   ----------------------------------------
	BYTE	PATT
	 POIN2	Friends_2_002
// 051   ----------------------------------------
	BYTE	PATT
	 POIN2	Friends_2_003
// 052   ----------------------------------------
	BYTE	PATT
	 POIN2	Friends_2_004
// 053   ----------------------------------------
	BYTE	PATT
	 POIN2	Friends_2_001
// 054   ----------------------------------------
	BYTE	PATT
	 POIN2	Friends_2_002
// 055   ----------------------------------------
	BYTE	PATT
	 POIN2	Friends_2_007
// 056   ----------------------------------------
	BYTE	PATT
	 POIN2	Friends_2_004
// 057   ----------------------------------------
	BYTE	PATT
	 POIN2	Friends_2_001
// 058   ----------------------------------------
	BYTE	PATT
	 POIN2	Friends_2_002
// 059   ----------------------------------------
	BYTE	PATT
	 POIN2	Friends_2_003
// 060   ----------------------------------------
	BYTE	PATT
	 POIN2	Friends_2_004
// 061   ----------------------------------------
	BYTE	PATT
	 POIN2	Friends_2_001
// 062   ----------------------------------------
	BYTE	PATT
	 POIN2	Friends_2_014
// 063   ----------------------------------------
	BYTE	PATT
	 POIN2	Friends_2_015
	BYTE	GoTo
	 POIN2	Friends_2_B1
Friends_2_B2:
// 064   ----------------------------------------
	BYTE	FINE

//**************** Track 3 (Midi-Chn.7) ****************//

Friends_3:
	BYTE	KEYSH   Friends_key+0
Friends_3_B1:
// 000   ----------------------------------------
	BYTE		VOICE   24
	BYTE		PAN     c_v-64
	BYTE		VOL     100*Friends_mvl/mxv
	BYTE		PAN     c_v+0
	BYTE		N06     An2   v100
	BYTE	W24
	BYTE		        Fn3 
	BYTE	W12
	BYTE		        An3 
	BYTE	W24
	BYTE		        Fn3 
	BYTE	W12
// 001   ----------------------------------------
Friends_3_001:
	BYTE		N06     Cn4   v100
	BYTE	W24
	BYTE		        Fn3 
	BYTE	W12
	BYTE		        An3 
	BYTE	W24
	BYTE		        Fn3 
	BYTE	W12
	BYTE	PEND
// 002   ----------------------------------------
Friends_3_002:
	BYTE		N06     As2   v100
	BYTE	W24
	BYTE		        Gn3 
	BYTE	W12
	BYTE		        As3 
	BYTE	W24
	BYTE		        Gn3 
	BYTE	W12
	BYTE	PEND
// 003   ----------------------------------------
Friends_3_003:
	BYTE		N06     Cn4   v100
	BYTE	W24
	BYTE		        En3 
	BYTE	W12
	BYTE		        As3 
	BYTE	W24
	BYTE		        En3 
	BYTE	W12
	BYTE	PEND
// 004   ----------------------------------------
Friends_3_004:
	BYTE		N06     An2   v100
	BYTE	W24
	BYTE		        Fn3 
	BYTE	W12
	BYTE		        An3 
	BYTE	W24
	BYTE		        Fn3 
	BYTE	W12
	BYTE	PEND
// 005   ----------------------------------------
	BYTE	PATT
	 POIN2	Friends_3_001
// 006   ----------------------------------------
	BYTE	PATT
	 POIN2	Friends_3_002
// 007   ----------------------------------------
	BYTE	PATT
	 POIN2	Friends_3_003
// 008   ----------------------------------------
Friends_3_008:
	BYTE		N06     As2   v100
	BYTE	W24
	BYTE		        Fn3 
	BYTE	W12
	BYTE		        As3 
	BYTE	W24
	BYTE		        Fn3 
	BYTE	W12
	BYTE	PEND
// 009   ----------------------------------------
Friends_3_009:
	BYTE		N06     Cs4   v100
	BYTE	W24
	BYTE		        Fn3 
	BYTE	W12
	BYTE		        As3 
	BYTE	W24
	BYTE		        Fn3 
	BYTE	W12
	BYTE	PEND
// 010   ----------------------------------------
	BYTE	PATT
	 POIN2	Friends_3_004
// 011   ----------------------------------------
	BYTE	PATT
	 POIN2	Friends_3_001
// 012   ----------------------------------------
Friends_3_012:
	BYTE		N06     Gn2   v100
	BYTE	W24
	BYTE		        Dn3 
	BYTE	W12
	BYTE		        Fn3 
	BYTE	W24
	BYTE		        Dn3 
	BYTE	W12
	BYTE	PEND
// 013   ----------------------------------------
Friends_3_013:
	BYTE		N06     As3   v100
	BYTE	W24
	BYTE		        Dn3 
	BYTE	W12
	BYTE		        Fn3 
	BYTE	W24
	BYTE		        Dn3 
	BYTE	W12
	BYTE	PEND
// 014   ----------------------------------------
Friends_3_014:
	BYTE		N06     Gn2   v100
	BYTE	W24
	BYTE		        En3 
	BYTE	W12
	BYTE		        As3 
	BYTE	W24
	BYTE		        En3 
	BYTE	W12
	BYTE	PEND
// 015   ----------------------------------------
	BYTE		        En4 
	BYTE	W72
// 016   ----------------------------------------
	BYTE	PATT
	 POIN2	Friends_3_004
// 017   ----------------------------------------
	BYTE	PATT
	 POIN2	Friends_3_001
// 018   ----------------------------------------
	BYTE	PATT
	 POIN2	Friends_3_002
// 019   ----------------------------------------
	BYTE	PATT
	 POIN2	Friends_3_003
// 020   ----------------------------------------
	BYTE	PATT
	 POIN2	Friends_3_004
// 021   ----------------------------------------
	BYTE	PATT
	 POIN2	Friends_3_001
// 022   ----------------------------------------
	BYTE	PATT
	 POIN2	Friends_3_002
// 023   ----------------------------------------
	BYTE	PATT
	 POIN2	Friends_3_003
// 024   ----------------------------------------
	BYTE	PATT
	 POIN2	Friends_3_008
// 025   ----------------------------------------
	BYTE	PATT
	 POIN2	Friends_3_009
// 026   ----------------------------------------
	BYTE	PATT
	 POIN2	Friends_3_004
// 027   ----------------------------------------
	BYTE	PATT
	 POIN2	Friends_3_001
// 028   ----------------------------------------
	BYTE	PATT
	 POIN2	Friends_3_012
// 029   ----------------------------------------
	BYTE	PATT
	 POIN2	Friends_3_013
// 030   ----------------------------------------
	BYTE	PATT
	 POIN2	Friends_3_014
// 031   ----------------------------------------
	BYTE		N06     En4   v100
	BYTE	W72
// 032   ----------------------------------------
	BYTE	PATT
	 POIN2	Friends_3_004
// 033   ----------------------------------------
	BYTE	PATT
	 POIN2	Friends_3_001
// 034   ----------------------------------------
	BYTE	PATT
	 POIN2	Friends_3_002
// 035   ----------------------------------------
	BYTE	PATT
	 POIN2	Friends_3_003
// 036   ----------------------------------------
	BYTE	PATT
	 POIN2	Friends_3_004
// 037   ----------------------------------------
	BYTE	PATT
	 POIN2	Friends_3_001
// 038   ----------------------------------------
	BYTE	PATT
	 POIN2	Friends_3_002
// 039   ----------------------------------------
	BYTE	PATT
	 POIN2	Friends_3_003
// 040   ----------------------------------------
	BYTE	PATT
	 POIN2	Friends_3_008
// 041   ----------------------------------------
	BYTE	PATT
	 POIN2	Friends_3_009
// 042   ----------------------------------------
	BYTE	PATT
	 POIN2	Friends_3_004
// 043   ----------------------------------------
	BYTE	PATT
	 POIN2	Friends_3_001
// 044   ----------------------------------------
	BYTE	PATT
	 POIN2	Friends_3_012
// 045   ----------------------------------------
	BYTE	PATT
	 POIN2	Friends_3_013
// 046   ----------------------------------------
	BYTE	PATT
	 POIN2	Friends_3_014
// 047   ----------------------------------------
	BYTE		N06     En4   v100
	BYTE	W72
// 048   ----------------------------------------
	BYTE	PATT
	 POIN2	Friends_3_004
// 049   ----------------------------------------
	BYTE	PATT
	 POIN2	Friends_3_001
// 050   ----------------------------------------
	BYTE	PATT
	 POIN2	Friends_3_002
// 051   ----------------------------------------
	BYTE	PATT
	 POIN2	Friends_3_003
// 052   ----------------------------------------
	BYTE	PATT
	 POIN2	Friends_3_004
// 053   ----------------------------------------
	BYTE	PATT
	 POIN2	Friends_3_001
// 054   ----------------------------------------
	BYTE	PATT
	 POIN2	Friends_3_002
// 055   ----------------------------------------
	BYTE	PATT
	 POIN2	Friends_3_003
// 056   ----------------------------------------
	BYTE	PATT
	 POIN2	Friends_3_008
// 057   ----------------------------------------
	BYTE	PATT
	 POIN2	Friends_3_009
// 058   ----------------------------------------
	BYTE	PATT
	 POIN2	Friends_3_004
// 059   ----------------------------------------
	BYTE	PATT
	 POIN2	Friends_3_001
// 060   ----------------------------------------
	BYTE	PATT
	 POIN2	Friends_3_012
// 061   ----------------------------------------
	BYTE	PATT
	 POIN2	Friends_3_013
// 062   ----------------------------------------
	BYTE	PATT
	 POIN2	Friends_3_014
// 063   ----------------------------------------
	BYTE		N06     En4   v100
	BYTE	W72
	BYTE	GoTo
	 POIN2	Friends_3_B1
Friends_3_B2:
// 064   ----------------------------------------
	BYTE	FINE

//**************** Track 4 (Midi-Chn.8) ****************//

Friends_4:
	BYTE	KEYSH   Friends_key+0
Friends_4_B1:
// 000   ----------------------------------------
	BYTE		VOICE   24
	BYTE		PAN     c_v+63
	BYTE		VOL     100*Friends_mvl/mxv
	BYTE		PAN     c_v+0
	BYTE		N06     Fn2   v100
	BYTE	W24
	BYTE		        Cn3 
	BYTE	W12
	BYTE		        Fn3 
	BYTE	W24
	BYTE		        Cn3 
	BYTE	W12
// 001   ----------------------------------------
Friends_4_001:
	BYTE		N06     An3   v100
	BYTE	W24
	BYTE		        Cn3 
	BYTE	W12
	BYTE		        Fn3 
	BYTE	W24
	BYTE		        Cn3 
	BYTE	W12
	BYTE	PEND
// 002   ----------------------------------------
Friends_4_002:
	BYTE		N06     Gn2   v100
	BYTE	W24
	BYTE		        Dn3 
	BYTE	W12
	BYTE		        Gn3 
	BYTE	W24
	BYTE		        Dn3 
	BYTE	W12
	BYTE	PEND
// 003   ----------------------------------------
Friends_4_003:
	BYTE		N06     Gn3   v100
	BYTE	W24
	BYTE		        Cn3 
	BYTE	W12
	BYTE		        Gn3 
	BYTE	W24
	BYTE		        Cn3 
	BYTE	W12
	BYTE	PEND
// 004   ----------------------------------------
Friends_4_004:
	BYTE		N06     Fn2   v100
	BYTE	W24
	BYTE		        Cn3 
	BYTE	W12
	BYTE		        Fn3 
	BYTE	W24
	BYTE		        Cn3 
	BYTE	W12
	BYTE	PEND
// 005   ----------------------------------------
	BYTE	PATT
	 POIN2	Friends_4_001
// 006   ----------------------------------------
	BYTE	PATT
	 POIN2	Friends_4_002
// 007   ----------------------------------------
	BYTE	PATT
	 POIN2	Friends_4_003
// 008   ----------------------------------------
Friends_4_008:
	BYTE		N06     Fn2   v100
	BYTE	W24
	BYTE		        Dn3 
	BYTE	W12
	BYTE		        Fn3 
	BYTE	W24
	BYTE		        Dn3 
	BYTE	W12
	BYTE	PEND
// 009   ----------------------------------------
Friends_4_009:
	BYTE		N06     As3   v100
	BYTE	W24
	BYTE		        Cs3 
	BYTE	W12
	BYTE		        Fn3 
	BYTE	W24
	BYTE		        Cs3 
	BYTE	W12
	BYTE	PEND
// 010   ----------------------------------------
	BYTE	PATT
	 POIN2	Friends_4_004
// 011   ----------------------------------------
	BYTE	PATT
	 POIN2	Friends_4_001
// 012   ----------------------------------------
Friends_4_012:
	BYTE		N06     Dn2   v100
	BYTE	W24
	BYTE		        As2 
	BYTE	W12
	BYTE		        Dn3 
	BYTE	W24
	BYTE		        As2 
	BYTE	W12
	BYTE	PEND
// 013   ----------------------------------------
Friends_4_013:
	BYTE		N06     Fn3   v100
	BYTE	W24
	BYTE		        As2 
	BYTE	W12
	BYTE		        Dn3 
	BYTE	W24
	BYTE		        As2 
	BYTE	W12
	BYTE	PEND
// 014   ----------------------------------------
Friends_4_014:
	BYTE		N06     En2   v100
	BYTE	W24
	BYTE		        Cn3 
	BYTE	W12
	BYTE		        Gn3 
	BYTE	W24
	BYTE		        Cn3 
	BYTE	W12
	BYTE	PEND
// 015   ----------------------------------------
	BYTE		        As3 
	BYTE	W72
// 016   ----------------------------------------
	BYTE	PATT
	 POIN2	Friends_4_004
// 017   ----------------------------------------
	BYTE	PATT
	 POIN2	Friends_4_001
// 018   ----------------------------------------
	BYTE	PATT
	 POIN2	Friends_4_002
// 019   ----------------------------------------
	BYTE	PATT
	 POIN2	Friends_4_003
// 020   ----------------------------------------
	BYTE	PATT
	 POIN2	Friends_4_004
// 021   ----------------------------------------
	BYTE	PATT
	 POIN2	Friends_4_001
// 022   ----------------------------------------
	BYTE	PATT
	 POIN2	Friends_4_002
// 023   ----------------------------------------
	BYTE	PATT
	 POIN2	Friends_4_003
// 024   ----------------------------------------
	BYTE	PATT
	 POIN2	Friends_4_008
// 025   ----------------------------------------
	BYTE	PATT
	 POIN2	Friends_4_009
// 026   ----------------------------------------
	BYTE	PATT
	 POIN2	Friends_4_004
// 027   ----------------------------------------
	BYTE	PATT
	 POIN2	Friends_4_001
// 028   ----------------------------------------
	BYTE	PATT
	 POIN2	Friends_4_012
// 029   ----------------------------------------
	BYTE	PATT
	 POIN2	Friends_4_013
// 030   ----------------------------------------
	BYTE	PATT
	 POIN2	Friends_4_014
// 031   ----------------------------------------
	BYTE		N06     As3   v100
	BYTE	W72
// 032   ----------------------------------------
	BYTE	PATT
	 POIN2	Friends_4_004
// 033   ----------------------------------------
	BYTE	PATT
	 POIN2	Friends_4_001
// 034   ----------------------------------------
	BYTE	PATT
	 POIN2	Friends_4_002
// 035   ----------------------------------------
	BYTE	PATT
	 POIN2	Friends_4_003
// 036   ----------------------------------------
	BYTE	PATT
	 POIN2	Friends_4_004
// 037   ----------------------------------------
	BYTE	PATT
	 POIN2	Friends_4_001
// 038   ----------------------------------------
	BYTE	PATT
	 POIN2	Friends_4_002
// 039   ----------------------------------------
	BYTE	PATT
	 POIN2	Friends_4_003
// 040   ----------------------------------------
	BYTE	PATT
	 POIN2	Friends_4_008
// 041   ----------------------------------------
	BYTE	PATT
	 POIN2	Friends_4_009
// 042   ----------------------------------------
	BYTE	PATT
	 POIN2	Friends_4_004
// 043   ----------------------------------------
	BYTE	PATT
	 POIN2	Friends_4_001
// 044   ----------------------------------------
	BYTE	PATT
	 POIN2	Friends_4_012
// 045   ----------------------------------------
	BYTE	PATT
	 POIN2	Friends_4_013
// 046   ----------------------------------------
	BYTE	PATT
	 POIN2	Friends_4_014
// 047   ----------------------------------------
	BYTE		N06     As3   v100
	BYTE	W72
// 048   ----------------------------------------
	BYTE	PATT
	 POIN2	Friends_4_004
// 049   ----------------------------------------
	BYTE	PATT
	 POIN2	Friends_4_001
// 050   ----------------------------------------
	BYTE	PATT
	 POIN2	Friends_4_002
// 051   ----------------------------------------
	BYTE	PATT
	 POIN2	Friends_4_003
// 052   ----------------------------------------
	BYTE	PATT
	 POIN2	Friends_4_004
// 053   ----------------------------------------
	BYTE	PATT
	 POIN2	Friends_4_001
// 054   ----------------------------------------
	BYTE	PATT
	 POIN2	Friends_4_002
// 055   ----------------------------------------
	BYTE	PATT
	 POIN2	Friends_4_003
// 056   ----------------------------------------
	BYTE	PATT
	 POIN2	Friends_4_008
// 057   ----------------------------------------
	BYTE	PATT
	 POIN2	Friends_4_009
// 058   ----------------------------------------
	BYTE	PATT
	 POIN2	Friends_4_004
// 059   ----------------------------------------
	BYTE	PATT
	 POIN2	Friends_4_001
// 060   ----------------------------------------
	BYTE	PATT
	 POIN2	Friends_4_012
// 061   ----------------------------------------
	BYTE	PATT
	 POIN2	Friends_4_013
// 062   ----------------------------------------
	BYTE	PATT
	 POIN2	Friends_4_014
// 063   ----------------------------------------
	BYTE		N06     As3   v100
	BYTE	W72
	BYTE	GoTo
	 POIN2	Friends_4_B1
Friends_4_B2:
// 064   ----------------------------------------
	BYTE	FINE

//**************** Track 5 (Midi-Chn.9) ****************//

Friends_5:
	BYTE	KEYSH   Friends_key+0
Friends_5_B1:
// 000   ----------------------------------------
	BYTE		VOICE   33
	BYTE		VOL     127*Friends_mvl/mxv
	BYTE		PAN     c_v+0
	BYTE		N12     Fn2   v100
	BYTE	W60
	BYTE		N12   
	BYTE	W12
// 001   ----------------------------------------
Friends_5_001:
	BYTE	W24
	BYTE		N09     Cn2   v100
	BYTE	W12
	BYTE		N21     Fn2 
	BYTE	W24
	BYTE		N09     Cn2 
	BYTE	W12
	BYTE	PEND
// 002   ----------------------------------------
Friends_5_002:
	BYTE		N12     Gn2   v100
	BYTE	W60
	BYTE		N09     As2 
	BYTE	W12
	BYTE	PEND
// 003   ----------------------------------------
Friends_5_003:
	BYTE		N12     Cn3   v100
	BYTE	W36
	BYTE		N24     Cn2 
	BYTE	W36
	BYTE	PEND
// 004   ----------------------------------------
Friends_5_004:
	BYTE		N12     Fn2   v100
	BYTE	W60
	BYTE		N12   
	BYTE	W12
	BYTE	PEND
// 005   ----------------------------------------
	BYTE	PATT
	 POIN2	Friends_5_001
// 006   ----------------------------------------
Friends_5_006:
	BYTE		N12     Gn2   v100
	BYTE	W60
	BYTE		N09     As1 
	BYTE	W12
	BYTE	PEND
// 007   ----------------------------------------
Friends_5_007:
	BYTE		N21     Cn2   v100
	BYTE	W24
	BYTE		N09     Gn2 
	BYTE	W12
	BYTE		N21     Cn2 
	BYTE	W24
	BYTE		N09     Cn3 
	BYTE	W12
	BYTE	PEND
// 008   ----------------------------------------
Friends_5_008:
	BYTE		N12     Dn3   v100
	BYTE	W60
	BYTE		N09     As1 
	BYTE	W12
	BYTE	PEND
// 009   ----------------------------------------
Friends_5_009:
	BYTE		N12     Cs3   v100
	BYTE	W36
	BYTE		N24     As1 
	BYTE	W36
	BYTE	PEND
// 010   ----------------------------------------
	BYTE	PATT
	 POIN2	Friends_5_004
// 011   ----------------------------------------
	BYTE	PATT
	 POIN2	Friends_5_001
// 012   ----------------------------------------
Friends_5_012:
	BYTE		N12     Gn2   v100
	BYTE	W60
	BYTE		N12   
	BYTE	W12
	BYTE	PEND
// 013   ----------------------------------------
Friends_5_013:
	BYTE	W24
	BYTE		N09     Dn2   v100
	BYTE	W12
	BYTE		N21     Gn2 
	BYTE	W24
	BYTE		N09     Dn2 
	BYTE	W12
	BYTE	PEND
// 014   ----------------------------------------
Friends_5_014:
	BYTE		N21     Cn2   v100
	BYTE	W24
	BYTE		N12   
	BYTE	W36
	BYTE		N09     Cn3 
	BYTE	W12
	BYTE	PEND
// 015   ----------------------------------------
	BYTE		N12     Cn2 
	BYTE	W72
// 016   ----------------------------------------
	BYTE	PATT
	 POIN2	Friends_5_004
// 017   ----------------------------------------
	BYTE	PATT
	 POIN2	Friends_5_001
// 018   ----------------------------------------
	BYTE	PATT
	 POIN2	Friends_5_002
// 019   ----------------------------------------
	BYTE	PATT
	 POIN2	Friends_5_003
// 020   ----------------------------------------
	BYTE	PATT
	 POIN2	Friends_5_004
// 021   ----------------------------------------
	BYTE	PATT
	 POIN2	Friends_5_001
// 022   ----------------------------------------
	BYTE	PATT
	 POIN2	Friends_5_006
// 023   ----------------------------------------
	BYTE	PATT
	 POIN2	Friends_5_007
// 024   ----------------------------------------
	BYTE	PATT
	 POIN2	Friends_5_008
// 025   ----------------------------------------
	BYTE	PATT
	 POIN2	Friends_5_009
// 026   ----------------------------------------
	BYTE	PATT
	 POIN2	Friends_5_004
// 027   ----------------------------------------
	BYTE	PATT
	 POIN2	Friends_5_001
// 028   ----------------------------------------
	BYTE	PATT
	 POIN2	Friends_5_012
// 029   ----------------------------------------
	BYTE	PATT
	 POIN2	Friends_5_013
// 030   ----------------------------------------
	BYTE	PATT
	 POIN2	Friends_5_014
// 031   ----------------------------------------
	BYTE		N12     Cn2   v100
	BYTE	W72
// 032   ----------------------------------------
	BYTE		        Fn2 
	BYTE	W60
	BYTE		N12   
	BYTE	W12
// 033   ----------------------------------------
	BYTE	PATT
	 POIN2	Friends_5_001
// 034   ----------------------------------------
	BYTE	PATT
	 POIN2	Friends_5_002
// 035   ----------------------------------------
	BYTE	PATT
	 POIN2	Friends_5_003
// 036   ----------------------------------------
	BYTE	PATT
	 POIN2	Friends_5_004
// 037   ----------------------------------------
	BYTE	PATT
	 POIN2	Friends_5_001
// 038   ----------------------------------------
	BYTE	PATT
	 POIN2	Friends_5_006
// 039   ----------------------------------------
	BYTE	PATT
	 POIN2	Friends_5_007
// 040   ----------------------------------------
	BYTE	PATT
	 POIN2	Friends_5_008
// 041   ----------------------------------------
	BYTE	PATT
	 POIN2	Friends_5_009
// 042   ----------------------------------------
	BYTE	PATT
	 POIN2	Friends_5_004
// 043   ----------------------------------------
	BYTE	PATT
	 POIN2	Friends_5_001
// 044   ----------------------------------------
	BYTE	PATT
	 POIN2	Friends_5_012
// 045   ----------------------------------------
	BYTE	PATT
	 POIN2	Friends_5_013
// 046   ----------------------------------------
	BYTE	PATT
	 POIN2	Friends_5_014
// 047   ----------------------------------------
	BYTE		N12     Cn2   v100
	BYTE	W72
// 048   ----------------------------------------
	BYTE	PATT
	 POIN2	Friends_5_004
// 049   ----------------------------------------
	BYTE	PATT
	 POIN2	Friends_5_001
// 050   ----------------------------------------
	BYTE	PATT
	 POIN2	Friends_5_002
// 051   ----------------------------------------
	BYTE	PATT
	 POIN2	Friends_5_003
// 052   ----------------------------------------
	BYTE	PATT
	 POIN2	Friends_5_004
// 053   ----------------------------------------
	BYTE	PATT
	 POIN2	Friends_5_001
// 054   ----------------------------------------
	BYTE	PATT
	 POIN2	Friends_5_006
// 055   ----------------------------------------
	BYTE	PATT
	 POIN2	Friends_5_007
// 056   ----------------------------------------
	BYTE	PATT
	 POIN2	Friends_5_008
// 057   ----------------------------------------
	BYTE	PATT
	 POIN2	Friends_5_009
// 058   ----------------------------------------
	BYTE	PATT
	 POIN2	Friends_5_004
// 059   ----------------------------------------
	BYTE	PATT
	 POIN2	Friends_5_001
// 060   ----------------------------------------
	BYTE	PATT
	 POIN2	Friends_5_012
// 061   ----------------------------------------
	BYTE	PATT
	 POIN2	Friends_5_013
// 062   ----------------------------------------
	BYTE	PATT
	 POIN2	Friends_5_014
// 063   ----------------------------------------
	BYTE		N12     Cn2   v100
	BYTE	W72
	BYTE	GoTo
	 POIN2	Friends_5_B1
Friends_5_B2:
// 064   ----------------------------------------
	BYTE	FINE

//******************************************************//
	ALIGN 4

Friends:
	BYTE	5	// NumTrks
	BYTE	0	// NumBlks
	BYTE	Friends_pri	// Priority
	BYTE	Friends_rev	// Reverb.

	POIN2	Friends_grp

	POIN2	Friends_1
	POIN2	Friends_2
	POIN2	Friends_3
	POIN2	Friends_4
	POIN2	Friends_5

	
