//Event file generated from Sappy .s format.
	#include "MPlayDef.event"

	#define	IdPurpose_grp  voicegroup000
	#define	IdPurpose_pri  0
	#define	IdPurpose_rev  0
	#define	IdPurpose_mvl  85
	#define	IdPurpose_key  0
	#define	IdPurpose_tbs  1
	#define	IdPurpose_exg  0
	#define	IdPurpose_cmp  1

	// .rodata
	//	IdPurpose
	ALIGN 4

//**************** Track 1 (Midi-Chn.1) ****************//

IdPurpose_1:
	BYTE	KEYSH   IdPurpose_key+0
// 000   ----------------------------------------
	BYTE	TEMPO   104*IdPurpose_tbs/2
	BYTE		VOICE   40
	BYTE		PAN     c_v+13
	BYTE		VOL     100*IdPurpose_mvl/mxv
	BYTE	W48
	BYTE		N05     Gn3   v096
	BYTE	W06
	BYTE		        An3 
	BYTE	W06
	BYTE		        As3 
	BYTE	W06
	BYTE		        Fn4 
	BYTE	W06
IdPurpose_1_B1:
	BYTE		N44     Cn4   v096
	BYTE	W24
// 001   ----------------------------------------
IdPurpose_1_001:
	BYTE	W24
	BYTE		N23     As3   v096
	BYTE	W24
	BYTE		N44     An3 
	BYTE	W48
	BYTE	PEND
// 002   ----------------------------------------
IdPurpose_1_002:
	BYTE		N23     Gn3   v096
	BYTE	W24
	BYTE		TIE     Fn3 
	BYTE	W72
	BYTE	PEND
// 003   ----------------------------------------
	BYTE	W44
	BYTE	W03
	BYTE		EOT   
	BYTE	W01
	BYTE		N05     Gn3 
	BYTE	W06
	BYTE		        An3 
	BYTE	W06
	BYTE		        As3 
	BYTE	W06
	BYTE		        Fn4 
	BYTE	W06
	BYTE		N44     Cn4 
	BYTE	W24
// 004   ----------------------------------------
IdPurpose_1_004:
	BYTE	W24
	BYTE		N11     Dn4   v096
	BYTE	W12
	BYTE		        As4 
	BYTE	W12
	BYTE		N23   
	BYTE	W24
	BYTE		        An4 
	BYTE	W24
	BYTE	PEND
// 005   ----------------------------------------
IdPurpose_1_005:
	BYTE		N23     Gn4   v096
	BYTE	W24
	BYTE		N56     Fn4 
	BYTE	W60
	BYTE		N05     Ds4 
	BYTE	W06
	BYTE		        Dn4 
	BYTE	W06
	BYTE	PEND
// 006   ----------------------------------------
IdPurpose_1_006:
	BYTE		N68     Cn4   v096
	BYTE	W72
	BYTE		N44     Ds4 
	BYTE	W24
	BYTE	PEND
// 007   ----------------------------------------
IdPurpose_1_007:
	BYTE	W24
	BYTE		N23     Fn4   v096
	BYTE	W24
	BYTE		N44     Gn4 
	BYTE	W48
	BYTE	PEND
// 008   ----------------------------------------
IdPurpose_1_008:
	BYTE		N23     An4   v096
	BYTE	W24
	BYTE		N17     As4 
	BYTE	W18
	BYTE		N05     An4 
	BYTE	W06
	BYTE		N44     Gn4 
	BYTE	W48
	BYTE	PEND
// 009   ----------------------------------------
	BYTE		N17     Fn4 
	BYTE	W18
	BYTE		N05     En4 
	BYTE	W06
	BYTE		N32     Dn4 
	BYTE	W36
	BYTE		N05     Fn4 
	BYTE	W06
	BYTE		        Gn4 
	BYTE	W06
	BYTE		N23     Gs4 
	BYTE	W24
// 010   ----------------------------------------
	BYTE		        Gn4 
	BYTE	W24
	BYTE		        Fn4 
	BYTE	W24
	BYTE		N17     Ds4 
	BYTE	W18
	BYTE		N05     Cn4 
	BYTE	W06
	BYTE		N32     Gs3 
	BYTE	W24
// 011   ----------------------------------------
	BYTE	W12
	BYTE		N11     As3 
	BYTE	W12
	BYTE		TIE     Cn4 
	BYTE	W72
// 012   ----------------------------------------
	BYTE	W44
	BYTE	W03
	BYTE		EOT   
	BYTE	W01
	BYTE		N05     Gn3 
	BYTE	W06
	BYTE		        An3 
	BYTE	W06
	BYTE		        As3 
	BYTE	W06
	BYTE		        Fn4 
	BYTE	W06
	BYTE		N44     Cn4 
	BYTE	W24
// 013   ----------------------------------------
	BYTE	PATT
	 POIN2	IdPurpose_1_001
// 014   ----------------------------------------
	BYTE	PATT
	 POIN2	IdPurpose_1_002
// 015   ----------------------------------------
	BYTE	W44
	BYTE	W03
	BYTE		EOT     Fn3 
	BYTE	W01
	BYTE		N05     Gn3   v096
	BYTE	W06
	BYTE		        An3 
	BYTE	W06
	BYTE		        As3 
	BYTE	W06
	BYTE		        Fn4 
	BYTE	W06
	BYTE		N44     Cn4 
	BYTE	W24
// 016   ----------------------------------------
	BYTE	PATT
	 POIN2	IdPurpose_1_004
// 017   ----------------------------------------
	BYTE	PATT
	 POIN2	IdPurpose_1_005
// 018   ----------------------------------------
	BYTE	PATT
	 POIN2	IdPurpose_1_006
// 019   ----------------------------------------
	BYTE	PATT
	 POIN2	IdPurpose_1_007
// 020   ----------------------------------------
	BYTE	PATT
	 POIN2	IdPurpose_1_008
// 021   ----------------------------------------
	BYTE		N17     Gs4   v096
	BYTE	W18
	BYTE		N05     Gn4 
	BYTE	W06
	BYTE		N44     Fn4 
	BYTE	W48
	BYTE		N68     Ds4 
	BYTE	W24
// 022   ----------------------------------------
	BYTE	W48
	BYTE		N23     Bn3 
	BYTE	W24
	BYTE		        Cs4 
	BYTE	W24
// 023   ----------------------------------------
	BYTE		        Ds4 
	BYTE	W24
	BYTE		TIE     As4 
	BYTE	W72
// 024   ----------------------------------------
	BYTE	W44
	BYTE	W03
	BYTE		EOT   
	BYTE	W13
	BYTE		N05     Gs3 
	BYTE	W06
	BYTE		        As3 
	BYTE	W06
	BYTE		N44     Bn3 
	BYTE	W24
// 025   ----------------------------------------
	BYTE	W24
	BYTE		N23     Cs4 
	BYTE	W24
	BYTE		N17     As3 
	BYTE	W18
	BYTE		N05     Fs3 
	BYTE	W06
	BYTE		N44     Ds3 
	BYTE	W24
// 026   ----------------------------------------
	BYTE	W24
	BYTE		        Cs4 
	BYTE	W48
	BYTE		N23     Dn4 
	BYTE	W24
// 027   ----------------------------------------
	BYTE		N17     Bn3 
	BYTE	W18
	BYTE		N05     Gs3 
	BYTE	W06
	BYTE		N32     En3 
	BYTE	W36
	BYTE		N05   
	BYTE	W06
	BYTE		        Fs3 
	BYTE	W06
	BYTE		N23     Gn3 
	BYTE	W24
// 028   ----------------------------------------
	BYTE		        An3 
	BYTE	W24
	BYTE		        Bn3 
	BYTE	W24
	BYTE		        An3 
	BYTE	W24
	BYTE		        Dn4 
	BYTE	W24
// 029   ----------------------------------------
	BYTE		        Fs3 
	BYTE	W24
	BYTE		N17   
	BYTE	W18
	BYTE		N05     En3 
	BYTE	W06
	BYTE		N92   
	BYTE	W48
// 030   ----------------------------------------
	BYTE	W60
	BYTE		N05     An3 
	BYTE	W06
	BYTE		        Bn3 
	BYTE	W06
	BYTE		N44     Cn4 
	BYTE	W24
// 031   ----------------------------------------
	BYTE	W24
	BYTE		N23     Dn4 
	BYTE	W24
	BYTE		N17     Bn3 
	BYTE	W18
	BYTE		N05     Gn3 
	BYTE	W06
	BYTE		N44     En3 
	BYTE	W24
// 032   ----------------------------------------
	BYTE	W24
	BYTE		        Dn4 
	BYTE	W48
	BYTE		N23     Ds4 
	BYTE	W24
// 033   ----------------------------------------
	BYTE		N17     Cn4 
	BYTE	W18
	BYTE		N05     An3 
	BYTE	W06
	BYTE		N32     Fn3 
	BYTE	W36
	BYTE		N05   
	BYTE	W06
	BYTE		        Gn3 
	BYTE	W06
	BYTE		N23     Gs3 
	BYTE	W24
// 034   ----------------------------------------
	BYTE		        As3 
	BYTE	W24
	BYTE		        Cn4 
	BYTE	W24
	BYTE		N17     As3 
	BYTE	W18
	BYTE		N05     Ds4 
	BYTE	W06
	BYTE		N23   
	BYTE	W24
// 035   ----------------------------------------
	BYTE		        Gn4 
	BYTE	W24
	BYTE		N17   
	BYTE	W18
	BYTE		N05     Fn4 
	BYTE	W06
	BYTE		TIE   
	BYTE	W48
// 036   ----------------------------------------
	BYTE	W68
	BYTE	W03
	BYTE		EOT   
	BYTE	W24
	BYTE	W01
// 037   ----------------------------------------
	BYTE	W96
// 038   ----------------------------------------
	BYTE		N05     Gn3 
	BYTE	W06
	BYTE		        An3 
	BYTE	W06
	BYTE		        As3 
	BYTE	W06
	BYTE		        Fn4 
	BYTE	W06
	BYTE		N44     Cn4 
	BYTE	W48
	BYTE		N23     As3 
	BYTE	W24
// 039   ----------------------------------------
	BYTE		N44     An3 
	BYTE	W48
	BYTE		N23     Gn3 
	BYTE	W24
	BYTE		N92     Fn3 
	BYTE	W24
// 040   ----------------------------------------
	BYTE	W96
// 041   ----------------------------------------
	BYTE		N05     Gn3 
	BYTE	W06
	BYTE		        An3 
	BYTE	W06
	BYTE		        As3 
	BYTE	W06
	BYTE		        Fn4 
	BYTE	W06
	BYTE		N44     Cn4 
	BYTE	W48
	BYTE		N11     Dn4 
	BYTE	W12
	BYTE		        As4 
	BYTE	W12
// 042   ----------------------------------------
	BYTE		N23   
	BYTE	W24
	BYTE		        An4 
	BYTE	W24
	BYTE		        Gn4 
	BYTE	W24
	BYTE		N56     Fn4 
	BYTE	W24
// 043   ----------------------------------------
	BYTE	W36
	BYTE		N05     Ds4 
	BYTE	W06
	BYTE		        Dn4 
	BYTE	W06
	BYTE		N44     Cn4 
	BYTE	W48
// 044   ----------------------------------------
	BYTE	W24
	BYTE		        Ds4 
	BYTE	W48
	BYTE		N23     Fn4 
	BYTE	W24
// 045   ----------------------------------------
	BYTE		N44     Gn4 
	BYTE	W48
	BYTE		N23     An4 
	BYTE	W24
	BYTE		N17     As4 
	BYTE	W18
	BYTE		N05     An4 
	BYTE	W06
// 046   ----------------------------------------
	BYTE		N44     Gn4 
	BYTE	W48
	BYTE		N17     Gs4 
	BYTE	W18
	BYTE		N05     Gn4 
	BYTE	W06
	BYTE		N44     Fn4 
	BYTE	W24
// 047   ----------------------------------------
	BYTE	W24
	BYTE		N23     Ds4 
	BYTE	W24
	BYTE		        Cn4 
	BYTE	W24
	BYTE		        Gs3 
	BYTE	W24
// 048   ----------------------------------------
	BYTE		        Ds4 
	BYTE	W24
	BYTE		        Fn4 
	BYTE	W24
	BYTE		        Fs4 
	BYTE	W24
	BYTE		TIE     Ds4 
	BYTE		TIE     As4 
	BYTE	W24
// 049   ----------------------------------------
	BYTE	W96
// 050   ----------------------------------------
	BYTE	W96
// 051   ----------------------------------------
	BYTE	W68
	BYTE	W03
	BYTE		EOT     Ds4 
	BYTE		        As4 
	BYTE	W01
	BYTE		N68     Gs3   v052
	BYTE	W24
// 052   ----------------------------------------
	BYTE	W48
	BYTE		        As3 
	BYTE	W48
// 053   ----------------------------------------
	BYTE	W24
	BYTE		        Bn3 
	BYTE	W72
// 054   ----------------------------------------
	BYTE		        Cs4 
	BYTE	W72
	BYTE		        Ds4 
	BYTE	W24
// 055   ----------------------------------------
	BYTE	W48
	BYTE		N68   
	BYTE	W48
// 056   ----------------------------------------
	BYTE	W96
// 057   ----------------------------------------
	BYTE	W78
	BYTE		N05     Cs4   v096
	BYTE	W06
	BYTE		        Dn4 
	BYTE	W06
	BYTE		        An4 
	BYTE	W06
// 058   ----------------------------------------
	BYTE		        Dn4 
	BYTE	W06
	BYTE		        Cs4 
	BYTE	W06
	BYTE		        Dn4 
	BYTE	W06
	BYTE		        An4 
	BYTE	W06
	BYTE		        Dn4 
	BYTE	W06
	BYTE		        Cs4 
	BYTE	W06
	BYTE		        Dn4 
	BYTE	W06
	BYTE		        An4 
	BYTE	W12
	BYTE		        Cs4 
	BYTE	W06
	BYTE		        Dn4 
	BYTE	W06
	BYTE		        An4 
	BYTE	W06
	BYTE		        Dn4 
	BYTE	W06
	BYTE		        Cs4 
	BYTE	W06
	BYTE		        Dn4 
	BYTE	W06
	BYTE		        An4 
	BYTE	W06
// 059   ----------------------------------------
	BYTE		        Dn4 
	BYTE	W06
	BYTE		        Cs4 
	BYTE	W06
	BYTE		        Dn4 
	BYTE	W06
	BYTE		        An4 
	BYTE	W12
	BYTE		        En4 
	BYTE	W06
	BYTE		        Fs4 
	BYTE	W06
	BYTE		        Cs5 
	BYTE	W06
	BYTE		        Fs4 
	BYTE	W06
	BYTE		        En4 
	BYTE	W06
	BYTE		        Fs4 
	BYTE	W06
	BYTE		        Cs5 
	BYTE	W06
	BYTE		        Fs4 
	BYTE	W06
	BYTE		        En4 
	BYTE	W06
	BYTE		        Fs4 
	BYTE	W06
	BYTE		        Cs5 
	BYTE	W06
// 060   ----------------------------------------
	BYTE	W06
	BYTE		        Fs4 
	BYTE	W06
	BYTE		        Gn4 
	BYTE	W06
	BYTE		        Dn5 
	BYTE	W06
	BYTE		        Gn4 
	BYTE	W06
	BYTE		        Fs4 
	BYTE	W06
	BYTE		        Gn4 
	BYTE	W06
	BYTE		        Dn5 
	BYTE	W06
	BYTE		        Gn4 
	BYTE	W06
	BYTE		        Fs4 
	BYTE	W06
	BYTE		        Gn4 
	BYTE	W06
	BYTE		        Dn5 
	BYTE	W12
	BYTE		        Gn4 
	BYTE	W06
	BYTE		        An4 
	BYTE	W06
	BYTE		        En5 
	BYTE	W06
// 061   ----------------------------------------
	BYTE		        An4 
	BYTE	W06
	BYTE		        Gn4 
	BYTE	W06
	BYTE		        An4 
	BYTE	W06
	BYTE		        En5 
	BYTE	W06
	BYTE		        An4 
	BYTE	W06
	BYTE		        Gn4 
	BYTE	W06
	BYTE		        An4 
	BYTE	W06
	BYTE		        En5 
	BYTE	W12
	BYTE		        An4 
	BYTE	W06
	BYTE		        Bn4 
	BYTE	W06
	BYTE		        Fs5 
	BYTE	W06
	BYTE		        Bn4 
	BYTE	W06
	BYTE		        An4 
	BYTE	W06
	BYTE		        Bn4 
	BYTE	W06
	BYTE		        Fs5 
	BYTE	W06
// 062   ----------------------------------------
	BYTE		        Bn4 
	BYTE	W06
	BYTE		        An4 
	BYTE	W06
	BYTE		        Bn4 
	BYTE	W06
	BYTE		        Fs5 
	BYTE	W12
	BYTE		        Bn4 
	BYTE	W06
	BYTE		        Cs5 
	BYTE	W06
	BYTE		        Fs5 
	BYTE	W06
	BYTE		        Cs5 
	BYTE	W06
	BYTE		        Bn4 
	BYTE	W06
	BYTE		        Cs5 
	BYTE	W06
	BYTE		        Fs5 
	BYTE	W06
	BYTE		        Cs5 
	BYTE	W06
	BYTE		        Bn4 
	BYTE	W06
	BYTE		        Cs5 
	BYTE	W06
	BYTE		        Fs5 
	BYTE	W06
// 063   ----------------------------------------
	BYTE	W06
	BYTE		        Bn4 
	BYTE	W06
	BYTE		        Cs5 
	BYTE	W06
	BYTE		        Fs5 
	BYTE	W06
	BYTE		        Cs5 
	BYTE	W06
	BYTE		        Bn4 
	BYTE	W06
	BYTE		        Cs5 
	BYTE	W06
	BYTE		        Fs5 
	BYTE	W06
	BYTE		        Cs5 
	BYTE	W06
	BYTE		        Bn4 
	BYTE	W06
	BYTE		        Cs5 
	BYTE	W06
	BYTE		        Fs5 
	BYTE	W12
	BYTE		        As4 
	BYTE	W06
	BYTE		        Cs5 
	BYTE	W06
	BYTE		        Fs5 
	BYTE	W06
// 064   ----------------------------------------
	BYTE		        Cs5 
	BYTE	W06
	BYTE		        As4 
	BYTE	W06
	BYTE		        Cs5 
	BYTE	W06
	BYTE		        Fs5 
	BYTE	W06
	BYTE		        Cs5 
	BYTE	W06
	BYTE		        As4 
	BYTE	W06
	BYTE		        Cs5 
	BYTE	W06
	BYTE		        Fs5   v052
	BYTE	W12
	BYTE		        As4   v127
	BYTE	W06
	BYTE		        Cs5 
	BYTE	W06
	BYTE		        Fs5 
	BYTE	W06
	BYTE		        Cs5 
	BYTE	W06
	BYTE		        As4 
	BYTE	W06
	BYTE		        Cs5 
	BYTE	W06
	BYTE		        Fs5 
	BYTE	W06
// 065   ----------------------------------------
	BYTE		        Cs5 
	BYTE	W06
	BYTE		        As4 
	BYTE	W06
	BYTE		        Cs5 
	BYTE	W06
	BYTE		        Fs5 
	BYTE	W06
// 066   ----------------------------------------
	BYTE	TEMPO   136*IdPurpose_tbs/2
	BYTE		N07     Fs3   v064
	BYTE	W08
	BYTE		        Dn3 
	BYTE	W08
	BYTE		        Bn2 
	BYTE	W08
	BYTE		        Fs3 
	BYTE	W08
	BYTE		        Dn3 
	BYTE	W08
	BYTE		        Fs3 
	BYTE	W08
	BYTE		        Dn4 
	BYTE	W08
	BYTE		        Bn3 
	BYTE	W08
	BYTE		        Fs3 
	BYTE	W08
	BYTE		        Dn3 
	BYTE	W08
	BYTE		        Bn3 
	BYTE	W08
	BYTE		        Fs3 
	BYTE	W08
// 067   ----------------------------------------
IdPurpose_1_067:
	BYTE		N07     Gn3   v064
	BYTE	W08
	BYTE		        En3 
	BYTE	W08
	BYTE		        Bn3 
	BYTE	W08
	BYTE		        En3 
	BYTE	W08
	BYTE		        Gn3 
	BYTE	W08
	BYTE		        Bn3 
	BYTE	W08
	BYTE		        Gn3 
	BYTE	W08
	BYTE		        En3 
	BYTE	W08
	BYTE		        Bn3 
	BYTE	W08
	BYTE		        Gn3 
	BYTE	W08
	BYTE		        En3 
	BYTE	W08
	BYTE		        Bn2 
	BYTE	W08
	BYTE	PEND
// 068   ----------------------------------------
IdPurpose_1_068:
	BYTE		N07     Cs3   v064
	BYTE	W08
	BYTE		        An2 
	BYTE	W08
	BYTE		        Cs3 
	BYTE	W08
	BYTE		        En3 
	BYTE	W08
	BYTE		        Cs3 
	BYTE	W08
	BYTE		        An3 
	BYTE	W08
	BYTE		        Cs4 
	BYTE	W08
	BYTE		        An3 
	BYTE	W08
	BYTE		        En3 
	BYTE	W08
	BYTE		        Cs3 
	BYTE	W08
	BYTE		        En3 
	BYTE	W08
	BYTE		        An3 
	BYTE	W08
	BYTE	PEND
// 069   ----------------------------------------
IdPurpose_1_069:
	BYTE		N07     Dn4   v064
	BYTE	W08
	BYTE		        An3 
	BYTE	W08
	BYTE		        Fs3 
	BYTE	W08
	BYTE		        Dn3 
	BYTE	W08
	BYTE		        Fs3 
	BYTE	W08
	BYTE		        An3 
	BYTE	W08
	BYTE		        Fs3 
	BYTE	W08
	BYTE		        Dn3 
	BYTE	W08
	BYTE		        An3 
	BYTE	W08
	BYTE		        Fs3 
	BYTE	W08
	BYTE		        An3 
	BYTE	W08
	BYTE		        Dn4 
	BYTE	W08
	BYTE	PEND
// 070   ----------------------------------------
IdPurpose_1_070:
	BYTE		N07     Bn3   v064
	BYTE	W08
	BYTE		        Gn3 
	BYTE	W08
	BYTE		        Dn4 
	BYTE	W08
	BYTE		        Gn3 
	BYTE	W08
	BYTE		        Dn3 
	BYTE	W08
	BYTE		        Bn3 
	BYTE	W08
	BYTE		        Dn4 
	BYTE	W08
	BYTE		        Bn3 
	BYTE	W08
	BYTE		        Gn3 
	BYTE	W08
	BYTE		        Dn3 
	BYTE	W08
	BYTE		        Gn3 
	BYTE	W08
	BYTE		        Dn4 
	BYTE	W08
	BYTE	PEND
// 071   ----------------------------------------
IdPurpose_1_071:
	BYTE		N07     Cs4   v064
	BYTE	W08
	BYTE		        Cs3 
	BYTE	W08
	BYTE		        Gn3 
	BYTE	W08
	BYTE		        Cs4 
	BYTE	W08
	BYTE		        En3 
	BYTE	W08
	BYTE		        Gn3 
	BYTE	W08
	BYTE		        Cs4 
	BYTE	W08
	BYTE		        Cs3 
	BYTE	W08
	BYTE		        En3 
	BYTE	W08
	BYTE		        Gn3 
	BYTE	W08
	BYTE		        En3 
	BYTE	W08
	BYTE		        Gn2 
	BYTE	W08
	BYTE	PEND
// 072   ----------------------------------------
IdPurpose_1_072:
	BYTE		N07     Fs3   v064
	BYTE	W08
	BYTE		        Cs3 
	BYTE	W08
	BYTE		        Fs3 
	BYTE	W08
	BYTE		        Cs3 
	BYTE	W08
	BYTE		        As2 
	BYTE	W08
	BYTE		        Cs3 
	BYTE	W08
	BYTE		        Fs3 
	BYTE	W08
	BYTE		        Cs3 
	BYTE	W08
	BYTE		        Fs3 
	BYTE	W08
	BYTE		        As3 
	BYTE	W08
	BYTE		        Fs3 
	BYTE	W08
	BYTE		        As3 
	BYTE	W08
	BYTE	PEND
// 073   ----------------------------------------
IdPurpose_1_073:
	BYTE		N07     Cs4   v064
	BYTE	W08
	BYTE		        As3 
	BYTE	W08
	BYTE		        Fs3 
	BYTE	W08
	BYTE		        Cs3 
	BYTE	W08
	BYTE		        Fs3 
	BYTE	W08
	BYTE		        Cs3 
	BYTE	W08
	BYTE		        As3 
	BYTE	W08
	BYTE		        Fs3 
	BYTE	W08
	BYTE		        As3 
	BYTE	W08
	BYTE		        Fs3 
	BYTE	W08
	BYTE		        En3 
	BYTE	W08
	BYTE		        Cs3 
	BYTE	W08
	BYTE	PEND
// 074   ----------------------------------------
	BYTE		        Fs3 
	BYTE	W08
	BYTE		        Dn3 
	BYTE	W08
	BYTE		        Bn2 
	BYTE	W08
	BYTE		        Fs3 
	BYTE	W08
	BYTE		        Dn3 
	BYTE	W08
	BYTE		        Fs3 
	BYTE	W08
	BYTE		        Dn4 
	BYTE	W08
	BYTE		        Bn3 
	BYTE	W08
	BYTE		        Fs3 
	BYTE	W08
	BYTE		        Dn3 
	BYTE	W08
	BYTE		        Bn3 
	BYTE	W08
	BYTE		        Fs3 
	BYTE	W08
// 075   ----------------------------------------
	BYTE	PATT
	 POIN2	IdPurpose_1_067
// 076   ----------------------------------------
	BYTE	PATT
	 POIN2	IdPurpose_1_068
// 077   ----------------------------------------
	BYTE	PATT
	 POIN2	IdPurpose_1_069
// 078   ----------------------------------------
	BYTE	PATT
	 POIN2	IdPurpose_1_070
// 079   ----------------------------------------
	BYTE	PATT
	 POIN2	IdPurpose_1_071
// 080   ----------------------------------------
	BYTE	PATT
	 POIN2	IdPurpose_1_072
// 081   ----------------------------------------
	BYTE	PATT
	 POIN2	IdPurpose_1_073
// 082   ----------------------------------------
	BYTE		N07     Fs3   v096
	BYTE	W08
	BYTE		        Dn3 
	BYTE	W08
	BYTE		        Bn2 
	BYTE	W08
	BYTE		        Bn3 
	BYTE	W08
	BYTE		        Fs3 
	BYTE	W08
	BYTE		        Bn3 
	BYTE	W08
	BYTE		        Dn4 
	BYTE	W08
	BYTE		        Bn3 
	BYTE	W08
	BYTE		        Fs3 
	BYTE	W08
	BYTE		        Dn3 
	BYTE	W08
	BYTE		        Dn4 
	BYTE	W08
	BYTE		        Bn3 
	BYTE	W08
// 083   ----------------------------------------
	BYTE		        Gn3 
	BYTE	W08
	BYTE		        En3 
	BYTE	W08
	BYTE		        Bn3 
	BYTE	W08
	BYTE		        En3 
	BYTE	W08
	BYTE		        Gn3 
	BYTE	W08
	BYTE		        Bn3 
	BYTE	W08
	BYTE		        Gn3 
	BYTE	W08
	BYTE		        En3 
	BYTE	W08
	BYTE		        Bn3 
	BYTE	W08
	BYTE		        Gn3 
	BYTE	W08
	BYTE		        En3 
	BYTE	W08
	BYTE		        Bn2 
	BYTE	W08
// 084   ----------------------------------------
	BYTE		        Cs3 
	BYTE	W08
	BYTE		        An2 
	BYTE	W08
	BYTE		        Cs3 
	BYTE	W08
	BYTE		        En3 
	BYTE	W08
	BYTE		        Cs3 
	BYTE	W08
	BYTE		        An3 
	BYTE	W08
	BYTE		        Cs4 
	BYTE	W08
	BYTE		        An3 
	BYTE	W08
	BYTE		        En3 
	BYTE	W08
	BYTE		        Cs3 
	BYTE	W08
	BYTE		        En3 
	BYTE	W08
	BYTE		        An3 
	BYTE	W08
// 085   ----------------------------------------
	BYTE		        Dn4 
	BYTE	W08
	BYTE		        An3 
	BYTE	W08
	BYTE		        Fs3 
	BYTE	W08
	BYTE		        Dn3 
	BYTE	W08
	BYTE		        Fs3 
	BYTE	W08
	BYTE		        An3 
	BYTE	W08
	BYTE		        Fs3 
	BYTE	W08
	BYTE		        Dn3 
	BYTE	W08
	BYTE		        An3 
	BYTE	W08
	BYTE		        Fs3 
	BYTE	W08
	BYTE		        An3 
	BYTE	W08
	BYTE		        Dn4 
	BYTE	W08
// 086   ----------------------------------------
	BYTE		        Bn3 
	BYTE	W08
	BYTE		        Gn3 
	BYTE	W08
	BYTE		        Dn4 
	BYTE	W08
	BYTE		        Gn3 
	BYTE	W08
	BYTE		        Dn3 
	BYTE	W08
	BYTE		        Bn3 
	BYTE	W08
	BYTE		        Dn4 
	BYTE	W08
	BYTE		        Bn3 
	BYTE	W08
	BYTE		        Gn3 
	BYTE	W08
	BYTE		        Dn3 
	BYTE	W08
	BYTE		        Gn3 
	BYTE	W08
	BYTE		        Dn4 
	BYTE	W08
// 087   ----------------------------------------
	BYTE		        Cs4 
	BYTE	W08
	BYTE		        Cs3 
	BYTE	W08
	BYTE		        Gn3 
	BYTE	W08
	BYTE		        Cs4 
	BYTE	W08
	BYTE		        Gn3 
	BYTE	W08
	BYTE		        En3 
	BYTE	W08
	BYTE		        Gn3 
	BYTE	W08
	BYTE		        Cs4 
	BYTE	W08
	BYTE		        En4 
	BYTE	W08
	BYTE		        Gn4 
	BYTE	W08
	BYTE		        En4 
	BYTE	W08
	BYTE		        Cs4 
	BYTE	W08
// 088   ----------------------------------------
	BYTE		        Fs3 
	BYTE	W08
	BYTE		        Cs3 
	BYTE	W08
	BYTE		        Fs3 
	BYTE	W08
	BYTE		        Cs4 
	BYTE	W08
	BYTE		        As3 
	BYTE	W08
	BYTE		        Cs4 
	BYTE	W08
	BYTE		        Fs4 
	BYTE	W08
	BYTE		        Cs4 
	BYTE	W08
	BYTE		        Fs4 
	BYTE	W08
	BYTE		        As4 
	BYTE	W08
	BYTE		        Fs4 
	BYTE	W08
	BYTE		        As4 
	BYTE	W08
// 089   ----------------------------------------
	BYTE		        Cs5 
	BYTE	W08
	BYTE		        As4 
	BYTE	W08
	BYTE		        Fs4 
	BYTE	W08
	BYTE		        Cs4 
	BYTE	W08
	BYTE		        Fs4 
	BYTE	W08
	BYTE		        Cs4 
	BYTE	W08
	BYTE		        As3 
	BYTE	W08
	BYTE		        Fs3 
	BYTE	W08
	BYTE		        As3 
	BYTE	W08
	BYTE		        Fs3 
	BYTE	W08
	BYTE		        En3 
	BYTE	W08
	BYTE		        Cs3 
	BYTE	W08
// 090   ----------------------------------------
	BYTE		        Fs3   v112
	BYTE	W08
	BYTE		        Dn3 
	BYTE	W08
	BYTE		        Bn2 
	BYTE	W08
	BYTE		        Bn3 
	BYTE	W08
	BYTE		        Fs3 
	BYTE	W08
	BYTE		        Bn3 
	BYTE	W08
	BYTE		        Dn4 
	BYTE	W08
	BYTE		        Bn3 
	BYTE	W08
	BYTE		        Fs3 
	BYTE	W08
	BYTE		        Fs4 
	BYTE	W08
	BYTE		        Dn4 
	BYTE	W08
	BYTE		        Bn3 
	BYTE	W08
// 091   ----------------------------------------
	BYTE		        Gn4 
	BYTE	W08
	BYTE		        En4 
	BYTE	W08
	BYTE		        Bn3 
	BYTE	W08
	BYTE		        Gn3 
	BYTE	W08
	BYTE		        En4 
	BYTE	W08
	BYTE		        Bn3 
	BYTE	W08
	BYTE		        Gn3 
	BYTE	W08
	BYTE		        En3 
	BYTE	W08
	BYTE		        Bn3 
	BYTE	W08
	BYTE		        Gn3 
	BYTE	W08
	BYTE		        En3 
	BYTE	W08
	BYTE		        Bn2 
	BYTE	W08
// 092   ----------------------------------------
	BYTE		        Cs3 
	BYTE	W08
	BYTE		        An2 
	BYTE	W08
	BYTE		        Cs3 
	BYTE	W08
	BYTE		        En3 
	BYTE	W08
	BYTE		        Cs3 
	BYTE	W08
	BYTE		        An3 
	BYTE	W08
	BYTE		        Cs4 
	BYTE	W08
	BYTE		        An3 
	BYTE	W08
	BYTE		        En3 
	BYTE	W08
	BYTE		        Cs4 
	BYTE	W08
	BYTE		        En3 
	BYTE	W08
	BYTE		        An3 
	BYTE	W08
// 093   ----------------------------------------
	BYTE		        Dn4 
	BYTE	W08
	BYTE		        An3 
	BYTE	W08
	BYTE		        Fs3 
	BYTE	W08
	BYTE		        Dn3 
	BYTE	W08
	BYTE		        Fs3 
	BYTE	W08
	BYTE		        An3 
	BYTE	W08
	BYTE		        Fs3 
	BYTE	W08
	BYTE		        Dn3 
	BYTE	W08
	BYTE		        An3 
	BYTE	W08
	BYTE		        Fs3 
	BYTE	W08
	BYTE		        An3 
	BYTE	W08
	BYTE		        Dn4 
	BYTE	W08
// 094   ----------------------------------------
	BYTE		        Bn3 
	BYTE	W08
	BYTE		        Gn3 
	BYTE	W08
	BYTE		        Dn4 
	BYTE	W08
	BYTE		        Gn3 
	BYTE	W08
	BYTE		        Dn3 
	BYTE	W08
	BYTE		        Bn3 
	BYTE	W08
	BYTE		        Dn4 
	BYTE	W08
	BYTE		        Bn3 
	BYTE	W08
	BYTE		        Gn3 
	BYTE	W08
	BYTE		        Dn3 
	BYTE	W08
	BYTE		        Gn3 
	BYTE	W08
	BYTE		        Dn4 
	BYTE	W08
// 095   ----------------------------------------
	BYTE		        Cs4 
	BYTE	W08
	BYTE		        Cs3 
	BYTE	W08
	BYTE		        Gn3 
	BYTE	W08
	BYTE		        Cs4 
	BYTE	W08
	BYTE		        Gn3 
	BYTE	W08
	BYTE		        En3 
	BYTE	W08
	BYTE		        Gn3 
	BYTE	W08
	BYTE		        Cs4 
	BYTE	W08
	BYTE		        En4 
	BYTE	W08
	BYTE		        Gn4 
	BYTE	W08
	BYTE		        En4 
	BYTE	W08
	BYTE		        Cs4 
	BYTE	W08
// 096   ----------------------------------------
	BYTE		        Fs3 
	BYTE	W08
	BYTE		        Cs3 
	BYTE	W08
	BYTE		        Fs3 
	BYTE	W08
	BYTE		        Cs4 
	BYTE	W08
	BYTE		        As3 
	BYTE	W08
	BYTE		        Cs4 
	BYTE	W08
	BYTE		        Fs4 
	BYTE	W08
	BYTE		        Cs4 
	BYTE	W08
	BYTE		        Fs4 
	BYTE	W08
	BYTE		        As4 
	BYTE	W08
	BYTE		        Fs4 
	BYTE	W08
	BYTE		        As4 
	BYTE	W08
// 097   ----------------------------------------
	BYTE		        Cs5 
	BYTE	W08
	BYTE		        As4   v116
	BYTE	W08
	BYTE		        Fs4 
	BYTE	W08
	BYTE		        Cs4 
	BYTE	W08
	BYTE		        Fs4   v120
	BYTE	W08
	BYTE		        Cs4 
	BYTE	W08
	BYTE		        As3 
	BYTE	W08
	BYTE		        Fs3 
	BYTE	W08
	BYTE		        As3   v124
	BYTE	W08
	BYTE		        Fs3 
	BYTE	W08
	BYTE		        En3 
	BYTE	W08
	BYTE		        Cs3   v127
	BYTE	W08
// 098   ----------------------------------------
	BYTE		        Fs4 
	BYTE	W08
	BYTE		        Dn4 
	BYTE	W08
	BYTE		        Bn3 
	BYTE	W08
	BYTE		        Bn4 
	BYTE	W08
	BYTE		        Fs4 
	BYTE	W08
	BYTE		        Bn4 
	BYTE	W08
	BYTE		        Dn5 
	BYTE	W08
	BYTE		        Bn4 
	BYTE	W08
	BYTE		        Fs4 
	BYTE	W08
	BYTE		        Fs5 
	BYTE	W08
	BYTE		        Dn5 
	BYTE	W08
	BYTE		        Bn4 
	BYTE	W08
// 099   ----------------------------------------
	BYTE		        Gn5 
	BYTE	W08
	BYTE		        En5 
	BYTE	W08
	BYTE		        Bn4 
	BYTE	W08
	BYTE		        Gn4 
	BYTE	W08
	BYTE		        En5 
	BYTE	W08
	BYTE		        Bn4 
	BYTE	W08
	BYTE		        Gn4 
	BYTE	W08
	BYTE		        En4 
	BYTE	W08
	BYTE		        Bn4 
	BYTE	W08
	BYTE		        Gn4 
	BYTE	W08
	BYTE		        En4 
	BYTE	W08
	BYTE		        Bn3 
	BYTE	W08
// 100   ----------------------------------------
	BYTE		        Cs4 
	BYTE	W08
	BYTE		        An3 
	BYTE	W08
	BYTE		        Cs4 
	BYTE	W08
	BYTE		        En4 
	BYTE	W08
	BYTE		        Cs4 
	BYTE	W08
	BYTE		        An4 
	BYTE	W08
	BYTE		        Cs5 
	BYTE	W08
	BYTE		        An4 
	BYTE	W08
	BYTE		        En4 
	BYTE	W08
	BYTE		        Cs5 
	BYTE	W08
	BYTE		        En4 
	BYTE	W08
	BYTE		        An4 
	BYTE	W08
// 101   ----------------------------------------
	BYTE		        Dn5 
	BYTE	W08
	BYTE		        An4 
	BYTE	W08
	BYTE		        Fs4 
	BYTE	W08
	BYTE		        Dn4 
	BYTE	W08
	BYTE		        Fs4 
	BYTE	W08
	BYTE		        An4 
	BYTE	W08
	BYTE		        Fs4 
	BYTE	W08
	BYTE		        Dn4 
	BYTE	W08
	BYTE		        An4 
	BYTE	W08
	BYTE		        Fs4 
	BYTE	W08
	BYTE		        An4 
	BYTE	W08
	BYTE		        Dn5 
	BYTE	W08
// 102   ----------------------------------------
	BYTE		        Bn4 
	BYTE	W08
	BYTE		        Gn4 
	BYTE	W08
	BYTE		        Dn5 
	BYTE	W08
	BYTE		        Gn4 
	BYTE	W08
	BYTE		        Dn4 
	BYTE	W08
	BYTE		        Bn4 
	BYTE	W08
	BYTE		        Dn5 
	BYTE	W08
	BYTE		        Bn4 
	BYTE	W08
	BYTE		        Gn4 
	BYTE	W08
	BYTE		        Dn4 
	BYTE	W08
	BYTE		        Gn4 
	BYTE	W08
	BYTE		        Dn5 
	BYTE	W08
// 103   ----------------------------------------
	BYTE		        Cs5 
	BYTE	W08
	BYTE		        Cs4 
	BYTE	W08
	BYTE		        Gn4 
	BYTE	W08
	BYTE		        Cs5 
	BYTE	W08
	BYTE		        Gn4 
	BYTE	W08
	BYTE		        En4 
	BYTE	W08
	BYTE		        Gn4 
	BYTE	W08
	BYTE		        Cs5 
	BYTE	W08
	BYTE		        En5 
	BYTE	W08
	BYTE		        Gn5 
	BYTE	W08
	BYTE		        En5 
	BYTE	W08
	BYTE		        Cs5 
	BYTE	W08
// 104   ----------------------------------------
	BYTE		        Fs4 
	BYTE	W08
	BYTE		        Cs4 
	BYTE	W08
	BYTE		        Fs4 
	BYTE	W08
	BYTE		        Cs5 
	BYTE	W08
	BYTE		        As4 
	BYTE	W08
	BYTE		        Cs5 
	BYTE	W08
	BYTE		        Fs5 
	BYTE	W08
	BYTE		        Cs5 
	BYTE	W08
	BYTE		        Fs5 
	BYTE	W08
	BYTE		        As5 
	BYTE	W08
	BYTE		        Fs5 
	BYTE	W08
	BYTE		        As5 
	BYTE	W08
// 105   ----------------------------------------
	BYTE		        Cs6 
	BYTE	W08
	BYTE		        As5 
	BYTE	W08
	BYTE		        Fs5 
	BYTE	W08
	BYTE		        Cs5 
	BYTE	W08
	BYTE		        Fs5 
	BYTE	W08
	BYTE		        Cs5 
	BYTE	W08
	BYTE		        As4 
	BYTE	W08
	BYTE		        Fs4 
	BYTE	W08
	BYTE		        As4 
	BYTE	W08
	BYTE		        Fs4 
	BYTE	W08
	BYTE		        En4 
	BYTE	W08
	BYTE		        Cs4 
	BYTE	W08
// 106   ----------------------------------------
	BYTE	TEMPO   104*IdPurpose_tbs/2
	BYTE	W72
// 107   ----------------------------------------
	BYTE	W72
// 108   ----------------------------------------
	BYTE	W72
// 109   ----------------------------------------
	BYTE	W72
// 110   ----------------------------------------
	BYTE	W72
// 111   ----------------------------------------
	BYTE	W72
// 112   ----------------------------------------
	BYTE	W72
// 113   ----------------------------------------
	BYTE	W72
// 114   ----------------------------------------
	BYTE	W72
// 115   ----------------------------------------
	BYTE	W48
	BYTE		N05     Gn3 
	BYTE	W06
	BYTE		        An3 
	BYTE	W06
	BYTE		        As3 
	BYTE	W06
	BYTE		        Fn4 
	BYTE	W06
	BYTE	GoTo
	 POIN2	IdPurpose_1_B1
IdPurpose_1_B2:
// 116   ----------------------------------------
	BYTE	FINE

//**************** Track 2 (Midi-Chn.2) ****************//

IdPurpose_2:
	BYTE	KEYSH   IdPurpose_key+0
// 000   ----------------------------------------
	BYTE		VOICE   40
	BYTE		PAN     c_v-16
	BYTE		VOL     100*IdPurpose_mvl/mxv
	BYTE	W72
IdPurpose_2_B1:
	BYTE	W06
	BYTE		N05     Dn3   v080
	BYTE	W06
	BYTE		        Ds3 
	BYTE	W06
	BYTE		        Fn3 
	BYTE	W06
// 001   ----------------------------------------
IdPurpose_2_001:
	BYTE		N05     Ds3   v080
	BYTE	W06
	BYTE		        Dn3 
	BYTE	W06
	BYTE		        Ds3 
	BYTE	W06
	BYTE		        Fn3 
	BYTE	W06
	BYTE		        Ds3 
	BYTE	W06
	BYTE		        Dn3 
	BYTE	W06
	BYTE		        Ds3 
	BYTE	W06
	BYTE		        Fn3 
	BYTE	W12
	BYTE		        Dn3 
	BYTE	W06
	BYTE		        Ds3 
	BYTE	W06
	BYTE		        Fn3 
	BYTE	W06
	BYTE		        Ds3 
	BYTE	W06
	BYTE		        Dn3 
	BYTE	W06
	BYTE		        Ds3 
	BYTE	W06
	BYTE		        Fn3 
	BYTE	W06
	BYTE	PEND
// 002   ----------------------------------------
IdPurpose_2_002:
	BYTE		N05     Ds3   v080
	BYTE	W06
	BYTE		        Dn3 
	BYTE	W06
	BYTE		        Ds3 
	BYTE	W06
	BYTE		        Fn3 
	BYTE	W12
	BYTE		        Cn3 
	BYTE	W06
	BYTE		        Dn3 
	BYTE	W06
	BYTE		        Fn3 
	BYTE	W06
	BYTE		        Dn3 
	BYTE	W06
	BYTE		        Cn3 
	BYTE	W06
	BYTE		        Dn3 
	BYTE	W06
	BYTE		        Fn3 
	BYTE	W06
	BYTE		        Dn3 
	BYTE	W06
	BYTE		        Cn3 
	BYTE	W06
	BYTE		        Dn3 
	BYTE	W06
	BYTE		        Fn3 
	BYTE	W06
	BYTE	PEND
// 003   ----------------------------------------
IdPurpose_2_003:
	BYTE	W06
	BYTE		N05     Cn3   v080
	BYTE	W06
	BYTE		        Dn3 
	BYTE	W06
	BYTE		        Fn3 
	BYTE	W06
	BYTE		        Dn3 
	BYTE	W06
	BYTE		        Cn3 
	BYTE	W06
	BYTE		        Dn3 
	BYTE	W06
	BYTE		        Fn3 
	BYTE	W06
	BYTE		        Dn3 
	BYTE	W06
	BYTE		        Cn3 
	BYTE	W06
	BYTE		        Dn3 
	BYTE	W06
	BYTE		        Fn3 
	BYTE	W12
	BYTE		        Dn3 
	BYTE	W06
	BYTE		        Ds3 
	BYTE	W06
	BYTE		        Fn3 
	BYTE	W06
	BYTE	PEND
// 004   ----------------------------------------
	BYTE	PATT
	 POIN2	IdPurpose_2_001
// 005   ----------------------------------------
	BYTE	PATT
	 POIN2	IdPurpose_2_002
// 006   ----------------------------------------
	BYTE	PATT
	 POIN2	IdPurpose_2_003
// 007   ----------------------------------------
	BYTE		N05     Gn3   v080
	BYTE	W06
	BYTE		        Ds3 
	BYTE	W06
	BYTE		        Fn3 
	BYTE	W06
	BYTE		        Gn3 
	BYTE	W06
	BYTE		        An3 
	BYTE	W06
	BYTE		        As3 
	BYTE	W06
	BYTE		        An3 
	BYTE	W06
	BYTE		        Gn3 
	BYTE	W06
	BYTE		        Fn3 
	BYTE	W06
	BYTE		        Gn3 
	BYTE	W06
	BYTE		        An3 
	BYTE	W06
	BYTE		        As3 
	BYTE	W06
	BYTE		        Cn4 
	BYTE	W06
	BYTE		        An3 
	BYTE	W06
	BYTE		        As3 
	BYTE	W06
	BYTE		        Cn4 
	BYTE	W06
// 008   ----------------------------------------
	BYTE		        Dn4 
	BYTE	W06
	BYTE		        Gn3 
	BYTE	W06
	BYTE		        Cn4 
	BYTE	W06
	BYTE		        As3 
	BYTE	W12
	BYTE		        An3 
	BYTE	W06
	BYTE		        As3 
	BYTE	W06
	BYTE		        An3 
	BYTE	W06
	BYTE		        Gn3 
	BYTE	W06
	BYTE		        An3 
	BYTE	W06
	BYTE		        As3 
	BYTE	W06
	BYTE		        An3 
	BYTE	W06
	BYTE		        Gn3 
	BYTE	W06
	BYTE		        Fn3 
	BYTE	W06
	BYTE		        Dn3 
	BYTE	W06
	BYTE		        Fn3 
	BYTE	W06
// 009   ----------------------------------------
	BYTE	W06
	BYTE		        En3 
	BYTE	W06
	BYTE		        Fn3 
	BYTE	W06
	BYTE		        Gn3 
	BYTE	W06
	BYTE		        Fn3 
	BYTE	W06
	BYTE		        En3 
	BYTE	W06
	BYTE		        Fn3 
	BYTE	W06
	BYTE		        Gn3 
	BYTE	W06
	BYTE		        An3 
	BYTE	W06
	BYTE		        En3 
	BYTE	W06
	BYTE		        Gn3 
	BYTE	W06
	BYTE		        Fn3 
	BYTE	W12
	BYTE		        Gn3 
	BYTE	W06
	BYTE		        Gs3 
	BYTE	W06
	BYTE		        Ds3 
	BYTE	W06
// 010   ----------------------------------------
	BYTE		        Fn3 
	BYTE	W06
	BYTE		        Cn3 
	BYTE	W06
	BYTE		        Dn3 
	BYTE	W06
	BYTE		        Ds3 
	BYTE	W06
	BYTE		        Fn3 
	BYTE	W06
	BYTE		        Dn3 
	BYTE	W06
	BYTE		        Ds3 
	BYTE	W06
	BYTE		        Dn3 
	BYTE	W12
	BYTE		        As3 
	BYTE	W06
	BYTE		        Cn4 
	BYTE	W06
	BYTE		        Gn3 
	BYTE	W06
	BYTE		        Gs3 
	BYTE	W06
	BYTE		        Cn4 
	BYTE	W06
	BYTE		        As3 
	BYTE	W06
	BYTE		        Gs3 
	BYTE	W06
// 011   ----------------------------------------
	BYTE		N05   
	BYTE	W06
	BYTE		        Cn4 
	BYTE	W06
	BYTE		        As3 
	BYTE	W06
	BYTE		        Gs3 
	BYTE	W12
	BYTE		        Dn3 
	BYTE	W06
	BYTE		        Ds3 
	BYTE	W06
	BYTE		        Fn3 
	BYTE	W06
	BYTE		        Gn3 
	BYTE	W06
	BYTE		        Dn3 
	BYTE	W06
	BYTE		        Ds3 
	BYTE	W06
	BYTE		        Dn3 
	BYTE	W06
	BYTE		        Ds3 
	BYTE	W06
	BYTE		        Fn3 
	BYTE	W06
	BYTE		        Gn3 
	BYTE	W06
	BYTE		        An3 
	BYTE	W06
// 012   ----------------------------------------
	BYTE		        As3 
	BYTE	W06
	BYTE		        Cn4 
	BYTE	W06
	BYTE		        As3 
	BYTE	W06
	BYTE		        An3 
	BYTE	W06
	BYTE		        As3 
	BYTE	W06
	BYTE		        Cn4 
	BYTE	W06
	BYTE		        As3 
	BYTE	W06
	BYTE		        An3 
	BYTE	W06
	BYTE		        As3 
	BYTE	W06
	BYTE		        Gn3 
	BYTE	W06
	BYTE		        Dn4 
	BYTE	W06
	BYTE		        Gn3 
	BYTE	W12
	BYTE		        Dn3 
	BYTE	W06
	BYTE		        Ds3 
	BYTE	W06
	BYTE		        Fn3 
	BYTE	W06
// 013   ----------------------------------------
	BYTE	PATT
	 POIN2	IdPurpose_2_001
// 014   ----------------------------------------
	BYTE	PATT
	 POIN2	IdPurpose_2_002
// 015   ----------------------------------------
	BYTE	W06
	BYTE		N05     Cn3   v080
	BYTE	W06
	BYTE		        Dn3 
	BYTE	W06
	BYTE		        Fn3 
	BYTE	W06
	BYTE		        Dn3 
	BYTE	W06
	BYTE		        Cn3 
	BYTE	W06
	BYTE		        Dn3 
	BYTE	W06
	BYTE		        Fn3 
	BYTE	W06
	BYTE		        Dn3 
	BYTE	W06
	BYTE		        Cn3 
	BYTE	W06
	BYTE		        Dn3 
	BYTE	W06
	BYTE		        Fn3 
	BYTE	W06
	BYTE		        Ds3 
	BYTE	W06
	BYTE		        Dn3 
	BYTE	W06
	BYTE		        Ds3 
	BYTE	W06
	BYTE		        Fn3 
	BYTE	W06
// 016   ----------------------------------------
	BYTE	PATT
	 POIN2	IdPurpose_2_001
// 017   ----------------------------------------
	BYTE	PATT
	 POIN2	IdPurpose_2_002
// 018   ----------------------------------------
	BYTE	PATT
	 POIN2	IdPurpose_2_003
// 019   ----------------------------------------
	BYTE		N05     Gn3   v080
	BYTE	W06
	BYTE		        Ds3 
	BYTE	W06
	BYTE		        Fn3 
	BYTE	W06
	BYTE		        Gn3 
	BYTE	W06
	BYTE		        An3 
	BYTE	W06
	BYTE		        As3 
	BYTE	W06
	BYTE		        An3 
	BYTE	W06
	BYTE		        Gn3 
	BYTE	W12
	BYTE		N05   
	BYTE	W06
	BYTE		        An3 
	BYTE	W06
	BYTE		        As3 
	BYTE	W06
	BYTE		        Cn4 
	BYTE	W06
	BYTE		        An3 
	BYTE	W06
	BYTE		        As3 
	BYTE	W06
	BYTE		        Cn4 
	BYTE	W06
// 020   ----------------------------------------
	BYTE		        Dn4 
	BYTE	W06
	BYTE		        Gn3 
	BYTE	W06
	BYTE		        Cn4 
	BYTE	W06
	BYTE		        As3 
	BYTE	W06
	BYTE		        Gn3 
	BYTE	W06
	BYTE		        An3 
	BYTE	W06
	BYTE		        As3 
	BYTE	W06
	BYTE		        An3 
	BYTE	W06
	BYTE		        Gn3 
	BYTE	W06
	BYTE		        An3 
	BYTE	W06
	BYTE		        As3 
	BYTE	W06
	BYTE		        An3 
	BYTE	W06
	BYTE		        Gn3 
	BYTE	W06
	BYTE		        Fn3 
	BYTE	W06
	BYTE		        Dn3 
	BYTE	W06
	BYTE		        Fn3 
	BYTE	W06
// 021   ----------------------------------------
	BYTE	W06
	BYTE		        Ds3 
	BYTE	W06
	BYTE		        Fn3 
	BYTE	W06
	BYTE		        Gn3 
	BYTE	W06
	BYTE		        Gs3 
	BYTE	W06
	BYTE		        Ds3 
	BYTE	W06
	BYTE		        Fn3 
	BYTE	W06
	BYTE		        Gn3 
	BYTE	W06
	BYTE		        Gs3 
	BYTE	W06
	BYTE		        Ds3 
	BYTE	W06
	BYTE		        Gn3 
	BYTE	W06
	BYTE		        Fn3 
	BYTE	W12
	BYTE		        Cn3 
	BYTE	W06
	BYTE		        Cs3 
	BYTE	W06
	BYTE		        Ds3 
	BYTE	W06
// 022   ----------------------------------------
	BYTE		        Fn3 
	BYTE	W06
	BYTE		        Cn3 
	BYTE	W06
	BYTE		        Cs3 
	BYTE	W06
	BYTE		        Ds3 
	BYTE	W06
	BYTE		        Fn3 
	BYTE	W06
	BYTE		        Cn3 
	BYTE	W06
	BYTE		        Gs3 
	BYTE	W06
	BYTE		        Gn3 
	BYTE	W06
	BYTE		        Bn3 
	BYTE	W06
	BYTE		        As3 
	BYTE	W06
	BYTE		        Gs3 
	BYTE	W06
	BYTE		        Ds3 
	BYTE	W06
	BYTE		        Bn3 
	BYTE	W06
	BYTE		        Cs4 
	BYTE	W06
	BYTE		        As3 
	BYTE	W06
	BYTE		        Gs3 
	BYTE	W06
// 023   ----------------------------------------
	BYTE		        Ds3 
	BYTE	W06
	BYTE		        Fn3 
	BYTE	W06
	BYTE		        Ds3 
	BYTE	W06
	BYTE		        Cs3 
	BYTE	W12
	BYTE		        Ds3 
	BYTE	W06
	BYTE		        Fn3 
	BYTE	W06
	BYTE		        Gs3 
	BYTE	W54
// 024   ----------------------------------------
	BYTE	W96
// 025   ----------------------------------------
	BYTE	W48
	BYTE		N11     Bn3   v096
	BYTE	W48
// 026   ----------------------------------------
	BYTE	W96
// 027   ----------------------------------------
	BYTE		N11   
	BYTE	W96
// 028   ----------------------------------------
	BYTE	W96
// 029   ----------------------------------------
	BYTE	W96
// 030   ----------------------------------------
	BYTE	W48
	BYTE		N05     Bn3   v080
	BYTE	W06
	BYTE		        Cs4 
	BYTE	W06
	BYTE		        Bn3 
	BYTE	W06
	BYTE		        An3 
	BYTE	W30
// 031   ----------------------------------------
	BYTE	W24
	BYTE		        Bn3   v052
	BYTE	W06
	BYTE		        An3   v064
	BYTE	W06
	BYTE		        Bn3   v080
	BYTE	W06
	BYTE		        En4   v096
	BYTE	W06
	BYTE		        Gn3 
	BYTE	W06
	BYTE		        Fn3   v088
	BYTE	W06
	BYTE		        Gn3   v076
	BYTE	W06
	BYTE		        Dn4   v064
	BYTE	W30
// 032   ----------------------------------------
	BYTE	W72
	BYTE		        Gn3   v052
	BYTE	W06
	BYTE		        Fn3   v064
	BYTE	W06
	BYTE		        Gn3   v080
	BYTE	W06
	BYTE		        Dn4   v096
	BYTE	W06
// 033   ----------------------------------------
	BYTE	W06
	BYTE		        Ds3 
	BYTE	W06
	BYTE		        Fn3 
	BYTE	W06
	BYTE		        Cn4 
	BYTE	W06
	BYTE		        Fn3 
	BYTE	W06
	BYTE		        Ds3 
	BYTE	W06
	BYTE		        Fn3 
	BYTE	W06
	BYTE		        Cn4 
	BYTE	W54
// 034   ----------------------------------------
	BYTE	W96
// 035   ----------------------------------------
	BYTE	W96
// 036   ----------------------------------------
	BYTE	W48
	BYTE		N05   
	BYTE	W06
	BYTE		        Ds4 
	BYTE	W06
	BYTE		        Cn4 
	BYTE	W06
	BYTE		        An3 
	BYTE	W30
// 037   ----------------------------------------
	BYTE	W96
// 038   ----------------------------------------
	BYTE	W30
	BYTE		        Dn3 
	BYTE	W06
	BYTE		        Ds3 
	BYTE	W06
	BYTE		        Fn3 
	BYTE	W06
	BYTE		        Ds3 
	BYTE	W06
	BYTE		        Dn3 
	BYTE	W06
	BYTE		        Ds3 
	BYTE	W06
	BYTE		        Fn3 
	BYTE	W06
	BYTE		        Ds3 
	BYTE	W06
	BYTE		        Dn3 
	BYTE	W06
	BYTE		        Ds3 
	BYTE	W06
	BYTE		        Fn3 
	BYTE	W06
// 039   ----------------------------------------
IdPurpose_2_039:
	BYTE	W06
	BYTE		N05     Dn3   v096
	BYTE	W06
	BYTE		        Ds3 
	BYTE	W06
	BYTE		        Fn3 
	BYTE	W06
	BYTE		        Ds3 
	BYTE	W06
	BYTE		        Dn3 
	BYTE	W06
	BYTE		        Ds3 
	BYTE	W06
	BYTE		        Fn3 
	BYTE	W06
	BYTE		        Ds3 
	BYTE	W06
	BYTE		        Dn3 
	BYTE	W06
	BYTE		        Ds3 
	BYTE	W06
	BYTE		        Fn3 
	BYTE	W12
	BYTE		        Cn3 
	BYTE	W06
	BYTE		        Dn3 
	BYTE	W06
	BYTE		        Fn3 
	BYTE	W06
	BYTE	PEND
// 040   ----------------------------------------
IdPurpose_2_040:
	BYTE		N05     Dn3   v096
	BYTE	W06
	BYTE		        Cn3 
	BYTE	W06
	BYTE		        Dn3 
	BYTE	W06
	BYTE		        Fn3 
	BYTE	W06
	BYTE		        Dn3 
	BYTE	W06
	BYTE		        Cn3 
	BYTE	W06
	BYTE		        Dn3 
	BYTE	W06
	BYTE		        Fn3 
	BYTE	W12
	BYTE		        Cn3 
	BYTE	W06
	BYTE		        Dn3 
	BYTE	W06
	BYTE		        Fn3 
	BYTE	W06
	BYTE		        Dn3 
	BYTE	W06
	BYTE		        Cn3 
	BYTE	W06
	BYTE		        Dn3 
	BYTE	W06
	BYTE		        Fn3 
	BYTE	W06
	BYTE	PEND
// 041   ----------------------------------------
	BYTE		        Dn3 
	BYTE	W06
	BYTE		        Cn3 
	BYTE	W06
	BYTE		        Dn3 
	BYTE	W06
	BYTE		        Fn3 
	BYTE	W06
	BYTE		        Ds3 
	BYTE	W06
	BYTE		        Dn3 
	BYTE	W06
	BYTE		        Ds3 
	BYTE	W06
	BYTE		        Fn3 
	BYTE	W06
	BYTE		        Ds3 
	BYTE	W06
	BYTE		        Dn3 
	BYTE	W06
	BYTE		        Ds3 
	BYTE	W06
	BYTE		        Fn3 
	BYTE	W06
	BYTE		        Ds3 
	BYTE	W06
	BYTE		        Dn3 
	BYTE	W06
	BYTE		        Ds3 
	BYTE	W06
	BYTE		        Fn3 
	BYTE	W06
// 042   ----------------------------------------
	BYTE	PATT
	 POIN2	IdPurpose_2_039
// 043   ----------------------------------------
	BYTE	PATT
	 POIN2	IdPurpose_2_040
// 044   ----------------------------------------
	BYTE		N05     Dn3   v096
	BYTE	W06
	BYTE		        Cn3 
	BYTE	W06
	BYTE		        Dn3 
	BYTE	W06
	BYTE		        Fn3 
	BYTE	W12
	BYTE		        Dn3 
	BYTE	W06
	BYTE		        Ds3 
	BYTE	W06
	BYTE		        Fn3 
	BYTE	W06
	BYTE		        Gn3 
	BYTE	W06
	BYTE		        Ds3 
	BYTE	W06
	BYTE		        Fn3 
	BYTE	W06
	BYTE		        Gn3 
	BYTE	W06
	BYTE		        An3 
	BYTE	W06
	BYTE		        As3 
	BYTE	W06
	BYTE		        An3 
	BYTE	W06
	BYTE		        Gn3 
	BYTE	W06
// 045   ----------------------------------------
	BYTE	W06
	BYTE		N05   
	BYTE	W06
	BYTE		        An3 
	BYTE	W06
	BYTE		        As3 
	BYTE	W06
	BYTE		        Cn4 
	BYTE	W06
	BYTE		        An3 
	BYTE	W06
	BYTE		        As3 
	BYTE	W06
	BYTE		        Cn4 
	BYTE	W06
	BYTE		        Dn4 
	BYTE	W06
	BYTE		        Gn3 
	BYTE	W06
	BYTE		        Cn4 
	BYTE	W06
	BYTE		        As3 
	BYTE	W06
	BYTE		        Gn3 
	BYTE	W06
	BYTE		        An3 
	BYTE	W06
	BYTE		        As3 
	BYTE	W06
	BYTE		        An3 
	BYTE	W06
// 046   ----------------------------------------
	BYTE		        Gn3 
	BYTE	W06
	BYTE		        An3 
	BYTE	W06
	BYTE		        As3 
	BYTE	W06
	BYTE		        An3 
	BYTE	W06
	BYTE		        Gn3 
	BYTE	W06
	BYTE		        Fn3 
	BYTE	W06
	BYTE		        Dn3 
	BYTE	W06
	BYTE		        Fn3 
	BYTE	W12
	BYTE		        Ds3 
	BYTE	W06
	BYTE		        Fn3 
	BYTE	W06
	BYTE		        Gn3 
	BYTE	W06
	BYTE		        Gs3 
	BYTE	W06
	BYTE		        Ds3 
	BYTE	W06
	BYTE		        Fn3 
	BYTE	W06
	BYTE		        Gn3 
	BYTE	W06
// 047   ----------------------------------------
	BYTE		        Gs3 
	BYTE	W06
	BYTE		        Ds3 
	BYTE	W06
	BYTE		        Gn3 
	BYTE	W06
	BYTE		        Fn3 
	BYTE	W12
	BYTE		        Cn3 
	BYTE	W06
	BYTE		        Cs3 
	BYTE	W06
	BYTE		        Ds3 
	BYTE	W06
	BYTE		        Fn3 
	BYTE	W06
	BYTE		        Cn3 
	BYTE	W06
	BYTE		        Cs3 
	BYTE	W06
	BYTE		        Ds3 
	BYTE	W06
	BYTE		        Fn3 
	BYTE	W06
	BYTE		        Cn3 
	BYTE	W06
	BYTE		        Gs3 
	BYTE	W06
	BYTE		        Gn3 
	BYTE	W06
// 048   ----------------------------------------
	BYTE		        Bn3 
	BYTE	W06
	BYTE		        As3 
	BYTE	W06
	BYTE		        Gs3 
	BYTE	W06
	BYTE		        Ds3 
	BYTE	W06
	BYTE		        Bn3 
	BYTE	W06
	BYTE		        Cs4 
	BYTE	W06
	BYTE		        As3 
	BYTE	W06
	BYTE		        Gs3 
	BYTE	W06
	BYTE		        Ds3 
	BYTE	W06
	BYTE		        Fn3 
	BYTE	W06
	BYTE		        Ds3 
	BYTE	W06
	BYTE		        Cs3 
	BYTE	W12
	BYTE		        Ds3 
	BYTE	W06
	BYTE		        Fn3   v092
	BYTE	W06
	BYTE		        Gs3   v088
	BYTE	W06
// 049   ----------------------------------------
	BYTE		        Ds3   v084
	BYTE	W06
	BYTE		        Cs3   v080
	BYTE	W06
	BYTE		        Ds3   v076
	BYTE	W06
	BYTE		        Gs3   v072
	BYTE	W06
	BYTE		        As3   v068
	BYTE	W06
	BYTE		        Fn3   v064
	BYTE	W06
	BYTE		        As3   v060
	BYTE	W06
	BYTE		        Fn3   v056
	BYTE	W12
	BYTE		        Ds3   v052
	BYTE	W06
	BYTE		        Fn3 
	BYTE	W06
	BYTE		        Gs3 
	BYTE	W06
	BYTE		        Ds3 
	BYTE	W06
	BYTE		        Cs3 
	BYTE	W06
	BYTE		        Ds3 
	BYTE	W06
	BYTE		        Gs3 
	BYTE	W06
// 050   ----------------------------------------
	BYTE		        As3 
	BYTE	W06
	BYTE		        Fn3 
	BYTE	W06
	BYTE		        As3 
	BYTE	W06
	BYTE		        Fn3 
	BYTE	W12
	BYTE		        Ds3   v096
	BYTE	W06
	BYTE		        Fn3 
	BYTE	W06
	BYTE		        Gs3 
	BYTE	W06
	BYTE		        As3 
	BYTE	W06
	BYTE		        Gs3 
	BYTE	W06
	BYTE		        Fn3 
	BYTE	W06
	BYTE		        Ds3 
	BYTE	W06
	BYTE		        Fn3 
	BYTE	W06
	BYTE		        Gs3 
	BYTE	W06
	BYTE		        As3 
	BYTE	W06
	BYTE		        Ds4 
	BYTE	W06
// 051   ----------------------------------------
	BYTE		        As3 
	BYTE	W06
	BYTE		        Ds4 
	BYTE	W06
	BYTE		        As3 
	BYTE	W06
	BYTE		        Gs3 
	BYTE	W06
	BYTE		        As3 
	BYTE	W06
	BYTE		        Ds4 
	BYTE	W06
	BYTE		        As3 
	BYTE	W06
	BYTE		        Gs3 
	BYTE	W06
	BYTE		        As3 
	BYTE	W06
	BYTE		        Gs3 
	BYTE	W06
	BYTE		        Ds4 
	BYTE	W06
	BYTE		        Gs3 
	BYTE	W06
	BYTE		N68     Gs2   v052
	BYTE	W24
// 052   ----------------------------------------
	BYTE	W48
	BYTE		        As2 
	BYTE	W48
// 053   ----------------------------------------
	BYTE	W24
	BYTE		        Bn2 
	BYTE	W72
// 054   ----------------------------------------
	BYTE		        Cs3 
	BYTE	W72
	BYTE		        Ds3 
	BYTE	W24
// 055   ----------------------------------------
	BYTE	W48
	BYTE		N68   
	BYTE	W48
// 056   ----------------------------------------
	BYTE	W96
// 057   ----------------------------------------
	BYTE	W78
	BYTE		N05     Cs3   v096
	BYTE	W06
	BYTE		        Dn3 
	BYTE	W06
	BYTE		        An3 
	BYTE	W06
// 058   ----------------------------------------
	BYTE		        Dn3 
	BYTE	W06
	BYTE		        Cs3 
	BYTE	W06
	BYTE		        Dn3 
	BYTE	W06
	BYTE		        An3 
	BYTE	W06
	BYTE		        Dn3 
	BYTE	W06
	BYTE		        Cs3 
	BYTE	W06
	BYTE		        Dn3 
	BYTE	W06
	BYTE		        An3 
	BYTE	W12
	BYTE		        Cs3 
	BYTE	W06
	BYTE		        Dn3 
	BYTE	W06
	BYTE		        An3 
	BYTE	W06
	BYTE		        Dn3 
	BYTE	W06
	BYTE		        Cs3 
	BYTE	W06
	BYTE		        Dn3 
	BYTE	W06
	BYTE		        An3 
	BYTE	W06
// 059   ----------------------------------------
	BYTE		        Dn3 
	BYTE	W06
	BYTE		        Cs3 
	BYTE	W06
	BYTE		        Dn3 
	BYTE	W06
	BYTE		        An3 
	BYTE	W12
	BYTE		        En3 
	BYTE	W06
	BYTE		        Fs3 
	BYTE	W06
	BYTE		        Cs4 
	BYTE	W06
	BYTE		        Fs3 
	BYTE	W06
	BYTE		        En3 
	BYTE	W06
	BYTE		        Fs3 
	BYTE	W06
	BYTE		        Cs4 
	BYTE	W06
	BYTE		        Fs3 
	BYTE	W06
	BYTE		        En3 
	BYTE	W06
	BYTE		        Fs3 
	BYTE	W06
	BYTE		        Cs4 
	BYTE	W06
// 060   ----------------------------------------
	BYTE	W06
	BYTE		        Fs3 
	BYTE	W06
	BYTE		        Gn3 
	BYTE	W06
	BYTE		        Dn4 
	BYTE	W06
	BYTE		        Gn3 
	BYTE	W06
	BYTE		        Fs3 
	BYTE	W06
	BYTE		        Gn3 
	BYTE	W06
	BYTE		        Dn4 
	BYTE	W06
	BYTE		        Gn3 
	BYTE	W06
	BYTE		        Fs3 
	BYTE	W06
	BYTE		        Gn3 
	BYTE	W06
	BYTE		        Dn4 
	BYTE	W12
	BYTE		        Gn3 
	BYTE	W06
	BYTE		        An3 
	BYTE	W06
	BYTE		        En4 
	BYTE	W06
// 061   ----------------------------------------
	BYTE		        An3 
	BYTE	W06
	BYTE		        Gn3 
	BYTE	W06
	BYTE		        An3 
	BYTE	W06
	BYTE		        En4 
	BYTE	W06
	BYTE		        An3 
	BYTE	W06
	BYTE		        Gn3 
	BYTE	W06
	BYTE		        An3 
	BYTE	W06
	BYTE		        En4 
	BYTE	W12
	BYTE		        An3 
	BYTE	W06
	BYTE		        Bn3 
	BYTE	W06
	BYTE		        Fs4 
	BYTE	W06
	BYTE		        Bn3 
	BYTE	W06
	BYTE		        An3 
	BYTE	W06
	BYTE		        Bn3 
	BYTE	W06
	BYTE		        Fs4 
	BYTE	W06
// 062   ----------------------------------------
	BYTE		        Bn3 
	BYTE	W06
	BYTE		        An3 
	BYTE	W06
	BYTE		        Bn3 
	BYTE	W06
	BYTE		        Fs4 
	BYTE	W12
	BYTE		        Bn3 
	BYTE	W06
	BYTE		        Cs4 
	BYTE	W06
	BYTE		        Fs4 
	BYTE	W06
	BYTE		        Cs4 
	BYTE	W06
	BYTE		        Bn3 
	BYTE	W06
	BYTE		        Cs4 
	BYTE	W06
	BYTE		        Fs4 
	BYTE	W06
	BYTE		        Cs4 
	BYTE	W06
	BYTE		        Bn3 
	BYTE	W06
	BYTE		        Cs4 
	BYTE	W06
	BYTE		        Fs4 
	BYTE	W06
// 063   ----------------------------------------
	BYTE	W06
	BYTE		        Bn3 
	BYTE	W06
	BYTE		        Cs4 
	BYTE	W06
	BYTE		        Fs4 
	BYTE	W06
	BYTE		        Cs4 
	BYTE	W06
	BYTE		        Bn3 
	BYTE	W06
	BYTE		        Cs4 
	BYTE	W06
	BYTE		        Fs4 
	BYTE	W06
	BYTE		        Cs4 
	BYTE	W06
	BYTE		        Bn3 
	BYTE	W06
	BYTE		        Cs4 
	BYTE	W06
	BYTE		        Fs4 
	BYTE	W12
	BYTE		        As3 
	BYTE	W06
	BYTE		        Cs4 
	BYTE	W06
	BYTE		        Fs4 
	BYTE	W06
// 064   ----------------------------------------
	BYTE		        Cs4 
	BYTE	W06
	BYTE		        As3 
	BYTE	W06
	BYTE		        Cs4 
	BYTE	W06
	BYTE		        Fs4 
	BYTE	W06
	BYTE		        Cs4 
	BYTE	W06
	BYTE		        As3 
	BYTE	W06
	BYTE		        Cs4 
	BYTE	W06
	BYTE		        Fs4   v052
	BYTE	W12
	BYTE		        As3   v127
	BYTE	W06
	BYTE		        Cs4 
	BYTE	W06
	BYTE		        Fs4 
	BYTE	W06
	BYTE		        Cs4 
	BYTE	W06
	BYTE		        As3 
	BYTE	W06
	BYTE		        Cs4 
	BYTE	W06
	BYTE		        Fs4 
	BYTE	W06
// 065   ----------------------------------------
	BYTE		        Cs4 
	BYTE	W06
	BYTE		        As3 
	BYTE	W06
	BYTE		        Cs4 
	BYTE	W06
	BYTE		        Fs4 
	BYTE	W06
// 066   ----------------------------------------
IdPurpose_2_066:
	BYTE	W24
	BYTE		N23     Dn3   v080
	BYTE	W24
	BYTE		        En3 
	BYTE	W24
	BYTE		        Fs3 
	BYTE	W24
	BYTE	PEND
// 067   ----------------------------------------
IdPurpose_2_067:
	BYTE		N23     Gn3   v080
	BYTE	W24
	BYTE		        Fs3 
	BYTE	W24
	BYTE		        En3 
	BYTE	W24
	BYTE		        Bn2 
	BYTE	W24
	BYTE	PEND
// 068   ----------------------------------------
IdPurpose_2_068:
	BYTE		N23     An2   v080
	BYTE	W24
	BYTE		        Bn2 
	BYTE	W24
	BYTE		        Cs3 
	BYTE	W24
	BYTE		        En3 
	BYTE	W24
	BYTE	PEND
// 069   ----------------------------------------
IdPurpose_2_069:
	BYTE		N23     Dn3   v080
	BYTE	W24
	BYTE		        Cs3 
	BYTE	W24
	BYTE		        Dn3 
	BYTE	W24
	BYTE		        An2 
	BYTE	W24
	BYTE	PEND
// 070   ----------------------------------------
IdPurpose_2_070:
	BYTE		N23     Bn2   v080
	BYTE	W24
	BYTE		N23   
	BYTE	W24
	BYTE		N23   
	BYTE	W24
	BYTE		        Dn3 
	BYTE	W24
	BYTE	PEND
// 071   ----------------------------------------
IdPurpose_2_071:
	BYTE		N23     Cs3   v080
	BYTE	W24
	BYTE		        Dn3 
	BYTE	W24
	BYTE		        En3 
	BYTE	W24
	BYTE		        Cs3 
	BYTE	W24
	BYTE	PEND
// 072   ----------------------------------------
	BYTE	PATT
	 POIN2	IdPurpose_2_071
// 073   ----------------------------------------
IdPurpose_2_073:
	BYTE		N23     As2   v080
	BYTE	W24
	BYTE		        Bn2 
	BYTE	W24
	BYTE		        Cs3 
	BYTE	W24
	BYTE		N23   
	BYTE	W24
	BYTE	PEND
// 074   ----------------------------------------
	BYTE	PATT
	 POIN2	IdPurpose_2_066
// 075   ----------------------------------------
	BYTE	PATT
	 POIN2	IdPurpose_2_067
// 076   ----------------------------------------
	BYTE	PATT
	 POIN2	IdPurpose_2_068
// 077   ----------------------------------------
	BYTE	PATT
	 POIN2	IdPurpose_2_069
// 078   ----------------------------------------
	BYTE	PATT
	 POIN2	IdPurpose_2_070
// 079   ----------------------------------------
	BYTE	PATT
	 POIN2	IdPurpose_2_071
// 080   ----------------------------------------
	BYTE	PATT
	 POIN2	IdPurpose_2_071
// 081   ----------------------------------------
	BYTE	PATT
	 POIN2	IdPurpose_2_073
// 082   ----------------------------------------
	BYTE		N23     Dn3   v080
	BYTE	W24
	BYTE		N23   
	BYTE	W24
	BYTE		        En3 
	BYTE	W24
	BYTE		        Fs3 
	BYTE	W24
// 083   ----------------------------------------
	BYTE	PATT
	 POIN2	IdPurpose_2_067
// 084   ----------------------------------------
	BYTE	PATT
	 POIN2	IdPurpose_2_068
// 085   ----------------------------------------
	BYTE	PATT
	 POIN2	IdPurpose_2_069
// 086   ----------------------------------------
	BYTE	PATT
	 POIN2	IdPurpose_2_070
// 087   ----------------------------------------
	BYTE	PATT
	 POIN2	IdPurpose_2_071
// 088   ----------------------------------------
	BYTE	PATT
	 POIN2	IdPurpose_2_071
// 089   ----------------------------------------
	BYTE	PATT
	 POIN2	IdPurpose_2_073
// 090   ----------------------------------------
	BYTE		N23     Dn3   v112
	BYTE	W24
	BYTE		N23   
	BYTE	W24
	BYTE		        En3 
	BYTE	W24
	BYTE		        Fs3 
	BYTE	W24
// 091   ----------------------------------------
	BYTE		        Gn3 
	BYTE	W24
	BYTE		        Fs3 
	BYTE	W24
	BYTE		        En3 
	BYTE	W24
	BYTE		        Bn2 
	BYTE	W24
// 092   ----------------------------------------
	BYTE		        An2 
	BYTE	W24
	BYTE		        Bn2 
	BYTE	W24
	BYTE		        Cs3 
	BYTE	W24
	BYTE		        En3 
	BYTE	W24
// 093   ----------------------------------------
	BYTE		        Dn3 
	BYTE	W24
	BYTE		        Cs3 
	BYTE	W24
	BYTE		        Dn3 
	BYTE	W24
	BYTE		        An2 
	BYTE	W24
// 094   ----------------------------------------
	BYTE		        Bn2 
	BYTE	W24
	BYTE		N23   
	BYTE	W24
	BYTE		N23   
	BYTE	W24
	BYTE		        Dn3 
	BYTE	W24
// 095   ----------------------------------------
IdPurpose_2_095:
	BYTE		N23     Cs3   v112
	BYTE	W24
	BYTE		        Dn3 
	BYTE	W24
	BYTE		        En3 
	BYTE	W24
	BYTE		        Cs3 
	BYTE	W24
	BYTE	PEND
// 096   ----------------------------------------
	BYTE	PATT
	 POIN2	IdPurpose_2_095
// 097   ----------------------------------------
	BYTE		N23     As2   v112
	BYTE	W24
	BYTE		        Bn2   v116
	BYTE	W24
	BYTE		        Cs3   v124
	BYTE	W24
	BYTE		        Cs3   v127
	BYTE	W24
// 098   ----------------------------------------
	BYTE		N07     Fs3 
	BYTE	W08
	BYTE		        Dn3 
	BYTE	W08
	BYTE		        Bn2 
	BYTE	W08
	BYTE		        Bn3 
	BYTE	W08
	BYTE		        Fs3 
	BYTE	W08
	BYTE		        Bn3 
	BYTE	W08
	BYTE		        Dn4 
	BYTE	W08
	BYTE		        Bn3 
	BYTE	W08
	BYTE		        Fs3 
	BYTE	W08
	BYTE		        Fs4 
	BYTE	W08
	BYTE		        Dn4 
	BYTE	W08
	BYTE		        Bn3 
	BYTE	W08
// 099   ----------------------------------------
	BYTE		        Gn4 
	BYTE	W08
	BYTE		        En4 
	BYTE	W08
	BYTE		        Bn3 
	BYTE	W08
	BYTE		        Gn3 
	BYTE	W08
	BYTE		        En4 
	BYTE	W08
	BYTE		        Bn3 
	BYTE	W08
	BYTE		        Gn3 
	BYTE	W08
	BYTE		        En3 
	BYTE	W08
	BYTE		        Bn3 
	BYTE	W08
	BYTE		        Gn3 
	BYTE	W08
	BYTE		        En3 
	BYTE	W08
	BYTE		        Bn2 
	BYTE	W08
// 100   ----------------------------------------
	BYTE		        Cs3 
	BYTE	W08
	BYTE		        An2 
	BYTE	W08
	BYTE		        Cs3 
	BYTE	W08
	BYTE		        En3 
	BYTE	W08
	BYTE		        Cs3 
	BYTE	W08
	BYTE		        An3 
	BYTE	W08
	BYTE		        Cs4 
	BYTE	W08
	BYTE		        An3 
	BYTE	W08
	BYTE		        En3 
	BYTE	W08
	BYTE		        Cs4 
	BYTE	W08
	BYTE		        En3 
	BYTE	W08
	BYTE		        An3 
	BYTE	W08
// 101   ----------------------------------------
	BYTE		        Dn4 
	BYTE	W08
	BYTE		        An3 
	BYTE	W08
	BYTE		        Fs3 
	BYTE	W08
	BYTE		        Dn3 
	BYTE	W08
	BYTE		        Fs3 
	BYTE	W08
	BYTE		        An3 
	BYTE	W08
	BYTE		        Fs3 
	BYTE	W08
	BYTE		        Dn3 
	BYTE	W08
	BYTE		        An3 
	BYTE	W08
	BYTE		        Fs3 
	BYTE	W08
	BYTE		        An3 
	BYTE	W08
	BYTE		        Dn4 
	BYTE	W08
// 102   ----------------------------------------
	BYTE		        Bn3 
	BYTE	W08
	BYTE		        Gn3 
	BYTE	W08
	BYTE		        Dn4 
	BYTE	W08
	BYTE		        Gn3 
	BYTE	W08
	BYTE		        Dn3 
	BYTE	W08
	BYTE		        Bn3 
	BYTE	W08
	BYTE		        Dn4 
	BYTE	W08
	BYTE		        Bn3 
	BYTE	W08
	BYTE		        Gn3 
	BYTE	W08
	BYTE		        Dn3 
	BYTE	W08
	BYTE		        Gn3 
	BYTE	W08
	BYTE		        Dn4 
	BYTE	W08
// 103   ----------------------------------------
	BYTE		        Cs4 
	BYTE	W08
	BYTE		        Cs3 
	BYTE	W08
	BYTE		        Gn3 
	BYTE	W08
	BYTE		        Cs4 
	BYTE	W08
	BYTE		        Gn3 
	BYTE	W08
	BYTE		        En3 
	BYTE	W08
	BYTE		        Gn3 
	BYTE	W08
	BYTE		        Cs4 
	BYTE	W08
	BYTE		        En4 
	BYTE	W08
	BYTE		        Gn4 
	BYTE	W08
	BYTE		        En4 
	BYTE	W08
	BYTE		        Cs4 
	BYTE	W08
// 104   ----------------------------------------
	BYTE		        Fs3 
	BYTE	W08
	BYTE		        Cs3 
	BYTE	W08
	BYTE		        Fs3 
	BYTE	W08
	BYTE		        Cs4 
	BYTE	W08
	BYTE		        As3 
	BYTE	W08
	BYTE		        Cs4 
	BYTE	W08
	BYTE		        Fs4 
	BYTE	W08
	BYTE		        Cs4 
	BYTE	W08
	BYTE		        Fs4 
	BYTE	W08
	BYTE		        As4 
	BYTE	W08
	BYTE		        Fs4 
	BYTE	W08
	BYTE		        As4 
	BYTE	W08
// 105   ----------------------------------------
	BYTE		        Cs5 
	BYTE	W08
	BYTE		        As4 
	BYTE	W08
	BYTE		        Fs4 
	BYTE	W08
	BYTE		        Cs4 
	BYTE	W08
	BYTE		        Fs4 
	BYTE	W08
	BYTE		        Cs4 
	BYTE	W08
	BYTE		        As3 
	BYTE	W08
	BYTE		        Fs3 
	BYTE	W08
	BYTE		        As3 
	BYTE	W08
	BYTE		        Fs3 
	BYTE	W08
	BYTE		        En3 
	BYTE	W08
	BYTE		        Cs3 
	BYTE	W08
// 106   ----------------------------------------
	BYTE	W72
// 107   ----------------------------------------
	BYTE	W72
// 108   ----------------------------------------
	BYTE	W72
// 109   ----------------------------------------
	BYTE	W72
// 110   ----------------------------------------
	BYTE	W72
// 111   ----------------------------------------
	BYTE	W72
// 112   ----------------------------------------
	BYTE	W72
// 113   ----------------------------------------
	BYTE	W72
// 114   ----------------------------------------
	BYTE	W72
// 115   ----------------------------------------
	BYTE	W72
	BYTE	GoTo
	 POIN2	IdPurpose_2_B1
IdPurpose_2_B2:
// 116   ----------------------------------------
	BYTE	FINE

//**************** Track 3 (Midi-Chn.3) ****************//

IdPurpose_3:
	BYTE	KEYSH   IdPurpose_key+0
// 000   ----------------------------------------
	BYTE		VOICE   41
	BYTE		PAN     c_v+7
	BYTE		VOL     100*IdPurpose_mvl/mxv
	BYTE	W48
	BYTE		N05     Gn2   v096
	BYTE	W06
	BYTE		        An2 
	BYTE	W06
	BYTE		        As2 
	BYTE	W06
	BYTE		        Fn3 
	BYTE	W06
IdPurpose_3_B1:
	BYTE		N44     Cn3   v096
	BYTE	W24
// 001   ----------------------------------------
IdPurpose_3_001:
	BYTE	W24
	BYTE		N23     As2   v096
	BYTE	W24
	BYTE		N44     An2 
	BYTE	W48
	BYTE	PEND
// 002   ----------------------------------------
IdPurpose_3_002:
	BYTE		N23     Gn2   v096
	BYTE	W24
	BYTE		TIE     Fn2 
	BYTE	W72
	BYTE	PEND
// 003   ----------------------------------------
	BYTE	W44
	BYTE	W03
	BYTE		EOT   
	BYTE	W01
	BYTE		N05     Gn2 
	BYTE	W06
	BYTE		        An2 
	BYTE	W06
	BYTE		        As2 
	BYTE	W06
	BYTE		        Gn2 
	BYTE	W06
	BYTE		N44     Cn3 
	BYTE	W24
// 004   ----------------------------------------
IdPurpose_3_004:
	BYTE	W24
	BYTE		N11     Dn3   v096
	BYTE	W12
	BYTE		        As3 
	BYTE	W12
	BYTE		N23   
	BYTE	W24
	BYTE		        An3 
	BYTE	W24
	BYTE	PEND
// 005   ----------------------------------------
IdPurpose_3_005:
	BYTE		N23     Gn3   v096
	BYTE	W24
	BYTE		N56     Fn3 
	BYTE	W60
	BYTE		N05     Ds3 
	BYTE	W06
	BYTE		        Dn3 
	BYTE	W06
	BYTE	PEND
// 006   ----------------------------------------
IdPurpose_3_006:
	BYTE		N68     Cn3   v096
	BYTE	W72
	BYTE		N44     Ds3 
	BYTE	W24
	BYTE	PEND
// 007   ----------------------------------------
IdPurpose_3_007:
	BYTE	W24
	BYTE		N23     Fn3   v096
	BYTE	W24
	BYTE		N44     Gn3 
	BYTE	W48
	BYTE	PEND
// 008   ----------------------------------------
IdPurpose_3_008:
	BYTE		N23     An3   v096
	BYTE	W24
	BYTE		N17     As3 
	BYTE	W18
	BYTE		N05     An3 
	BYTE	W06
	BYTE		N44     Gn3 
	BYTE	W48
	BYTE	PEND
// 009   ----------------------------------------
	BYTE		N17     Fn3 
	BYTE	W18
	BYTE		N05     En3 
	BYTE	W06
	BYTE		N32     Dn3 
	BYTE	W36
	BYTE		N05     Fn3 
	BYTE	W06
	BYTE		        Gn3 
	BYTE	W06
	BYTE		N23     Gs3 
	BYTE	W24
// 010   ----------------------------------------
	BYTE		        Gn3 
	BYTE	W24
	BYTE		        Fn3 
	BYTE	W24
	BYTE		N17     Ds3 
	BYTE	W18
	BYTE		N05     Cn3 
	BYTE	W06
	BYTE		N32     Gs2 
	BYTE	W24
// 011   ----------------------------------------
	BYTE	W12
	BYTE		N11     As2 
	BYTE	W12
	BYTE		TIE     Cn3 
	BYTE	W72
// 012   ----------------------------------------
	BYTE	W44
	BYTE	W03
	BYTE		EOT   
	BYTE	W01
	BYTE		N05     Gn2 
	BYTE	W06
	BYTE		        An2 
	BYTE	W06
	BYTE		        As2 
	BYTE	W06
	BYTE		        Fn3 
	BYTE	W06
	BYTE		N44     Cn3 
	BYTE	W24
// 013   ----------------------------------------
	BYTE	PATT
	 POIN2	IdPurpose_3_001
// 014   ----------------------------------------
	BYTE	PATT
	 POIN2	IdPurpose_3_002
// 015   ----------------------------------------
	BYTE	W44
	BYTE	W03
	BYTE		EOT     Fn2 
	BYTE	W01
	BYTE		N05     Gn2   v096
	BYTE	W06
	BYTE		        An2 
	BYTE	W06
	BYTE		        As2 
	BYTE	W06
	BYTE		        Fn3 
	BYTE	W06
	BYTE		N44     Cn3 
	BYTE	W24
// 016   ----------------------------------------
	BYTE	PATT
	 POIN2	IdPurpose_3_004
// 017   ----------------------------------------
	BYTE	PATT
	 POIN2	IdPurpose_3_005
// 018   ----------------------------------------
	BYTE	PATT
	 POIN2	IdPurpose_3_006
// 019   ----------------------------------------
	BYTE	PATT
	 POIN2	IdPurpose_3_007
// 020   ----------------------------------------
	BYTE	PATT
	 POIN2	IdPurpose_3_008
// 021   ----------------------------------------
	BYTE		N17     Gs3   v096
	BYTE	W18
	BYTE		N05     Gn3 
	BYTE	W06
	BYTE		N44     Fn3 
	BYTE	W48
	BYTE		N68     Ds3 
	BYTE	W24
// 022   ----------------------------------------
	BYTE	W48
	BYTE		N23     Bn2 
	BYTE	W24
	BYTE		        Cs3 
	BYTE	W24
// 023   ----------------------------------------
	BYTE		        Ds3 
	BYTE	W24
	BYTE		TIE   
	BYTE	W72
// 024   ----------------------------------------
	BYTE	W68
	BYTE	W03
	BYTE		EOT   
	BYTE	W01
	BYTE		N05     Gs2   v080
	BYTE	W06
	BYTE		        As2   v084
	BYTE	W06
	BYTE		        Ds3 
	BYTE	W06
	BYTE		        As2 
	BYTE	W06
// 025   ----------------------------------------
	BYTE		        Ds3   v088
	BYTE	W06
	BYTE		        As2 
	BYTE	W06
	BYTE		        Ds3   v092
	BYTE	W06
	BYTE		        As2 
	BYTE	W06
	BYTE		        Gs2 
	BYTE	W06
	BYTE		        As2   v096
	BYTE	W06
	BYTE		        Gs2 
	BYTE	W06
	BYTE		        Fs2 
	BYTE	W06
	BYTE		        En2 
	BYTE	W06
	BYTE		        Fs2 
	BYTE	W06
	BYTE		        Cs3   v092
	BYTE	W06
	BYTE		        Fs2 
	BYTE	W06
	BYTE		        En2 
	BYTE	W06
	BYTE		        Fs2   v088
	BYTE	W06
	BYTE		        Cs3 
	BYTE	W06
	BYTE		        Fs2 
	BYTE	W06
// 026   ----------------------------------------
	BYTE		        En2   v084
	BYTE	W06
	BYTE		        Fs2 
	BYTE	W06
	BYTE		        Cs3   v080
	BYTE	W12
	BYTE		        En2 
	BYTE	W06
	BYTE		        Fs2   v084
	BYTE	W06
	BYTE		        Cs3 
	BYTE	W06
	BYTE		        Fs2 
	BYTE	W06
	BYTE		        En2   v088
	BYTE	W06
	BYTE		        Fs2 
	BYTE	W06
	BYTE		        Cs3   v092
	BYTE	W06
	BYTE		        Fs2 
	BYTE	W06
	BYTE		        En2 
	BYTE	W06
	BYTE		        Fs2   v096
	BYTE	W06
	BYTE		        Cs3 
	BYTE	W06
	BYTE		        En2 
	BYTE	W06
// 027   ----------------------------------------
	BYTE		        Dn2 
	BYTE	W06
	BYTE		        En2 
	BYTE	W06
	BYTE		        Bn2   v092
	BYTE	W06
	BYTE		        En2 
	BYTE	W06
	BYTE		        Dn2 
	BYTE	W06
	BYTE		        En2   v088
	BYTE	W06
	BYTE		        Bn2 
	BYTE	W06
	BYTE		        En2 
	BYTE	W06
	BYTE		        Dn2   v084
	BYTE	W06
	BYTE		        En2 
	BYTE	W06
	BYTE		        Bn2   v080
	BYTE	W12
	BYTE		        Dn2 
	BYTE	W06
	BYTE		        En2   v084
	BYTE	W06
	BYTE		        Bn2 
	BYTE	W06
	BYTE		        En2 
	BYTE	W06
// 028   ----------------------------------------
	BYTE		        Dn2   v088
	BYTE	W06
	BYTE		        En2 
	BYTE	W06
	BYTE		        Bn2   v092
	BYTE	W06
	BYTE		        En2 
	BYTE	W06
	BYTE		        Dn2 
	BYTE	W06
	BYTE		        En2   v096
	BYTE	W06
	BYTE		        Bn2 
	BYTE	W06
	BYTE		        En2 
	BYTE	W06
	BYTE		        Fs2 
	BYTE	W06
	BYTE		        Gn2 
	BYTE	W06
	BYTE		        Dn3   v092
	BYTE	W06
	BYTE		        Gn2 
	BYTE	W06
	BYTE		        Fs2 
	BYTE	W06
	BYTE		        Gn2   v088
	BYTE	W06
	BYTE		        Dn3 
	BYTE	W06
	BYTE		        Gn2 
	BYTE	W06
// 029   ----------------------------------------
	BYTE		        Fs2   v084
	BYTE	W06
	BYTE		        Gn2 
	BYTE	W06
	BYTE		        Dn3   v080
	BYTE	W12
	BYTE		        Dn2 
	BYTE	W06
	BYTE		        En2   v084
	BYTE	W06
	BYTE		        An2 
	BYTE	W06
	BYTE		        En2 
	BYTE	W06
	BYTE		        Dn2   v088
	BYTE	W06
	BYTE		        En2 
	BYTE	W06
	BYTE		        An2   v092
	BYTE	W06
	BYTE		        En2 
	BYTE	W06
	BYTE		        Dn2 
	BYTE	W06
	BYTE		        En2   v096
	BYTE	W06
	BYTE		        An2 
	BYTE	W12
// 030   ----------------------------------------
	BYTE		        Dn2 
	BYTE	W06
	BYTE		        En2 
	BYTE	W06
	BYTE		        An2 
	BYTE	W06
	BYTE		        En2 
	BYTE	W06
	BYTE		        Dn2 
	BYTE	W06
	BYTE		        An2 
	BYTE	W06
	BYTE		        En2 
	BYTE	W06
	BYTE		        Cs2 
	BYTE	W06
	BYTE		        En2   v092
	BYTE	W06
	BYTE		        Bn2   v088
	BYTE	W06
	BYTE		        En2   v080
	BYTE	W12
	BYTE		        An2 
	BYTE	W06
	BYTE		        Bn2 
	BYTE	W06
	BYTE		        En3 
	BYTE	W06
	BYTE		        Bn2 
	BYTE	W06
// 031   ----------------------------------------
	BYTE		        An2 
	BYTE	W06
	BYTE		        Bn2 
	BYTE	W06
	BYTE		        En3 
	BYTE	W06
	BYTE		        Bn2 
	BYTE	W06
	BYTE		        An2 
	BYTE	W06
	BYTE		        Bn2 
	BYTE	W06
	BYTE		        En3 
	BYTE	W12
	BYTE		        Fn2 
	BYTE	W06
	BYTE		        Gn2 
	BYTE	W06
	BYTE		        Dn3 
	BYTE	W06
	BYTE		        Gn2 
	BYTE	W06
	BYTE		        Fn2 
	BYTE	W06
	BYTE		        Gn2 
	BYTE	W06
	BYTE		        Dn3 
	BYTE	W06
	BYTE		        Gn2 
	BYTE	W06
// 032   ----------------------------------------
	BYTE		        Fn2 
	BYTE	W06
	BYTE		        Gn2 
	BYTE	W06
	BYTE		        Dn3 
	BYTE	W12
	BYTE		        Fn2 
	BYTE	W06
	BYTE		        Gn2 
	BYTE	W06
	BYTE		        Dn3 
	BYTE	W06
	BYTE		        Gn2 
	BYTE	W06
	BYTE		        Fn2 
	BYTE	W06
	BYTE		        Gn2 
	BYTE	W06
	BYTE		        Dn3 
	BYTE	W06
	BYTE		        Gn2 
	BYTE	W06
	BYTE		        Fn2 
	BYTE	W06
	BYTE		        Gn2 
	BYTE	W06
	BYTE		        Dn3 
	BYTE	W12
// 033   ----------------------------------------
	BYTE		        Ds2 
	BYTE	W06
	BYTE		        Fn2 
	BYTE	W06
	BYTE		        Cn3 
	BYTE	W06
	BYTE		        Fn2 
	BYTE	W06
	BYTE		        Ds2 
	BYTE	W06
	BYTE		        Fn2 
	BYTE	W06
	BYTE		        Cn3 
	BYTE	W06
	BYTE		        Fn2 
	BYTE	W06
	BYTE		        Ds2 
	BYTE	W06
	BYTE		        Fn2 
	BYTE	W06
	BYTE		        Cn3 
	BYTE	W12
	BYTE		        Ds2 
	BYTE	W06
	BYTE		        Fn2 
	BYTE	W06
	BYTE		        Cn3 
	BYTE	W06
	BYTE		        Fn2 
	BYTE	W06
// 034   ----------------------------------------
	BYTE		        Ds2 
	BYTE	W06
	BYTE		        Fn2 
	BYTE	W06
	BYTE		        Cn3 
	BYTE	W06
	BYTE		        Fn2 
	BYTE	W06
	BYTE		        Ds2 
	BYTE	W06
	BYTE		        Fn2 
	BYTE	W06
	BYTE		        Cn3 
	BYTE	W06
	BYTE		        Gs2 
	BYTE	W06
	BYTE		        Gn2 
	BYTE	W06
	BYTE		        Gs2 
	BYTE	W06
	BYTE		        Ds3 
	BYTE	W06
	BYTE		        Gs2 
	BYTE	W06
	BYTE		        Gn2 
	BYTE	W06
	BYTE		        Gs2 
	BYTE	W06
	BYTE		        Ds3 
	BYTE	W06
	BYTE		        Gs2 
	BYTE	W06
// 035   ----------------------------------------
	BYTE		        Gn2 
	BYTE	W06
	BYTE		        Gs2 
	BYTE	W06
	BYTE		        Ds3 
	BYTE	W12
	BYTE		N05   
	BYTE	W06
	BYTE		        Fn3 
	BYTE	W06
	BYTE		        As3 
	BYTE	W06
	BYTE		        Fn3 
	BYTE	W06
	BYTE		        Ds3 
	BYTE	W06
	BYTE		        Fn3 
	BYTE	W06
	BYTE		        As3 
	BYTE	W06
	BYTE		        Fn3 
	BYTE	W06
	BYTE		        Ds3 
	BYTE	W06
	BYTE		        Fn3 
	BYTE	W06
	BYTE		        As3 
	BYTE	W06
	BYTE		        Fn3 
	BYTE	W06
// 036   ----------------------------------------
	BYTE		        Ds3 
	BYTE	W06
	BYTE		        Fn3 
	BYTE	W06
	BYTE		        An3 
	BYTE	W06
	BYTE		        Ds3 
	BYTE	W06
	BYTE		        Fn3 
	BYTE	W06
	BYTE		        Cn4 
	BYTE	W06
	BYTE		        Fn3 
	BYTE	W06
	BYTE		        Cn3 
	BYTE	W06
	BYTE		        Ds3 
	BYTE	W06
	BYTE		        Cn3 
	BYTE	W06
	BYTE		        An2 
	BYTE	W06
	BYTE		N68   
	BYTE		N68     Dn3 
	BYTE	W30
// 037   ----------------------------------------
	BYTE	W42
	BYTE		        An2   v096
	BYTE		N68     Dn3 
	BYTE	W54
// 038   ----------------------------------------
	BYTE	W30
	BYTE		N05   
	BYTE	W06
	BYTE		        Ds3 
	BYTE	W06
	BYTE		        Fn3 
	BYTE	W06
	BYTE		        Ds3 
	BYTE	W06
	BYTE		        Dn3 
	BYTE	W06
	BYTE		        Ds3 
	BYTE	W06
	BYTE		        Fn3 
	BYTE	W06
	BYTE		        Ds3 
	BYTE	W06
	BYTE		        Dn3 
	BYTE	W06
	BYTE		        Ds3 
	BYTE	W06
	BYTE		        Fn3 
	BYTE	W06
// 039   ----------------------------------------
	BYTE	W06
	BYTE		        Dn3 
	BYTE	W06
	BYTE		        Ds3 
	BYTE	W06
	BYTE		        Fn3 
	BYTE	W06
	BYTE		        Ds3 
	BYTE	W06
	BYTE		        Dn3 
	BYTE	W06
	BYTE		        Ds3 
	BYTE	W06
	BYTE		        Fn3 
	BYTE	W06
	BYTE		        Ds3 
	BYTE	W06
	BYTE		        Dn3 
	BYTE	W06
	BYTE		        Ds3 
	BYTE	W06
	BYTE		        Fn3 
	BYTE	W12
	BYTE		        Cn3 
	BYTE	W06
	BYTE		        Dn3 
	BYTE	W06
	BYTE		        Fn3 
	BYTE	W06
// 040   ----------------------------------------
	BYTE		        Dn3 
	BYTE	W06
	BYTE		        Cn3 
	BYTE	W06
	BYTE		        Dn3 
	BYTE	W06
	BYTE		        Fn3 
	BYTE	W06
	BYTE		        Dn3 
	BYTE	W06
	BYTE		        Cn3 
	BYTE	W06
	BYTE		        Dn3 
	BYTE	W06
	BYTE		        Fn3 
	BYTE	W54
// 041   ----------------------------------------
	BYTE	W24
	BYTE		N17     As3 
	BYTE	W18
	BYTE		N05     An3 
	BYTE	W06
	BYTE		N23     Gn3 
	BYTE	W24
	BYTE		        Dn4 
	BYTE	W24
// 042   ----------------------------------------
	BYTE		N23   
	BYTE	W24
	BYTE		        Cn4 
	BYTE	W24
	BYTE		        As3 
	BYTE	W24
	BYTE		N23   
	BYTE	W24
// 043   ----------------------------------------
	BYTE		        An3 
	BYTE	W24
	BYTE		        Gn3 
	BYTE	W24
	BYTE		N44     Fn3 
	BYTE	W48
// 044   ----------------------------------------
	BYTE	W24
	BYTE		        Gn3 
	BYTE	W48
	BYTE		N23     An3 
	BYTE	W24
// 045   ----------------------------------------
	BYTE		N44     As3 
	BYTE	W48
	BYTE		N23     Cn4 
	BYTE	W24
	BYTE		N17     Dn4 
	BYTE	W18
	BYTE		N05     Cn4 
	BYTE	W06
// 046   ----------------------------------------
	BYTE		N44     As3 
	BYTE	W48
	BYTE		N17     Cn4 
	BYTE	W18
	BYTE		N05     As3 
	BYTE	W06
	BYTE		N44     Gs3 
	BYTE	W24
// 047   ----------------------------------------
	BYTE	W96
// 048   ----------------------------------------
	BYTE	W78
	BYTE		N05     Ds2   v080
	BYTE	W06
	BYTE		        Fn2 
	BYTE	W06
	BYTE		        Gs2 
	BYTE	W06
// 049   ----------------------------------------
	BYTE		        Ds2 
	BYTE	W06
	BYTE		        Cs2 
	BYTE	W06
	BYTE		        Ds2 
	BYTE	W06
	BYTE		        Gs2 
	BYTE	W06
	BYTE		        As2 
	BYTE	W06
	BYTE		        Fn2 
	BYTE	W06
	BYTE		        As2 
	BYTE	W06
	BYTE		        Fn2 
	BYTE	W12
	BYTE		        Ds2 
	BYTE	W06
	BYTE		        Fn2 
	BYTE	W06
	BYTE		        Gs2 
	BYTE	W06
	BYTE		        Ds2 
	BYTE	W06
	BYTE		        Cs2 
	BYTE	W06
	BYTE		        Ds2 
	BYTE	W06
	BYTE		        Gs2 
	BYTE	W06
// 050   ----------------------------------------
	BYTE		        As2 
	BYTE	W06
	BYTE		        Fn2 
	BYTE	W06
	BYTE		        As2 
	BYTE	W06
	BYTE		        Fn2 
	BYTE	W12
	BYTE		        Ds2   v100
	BYTE	W06
	BYTE		        Fn2 
	BYTE	W06
	BYTE		        Gs2 
	BYTE	W06
	BYTE		        As2   v104
	BYTE	W06
	BYTE		        Gs2 
	BYTE	W06
	BYTE		        Fn2 
	BYTE	W06
	BYTE		        Ds2   v108
	BYTE	W06
	BYTE		        Fn2 
	BYTE	W06
	BYTE		        Gs2 
	BYTE	W06
	BYTE		        As2   v112
	BYTE	W06
	BYTE		        Ds3 
	BYTE	W06
// 051   ----------------------------------------
	BYTE		        As2 
	BYTE	W06
	BYTE		        Ds3 
	BYTE	W06
	BYTE		        As2   v116
	BYTE	W06
	BYTE		        Gs2 
	BYTE	W06
	BYTE		        As2 
	BYTE	W06
	BYTE		        Ds3   v120
	BYTE	W06
	BYTE		        As2 
	BYTE	W06
	BYTE		        Gs2 
	BYTE	W06
	BYTE		        As2   v124
	BYTE	W06
	BYTE		        Gs2 
	BYTE	W06
	BYTE		        Ds3 
	BYTE	W06
	BYTE		        Gs2   v127
	BYTE	W30
// 052   ----------------------------------------
	BYTE	W96
// 053   ----------------------------------------
	BYTE	W96
// 054   ----------------------------------------
	BYTE	W96
// 055   ----------------------------------------
	BYTE	W96
// 056   ----------------------------------------
	BYTE	W96
// 057   ----------------------------------------
	BYTE	W96
// 058   ----------------------------------------
	BYTE	W96
// 059   ----------------------------------------
	BYTE	W96
// 060   ----------------------------------------
	BYTE	W96
// 061   ----------------------------------------
	BYTE	W96
// 062   ----------------------------------------
	BYTE	W96
// 063   ----------------------------------------
	BYTE	W96
// 064   ----------------------------------------
	BYTE	W96
// 065   ----------------------------------------
	BYTE	W24
// 066   ----------------------------------------
	BYTE		N23     Dn3 
	BYTE	W24
	BYTE		        Bn2   v080
	BYTE	W24
	BYTE		        Cs3 
	BYTE	W24
	BYTE		        Dn3 
	BYTE	W24
// 067   ----------------------------------------
IdPurpose_3_067:
	BYTE		N23     En3   v080
	BYTE	W24
	BYTE		        Dn3 
	BYTE	W24
	BYTE		        Cs3 
	BYTE	W24
	BYTE		        Gn2 
	BYTE	W24
	BYTE	PEND
// 068   ----------------------------------------
IdPurpose_3_068:
	BYTE		N23     An2   v080
	BYTE	W24
	BYTE		        Bn2 
	BYTE	W24
	BYTE		        Cs3 
	BYTE	W24
	BYTE		        En3 
	BYTE	W24
	BYTE	PEND
// 069   ----------------------------------------
IdPurpose_3_069:
	BYTE		N23     Dn3   v080
	BYTE	W24
	BYTE		        Cs3 
	BYTE	W24
	BYTE		        Dn3 
	BYTE	W24
	BYTE		        An2 
	BYTE	W24
	BYTE	PEND
// 070   ----------------------------------------
IdPurpose_3_070:
	BYTE		N23     Gn2   v080
	BYTE	W24
	BYTE		N23   
	BYTE	W24
	BYTE		        Bn2 
	BYTE	W24
	BYTE		        Dn3 
	BYTE	W24
	BYTE	PEND
// 071   ----------------------------------------
IdPurpose_3_071:
	BYTE		N23     Cs3   v080
	BYTE	W24
	BYTE		        Dn3 
	BYTE	W24
	BYTE		        En3 
	BYTE	W24
	BYTE		        Cs3 
	BYTE	W24
	BYTE	PEND
// 072   ----------------------------------------
IdPurpose_3_072:
	BYTE		N23     As2   v080
	BYTE	W24
	BYTE		        Bn2 
	BYTE	W24
	BYTE		        Cs3 
	BYTE	W24
	BYTE		        As2 
	BYTE	W24
	BYTE	PEND
// 073   ----------------------------------------
IdPurpose_3_073:
	BYTE		N23     Fs2   v080
	BYTE	W24
	BYTE		        Gs2 
	BYTE	W24
	BYTE		        As2 
	BYTE	W24
	BYTE		        Cs3 
	BYTE	W24
	BYTE	PEND
// 074   ----------------------------------------
IdPurpose_3_074:
	BYTE		N23     Dn3   v080
	BYTE	W24
	BYTE		        Bn2 
	BYTE	W24
	BYTE		        Cs3 
	BYTE	W24
	BYTE		        Dn3 
	BYTE	W24
	BYTE	PEND
// 075   ----------------------------------------
	BYTE	PATT
	 POIN2	IdPurpose_3_067
// 076   ----------------------------------------
	BYTE	PATT
	 POIN2	IdPurpose_3_068
// 077   ----------------------------------------
	BYTE	PATT
	 POIN2	IdPurpose_3_069
// 078   ----------------------------------------
	BYTE	PATT
	 POIN2	IdPurpose_3_070
// 079   ----------------------------------------
	BYTE	PATT
	 POIN2	IdPurpose_3_071
// 080   ----------------------------------------
	BYTE	PATT
	 POIN2	IdPurpose_3_072
// 081   ----------------------------------------
	BYTE	PATT
	 POIN2	IdPurpose_3_073
// 082   ----------------------------------------
	BYTE	PATT
	 POIN2	IdPurpose_3_074
// 083   ----------------------------------------
	BYTE	PATT
	 POIN2	IdPurpose_3_067
// 084   ----------------------------------------
	BYTE	PATT
	 POIN2	IdPurpose_3_068
// 085   ----------------------------------------
	BYTE	PATT
	 POIN2	IdPurpose_3_069
// 086   ----------------------------------------
	BYTE	PATT
	 POIN2	IdPurpose_3_070
// 087   ----------------------------------------
	BYTE	PATT
	 POIN2	IdPurpose_3_071
// 088   ----------------------------------------
	BYTE	PATT
	 POIN2	IdPurpose_3_072
// 089   ----------------------------------------
	BYTE	PATT
	 POIN2	IdPurpose_3_073
// 090   ----------------------------------------
	BYTE		N23     Dn3   v112
	BYTE	W24
	BYTE		        Bn2 
	BYTE	W24
	BYTE		        Cs3 
	BYTE	W24
	BYTE		        Dn3 
	BYTE	W24
// 091   ----------------------------------------
	BYTE		        En3 
	BYTE	W24
	BYTE		        Dn3 
	BYTE	W24
	BYTE		        Cs3 
	BYTE	W24
	BYTE		        Gn2 
	BYTE	W24
// 092   ----------------------------------------
	BYTE		        An2 
	BYTE	W24
	BYTE		        Bn2 
	BYTE	W24
	BYTE		        Cs3 
	BYTE	W24
	BYTE		        En3 
	BYTE	W24
// 093   ----------------------------------------
	BYTE		        Dn3 
	BYTE	W24
	BYTE		        Cs3 
	BYTE	W24
	BYTE		        Dn3 
	BYTE	W24
	BYTE		        An2 
	BYTE	W24
// 094   ----------------------------------------
	BYTE		        Gn2 
	BYTE	W24
	BYTE		N23   
	BYTE	W24
	BYTE		        Bn2 
	BYTE	W24
	BYTE		        Dn3 
	BYTE	W24
// 095   ----------------------------------------
	BYTE		        Cs3 
	BYTE	W24
	BYTE		        Dn3 
	BYTE	W24
	BYTE		        En3 
	BYTE	W24
	BYTE		        Cs3 
	BYTE	W24
// 096   ----------------------------------------
	BYTE		        As2 
	BYTE	W24
	BYTE		        Bn2 
	BYTE	W24
	BYTE		        Cs3 
	BYTE	W24
	BYTE		        As2 
	BYTE	W24
// 097   ----------------------------------------
	BYTE		        Fs2 
	BYTE	W24
	BYTE		        Gs2   v116
	BYTE	W24
	BYTE		        As2   v124
	BYTE	W24
	BYTE		        Cs3   v127
	BYTE	W24
// 098   ----------------------------------------
	BYTE		        Dn3 
	BYTE	W24
	BYTE		        Bn2 
	BYTE	W24
	BYTE		        Cs3 
	BYTE	W24
	BYTE		        Dn3 
	BYTE	W24
// 099   ----------------------------------------
	BYTE		        En3 
	BYTE	W24
	BYTE		        Dn3 
	BYTE	W24
	BYTE		        Cs3 
	BYTE	W24
	BYTE		        Gn2 
	BYTE	W24
// 100   ----------------------------------------
	BYTE		        An2 
	BYTE	W24
	BYTE		        Bn2 
	BYTE	W24
	BYTE		        Cs3 
	BYTE	W24
	BYTE		        En3 
	BYTE	W24
// 101   ----------------------------------------
	BYTE		        Dn3 
	BYTE	W24
	BYTE		        Cs3 
	BYTE	W24
	BYTE		        Dn3 
	BYTE	W24
	BYTE		        An2 
	BYTE	W24
// 102   ----------------------------------------
	BYTE		        Gn2 
	BYTE	W24
	BYTE		N23   
	BYTE	W24
	BYTE		        Bn2 
	BYTE	W24
	BYTE		        Dn3 
	BYTE	W24
// 103   ----------------------------------------
	BYTE		        Cs3 
	BYTE	W24
	BYTE		        Dn3 
	BYTE	W24
	BYTE		        En3 
	BYTE	W24
	BYTE		        Cs3 
	BYTE	W24
// 104   ----------------------------------------
	BYTE		        As2 
	BYTE	W24
	BYTE		        Bn2 
	BYTE	W24
	BYTE		        Cs3 
	BYTE	W24
	BYTE		        As2 
	BYTE	W24
// 105   ----------------------------------------
	BYTE		        Fs2 
	BYTE	W24
	BYTE		        Gs2 
	BYTE	W24
	BYTE		        As2 
	BYTE	W24
	BYTE		        Cs3 
	BYTE	W24
// 106   ----------------------------------------
	BYTE	W72
// 107   ----------------------------------------
	BYTE	W72
// 108   ----------------------------------------
	BYTE	W72
// 109   ----------------------------------------
	BYTE	W72
// 110   ----------------------------------------
	BYTE	W72
// 111   ----------------------------------------
	BYTE	W72
// 112   ----------------------------------------
	BYTE	W72
// 113   ----------------------------------------
	BYTE	W72
// 114   ----------------------------------------
	BYTE	W72
// 115   ----------------------------------------
	BYTE	W48
	BYTE		N05     Gn3 
	BYTE	W06
	BYTE		        An3 
	BYTE	W06
	BYTE		        As3 
	BYTE	W06
	BYTE		        Fn4 
	BYTE	W06
	BYTE	GoTo
	 POIN2	IdPurpose_3_B1
IdPurpose_3_B2:
// 116   ----------------------------------------
	BYTE	FINE

//**************** Track 4 (Midi-Chn.4) ****************//

IdPurpose_4:
	BYTE	KEYSH   IdPurpose_key+0
// 000   ----------------------------------------
	BYTE		VOICE   41
	BYTE		PAN     c_v-9
	BYTE		VOL     100*IdPurpose_mvl/mxv
	BYTE	W72
IdPurpose_4_B1:
	BYTE		N44     As2   v080
	BYTE	W24
// 001   ----------------------------------------
	BYTE	W72
	BYTE		N92     As2   v052
	BYTE	W24
// 002   ----------------------------------------
	BYTE	W72
	BYTE		N23     Cn3   v096
	BYTE	W24
// 003   ----------------------------------------
	BYTE		N17     An2 
	BYTE	W18
	BYTE		N05     Gn2 
	BYTE	W06
	BYTE		N32     Fn2 
	BYTE	W48
	BYTE		N44     Fn3 
	BYTE	W24
// 004   ----------------------------------------
	BYTE	W24
	BYTE		N11     As2 
	BYTE	W12
	BYTE		        Dn3 
	BYTE	W12
	BYTE		N23   
	BYTE	W24
	BYTE		        Cn3 
	BYTE	W24
// 005   ----------------------------------------
	BYTE		N44     As2 
	BYTE	W96
// 006   ----------------------------------------
	BYTE	W48
	BYTE		N23     An2   v080
	BYTE	W24
	BYTE		N17     As2 
	BYTE	W18
	BYTE		N05     An2   v072
	BYTE	W06
// 007   ----------------------------------------
	BYTE		N23     Gn2   v068
	BYTE	W24
	BYTE		        Fn2   v052
	BYTE	W24
	BYTE		        Ds3 
	BYTE	W48
// 008   ----------------------------------------
	BYTE	W48
	BYTE		        An3 
	BYTE	W24
	BYTE		        Gn3   v080
	BYTE	W24
// 009   ----------------------------------------
	BYTE		        Fn3 
	BYTE	W24
	BYTE		        Dn3 
	BYTE	W24
	BYTE		N32     Fn3 
	BYTE	W48
// 010   ----------------------------------------
	BYTE		N17     Gs2 
	BYTE	W18
	BYTE		N05     As2   v084
	BYTE	W06
	BYTE		N64     Cn3 
	BYTE	W66
	BYTE		N05     Dn3   v096
	BYTE	W06
// 011   ----------------------------------------
	BYTE		N44     Ds3 
	BYTE	W48
	BYTE		N23     Fn3 
	BYTE	W24
	BYTE		        Gn3 
	BYTE	W24
// 012   ----------------------------------------
	BYTE		N44     En3 
	BYTE	W72
	BYTE		        As2   v080
	BYTE	W24
// 013   ----------------------------------------
	BYTE	W48
	BYTE		N17   
	BYTE	W18
	BYTE		N05     An2   v088
	BYTE	W06
	BYTE		N23     Gn2 
	BYTE	W24
// 014   ----------------------------------------
	BYTE		        Dn2   v096
	BYTE	W24
	BYTE		        Fn2 
	BYTE	W24
	BYTE		        As2 
	BYTE	W24
	BYTE		        Gn2 
	BYTE	W24
// 015   ----------------------------------------
	BYTE		        Fn2 
	BYTE	W24
	BYTE		N32     Cn2 
	BYTE	W48
	BYTE		N17     As2 
	BYTE	W18
	BYTE		N05     An2 
	BYTE	W06
// 016   ----------------------------------------
	BYTE		N23     Gn2 
	BYTE	W24
	BYTE		        Dn3 
	BYTE	W24
	BYTE		        Dn4 
	BYTE	W24
	BYTE		        Cn4 
	BYTE	W24
// 017   ----------------------------------------
	BYTE		        As3 
	BYTE	W24
	BYTE		N23   
	BYTE	W24
	BYTE		        An3 
	BYTE	W24
	BYTE		        Gn3 
	BYTE	W24
// 018   ----------------------------------------
	BYTE		        As2 
	BYTE		N44     Fn3 
	BYTE	W24
	BYTE		N23     An2 
	BYTE	W24
	BYTE		N68     Gn2 
	BYTE	W48
// 019   ----------------------------------------
	BYTE	W48
	BYTE		N17     Dn3 
	BYTE	W18
	BYTE		N05     Cn3 
	BYTE	W06
	BYTE		N23     As2 
	BYTE	W24
// 020   ----------------------------------------
	BYTE		N68     Fn3 
	BYTE	W72
	BYTE		N44     Cn3 
	BYTE	W24
// 021   ----------------------------------------
	BYTE	W24
	BYTE		N23     Gs3 
	BYTE	W24
	BYTE		        Fn3 
	BYTE	W24
	BYTE		N68     Cn3   v080
	BYTE	W24
// 022   ----------------------------------------
	BYTE	W48
	BYTE		N44     Bn2 
	BYTE	W48
// 023   ----------------------------------------
	BYTE		N23     Cs3 
	BYTE	W24
	BYTE		TIE     Ds3 
	BYTE		TIE     Gs3 
	BYTE	W72
// 024   ----------------------------------------
	BYTE	W56
	BYTE	W03
	BYTE		EOT     Ds3 
	BYTE		        Gs3 
	BYTE	W01
	BYTE		N05     Cs3   v052
	BYTE	W06
	BYTE		        Ds3 
	BYTE	W06
	BYTE		N11     En3 
	BYTE	W24
// 025   ----------------------------------------
	BYTE	W96
// 026   ----------------------------------------
	BYTE	W72
	BYTE		N44     An2 
	BYTE	W24
// 027   ----------------------------------------
	BYTE	W24
	BYTE		N23     Bn2   v080
	BYTE	W72
// 028   ----------------------------------------
	BYTE	W24
	BYTE		N44     Gn2 
	BYTE	W48
	BYTE		N23     Fs2 
	BYTE	W24
// 029   ----------------------------------------
	BYTE	W48
	BYTE		        An2   v096
	BYTE	W24
	BYTE		        Dn3 
	BYTE	W24
// 030   ----------------------------------------
	BYTE		N17     Cs3 
	BYTE	W18
	BYTE		N05     Dn3 
	BYTE	W06
	BYTE		N68     En3 
	BYTE	W24
	BYTE		N23     Cs3 
	BYTE	W24
	BYTE		N44     Cn3 
	BYTE	W24
// 031   ----------------------------------------
	BYTE	W24
	BYTE		N23     An2 
	BYTE	W24
	BYTE		        Bn2   v080
	BYTE	W24
	BYTE		N44     Gn2   v096
	BYTE	W24
// 032   ----------------------------------------
	BYTE	W24
	BYTE		        Dn3 
	BYTE	W48
	BYTE		N23     Ds3 
	BYTE	W24
// 033   ----------------------------------------
	BYTE		        Cn3   v080
	BYTE	W24
	BYTE		N80   
	BYTE	W72
// 034   ----------------------------------------
	BYTE	W24
	BYTE		N44     Gs2 
	BYTE	W48
	BYTE		        Gs2   v096
	BYTE		N44     As2 
	BYTE	W24
// 035   ----------------------------------------
	BYTE	W24
	BYTE		N23   
	BYTE		N23     Cn3 
	BYTE	W24
	BYTE		N44     As2 
	BYTE		N44     Cn3 
	BYTE	W48
// 036   ----------------------------------------
	BYTE		N68     An2 
	BYTE		N68     Cn3 
	BYTE	W72
	BYTE		        Gn2 
	BYTE		N68     An2 
	BYTE	W24
// 037   ----------------------------------------
	BYTE	W48
	BYTE		        Fs2 
	BYTE		N68     An2 
	BYTE	W48
// 038   ----------------------------------------
	BYTE	W24
	BYTE		N44     As2 
	BYTE	W72
// 039   ----------------------------------------
	BYTE		N17     As2   v080
	BYTE	W18
	BYTE		N05     An2   v088
	BYTE	W06
	BYTE		N23     Gn2 
	BYTE	W24
	BYTE		        Dn2   v096
	BYTE	W24
	BYTE		        Fn2 
	BYTE	W24
// 040   ----------------------------------------
	BYTE		        As2 
	BYTE	W24
	BYTE		        Gn2 
	BYTE	W24
	BYTE		        Fn2 
	BYTE	W24
	BYTE		N32     Cn2 
	BYTE	W24
// 041   ----------------------------------------
	BYTE	W24
	BYTE		N17     As2 
	BYTE	W18
	BYTE		N05     An2 
	BYTE	W06
	BYTE		N23     Gn2 
	BYTE	W24
	BYTE		        Dn3 
	BYTE	W24
// 042   ----------------------------------------
	BYTE		        Dn4 
	BYTE	W24
	BYTE		        Cn4 
	BYTE	W24
	BYTE		        As3 
	BYTE	W24
	BYTE		N23   
	BYTE	W24
// 043   ----------------------------------------
	BYTE		        An3 
	BYTE	W24
	BYTE		        Gn3 
	BYTE	W24
	BYTE		        As2 
	BYTE		N44     Fn3 
	BYTE	W24
	BYTE		N23     An2 
	BYTE	W24
// 044   ----------------------------------------
	BYTE		N68     Gn2 
	BYTE	W96
// 045   ----------------------------------------
	BYTE		N17     Dn3 
	BYTE	W18
	BYTE		N05     Cn3 
	BYTE	W06
	BYTE		N23     As2 
	BYTE	W24
	BYTE		N56     Fn3 
	BYTE	W48
// 046   ----------------------------------------
	BYTE		N23     An3 
	BYTE	W24
	BYTE		N44     Cn3 
	BYTE		N23     Gn3 
	BYTE	W24
	BYTE		        Gs3 
	BYTE	W24
	BYTE		N23   
	BYTE	W24
// 047   ----------------------------------------
	BYTE		        Fn3 
	BYTE	W24
	BYTE		N68     Cn3 
	BYTE	W72
// 048   ----------------------------------------
	BYTE		N44     Bn2 
	BYTE	W48
	BYTE		N23     Cs3 
	BYTE	W24
	BYTE		TIE     Ds3 
	BYTE		TIE     Gs3 
	BYTE	W24
// 049   ----------------------------------------
	BYTE	W96
// 050   ----------------------------------------
	BYTE	W23
	BYTE		EOT     Ds3 
	BYTE		        Gs3 
	BYTE	W72
	BYTE	W01
// 051   ----------------------------------------
	BYTE	W24
	BYTE		N01     Ds2   v112
	BYTE	W01
	BYTE		        As2 
	BYTE	W02
	BYTE		        Ds3 
	BYTE	W02
	BYTE		        Gn3 
	BYTE	W02
	BYTE		        As3 
	BYTE	W02
	BYTE		        Cs4 
	BYTE	W03
	BYTE		N11     Ds4 
	BYTE	W60
// 052   ----------------------------------------
	BYTE	W96
// 053   ----------------------------------------
	BYTE	W96
// 054   ----------------------------------------
	BYTE	W96
// 055   ----------------------------------------
	BYTE	W96
// 056   ----------------------------------------
	BYTE	W96
// 057   ----------------------------------------
	BYTE	W96
// 058   ----------------------------------------
	BYTE		N01     Dn3   v080
	BYTE		N01     En3 
	BYTE	W01
	BYTE		        Fn3 
	BYTE	W01
	BYTE		        Gn3 
	BYTE	W01
	BYTE		N02     An3 
	BYTE	W03
	BYTE		N05     Dn3 
	BYTE	W06
	BYTE		        En3 
	BYTE	W06
	BYTE		        Dn3 
	BYTE	W06
	BYTE		N11     Fs3 
	BYTE	W48
	BYTE		N01     Cs3 
	BYTE		N01     Dn3 
	BYTE	W01
	BYTE		        En3 
	BYTE	W02
	BYTE		N02     Fs3 
	BYTE	W03
	BYTE		N05     Dn3 
	BYTE	W06
	BYTE		        En3 
	BYTE	W06
	BYTE		        Dn3 
	BYTE	W06
// 059   ----------------------------------------
	BYTE		N11     En3 
	BYTE	W48
	BYTE		N01     Cs3 
	BYTE		N01     Dn3 
	BYTE	W01
	BYTE		        En3 
	BYTE	W02
	BYTE		N02     Fs3 
	BYTE	W03
	BYTE		N05     Dn3 
	BYTE	W06
	BYTE		        En3 
	BYTE	W06
	BYTE		        Dn3 
	BYTE	W06
	BYTE		N11     En3 
	BYTE	W24
// 060   ----------------------------------------
	BYTE	W24
	BYTE		N01     Dn3 
	BYTE		N01     En3 
	BYTE	W01
	BYTE		        Fs3 
	BYTE	W02
	BYTE		N02     Gn3 
	BYTE	W03
	BYTE		N05     Dn3 
	BYTE	W06
	BYTE		        En3 
	BYTE	W06
	BYTE		        Dn3 
	BYTE	W06
	BYTE		N11     En3 
	BYTE	W48
// 061   ----------------------------------------
	BYTE		N01     Dn3 
	BYTE		N01     En3 
	BYTE	W01
	BYTE		        Fn3 
	BYTE	W01
	BYTE		        Gn3 
	BYTE	W01
	BYTE		N02     An3 
	BYTE	W03
	BYTE		N05     Dn3 
	BYTE	W06
	BYTE		        En3 
	BYTE	W06
	BYTE		        Dn3 
	BYTE	W06
	BYTE		N11     Fs3 
	BYTE	W48
	BYTE		N01   
	BYTE		N01     Gs3 
	BYTE	W01
	BYTE		        As3 
	BYTE	W02
	BYTE		N02     Bn3 
	BYTE	W03
	BYTE		N05     En3 
	BYTE	W06
	BYTE		        Fs3 
	BYTE	W06
	BYTE		        En3 
	BYTE	W06
// 062   ----------------------------------------
	BYTE		N11     Fs3 
	BYTE	W96
// 063   ----------------------------------------
	BYTE	W96
// 064   ----------------------------------------
	BYTE	W96
// 065   ----------------------------------------
	BYTE	W24
// 066   ----------------------------------------
	BYTE	W96
// 067   ----------------------------------------
	BYTE	W96
// 068   ----------------------------------------
	BYTE	W96
// 069   ----------------------------------------
	BYTE	W96
// 070   ----------------------------------------
	BYTE	W96
// 071   ----------------------------------------
	BYTE	W96
// 072   ----------------------------------------
	BYTE	W96
// 073   ----------------------------------------
	BYTE	W96
// 074   ----------------------------------------
	BYTE	W96
// 075   ----------------------------------------
	BYTE	W96
// 076   ----------------------------------------
	BYTE	W96
// 077   ----------------------------------------
	BYTE	W96
// 078   ----------------------------------------
	BYTE	W96
// 079   ----------------------------------------
	BYTE	W96
// 080   ----------------------------------------
	BYTE	W96
// 081   ----------------------------------------
	BYTE	W96
// 082   ----------------------------------------
	BYTE		N92     Bn2 
	BYTE		N92     Dn3 
	BYTE	W96
// 083   ----------------------------------------
	BYTE		        Bn2   v052
	BYTE	W96
// 084   ----------------------------------------
	BYTE		        Cs3 
	BYTE	W96
// 085   ----------------------------------------
	BYTE		N68     Dn3 
	BYTE	W96
// 086   ----------------------------------------
	BYTE		N92     Bn2 
	BYTE	W96
// 087   ----------------------------------------
	BYTE		        En3 
	BYTE	W96
// 088   ----------------------------------------
	BYTE		        Cs3 
	BYTE	W96
// 089   ----------------------------------------
	BYTE		N92   
	BYTE	W96
// 090   ----------------------------------------
	BYTE		        Bn2 
	BYTE		N92     Dn3 
	BYTE	W96
// 091   ----------------------------------------
	BYTE		N72     Bn2   v080
	BYTE		N68     En3 
	BYTE	W72
	BYTE		N23     Bn2   v104
	BYTE	W24
// 092   ----------------------------------------
	BYTE	W48
	BYTE		N44     Gn2   v096
	BYTE	W48
// 093   ----------------------------------------
	BYTE		N44   
	BYTE	W48
	BYTE		        Fs2 
	BYTE	W48
// 094   ----------------------------------------
	BYTE		N92     Bn2 
	BYTE	W96
// 095   ----------------------------------------
	BYTE		        Gn2 
	BYTE	W96
// 096   ----------------------------------------
	BYTE		        Fs2 
	BYTE	W96
// 097   ----------------------------------------
	BYTE		N92   
	BYTE	W96
// 098   ----------------------------------------
	BYTE		        Dn3   v112
	BYTE	W96
// 099   ----------------------------------------
	BYTE		        En3 
	BYTE	W96
// 100   ----------------------------------------
	BYTE		        Cs3 
	BYTE	W96
// 101   ----------------------------------------
	BYTE		        Dn3 
	BYTE	W96
// 102   ----------------------------------------
	BYTE		        Bn2 
	BYTE	W96
// 103   ----------------------------------------
	BYTE		        Cs3 
	BYTE	W96
// 104   ----------------------------------------
	BYTE		        As2 
	BYTE	W96
// 105   ----------------------------------------
	BYTE		N92   
	BYTE	W96
// 106   ----------------------------------------
	BYTE		N68     Fs2 
	BYTE	W72
// 107   ----------------------------------------
	BYTE		        En2 
	BYTE	W72
// 108   ----------------------------------------
	BYTE		        Fs2 
	BYTE	W72
// 109   ----------------------------------------
	BYTE		N68   
	BYTE	W72
// 110   ----------------------------------------
	BYTE		N68   
	BYTE		N68     An2 
	BYTE	W72
// 111   ----------------------------------------
	BYTE		        En2 
	BYTE		N68     Fs2 
	BYTE	W72
// 112   ----------------------------------------
	BYTE		TIE     Cs2 
	BYTE		TIE     En2 
	BYTE	W72
// 113   ----------------------------------------
	BYTE	W68
	BYTE	W03
	BYTE		EOT     Cs2 
	BYTE		        En2 
	BYTE	W01
// 114   ----------------------------------------
	BYTE	W72
// 115   ----------------------------------------
	BYTE	W72
	BYTE	GoTo
	 POIN2	IdPurpose_4_B1
IdPurpose_4_B2:
// 116   ----------------------------------------
	BYTE	FINE

//**************** Track 5 (Midi-Chn.5) ****************//

IdPurpose_5:
	BYTE	KEYSH   IdPurpose_key+0
// 000   ----------------------------------------
	BYTE		VOICE   42
	BYTE		PAN     c_v-13
	BYTE		VOL     100*IdPurpose_mvl/mxv
	BYTE	W72
IdPurpose_5_B1:
	BYTE	W24
// 001   ----------------------------------------
	BYTE	W96
// 002   ----------------------------------------
IdPurpose_5_002:
	BYTE	W24
	BYTE		N44     As1   v080
	BYTE	W48
	BYTE		N23     Cn2 
	BYTE	W24
	BYTE	PEND
// 003   ----------------------------------------
IdPurpose_5_003:
	BYTE		N23     An1   v080
	BYTE	W24
	BYTE		N44     Fn1 
	BYTE	W48
	BYTE		        Gn1 
	BYTE	W24
	BYTE	PEND
// 004   ----------------------------------------
IdPurpose_5_004:
	BYTE	W24
	BYTE		N23     Ds2   v080
	BYTE		N23     As2 
	BYTE	W24
	BYTE		        Ds2 
	BYTE		N23     As2 
	BYTE	W24
	BYTE		        Dn2 
	BYTE		N23     As2 
	BYTE	W24
	BYTE	PEND
// 005   ----------------------------------------
IdPurpose_5_005:
	BYTE		N23     Cn2   v080
	BYTE		N23     As2 
	BYTE	W24
	BYTE		N68     Cn2 
	BYTE		N68     As2 
	BYTE	W72
	BYTE	PEND
// 006   ----------------------------------------
IdPurpose_5_006:
	BYTE		N17     An1   v080
	BYTE		N17     An2 
	BYTE	W18
	BYTE		N05     As1 
	BYTE		N05     As2 
	BYTE	W06
	BYTE		N23     Cn2 
	BYTE		N23     Cn3 
	BYTE	W24
	BYTE		        Fn1 
	BYTE		N23     Fn2 
	BYTE	W24
	BYTE		N17     As1 
	BYTE	W18
	BYTE		N05     An1 
	BYTE	W06
	BYTE	PEND
// 007   ----------------------------------------
IdPurpose_5_007:
	BYTE		N23     Gn1   v080
	BYTE	W24
	BYTE		        Dn2 
	BYTE		N23     Fn2 
	BYTE	W24
	BYTE		N17     Dn2 
	BYTE	W18
	BYTE		N05     Cn2 
	BYTE	W06
	BYTE		N23     As1 
	BYTE	W24
	BYTE	PEND
// 008   ----------------------------------------
IdPurpose_5_008:
	BYTE		N23     Cn2   v080
	BYTE		N23     Gn2 
	BYTE	W24
	BYTE		        Cn1 
	BYTE		N23     As2 
	BYTE	W24
	BYTE		        As1 
	BYTE		N23     An2 
	BYTE	W24
	BYTE		        An1 
	BYTE		N23     Gn2 
	BYTE	W24
	BYTE	PEND
// 009   ----------------------------------------
	BYTE		N17     Fn2 
	BYTE	W18
	BYTE		N05     En2 
	BYTE	W06
	BYTE		N44     Dn2 
	BYTE	W48
	BYTE		N68     Cn2 
	BYTE	W24
// 010   ----------------------------------------
	BYTE	W48
	BYTE		N44   
	BYTE	W48
// 011   ----------------------------------------
	BYTE		N23     Ds2 
	BYTE	W24
	BYTE		N23   
	BYTE	W24
	BYTE		        Fn2 
	BYTE	W24
	BYTE		        Gn2 
	BYTE	W24
// 012   ----------------------------------------
	BYTE		N44     En2 
	BYTE	W96
// 013   ----------------------------------------
	BYTE	W96
// 014   ----------------------------------------
	BYTE	PATT
	 POIN2	IdPurpose_5_002
// 015   ----------------------------------------
	BYTE	PATT
	 POIN2	IdPurpose_5_003
// 016   ----------------------------------------
	BYTE	PATT
	 POIN2	IdPurpose_5_004
// 017   ----------------------------------------
	BYTE	PATT
	 POIN2	IdPurpose_5_005
// 018   ----------------------------------------
	BYTE	PATT
	 POIN2	IdPurpose_5_006
// 019   ----------------------------------------
	BYTE	PATT
	 POIN2	IdPurpose_5_007
// 020   ----------------------------------------
	BYTE	PATT
	 POIN2	IdPurpose_5_008
// 021   ----------------------------------------
	BYTE		N68     Cn2   v080
	BYTE	W72
	BYTE		        Ds2 
	BYTE	W24
// 022   ----------------------------------------
	BYTE	W48
	BYTE		N23     Bn1 
	BYTE	W24
	BYTE		        Cs2 
	BYTE	W24
// 023   ----------------------------------------
	BYTE		        Ds2 
	BYTE	W24
	BYTE		TIE     As2 
	BYTE	W72
// 024   ----------------------------------------
	BYTE	W68
	BYTE	W03
	BYTE		EOT   
	BYTE	W24
	BYTE	W01
// 025   ----------------------------------------
	BYTE	W96
// 026   ----------------------------------------
	BYTE	W96
// 027   ----------------------------------------
	BYTE	W96
// 028   ----------------------------------------
	BYTE	W96
// 029   ----------------------------------------
	BYTE	W96
// 030   ----------------------------------------
	BYTE	W96
// 031   ----------------------------------------
	BYTE	W96
// 032   ----------------------------------------
	BYTE	W96
// 033   ----------------------------------------
	BYTE	W96
// 034   ----------------------------------------
	BYTE	W96
// 035   ----------------------------------------
	BYTE	W96
// 036   ----------------------------------------
	BYTE	W96
// 037   ----------------------------------------
	BYTE	W96
// 038   ----------------------------------------
	BYTE	W30
	BYTE		N05     Dn2   v096
	BYTE	W06
	BYTE		        Ds2 
	BYTE	W06
	BYTE		        Fn2 
	BYTE	W06
	BYTE		        Ds2 
	BYTE	W06
	BYTE		        Dn2 
	BYTE	W06
	BYTE		        Ds2 
	BYTE	W06
	BYTE		        Fn2 
	BYTE	W06
	BYTE		        Ds2 
	BYTE	W06
	BYTE		        Dn2 
	BYTE	W06
	BYTE		        Ds2 
	BYTE	W06
	BYTE		        Fn2 
	BYTE	W06
// 039   ----------------------------------------
IdPurpose_5_039:
	BYTE	W06
	BYTE		N05     Dn2   v096
	BYTE	W06
	BYTE		        Ds2 
	BYTE	W06
	BYTE		        Fn2 
	BYTE	W06
	BYTE		        Ds2 
	BYTE	W06
	BYTE		        Dn2 
	BYTE	W06
	BYTE		        Ds2 
	BYTE	W06
	BYTE		        Fn2 
	BYTE	W06
	BYTE		        Ds2 
	BYTE	W06
	BYTE		        Dn2 
	BYTE	W06
	BYTE		        Ds2 
	BYTE	W06
	BYTE		        Fn2 
	BYTE	W12
	BYTE		        Cn2 
	BYTE	W06
	BYTE		        Dn2 
	BYTE	W06
	BYTE		        Fn2 
	BYTE	W06
	BYTE	PEND
// 040   ----------------------------------------
IdPurpose_5_040:
	BYTE		N05     Dn2   v096
	BYTE	W06
	BYTE		        Cn2 
	BYTE	W06
	BYTE		        Dn2 
	BYTE	W06
	BYTE		        Fn2 
	BYTE	W06
	BYTE		        Dn2 
	BYTE	W06
	BYTE		        Cn2 
	BYTE	W06
	BYTE		        Dn2 
	BYTE	W06
	BYTE		        Fn2 
	BYTE	W12
	BYTE		        Cn2 
	BYTE	W06
	BYTE		        Dn2 
	BYTE	W06
	BYTE		        Fn2 
	BYTE	W06
	BYTE		        Dn2 
	BYTE	W06
	BYTE		        Cn2 
	BYTE	W06
	BYTE		        Dn2 
	BYTE	W06
	BYTE		        Fn2 
	BYTE	W06
	BYTE	PEND
// 041   ----------------------------------------
	BYTE		        Dn2 
	BYTE	W06
	BYTE		        Cn2 
	BYTE	W06
	BYTE		        Dn2 
	BYTE	W06
	BYTE		        Fn2 
	BYTE	W06
	BYTE		        Ds2 
	BYTE	W06
	BYTE		        Dn2 
	BYTE	W06
	BYTE		        Ds2 
	BYTE	W06
	BYTE		        Fn2 
	BYTE	W06
	BYTE		        Ds2 
	BYTE	W06
	BYTE		        Dn2 
	BYTE	W06
	BYTE		        Ds2 
	BYTE	W06
	BYTE		        Fn2 
	BYTE	W06
	BYTE		        Ds2 
	BYTE	W06
	BYTE		        Dn2 
	BYTE	W06
	BYTE		        Ds2 
	BYTE	W06
	BYTE		        Fn2 
	BYTE	W06
// 042   ----------------------------------------
	BYTE	PATT
	 POIN2	IdPurpose_5_039
// 043   ----------------------------------------
	BYTE	PATT
	 POIN2	IdPurpose_5_040
// 044   ----------------------------------------
	BYTE		N05     Dn2   v096
	BYTE	W06
	BYTE		        Cn2 
	BYTE	W06
	BYTE		        Dn2 
	BYTE	W06
	BYTE		        Fn2 
	BYTE	W12
	BYTE		        Dn2 
	BYTE	W06
	BYTE		        Ds2 
	BYTE	W06
	BYTE		        Fn2 
	BYTE	W06
	BYTE		        Gn2 
	BYTE	W06
	BYTE		        Ds2 
	BYTE	W06
	BYTE		        Fn2 
	BYTE	W06
	BYTE		        Gn2 
	BYTE	W06
	BYTE		        An2 
	BYTE	W06
	BYTE		        As2 
	BYTE	W06
	BYTE		        An2 
	BYTE	W06
	BYTE		        Gn2 
	BYTE	W06
// 045   ----------------------------------------
	BYTE		        Fn2 
	BYTE	W06
	BYTE		        Gn2 
	BYTE	W06
	BYTE		        An2 
	BYTE	W06
	BYTE		        As2 
	BYTE	W06
	BYTE		        Cn3 
	BYTE	W06
	BYTE		        An2 
	BYTE	W06
	BYTE		        As2 
	BYTE	W06
	BYTE		        Cn3 
	BYTE	W06
	BYTE		        Dn3 
	BYTE	W06
	BYTE		        Gn2 
	BYTE	W06
	BYTE		        Cn3 
	BYTE	W06
	BYTE		        As2 
	BYTE	W06
	BYTE		        Gn2 
	BYTE	W06
	BYTE		        An2 
	BYTE	W06
	BYTE		        As2 
	BYTE	W06
	BYTE		        An2 
	BYTE	W06
// 046   ----------------------------------------
	BYTE		        Gn2 
	BYTE	W06
	BYTE		        An2 
	BYTE	W06
	BYTE		        As2 
	BYTE	W06
	BYTE		        An2 
	BYTE	W06
	BYTE		        Gn2 
	BYTE	W06
	BYTE		        Fn2 
	BYTE	W06
	BYTE		        Dn2 
	BYTE	W06
	BYTE		        Fn2 
	BYTE	W12
	BYTE		        Ds2 
	BYTE	W06
	BYTE		        Fn2 
	BYTE	W06
	BYTE		        Gn2 
	BYTE	W06
	BYTE		        Gs2 
	BYTE	W06
	BYTE		        Ds2 
	BYTE	W06
	BYTE		        Fn2 
	BYTE	W06
	BYTE		        Gn2 
	BYTE	W06
// 047   ----------------------------------------
	BYTE		        Gs2 
	BYTE	W06
	BYTE		        Ds2 
	BYTE	W06
	BYTE		        Gn2 
	BYTE	W06
	BYTE		        Fn2 
	BYTE	W12
	BYTE		        Cn2 
	BYTE	W06
	BYTE		        Cs2 
	BYTE	W06
	BYTE		        Ds2 
	BYTE	W06
	BYTE		        Fn2 
	BYTE	W06
	BYTE		        Cn2 
	BYTE	W06
	BYTE		        Cs2 
	BYTE	W06
	BYTE		        Ds2 
	BYTE	W06
	BYTE		        Fn2 
	BYTE	W06
	BYTE		        Cn2 
	BYTE	W06
	BYTE		        Gs2 
	BYTE	W06
	BYTE		        Gn2 
	BYTE	W06
// 048   ----------------------------------------
	BYTE		        Bn2 
	BYTE	W06
	BYTE		        As2 
	BYTE	W06
	BYTE		        Gs2 
	BYTE	W06
	BYTE		        Ds2 
	BYTE	W06
	BYTE		        Bn2 
	BYTE	W06
	BYTE		        Cs3 
	BYTE	W06
	BYTE		        As2 
	BYTE	W06
	BYTE		        Gs2 
	BYTE	W06
	BYTE		        Ds2 
	BYTE	W06
	BYTE		        Fn2 
	BYTE	W06
	BYTE		        Ds2 
	BYTE	W06
	BYTE		        Cs2 
	BYTE	W12
	BYTE		        Ds2 
	BYTE	W06
	BYTE		        Fn2 
	BYTE	W06
	BYTE		        Gs2 
	BYTE	W06
// 049   ----------------------------------------
	BYTE		        Ds2 
	BYTE	W06
	BYTE		        Cs2 
	BYTE	W06
	BYTE		        Ds2 
	BYTE	W06
	BYTE		        Gs2 
	BYTE	W06
	BYTE		        As2 
	BYTE	W06
	BYTE		        Fn2 
	BYTE	W06
	BYTE		        As2 
	BYTE	W06
	BYTE		        Fn2 
	BYTE	W12
	BYTE		        Ds2 
	BYTE	W06
	BYTE		        Fn2 
	BYTE	W06
	BYTE		        Gs2 
	BYTE	W06
	BYTE		        Ds2 
	BYTE	W06
	BYTE		        Cs2 
	BYTE	W06
	BYTE		        Ds2 
	BYTE	W06
	BYTE		        Gs2 
	BYTE	W06
// 050   ----------------------------------------
	BYTE		        As2 
	BYTE	W06
	BYTE		        Fn2 
	BYTE	W06
	BYTE		        As2 
	BYTE	W06
	BYTE		        Fn2 
	BYTE	W12
	BYTE		        Ds2 
	BYTE	W06
	BYTE		        Fn2 
	BYTE	W06
	BYTE		        Gs2 
	BYTE	W06
	BYTE		        As2 
	BYTE	W06
	BYTE		        Gs2 
	BYTE	W06
	BYTE		        Fn2 
	BYTE	W06
	BYTE		        Ds2 
	BYTE	W06
	BYTE		        Fn2 
	BYTE	W06
	BYTE		        Gs2 
	BYTE	W06
	BYTE		        As2 
	BYTE	W06
	BYTE		        Ds3 
	BYTE	W06
// 051   ----------------------------------------
	BYTE		        As2 
	BYTE	W06
	BYTE		        Ds3 
	BYTE	W06
	BYTE		        As2 
	BYTE	W06
	BYTE		        Gs2 
	BYTE	W06
	BYTE		        As2 
	BYTE	W06
	BYTE		        Ds3 
	BYTE	W06
	BYTE		        As2 
	BYTE	W06
	BYTE		        Gs2 
	BYTE	W06
	BYTE		        As2 
	BYTE	W06
	BYTE		        Gs2 
	BYTE	W06
	BYTE		        Ds3 
	BYTE	W06
	BYTE		        Gs2   v127
	BYTE	W30
// 052   ----------------------------------------
	BYTE	W96
// 053   ----------------------------------------
	BYTE	W96
// 054   ----------------------------------------
	BYTE	W96
// 055   ----------------------------------------
	BYTE	W96
// 056   ----------------------------------------
	BYTE	W96
// 057   ----------------------------------------
	BYTE	W96
// 058   ----------------------------------------
	BYTE	W96
// 059   ----------------------------------------
	BYTE	W96
// 060   ----------------------------------------
	BYTE	W96
// 061   ----------------------------------------
	BYTE	W96
// 062   ----------------------------------------
	BYTE	W96
// 063   ----------------------------------------
	BYTE	W96
// 064   ----------------------------------------
	BYTE	W96
// 065   ----------------------------------------
	BYTE	W24
// 066   ----------------------------------------
	BYTE	W96
// 067   ----------------------------------------
	BYTE	W96
// 068   ----------------------------------------
	BYTE	W96
// 069   ----------------------------------------
	BYTE	W96
// 070   ----------------------------------------
	BYTE	W96
// 071   ----------------------------------------
	BYTE	W96
// 072   ----------------------------------------
	BYTE	W96
// 073   ----------------------------------------
	BYTE	W96
// 074   ----------------------------------------
	BYTE	W96
// 075   ----------------------------------------
	BYTE	W96
// 076   ----------------------------------------
	BYTE	W96
// 077   ----------------------------------------
	BYTE	W96
// 078   ----------------------------------------
	BYTE	W96
// 079   ----------------------------------------
	BYTE	W96
// 080   ----------------------------------------
	BYTE	W96
// 081   ----------------------------------------
	BYTE	W96
// 082   ----------------------------------------
	BYTE	W96
// 083   ----------------------------------------
	BYTE	W96
// 084   ----------------------------------------
	BYTE	W96
// 085   ----------------------------------------
	BYTE	W96
// 086   ----------------------------------------
	BYTE	W96
// 087   ----------------------------------------
	BYTE	W96
// 088   ----------------------------------------
	BYTE	W96
// 089   ----------------------------------------
	BYTE	W96
// 090   ----------------------------------------
	BYTE	W96
// 091   ----------------------------------------
	BYTE	W96
// 092   ----------------------------------------
	BYTE	W96
// 093   ----------------------------------------
	BYTE	W96
// 094   ----------------------------------------
	BYTE	W96
// 095   ----------------------------------------
	BYTE	W96
// 096   ----------------------------------------
	BYTE	W96
// 097   ----------------------------------------
	BYTE	W96
// 098   ----------------------------------------
	BYTE	W96
// 099   ----------------------------------------
	BYTE	W96
// 100   ----------------------------------------
	BYTE	W96
// 101   ----------------------------------------
	BYTE	W96
// 102   ----------------------------------------
	BYTE	W96
// 103   ----------------------------------------
	BYTE	W96
// 104   ----------------------------------------
	BYTE	W96
// 105   ----------------------------------------
	BYTE	W96
// 106   ----------------------------------------
	BYTE	W72
// 107   ----------------------------------------
	BYTE	W72
// 108   ----------------------------------------
	BYTE	W72
// 109   ----------------------------------------
	BYTE	W72
// 110   ----------------------------------------
	BYTE	W72
// 111   ----------------------------------------
	BYTE	W72
// 112   ----------------------------------------
	BYTE	W72
// 113   ----------------------------------------
	BYTE	W72
// 114   ----------------------------------------
	BYTE	W72
// 115   ----------------------------------------
	BYTE	W72
	BYTE	GoTo
	 POIN2	IdPurpose_5_B1
IdPurpose_5_B2:
// 116   ----------------------------------------
	BYTE	FINE

//**************** Track 6 (Midi-Chn.6) ****************//

IdPurpose_6:
	BYTE	KEYSH   IdPurpose_key+0
// 000   ----------------------------------------
	BYTE		VOICE   42
	BYTE		PAN     c_v+12
	BYTE		VOL     100*IdPurpose_mvl/mxv
	BYTE	W72
IdPurpose_6_B1:
	BYTE	W06
	BYTE		N05     Dn2   v080
	BYTE	W06
	BYTE		        Ds2 
	BYTE	W06
	BYTE		        Fn2 
	BYTE	W06
// 001   ----------------------------------------
IdPurpose_6_001:
	BYTE		N05     Ds2   v080
	BYTE	W06
	BYTE		        Dn2 
	BYTE	W06
	BYTE		        Ds2 
	BYTE	W06
	BYTE		        Fn2 
	BYTE	W06
	BYTE		        Ds2 
	BYTE	W06
	BYTE		        Dn2 
	BYTE	W06
	BYTE		        Ds2 
	BYTE	W06
	BYTE		        Fn2 
	BYTE	W12
	BYTE		        Dn2 
	BYTE	W06
	BYTE		        Ds2 
	BYTE	W06
	BYTE		        Fn2 
	BYTE	W06
	BYTE		        Ds2 
	BYTE	W06
	BYTE		        Dn2 
	BYTE	W06
	BYTE		        Ds2 
	BYTE	W06
	BYTE		        Fn2 
	BYTE	W06
	BYTE	PEND
// 002   ----------------------------------------
IdPurpose_6_002:
	BYTE		N05     Ds2   v080
	BYTE	W06
	BYTE		        Dn2 
	BYTE	W06
	BYTE		        Ds2 
	BYTE	W06
	BYTE		        Fn2 
	BYTE	W12
	BYTE		        Cn2 
	BYTE	W06
	BYTE		        Dn2 
	BYTE	W06
	BYTE		        Fn2 
	BYTE	W06
	BYTE		        Dn2 
	BYTE	W06
	BYTE		        Cn2 
	BYTE	W06
	BYTE		        Dn2 
	BYTE	W06
	BYTE		        Fn2 
	BYTE	W06
	BYTE		        Dn2 
	BYTE	W06
	BYTE		        Cn2 
	BYTE	W06
	BYTE		        Dn2 
	BYTE	W06
	BYTE		        Fn2 
	BYTE	W06
	BYTE	PEND
// 003   ----------------------------------------
IdPurpose_6_003:
	BYTE	W06
	BYTE		N05     Cn2   v080
	BYTE	W06
	BYTE		        Dn2 
	BYTE	W06
	BYTE		        Fn2 
	BYTE	W06
	BYTE		        Dn2 
	BYTE	W06
	BYTE		        Cn2 
	BYTE	W06
	BYTE		        Dn2 
	BYTE	W06
	BYTE		        Fn2 
	BYTE	W06
	BYTE		        Dn2 
	BYTE	W06
	BYTE		        Cn2 
	BYTE	W06
	BYTE		        Dn2 
	BYTE	W06
	BYTE		        Fn2 
	BYTE	W12
	BYTE		        Dn2 
	BYTE	W06
	BYTE		        Ds2 
	BYTE	W06
	BYTE		        Fn2 
	BYTE	W06
	BYTE	PEND
// 004   ----------------------------------------
	BYTE	PATT
	 POIN2	IdPurpose_6_001
// 005   ----------------------------------------
	BYTE	PATT
	 POIN2	IdPurpose_6_002
// 006   ----------------------------------------
	BYTE	PATT
	 POIN2	IdPurpose_6_003
// 007   ----------------------------------------
IdPurpose_6_007:
	BYTE		N05     Gn2   v080
	BYTE	W06
	BYTE		        Ds2 
	BYTE	W06
	BYTE		        Fn2 
	BYTE	W06
	BYTE		        Gn2 
	BYTE	W06
	BYTE		        An2 
	BYTE	W06
	BYTE		        As2 
	BYTE	W06
	BYTE		        An2 
	BYTE	W06
	BYTE		        Gn2 
	BYTE	W06
	BYTE		        Fn2 
	BYTE	W06
	BYTE		        Gn2 
	BYTE	W06
	BYTE		        An2 
	BYTE	W06
	BYTE		        As2 
	BYTE	W06
	BYTE		        Cn3 
	BYTE	W06
	BYTE		        An2 
	BYTE	W06
	BYTE		        As2 
	BYTE	W06
	BYTE		        Cn3 
	BYTE	W06
	BYTE	PEND
// 008   ----------------------------------------
IdPurpose_6_008:
	BYTE		N05     Dn3   v080
	BYTE	W06
	BYTE		        Gn2 
	BYTE	W06
	BYTE		        Cn3 
	BYTE	W06
	BYTE		        As2 
	BYTE	W06
	BYTE		        Gn2 
	BYTE	W06
	BYTE		        An2 
	BYTE	W06
	BYTE		        As2 
	BYTE	W06
	BYTE		        An2 
	BYTE	W06
	BYTE		        Gn2 
	BYTE	W06
	BYTE		        An2 
	BYTE	W06
	BYTE		        As2 
	BYTE	W06
	BYTE		        An2 
	BYTE	W06
	BYTE		        Gn2 
	BYTE	W06
	BYTE		        Fn2 
	BYTE	W06
	BYTE		        Dn2 
	BYTE	W06
	BYTE		        Fn2 
	BYTE	W06
	BYTE	PEND
// 009   ----------------------------------------
	BYTE	W06
	BYTE		        En2 
	BYTE	W06
	BYTE		        Fn2 
	BYTE	W06
	BYTE		        Gn2 
	BYTE	W06
	BYTE		        Fn2 
	BYTE	W06
	BYTE		        En2 
	BYTE	W06
	BYTE		        Fn2 
	BYTE	W06
	BYTE		        Gn2 
	BYTE	W06
	BYTE		        An2 
	BYTE	W06
	BYTE		        En2 
	BYTE	W06
	BYTE		        Gn2 
	BYTE	W06
	BYTE		        Fn2 
	BYTE	W12
	BYTE		        Gn2 
	BYTE	W06
	BYTE		        Gs2 
	BYTE	W06
	BYTE		        Ds2 
	BYTE	W06
// 010   ----------------------------------------
	BYTE		        Fn2 
	BYTE	W06
	BYTE		        Cn2 
	BYTE	W06
	BYTE		        Dn2 
	BYTE	W06
	BYTE		        Ds2 
	BYTE	W06
	BYTE		        Fn2 
	BYTE	W06
	BYTE		        Dn2 
	BYTE	W06
	BYTE		        Ds2 
	BYTE	W06
	BYTE		        Dn2 
	BYTE	W12
	BYTE		        As2 
	BYTE	W06
	BYTE		        Cn3 
	BYTE	W06
	BYTE		        Gn2 
	BYTE	W06
	BYTE		        Gs2 
	BYTE	W06
	BYTE		        Cn3 
	BYTE	W06
	BYTE		        As2 
	BYTE	W06
	BYTE		        Gs2 
	BYTE	W06
// 011   ----------------------------------------
	BYTE		N05   
	BYTE	W06
	BYTE		        Cn3 
	BYTE	W06
	BYTE		        As2 
	BYTE	W06
	BYTE		        Gs2 
	BYTE	W12
	BYTE		        Dn2 
	BYTE	W06
	BYTE		        Ds2 
	BYTE	W06
	BYTE		        Fn2 
	BYTE	W06
	BYTE		        Gn2 
	BYTE	W06
	BYTE		        Dn2 
	BYTE	W06
	BYTE		        Ds2 
	BYTE	W06
	BYTE		        Dn2 
	BYTE	W06
	BYTE		        Ds2 
	BYTE	W06
	BYTE		        Fn2 
	BYTE	W06
	BYTE		        Gn2 
	BYTE	W06
	BYTE		        An2 
	BYTE	W06
// 012   ----------------------------------------
	BYTE		        As2 
	BYTE	W06
	BYTE		        Cn3 
	BYTE	W06
	BYTE		        As2 
	BYTE	W06
	BYTE		        An2 
	BYTE	W06
	BYTE		        As2 
	BYTE	W06
	BYTE		        Cn3 
	BYTE	W06
	BYTE		        As2 
	BYTE	W06
	BYTE		        An2 
	BYTE	W06
	BYTE		        As2 
	BYTE	W06
	BYTE		        Gn2 
	BYTE	W06
	BYTE		        Dn3 
	BYTE	W06
	BYTE		        Gn2 
	BYTE	W12
	BYTE		        Dn2 
	BYTE	W06
	BYTE		        Ds2 
	BYTE	W06
	BYTE		        Fn2 
	BYTE	W06
// 013   ----------------------------------------
	BYTE	PATT
	 POIN2	IdPurpose_6_001
// 014   ----------------------------------------
	BYTE	PATT
	 POIN2	IdPurpose_6_002
// 015   ----------------------------------------
	BYTE	W06
	BYTE		N05     Cn2   v080
	BYTE	W06
	BYTE		        Dn2 
	BYTE	W06
	BYTE		        Fn2 
	BYTE	W06
	BYTE		        Dn2 
	BYTE	W06
	BYTE		        Cn2 
	BYTE	W06
	BYTE		        Dn2 
	BYTE	W06
	BYTE		        Fn2 
	BYTE	W06
	BYTE		        Dn2 
	BYTE	W06
	BYTE		        Cn2 
	BYTE	W06
	BYTE		        Dn2 
	BYTE	W06
	BYTE		        Fn2 
	BYTE	W06
	BYTE		        Ds2 
	BYTE	W06
	BYTE		        Dn2 
	BYTE	W06
	BYTE		        Ds2 
	BYTE	W06
	BYTE		        Fn2 
	BYTE	W06
// 016   ----------------------------------------
	BYTE	PATT
	 POIN2	IdPurpose_6_001
// 017   ----------------------------------------
	BYTE	PATT
	 POIN2	IdPurpose_6_002
// 018   ----------------------------------------
	BYTE	PATT
	 POIN2	IdPurpose_6_003
// 019   ----------------------------------------
	BYTE	PATT
	 POIN2	IdPurpose_6_007
// 020   ----------------------------------------
	BYTE	PATT
	 POIN2	IdPurpose_6_008
// 021   ----------------------------------------
	BYTE	W06
	BYTE		N05     Ds2   v080
	BYTE	W06
	BYTE		        Fn2 
	BYTE	W06
	BYTE		        Gn2 
	BYTE	W06
	BYTE		        Gs2 
	BYTE	W06
	BYTE		        Ds2 
	BYTE	W06
	BYTE		        Fn2 
	BYTE	W06
	BYTE		        Gn2 
	BYTE	W06
	BYTE		        Gs2 
	BYTE	W06
	BYTE		        Ds2 
	BYTE	W06
	BYTE		        Gn2 
	BYTE	W06
	BYTE		        Fn2 
	BYTE	W12
	BYTE		        Cn2 
	BYTE	W06
	BYTE		        Cs2 
	BYTE	W06
	BYTE		        Ds2 
	BYTE	W06
// 022   ----------------------------------------
	BYTE		        Fn2 
	BYTE	W06
	BYTE		        Cn2 
	BYTE	W06
	BYTE		        Cs2 
	BYTE	W06
	BYTE		        Ds2 
	BYTE	W06
	BYTE		        Fn2 
	BYTE	W06
	BYTE		        Cn2 
	BYTE	W06
	BYTE		        Gs2 
	BYTE	W06
	BYTE		        Gn2 
	BYTE	W06
	BYTE		        Bn2 
	BYTE	W06
	BYTE		        As2 
	BYTE	W06
	BYTE		        Gs2 
	BYTE	W06
	BYTE		        Ds2 
	BYTE	W06
	BYTE		        Bn2 
	BYTE	W06
	BYTE		        Cs3 
	BYTE	W06
	BYTE		        As2 
	BYTE	W06
	BYTE		        Gs2 
	BYTE	W06
// 023   ----------------------------------------
	BYTE		        Ds2 
	BYTE	W06
	BYTE		        Fn2 
	BYTE	W06
	BYTE		        Ds2 
	BYTE	W06
	BYTE		        Cs2 
	BYTE	W12
	BYTE		        Ds2 
	BYTE	W06
	BYTE		        Fn2 
	BYTE	W06
	BYTE		        Gs2 
	BYTE	W54
// 024   ----------------------------------------
	BYTE	W78
	BYTE		N05   
	BYTE	W06
	BYTE		        As2   v084
	BYTE	W06
	BYTE		        Ds3 
	BYTE	W06
// 025   ----------------------------------------
	BYTE		        As2 
	BYTE	W06
	BYTE		        Ds3   v088
	BYTE	W06
	BYTE		        As2 
	BYTE	W06
	BYTE		        Ds3   v092
	BYTE	W06
	BYTE		        As2 
	BYTE	W06
	BYTE		        Gs2 
	BYTE	W06
	BYTE		        As2   v096
	BYTE	W06
	BYTE		        Gs2 
	BYTE	W06
	BYTE		        Fs2 
	BYTE	W06
	BYTE		        En2 
	BYTE	W06
	BYTE		        Fs2 
	BYTE	W06
	BYTE		        Cs3   v092
	BYTE	W06
	BYTE		        Fs2 
	BYTE	W06
	BYTE		        En2 
	BYTE	W06
	BYTE		        Fs2   v088
	BYTE	W06
	BYTE		        Cs3 
	BYTE	W06
// 026   ----------------------------------------
	BYTE		        Fs2 
	BYTE	W06
	BYTE		        En2   v084
	BYTE	W06
	BYTE		        Fs2 
	BYTE	W06
	BYTE		        Cs3   v080
	BYTE	W12
	BYTE		        En2 
	BYTE	W06
	BYTE		        Fs2   v084
	BYTE	W06
	BYTE		        Cs3 
	BYTE	W06
	BYTE		        Fs2 
	BYTE	W06
	BYTE		        En2   v088
	BYTE	W06
	BYTE		        Fs2 
	BYTE	W06
	BYTE		        Cs3   v092
	BYTE	W06
	BYTE		        Fs2 
	BYTE	W06
	BYTE		        En2 
	BYTE	W06
	BYTE		        Fs2   v096
	BYTE	W06
	BYTE		        Cs3 
	BYTE	W06
// 027   ----------------------------------------
	BYTE		        En2 
	BYTE	W06
	BYTE		        Dn2 
	BYTE	W06
	BYTE		        En2 
	BYTE	W06
	BYTE		        Bn2   v092
	BYTE	W06
	BYTE		        En2 
	BYTE	W06
	BYTE		        Dn2 
	BYTE	W06
	BYTE		        En2   v088
	BYTE	W06
	BYTE		        Bn2 
	BYTE	W06
	BYTE		        En2 
	BYTE	W06
	BYTE		        Dn2   v084
	BYTE	W06
	BYTE		        En2 
	BYTE	W06
	BYTE		        Bn2   v080
	BYTE	W12
	BYTE		        Dn2 
	BYTE	W06
	BYTE		        En2   v084
	BYTE	W06
	BYTE		        Bn2 
	BYTE	W06
// 028   ----------------------------------------
	BYTE		        En2 
	BYTE	W06
	BYTE		        Dn2   v088
	BYTE	W06
	BYTE		        En2 
	BYTE	W06
	BYTE		        Bn2   v092
	BYTE	W06
	BYTE		        En2 
	BYTE	W06
	BYTE		        Dn2 
	BYTE	W06
	BYTE		        En2   v096
	BYTE	W06
	BYTE		        Bn2 
	BYTE	W06
	BYTE		        En2 
	BYTE	W06
	BYTE		        Fs2 
	BYTE	W06
	BYTE		        Gn2 
	BYTE	W06
	BYTE		        Dn3   v092
	BYTE	W06
	BYTE		        Gn2 
	BYTE	W06
	BYTE		        Fs2 
	BYTE	W06
	BYTE		        Gn2   v088
	BYTE	W06
	BYTE		        Dn3 
	BYTE	W06
// 029   ----------------------------------------
	BYTE		        Gn2 
	BYTE	W06
	BYTE		        Fs2   v084
	BYTE	W06
	BYTE		        Gn2 
	BYTE	W06
	BYTE		        Dn3   v080
	BYTE	W12
	BYTE		        Dn2 
	BYTE	W06
	BYTE		        En2   v084
	BYTE	W06
	BYTE		        An2 
	BYTE	W06
	BYTE		        En2 
	BYTE	W06
	BYTE		        Dn2   v088
	BYTE	W06
	BYTE		        En2 
	BYTE	W06
	BYTE		        An2   v092
	BYTE	W06
	BYTE		        En2 
	BYTE	W06
	BYTE		        Dn2 
	BYTE	W06
	BYTE		        En2   v096
	BYTE	W06
	BYTE		        An2 
	BYTE	W06
// 030   ----------------------------------------
	BYTE	W06
	BYTE		        Dn2 
	BYTE	W06
	BYTE		        En2 
	BYTE	W06
	BYTE		        An2 
	BYTE	W06
	BYTE		        En2 
	BYTE	W06
	BYTE		        Dn2 
	BYTE	W06
	BYTE		        An2 
	BYTE	W06
	BYTE		        En2 
	BYTE	W06
	BYTE		        Cs2 
	BYTE	W06
	BYTE		        En2   v092
	BYTE	W06
	BYTE		        Bn2   v088
	BYTE	W06
	BYTE		        En2   v080
	BYTE	W12
	BYTE		        An2 
	BYTE	W06
	BYTE		        Bn2 
	BYTE	W06
	BYTE		        En3 
	BYTE	W06
// 031   ----------------------------------------
	BYTE		        Bn2 
	BYTE	W06
	BYTE		        An2 
	BYTE	W06
	BYTE		        Bn2 
	BYTE	W06
	BYTE		        En3 
	BYTE	W06
	BYTE		        Bn2 
	BYTE	W06
	BYTE		        An2 
	BYTE	W06
	BYTE		        Bn2 
	BYTE	W06
	BYTE		        En3 
	BYTE	W12
	BYTE		        Fn2 
	BYTE	W06
	BYTE		        Gn2 
	BYTE	W06
	BYTE		        Dn3 
	BYTE	W06
	BYTE		        Gn2 
	BYTE	W06
	BYTE		        Fn2 
	BYTE	W06
	BYTE		        Gn2 
	BYTE	W06
	BYTE		        Dn3 
	BYTE	W06
// 032   ----------------------------------------
	BYTE		        Gn2 
	BYTE	W06
	BYTE		        Fn2 
	BYTE	W06
	BYTE		        Gn2 
	BYTE	W06
	BYTE		        Dn3 
	BYTE	W12
	BYTE		        Fn2 
	BYTE	W06
	BYTE		        Gn2 
	BYTE	W06
	BYTE		        Dn3 
	BYTE	W06
	BYTE		        Gn2 
	BYTE	W06
	BYTE		        Fn2 
	BYTE	W06
	BYTE		        Gn2 
	BYTE	W06
	BYTE		        Dn3 
	BYTE	W06
	BYTE		        Gn2 
	BYTE	W06
	BYTE		        Fn2 
	BYTE	W06
	BYTE		        Gn2 
	BYTE	W06
	BYTE		        Dn3 
	BYTE	W06
// 033   ----------------------------------------
	BYTE	W06
	BYTE		        Ds2 
	BYTE	W06
	BYTE		        Fn2 
	BYTE	W06
	BYTE		        Cn3 
	BYTE	W06
	BYTE		        Fn2 
	BYTE	W06
	BYTE		        Ds2 
	BYTE	W06
	BYTE		        Fn2 
	BYTE	W06
	BYTE		        Cn3 
	BYTE	W06
	BYTE		        Fn2 
	BYTE	W06
	BYTE		        Ds2 
	BYTE	W06
	BYTE		        Fn2 
	BYTE	W06
	BYTE		        Cn3 
	BYTE	W12
	BYTE		        Ds2 
	BYTE	W06
	BYTE		        Fn2 
	BYTE	W06
	BYTE		        Cn3 
	BYTE	W06
// 034   ----------------------------------------
	BYTE		        Fn2 
	BYTE	W06
	BYTE		        Ds2 
	BYTE	W06
	BYTE		        Fn2 
	BYTE	W06
	BYTE		        Cn3 
	BYTE	W06
	BYTE		        Fn2 
	BYTE	W06
	BYTE		        Ds2 
	BYTE	W06
	BYTE		        Fn2 
	BYTE	W06
	BYTE		        Cn3 
	BYTE	W06
	BYTE		        Gs2 
	BYTE	W06
	BYTE		        Gn2 
	BYTE	W06
	BYTE		        Gs2 
	BYTE	W06
	BYTE		        Ds3 
	BYTE	W06
	BYTE		        Gs2 
	BYTE	W06
	BYTE		        Gn2 
	BYTE	W06
	BYTE		        Gs2 
	BYTE	W06
	BYTE		        Ds3 
	BYTE	W06
// 035   ----------------------------------------
	BYTE		        Gs2 
	BYTE	W06
	BYTE		        Gn2 
	BYTE	W06
	BYTE		        Gs2 
	BYTE	W06
	BYTE		        Ds3 
	BYTE	W12
	BYTE		        Ds2 
	BYTE	W06
	BYTE		        Fn2 
	BYTE	W06
	BYTE		        As2 
	BYTE	W06
	BYTE		        Fn2 
	BYTE	W06
	BYTE		        Ds2 
	BYTE	W06
	BYTE		        Fn2 
	BYTE	W06
	BYTE		        As2 
	BYTE	W06
	BYTE		        Fn2 
	BYTE	W06
	BYTE		        Ds2 
	BYTE	W06
	BYTE		        Fn2 
	BYTE	W06
	BYTE		        As2 
	BYTE	W06
// 036   ----------------------------------------
	BYTE		        Fn2 
	BYTE	W06
	BYTE		        Ds2 
	BYTE	W06
	BYTE		        Fn2 
	BYTE	W06
	BYTE		        An2 
	BYTE	W06
	BYTE		        Ds2 
	BYTE	W06
	BYTE		        Fn2 
	BYTE	W06
	BYTE		        Cn3 
	BYTE	W06
	BYTE		        Fn2 
	BYTE	W06
	BYTE		        Cn2 
	BYTE	W06
	BYTE		        Ds2 
	BYTE	W06
	BYTE		        Cn2 
	BYTE	W06
	BYTE		        An1 
	BYTE	W06
	BYTE		N68     Dn2 
	BYTE	W24
// 037   ----------------------------------------
	BYTE	W48
	BYTE		        Dn2   v096
	BYTE	W48
// 038   ----------------------------------------
	BYTE	W30
	BYTE		N05   
	BYTE	W06
	BYTE		        Ds2 
	BYTE	W06
	BYTE		        Fn2 
	BYTE	W06
	BYTE		        Ds2 
	BYTE	W06
	BYTE		        Dn2 
	BYTE	W06
	BYTE		        Ds2 
	BYTE	W06
	BYTE		        Fn2 
	BYTE	W06
	BYTE		        Ds2 
	BYTE	W06
	BYTE		        Dn2 
	BYTE	W06
	BYTE		        Ds2 
	BYTE	W06
	BYTE		        Fn2 
	BYTE	W06
// 039   ----------------------------------------
IdPurpose_6_039:
	BYTE	W06
	BYTE		N05     Dn2   v096
	BYTE	W06
	BYTE		        Ds2 
	BYTE	W06
	BYTE		        Fn2 
	BYTE	W06
	BYTE		        Ds2 
	BYTE	W06
	BYTE		        Dn2 
	BYTE	W06
	BYTE		        Ds2 
	BYTE	W06
	BYTE		        Fn2 
	BYTE	W06
	BYTE		        Ds2 
	BYTE	W06
	BYTE		        Dn2 
	BYTE	W06
	BYTE		        Ds2 
	BYTE	W06
	BYTE		        Fn2 
	BYTE	W12
	BYTE		        Cn2 
	BYTE	W06
	BYTE		        Dn2 
	BYTE	W06
	BYTE		        Fn2 
	BYTE	W06
	BYTE	PEND
// 040   ----------------------------------------
IdPurpose_6_040:
	BYTE		N05     Dn2   v096
	BYTE	W06
	BYTE		        Cn2 
	BYTE	W06
	BYTE		        Dn2 
	BYTE	W06
	BYTE		        Fn2 
	BYTE	W06
	BYTE		        Dn2 
	BYTE	W06
	BYTE		        Cn2 
	BYTE	W06
	BYTE		        Dn2 
	BYTE	W06
	BYTE		        Fn2 
	BYTE	W12
	BYTE		        Cn2 
	BYTE	W06
	BYTE		        Dn2 
	BYTE	W06
	BYTE		        Fn2 
	BYTE	W06
	BYTE		        Dn2 
	BYTE	W06
	BYTE		        Cn2 
	BYTE	W06
	BYTE		        Dn2 
	BYTE	W06
	BYTE		        Fn2 
	BYTE	W06
	BYTE	PEND
// 041   ----------------------------------------
	BYTE		        Dn2 
	BYTE	W06
	BYTE		        Cn2 
	BYTE	W06
	BYTE		        Dn2 
	BYTE	W06
	BYTE		        Fn2 
	BYTE	W06
	BYTE		        Ds2 
	BYTE	W06
	BYTE		        Dn2 
	BYTE	W06
	BYTE		        Ds2 
	BYTE	W06
	BYTE		        Fn2 
	BYTE	W06
	BYTE		        Ds2 
	BYTE	W06
	BYTE		        Dn2 
	BYTE	W06
	BYTE		        Ds2 
	BYTE	W06
	BYTE		        Fn2 
	BYTE	W06
	BYTE		        Ds2 
	BYTE	W06
	BYTE		        Dn2 
	BYTE	W06
	BYTE		        Ds2 
	BYTE	W06
	BYTE		        Fn2 
	BYTE	W06
// 042   ----------------------------------------
	BYTE	PATT
	 POIN2	IdPurpose_6_039
// 043   ----------------------------------------
	BYTE	PATT
	 POIN2	IdPurpose_6_040
// 044   ----------------------------------------
	BYTE		N05     Dn2   v096
	BYTE	W06
	BYTE		        Cn2 
	BYTE	W06
	BYTE		        Dn2 
	BYTE	W06
	BYTE		        Fn2 
	BYTE	W12
	BYTE		        Dn2 
	BYTE	W06
	BYTE		        Ds2 
	BYTE	W06
	BYTE		        Fn2 
	BYTE	W06
	BYTE		        Gn2 
	BYTE	W06
	BYTE		        Ds2 
	BYTE	W06
	BYTE		        Fn2 
	BYTE	W06
	BYTE		        Gn2 
	BYTE	W06
	BYTE		        An2 
	BYTE	W06
	BYTE		        As2 
	BYTE	W06
	BYTE		        An2 
	BYTE	W06
	BYTE		        Gn2 
	BYTE	W06
// 045   ----------------------------------------
	BYTE		        Fn2 
	BYTE	W06
	BYTE		        Gn2 
	BYTE	W06
	BYTE		        An2 
	BYTE	W06
	BYTE		        As2 
	BYTE	W06
	BYTE		        Cn3 
	BYTE	W06
	BYTE		        An2 
	BYTE	W06
	BYTE		        As2 
	BYTE	W06
	BYTE		        Cn3 
	BYTE	W06
	BYTE		        Dn3 
	BYTE	W06
	BYTE		        Gn2 
	BYTE	W06
	BYTE		        Cn3 
	BYTE	W06
	BYTE		        As2 
	BYTE	W06
	BYTE		        Gn2 
	BYTE	W06
	BYTE		        An2 
	BYTE	W06
	BYTE		        As2 
	BYTE	W06
	BYTE		        An2 
	BYTE	W06
// 046   ----------------------------------------
	BYTE		        Gn2 
	BYTE	W06
	BYTE		        An2 
	BYTE	W06
	BYTE		        As2 
	BYTE	W06
	BYTE		        An2 
	BYTE	W06
	BYTE		        Gn2 
	BYTE	W06
	BYTE		        Fn2 
	BYTE	W06
	BYTE		        Dn2 
	BYTE	W06
	BYTE		        Fn2 
	BYTE	W12
	BYTE		        Ds2 
	BYTE	W06
	BYTE		        Fn2 
	BYTE	W06
	BYTE		        Gn2 
	BYTE	W06
	BYTE		        Gs2 
	BYTE	W06
	BYTE		        Ds2 
	BYTE	W06
	BYTE		        Fn2 
	BYTE	W06
	BYTE		        Gn2 
	BYTE	W06
// 047   ----------------------------------------
	BYTE		        Gs2 
	BYTE	W06
	BYTE		        Ds2 
	BYTE	W06
	BYTE		        Gn2 
	BYTE	W06
	BYTE		        Fn2 
	BYTE	W12
	BYTE		        Cn2 
	BYTE	W06
	BYTE		        Cs2 
	BYTE	W06
	BYTE		        Ds2 
	BYTE	W06
	BYTE		        Fn2 
	BYTE	W06
	BYTE		        Cn2 
	BYTE	W06
	BYTE		        Cs2 
	BYTE	W06
	BYTE		        Ds2 
	BYTE	W06
	BYTE		        Fn2 
	BYTE	W06
	BYTE		        Cn2 
	BYTE	W06
	BYTE		        Gs2 
	BYTE	W06
	BYTE		        Gn2 
	BYTE	W06
// 048   ----------------------------------------
	BYTE		        Bn2 
	BYTE	W06
	BYTE		        As2 
	BYTE	W06
	BYTE		        Gs2 
	BYTE	W06
	BYTE		        Ds2 
	BYTE	W06
	BYTE		        Bn2 
	BYTE	W06
	BYTE		        Cs3 
	BYTE	W06
	BYTE		        As2 
	BYTE	W06
	BYTE		        Gs2 
	BYTE	W06
	BYTE		        Ds2 
	BYTE	W06
	BYTE		        Fn2 
	BYTE	W06
	BYTE		        Ds2 
	BYTE	W06
	BYTE		        Cs2 
	BYTE	W12
	BYTE		        Ds2 
	BYTE	W06
	BYTE		        Fn2 
	BYTE	W06
	BYTE		        Gs2 
	BYTE	W06
// 049   ----------------------------------------
	BYTE		        Ds2 
	BYTE	W06
	BYTE		        Cs2 
	BYTE	W06
	BYTE		        Ds2 
	BYTE	W06
	BYTE		        Gs2 
	BYTE	W06
	BYTE		        As2 
	BYTE	W06
	BYTE		        Fn2 
	BYTE	W06
	BYTE		        As2 
	BYTE	W06
	BYTE		        Fn2 
	BYTE	W12
	BYTE		        Ds2 
	BYTE	W06
	BYTE		        Fn2 
	BYTE	W06
	BYTE		        Gs2 
	BYTE	W06
	BYTE		        Ds2 
	BYTE	W06
	BYTE		        Cs2 
	BYTE	W06
	BYTE		        Ds2 
	BYTE	W06
	BYTE		        Gs2 
	BYTE	W06
// 050   ----------------------------------------
	BYTE		        As2 
	BYTE	W06
	BYTE		        Fn2 
	BYTE	W06
	BYTE		        As2 
	BYTE	W06
	BYTE		        Fn2 
	BYTE	W12
	BYTE		        Ds2 
	BYTE	W06
	BYTE		        Fn2 
	BYTE	W06
	BYTE		        Gs2 
	BYTE	W06
	BYTE		        As2 
	BYTE	W06
	BYTE		        Gs2 
	BYTE	W06
	BYTE		        Fn2 
	BYTE	W06
	BYTE		        Ds2 
	BYTE	W06
	BYTE		        Fn2 
	BYTE	W06
	BYTE		        Gs2 
	BYTE	W06
	BYTE		        As2 
	BYTE	W06
	BYTE		        Ds3 
	BYTE	W06
// 051   ----------------------------------------
	BYTE		        As2 
	BYTE	W06
	BYTE		        Ds3 
	BYTE	W06
	BYTE		        As2 
	BYTE	W06
	BYTE		        Gs2 
	BYTE	W06
	BYTE		        As2 
	BYTE	W06
	BYTE		        Ds3 
	BYTE	W06
	BYTE		        As2 
	BYTE	W06
	BYTE		        Gs2 
	BYTE	W06
	BYTE		        As2 
	BYTE	W06
	BYTE		        Gs2 
	BYTE	W06
	BYTE		        Ds3 
	BYTE	W06
	BYTE		        Gs2   v127
	BYTE	W06
	BYTE		N68     Bn1   v080
	BYTE	W24
// 052   ----------------------------------------
	BYTE	W48
	BYTE		        Cs2 
	BYTE	W48
// 053   ----------------------------------------
	BYTE	W24
	BYTE		        Ds2 
	BYTE	W72
// 054   ----------------------------------------
	BYTE		        Cs2 
	BYTE	W72
	BYTE		        Bn1 
	BYTE	W24
// 055   ----------------------------------------
	BYTE	W48
	BYTE		        Cs2 
	BYTE	W48
// 056   ----------------------------------------
	BYTE	W24
	BYTE		        Ds2 
	BYTE	W72
// 057   ----------------------------------------
	BYTE		        Cs2 
	BYTE	W72
	BYTE		        Dn2 
	BYTE	W24
// 058   ----------------------------------------
	BYTE	W48
	BYTE		        Fs2 
	BYTE	W48
// 059   ----------------------------------------
	BYTE	W24
	BYTE		        Cs2 
	BYTE	W72
// 060   ----------------------------------------
	BYTE		        Bn1 
	BYTE		N68     En2 
	BYTE	W72
	BYTE		        Dn2 
	BYTE		N68     An2 
	BYTE	W24
// 061   ----------------------------------------
	BYTE	W48
	BYTE		        Bn1 
	BYTE		N68     Fs2 
	BYTE	W48
// 062   ----------------------------------------
	BYTE	W24
	BYTE		TIE     Cs2 
	BYTE		TIE     Gs2 
	BYTE	W72
// 063   ----------------------------------------
	BYTE	W68
	BYTE	W03
	BYTE		EOT     Cs2 
	BYTE		        Gs2 
	BYTE	W01
	BYTE		N68     Cs2 
	BYTE		N68     As2 
	BYTE	W24
// 064   ----------------------------------------
	BYTE	W48
	BYTE		N23     As2   v108
	BYTE	W24
	BYTE		        Bn2   v116
	BYTE	W24
// 065   ----------------------------------------
	BYTE		        Cs3   v127
	BYTE	W24
// 066   ----------------------------------------
	BYTE		        Bn1 
	BYTE	W24
	BYTE		        Bn1   v080
	BYTE	W24
	BYTE		        Cs2 
	BYTE	W24
	BYTE		        Dn2 
	BYTE	W24
// 067   ----------------------------------------
IdPurpose_6_067:
	BYTE		N23     En2   v080
	BYTE	W24
	BYTE		        Dn2 
	BYTE	W24
	BYTE		        Cs2 
	BYTE	W24
	BYTE		        Gn1 
	BYTE	W24
	BYTE	PEND
// 068   ----------------------------------------
IdPurpose_6_068:
	BYTE		N23     An1   v080
	BYTE	W24
	BYTE		        Bn1 
	BYTE	W24
	BYTE		        Cs2 
	BYTE	W24
	BYTE		        En2 
	BYTE	W24
	BYTE	PEND
// 069   ----------------------------------------
IdPurpose_6_069:
	BYTE		N23     Dn2   v080
	BYTE	W24
	BYTE		        Cs2 
	BYTE	W24
	BYTE		        Dn2 
	BYTE	W24
	BYTE		        An1 
	BYTE	W24
	BYTE	PEND
// 070   ----------------------------------------
IdPurpose_6_070:
	BYTE		N23     Gn1   v080
	BYTE	W24
	BYTE		N23   
	BYTE	W24
	BYTE		        Bn1 
	BYTE	W24
	BYTE		        Dn2 
	BYTE	W24
	BYTE	PEND
// 071   ----------------------------------------
IdPurpose_6_071:
	BYTE		N23     Cs2   v080
	BYTE	W24
	BYTE		        Dn2 
	BYTE	W24
	BYTE		        En2 
	BYTE	W24
	BYTE		        Cs2 
	BYTE	W24
	BYTE	PEND
// 072   ----------------------------------------
IdPurpose_6_072:
	BYTE		N23     As1   v080
	BYTE	W24
	BYTE		        Bn1 
	BYTE	W24
	BYTE		        Cs2 
	BYTE	W24
	BYTE		        As1 
	BYTE	W24
	BYTE	PEND
// 073   ----------------------------------------
IdPurpose_6_073:
	BYTE		N23     Fs1   v080
	BYTE	W24
	BYTE		        Gs1 
	BYTE	W24
	BYTE		        As1 
	BYTE	W24
	BYTE		        Cs2 
	BYTE	W24
	BYTE	PEND
// 074   ----------------------------------------
IdPurpose_6_074:
	BYTE		N23     Bn1   v080
	BYTE	W24
	BYTE		N23   
	BYTE	W24
	BYTE		        Cs2 
	BYTE	W24
	BYTE		        Dn2 
	BYTE	W24
	BYTE	PEND
// 075   ----------------------------------------
	BYTE	PATT
	 POIN2	IdPurpose_6_067
// 076   ----------------------------------------
	BYTE	PATT
	 POIN2	IdPurpose_6_068
// 077   ----------------------------------------
	BYTE	PATT
	 POIN2	IdPurpose_6_069
// 078   ----------------------------------------
	BYTE	PATT
	 POIN2	IdPurpose_6_070
// 079   ----------------------------------------
	BYTE	PATT
	 POIN2	IdPurpose_6_071
// 080   ----------------------------------------
	BYTE	PATT
	 POIN2	IdPurpose_6_072
// 081   ----------------------------------------
	BYTE	PATT
	 POIN2	IdPurpose_6_073
// 082   ----------------------------------------
	BYTE	PATT
	 POIN2	IdPurpose_6_074
// 083   ----------------------------------------
	BYTE	PATT
	 POIN2	IdPurpose_6_067
// 084   ----------------------------------------
	BYTE	PATT
	 POIN2	IdPurpose_6_068
// 085   ----------------------------------------
	BYTE	PATT
	 POIN2	IdPurpose_6_069
// 086   ----------------------------------------
	BYTE	PATT
	 POIN2	IdPurpose_6_070
// 087   ----------------------------------------
	BYTE	PATT
	 POIN2	IdPurpose_6_071
// 088   ----------------------------------------
	BYTE	PATT
	 POIN2	IdPurpose_6_072
// 089   ----------------------------------------
	BYTE	PATT
	 POIN2	IdPurpose_6_073
// 090   ----------------------------------------
	BYTE		N23     Bn1   v112
	BYTE	W24
	BYTE		N23   
	BYTE	W24
	BYTE		        Cs2 
	BYTE	W24
	BYTE		        Dn2 
	BYTE	W24
// 091   ----------------------------------------
	BYTE		        En2 
	BYTE	W24
	BYTE		        Dn2 
	BYTE	W24
	BYTE		        Cs2 
	BYTE	W24
	BYTE		        Gn1 
	BYTE	W24
// 092   ----------------------------------------
	BYTE		        An1 
	BYTE	W24
	BYTE		        Bn1 
	BYTE	W24
	BYTE		        Cs2 
	BYTE	W24
	BYTE		        En2 
	BYTE	W24
// 093   ----------------------------------------
	BYTE		        Dn2 
	BYTE	W24
	BYTE		        Cs2 
	BYTE	W24
	BYTE		        Dn2 
	BYTE	W24
	BYTE		        An1 
	BYTE	W24
// 094   ----------------------------------------
	BYTE		        Gn1 
	BYTE	W24
	BYTE		N23   
	BYTE	W24
	BYTE		        Bn1 
	BYTE	W24
	BYTE		        Dn2 
	BYTE	W24
// 095   ----------------------------------------
	BYTE		        Cs2 
	BYTE	W24
	BYTE		        Dn2 
	BYTE	W24
	BYTE		        En2 
	BYTE	W24
	BYTE		        Cs2 
	BYTE	W24
// 096   ----------------------------------------
	BYTE		        As1 
	BYTE	W24
	BYTE		        Bn1 
	BYTE	W24
	BYTE		        Cs2 
	BYTE	W24
	BYTE		        As1 
	BYTE	W24
// 097   ----------------------------------------
	BYTE		        Fs1 
	BYTE	W24
	BYTE		        Gs1   v116
	BYTE	W24
	BYTE		        As1   v124
	BYTE	W24
	BYTE		        Cs2   v127
	BYTE	W24
// 098   ----------------------------------------
	BYTE		        Bn1 
	BYTE	W24
	BYTE		N23   
	BYTE	W24
	BYTE		        Cs2 
	BYTE	W24
	BYTE		        Dn2 
	BYTE	W24
// 099   ----------------------------------------
	BYTE		        En2 
	BYTE	W24
	BYTE		        Dn2 
	BYTE	W24
	BYTE		        Cs2 
	BYTE	W24
	BYTE		        Gn1 
	BYTE	W24
// 100   ----------------------------------------
	BYTE		        An1 
	BYTE	W24
	BYTE		        Bn1 
	BYTE	W24
	BYTE		        Cs2 
	BYTE	W24
	BYTE		        En2 
	BYTE	W24
// 101   ----------------------------------------
	BYTE		        Dn2 
	BYTE	W24
	BYTE		        Cs2 
	BYTE	W24
	BYTE		        Dn2 
	BYTE	W24
	BYTE		        An1 
	BYTE	W24
// 102   ----------------------------------------
	BYTE		        Gn1 
	BYTE	W24
	BYTE		N23   
	BYTE	W24
	BYTE		        Bn1 
	BYTE	W24
	BYTE		        Dn2 
	BYTE	W24
// 103   ----------------------------------------
	BYTE		        Cs2 
	BYTE	W24
	BYTE		        Dn2 
	BYTE	W24
	BYTE		        En2 
	BYTE	W24
	BYTE		        Cs2 
	BYTE	W24
// 104   ----------------------------------------
	BYTE		        As1 
	BYTE	W24
	BYTE		        Bn1 
	BYTE	W24
	BYTE		        Cs2 
	BYTE	W24
	BYTE		        As1 
	BYTE	W24
// 105   ----------------------------------------
	BYTE		        Fs1 
	BYTE	W24
	BYTE		        Gs1 
	BYTE	W24
	BYTE		        As1 
	BYTE	W24
	BYTE		        Cs2 
	BYTE	W24
// 106   ----------------------------------------
	BYTE		N68     Bn1   v112
	BYTE		N68     Fs2 
	BYTE	W72
// 107   ----------------------------------------
	BYTE		        En1 
	BYTE		N68     Bn1 
	BYTE	W72
// 108   ----------------------------------------
	BYTE		        Fs1 
	BYTE		N68     Cs2 
	BYTE	W72
// 109   ----------------------------------------
	BYTE		        An1 
	BYTE		N68     En2 
	BYTE	W72
// 110   ----------------------------------------
	BYTE		        Bn1 
	BYTE		N68     Fs2 
	BYTE	W72
// 111   ----------------------------------------
	BYTE		        En1 
	BYTE		N68     Bn1 
	BYTE	W72
// 112   ----------------------------------------
	BYTE		TIE     Fs1 
	BYTE		TIE     Cs2 
	BYTE	W72
// 113   ----------------------------------------
	BYTE	W68
	BYTE	W03
	BYTE		EOT     Fs1 
	BYTE		        Cs2 
	BYTE	W01
// 114   ----------------------------------------
	BYTE		TIE     An1   v096
	BYTE	W72
// 115   ----------------------------------------
	BYTE	W68
	BYTE	W03
	BYTE		EOT   
	BYTE	W01
	BYTE	GoTo
	 POIN2	IdPurpose_6_B1
IdPurpose_6_B2:
// 116   ----------------------------------------
	BYTE	FINE

//**************** Track 7 (Midi-Chn.7) ****************//

IdPurpose_7:
	BYTE	KEYSH   IdPurpose_key+0
// 000   ----------------------------------------
	BYTE		VOICE   45
	BYTE		PAN     c_v-8
	BYTE		VOL     100*IdPurpose_mvl/mxv
	BYTE	W72
IdPurpose_7_B1:
	BYTE		N68     Gn1   v096
	BYTE	W24
// 001   ----------------------------------------
	BYTE	W48
	BYTE		        Ds1 
	BYTE	W48
// 002   ----------------------------------------
IdPurpose_7_002:
	BYTE	W24
	BYTE		TIE     Fn1   v096
	BYTE	W72
	BYTE	PEND
// 003   ----------------------------------------
	BYTE	W68
	BYTE	W03
	BYTE		EOT   
	BYTE	W01
	BYTE		N68     Gn1 
	BYTE	W24
// 004   ----------------------------------------
	BYTE	W48
	BYTE		        Ds1 
	BYTE	W48
// 005   ----------------------------------------
	BYTE	W24
	BYTE		        As1 
	BYTE	W72
// 006   ----------------------------------------
IdPurpose_7_006:
	BYTE		N68     Fn1   v096
	BYTE	W72
	BYTE		N44     Cn1 
	BYTE	W24
	BYTE	PEND
// 007   ----------------------------------------
IdPurpose_7_007:
	BYTE	W24
	BYTE		N23     Dn1   v096
	BYTE	W24
	BYTE		N44     Ds1 
	BYTE	W48
	BYTE	PEND
// 008   ----------------------------------------
IdPurpose_7_008:
	BYTE		N23     Fn1   v096
	BYTE	W24
	BYTE		N68     Gn1 
	BYTE	W72
	BYTE	PEND
// 009   ----------------------------------------
	BYTE		        Dn1 
	BYTE	W72
	BYTE		        Fn1 
	BYTE	W24
// 010   ----------------------------------------
	BYTE	W48
	BYTE		        Gs1 
	BYTE	W48
// 011   ----------------------------------------
	BYTE	W24
	BYTE		TIE     Cn1 
	BYTE	W72
// 012   ----------------------------------------
	BYTE	W68
	BYTE	W03
	BYTE		EOT   
	BYTE	W01
	BYTE		N68     Gn1 
	BYTE	W24
// 013   ----------------------------------------
	BYTE	W48
	BYTE		        Ds1 
	BYTE	W48
// 014   ----------------------------------------
	BYTE	PATT
	 POIN2	IdPurpose_7_002
// 015   ----------------------------------------
	BYTE	W68
	BYTE	W03
	BYTE		EOT     Fn1 
	BYTE	W01
	BYTE		N68     Gn1   v096
	BYTE	W24
// 016   ----------------------------------------
	BYTE	W48
	BYTE		        Ds1 
	BYTE	W48
// 017   ----------------------------------------
	BYTE	W24
	BYTE		        As1 
	BYTE	W72
// 018   ----------------------------------------
	BYTE	PATT
	 POIN2	IdPurpose_7_006
// 019   ----------------------------------------
	BYTE	PATT
	 POIN2	IdPurpose_7_007
// 020   ----------------------------------------
	BYTE	PATT
	 POIN2	IdPurpose_7_008
// 021   ----------------------------------------
	BYTE		N68     Cs1   v096
	BYTE	W72
	BYTE		        Cn1 
	BYTE	W24
// 022   ----------------------------------------
	BYTE	W48
	BYTE		N44     Bn0 
	BYTE	W48
// 023   ----------------------------------------
	BYTE		N23     Cs1 
	BYTE	W24
	BYTE		TIE     Ds1 
	BYTE	W72
// 024   ----------------------------------------
	BYTE	W68
	BYTE	W03
	BYTE		EOT   
	BYTE	W01
	BYTE		N68     En1   v052
	BYTE	W24
// 025   ----------------------------------------
	BYTE	W48
	BYTE		        Bn0   v096
	BYTE	W48
// 026   ----------------------------------------
	BYTE	W24
	BYTE		        Dn1   v052
	BYTE	W72
// 027   ----------------------------------------
	BYTE		        Cs1   v096
	BYTE	W72
	BYTE		        Cn1   v052
	BYTE	W24
// 028   ----------------------------------------
	BYTE	W48
	BYTE		        Bn0   v096
	BYTE	W48
// 029   ----------------------------------------
	BYTE	W24
	BYTE		TIE     An0 
	BYTE	W72
// 030   ----------------------------------------
	BYTE	W68
	BYTE	W03
	BYTE		EOT   
	BYTE	W01
	BYTE		N68     Fn1   v052
	BYTE	W24
// 031   ----------------------------------------
	BYTE	W48
	BYTE		        Cn1   v096
	BYTE	W48
// 032   ----------------------------------------
	BYTE	W24
	BYTE		        Ds1   v052
	BYTE	W72
// 033   ----------------------------------------
	BYTE		        Dn1   v096
	BYTE	W72
	BYTE		        Cs1 
	BYTE	W24
// 034   ----------------------------------------
	BYTE	W48
	BYTE		        Cn1 
	BYTE	W48
// 035   ----------------------------------------
	BYTE	PATT
	 POIN2	IdPurpose_7_002
// 036   ----------------------------------------
	BYTE	W68
	BYTE	W03
	BYTE		EOT     Fn1 
	BYTE	W01
	BYTE		TIE     Dn1   v096
	BYTE	W24
// 037   ----------------------------------------
	BYTE	W96
// 038   ----------------------------------------
	BYTE	W23
	BYTE		EOT   
	BYTE	W01
	BYTE		N68     Gn1   v112
	BYTE	W72
// 039   ----------------------------------------
	BYTE		        Ds1 
	BYTE	W72
	BYTE		TIE     Fn1 
	BYTE	W24
// 040   ----------------------------------------
	BYTE	W96
// 041   ----------------------------------------
	BYTE	W23
	BYTE		EOT   
	BYTE	W01
	BYTE		N68     Gn1 
	BYTE	W72
// 042   ----------------------------------------
	BYTE		        Ds1 
	BYTE	W72
	BYTE		        As1 
	BYTE	W24
// 043   ----------------------------------------
	BYTE	W48
	BYTE		        Fn1 
	BYTE	W48
// 044   ----------------------------------------
	BYTE	W24
	BYTE		N44     Cn1 
	BYTE	W48
	BYTE		N23     Dn1 
	BYTE	W24
// 045   ----------------------------------------
	BYTE		N44     Ds1 
	BYTE	W48
	BYTE		N23     Fn1 
	BYTE	W24
	BYTE		N68     Gn1 
	BYTE	W24
// 046   ----------------------------------------
	BYTE	W48
	BYTE		        Cs1 
	BYTE	W48
// 047   ----------------------------------------
	BYTE	W24
	BYTE		        Cn1 
	BYTE	W72
// 048   ----------------------------------------
	BYTE		N44     Bn0 
	BYTE	W48
	BYTE		N23     Cs1 
	BYTE	W24
	BYTE		TIE     Ds1 
	BYTE	W24
// 049   ----------------------------------------
	BYTE	W96
// 050   ----------------------------------------
	BYTE	W96
// 051   ----------------------------------------
	BYTE	W68
	BYTE	W03
	BYTE		EOT   
	BYTE	W01
	BYTE		N68     En1   v080
	BYTE	W24
// 052   ----------------------------------------
	BYTE	W48
	BYTE		        Cs2 
	BYTE	W48
// 053   ----------------------------------------
	BYTE	W24
	BYTE		        Gs1 
	BYTE	W72
// 054   ----------------------------------------
	BYTE		        Fs1 
	BYTE	W72
	BYTE		        En1 
	BYTE	W24
// 055   ----------------------------------------
	BYTE	W48
	BYTE		        Cs1 
	BYTE	W48
// 056   ----------------------------------------
	BYTE	W24
	BYTE		        Gs1 
	BYTE	W72
// 057   ----------------------------------------
	BYTE		        Bn1 
	BYTE	W72
	BYTE		        Gn1   v096
	BYTE	W24
// 058   ----------------------------------------
	BYTE	W48
	BYTE		        En1 
	BYTE	W48
// 059   ----------------------------------------
	BYTE	W24
	BYTE		        Fs1 
	BYTE	W72
// 060   ----------------------------------------
	BYTE		        En1 
	BYTE	W72
	BYTE		        Dn1 
	BYTE		N68     An1 
	BYTE	W24
// 061   ----------------------------------------
	BYTE	W48
	BYTE		        En1 
	BYTE	W48
// 062   ----------------------------------------
	BYTE	W24
	BYTE		TIE     Cs1 
	BYTE	W72
// 063   ----------------------------------------
	BYTE	W68
	BYTE	W03
	BYTE		EOT   
	BYTE	W01
	BYTE		N68     Fs0 
	BYTE		N68     Fs1 
	BYTE	W24
// 064   ----------------------------------------
	BYTE	W48
	BYTE		N23     Fs0   v116
	BYTE		N23     Fs1 
	BYTE	W24
	BYTE		        Gs0   v120
	BYTE		N23     Gs1 
	BYTE	W24
// 065   ----------------------------------------
	BYTE		        As0   v127
	BYTE		N23     As1 
	BYTE	W24
// 066   ----------------------------------------
	BYTE		        Bn0 
	BYTE	W24
	BYTE		        Bn0   v080
	BYTE	W24
	BYTE		        Cs1 
	BYTE	W24
	BYTE		        Dn1 
	BYTE	W24
// 067   ----------------------------------------
IdPurpose_7_067:
	BYTE		N23     En1   v080
	BYTE	W24
	BYTE		        Dn1 
	BYTE	W24
	BYTE		        Cs1 
	BYTE	W24
	BYTE		        Gn0 
	BYTE	W24
	BYTE	PEND
// 068   ----------------------------------------
IdPurpose_7_068:
	BYTE		N23     An0   v080
	BYTE	W24
	BYTE		        Bn0 
	BYTE	W24
	BYTE		        Cs1 
	BYTE	W24
	BYTE		        En1 
	BYTE	W24
	BYTE	PEND
// 069   ----------------------------------------
IdPurpose_7_069:
	BYTE		N23     Dn1   v080
	BYTE	W24
	BYTE		        Cs1 
	BYTE	W24
	BYTE		        Dn1 
	BYTE	W24
	BYTE		        An0 
	BYTE	W24
	BYTE	PEND
// 070   ----------------------------------------
IdPurpose_7_070:
	BYTE		N23     Gn0   v080
	BYTE	W24
	BYTE		N23   
	BYTE	W24
	BYTE		        Bn0 
	BYTE	W24
	BYTE		        Dn1 
	BYTE	W24
	BYTE	PEND
// 071   ----------------------------------------
IdPurpose_7_071:
	BYTE		N23     Cs1   v080
	BYTE	W24
	BYTE		        Dn1 
	BYTE	W24
	BYTE		        En1 
	BYTE	W24
	BYTE		        Cs1 
	BYTE	W24
	BYTE	PEND
// 072   ----------------------------------------
IdPurpose_7_072:
	BYTE		N23     As0   v080
	BYTE	W24
	BYTE		        Bn0 
	BYTE	W24
	BYTE		        Cs1 
	BYTE	W24
	BYTE		        As0 
	BYTE	W24
	BYTE	PEND
// 073   ----------------------------------------
IdPurpose_7_073:
	BYTE		N23     Fs0   v080
	BYTE	W24
	BYTE		        Gs0 
	BYTE	W24
	BYTE		        As0 
	BYTE	W24
	BYTE		        Cs1 
	BYTE	W24
	BYTE	PEND
// 074   ----------------------------------------
	BYTE		        Bn0 
	BYTE	W24
	BYTE		N23   
	BYTE	W24
	BYTE		        Cs1 
	BYTE	W24
	BYTE		        Dn1 
	BYTE	W24
// 075   ----------------------------------------
	BYTE	PATT
	 POIN2	IdPurpose_7_067
// 076   ----------------------------------------
	BYTE	PATT
	 POIN2	IdPurpose_7_068
// 077   ----------------------------------------
	BYTE	PATT
	 POIN2	IdPurpose_7_069
// 078   ----------------------------------------
	BYTE	PATT
	 POIN2	IdPurpose_7_070
// 079   ----------------------------------------
	BYTE	PATT
	 POIN2	IdPurpose_7_071
// 080   ----------------------------------------
	BYTE	PATT
	 POIN2	IdPurpose_7_072
// 081   ----------------------------------------
	BYTE	PATT
	 POIN2	IdPurpose_7_073
// 082   ----------------------------------------
	BYTE		N44     Bn0   v080
	BYTE	W48
	BYTE		N23     Cs1 
	BYTE	W24
	BYTE		        Dn1 
	BYTE	W24
// 083   ----------------------------------------
	BYTE	PATT
	 POIN2	IdPurpose_7_067
// 084   ----------------------------------------
	BYTE	PATT
	 POIN2	IdPurpose_7_068
// 085   ----------------------------------------
	BYTE	PATT
	 POIN2	IdPurpose_7_069
// 086   ----------------------------------------
	BYTE	PATT
	 POIN2	IdPurpose_7_070
// 087   ----------------------------------------
	BYTE	PATT
	 POIN2	IdPurpose_7_071
// 088   ----------------------------------------
	BYTE	PATT
	 POIN2	IdPurpose_7_072
// 089   ----------------------------------------
	BYTE	PATT
	 POIN2	IdPurpose_7_073
// 090   ----------------------------------------
	BYTE		N44     Bn0   v112
	BYTE	W48
	BYTE		N23     Cs1 
	BYTE	W24
	BYTE		        Dn1 
	BYTE	W24
// 091   ----------------------------------------
	BYTE		        En1 
	BYTE	W24
	BYTE		        Dn1 
	BYTE	W24
	BYTE		        Cs1 
	BYTE	W24
	BYTE		        Gn0 
	BYTE	W24
// 092   ----------------------------------------
	BYTE		        An0 
	BYTE	W24
	BYTE		        Bn0 
	BYTE	W24
	BYTE		        Cs1 
	BYTE	W24
	BYTE		        En1 
	BYTE	W24
// 093   ----------------------------------------
	BYTE		        Dn1 
	BYTE	W24
	BYTE		        Cs1 
	BYTE	W24
	BYTE		        Dn1 
	BYTE	W24
	BYTE		        An0 
	BYTE	W24
// 094   ----------------------------------------
	BYTE		        Gn0 
	BYTE	W24
	BYTE		N23   
	BYTE	W24
	BYTE		        Bn0 
	BYTE	W24
	BYTE		        Dn1 
	BYTE	W24
// 095   ----------------------------------------
	BYTE		        Cs1 
	BYTE	W24
	BYTE		        Dn1 
	BYTE	W24
	BYTE		        En1 
	BYTE	W24
	BYTE		        Cs1 
	BYTE	W24
// 096   ----------------------------------------
	BYTE		        As0 
	BYTE	W24
	BYTE		        Bn0 
	BYTE	W24
	BYTE		        Cs1 
	BYTE	W24
	BYTE		        As0 
	BYTE	W24
// 097   ----------------------------------------
	BYTE		        Fs0 
	BYTE	W24
	BYTE		        Gs0   v116
	BYTE	W24
	BYTE		        As0   v124
	BYTE	W24
	BYTE		        Cs1   v127
	BYTE	W24
// 098   ----------------------------------------
	BYTE		N92     Bn0 
	BYTE	W96
// 099   ----------------------------------------
	BYTE		        En1 
	BYTE	W96
// 100   ----------------------------------------
	BYTE		        An0 
	BYTE	W96
// 101   ----------------------------------------
	BYTE		        Dn1 
	BYTE	W96
// 102   ----------------------------------------
	BYTE		        Gn0 
	BYTE	W96
// 103   ----------------------------------------
	BYTE		        Cs1 
	BYTE	W96
// 104   ----------------------------------------
	BYTE		        Fs0 
	BYTE	W96
// 105   ----------------------------------------
	BYTE		N92   
	BYTE	W96
// 106   ----------------------------------------
	BYTE		N68     Gn0   v112
	BYTE	W72
// 107   ----------------------------------------
	BYTE		        En0 
	BYTE	W72
// 108   ----------------------------------------
	BYTE		        Fs0 
	BYTE	W72
// 109   ----------------------------------------
	BYTE		        An0 
	BYTE	W72
// 110   ----------------------------------------
	BYTE		        Gn0 
	BYTE	W72
// 111   ----------------------------------------
	BYTE		        En0 
	BYTE	W72
// 112   ----------------------------------------
	BYTE		TIE     Fs0 
	BYTE	W72
// 113   ----------------------------------------
	BYTE	W68
	BYTE	W03
	BYTE		EOT   
	BYTE	W01
// 114   ----------------------------------------
	BYTE		TIE     An1   v096
	BYTE	W72
// 115   ----------------------------------------
	BYTE	W68
	BYTE	W03
	BYTE		EOT   
	BYTE	W01
	BYTE	GoTo
	 POIN2	IdPurpose_7_B1
IdPurpose_7_B2:
// 116   ----------------------------------------
	BYTE	FINE

//**************** Track 8 (Midi-Chn.8) ****************//

IdPurpose_8:
	BYTE	KEYSH   IdPurpose_key+0
// 000   ----------------------------------------
	BYTE		VOICE   46
	BYTE		PAN     c_v+12
	BYTE		VOL     100*IdPurpose_mvl/mxv
	BYTE	W72
IdPurpose_8_B1:
	BYTE	W24
// 001   ----------------------------------------
	BYTE	W96
// 002   ----------------------------------------
	BYTE	W96
// 003   ----------------------------------------
IdPurpose_8_003:
	BYTE		N02     Fn4   v096
	BYTE	W02
	BYTE		        Cn5 
	BYTE	W03
	BYTE		        Fn5 
	BYTE	W03
	BYTE		N60     Fn4 
	BYTE		N60     Cn5 
	BYTE		N60     Fn5 
	BYTE	W88
	BYTE	PEND
// 004   ----------------------------------------
	BYTE	W96
// 005   ----------------------------------------
	BYTE	W96
// 006   ----------------------------------------
	BYTE	W72
	BYTE		N44     Ds4   v080
	BYTE	W24
// 007   ----------------------------------------
IdPurpose_8_007:
	BYTE	W24
	BYTE		N23     Fn4   v088
	BYTE	W24
	BYTE		N44     Gn4   v092
	BYTE	W48
	BYTE	PEND
// 008   ----------------------------------------
	BYTE		N23     An4   v096
	BYTE	W24
	BYTE		N68     Dn4 
	BYTE	W03
	BYTE		        Gn4 
	BYTE	W03
	BYTE		N64     As4 
	BYTE	W66
// 009   ----------------------------------------
	BYTE		N68     An4 
	BYTE	W96
// 010   ----------------------------------------
	BYTE	W96
// 011   ----------------------------------------
	BYTE	W96
// 012   ----------------------------------------
	BYTE		N02     Cn4 
	BYTE	W02
	BYTE		        Gn4 
	BYTE	W03
	BYTE		        Cn5 
	BYTE	W03
	BYTE		N60     Cn4 
	BYTE		N60     Gn4 
	BYTE		N60     Cn5 
	BYTE	W88
// 013   ----------------------------------------
	BYTE	W96
// 014   ----------------------------------------
	BYTE	W96
// 015   ----------------------------------------
	BYTE	PATT
	 POIN2	IdPurpose_8_003
// 016   ----------------------------------------
	BYTE	W96
// 017   ----------------------------------------
	BYTE	W96
// 018   ----------------------------------------
	BYTE	W72
	BYTE		N44     Ds4   v080
	BYTE	W24
// 019   ----------------------------------------
	BYTE	PATT
	 POIN2	IdPurpose_8_007
// 020   ----------------------------------------
	BYTE		N23     Cn4   v096
	BYTE	W03
	BYTE		N20     Fn4 
	BYTE	W03
	BYTE		N17     An4 
	BYTE	W18
	BYTE		N68     Dn4 
	BYTE	W03
	BYTE		        Gn4 
	BYTE	W03
	BYTE		N64     As4 
	BYTE	W66
// 021   ----------------------------------------
	BYTE		N02     Fn5 
	BYTE	W02
	BYTE		        Cn5 
	BYTE	W03
	BYTE		        Gs4 
	BYTE	W03
	BYTE		N60     Fn4 
	BYTE	W64
	BYTE		N68     Ds4 
	BYTE	W03
	BYTE		        Ds5 
	BYTE	W21
// 022   ----------------------------------------
	BYTE	W96
// 023   ----------------------------------------
	BYTE	W96
// 024   ----------------------------------------
	BYTE	W12
	BYTE		N05     As5 
	BYTE	W06
	BYTE		        Ds5 
	BYTE	W54
	BYTE		N02     Gs4 
	BYTE	W02
	BYTE		        As4 
	BYTE	W03
	BYTE		N66     Bn4 
	BYTE	W19
// 025   ----------------------------------------
	BYTE	W48
	BYTE		N68     Bn2 
	BYTE		N02     Gs3 
	BYTE	W02
	BYTE		N68     Fs3 
	BYTE	W44
	BYTE	W02
// 026   ----------------------------------------
	BYTE	W24
	BYTE		        Dn4 
	BYTE		N02     Fs4 
	BYTE	W02
	BYTE		N68     Gs4 
	BYTE	W68
	BYTE	W02
// 027   ----------------------------------------
	BYTE		        Cs3 
	BYTE		N02     Gs3 
	BYTE	W02
	BYTE		N68     Fs3 
	BYTE	W92
	BYTE	W02
// 028   ----------------------------------------
	BYTE	W96
// 029   ----------------------------------------
	BYTE	W96
// 030   ----------------------------------------
	BYTE		N01     En3   v112
	BYTE		N01     An3 
	BYTE		N01     En4 
	BYTE	W01
	BYTE		        An4 
	BYTE		N01     En5 
	BYTE	W02
	BYTE		N02     Dn5 
	BYTE	W03
	BYTE		        Cs5 
	BYTE	W03
	BYTE		        An4 
	BYTE	W03
	BYTE		        En4 
	BYTE	W03
	BYTE		        Dn4 
	BYTE	W03
	BYTE		        Cs4   v108
	BYTE	W03
	BYTE		        An3 
	BYTE	W03
	BYTE		        En3 
	BYTE	W03
	BYTE		        Dn3 
	BYTE	W03
	BYTE		N05     Cs3 
	BYTE	W42
	BYTE		N02     An4   v096
	BYTE	W02
	BYTE		        Bn4 
	BYTE	W03
	BYTE		N66     Cn5 
	BYTE	W19
// 031   ----------------------------------------
	BYTE	W48
	BYTE		N68     Cn3 
	BYTE		N02     An3 
	BYTE	W02
	BYTE		N68     Gn3 
	BYTE	W44
	BYTE	W02
// 032   ----------------------------------------
	BYTE	W24
	BYTE		N02     Ds4 
	BYTE	W02
	BYTE		        Gn4 
	BYTE	W03
	BYTE		N66     An4 
	BYTE	W66
	BYTE	W01
// 033   ----------------------------------------
	BYTE		N68     An2 
	BYTE		N02     Gn3 
	BYTE	W02
	BYTE		N68     Fn3 
	BYTE	W92
	BYTE	W02
// 034   ----------------------------------------
	BYTE	W96
// 035   ----------------------------------------
	BYTE	W48
	BYTE		N11     Cn4   v052
	BYTE		N11     Fn4 
	BYTE	W12
	BYTE		        Cn4 
	BYTE	W12
	BYTE		N11   
	BYTE		N11     Fn4 
	BYTE	W12
	BYTE		        Cn4 
	BYTE	W12
// 036   ----------------------------------------
	BYTE		N11   
	BYTE		N11     Fn4 
	BYTE	W12
	BYTE		        Cn4 
	BYTE	W12
	BYTE		N11   
	BYTE		N11     Fn4 
	BYTE	W12
	BYTE		        Cn4 
	BYTE	W12
	BYTE		N11   
	BYTE		N11     Fn4 
	BYTE	W12
	BYTE		        Cn4   v112
	BYTE	W36
// 037   ----------------------------------------
	BYTE		N05     Dn5   v080
	BYTE	W06
	BYTE		        Dn4   v084
	BYTE	W06
	BYTE		        An4 
	BYTE	W06
	BYTE		        Dn4   v088
	BYTE	W06
	BYTE		        Dn5 
	BYTE	W06
	BYTE		        Dn4 
	BYTE	W06
	BYTE		        An4   v092
	BYTE	W06
	BYTE		        Dn4 
	BYTE	W06
	BYTE		        Dn5   v096
	BYTE	W06
	BYTE		        Dn4 
	BYTE	W06
	BYTE		        An4 
	BYTE	W06
	BYTE		        Dn4   v100
	BYTE	W06
	BYTE		        Dn5 
	BYTE	W06
	BYTE		        Dn4   v104
	BYTE	W06
	BYTE		        An4 
	BYTE	W06
	BYTE		        Dn4   v108
	BYTE	W06
// 038   ----------------------------------------
	BYTE		        Dn5 
	BYTE	W06
	BYTE		        Dn4 
	BYTE	W06
	BYTE		        An4   v112
	BYTE	W06
	BYTE		        Dn4 
	BYTE	W78
// 039   ----------------------------------------
	BYTE	W48
	BYTE		N03     Fn3   v080
	BYTE	W04
	BYTE		        As3   v088
	BYTE	W04
	BYTE		        Cn4   v092
	BYTE	W04
	BYTE		        Fn4   v096
	BYTE	W04
	BYTE		        Cn4 
	BYTE	W04
	BYTE		        As3 
	BYTE	W28
// 040   ----------------------------------------
	BYTE	W96
// 041   ----------------------------------------
	BYTE	W96
// 042   ----------------------------------------
	BYTE	W96
// 043   ----------------------------------------
	BYTE	W96
// 044   ----------------------------------------
	BYTE	W24
	BYTE		N44     Ds4 
	BYTE	W48
	BYTE		N23     Fn4 
	BYTE	W24
// 045   ----------------------------------------
	BYTE		N44     Gn4 
	BYTE	W48
	BYTE		N23     Cn4 
	BYTE	W03
	BYTE		N20     Fn4 
	BYTE	W03
	BYTE		N17     An4 
	BYTE	W18
	BYTE		N68     Dn4 
	BYTE	W03
	BYTE		        Gn4 
	BYTE	W03
	BYTE		N64     As4 
	BYTE	W18
// 046   ----------------------------------------
	BYTE	W48
	BYTE		N02     Fn5 
	BYTE	W02
	BYTE		        Cn5 
	BYTE	W03
	BYTE		        Gs4 
	BYTE	W03
	BYTE		N60     Fn4 
	BYTE	W40
// 047   ----------------------------------------
	BYTE	W24
	BYTE		N68     Ds4 
	BYTE	W03
	BYTE		        Ds5 
	BYTE	W68
	BYTE	W01
// 048   ----------------------------------------
	BYTE	W96
// 049   ----------------------------------------
	BYTE	W60
	BYTE		N05     As5 
	BYTE	W06
	BYTE		        Ds5 
	BYTE	W30
// 050   ----------------------------------------
	BYTE	W96
// 051   ----------------------------------------
	BYTE	W12
	BYTE		N01     Ds4 
	BYTE	W01
	BYTE		        As4 
	BYTE	W02
	BYTE		N02     Ds5 
	BYTE	W03
	BYTE		N05     As4 
	BYTE	W06
	BYTE		        Ds4 
	BYTE	W06
	BYTE		        As4 
	BYTE	W06
	BYTE		        Ds5 
	BYTE	W06
	BYTE		        As4 
	BYTE	W06
	BYTE		        Ds4 
	BYTE	W06
	BYTE		        Gs3 
	BYTE	W06
	BYTE		        Ds4 
	BYTE	W06
	BYTE		        Gs3 
	BYTE	W06
	BYTE		N23     Ds4   v080
	BYTE	W24
// 052   ----------------------------------------
	BYTE		N23   
	BYTE	W24
	BYTE		N23   
	BYTE	W24
	BYTE		N23   
	BYTE	W24
	BYTE		N23   
	BYTE	W24
// 053   ----------------------------------------
	BYTE		N23   
	BYTE	W24
	BYTE		N23   
	BYTE	W24
	BYTE		N05     Ds5 
	BYTE	W06
	BYTE		        Ds4 
	BYTE	W06
	BYTE		        Gs4 
	BYTE	W06
	BYTE		        Ds4 
	BYTE	W06
	BYTE		        Ds5 
	BYTE	W06
	BYTE		        Ds4 
	BYTE	W06
	BYTE		        Gs4 
	BYTE	W06
	BYTE		        Ds4 
	BYTE	W06
// 054   ----------------------------------------
IdPurpose_8_054:
	BYTE		N05     Ds5   v080
	BYTE	W06
	BYTE		        Ds4 
	BYTE	W06
	BYTE		        Gs4 
	BYTE	W06
	BYTE		        Ds4 
	BYTE	W06
	BYTE		        Ds5 
	BYTE	W06
	BYTE		        Ds4 
	BYTE	W06
	BYTE		        Gs4 
	BYTE	W06
	BYTE		        Ds4 
	BYTE	W06
	BYTE		        Ds5 
	BYTE	W06
	BYTE		        Ds4 
	BYTE	W06
	BYTE		        Gs4 
	BYTE	W06
	BYTE		        Ds4 
	BYTE	W06
	BYTE		        Ds5 
	BYTE	W06
	BYTE		        Ds4 
	BYTE	W06
	BYTE		        Gs4 
	BYTE	W06
	BYTE		        Ds4 
	BYTE	W06
	BYTE	PEND
// 055   ----------------------------------------
	BYTE	PATT
	 POIN2	IdPurpose_8_054
// 056   ----------------------------------------
	BYTE	PATT
	 POIN2	IdPurpose_8_054
// 057   ----------------------------------------
	BYTE		N05     Ds5   v080
	BYTE	W06
	BYTE		        Ds4 
	BYTE	W06
	BYTE		        Gs4 
	BYTE	W06
	BYTE		        Ds4 
	BYTE	W06
	BYTE		        Ds5 
	BYTE	W06
	BYTE		        Ds4 
	BYTE	W06
	BYTE		        Gs4 
	BYTE	W06
	BYTE		        Ds4 
	BYTE	W06
	BYTE		        Ds5 
	BYTE	W06
	BYTE		        Ds4 
	BYTE	W06
	BYTE		        Gs4 
	BYTE	W06
	BYTE		        Ds4 
	BYTE	W06
	BYTE		        Cs5 
	BYTE	W06
	BYTE		        Cs4 
	BYTE	W06
	BYTE		        Fs4 
	BYTE	W06
	BYTE		        Cs4 
	BYTE	W06
// 058   ----------------------------------------
IdPurpose_8_058:
	BYTE		N05     Cs5   v080
	BYTE	W06
	BYTE		        Cs4 
	BYTE	W06
	BYTE		        Fs4 
	BYTE	W06
	BYTE		        Cs4 
	BYTE	W06
	BYTE		        Cs5 
	BYTE	W06
	BYTE		        Cs4 
	BYTE	W06
	BYTE		        Fs4 
	BYTE	W06
	BYTE		        Cs4 
	BYTE	W06
	BYTE		        Cs5 
	BYTE	W06
	BYTE		        Cs4 
	BYTE	W06
	BYTE		        Fs4 
	BYTE	W06
	BYTE		        Cs4 
	BYTE	W06
	BYTE		        Cs5 
	BYTE	W06
	BYTE		        Cs4 
	BYTE	W06
	BYTE		        Fs4 
	BYTE	W06
	BYTE		        Cs4 
	BYTE	W06
	BYTE	PEND
// 059   ----------------------------------------
	BYTE	PATT
	 POIN2	IdPurpose_8_058
// 060   ----------------------------------------
	BYTE	PATT
	 POIN2	IdPurpose_8_058
// 061   ----------------------------------------
	BYTE	PATT
	 POIN2	IdPurpose_8_058
// 062   ----------------------------------------
	BYTE		N05     Cs5   v080
	BYTE	W06
	BYTE		        Cs4 
	BYTE	W06
	BYTE		        Fs4 
	BYTE	W06
	BYTE		        Cs4 
	BYTE	W12
	BYTE		        Fs4   v096
	BYTE	W06
	BYTE		        Cs5 
	BYTE	W06
	BYTE		        Fs5 
	BYTE	W06
	BYTE		        Cs5 
	BYTE	W06
	BYTE		        Fs4 
	BYTE	W06
	BYTE		        Cs5 
	BYTE	W06
	BYTE		        Fs5 
	BYTE	W06
	BYTE		        Cs5 
	BYTE	W06
	BYTE		        Fs4 
	BYTE	W06
	BYTE		        Cs5 
	BYTE	W06
	BYTE		        Fs5 
	BYTE	W06
// 063   ----------------------------------------
	BYTE	W06
	BYTE		        Fs4 
	BYTE	W06
	BYTE		        Cs5 
	BYTE	W06
	BYTE		        Fs5 
	BYTE	W06
	BYTE		        Cs5 
	BYTE	W06
	BYTE		        Fs4 
	BYTE	W06
	BYTE		        Cs5 
	BYTE	W06
	BYTE		        Fs5 
	BYTE	W06
	BYTE		        Cs5 
	BYTE	W06
	BYTE		        Fs4 
	BYTE	W06
	BYTE		        Cs5 
	BYTE	W06
	BYTE		        Fs5 
	BYTE	W12
	BYTE		        Fs4 
	BYTE	W06
	BYTE		        Cs5 
	BYTE	W06
	BYTE		        Fs5 
	BYTE	W06
// 064   ----------------------------------------
	BYTE		        Cs5 
	BYTE	W06
	BYTE		        Fs4 
	BYTE	W06
	BYTE		        Cs5 
	BYTE	W06
	BYTE		        Fs5 
	BYTE	W06
	BYTE		        Cs5 
	BYTE	W06
	BYTE		        Fs4 
	BYTE	W06
	BYTE		        Cs5 
	BYTE	W06
	BYTE		        Fs5 
	BYTE	W12
	BYTE		        Fs4   v100
	BYTE	W06
	BYTE		        Cs5 
	BYTE	W06
	BYTE		        Fs4 
	BYTE	W06
	BYTE		        Fs5   v104
	BYTE	W06
	BYTE		        Cs5 
	BYTE	W06
	BYTE		        Fs4 
	BYTE	W06
	BYTE		        Cs5   v108
	BYTE	W06
// 065   ----------------------------------------
	BYTE		        Fs5 
	BYTE	W06
	BYTE		        Cs5   v112
	BYTE	W06
	BYTE		        Fs4 
	BYTE	W06
	BYTE		        Fs5 
	BYTE	W06
// 066   ----------------------------------------
	BYTE	W96
// 067   ----------------------------------------
	BYTE	W96
// 068   ----------------------------------------
	BYTE	W96
// 069   ----------------------------------------
	BYTE	W96
// 070   ----------------------------------------
	BYTE	W96
// 071   ----------------------------------------
	BYTE	W96
// 072   ----------------------------------------
	BYTE	W96
// 073   ----------------------------------------
	BYTE	W96
// 074   ----------------------------------------
	BYTE	W96
// 075   ----------------------------------------
	BYTE	W96
// 076   ----------------------------------------
	BYTE	W96
// 077   ----------------------------------------
	BYTE	W96
// 078   ----------------------------------------
	BYTE	W96
// 079   ----------------------------------------
	BYTE	W96
// 080   ----------------------------------------
	BYTE	W96
// 081   ----------------------------------------
	BYTE	W96
// 082   ----------------------------------------
	BYTE	W96
// 083   ----------------------------------------
	BYTE	W96
// 084   ----------------------------------------
	BYTE	W96
// 085   ----------------------------------------
	BYTE	W96
// 086   ----------------------------------------
	BYTE	W96
// 087   ----------------------------------------
	BYTE	W96
// 088   ----------------------------------------
	BYTE	W96
// 089   ----------------------------------------
	BYTE	W96
// 090   ----------------------------------------
	BYTE		N07     Dn5   v096
	BYTE	W08
	BYTE		        Bn4 
	BYTE	W08
	BYTE		        Fs4 
	BYTE	W08
	BYTE		        Dn4 
	BYTE	W08
	BYTE		        Fs4 
	BYTE	W08
	BYTE		        Dn4 
	BYTE	W08
	BYTE		        Bn3 
	BYTE	W08
	BYTE		        Fs3 
	BYTE	W08
	BYTE		        Bn3 
	BYTE	W08
	BYTE		        Fs3 
	BYTE	W08
	BYTE		        Dn3 
	BYTE	W08
	BYTE		        Fs3 
	BYTE	W08
// 091   ----------------------------------------
	BYTE		        Gn4 
	BYTE	W08
	BYTE		        En4 
	BYTE	W08
	BYTE		        Gn4 
	BYTE	W08
	BYTE		        En4 
	BYTE	W08
	BYTE		        Bn3 
	BYTE	W08
	BYTE		        En4 
	BYTE	W08
	BYTE		        Bn3 
	BYTE	W08
	BYTE		        Gn3 
	BYTE	W08
	BYTE		        Bn3 
	BYTE	W08
	BYTE		        Gn3 
	BYTE	W08
	BYTE		        En3 
	BYTE	W08
	BYTE		        Gn3 
	BYTE	W08
// 092   ----------------------------------------
	BYTE		        An4 
	BYTE	W08
	BYTE		        En4 
	BYTE	W08
	BYTE		        An4 
	BYTE	W08
	BYTE		        En4 
	BYTE	W08
	BYTE		        Cs4 
	BYTE	W08
	BYTE		        En4 
	BYTE	W08
	BYTE		        Cs4 
	BYTE	W08
	BYTE		        An3 
	BYTE	W08
	BYTE		        Cs4 
	BYTE	W08
	BYTE		        An3 
	BYTE	W08
	BYTE		        En3 
	BYTE	W08
	BYTE		        An3 
	BYTE	W08
// 093   ----------------------------------------
	BYTE		        Fs3 
	BYTE	W08
	BYTE		        Dn3 
	BYTE	W08
	BYTE		        Fs3 
	BYTE	W08
	BYTE		N11     An3 
	BYTE	W24
	BYTE		N01     Dn4   v112
	BYTE	W01
	BYTE		        Fs4 
	BYTE	W01
	BYTE		        An4 
	BYTE	W02
	BYTE		N03     Dn5 
	BYTE	W04
	BYTE		N07     An4 
	BYTE	W08
	BYTE		        Fs4   v108
	BYTE	W08
	BYTE		        Dn4   v104
	BYTE	W08
	BYTE		        An3   v100
	BYTE	W08
	BYTE		        Fs3   v096
	BYTE	W08
// 094   ----------------------------------------
	BYTE		        Bn4 
	BYTE	W08
	BYTE		        Gn4 
	BYTE	W08
	BYTE		        Bn4 
	BYTE	W08
	BYTE		        Gn4 
	BYTE	W08
	BYTE		        Dn4 
	BYTE	W08
	BYTE		        Gn4 
	BYTE	W08
	BYTE		        Dn4 
	BYTE	W08
	BYTE		        Bn3 
	BYTE	W08
	BYTE		        Dn4 
	BYTE	W08
	BYTE		        Bn3 
	BYTE	W08
	BYTE		        Gn3 
	BYTE	W08
	BYTE		        Bn3 
	BYTE	W08
// 095   ----------------------------------------
	BYTE		        Gn4 
	BYTE	W08
	BYTE		        En4 
	BYTE	W08
	BYTE		        Gn4 
	BYTE	W08
	BYTE		        En4 
	BYTE	W08
	BYTE		        Cs4 
	BYTE	W08
	BYTE		        En4 
	BYTE	W08
	BYTE		        Cs4 
	BYTE	W08
	BYTE		        Bn3 
	BYTE	W08
	BYTE		        Cs4 
	BYTE	W08
	BYTE		        Bn3 
	BYTE	W08
	BYTE		        Gn3 
	BYTE	W08
	BYTE		        Bn3 
	BYTE	W08
// 096   ----------------------------------------
	BYTE		        Fs4 
	BYTE	W08
	BYTE		        Cs4 
	BYTE	W08
	BYTE		        Fs4 
	BYTE	W08
	BYTE		        Cs4 
	BYTE	W08
	BYTE		        As3 
	BYTE	W08
	BYTE		        Cs4 
	BYTE	W08
	BYTE		        As3 
	BYTE	W08
	BYTE		        Fs3 
	BYTE	W08
	BYTE		        As3 
	BYTE	W08
	BYTE		        Fs3 
	BYTE	W08
	BYTE		        Cs3 
	BYTE	W08
	BYTE		        Fs3 
	BYTE	W08
// 097   ----------------------------------------
	BYTE		        As4 
	BYTE	W08
	BYTE		        Fs4 
	BYTE	W08
	BYTE		        As4 
	BYTE	W08
	BYTE		        Fs4 
	BYTE	W08
	BYTE		        Cs4 
	BYTE	W08
	BYTE		        Fs4 
	BYTE	W08
	BYTE		        Cs4 
	BYTE	W08
	BYTE		        As3 
	BYTE	W08
	BYTE		        Cs4 
	BYTE	W08
	BYTE		        As3 
	BYTE	W08
	BYTE		        Fs3 
	BYTE	W08
	BYTE		        As3 
	BYTE	W08
// 098   ----------------------------------------
	BYTE		N23     Bn2 
	BYTE		N23     Bn3 
	BYTE	W96
// 099   ----------------------------------------
	BYTE	W96
// 100   ----------------------------------------
	BYTE	W96
// 101   ----------------------------------------
	BYTE	W96
// 102   ----------------------------------------
	BYTE	W96
// 103   ----------------------------------------
	BYTE	W96
// 104   ----------------------------------------
	BYTE	W96
// 105   ----------------------------------------
	BYTE	W96
// 106   ----------------------------------------
	BYTE	W24
	BYTE		N05     Fs4   v112
	BYTE	W06
	BYTE		        Fs3 
	BYTE	W06
	BYTE		        Bn3 
	BYTE	W06
	BYTE		        Fs3 
	BYTE	W06
	BYTE		        Fs4 
	BYTE	W06
	BYTE		        Fs3 
	BYTE	W06
	BYTE		        Bn3 
	BYTE	W06
	BYTE		        Fs3 
	BYTE	W06
// 107   ----------------------------------------
IdPurpose_8_107:
	BYTE		N05     Fs4   v112
	BYTE	W06
	BYTE		        Fs3 
	BYTE	W06
	BYTE		        Bn3 
	BYTE	W06
	BYTE		        Fs3 
	BYTE	W06
	BYTE		        Fs4 
	BYTE	W06
	BYTE		        Fs3 
	BYTE	W06
	BYTE		        Bn3 
	BYTE	W06
	BYTE		        Fs3 
	BYTE	W06
	BYTE		        Fs4 
	BYTE	W06
	BYTE		        Fs3 
	BYTE	W06
	BYTE		        Bn3 
	BYTE	W06
	BYTE		        Fs3 
	BYTE	W06
	BYTE	PEND
// 108   ----------------------------------------
	BYTE	PATT
	 POIN2	IdPurpose_8_107
// 109   ----------------------------------------
	BYTE	PATT
	 POIN2	IdPurpose_8_107
// 110   ----------------------------------------
	BYTE	PATT
	 POIN2	IdPurpose_8_107
// 111   ----------------------------------------
	BYTE	PATT
	 POIN2	IdPurpose_8_107
// 112   ----------------------------------------
	BYTE	PATT
	 POIN2	IdPurpose_8_107
// 113   ----------------------------------------
	BYTE	PATT
	 POIN2	IdPurpose_8_107
// 114   ----------------------------------------
	BYTE	W06
	BYTE		N05     Dn3   v112
	BYTE	W06
	BYTE		        An3 
	BYTE	W06
	BYTE		        Dn3   v108
	BYTE	W06
	BYTE		        Dn4 
	BYTE	W06
	BYTE		        Dn3 
	BYTE	W06
	BYTE		        An3   v104
	BYTE	W06
	BYTE		        Dn3 
	BYTE	W06
	BYTE		        Dn4 
	BYTE	W06
	BYTE		        Dn3   v100
	BYTE	W06
	BYTE		        An3 
	BYTE	W06
	BYTE		        Dn3 
	BYTE	W06
// 115   ----------------------------------------
	BYTE		        Dn4   v096
	BYTE	W06
	BYTE		        Dn3 
	BYTE	W06
	BYTE		        An3 
	BYTE	W06
	BYTE		        Dn3   v092
	BYTE	W06
	BYTE		        Dn4 
	BYTE	W06
	BYTE		        Dn3 
	BYTE	W06
	BYTE		        An3   v088
	BYTE	W06
	BYTE		        Dn3 
	BYTE	W06
	BYTE		        Dn4 
	BYTE	W06
	BYTE		        Dn3   v084
	BYTE	W06
	BYTE		        An3 
	BYTE	W06
	BYTE		        Dn3   v080
	BYTE	W06
	BYTE	GoTo
	 POIN2	IdPurpose_8_B1
IdPurpose_8_B2:
// 116   ----------------------------------------
	BYTE	FINE

//**************** Track 9 (Midi-Chn.9) ****************//

IdPurpose_9:
	BYTE	KEYSH   IdPurpose_key+0
// 000   ----------------------------------------
	BYTE		VOICE   47
	BYTE		PAN     c_v+11
	BYTE		VOL     100*IdPurpose_mvl/mxv
	BYTE	W72
IdPurpose_9_B1:
	BYTE	W24
// 001   ----------------------------------------
	BYTE	W96
// 002   ----------------------------------------
	BYTE	W96
// 003   ----------------------------------------
	BYTE	W96
// 004   ----------------------------------------
	BYTE	W96
// 005   ----------------------------------------
	BYTE	W96
// 006   ----------------------------------------
	BYTE	W96
// 007   ----------------------------------------
	BYTE	W96
// 008   ----------------------------------------
	BYTE	W96
// 009   ----------------------------------------
	BYTE	W96
// 010   ----------------------------------------
	BYTE	W96
// 011   ----------------------------------------
	BYTE	W96
// 012   ----------------------------------------
	BYTE	W72
	BYTE		N17     Gn1   v096
	BYTE	W18
	BYTE		N05   
	BYTE	W06
// 013   ----------------------------------------
	BYTE	W24
	BYTE		N23   
	BYTE	W24
	BYTE		N17     Ds1   v112
	BYTE	W18
	BYTE		N05   
	BYTE	W30
// 014   ----------------------------------------
	BYTE		N23   
	BYTE	W24
	BYTE		N17     Fn1 
	BYTE	W18
	BYTE		N05   
	BYTE	W30
	BYTE		N23   
	BYTE	W24
// 015   ----------------------------------------
	BYTE		N17   
	BYTE	W18
	BYTE		N05   
	BYTE	W30
	BYTE		N23   
	BYTE	W24
	BYTE		N17     Gn1 
	BYTE	W18
	BYTE		N05   
	BYTE	W06
// 016   ----------------------------------------
	BYTE	W24
	BYTE		N23   
	BYTE	W24
	BYTE		N17     Ds1 
	BYTE	W18
	BYTE		N05   
	BYTE	W30
// 017   ----------------------------------------
	BYTE		N23   
	BYTE	W24
	BYTE		N17     As1 
	BYTE	W18
	BYTE		N05   
	BYTE	W30
	BYTE		N23   
	BYTE	W24
// 018   ----------------------------------------
	BYTE		N17     Fn1 
	BYTE	W18
	BYTE		N05   
	BYTE	W30
	BYTE		N23   
	BYTE	W24
	BYTE		N17     Cn2 
	BYTE	W18
	BYTE		N05   
	BYTE	W06
// 019   ----------------------------------------
	BYTE	W24
	BYTE		N23     Dn2 
	BYTE	W24
	BYTE		N17     Ds2 
	BYTE	W18
	BYTE		N05   
	BYTE	W30
// 020   ----------------------------------------
	BYTE		N23     Fn2 
	BYTE	W24
	BYTE		N17     Gn2 
	BYTE	W18
	BYTE		N05   
	BYTE	W30
	BYTE		N23   
	BYTE	W24
// 021   ----------------------------------------
	BYTE		N17     Cs2 
	BYTE	W18
	BYTE		N05   
	BYTE	W30
	BYTE		N23   
	BYTE	W24
	BYTE		N17     Cn2 
	BYTE	W18
	BYTE		N05   
	BYTE	W06
// 022   ----------------------------------------
	BYTE	W24
	BYTE		N23   
	BYTE	W24
	BYTE		N17     Bn1 
	BYTE	W18
	BYTE		N05   
	BYTE	W30
// 023   ----------------------------------------
	BYTE		N23     Cs2 
	BYTE	W24
	BYTE		N17     Ds2 
	BYTE	W18
	BYTE		N05   
	BYTE	W30
	BYTE		N23   
	BYTE	W24
// 024   ----------------------------------------
	BYTE		N17   
	BYTE	W18
	BYTE		N05   
	BYTE	W30
	BYTE		N23   
	BYTE	W48
// 025   ----------------------------------------
	BYTE	W96
// 026   ----------------------------------------
	BYTE	W96
// 027   ----------------------------------------
	BYTE	W96
// 028   ----------------------------------------
	BYTE	W96
// 029   ----------------------------------------
	BYTE	W96
// 030   ----------------------------------------
	BYTE	W96
// 031   ----------------------------------------
	BYTE	W96
// 032   ----------------------------------------
	BYTE	W96
// 033   ----------------------------------------
	BYTE	W96
// 034   ----------------------------------------
	BYTE	W96
// 035   ----------------------------------------
	BYTE	W24
	BYTE		N17     Fn1   v064
	BYTE	W18
	BYTE		N23   
	BYTE	W24
	BYTE		N02     Fn1   v080
	BYTE	W03
	BYTE		N02   
	BYTE	W03
	BYTE		N23     Fn1   v084
	BYTE	W24
// 036   ----------------------------------------
	BYTE		N17     Fn1   v096
	BYTE	W18
	BYTE		N23   
	BYTE	W24
	BYTE		N02   
	BYTE	W03
	BYTE		N02   
	BYTE	W03
	BYTE		N23   
	BYTE	W24
	BYTE		        Dn2 
	BYTE	W24
// 037   ----------------------------------------
	BYTE	W48
	BYTE		N17     Dn2   v127
	BYTE	W18
	BYTE		N11     Dn2   v096
	BYTE	W12
	BYTE		N11   
	BYTE	W12
	BYTE		N02   
	BYTE	W03
	BYTE		N02   
	BYTE	W03
// 038   ----------------------------------------
	BYTE		N23     Dn2   v127
	BYTE	W24
	BYTE		N17     Gn1 
	BYTE	W18
	BYTE		N05     Gn1   v096
	BYTE	W30
	BYTE		N23   
	BYTE	W24
// 039   ----------------------------------------
	BYTE		N17     Ds1 
	BYTE	W18
	BYTE		N05   
	BYTE	W30
	BYTE		N23   
	BYTE	W24
	BYTE		N17     Fn1 
	BYTE	W18
	BYTE		N05   
	BYTE	W06
// 040   ----------------------------------------
	BYTE	W24
	BYTE		N23   
	BYTE	W24
	BYTE		N17   
	BYTE	W18
	BYTE		N05   
	BYTE	W30
// 041   ----------------------------------------
	BYTE		N23   
	BYTE	W24
	BYTE		N17     Gn1 
	BYTE	W18
	BYTE		N05   
	BYTE	W30
	BYTE		N23   
	BYTE	W24
// 042   ----------------------------------------
	BYTE		N17     Ds1 
	BYTE	W18
	BYTE		N05   
	BYTE	W30
	BYTE		N23   
	BYTE	W24
	BYTE		N17     As1 
	BYTE	W18
	BYTE		N05   
	BYTE	W06
// 043   ----------------------------------------
	BYTE	W24
	BYTE		N23   
	BYTE	W24
	BYTE		N17     Fn1 
	BYTE	W18
	BYTE		N05   
	BYTE	W30
// 044   ----------------------------------------
	BYTE		N23   
	BYTE	W24
	BYTE		N17     Cn2 
	BYTE	W18
	BYTE		N05   
	BYTE	W30
	BYTE		N23     Dn2 
	BYTE	W24
// 045   ----------------------------------------
	BYTE		N17     Ds2 
	BYTE	W18
	BYTE		N05   
	BYTE	W30
	BYTE		N23     Fn2 
	BYTE	W24
	BYTE		N17     Gn2 
	BYTE	W18
	BYTE		N05   
	BYTE	W06
// 046   ----------------------------------------
	BYTE	W24
	BYTE		N23   
	BYTE	W24
	BYTE		N17     Cs2 
	BYTE	W18
	BYTE		N05   
	BYTE	W30
// 047   ----------------------------------------
	BYTE		N23   
	BYTE	W24
	BYTE		N17     Cn2 
	BYTE	W18
	BYTE		N05   
	BYTE	W30
	BYTE		N23   
	BYTE	W24
// 048   ----------------------------------------
	BYTE		N17     Bn1 
	BYTE	W18
	BYTE		N05     Bn1   v100
	BYTE	W30
	BYTE		N23     Cs2 
	BYTE	W24
	BYTE		N17     Ds2 
	BYTE	W18
	BYTE		N23     Ds2   v104
	BYTE	W06
// 049   ----------------------------------------
	BYTE	W18
	BYTE		N02   
	BYTE	W03
	BYTE		N02   
	BYTE	W03
	BYTE		N23   
	BYTE	W24
	BYTE		N17   
	BYTE	W18
	BYTE		N23     Ds2   v108
	BYTE	W24
	BYTE		N02   
	BYTE	W03
	BYTE		N02   
	BYTE	W03
// 050   ----------------------------------------
	BYTE		N23   
	BYTE	W24
	BYTE		N17     Ds2   v112
	BYTE	W18
	BYTE		N23   
	BYTE	W24
	BYTE		N02   
	BYTE	W03
	BYTE		N02   
	BYTE	W03
	BYTE		N23   
	BYTE	W24
// 051   ----------------------------------------
	BYTE		N17   
	BYTE	W18
	BYTE		N23   
	BYTE	W24
	BYTE		N02   
	BYTE	W03
	BYTE		N02   
	BYTE	W03
	BYTE		N05   
	BYTE	W06
	BYTE		N05   
	BYTE	W06
	BYTE		N05   
	BYTE	W06
	BYTE		N05   
	BYTE	W30
// 052   ----------------------------------------
	BYTE	W96
// 053   ----------------------------------------
	BYTE	W96
// 054   ----------------------------------------
	BYTE	W96
// 055   ----------------------------------------
	BYTE	W96
// 056   ----------------------------------------
	BYTE	W96
// 057   ----------------------------------------
	BYTE	W72
	BYTE		N23     Gn1   v080
	BYTE	W24
// 058   ----------------------------------------
	BYTE	W48
	BYTE		        En1 
	BYTE	W48
// 059   ----------------------------------------
	BYTE	W24
	BYTE		        Fs1 
	BYTE	W72
// 060   ----------------------------------------
	BYTE		        En1 
	BYTE	W72
	BYTE		        Fs1 
	BYTE	W24
// 061   ----------------------------------------
	BYTE	W48
	BYTE		        En1 
	BYTE	W48
// 062   ----------------------------------------
	BYTE	W24
	BYTE		N17     Fs1   v096
	BYTE	W18
	BYTE		N11     Fs1   v100
	BYTE	W12
	BYTE		        Fs1   v104
	BYTE	W12
	BYTE		N02     Fs1   v108
	BYTE	W03
	BYTE		N02   
	BYTE	W03
	BYTE		N05   
	BYTE	W06
	BYTE		N05   
	BYTE	W06
	BYTE		N11     Fs1   v112
	BYTE	W12
// 063   ----------------------------------------
	BYTE		N17   
	BYTE	W18
	BYTE		N11     Fs1   v116
	BYTE	W12
	BYTE		        Fs1   v120
	BYTE	W12
	BYTE		N02     Fs1   v124
	BYTE	W03
	BYTE		N02   
	BYTE	W03
	BYTE		N05   
	BYTE	W06
	BYTE		N05   
	BYTE	W06
	BYTE		N11     Fs1   v127
	BYTE	W12
	BYTE		N17   
	BYTE	W18
	BYTE		N11   
	BYTE	W06
// 064   ----------------------------------------
	BYTE	W06
	BYTE		N11   
	BYTE	W12
	BYTE		N02   
	BYTE	W03
	BYTE		N02   
	BYTE	W03
	BYTE		N05   
	BYTE	W06
	BYTE		N05   
	BYTE	W06
	BYTE		N11   
	BYTE	W12
	BYTE		N23   
	BYTE	W24
	BYTE		N23   
	BYTE	W24
// 065   ----------------------------------------
	BYTE		N23   
	BYTE	W24
// 066   ----------------------------------------
	BYTE	W96
// 067   ----------------------------------------
	BYTE	W96
// 068   ----------------------------------------
	BYTE	W96
// 069   ----------------------------------------
	BYTE	W96
// 070   ----------------------------------------
	BYTE	W96
// 071   ----------------------------------------
	BYTE	W96
// 072   ----------------------------------------
	BYTE	W96
// 073   ----------------------------------------
	BYTE	W96
// 074   ----------------------------------------
	BYTE	W96
// 075   ----------------------------------------
	BYTE	W96
// 076   ----------------------------------------
	BYTE	W96
// 077   ----------------------------------------
	BYTE	W96
// 078   ----------------------------------------
	BYTE	W96
// 079   ----------------------------------------
	BYTE	W96
// 080   ----------------------------------------
	BYTE	W96
// 081   ----------------------------------------
	BYTE	W96
// 082   ----------------------------------------
	BYTE	W96
// 083   ----------------------------------------
	BYTE	W96
// 084   ----------------------------------------
	BYTE	W96
// 085   ----------------------------------------
	BYTE	W96
// 086   ----------------------------------------
	BYTE	W96
// 087   ----------------------------------------
	BYTE	W96
// 088   ----------------------------------------
	BYTE	W96
// 089   ----------------------------------------
	BYTE	W96
// 090   ----------------------------------------
	BYTE		        Bn1   v096
	BYTE	W96
// 091   ----------------------------------------
	BYTE		        En1 
	BYTE	W96
// 092   ----------------------------------------
	BYTE		        An1 
	BYTE	W96
// 093   ----------------------------------------
	BYTE		        Dn1 
	BYTE	W96
// 094   ----------------------------------------
	BYTE		        Gn1 
	BYTE	W96
// 095   ----------------------------------------
	BYTE		        Cs1 
	BYTE	W96
// 096   ----------------------------------------
	BYTE		        Fs1 
	BYTE	W96
// 097   ----------------------------------------
	BYTE		N23   
	BYTE	W48
	BYTE		N17   
	BYTE	W18
	BYTE		N05     Fs1   v108
	BYTE	W06
	BYTE		N07     Fs1   v112
	BYTE	W08
	BYTE		N07   
	BYTE	W08
	BYTE		N07   
	BYTE	W08
// 098   ----------------------------------------
	BYTE		N23     Bn1 
	BYTE	W24
	BYTE		N07     Bn1   v127
	BYTE	W08
	BYTE		N07   
	BYTE	W08
	BYTE		N07   
	BYTE	W08
	BYTE		N23   
	BYTE	W24
	BYTE		N07   
	BYTE	W08
	BYTE		N07   
	BYTE	W08
	BYTE		N07   
	BYTE	W08
// 099   ----------------------------------------
	BYTE		N23     En2 
	BYTE	W24
	BYTE		N07   
	BYTE	W08
	BYTE		N07   
	BYTE	W08
	BYTE		N07   
	BYTE	W08
	BYTE		N23   
	BYTE	W24
	BYTE		N23   
	BYTE	W24
// 100   ----------------------------------------
	BYTE		        An1 
	BYTE	W24
	BYTE		N07   
	BYTE	W08
	BYTE		N07   
	BYTE	W08
	BYTE		N07   
	BYTE	W08
	BYTE		N23   
	BYTE	W24
	BYTE		N07   
	BYTE	W08
	BYTE		N07   
	BYTE	W08
	BYTE		N07   
	BYTE	W08
// 101   ----------------------------------------
	BYTE		N23     Dn2 
	BYTE	W24
	BYTE		N07   
	BYTE	W08
	BYTE		N07   
	BYTE	W08
	BYTE		N07   
	BYTE	W08
	BYTE		N23   
	BYTE	W24
	BYTE		N23   
	BYTE	W24
// 102   ----------------------------------------
	BYTE		        Gn1 
	BYTE	W24
	BYTE		N07   
	BYTE	W08
	BYTE		N07   
	BYTE	W08
	BYTE		N07   
	BYTE	W08
	BYTE		N23   
	BYTE	W24
	BYTE		N07   
	BYTE	W08
	BYTE		N07   
	BYTE	W08
	BYTE		N07   
	BYTE	W08
// 103   ----------------------------------------
	BYTE		N23     Cs2 
	BYTE	W24
	BYTE		N07   
	BYTE	W08
	BYTE		N07   
	BYTE	W08
	BYTE		N07   
	BYTE	W08
	BYTE		N23   
	BYTE	W24
	BYTE		N23   
	BYTE	W24
// 104   ----------------------------------------
	BYTE		        Fs1 
	BYTE	W24
	BYTE		N07   
	BYTE	W08
	BYTE		N07   
	BYTE	W08
	BYTE		N07   
	BYTE	W08
	BYTE		N23   
	BYTE	W24
	BYTE		N07   
	BYTE	W08
	BYTE		N07   
	BYTE	W08
	BYTE		N07   
	BYTE	W08
// 105   ----------------------------------------
	BYTE		N23   
	BYTE	W24
	BYTE		N07     Fs1   v112
	BYTE	W08
	BYTE		        Fs1   v116
	BYTE	W08
	BYTE		        Fs1   v124
	BYTE	W08
	BYTE		N23     Fs1   v127
	BYTE	W24
	BYTE		N03   
	BYTE	W03
	BYTE		N20   
	BYTE	W21
// 106   ----------------------------------------
	BYTE		N17     Gn1   v112
	BYTE	W18
	BYTE		N11   
	BYTE	W12
	BYTE		N11   
	BYTE	W12
	BYTE		N02   
	BYTE	W03
	BYTE		N02   
	BYTE	W03
	BYTE		N05   
	BYTE	W06
	BYTE		N05   
	BYTE	W06
	BYTE		N11   
	BYTE	W12
// 107   ----------------------------------------
IdPurpose_9_107:
	BYTE		N17     En1   v112
	BYTE	W18
	BYTE		N11   
	BYTE	W12
	BYTE		N11   
	BYTE	W12
	BYTE		N02   
	BYTE	W03
	BYTE		N02   
	BYTE	W03
	BYTE		N05   
	BYTE	W06
	BYTE		N05   
	BYTE	W06
	BYTE		N11   
	BYTE	W12
	BYTE	PEND
// 108   ----------------------------------------
	BYTE		N17     Fs1 
	BYTE	W18
	BYTE		N11   
	BYTE	W12
	BYTE		N11   
	BYTE	W12
	BYTE		N02   
	BYTE	W03
	BYTE		N02   
	BYTE	W03
	BYTE		N05   
	BYTE	W06
	BYTE		N05   
	BYTE	W06
	BYTE		N11   
	BYTE	W12
// 109   ----------------------------------------
	BYTE	PATT
	 POIN2	IdPurpose_9_107
// 110   ----------------------------------------
	BYTE		N17     Gn1   v112
	BYTE	W18
	BYTE		N11     Gn1   v108
	BYTE	W12
	BYTE		        Gn1   v104
	BYTE	W12
	BYTE		N02     Gn1   v100
	BYTE	W03
	BYTE		N02   
	BYTE	W03
	BYTE		N05   
	BYTE	W06
	BYTE		N05   
	BYTE	W06
	BYTE		N11     Gn1   v096
	BYTE	W12
// 111   ----------------------------------------
	BYTE		N17     En1   v092
	BYTE	W18
	BYTE		N11     En1   v088
	BYTE	W12
	BYTE		        En1   v084
	BYTE	W12
	BYTE		N02     En1   v080
	BYTE	W03
	BYTE		N02   
	BYTE	W03
	BYTE		N05   
	BYTE	W06
	BYTE		        En1   v076
	BYTE	W06
	BYTE		N11   
	BYTE	W12
// 112   ----------------------------------------
	BYTE		N17     Fs1   v072
	BYTE	W18
	BYTE		N11     Fs1   v068
	BYTE	W12
	BYTE		        Fs1   v064
	BYTE	W12
	BYTE		N02     Fs1   v060
	BYTE	W03
	BYTE		N02   
	BYTE	W03
	BYTE		N05   
	BYTE	W06
	BYTE		        Fs1   v056
	BYTE	W06
	BYTE		N11   
	BYTE	W12
// 113   ----------------------------------------
	BYTE		N17     Fs1   v052
	BYTE	W18
	BYTE		N11     Fs1   v048
	BYTE	W12
	BYTE		        Fs1   v044
	BYTE	W12
	BYTE		N02     Fs1   v040
	BYTE	W03
	BYTE		N02   
	BYTE	W03
	BYTE		N05   
	BYTE	W06
	BYTE		        Fs1   v036
	BYTE	W06
	BYTE		N11   
	BYTE	W12
// 114   ----------------------------------------
	BYTE		N23     An1   v052
	BYTE	W72
// 115   ----------------------------------------
	BYTE		N23   
	BYTE	W72
	BYTE	GoTo
	 POIN2	IdPurpose_9_B1
IdPurpose_9_B2:
// 116   ----------------------------------------
	BYTE	FINE

//**************** Track 10 (Midi-Chn.11) ****************//

IdPurpose_10:
	BYTE	KEYSH   IdPurpose_key+0
// 000   ----------------------------------------
	BYTE		VOICE   52
	BYTE		PAN     c_v-23
	BYTE		VOL     100*IdPurpose_mvl/mxv
	BYTE	W72
IdPurpose_10_B1:
	BYTE	W24
// 001   ----------------------------------------
	BYTE	W96
// 002   ----------------------------------------
	BYTE	W96
// 003   ----------------------------------------
	BYTE	W96
// 004   ----------------------------------------
	BYTE	W96
// 005   ----------------------------------------
	BYTE	W96
// 006   ----------------------------------------
	BYTE	W96
// 007   ----------------------------------------
	BYTE	W96
// 008   ----------------------------------------
	BYTE	W96
// 009   ----------------------------------------
	BYTE	W96
// 010   ----------------------------------------
	BYTE	W96
// 011   ----------------------------------------
	BYTE	W96
// 012   ----------------------------------------
	BYTE	W96
// 013   ----------------------------------------
	BYTE	W96
// 014   ----------------------------------------
	BYTE	W96
// 015   ----------------------------------------
	BYTE	W96
// 016   ----------------------------------------
	BYTE	W96
// 017   ----------------------------------------
	BYTE	W96
// 018   ----------------------------------------
	BYTE	W96
// 019   ----------------------------------------
	BYTE	W96
// 020   ----------------------------------------
	BYTE	W96
// 021   ----------------------------------------
	BYTE	W96
// 022   ----------------------------------------
	BYTE	W96
// 023   ----------------------------------------
	BYTE	W96
// 024   ----------------------------------------
	BYTE	W96
// 025   ----------------------------------------
	BYTE	W96
// 026   ----------------------------------------
	BYTE	W96
// 027   ----------------------------------------
	BYTE	W96
// 028   ----------------------------------------
	BYTE	W96
// 029   ----------------------------------------
	BYTE	W96
// 030   ----------------------------------------
	BYTE	W96
// 031   ----------------------------------------
	BYTE	W96
// 032   ----------------------------------------
	BYTE	W96
// 033   ----------------------------------------
	BYTE	W96
// 034   ----------------------------------------
	BYTE	W96
// 035   ----------------------------------------
	BYTE	W96
// 036   ----------------------------------------
	BYTE	W96
// 037   ----------------------------------------
	BYTE	W96
// 038   ----------------------------------------
	BYTE	W96
// 039   ----------------------------------------
	BYTE	W96
// 040   ----------------------------------------
	BYTE	W96
// 041   ----------------------------------------
	BYTE	W96
// 042   ----------------------------------------
	BYTE	W96
// 043   ----------------------------------------
	BYTE	W96
// 044   ----------------------------------------
	BYTE	W96
// 045   ----------------------------------------
	BYTE	W96
// 046   ----------------------------------------
	BYTE	W96
// 047   ----------------------------------------
	BYTE	W96
// 048   ----------------------------------------
	BYTE	W96
// 049   ----------------------------------------
	BYTE	W96
// 050   ----------------------------------------
	BYTE	W96
// 051   ----------------------------------------
	BYTE	W96
// 052   ----------------------------------------
	BYTE	W96
// 053   ----------------------------------------
	BYTE	W96
// 054   ----------------------------------------
	BYTE	W96
// 055   ----------------------------------------
	BYTE	W96
// 056   ----------------------------------------
	BYTE	W96
// 057   ----------------------------------------
	BYTE	W96
// 058   ----------------------------------------
	BYTE	W96
// 059   ----------------------------------------
	BYTE	W96
// 060   ----------------------------------------
	BYTE	W96
// 061   ----------------------------------------
	BYTE	W96
// 062   ----------------------------------------
	BYTE	W96
// 063   ----------------------------------------
	BYTE	W96
// 064   ----------------------------------------
	BYTE	W96
// 065   ----------------------------------------
	BYTE	W24
// 066   ----------------------------------------
	BYTE	W96
// 067   ----------------------------------------
	BYTE	W96
// 068   ----------------------------------------
	BYTE	W96
// 069   ----------------------------------------
	BYTE	W96
// 070   ----------------------------------------
	BYTE	W96
// 071   ----------------------------------------
	BYTE	W96
// 072   ----------------------------------------
	BYTE	W96
// 073   ----------------------------------------
	BYTE	W96
// 074   ----------------------------------------
	BYTE	W96
// 075   ----------------------------------------
	BYTE	W96
// 076   ----------------------------------------
	BYTE	W96
// 077   ----------------------------------------
	BYTE	W96
// 078   ----------------------------------------
	BYTE	W96
// 079   ----------------------------------------
	BYTE	W96
// 080   ----------------------------------------
	BYTE	W96
// 081   ----------------------------------------
	BYTE	W96
// 082   ----------------------------------------
	BYTE	W96
// 083   ----------------------------------------
	BYTE	W96
// 084   ----------------------------------------
	BYTE	W96
// 085   ----------------------------------------
	BYTE	W96
// 086   ----------------------------------------
	BYTE	W96
// 087   ----------------------------------------
	BYTE	W96
// 088   ----------------------------------------
	BYTE	W96
// 089   ----------------------------------------
	BYTE	W96
// 090   ----------------------------------------
	BYTE		N44     Dn4   v112
	BYTE	W48
	BYTE		        Fs4 
	BYTE	W48
// 091   ----------------------------------------
	BYTE		        Gn4 
	BYTE	W48
	BYTE		        En4 
	BYTE	W48
// 092   ----------------------------------------
	BYTE		        An4 
	BYTE	W48
	BYTE		N23     Fs4 
	BYTE	W24
	BYTE		        Gn4 
	BYTE	W24
// 093   ----------------------------------------
	BYTE		N44   
	BYTE	W48
	BYTE		        Fs4 
	BYTE	W48
// 094   ----------------------------------------
	BYTE		N92     Bn4 
	BYTE	W96
// 095   ----------------------------------------
	BYTE		N44     Gn4 
	BYTE	W48
	BYTE		        Bn4 
	BYTE	W48
// 096   ----------------------------------------
	BYTE		N92     As4 
	BYTE	W96
// 097   ----------------------------------------
	BYTE		N44     Fs4 
	BYTE	W48
	BYTE		        Cs4 
	BYTE	W48
// 098   ----------------------------------------
	BYTE		        Dn4   v127
	BYTE	W48
	BYTE		        Fs4 
	BYTE	W48
// 099   ----------------------------------------
	BYTE		        Gn4 
	BYTE	W48
	BYTE		        En4 
	BYTE	W48
// 100   ----------------------------------------
	BYTE		        An4 
	BYTE	W48
	BYTE		N23     Fs4 
	BYTE	W24
	BYTE		        Gn4 
	BYTE	W24
// 101   ----------------------------------------
	BYTE		N44   
	BYTE	W48
	BYTE		        Fs4 
	BYTE	W48
// 102   ----------------------------------------
	BYTE		N92     Bn4 
	BYTE	W96
// 103   ----------------------------------------
	BYTE		N44     Gn4 
	BYTE	W48
	BYTE		        Bn4 
	BYTE	W48
// 104   ----------------------------------------
	BYTE		N92     As4 
	BYTE	W96
// 105   ----------------------------------------
	BYTE		N44     Fs4 
	BYTE	W48
	BYTE		        Cs4 
	BYTE	W48
// 106   ----------------------------------------
	BYTE		TIE     Bn3   v112
	BYTE	W72
// 107   ----------------------------------------
	BYTE	W72
// 108   ----------------------------------------
	BYTE	W72
// 109   ----------------------------------------
	BYTE	W32
	BYTE	W03
	BYTE		EOT   
	BYTE	W01
	BYTE		N32   
	BYTE	W36
// 110   ----------------------------------------
	BYTE		TIE   
	BYTE	W72
// 111   ----------------------------------------
	BYTE	W72
// 112   ----------------------------------------
	BYTE	W72
// 113   ----------------------------------------
	BYTE	W68
	BYTE	W03
	BYTE		EOT   
	BYTE	W01
// 114   ----------------------------------------
	BYTE	W72
// 115   ----------------------------------------
	BYTE	W72
	BYTE	GoTo
	 POIN2	IdPurpose_10_B1
IdPurpose_10_B2:
// 116   ----------------------------------------
	BYTE	FINE

//**************** Track 11 (Midi-Chn.12) ****************//

IdPurpose_11:
	BYTE	KEYSH   IdPurpose_key+0
// 000   ----------------------------------------
	BYTE		VOICE   52
	BYTE		PAN     c_v+12
	BYTE		VOL     100*IdPurpose_mvl/mxv
	BYTE	W72
IdPurpose_11_B1:
	BYTE	W24
// 001   ----------------------------------------
	BYTE	W96
// 002   ----------------------------------------
	BYTE	W96
// 003   ----------------------------------------
	BYTE	W96
// 004   ----------------------------------------
	BYTE	W96
// 005   ----------------------------------------
	BYTE	W96
// 006   ----------------------------------------
	BYTE	W96
// 007   ----------------------------------------
	BYTE	W96
// 008   ----------------------------------------
	BYTE	W96
// 009   ----------------------------------------
	BYTE	W96
// 010   ----------------------------------------
	BYTE	W96
// 011   ----------------------------------------
	BYTE	W96
// 012   ----------------------------------------
IdPurpose_11_012:
	BYTE	W48
	BYTE		N05     Gn3   v080
	BYTE	W06
	BYTE		        An3 
	BYTE	W06
	BYTE		        As3 
	BYTE	W06
	BYTE		        Fn3 
	BYTE		N05     Fn4 
	BYTE	W06
	BYTE		N44     Cn4 
	BYTE	W24
	BYTE	PEND
// 013   ----------------------------------------
	BYTE	W24
	BYTE		N23     As3 
	BYTE	W24
	BYTE		N44     An3 
	BYTE	W48
// 014   ----------------------------------------
	BYTE		N23     Gn3 
	BYTE	W24
	BYTE		N92     Fn3 
	BYTE	W72
// 015   ----------------------------------------
	BYTE	PATT
	 POIN2	IdPurpose_11_012
// 016   ----------------------------------------
	BYTE	W24
	BYTE		N11     Dn3   v080
	BYTE	W12
	BYTE		        As3 
	BYTE	W12
	BYTE		N23   
	BYTE	W24
	BYTE		        An3 
	BYTE	W24
// 017   ----------------------------------------
	BYTE		        Gn3 
	BYTE	W24
	BYTE		N56     Fn3 
	BYTE	W60
	BYTE		N05     Ds3 
	BYTE	W06
	BYTE		        Dn3 
	BYTE	W06
// 018   ----------------------------------------
	BYTE		N44     Cn3 
	BYTE	W72
	BYTE		        Gn3 
	BYTE	W24
// 019   ----------------------------------------
	BYTE	W24
	BYTE		N23     An3 
	BYTE	W24
	BYTE		N44     As3 
	BYTE	W48
// 020   ----------------------------------------
	BYTE		N23     Cn4 
	BYTE	W24
	BYTE		N17     Dn4 
	BYTE	W18
	BYTE		N05     Cn4 
	BYTE	W06
	BYTE		N44     As3 
	BYTE	W48
// 021   ----------------------------------------
	BYTE		N17     Cn4 
	BYTE	W18
	BYTE		N05     As3 
	BYTE	W06
	BYTE		N44     Gs3 
	BYTE	W48
	BYTE		N23     Ds3 
	BYTE	W24
// 022   ----------------------------------------
	BYTE		        Cn3 
	BYTE	W24
	BYTE		        Gs2 
	BYTE	W24
	BYTE		        Ds3 
	BYTE	W24
	BYTE		        Fn3 
	BYTE	W24
// 023   ----------------------------------------
	BYTE		        Fs3 
	BYTE	W24
	BYTE		TIE     As3 
	BYTE	W72
// 024   ----------------------------------------
	BYTE	W44
	BYTE	W03
	BYTE		EOT   
	BYTE	W48
	BYTE	W01
// 025   ----------------------------------------
	BYTE	W96
// 026   ----------------------------------------
	BYTE	W96
// 027   ----------------------------------------
	BYTE	W96
// 028   ----------------------------------------
	BYTE	W96
// 029   ----------------------------------------
	BYTE	W96
// 030   ----------------------------------------
	BYTE	W96
// 031   ----------------------------------------
	BYTE	W96
// 032   ----------------------------------------
	BYTE	W96
// 033   ----------------------------------------
	BYTE	W96
// 034   ----------------------------------------
	BYTE	W96
// 035   ----------------------------------------
	BYTE	W96
// 036   ----------------------------------------
	BYTE	W96
// 037   ----------------------------------------
	BYTE	W96
// 038   ----------------------------------------
	BYTE		N05     Gn3   v096
	BYTE	W06
	BYTE		        An3 
	BYTE	W06
	BYTE		        As3 
	BYTE	W06
	BYTE		        Fn3 
	BYTE		N05     Fn4 
	BYTE	W06
	BYTE		N44     Cn4 
	BYTE	W48
	BYTE		N23     As3 
	BYTE	W24
// 039   ----------------------------------------
	BYTE		N44     An3 
	BYTE	W48
	BYTE		N23     Gn3 
	BYTE	W24
	BYTE		N92     Fn3 
	BYTE	W24
// 040   ----------------------------------------
	BYTE	W96
// 041   ----------------------------------------
	BYTE		N05     Gn3 
	BYTE	W06
	BYTE		        An3 
	BYTE	W06
	BYTE		        As3 
	BYTE	W06
	BYTE		        Fn3 
	BYTE		N05     Fn4 
	BYTE	W06
	BYTE		N44     Cn4 
	BYTE	W48
	BYTE		N11     Dn3 
	BYTE	W12
	BYTE		        As3 
	BYTE	W12
// 042   ----------------------------------------
	BYTE		N23   
	BYTE	W24
	BYTE		        An3 
	BYTE	W24
	BYTE		        Gn3 
	BYTE	W24
	BYTE		N56     Fn3 
	BYTE	W24
// 043   ----------------------------------------
	BYTE	W36
	BYTE		N05     Ds3 
	BYTE	W06
	BYTE		        Dn3 
	BYTE	W06
	BYTE		N44     Cn3 
	BYTE	W48
// 044   ----------------------------------------
	BYTE	W24
	BYTE		        Gn3 
	BYTE	W48
	BYTE		N23     An3 
	BYTE	W24
// 045   ----------------------------------------
	BYTE		N44     As3 
	BYTE	W48
	BYTE		N23     Cn4 
	BYTE	W24
	BYTE		N17     Dn4 
	BYTE	W18
	BYTE		N05     Cn4 
	BYTE	W06
// 046   ----------------------------------------
	BYTE		N44     As3 
	BYTE	W48
	BYTE		N17     Cn4 
	BYTE	W18
	BYTE		N05     As3 
	BYTE	W06
	BYTE		N44     Gs3 
	BYTE	W24
// 047   ----------------------------------------
	BYTE	W24
	BYTE		N23     Ds3 
	BYTE	W24
	BYTE		        Cn3 
	BYTE	W24
	BYTE		        Gs2 
	BYTE	W24
// 048   ----------------------------------------
	BYTE		        Ds3 
	BYTE	W24
	BYTE		        Fn3 
	BYTE	W24
	BYTE		        Fs3 
	BYTE	W24
	BYTE		TIE     As3 
	BYTE	W24
// 049   ----------------------------------------
	BYTE	W96
// 050   ----------------------------------------
	BYTE	W92
	BYTE	W03
	BYTE		EOT   
	BYTE	W01
// 051   ----------------------------------------
	BYTE	W96
// 052   ----------------------------------------
	BYTE	W96
// 053   ----------------------------------------
	BYTE	W96
// 054   ----------------------------------------
	BYTE	W96
// 055   ----------------------------------------
	BYTE	W96
// 056   ----------------------------------------
	BYTE	W96
// 057   ----------------------------------------
	BYTE	W96
// 058   ----------------------------------------
	BYTE	W96
// 059   ----------------------------------------
	BYTE	W96
// 060   ----------------------------------------
	BYTE	W96
// 061   ----------------------------------------
	BYTE	W96
// 062   ----------------------------------------
	BYTE	W96
// 063   ----------------------------------------
	BYTE	W96
// 064   ----------------------------------------
	BYTE	W96
// 065   ----------------------------------------
	BYTE	W24
// 066   ----------------------------------------
	BYTE	W96
// 067   ----------------------------------------
	BYTE	W96
// 068   ----------------------------------------
	BYTE	W96
// 069   ----------------------------------------
	BYTE	W96
// 070   ----------------------------------------
	BYTE	W96
// 071   ----------------------------------------
	BYTE	W96
// 072   ----------------------------------------
	BYTE	W96
// 073   ----------------------------------------
	BYTE	W96
// 074   ----------------------------------------
	BYTE		N44     Fs3 
	BYTE	W48
	BYTE		N23     Bn3 
	BYTE	W24
	BYTE		        Dn4 
	BYTE	W24
// 075   ----------------------------------------
	BYTE		N44   
	BYTE	W48
	BYTE		        Gn3 
	BYTE	W48
// 076   ----------------------------------------
	BYTE		        En3 
	BYTE	W48
	BYTE		N15     An3 
	BYTE	W16
	BYTE		        Bn3 
	BYTE	W16
	BYTE		        Cs4 
	BYTE	W16
// 077   ----------------------------------------
	BYTE		N44     Bn3 
	BYTE	W48
	BYTE		        An3 
	BYTE	W48
// 078   ----------------------------------------
	BYTE		        Dn3 
	BYTE	W48
	BYTE		N23     Gn3 
	BYTE	W24
	BYTE		        Bn3 
	BYTE	W24
// 079   ----------------------------------------
	BYTE		N44     En4 
	BYTE	W48
	BYTE		N23     Dn4 
	BYTE	W24
	BYTE		        Cs4 
	BYTE	W24
// 080   ----------------------------------------
	BYTE		N44     Fs3 
	BYTE	W48
	BYTE		N15     Gs3 
	BYTE	W16
	BYTE		        As3 
	BYTE	W16
	BYTE		        Bn3 
	BYTE	W16
// 081   ----------------------------------------
	BYTE		N92     As3 
	BYTE	W96
// 082   ----------------------------------------
IdPurpose_11_082:
	BYTE		N44     Fs3   v112
	BYTE	W48
	BYTE		N23     Bn3 
	BYTE	W24
	BYTE		        Dn4 
	BYTE	W24
	BYTE	PEND
// 083   ----------------------------------------
IdPurpose_11_083:
	BYTE		N44     Dn4   v112
	BYTE	W48
	BYTE		        Gn3 
	BYTE	W48
	BYTE	PEND
// 084   ----------------------------------------
IdPurpose_11_084:
	BYTE		N44     En3   v112
	BYTE	W48
	BYTE		N15     An3 
	BYTE	W16
	BYTE		        Bn3 
	BYTE	W16
	BYTE		        Cs4 
	BYTE	W16
	BYTE	PEND
// 085   ----------------------------------------
IdPurpose_11_085:
	BYTE		N44     Bn3   v112
	BYTE	W48
	BYTE		        An3 
	BYTE	W48
	BYTE	PEND
// 086   ----------------------------------------
IdPurpose_11_086:
	BYTE		N44     Dn3   v112
	BYTE	W48
	BYTE		N23     Gn3 
	BYTE	W24
	BYTE		        Bn3 
	BYTE	W24
	BYTE	PEND
// 087   ----------------------------------------
IdPurpose_11_087:
	BYTE		N44     En4   v112
	BYTE	W48
	BYTE		N23     Dn4 
	BYTE	W24
	BYTE		        Cs4 
	BYTE	W24
	BYTE	PEND
// 088   ----------------------------------------
IdPurpose_11_088:
	BYTE		N44     Fs3   v112
	BYTE	W48
	BYTE		N15     Gs3 
	BYTE	W16
	BYTE		        As3 
	BYTE	W16
	BYTE		        Bn3 
	BYTE	W16
	BYTE	PEND
// 089   ----------------------------------------
	BYTE		N92     As3 
	BYTE	W96
// 090   ----------------------------------------
	BYTE	PATT
	 POIN2	IdPurpose_11_082
// 091   ----------------------------------------
	BYTE	PATT
	 POIN2	IdPurpose_11_083
// 092   ----------------------------------------
	BYTE	PATT
	 POIN2	IdPurpose_11_084
// 093   ----------------------------------------
	BYTE	PATT
	 POIN2	IdPurpose_11_085
// 094   ----------------------------------------
	BYTE	PATT
	 POIN2	IdPurpose_11_086
// 095   ----------------------------------------
	BYTE	PATT
	 POIN2	IdPurpose_11_087
// 096   ----------------------------------------
	BYTE	PATT
	 POIN2	IdPurpose_11_088
// 097   ----------------------------------------
	BYTE		N92     As3   v112
	BYTE	W96
// 098   ----------------------------------------
	BYTE	PATT
	 POIN2	IdPurpose_11_082
// 099   ----------------------------------------
	BYTE	PATT
	 POIN2	IdPurpose_11_083
// 100   ----------------------------------------
	BYTE	PATT
	 POIN2	IdPurpose_11_084
// 101   ----------------------------------------
	BYTE	PATT
	 POIN2	IdPurpose_11_085
// 102   ----------------------------------------
	BYTE	PATT
	 POIN2	IdPurpose_11_086
// 103   ----------------------------------------
	BYTE	PATT
	 POIN2	IdPurpose_11_087
// 104   ----------------------------------------
	BYTE	PATT
	 POIN2	IdPurpose_11_088
// 105   ----------------------------------------
	BYTE		N92     As3   v112
	BYTE	W96
// 106   ----------------------------------------
	BYTE		TIE     Bn3 
	BYTE	W72
// 107   ----------------------------------------
	BYTE	W72
// 108   ----------------------------------------
	BYTE	W72
// 109   ----------------------------------------
	BYTE	W32
	BYTE	W03
	BYTE		EOT   
	BYTE	W01
	BYTE		N32   
	BYTE	W36
// 110   ----------------------------------------
	BYTE		TIE   
	BYTE	W72
// 111   ----------------------------------------
	BYTE	W72
// 112   ----------------------------------------
	BYTE	W72
// 113   ----------------------------------------
	BYTE	W68
	BYTE	W03
	BYTE		EOT   
	BYTE	W01
// 114   ----------------------------------------
	BYTE	W72
// 115   ----------------------------------------
	BYTE	W72
	BYTE	GoTo
	 POIN2	IdPurpose_11_B1
IdPurpose_11_B2:
// 116   ----------------------------------------
	BYTE	FINE

//**************** Track 12 (Midi-Chn.13) ****************//

IdPurpose_12:
	BYTE	KEYSH   IdPurpose_key+0
// 000   ----------------------------------------
	BYTE		VOICE   123
	BYTE		PAN     c_v-10
	BYTE		VOL     100*IdPurpose_mvl/mxv
	BYTE		PAN     c_v+12
	BYTE		VOL     100*IdPurpose_mvl/mxv
	BYTE		PAN     c_v-18
	BYTE		VOL     100*IdPurpose_mvl/mxv
	BYTE		PAN     c_v+15
	BYTE		VOL     100*IdPurpose_mvl/mxv
	BYTE		PAN     c_v-22
	BYTE		VOL     100*IdPurpose_mvl/mxv
	BYTE		N02     An2   v080
	BYTE	W02
	BYTE		N02   
	BYTE	W03
	BYTE		N02   
	BYTE	W03
	BYTE		N02   
	BYTE	W03
	BYTE		N02   
	BYTE	W03
	BYTE		N02   
	BYTE	W03
	BYTE		N02   
	BYTE	W03
	BYTE		N02   
	BYTE	W03
	BYTE		N02   
	BYTE	W03
	BYTE		N02   
	BYTE	W03
	BYTE		N02   
	BYTE	W03
	BYTE		N02   
	BYTE	W03
	BYTE		N02   
	BYTE	W03
	BYTE		N02   
	BYTE	W03
	BYTE		N02   
	BYTE	W03
	BYTE		N02   
	BYTE	W03
	BYTE		N02   
	BYTE	W03
	BYTE		N02   
	BYTE	W03
	BYTE		N02   
	BYTE	W03
	BYTE		N02   
	BYTE	W03
	BYTE		N02   
	BYTE	W02
	BYTE		N02   
	BYTE	W03
	BYTE		N02   
	BYTE	W03
	BYTE		N02   
	BYTE	W05
IdPurpose_12_B1:
	BYTE		N05     Dn1   v080
	BYTE		N23     An2 
	BYTE	W06
	BYTE		N05     Dn1 
	BYTE	W06
	BYTE		N05   
	BYTE	W06
	BYTE		N05   
	BYTE	W06
// 001   ----------------------------------------
IdPurpose_12_001:
	BYTE		N05     Dn1   v080
	BYTE	W06
	BYTE		N05   
	BYTE	W06
	BYTE		N05   
	BYTE	W06
	BYTE		N05   
	BYTE	W06
	BYTE		N01   
	BYTE	W01
	BYTE		N01   
	BYTE	W02
	BYTE		N02   
	BYTE	W03
	BYTE		N05   
	BYTE	W06
	BYTE		N05   
	BYTE	W06
	BYTE		N05   
	BYTE	W06
	BYTE		N05   
	BYTE	W06
	BYTE		N05   
	BYTE	W06
	BYTE		N05   
	BYTE	W06
	BYTE		N05   
	BYTE	W06
	BYTE		N05   
	BYTE	W06
	BYTE		N05   
	BYTE	W06
	BYTE		N05   
	BYTE	W06
	BYTE		N05   
	BYTE	W06
	BYTE	PEND
// 002   ----------------------------------------
IdPurpose_12_002:
	BYTE		N01     Dn1   v080
	BYTE	W01
	BYTE		N01   
	BYTE	W02
	BYTE		N02   
	BYTE	W03
	BYTE		N05   
	BYTE	W06
	BYTE		N05   
	BYTE	W06
	BYTE		N05   
	BYTE	W06
	BYTE		N05   
	BYTE	W06
	BYTE		N05   
	BYTE	W06
	BYTE		N05   
	BYTE	W06
	BYTE		N05   
	BYTE	W06
	BYTE		N05   
	BYTE	W06
	BYTE		N05   
	BYTE	W06
	BYTE		N05   
	BYTE	W06
	BYTE		N05   
	BYTE	W06
	BYTE		N01   
	BYTE	W01
	BYTE		N01   
	BYTE	W02
	BYTE		N02   
	BYTE	W03
	BYTE		N05   
	BYTE	W06
	BYTE		N05   
	BYTE	W06
	BYTE		N05   
	BYTE	W06
	BYTE	PEND
// 003   ----------------------------------------
IdPurpose_12_003:
	BYTE		N05     Dn1   v080
	BYTE	W06
	BYTE		N05   
	BYTE	W06
	BYTE		N05   
	BYTE	W06
	BYTE		N05   
	BYTE	W06
	BYTE		N05   
	BYTE	W06
	BYTE		N05   
	BYTE	W06
	BYTE		N05   
	BYTE	W06
	BYTE		N05   
	BYTE	W06
	BYTE		N01   
	BYTE	W01
	BYTE		N01   
	BYTE	W02
	BYTE		N02   
	BYTE	W03
	BYTE		N05   
	BYTE	W06
	BYTE		N05   
	BYTE	W06
	BYTE		N05   
	BYTE	W06
	BYTE		N05   
	BYTE	W06
	BYTE		N05   
	BYTE	W06
	BYTE		N05   
	BYTE	W06
	BYTE		N05   
	BYTE	W06
	BYTE	PEND
// 004   ----------------------------------------
	BYTE	PATT
	 POIN2	IdPurpose_12_001
// 005   ----------------------------------------
	BYTE	PATT
	 POIN2	IdPurpose_12_002
// 006   ----------------------------------------
	BYTE	PATT
	 POIN2	IdPurpose_12_003
// 007   ----------------------------------------
	BYTE	PATT
	 POIN2	IdPurpose_12_001
// 008   ----------------------------------------
	BYTE	PATT
	 POIN2	IdPurpose_12_002
// 009   ----------------------------------------
	BYTE	PATT
	 POIN2	IdPurpose_12_003
// 010   ----------------------------------------
	BYTE	PATT
	 POIN2	IdPurpose_12_001
// 011   ----------------------------------------
	BYTE	PATT
	 POIN2	IdPurpose_12_002
// 012   ----------------------------------------
	BYTE		N05     Dn1   v080
	BYTE	W06
	BYTE		N05   
	BYTE	W06
	BYTE		N05   
	BYTE	W06
	BYTE		N05   
	BYTE	W06
	BYTE		N05   
	BYTE	W06
	BYTE		N05   
	BYTE	W06
	BYTE		N05   
	BYTE	W06
	BYTE		N05   
	BYTE	W06
	BYTE		N01   
	BYTE	W01
	BYTE		N01   
	BYTE	W02
	BYTE		N02   
	BYTE	W03
	BYTE		N05   
	BYTE	W06
	BYTE		N05   
	BYTE	W06
	BYTE		N05   
	BYTE	W06
	BYTE		N17     Bn0 
	BYTE		N05     Dn1 
	BYTE	W06
	BYTE		N05   
	BYTE	W06
	BYTE		N05   
	BYTE	W06
	BYTE		        Bn0 
	BYTE		N05     Dn1 
	BYTE	W06
// 013   ----------------------------------------
	BYTE		N05   
	BYTE	W06
	BYTE		N05   
	BYTE	W06
	BYTE		N05   
	BYTE	W06
	BYTE		N05   
	BYTE	W06
	BYTE		N23     Bn0 
	BYTE		N01     Dn1 
	BYTE	W01
	BYTE		N01   
	BYTE	W02
	BYTE		N02   
	BYTE	W03
	BYTE		N05   
	BYTE	W06
	BYTE		N05   
	BYTE	W06
	BYTE		N05   
	BYTE	W06
	BYTE		N17     Bn0   v112
	BYTE		N05     Dn1   v080
	BYTE	W06
	BYTE		N05   
	BYTE	W06
	BYTE		N05   
	BYTE	W06
	BYTE		        Bn0   v112
	BYTE		N05     Dn1   v080
	BYTE	W06
	BYTE		N05   
	BYTE	W06
	BYTE		N05   
	BYTE	W06
	BYTE		N05   
	BYTE	W06
	BYTE		N05   
	BYTE	W06
// 014   ----------------------------------------
IdPurpose_12_014:
	BYTE		N23     Bn0   v112
	BYTE		N01     Dn1   v080
	BYTE	W01
	BYTE		N01   
	BYTE	W02
	BYTE		N02   
	BYTE	W03
	BYTE		N05   
	BYTE	W06
	BYTE		N05   
	BYTE	W06
	BYTE		N05   
	BYTE	W06
	BYTE		N17     Bn0   v112
	BYTE		N05     Dn1   v080
	BYTE	W06
	BYTE		N05   
	BYTE	W06
	BYTE		N05   
	BYTE	W06
	BYTE		        Bn0   v112
	BYTE		N05     Dn1   v080
	BYTE	W06
	BYTE		N05   
	BYTE	W06
	BYTE		N05   
	BYTE	W06
	BYTE		N05   
	BYTE	W06
	BYTE		N05   
	BYTE	W06
	BYTE		N23     Bn0   v112
	BYTE		N01     Dn1   v080
	BYTE	W01
	BYTE		N01   
	BYTE	W02
	BYTE		N02   
	BYTE	W03
	BYTE		N05   
	BYTE	W06
	BYTE		N05   
	BYTE	W06
	BYTE		N05   
	BYTE	W06
	BYTE	PEND
// 015   ----------------------------------------
	BYTE		N17     Bn0   v112
	BYTE		N05     Dn1   v080
	BYTE	W06
	BYTE		N05   
	BYTE	W06
	BYTE		N05   
	BYTE	W06
	BYTE		        Bn0   v112
	BYTE		N05     Dn1   v080
	BYTE	W06
	BYTE		N05   
	BYTE	W06
	BYTE		N05   
	BYTE	W06
	BYTE		N05   
	BYTE	W06
	BYTE		N05   
	BYTE	W06
	BYTE		N23     Bn0   v112
	BYTE		N01     Dn1   v080
	BYTE	W01
	BYTE		N01   
	BYTE	W02
	BYTE		N02   
	BYTE	W03
	BYTE		N05   
	BYTE	W06
	BYTE		N05   
	BYTE	W06
	BYTE		N05   
	BYTE	W06
	BYTE		N05   
	BYTE		N17     Gn1   v096
	BYTE	W06
	BYTE		N05     Dn1   v080
	BYTE	W06
	BYTE		N05   
	BYTE	W06
	BYTE		N05   
	BYTE		N05     Gn1   v096
	BYTE	W06
// 016   ----------------------------------------
IdPurpose_12_016:
	BYTE		N05     Dn1   v080
	BYTE	W06
	BYTE		N05   
	BYTE	W06
	BYTE		N05   
	BYTE	W06
	BYTE		N05   
	BYTE	W06
	BYTE		N01   
	BYTE		N23     Gn1   v096
	BYTE	W01
	BYTE		N01     Dn1   v080
	BYTE	W02
	BYTE		N02   
	BYTE	W03
	BYTE		N05   
	BYTE	W06
	BYTE		N05   
	BYTE	W06
	BYTE		N05   
	BYTE	W06
	BYTE		N05   
	BYTE		N17     Ds1   v112
	BYTE	W06
	BYTE		N05     Dn1   v080
	BYTE	W06
	BYTE		N05   
	BYTE	W06
	BYTE		N05   
	BYTE		N05     Ds1   v112
	BYTE	W06
	BYTE		        Dn1   v080
	BYTE	W06
	BYTE		N05   
	BYTE	W06
	BYTE		N05   
	BYTE	W06
	BYTE		N05   
	BYTE	W06
	BYTE	PEND
// 017   ----------------------------------------
IdPurpose_12_017:
	BYTE		N01     Dn1   v080
	BYTE		N23     Ds1   v112
	BYTE	W01
	BYTE		N01     Dn1   v080
	BYTE	W02
	BYTE		N02   
	BYTE	W03
	BYTE		N05   
	BYTE	W06
	BYTE		N05   
	BYTE	W06
	BYTE		N05   
	BYTE	W06
	BYTE		N05   
	BYTE		N17     Fn1   v112
	BYTE	W06
	BYTE		N05     Dn1   v080
	BYTE	W06
	BYTE		N05   
	BYTE	W06
	BYTE		N05   
	BYTE		N05     Fn1   v112
	BYTE	W06
	BYTE		        Dn1   v080
	BYTE	W06
	BYTE		N05   
	BYTE	W06
	BYTE		N05   
	BYTE	W06
	BYTE		N05   
	BYTE	W06
	BYTE		N01   
	BYTE		N23     Fn1   v112
	BYTE	W01
	BYTE		N01     Dn1   v080
	BYTE	W02
	BYTE		N02   
	BYTE	W03
	BYTE		N05   
	BYTE	W06
	BYTE		N05   
	BYTE	W06
	BYTE		N05   
	BYTE	W06
	BYTE	PEND
// 018   ----------------------------------------
	BYTE		N05   
	BYTE		N17     Fn1   v112
	BYTE	W06
	BYTE		N05     Dn1   v080
	BYTE	W06
	BYTE		N05   
	BYTE	W06
	BYTE		N05   
	BYTE		N05     Fn1   v112
	BYTE	W06
	BYTE		        Dn1   v080
	BYTE	W06
	BYTE		N05   
	BYTE	W06
	BYTE		N05   
	BYTE	W06
	BYTE		N05   
	BYTE	W06
	BYTE		N01   
	BYTE		N23     Fn1   v112
	BYTE	W01
	BYTE		N01     Dn1   v080
	BYTE	W02
	BYTE		N02   
	BYTE	W03
	BYTE		N05   
	BYTE	W06
	BYTE		N05   
	BYTE	W06
	BYTE		N05   
	BYTE	W06
	BYTE		N05   
	BYTE		N17     Gn1   v096
	BYTE	W06
	BYTE		N05     Dn1   v080
	BYTE	W06
	BYTE		N05   
	BYTE	W06
	BYTE		N05   
	BYTE		N05     Gn1   v096
	BYTE	W06
// 019   ----------------------------------------
	BYTE	PATT
	 POIN2	IdPurpose_12_016
// 020   ----------------------------------------
	BYTE	PATT
	 POIN2	IdPurpose_12_017
// 021   ----------------------------------------
	BYTE		N05     Dn1   v080
	BYTE		N17     Fn1   v112
	BYTE	W06
	BYTE		N05     Dn1   v080
	BYTE	W06
	BYTE		N05   
	BYTE	W06
	BYTE		N05   
	BYTE		N05     Fn1   v112
	BYTE	W06
	BYTE		        Dn1   v080
	BYTE	W06
	BYTE		N05   
	BYTE	W06
	BYTE		N05   
	BYTE	W06
	BYTE		N05   
	BYTE	W06
	BYTE		N01   
	BYTE		N23     Fn1   v112
	BYTE	W01
	BYTE		N01     Dn1   v080
	BYTE	W02
	BYTE		N02   
	BYTE	W03
	BYTE		N05   
	BYTE	W06
	BYTE		N05   
	BYTE	W06
	BYTE		N05   
	BYTE	W06
	BYTE		N17     Bn0   v096
	BYTE		N05     Dn1   v080
	BYTE	W06
	BYTE		N05   
	BYTE	W06
	BYTE		N05   
	BYTE	W06
	BYTE		        Bn0   v096
	BYTE		N05     Dn1   v080
	BYTE	W06
// 022   ----------------------------------------
	BYTE		N05   
	BYTE	W06
	BYTE		N05   
	BYTE	W06
	BYTE		N05   
	BYTE	W06
	BYTE		N05   
	BYTE	W06
	BYTE		N23     Bn0   v096
	BYTE		N01     Dn1   v080
	BYTE	W01
	BYTE		N01   
	BYTE	W02
	BYTE		N02   
	BYTE	W03
	BYTE		N05   
	BYTE	W06
	BYTE		N05   
	BYTE	W06
	BYTE		N05   
	BYTE	W06
	BYTE		N17     Bn0   v112
	BYTE		N05     Dn1   v080
	BYTE	W06
	BYTE		N05   
	BYTE	W06
	BYTE		N05   
	BYTE	W06
	BYTE		        Bn0   v112
	BYTE		N05     Dn1   v080
	BYTE	W06
	BYTE		N05   
	BYTE	W06
	BYTE		N05   
	BYTE	W06
	BYTE		N05   
	BYTE	W06
	BYTE		N05   
	BYTE	W06
// 023   ----------------------------------------
	BYTE	PATT
	 POIN2	IdPurpose_12_014
// 024   ----------------------------------------
	BYTE		N17     Bn0   v112
	BYTE		N05     Dn1   v080
	BYTE	W06
	BYTE		N05   
	BYTE	W06
	BYTE		N05   
	BYTE	W06
	BYTE		        Bn0   v112
	BYTE		N05     Dn1   v080
	BYTE	W06
	BYTE		N05   
	BYTE	W06
	BYTE		N05   
	BYTE	W06
	BYTE		N05   
	BYTE	W06
	BYTE		N05   
	BYTE	W06
	BYTE		N23     Bn0   v112
	BYTE		N01     Dn1   v080
	BYTE	W01
	BYTE		N01   
	BYTE	W02
	BYTE		N02   
	BYTE	W03
	BYTE		N05   
	BYTE	W06
	BYTE		N05   
	BYTE	W06
	BYTE		N05   
	BYTE	W06
	BYTE		        Dn1   v052
	BYTE	W06
	BYTE		N05   
	BYTE	W06
	BYTE		N05   
	BYTE	W06
	BYTE		N05   
	BYTE	W06
// 025   ----------------------------------------
IdPurpose_12_025:
	BYTE		N05     Dn1   v052
	BYTE	W06
	BYTE		N05   
	BYTE	W06
	BYTE		N05   
	BYTE	W06
	BYTE		N05   
	BYTE	W06
	BYTE		N01   
	BYTE	W01
	BYTE		N01   
	BYTE	W02
	BYTE		N02   
	BYTE	W03
	BYTE		N05   
	BYTE	W06
	BYTE		N05   
	BYTE	W06
	BYTE		N05   
	BYTE	W06
	BYTE		N05   
	BYTE	W06
	BYTE		N05   
	BYTE	W06
	BYTE		N05   
	BYTE	W06
	BYTE		N05   
	BYTE	W06
	BYTE		N05   
	BYTE	W06
	BYTE		N05   
	BYTE	W06
	BYTE		N05   
	BYTE	W06
	BYTE		N05   
	BYTE	W06
	BYTE	PEND
// 026   ----------------------------------------
IdPurpose_12_026:
	BYTE		N01     Dn1   v052
	BYTE	W01
	BYTE		N01   
	BYTE	W02
	BYTE		N02   
	BYTE	W03
	BYTE		N05   
	BYTE	W06
	BYTE		N05   
	BYTE	W06
	BYTE		N05   
	BYTE	W06
	BYTE		N05   
	BYTE	W06
	BYTE		N05   
	BYTE	W06
	BYTE		N05   
	BYTE	W06
	BYTE		N05   
	BYTE	W06
	BYTE		N05   
	BYTE	W06
	BYTE		N05   
	BYTE	W06
	BYTE		N05   
	BYTE	W06
	BYTE		N05   
	BYTE	W06
	BYTE		N01   
	BYTE	W01
	BYTE		N01   
	BYTE	W02
	BYTE		N02   
	BYTE	W03
	BYTE		N05   
	BYTE	W06
	BYTE		N05   
	BYTE	W06
	BYTE		N05   
	BYTE	W06
	BYTE	PEND
// 027   ----------------------------------------
IdPurpose_12_027:
	BYTE		N05     Dn1   v052
	BYTE	W06
	BYTE		N05   
	BYTE	W06
	BYTE		N05   
	BYTE	W06
	BYTE		N05   
	BYTE	W06
	BYTE		N05   
	BYTE	W06
	BYTE		N05   
	BYTE	W06
	BYTE		N05   
	BYTE	W06
	BYTE		N05   
	BYTE	W06
	BYTE		N01   
	BYTE	W01
	BYTE		N01   
	BYTE	W02
	BYTE		N02   
	BYTE	W03
	BYTE		N05   
	BYTE	W06
	BYTE		N05   
	BYTE	W06
	BYTE		N05   
	BYTE	W06
	BYTE		N05   
	BYTE	W06
	BYTE		N05   
	BYTE	W06
	BYTE		N05   
	BYTE	W06
	BYTE		N05   
	BYTE	W06
	BYTE	PEND
// 028   ----------------------------------------
	BYTE	PATT
	 POIN2	IdPurpose_12_025
// 029   ----------------------------------------
	BYTE	PATT
	 POIN2	IdPurpose_12_026
// 030   ----------------------------------------
	BYTE	PATT
	 POIN2	IdPurpose_12_027
// 031   ----------------------------------------
	BYTE	PATT
	 POIN2	IdPurpose_12_025
// 032   ----------------------------------------
	BYTE	PATT
	 POIN2	IdPurpose_12_026
// 033   ----------------------------------------
	BYTE	PATT
	 POIN2	IdPurpose_12_027
// 034   ----------------------------------------
	BYTE	PATT
	 POIN2	IdPurpose_12_025
// 035   ----------------------------------------
	BYTE		N01     Dn1   v052
	BYTE	W01
	BYTE		N01   
	BYTE	W02
	BYTE		N02   
	BYTE	W03
	BYTE		N05   
	BYTE	W06
	BYTE		N05   
	BYTE	W06
	BYTE		N05   
	BYTE	W06
	BYTE		        Bn0   v112
	BYTE		N05     Dn1   v052
	BYTE	W06
	BYTE		N05   
	BYTE	W06
	BYTE		N05   
	BYTE	W06
	BYTE		        Bn0   v112
	BYTE		N05     Dn1   v052
	BYTE	W06
	BYTE		N05   
	BYTE	W06
	BYTE		        Bn0   v112
	BYTE		N05     Dn1   v052
	BYTE	W06
	BYTE		N05   
	BYTE	W06
	BYTE		N05   
	BYTE	W06
	BYTE		        Bn0   v112
	BYTE		N01     Dn1   v052
	BYTE	W01
	BYTE		N01   
	BYTE	W02
	BYTE		N02   
	BYTE	W03
	BYTE		N05     Bn0   v112
	BYTE		N05     Dn1   v052
	BYTE	W06
	BYTE		        Bn0   v112
	BYTE		N05     Dn1   v052
	BYTE	W06
	BYTE		        Bn0   v112
	BYTE		N05     Dn1   v052
	BYTE	W06
// 036   ----------------------------------------
	BYTE		        Bn0   v112
	BYTE		N05     Dn1   v052
	BYTE	W06
	BYTE		N05   
	BYTE	W06
	BYTE		N05   
	BYTE	W06
	BYTE		        Bn0   v112
	BYTE		N05     Dn1   v052
	BYTE	W06
	BYTE		N05   
	BYTE	W06
	BYTE		        Bn0   v112
	BYTE		N05     Dn1   v052
	BYTE	W06
	BYTE		N05   
	BYTE	W06
	BYTE		N05   
	BYTE	W06
	BYTE		        Bn0   v112
	BYTE		N01     Dn1   v052
	BYTE	W01
	BYTE		N01   
	BYTE	W02
	BYTE		N02   
	BYTE	W03
	BYTE		N05     Bn0   v112
	BYTE		N05     Dn1   v052
	BYTE	W06
	BYTE		        Bn0   v112
	BYTE		N05     Dn1   v052
	BYTE	W06
	BYTE		        Bn0   v112
	BYTE		N05     Dn1   v052
	BYTE	W06
	BYTE		        Bn0   v112
	BYTE		N05     Dn1   v052
	BYTE	W06
	BYTE		N05   
	BYTE	W06
	BYTE		N05   
	BYTE	W06
	BYTE		        Bn0   v112
	BYTE		N05     Dn1   v052
	BYTE	W06
// 037   ----------------------------------------
	BYTE		N05   
	BYTE	W06
	BYTE		        Bn0   v112
	BYTE		N05     Dn1   v052
	BYTE	W06
	BYTE		N05   
	BYTE	W06
	BYTE		N05   
	BYTE	W06
	BYTE		        Bn0   v112
	BYTE		N01     Dn1   v052
	BYTE	W01
	BYTE		N01   
	BYTE	W02
	BYTE		N02   
	BYTE	W03
	BYTE		N05     Bn0   v112
	BYTE		N05     Dn1   v052
	BYTE	W06
	BYTE		        Bn0   v112
	BYTE		N05     Dn1   v052
	BYTE	W06
	BYTE		        Bn0   v112
	BYTE		N05     Dn1   v052
	BYTE	W06
	BYTE		N05   
	BYTE	W06
	BYTE		N05   
	BYTE	W06
	BYTE		N02     Bn0 
	BYTE		N05     Dn1 
	BYTE	W03
	BYTE		N02     Bn0   v060
	BYTE	W03
	BYTE		        Bn0   v068
	BYTE		N05     Dn1   v052
	BYTE	W03
	BYTE		N02     Bn0   v080
	BYTE	W03
	BYTE		        Bn0   v052
	BYTE		N05     Dn1 
	BYTE	W03
	BYTE		N02     Bn0   v060
	BYTE	W03
	BYTE		        Bn0   v068
	BYTE		N05     Dn1   v052
	BYTE	W03
	BYTE		N02     Bn0   v080
	BYTE	W03
	BYTE		        Bn0   v052
	BYTE		N05     Dn1 
	BYTE	W03
	BYTE		N02     Bn0   v060
	BYTE	W03
	BYTE		        Bn0   v068
	BYTE		N05     Dn1   v052
	BYTE	W03
	BYTE		N02     Bn0   v080
	BYTE	W03
// 038   ----------------------------------------
	BYTE		        Bn0   v088
	BYTE		N01     Dn1   v052
	BYTE	W01
	BYTE		N01   
	BYTE	W02
	BYTE		N02     Bn0   v100
	BYTE		N02     Dn1   v052
	BYTE	W03
	BYTE		        Bn0   v108
	BYTE		N05     Dn1   v052
	BYTE	W03
	BYTE		N02     Bn0   v116
	BYTE	W03
	BYTE		        Bn0   v127
	BYTE		N05     Dn1   v052
	BYTE	W03
	BYTE		N02     Bn0   v127
	BYTE	W03
	BYTE		N02   
	BYTE		N05     Dn1   v052
	BYTE	W03
	BYTE		N02     Bn0   v127
	BYTE	W03
	BYTE		N23   
	BYTE		N05     Dn1   v052
	BYTE	W06
	BYTE		N05   
	BYTE	W06
	BYTE		N05   
	BYTE	W06
	BYTE		N05   
	BYTE	W06
	BYTE		N05   
	BYTE	W06
	BYTE		N05   
	BYTE	W06
	BYTE		N05   
	BYTE	W06
	BYTE		N05   
	BYTE	W06
	BYTE		N01   
	BYTE	W01
	BYTE		N01   
	BYTE	W02
	BYTE		N02   
	BYTE	W03
	BYTE		N05   
	BYTE	W06
	BYTE		N05   
	BYTE	W06
	BYTE		N05   
	BYTE	W06
// 039   ----------------------------------------
	BYTE	PATT
	 POIN2	IdPurpose_12_027
// 040   ----------------------------------------
	BYTE	PATT
	 POIN2	IdPurpose_12_025
// 041   ----------------------------------------
	BYTE	PATT
	 POIN2	IdPurpose_12_026
// 042   ----------------------------------------
	BYTE	PATT
	 POIN2	IdPurpose_12_027
// 043   ----------------------------------------
	BYTE	PATT
	 POIN2	IdPurpose_12_025
// 044   ----------------------------------------
	BYTE	PATT
	 POIN2	IdPurpose_12_026
// 045   ----------------------------------------
	BYTE	PATT
	 POIN2	IdPurpose_12_027
// 046   ----------------------------------------
	BYTE	PATT
	 POIN2	IdPurpose_12_025
// 047   ----------------------------------------
	BYTE	PATT
	 POIN2	IdPurpose_12_026
// 048   ----------------------------------------
	BYTE		N05     Dn1   v052
	BYTE	W06
	BYTE		N05   
	BYTE	W06
	BYTE		N05   
	BYTE	W06
	BYTE		N05   
	BYTE	W06
	BYTE		N05   
	BYTE	W06
	BYTE		N05   
	BYTE	W06
	BYTE		N05   
	BYTE	W06
	BYTE		N05   
	BYTE	W06
	BYTE		N01   
	BYTE	W01
	BYTE		N01   
	BYTE	W02
	BYTE		N02   
	BYTE	W03
	BYTE		N05   
	BYTE	W06
	BYTE		N05   
	BYTE	W06
	BYTE		N05   
	BYTE	W06
	BYTE		N17     Bn0   v112
	BYTE		N05     Dn1   v052
	BYTE	W06
	BYTE		N05   
	BYTE	W06
	BYTE		N05   
	BYTE	W06
	BYTE		N23     Bn0   v112
	BYTE		N05     Dn1   v052
	BYTE	W06
// 049   ----------------------------------------
	BYTE		N05   
	BYTE	W06
	BYTE		N05   
	BYTE	W06
	BYTE		N05   
	BYTE	W06
	BYTE		N02     Bn0   v112
	BYTE		N05     Dn1   v052
	BYTE	W03
	BYTE		N02     Bn0   v112
	BYTE	W03
	BYTE		N23   
	BYTE		N01     Dn1   v052
	BYTE	W01
	BYTE		N01   
	BYTE	W02
	BYTE		N02   
	BYTE	W03
	BYTE		N05   
	BYTE	W06
	BYTE		N05   
	BYTE	W06
	BYTE		N05   
	BYTE	W06
	BYTE		N17     Bn0   v112
	BYTE		N05     Dn1   v052
	BYTE	W06
	BYTE		N05   
	BYTE	W06
	BYTE		N05   
	BYTE	W06
	BYTE		N23     Bn0   v112
	BYTE		N05     Dn1   v052
	BYTE	W06
	BYTE		N05   
	BYTE	W06
	BYTE		N05   
	BYTE	W06
	BYTE		N05   
	BYTE	W06
	BYTE		N02     Bn0   v112
	BYTE		N05     Dn1   v052
	BYTE	W03
	BYTE		N02     Bn0   v112
	BYTE	W03
// 050   ----------------------------------------
	BYTE		N23   
	BYTE		N01     Dn1   v052
	BYTE	W01
	BYTE		N01   
	BYTE	W02
	BYTE		N02   
	BYTE	W03
	BYTE		N05   
	BYTE	W06
	BYTE		N05   
	BYTE	W06
	BYTE		N05   
	BYTE	W06
	BYTE		N17     Bn0   v112
	BYTE		N05     Dn1   v052
	BYTE	W06
	BYTE		N05   
	BYTE	W06
	BYTE		N05   
	BYTE	W06
	BYTE		N23     Bn0   v112
	BYTE		N05     Dn1   v052
	BYTE	W06
	BYTE		N05   
	BYTE	W06
	BYTE		N05   
	BYTE	W06
	BYTE		N05   
	BYTE	W06
	BYTE		N02     Bn0   v112
	BYTE		N05     Dn1   v052
	BYTE	W03
	BYTE		N02     Bn0   v112
	BYTE	W03
	BYTE		N23   
	BYTE		N01     Dn1   v052
	BYTE	W01
	BYTE		N01   
	BYTE	W02
	BYTE		N02   
	BYTE	W03
	BYTE		N05   
	BYTE	W06
	BYTE		N05   
	BYTE	W06
	BYTE		N05   
	BYTE	W06
// 051   ----------------------------------------
	BYTE		N17     Bn0   v112
	BYTE		N05     Dn1   v052
	BYTE	W06
	BYTE		N05   
	BYTE	W06
	BYTE		N05   
	BYTE	W06
	BYTE		N23     Bn0   v112
	BYTE		N05     Dn1   v052
	BYTE	W06
	BYTE		N05   
	BYTE	W06
	BYTE		N05   
	BYTE	W06
	BYTE		N05   
	BYTE	W06
	BYTE		N02     Bn0   v112
	BYTE		N05     Dn1   v052
	BYTE	W03
	BYTE		N02     Bn0   v112
	BYTE	W03
	BYTE		N05   
	BYTE		N01     Dn1   v052
	BYTE	W01
	BYTE		N01   
	BYTE	W02
	BYTE		N02   
	BYTE	W03
	BYTE		N05     Bn0   v112
	BYTE		N05     Dn1   v052
	BYTE	W06
	BYTE		        Bn0   v112
	BYTE		N05     Dn1   v052
	BYTE	W06
	BYTE		        Bn0   v112
	BYTE		N05     Dn1   v052
	BYTE	W06
	BYTE		N05   
	BYTE	W06
	BYTE		N05   
	BYTE	W06
	BYTE		N05   
	BYTE	W06
	BYTE		N05   
	BYTE	W06
// 052   ----------------------------------------
	BYTE	PATT
	 POIN2	IdPurpose_12_025
// 053   ----------------------------------------
	BYTE	PATT
	 POIN2	IdPurpose_12_026
// 054   ----------------------------------------
	BYTE	PATT
	 POIN2	IdPurpose_12_027
// 055   ----------------------------------------
	BYTE	PATT
	 POIN2	IdPurpose_12_025
// 056   ----------------------------------------
	BYTE	PATT
	 POIN2	IdPurpose_12_026
// 057   ----------------------------------------
	BYTE	PATT
	 POIN2	IdPurpose_12_027
// 058   ----------------------------------------
	BYTE	PATT
	 POIN2	IdPurpose_12_025
// 059   ----------------------------------------
	BYTE	PATT
	 POIN2	IdPurpose_12_026
// 060   ----------------------------------------
	BYTE	PATT
	 POIN2	IdPurpose_12_027
// 061   ----------------------------------------
	BYTE	PATT
	 POIN2	IdPurpose_12_025
// 062   ----------------------------------------
	BYTE		N01     Dn1   v052
	BYTE	W01
	BYTE		N01   
	BYTE	W02
	BYTE		N02   
	BYTE	W03
	BYTE		N05   
	BYTE	W06
	BYTE		N05   
	BYTE	W06
	BYTE		N05   
	BYTE	W06
	BYTE		N17     Bn0   v112
	BYTE		N05     Dn1   v052
	BYTE	W06
	BYTE		N05   
	BYTE	W06
	BYTE		N05   
	BYTE	W06
	BYTE		N11     Bn0   v112
	BYTE		N05     Dn1   v052
	BYTE	W06
	BYTE		N05   
	BYTE	W06
	BYTE		N11     Bn0   v112
	BYTE		N05     Dn1   v052
	BYTE	W06
	BYTE		N05   
	BYTE	W06
	BYTE		N02     Bn0   v112
	BYTE		N05     Dn1   v052
	BYTE	W03
	BYTE		N02     Bn0   v112
	BYTE	W03
	BYTE		N05   
	BYTE		N01     Dn1   v052
	BYTE	W01
	BYTE		N01   
	BYTE	W02
	BYTE		N02   
	BYTE	W03
	BYTE		N05     Bn0   v112
	BYTE		N05     Dn1   v052
	BYTE	W06
	BYTE		N11     Bn0   v112
	BYTE		N05     Dn1   v052
	BYTE	W06
	BYTE		N05   
	BYTE	W06
// 063   ----------------------------------------
	BYTE		N17     Bn0   v112
	BYTE		N05     Dn1   v052
	BYTE	W06
	BYTE		N05   
	BYTE	W06
	BYTE		N05   
	BYTE	W06
	BYTE		N11     Bn0   v112
	BYTE		N05     Dn1   v052
	BYTE	W06
	BYTE		N05   
	BYTE	W06
	BYTE		N11     Bn0   v112
	BYTE		N05     Dn1   v052
	BYTE	W06
	BYTE		N05   
	BYTE	W06
	BYTE		N02     Bn0   v112
	BYTE		N05     Dn1   v052
	BYTE	W03
	BYTE		N02     Bn0   v112
	BYTE	W03
	BYTE		N05   
	BYTE		N01     Dn1   v052
	BYTE	W01
	BYTE		N01   
	BYTE	W02
	BYTE		N02   
	BYTE	W03
	BYTE		N05     Bn0   v112
	BYTE		N05     Dn1   v052
	BYTE	W06
	BYTE		N11     Bn0   v112
	BYTE		N05     Dn1   v052
	BYTE	W06
	BYTE		N05   
	BYTE	W06
	BYTE		N17     Bn0   v112
	BYTE		N05     Dn1   v052
	BYTE	W06
	BYTE		N05   
	BYTE	W06
	BYTE		N05   
	BYTE	W06
	BYTE		N11     Bn0   v112
	BYTE		N05     Dn1   v052
	BYTE	W06
// 064   ----------------------------------------
	BYTE		N05   
	BYTE	W06
	BYTE		N11     Bn0   v112
	BYTE		N05     Dn1   v052
	BYTE	W06
	BYTE		N05   
	BYTE	W06
	BYTE		N02     Bn0   v112
	BYTE		N05     Dn1   v052
	BYTE	W03
	BYTE		N02     Bn0   v112
	BYTE	W03
	BYTE		N05   
	BYTE		N01     Dn1   v052
	BYTE	W01
	BYTE		N01   
	BYTE	W02
	BYTE		N02   
	BYTE	W03
	BYTE		N05     Bn0   v112
	BYTE		N05     Dn1   v052
	BYTE	W06
	BYTE		N11     Bn0   v112
	BYTE		N05     Dn1   v052
	BYTE	W06
	BYTE		N05   
	BYTE	W06
	BYTE		N23     Bn0   v112
	BYTE		N05     Dn1   v052
	BYTE	W06
	BYTE		N05   
	BYTE	W06
	BYTE		N05   
	BYTE	W06
	BYTE		N05   
	BYTE	W06
	BYTE		N23     Bn0   v112
	BYTE		N05     Dn1   v052
	BYTE	W06
	BYTE		N05   
	BYTE	W06
	BYTE		N05   
	BYTE	W06
	BYTE		N05   
	BYTE	W06
// 065   ----------------------------------------
	BYTE		N23     Bn0   v112
	BYTE		N01     Dn1   v052
	BYTE	W01
	BYTE		N01   
	BYTE	W02
	BYTE		N02   
	BYTE	W03
	BYTE		N05   
	BYTE	W06
	BYTE		N05   
	BYTE	W06
	BYTE		N05   
	BYTE	W06
// 066   ----------------------------------------
	BYTE	W96
// 067   ----------------------------------------
	BYTE	W96
// 068   ----------------------------------------
	BYTE	W96
// 069   ----------------------------------------
	BYTE	W96
// 070   ----------------------------------------
	BYTE	W96
// 071   ----------------------------------------
	BYTE	W96
// 072   ----------------------------------------
	BYTE	W96
// 073   ----------------------------------------
	BYTE	W96
// 074   ----------------------------------------
IdPurpose_12_074:
	BYTE		N23     Dn1   v127
	BYTE	W42
	BYTE		N05   
	BYTE	W06
	BYTE		N23   
	BYTE	W42
	BYTE		N05   
	BYTE	W06
	BYTE	PEND
// 075   ----------------------------------------
IdPurpose_12_075:
	BYTE		N23     Dn1   v127
	BYTE	W48
	BYTE		N23   
	BYTE	W24
	BYTE		N02   
	BYTE	W03
	BYTE		N02   
	BYTE	W03
	BYTE		N02   
	BYTE	W03
	BYTE		N02   
	BYTE	W03
	BYTE		N02   
	BYTE	W03
	BYTE		N02   
	BYTE	W03
	BYTE		N02   
	BYTE	W03
	BYTE		N02   
	BYTE	W03
	BYTE	PEND
// 076   ----------------------------------------
	BYTE	PATT
	 POIN2	IdPurpose_12_074
// 077   ----------------------------------------
IdPurpose_12_077:
	BYTE		N23     Dn1   v127
	BYTE	W24
	BYTE		N23   
	BYTE	W24
	BYTE		N23   
	BYTE	W24
	BYTE		N02   
	BYTE	W03
	BYTE		N02   
	BYTE	W03
	BYTE		N02   
	BYTE	W03
	BYTE		N02   
	BYTE	W03
	BYTE		N02   
	BYTE	W03
	BYTE		N02   
	BYTE	W03
	BYTE		N02   
	BYTE	W03
	BYTE		N02   
	BYTE	W03
	BYTE	PEND
// 078   ----------------------------------------
	BYTE	PATT
	 POIN2	IdPurpose_12_074
// 079   ----------------------------------------
	BYTE	PATT
	 POIN2	IdPurpose_12_075
// 080   ----------------------------------------
	BYTE	PATT
	 POIN2	IdPurpose_12_074
// 081   ----------------------------------------
	BYTE	PATT
	 POIN2	IdPurpose_12_077
// 082   ----------------------------------------
	BYTE	PATT
	 POIN2	IdPurpose_12_074
// 083   ----------------------------------------
	BYTE	PATT
	 POIN2	IdPurpose_12_077
// 084   ----------------------------------------
	BYTE	PATT
	 POIN2	IdPurpose_12_074
// 085   ----------------------------------------
	BYTE	PATT
	 POIN2	IdPurpose_12_077
// 086   ----------------------------------------
	BYTE	PATT
	 POIN2	IdPurpose_12_074
// 087   ----------------------------------------
	BYTE	PATT
	 POIN2	IdPurpose_12_077
// 088   ----------------------------------------
	BYTE	PATT
	 POIN2	IdPurpose_12_074
// 089   ----------------------------------------
	BYTE	PATT
	 POIN2	IdPurpose_12_077
// 090   ----------------------------------------
	BYTE	PATT
	 POIN2	IdPurpose_12_074
// 091   ----------------------------------------
	BYTE	PATT
	 POIN2	IdPurpose_12_075
// 092   ----------------------------------------
	BYTE	PATT
	 POIN2	IdPurpose_12_074
// 093   ----------------------------------------
	BYTE	PATT
	 POIN2	IdPurpose_12_077
// 094   ----------------------------------------
	BYTE	PATT
	 POIN2	IdPurpose_12_074
// 095   ----------------------------------------
	BYTE	PATT
	 POIN2	IdPurpose_12_077
// 096   ----------------------------------------
	BYTE		N23     Bn0   v112
	BYTE		N23     Dn1   v127
	BYTE	W24
	BYTE		N07     Bn0   v112
	BYTE		N23     Dn1   v127
	BYTE	W08
	BYTE		N07     Bn0   v112
	BYTE	W08
	BYTE		N07   
	BYTE	W08
	BYTE		N23   
	BYTE		N23     Dn1   v127
	BYTE	W24
	BYTE		N07     Bn0   v112
	BYTE		N02     Dn1   v127
	BYTE	W03
	BYTE		N02   
	BYTE	W03
	BYTE		N02   
	BYTE	W02
	BYTE		N07     Bn0   v112
	BYTE	W01
	BYTE		N02     Dn1   v127
	BYTE	W03
	BYTE		N02   
	BYTE	W03
	BYTE		N02   
	BYTE	W01
	BYTE		N07     Bn0   v112
	BYTE	W02
	BYTE		N02     Dn1   v127
	BYTE	W03
	BYTE		N02   
	BYTE	W03
// 097   ----------------------------------------
	BYTE		N23     Bn0   v112
	BYTE		N23     Dn1   v127
	BYTE	W24
	BYTE		N07     Bn0   v112
	BYTE		N02     Dn1   v127
	BYTE	W03
	BYTE		N02   
	BYTE	W03
	BYTE		N02   
	BYTE	W02
	BYTE		N07     Bn0   v112
	BYTE	W01
	BYTE		N02     Dn1   v127
	BYTE	W03
	BYTE		N02   
	BYTE	W03
	BYTE		N02   
	BYTE	W01
	BYTE		N07     Bn0   v112
	BYTE	W02
	BYTE		N02     Dn1   v127
	BYTE	W03
	BYTE		N02   
	BYTE	W03
	BYTE		N23     Bn0   v112
	BYTE		N23     Dn1   v127
	BYTE	W24
	BYTE		N07     Bn0   v112
	BYTE		N02     Dn1   v127
	BYTE	W03
	BYTE		N02   
	BYTE	W03
	BYTE		N02   
	BYTE	W02
	BYTE		N07     Bn0   v112
	BYTE	W01
	BYTE		N02     Dn1   v127
	BYTE	W03
	BYTE		N02   
	BYTE	W03
	BYTE		N02   
	BYTE	W01
	BYTE		N07     Bn0   v112
	BYTE	W02
	BYTE		N02     Dn1   v127
	BYTE	W03
	BYTE		N02   
	BYTE	W03
// 098   ----------------------------------------
IdPurpose_12_098:
	BYTE		N23     Bn0   v112
	BYTE	W24
	BYTE		N07   
	BYTE	W08
	BYTE		N07   
	BYTE	W08
	BYTE		N07   
	BYTE	W08
	BYTE		N23   
	BYTE	W24
	BYTE		N07   
	BYTE	W08
	BYTE		N07   
	BYTE	W08
	BYTE		N07   
	BYTE	W08
	BYTE	PEND
// 099   ----------------------------------------
IdPurpose_12_099:
	BYTE		N23     Bn0   v112
	BYTE	W24
	BYTE		N07   
	BYTE	W08
	BYTE		N07   
	BYTE	W08
	BYTE		N07   
	BYTE	W08
	BYTE		N07   
	BYTE	W08
	BYTE		N07   
	BYTE	W08
	BYTE		N07   
	BYTE	W08
	BYTE		N07   
	BYTE	W08
	BYTE		N07   
	BYTE	W08
	BYTE		N07   
	BYTE	W08
	BYTE	PEND
// 100   ----------------------------------------
	BYTE	PATT
	 POIN2	IdPurpose_12_098
// 101   ----------------------------------------
	BYTE	PATT
	 POIN2	IdPurpose_12_099
// 102   ----------------------------------------
	BYTE	PATT
	 POIN2	IdPurpose_12_098
// 103   ----------------------------------------
	BYTE	PATT
	 POIN2	IdPurpose_12_099
// 104   ----------------------------------------
	BYTE	PATT
	 POIN2	IdPurpose_12_098
// 105   ----------------------------------------
	BYTE		N23     Bn0   v112
	BYTE	W24
	BYTE		N23   
	BYTE	W24
	BYTE		N23   
	BYTE	W24
	BYTE		N23   
	BYTE	W24
// 106   ----------------------------------------
	BYTE	W72
// 107   ----------------------------------------
	BYTE	W72
// 108   ----------------------------------------
	BYTE	W72
// 109   ----------------------------------------
	BYTE	W72
// 110   ----------------------------------------
	BYTE	W72
// 111   ----------------------------------------
	BYTE	W72
// 112   ----------------------------------------
	BYTE	W72
// 113   ----------------------------------------
	BYTE	W72
// 114   ----------------------------------------
	BYTE	W72
// 115   ----------------------------------------
	BYTE	W72
	BYTE	GoTo
	 POIN2	IdPurpose_12_B1
IdPurpose_12_B2:
// 116   ----------------------------------------
	BYTE	FINE

//**************** Track 13 (Midi-Chn.14) ****************//

IdPurpose_13:
	BYTE	KEYSH   IdPurpose_key+0
// 000   ----------------------------------------
	BYTE		VOICE   52
	BYTE		PAN     c_v-24
	BYTE		VOL     100*IdPurpose_mvl/mxv
	BYTE	W72
IdPurpose_13_B1:
	BYTE	W24
// 001   ----------------------------------------
	BYTE	W96
// 002   ----------------------------------------
	BYTE	W96
// 003   ----------------------------------------
	BYTE	W96
// 004   ----------------------------------------
	BYTE	W96
// 005   ----------------------------------------
	BYTE	W96
// 006   ----------------------------------------
	BYTE	W96
// 007   ----------------------------------------
	BYTE	W96
// 008   ----------------------------------------
	BYTE	W96
// 009   ----------------------------------------
	BYTE	W96
// 010   ----------------------------------------
	BYTE	W96
// 011   ----------------------------------------
	BYTE	W96
// 012   ----------------------------------------
	BYTE	W96
// 013   ----------------------------------------
	BYTE	W96
// 014   ----------------------------------------
	BYTE	W96
// 015   ----------------------------------------
	BYTE	W96
// 016   ----------------------------------------
	BYTE	W96
// 017   ----------------------------------------
	BYTE	W96
// 018   ----------------------------------------
	BYTE	W96
// 019   ----------------------------------------
	BYTE	W96
// 020   ----------------------------------------
	BYTE	W96
// 021   ----------------------------------------
	BYTE	W96
// 022   ----------------------------------------
	BYTE	W96
// 023   ----------------------------------------
	BYTE	W96
// 024   ----------------------------------------
	BYTE	W96
// 025   ----------------------------------------
	BYTE	W96
// 026   ----------------------------------------
	BYTE	W96
// 027   ----------------------------------------
	BYTE	W96
// 028   ----------------------------------------
	BYTE	W96
// 029   ----------------------------------------
	BYTE	W96
// 030   ----------------------------------------
	BYTE	W96
// 031   ----------------------------------------
	BYTE	W96
// 032   ----------------------------------------
	BYTE	W96
// 033   ----------------------------------------
	BYTE	W96
// 034   ----------------------------------------
	BYTE	W96
// 035   ----------------------------------------
	BYTE	W96
// 036   ----------------------------------------
	BYTE	W96
// 037   ----------------------------------------
	BYTE	W96
// 038   ----------------------------------------
	BYTE	W96
// 039   ----------------------------------------
	BYTE	W96
// 040   ----------------------------------------
	BYTE	W96
// 041   ----------------------------------------
	BYTE	W96
// 042   ----------------------------------------
	BYTE	W96
// 043   ----------------------------------------
	BYTE	W96
// 044   ----------------------------------------
	BYTE	W96
// 045   ----------------------------------------
	BYTE	W96
// 046   ----------------------------------------
	BYTE	W96
// 047   ----------------------------------------
	BYTE	W96
// 048   ----------------------------------------
	BYTE	W96
// 049   ----------------------------------------
	BYTE	W96
// 050   ----------------------------------------
	BYTE	W96
// 051   ----------------------------------------
	BYTE	W96
// 052   ----------------------------------------
	BYTE	W96
// 053   ----------------------------------------
	BYTE	W96
// 054   ----------------------------------------
	BYTE	W96
// 055   ----------------------------------------
	BYTE	W96
// 056   ----------------------------------------
	BYTE	W96
// 057   ----------------------------------------
	BYTE	W96
// 058   ----------------------------------------
	BYTE	W96
// 059   ----------------------------------------
	BYTE	W96
// 060   ----------------------------------------
	BYTE	W96
// 061   ----------------------------------------
	BYTE	W96
// 062   ----------------------------------------
	BYTE	W96
// 063   ----------------------------------------
	BYTE	W96
// 064   ----------------------------------------
	BYTE	W96
// 065   ----------------------------------------
	BYTE	W24
// 066   ----------------------------------------
	BYTE	W96
// 067   ----------------------------------------
	BYTE	W96
// 068   ----------------------------------------
	BYTE	W96
// 069   ----------------------------------------
	BYTE	W96
// 070   ----------------------------------------
	BYTE	W96
// 071   ----------------------------------------
	BYTE	W96
// 072   ----------------------------------------
	BYTE	W96
// 073   ----------------------------------------
	BYTE	W96
// 074   ----------------------------------------
	BYTE	W96
// 075   ----------------------------------------
	BYTE	W96
// 076   ----------------------------------------
	BYTE	W96
// 077   ----------------------------------------
	BYTE	W96
// 078   ----------------------------------------
	BYTE	W96
// 079   ----------------------------------------
	BYTE	W96
// 080   ----------------------------------------
	BYTE	W96
// 081   ----------------------------------------
	BYTE	W96
// 082   ----------------------------------------
IdPurpose_13_082:
	BYTE		N44     Bn1   v112
	BYTE	W48
	BYTE		N23     Dn2 
	BYTE	W24
	BYTE		        Fs2 
	BYTE	W24
	BYTE	PEND
// 083   ----------------------------------------
IdPurpose_13_083:
	BYTE		N44     Gn2   v112
	BYTE	W48
	BYTE		        En2 
	BYTE	W48
	BYTE	PEND
// 084   ----------------------------------------
IdPurpose_13_084:
	BYTE		N44     Cs2   v112
	BYTE	W48
	BYTE		N15   
	BYTE	W16
	BYTE		        Dn2 
	BYTE	W16
	BYTE		        En2 
	BYTE	W16
	BYTE	PEND
// 085   ----------------------------------------
IdPurpose_13_085:
	BYTE		N44     En2   v112
	BYTE	W48
	BYTE		        Dn2 
	BYTE	W48
	BYTE	PEND
// 086   ----------------------------------------
IdPurpose_13_086:
	BYTE		N44     Gn1   v112
	BYTE	W48
	BYTE		N23     Bn1 
	BYTE	W24
	BYTE		        En2 
	BYTE	W24
	BYTE	PEND
// 087   ----------------------------------------
IdPurpose_13_087:
	BYTE		N44     Gn2   v112
	BYTE	W48
	BYTE		N23     En2 
	BYTE	W24
	BYTE		N23   
	BYTE	W24
	BYTE	PEND
// 088   ----------------------------------------
IdPurpose_13_088:
	BYTE		N44     Cs2   v112
	BYTE	W48
	BYTE		N15     Bn1 
	BYTE	W16
	BYTE		        Cs2 
	BYTE	W16
	BYTE		        Dn2 
	BYTE	W16
	BYTE	PEND
// 089   ----------------------------------------
	BYTE		N92     Cs2 
	BYTE	W96
// 090   ----------------------------------------
	BYTE	PATT
	 POIN2	IdPurpose_13_082
// 091   ----------------------------------------
	BYTE	PATT
	 POIN2	IdPurpose_13_083
// 092   ----------------------------------------
	BYTE	PATT
	 POIN2	IdPurpose_13_084
// 093   ----------------------------------------
	BYTE	PATT
	 POIN2	IdPurpose_13_085
// 094   ----------------------------------------
	BYTE	PATT
	 POIN2	IdPurpose_13_086
// 095   ----------------------------------------
	BYTE	PATT
	 POIN2	IdPurpose_13_087
// 096   ----------------------------------------
	BYTE	PATT
	 POIN2	IdPurpose_13_088
// 097   ----------------------------------------
	BYTE		N92     Cs2   v112
	BYTE	W96
// 098   ----------------------------------------
	BYTE	PATT
	 POIN2	IdPurpose_13_082
// 099   ----------------------------------------
	BYTE	PATT
	 POIN2	IdPurpose_13_083
// 100   ----------------------------------------
	BYTE	PATT
	 POIN2	IdPurpose_13_084
// 101   ----------------------------------------
	BYTE	PATT
	 POIN2	IdPurpose_13_085
// 102   ----------------------------------------
	BYTE	PATT
	 POIN2	IdPurpose_13_086
// 103   ----------------------------------------
	BYTE	PATT
	 POIN2	IdPurpose_13_087
// 104   ----------------------------------------
	BYTE	PATT
	 POIN2	IdPurpose_13_088
// 105   ----------------------------------------
	BYTE		N92     Cs2   v112
	BYTE	W96
// 106   ----------------------------------------
	BYTE		TIE     Bn1 
	BYTE	W72
// 107   ----------------------------------------
	BYTE	W72
// 108   ----------------------------------------
	BYTE	W72
// 109   ----------------------------------------
	BYTE	W32
	BYTE	W03
	BYTE		EOT   
	BYTE	W01
	BYTE		N32   
	BYTE	W36
// 110   ----------------------------------------
	BYTE		TIE   
	BYTE	W72
// 111   ----------------------------------------
	BYTE	W72
// 112   ----------------------------------------
	BYTE	W72
// 113   ----------------------------------------
	BYTE	W68
	BYTE	W03
	BYTE		EOT   
	BYTE	W01
// 114   ----------------------------------------
	BYTE	W72
// 115   ----------------------------------------
	BYTE	W72
	BYTE	GoTo
	 POIN2	IdPurpose_13_B1
IdPurpose_13_B2:
// 116   ----------------------------------------
	BYTE	FINE

//**************** Track 14 (Midi-Chn.15) ****************//

IdPurpose_14:
	BYTE	KEYSH   IdPurpose_key+0
// 000   ----------------------------------------
	BYTE		VOICE   52
	BYTE		PAN     c_v+16
	BYTE		VOL     100*IdPurpose_mvl/mxv
	BYTE	W72
IdPurpose_14_B1:
	BYTE	W24
// 001   ----------------------------------------
	BYTE	W96
// 002   ----------------------------------------
	BYTE	W96
// 003   ----------------------------------------
	BYTE	W96
// 004   ----------------------------------------
	BYTE	W96
// 005   ----------------------------------------
	BYTE	W96
// 006   ----------------------------------------
	BYTE	W96
// 007   ----------------------------------------
	BYTE	W96
// 008   ----------------------------------------
	BYTE	W96
// 009   ----------------------------------------
	BYTE	W96
// 010   ----------------------------------------
	BYTE	W96
// 011   ----------------------------------------
	BYTE	W96
// 012   ----------------------------------------
IdPurpose_14_012:
	BYTE	W48
	BYTE		N05     Gn1   v096
	BYTE	W06
	BYTE		        An1 
	BYTE	W06
	BYTE		        As1 
	BYTE	W06
	BYTE		        Fn2 
	BYTE	W06
	BYTE		N44     Cn2 
	BYTE	W24
	BYTE	PEND
// 013   ----------------------------------------
	BYTE	W24
	BYTE		N23     As1 
	BYTE	W24
	BYTE		N44     An1 
	BYTE	W48
// 014   ----------------------------------------
	BYTE		N23     Gn1 
	BYTE	W24
	BYTE		N92     Fn1 
	BYTE	W72
// 015   ----------------------------------------
	BYTE	PATT
	 POIN2	IdPurpose_14_012
// 016   ----------------------------------------
	BYTE	W24
	BYTE		N11     Dn2   v096
	BYTE	W12
	BYTE		        As2 
	BYTE	W12
	BYTE		N23   
	BYTE	W24
	BYTE		        An2 
	BYTE	W24
// 017   ----------------------------------------
	BYTE		        Gn2 
	BYTE	W24
	BYTE		N56     Fn2 
	BYTE	W60
	BYTE		N05     Ds2 
	BYTE	W06
	BYTE		        Dn2 
	BYTE	W06
// 018   ----------------------------------------
	BYTE		N44     Cn2 
	BYTE	W72
	BYTE		        Ds2 
	BYTE	W24
// 019   ----------------------------------------
	BYTE	W24
	BYTE		N23     Fn2 
	BYTE	W24
	BYTE		N44     Gn2 
	BYTE	W48
// 020   ----------------------------------------
	BYTE		N23     An2 
	BYTE	W24
	BYTE		N17     As2 
	BYTE	W18
	BYTE		N05     An2 
	BYTE	W06
	BYTE		N44     Gn2 
	BYTE	W48
// 021   ----------------------------------------
	BYTE		N17     Gs2 
	BYTE	W18
	BYTE		N05     Gn2 
	BYTE	W06
	BYTE		N44     Fn2 
	BYTE	W48
	BYTE		N23     Ds2 
	BYTE	W24
// 022   ----------------------------------------
	BYTE		        Cn2 
	BYTE	W24
	BYTE		        Gs1 
	BYTE	W24
	BYTE		        Ds2 
	BYTE	W24
	BYTE		        Fn2 
	BYTE	W24
// 023   ----------------------------------------
	BYTE		        Fs2 
	BYTE	W24
	BYTE		TIE     As2 
	BYTE	W72
// 024   ----------------------------------------
	BYTE	W44
	BYTE	W03
	BYTE		EOT   
	BYTE	W48
	BYTE	W01
// 025   ----------------------------------------
	BYTE	W96
// 026   ----------------------------------------
	BYTE	W96
// 027   ----------------------------------------
	BYTE	W96
// 028   ----------------------------------------
	BYTE	W96
// 029   ----------------------------------------
	BYTE	W96
// 030   ----------------------------------------
	BYTE	W96
// 031   ----------------------------------------
	BYTE	W96
// 032   ----------------------------------------
	BYTE	W96
// 033   ----------------------------------------
	BYTE	W96
// 034   ----------------------------------------
	BYTE	W96
// 035   ----------------------------------------
	BYTE	W96
// 036   ----------------------------------------
	BYTE	W96
// 037   ----------------------------------------
	BYTE	W96
// 038   ----------------------------------------
	BYTE		N05     Gn1   v112
	BYTE	W06
	BYTE		        An1 
	BYTE	W06
	BYTE		        As1 
	BYTE	W06
	BYTE		        Fn2 
	BYTE	W06
	BYTE		N44     Cn2 
	BYTE	W48
	BYTE		N23     As1 
	BYTE	W24
// 039   ----------------------------------------
	BYTE		N44     An1 
	BYTE	W48
	BYTE		N23     Gn1 
	BYTE	W24
	BYTE		N92     Fn1 
	BYTE	W24
// 040   ----------------------------------------
	BYTE	W96
// 041   ----------------------------------------
	BYTE		N05     Gn1 
	BYTE	W06
	BYTE		        An1 
	BYTE	W06
	BYTE		        As1 
	BYTE	W06
	BYTE		        Fn2 
	BYTE	W06
	BYTE		N44     Cn2 
	BYTE	W48
	BYTE		N11     Dn2 
	BYTE	W12
	BYTE		        As2 
	BYTE	W12
// 042   ----------------------------------------
	BYTE		N23   
	BYTE	W24
	BYTE		        An2 
	BYTE	W24
	BYTE		        Gn2 
	BYTE	W24
	BYTE		N56     Fn2 
	BYTE	W24
// 043   ----------------------------------------
	BYTE	W36
	BYTE		N05     Ds2 
	BYTE	W06
	BYTE		        Dn2 
	BYTE	W06
	BYTE		N44     Cn2 
	BYTE	W48
// 044   ----------------------------------------
	BYTE	W24
	BYTE		        Ds2 
	BYTE	W48
	BYTE		N23     Fn2 
	BYTE	W24
// 045   ----------------------------------------
	BYTE		N44     Gn2 
	BYTE	W48
	BYTE		N23     An2 
	BYTE	W24
	BYTE		N17     As2 
	BYTE	W18
	BYTE		N05     An2 
	BYTE	W06
// 046   ----------------------------------------
	BYTE		N44     Gn2 
	BYTE	W48
	BYTE		N17     Gs2 
	BYTE	W18
	BYTE		N05     Gn2 
	BYTE	W06
	BYTE		N44     Fn2 
	BYTE	W24
// 047   ----------------------------------------
	BYTE	W24
	BYTE		N23     Ds2 
	BYTE	W24
	BYTE		        Cn2 
	BYTE	W24
	BYTE		        Gs1 
	BYTE	W24
// 048   ----------------------------------------
	BYTE		        Ds2 
	BYTE	W24
	BYTE		        Fn2 
	BYTE	W24
	BYTE		        Fs2 
	BYTE	W24
	BYTE		TIE     As2 
	BYTE	W24
// 049   ----------------------------------------
	BYTE	W96
// 050   ----------------------------------------
	BYTE	W92
	BYTE	W03
	BYTE		EOT   
	BYTE	W01
// 051   ----------------------------------------
	BYTE	W96
// 052   ----------------------------------------
	BYTE	W96
// 053   ----------------------------------------
	BYTE	W96
// 054   ----------------------------------------
	BYTE	W96
// 055   ----------------------------------------
	BYTE	W96
// 056   ----------------------------------------
	BYTE	W96
// 057   ----------------------------------------
	BYTE	W96
// 058   ----------------------------------------
	BYTE	W96
// 059   ----------------------------------------
	BYTE	W96
// 060   ----------------------------------------
	BYTE	W96
// 061   ----------------------------------------
	BYTE	W96
// 062   ----------------------------------------
	BYTE	W96
// 063   ----------------------------------------
	BYTE	W96
// 064   ----------------------------------------
	BYTE	W96
// 065   ----------------------------------------
	BYTE	W24
// 066   ----------------------------------------
	BYTE	W96
// 067   ----------------------------------------
	BYTE	W96
// 068   ----------------------------------------
	BYTE	W96
// 069   ----------------------------------------
	BYTE	W96
// 070   ----------------------------------------
	BYTE	W96
// 071   ----------------------------------------
	BYTE	W96
// 072   ----------------------------------------
	BYTE	W96
// 073   ----------------------------------------
	BYTE	W96
// 074   ----------------------------------------
	BYTE	W96
// 075   ----------------------------------------
	BYTE	W96
// 076   ----------------------------------------
	BYTE	W96
// 077   ----------------------------------------
	BYTE	W96
// 078   ----------------------------------------
	BYTE	W96
// 079   ----------------------------------------
	BYTE	W96
// 080   ----------------------------------------
	BYTE	W96
// 081   ----------------------------------------
	BYTE	W96
// 082   ----------------------------------------
	BYTE	W96
// 083   ----------------------------------------
	BYTE	W96
// 084   ----------------------------------------
	BYTE	W96
// 085   ----------------------------------------
	BYTE	W96
// 086   ----------------------------------------
	BYTE	W96
// 087   ----------------------------------------
	BYTE	W96
// 088   ----------------------------------------
	BYTE	W96
// 089   ----------------------------------------
	BYTE	W96
// 090   ----------------------------------------
	BYTE	W96
// 091   ----------------------------------------
	BYTE	W96
// 092   ----------------------------------------
	BYTE	W96
// 093   ----------------------------------------
	BYTE	W96
// 094   ----------------------------------------
	BYTE	W96
// 095   ----------------------------------------
	BYTE	W96
// 096   ----------------------------------------
	BYTE	W96
// 097   ----------------------------------------
	BYTE	W96
// 098   ----------------------------------------
	BYTE	W96
// 099   ----------------------------------------
	BYTE	W96
// 100   ----------------------------------------
	BYTE	W96
// 101   ----------------------------------------
	BYTE	W96
// 102   ----------------------------------------
	BYTE	W96
// 103   ----------------------------------------
	BYTE	W96
// 104   ----------------------------------------
	BYTE	W96
// 105   ----------------------------------------
	BYTE	W96
// 106   ----------------------------------------
	BYTE		TIE     Bn1 
	BYTE	W72
// 107   ----------------------------------------
	BYTE	W72
// 108   ----------------------------------------
	BYTE	W72
// 109   ----------------------------------------
	BYTE	W32
	BYTE	W03
	BYTE		EOT   
	BYTE	W01
	BYTE		N32   
	BYTE	W36
// 110   ----------------------------------------
	BYTE		TIE   
	BYTE	W72
// 111   ----------------------------------------
	BYTE	W72
// 112   ----------------------------------------
	BYTE	W72
// 113   ----------------------------------------
	BYTE	W68
	BYTE	W03
	BYTE		EOT   
	BYTE	W01
// 114   ----------------------------------------
	BYTE	W72
// 115   ----------------------------------------
	BYTE	W72
	BYTE	GoTo
	 POIN2	IdPurpose_14_B1
IdPurpose_14_B2:
// 116   ----------------------------------------
	BYTE	FINE

//**************** Track 15 (Midi-Chn.16) ****************//

IdPurpose_15:
	BYTE	KEYSH   IdPurpose_key+0
// 000   ----------------------------------------
	BYTE		VOICE   52
	BYTE		PAN     c_v-27
	BYTE		VOL     100*IdPurpose_mvl/mxv
	BYTE	W72
IdPurpose_15_B1:
	BYTE	W24
// 001   ----------------------------------------
	BYTE	W96
// 002   ----------------------------------------
	BYTE	W96
// 003   ----------------------------------------
	BYTE	W96
// 004   ----------------------------------------
	BYTE	W96
// 005   ----------------------------------------
	BYTE	W96
// 006   ----------------------------------------
	BYTE	W96
// 007   ----------------------------------------
	BYTE	W96
// 008   ----------------------------------------
	BYTE	W96
// 009   ----------------------------------------
	BYTE	W96
// 010   ----------------------------------------
	BYTE	W96
// 011   ----------------------------------------
	BYTE	W96
// 012   ----------------------------------------
	BYTE	W96
// 013   ----------------------------------------
	BYTE	W96
// 014   ----------------------------------------
	BYTE	W96
// 015   ----------------------------------------
	BYTE	W96
// 016   ----------------------------------------
	BYTE	W96
// 017   ----------------------------------------
	BYTE	W96
// 018   ----------------------------------------
	BYTE	W96
// 019   ----------------------------------------
	BYTE	W96
// 020   ----------------------------------------
	BYTE	W96
// 021   ----------------------------------------
	BYTE	W96
// 022   ----------------------------------------
	BYTE	W96
// 023   ----------------------------------------
	BYTE	W96
// 024   ----------------------------------------
	BYTE	W96
// 025   ----------------------------------------
	BYTE	W96
// 026   ----------------------------------------
	BYTE	W96
// 027   ----------------------------------------
	BYTE	W96
// 028   ----------------------------------------
	BYTE	W96
// 029   ----------------------------------------
	BYTE	W96
// 030   ----------------------------------------
	BYTE	W96
// 031   ----------------------------------------
	BYTE	W96
// 032   ----------------------------------------
	BYTE	W96
// 033   ----------------------------------------
	BYTE	W96
// 034   ----------------------------------------
	BYTE	W96
// 035   ----------------------------------------
	BYTE	W96
// 036   ----------------------------------------
	BYTE	W96
// 037   ----------------------------------------
	BYTE	W96
// 038   ----------------------------------------
	BYTE	W96
// 039   ----------------------------------------
	BYTE	W96
// 040   ----------------------------------------
	BYTE	W96
// 041   ----------------------------------------
	BYTE	W96
// 042   ----------------------------------------
	BYTE	W96
// 043   ----------------------------------------
	BYTE	W96
// 044   ----------------------------------------
	BYTE	W96
// 045   ----------------------------------------
	BYTE	W96
// 046   ----------------------------------------
	BYTE	W96
// 047   ----------------------------------------
	BYTE	W96
// 048   ----------------------------------------
	BYTE	W96
// 049   ----------------------------------------
	BYTE	W96
// 050   ----------------------------------------
	BYTE	W96
// 051   ----------------------------------------
	BYTE	W96
// 052   ----------------------------------------
	BYTE	W96
// 053   ----------------------------------------
	BYTE	W96
// 054   ----------------------------------------
	BYTE	W96
// 055   ----------------------------------------
	BYTE	W96
// 056   ----------------------------------------
	BYTE	W96
// 057   ----------------------------------------
	BYTE	W96
// 058   ----------------------------------------
	BYTE	W96
// 059   ----------------------------------------
	BYTE	W96
// 060   ----------------------------------------
	BYTE	W96
// 061   ----------------------------------------
	BYTE	W96
// 062   ----------------------------------------
	BYTE	W96
// 063   ----------------------------------------
	BYTE	W96
// 064   ----------------------------------------
	BYTE	W96
// 065   ----------------------------------------
	BYTE	W24
// 066   ----------------------------------------
IdPurpose_15_066:
	BYTE	W24
	BYTE		N23     Dn2   v096
	BYTE	W24
	BYTE		        En2 
	BYTE	W24
	BYTE		        Fs2 
	BYTE	W24
	BYTE	PEND
// 067   ----------------------------------------
IdPurpose_15_067:
	BYTE		N23     Gn2   v096
	BYTE	W24
	BYTE		        Fs2 
	BYTE	W24
	BYTE		        En2 
	BYTE	W24
	BYTE		N44     Bn2 
	BYTE	W24
	BYTE	PEND
// 068   ----------------------------------------
IdPurpose_15_068:
	BYTE	W24
	BYTE		N23     An2   v096
	BYTE	W24
	BYTE		        En2 
	BYTE	W24
	BYTE		        An2 
	BYTE	W24
	BYTE	PEND
// 069   ----------------------------------------
IdPurpose_15_069:
	BYTE		N44     Gn2   v096
	BYTE	W48
	BYTE		        Fs2 
	BYTE	W48
	BYTE	PEND
// 070   ----------------------------------------
IdPurpose_15_070:
	BYTE	W24
	BYTE		N23     Bn1   v096
	BYTE	W24
	BYTE		        En2 
	BYTE	W24
	BYTE		        Fs2 
	BYTE	W24
	BYTE	PEND
// 071   ----------------------------------------
IdPurpose_15_071:
	BYTE		N23     Gn2   v096
	BYTE	W24
	BYTE		        Fs2 
	BYTE	W24
	BYTE		        Gn2 
	BYTE	W24
	BYTE		        En2 
	BYTE	W24
	BYTE	PEND
// 072   ----------------------------------------
IdPurpose_15_072:
	BYTE		N23     Cs2   v096
	BYTE	W24
	BYTE		        Dn2 
	BYTE	W24
	BYTE		        En2 
	BYTE	W24
	BYTE		        Gn2 
	BYTE	W24
	BYTE	PEND
// 073   ----------------------------------------
IdPurpose_15_073:
	BYTE		N23     Fs2   v096
	BYTE	W24
	BYTE		        Cs2 
	BYTE	W24
	BYTE		        Fs2 
	BYTE	W24
	BYTE		        En2 
	BYTE	W24
	BYTE	PEND
// 074   ----------------------------------------
	BYTE	PATT
	 POIN2	IdPurpose_15_066
// 075   ----------------------------------------
	BYTE	PATT
	 POIN2	IdPurpose_15_067
// 076   ----------------------------------------
	BYTE	PATT
	 POIN2	IdPurpose_15_068
// 077   ----------------------------------------
	BYTE	PATT
	 POIN2	IdPurpose_15_069
// 078   ----------------------------------------
	BYTE	PATT
	 POIN2	IdPurpose_15_070
// 079   ----------------------------------------
	BYTE	PATT
	 POIN2	IdPurpose_15_071
// 080   ----------------------------------------
	BYTE	PATT
	 POIN2	IdPurpose_15_072
// 081   ----------------------------------------
	BYTE	PATT
	 POIN2	IdPurpose_15_073
// 082   ----------------------------------------
IdPurpose_15_082:
	BYTE	W24
	BYTE		N23     Dn2   v112
	BYTE	W24
	BYTE		        En2 
	BYTE	W24
	BYTE		        Fs2 
	BYTE	W24
	BYTE	PEND
// 083   ----------------------------------------
IdPurpose_15_083:
	BYTE		N23     Gn2   v112
	BYTE	W24
	BYTE		        Fs2 
	BYTE	W24
	BYTE		        En2 
	BYTE	W24
	BYTE		N44     Bn2 
	BYTE	W24
	BYTE	PEND
// 084   ----------------------------------------
IdPurpose_15_084:
	BYTE	W24
	BYTE		N23     An2   v112
	BYTE	W24
	BYTE		        En2 
	BYTE	W24
	BYTE		        An2 
	BYTE	W24
	BYTE	PEND
// 085   ----------------------------------------
IdPurpose_15_085:
	BYTE		N44     Gn2   v112
	BYTE	W48
	BYTE		        Fs2 
	BYTE	W48
	BYTE	PEND
// 086   ----------------------------------------
IdPurpose_15_086:
	BYTE	W24
	BYTE		N23     Bn1   v112
	BYTE	W24
	BYTE		        En2 
	BYTE	W24
	BYTE		        Fs2 
	BYTE	W24
	BYTE	PEND
// 087   ----------------------------------------
IdPurpose_15_087:
	BYTE		N23     Gn2   v112
	BYTE	W24
	BYTE		        Fs2 
	BYTE	W24
	BYTE		        Gn2 
	BYTE	W24
	BYTE		        En2 
	BYTE	W24
	BYTE	PEND
// 088   ----------------------------------------
IdPurpose_15_088:
	BYTE		N23     Cs2   v112
	BYTE	W24
	BYTE		        Dn2 
	BYTE	W24
	BYTE		        En2 
	BYTE	W24
	BYTE		        Gn2 
	BYTE	W24
	BYTE	PEND
// 089   ----------------------------------------
IdPurpose_15_089:
	BYTE		N23     Fs2   v112
	BYTE	W24
	BYTE		        Cs2 
	BYTE	W24
	BYTE		        Fs2 
	BYTE	W24
	BYTE		        En2 
	BYTE	W24
	BYTE	PEND
// 090   ----------------------------------------
	BYTE	PATT
	 POIN2	IdPurpose_15_082
// 091   ----------------------------------------
	BYTE	PATT
	 POIN2	IdPurpose_15_083
// 092   ----------------------------------------
	BYTE	PATT
	 POIN2	IdPurpose_15_084
// 093   ----------------------------------------
	BYTE	PATT
	 POIN2	IdPurpose_15_085
// 094   ----------------------------------------
	BYTE	PATT
	 POIN2	IdPurpose_15_086
// 095   ----------------------------------------
	BYTE	PATT
	 POIN2	IdPurpose_15_087
// 096   ----------------------------------------
	BYTE	PATT
	 POIN2	IdPurpose_15_088
// 097   ----------------------------------------
	BYTE	PATT
	 POIN2	IdPurpose_15_089
// 098   ----------------------------------------
	BYTE		N44     Dn2   v127
	BYTE	W48
	BYTE		        Fs2 
	BYTE	W48
// 099   ----------------------------------------
	BYTE		        Gn2 
	BYTE	W48
	BYTE		        En2 
	BYTE	W48
// 100   ----------------------------------------
	BYTE		        An2 
	BYTE	W48
	BYTE		N23     Fs2 
	BYTE	W24
	BYTE		        Gn2 
	BYTE	W24
// 101   ----------------------------------------
	BYTE		N44   
	BYTE	W48
	BYTE		        Fs2 
	BYTE	W48
// 102   ----------------------------------------
	BYTE		N92     Bn2 
	BYTE	W96
// 103   ----------------------------------------
	BYTE		N44     Gn2 
	BYTE	W48
	BYTE		        Bn2 
	BYTE	W48
// 104   ----------------------------------------
	BYTE		N92     As2 
	BYTE	W96
// 105   ----------------------------------------
	BYTE		N44     Fs2 
	BYTE	W48
	BYTE		        Cs2 
	BYTE	W48
// 106   ----------------------------------------
	BYTE	W72
// 107   ----------------------------------------
	BYTE	W72
// 108   ----------------------------------------
	BYTE	W72
// 109   ----------------------------------------
	BYTE	W72
// 110   ----------------------------------------
	BYTE	W72
// 111   ----------------------------------------
	BYTE	W72
// 112   ----------------------------------------
	BYTE	W72
// 113   ----------------------------------------
	BYTE	W72
// 114   ----------------------------------------
	BYTE	W72
// 115   ----------------------------------------
	BYTE	W72
	BYTE	GoTo
	 POIN2	IdPurpose_15_B1
IdPurpose_15_B2:
// 116   ----------------------------------------
	BYTE	FINE

//******************************************************//
	ALIGN 4

IdPurpose:
	BYTE	15	// NumTrks
	BYTE	0	// NumBlks
	BYTE	IdPurpose_pri	// Priority
	BYTE	IdPurpose_rev	// Reverb.

	POIN2	IdPurpose_grp

	POIN2	IdPurpose_1
	POIN2	IdPurpose_2
	POIN2	IdPurpose_3
	POIN2	IdPurpose_4
	POIN2	IdPurpose_5
	POIN2	IdPurpose_6
	POIN2	IdPurpose_7
	POIN2	IdPurpose_8
	POIN2	IdPurpose_9
	POIN2	IdPurpose_10
	POIN2	IdPurpose_11
	POIN2	IdPurpose_12
	POIN2	IdPurpose_13
	POIN2	IdPurpose_14
	POIN2	IdPurpose_15

	
