//Event file generated from Sappy .s format.
	#include "MPlayDef.event"

	#define	never_gonna_grp  voicegroup000
	#define	never_gonna_pri  0
	#define	never_gonna_rev  0
	#define	never_gonna_mvl  80
	#define	never_gonna_key  0
	#define	never_gonna_tbs  1
	#define	never_gonna_exg  0
	#define	never_gonna_cmp  1

	// .rodata
	//	never_gonna
	ALIGN 4

//**************** Track 1 (Midi-Chn.2) ****************//

never_gonna_1:
	BYTE	KEYSH   never_gonna_key+0
// 000   ----------------------------------------
	BYTE	TEMPO   200*never_gonna_tbs/2
	BYTE	W20
	BYTE	W05
	BYTE		VOICE   118
	BYTE	W01
	BYTE		VOL     100*never_gonna_mvl/mxv
	BYTE		PAN     c_v+0
	BYTE	W23
	BYTE	W01
	BYTE	W44
	BYTE	W02
// 001   ----------------------------------------
	BYTE	TEMPO   118*never_gonna_tbs/2
	BYTE	W96
// 002   ----------------------------------------
	BYTE	W23
	BYTE		BEND    c_v+23
	BYTE	W12
	BYTE		        c_v+7
	BYTE	W01
	BYTE		N01     Bn3   v112
	BYTE	W06
	BYTE		        As3   v108
	BYTE	W05
	BYTE		BEND    c_v+0
	BYTE	W07
	BYTE		N01     An3   v112
	BYTE	W06
	BYTE		        Gs3   v108
	BYTE	W06
	BYTE		        Gn3 
	BYTE	W05
	BYTE		BEND    c_v-13
	BYTE	W01
	BYTE		N01     Fs3 
	BYTE	W06
	BYTE		        Fn3   v112
	BYTE	W05
	BYTE		BEND    c_v-22
	BYTE	W01
	BYTE		N01     En3   v108
	BYTE	W06
	BYTE		        Ds3 
	BYTE	W06
// 003   ----------------------------------------
	BYTE	W96
never_gonna_1_B1:
// 004   ----------------------------------------
	BYTE	W96
// 005   ----------------------------------------
	BYTE	W96
// 006   ----------------------------------------
	BYTE	W96
// 007   ----------------------------------------
	BYTE	W96
// 008   ----------------------------------------
	BYTE	W96
// 009   ----------------------------------------
	BYTE	W96
// 010   ----------------------------------------
	BYTE	W96
// 011   ----------------------------------------
	BYTE	W96
// 012   ----------------------------------------
	BYTE	W96
// 013   ----------------------------------------
	BYTE	W96
// 014   ----------------------------------------
	BYTE	W96
// 015   ----------------------------------------
	BYTE	W96
// 016   ----------------------------------------
	BYTE	W96
// 017   ----------------------------------------
	BYTE	W96
// 018   ----------------------------------------
	BYTE	W96
// 019   ----------------------------------------
	BYTE	W96
// 020   ----------------------------------------
	BYTE	W96
// 021   ----------------------------------------
	BYTE	W96
// 022   ----------------------------------------
	BYTE	W96
// 023   ----------------------------------------
	BYTE	W96
// 024   ----------------------------------------
	BYTE	W96
// 025   ----------------------------------------
	BYTE	W96
// 026   ----------------------------------------
	BYTE	W96
// 027   ----------------------------------------
	BYTE	W96
// 028   ----------------------------------------
	BYTE	W96
// 029   ----------------------------------------
	BYTE	W96
// 030   ----------------------------------------
	BYTE	W96
// 031   ----------------------------------------
	BYTE	W96
// 032   ----------------------------------------
	BYTE	W96
// 033   ----------------------------------------
	BYTE	W96
// 034   ----------------------------------------
	BYTE	W96
// 035   ----------------------------------------
	BYTE	W96
// 036   ----------------------------------------
	BYTE	W96
// 037   ----------------------------------------
	BYTE	W96
// 038   ----------------------------------------
	BYTE	W96
// 039   ----------------------------------------
	BYTE	W96
// 040   ----------------------------------------
	BYTE	W96
// 041   ----------------------------------------
	BYTE	W96
// 042   ----------------------------------------
	BYTE	W96
// 043   ----------------------------------------
	BYTE	W96
// 044   ----------------------------------------
	BYTE	W96
// 045   ----------------------------------------
	BYTE	W96
// 046   ----------------------------------------
	BYTE	W96
// 047   ----------------------------------------
	BYTE	W96
// 048   ----------------------------------------
	BYTE	W96
// 049   ----------------------------------------
	BYTE	W96
// 050   ----------------------------------------
	BYTE	W96
// 051   ----------------------------------------
	BYTE	W96
// 052   ----------------------------------------
	BYTE	W96
// 053   ----------------------------------------
	BYTE	W96
// 054   ----------------------------------------
	BYTE	W96
// 055   ----------------------------------------
	BYTE	W96
// 056   ----------------------------------------
	BYTE	W96
// 057   ----------------------------------------
	BYTE	W96
// 058   ----------------------------------------
	BYTE	W96
// 059   ----------------------------------------
	BYTE	W96
// 060   ----------------------------------------
	BYTE	W96
// 061   ----------------------------------------
	BYTE	W96
// 062   ----------------------------------------
	BYTE	W96
// 063   ----------------------------------------
	BYTE	W96
// 064   ----------------------------------------
	BYTE	W96
// 065   ----------------------------------------
	BYTE	W96
// 066   ----------------------------------------
	BYTE	W96
// 067   ----------------------------------------
	BYTE	W96
// 068   ----------------------------------------
	BYTE	W96
// 069   ----------------------------------------
	BYTE	W96
// 070   ----------------------------------------
	BYTE	W96
// 071   ----------------------------------------
	BYTE	W96
// 072   ----------------------------------------
	BYTE	W96
// 073   ----------------------------------------
	BYTE	W96
// 074   ----------------------------------------
	BYTE	W96
// 075   ----------------------------------------
	BYTE	W96
// 076   ----------------------------------------
	BYTE	W96
// 077   ----------------------------------------
	BYTE	W96
// 078   ----------------------------------------
	BYTE	W96
// 079   ----------------------------------------
	BYTE	W96
// 080   ----------------------------------------
	BYTE	W96
// 081   ----------------------------------------
	BYTE	W96
// 082   ----------------------------------------
	BYTE	W96
// 083   ----------------------------------------
	BYTE	W96
// 084   ----------------------------------------
	BYTE	W96
// 085   ----------------------------------------
	BYTE	W96
// 086   ----------------------------------------
	BYTE	W96
// 087   ----------------------------------------
	BYTE	W96
// 088   ----------------------------------------
	BYTE	W96
// 089   ----------------------------------------
	BYTE	W96
// 090   ----------------------------------------
	BYTE	W96
// 091   ----------------------------------------
	BYTE	W96
// 092   ----------------------------------------
	BYTE	W96
// 093   ----------------------------------------
	BYTE	W96
// 094   ----------------------------------------
	BYTE	W96
// 095   ----------------------------------------
	BYTE	W96
// 096   ----------------------------------------
	BYTE	W96
// 097   ----------------------------------------
	BYTE	W96
// 098   ----------------------------------------
	BYTE	W96
// 099   ----------------------------------------
	BYTE	W96
// 100   ----------------------------------------
	BYTE	W96
// 101   ----------------------------------------
	BYTE	W96
// 102   ----------------------------------------
	BYTE	W96
// 103   ----------------------------------------
	BYTE	TEMPO   114*never_gonna_tbs/2
	BYTE	W24
	BYTE	TEMPO   109*never_gonna_tbs/2
	BYTE	W12
	BYTE	GoTo
	 POIN2	never_gonna_1_B1
never_gonna_1_B2:
	BYTE	W12
	BYTE	TEMPO   106*never_gonna_tbs/2
	BYTE	W24
	BYTE	TEMPO   104*never_gonna_tbs/2
	BYTE	W24
// 104   ----------------------------------------
	BYTE	TEMPO   90*never_gonna_tbs/2
	BYTE	W96
// 105   ----------------------------------------
	BYTE	W28
	BYTE	FINE

//**************** Track 2 (Midi-Chn.3) ****************//

never_gonna_2:
	BYTE	KEYSH   never_gonna_key+0
// 000   ----------------------------------------
	BYTE	W20
	BYTE	W06
	BYTE	W01
	BYTE		VOICE   39
	BYTE		VOL     100*never_gonna_mvl/mxv
	BYTE		PAN     c_v+0
	BYTE	W23
	BYTE	W01
	BYTE	W44
	BYTE	W01
// 001   ----------------------------------------
	BYTE	W96
// 002   ----------------------------------------
	BYTE	W96
// 003   ----------------------------------------
	BYTE		N05     Ds1   v108
	BYTE	W12
	BYTE		N05   
	BYTE	W06
	BYTE		N05   
	BYTE	W12
	BYTE		        Cn2 
	BYTE	W06
	BYTE		        As1   v112
	BYTE	W12
	BYTE		        Gs1 
	BYTE	W12
	BYTE		N05   
	BYTE	W24
	BYTE		        Fn1 
	BYTE	W06
	BYTE		        Gs1   v108
	BYTE	W06
never_gonna_2_B1:
// 004   ----------------------------------------
never_gonna_2_004:
	BYTE		N05     Fn1   v108
	BYTE	W12
	BYTE		N05   
	BYTE	W06
	BYTE		        Fn1   v112
	BYTE	W12
	BYTE		        Cn2   v108
	BYTE	W06
	BYTE		        As1   v112
	BYTE	W24
	BYTE		        As1   v108
	BYTE	W06
	BYTE		N05   
	BYTE	W06
	BYTE		N05   
	BYTE	W06
	BYTE		        Cn2   v112
	BYTE	W12
	BYTE		        As1   v108
	BYTE	W06
	BYTE	PEND
// 005   ----------------------------------------
	BYTE		        Ds1 
	BYTE	W12
	BYTE		        Ds1   v112
	BYTE	W06
	BYTE		N05   
	BYTE	W12
	BYTE		        Cn2 
	BYTE	W06
	BYTE		        As1 
	BYTE	W12
	BYTE		        Gs1   v108
	BYTE	W12
	BYTE		        Gs1   v112
	BYTE	W24
	BYTE		N05   
	BYTE	W06
	BYTE		N05   
	BYTE	W06
// 006   ----------------------------------------
	BYTE		        Fn1 
	BYTE	W12
	BYTE		        Fn1   v108
	BYTE	W06
	BYTE		        Fn1   v112
	BYTE	W12
	BYTE		        Cn2 
	BYTE	W06
	BYTE		        As1 
	BYTE	W24
	BYTE		        Gs1 
	BYTE	W12
	BYTE		        Gs1   v108
	BYTE	W06
	BYTE		N05   
	BYTE	W12
	BYTE		        Cs2   v112
	BYTE	W06
// 007   ----------------------------------------
	BYTE		        Ds1   v108
	BYTE	W12
	BYTE		N05   
	BYTE	W06
	BYTE		        Ds1   v112
	BYTE	W12
	BYTE		        Cn2 
	BYTE	W06
	BYTE		        As1 
	BYTE	W12
	BYTE		        Gs1   v108
	BYTE	W12
	BYTE		N05   
	BYTE	W24
	BYTE		        Fn1   v112
	BYTE	W06
	BYTE		        Gs1 
	BYTE	W06
// 008   ----------------------------------------
	BYTE		        Fn1 
	BYTE	W12
	BYTE		N05   
	BYTE	W06
	BYTE		N05   
	BYTE	W12
	BYTE		        Cn2   v108
	BYTE	W06
	BYTE		        As1   v112
	BYTE	W24
	BYTE		        As1   v108
	BYTE	W06
	BYTE		N05   
	BYTE	W06
	BYTE		N05   
	BYTE	W06
	BYTE		        Cn2 
	BYTE	W12
	BYTE		        As1   v112
	BYTE	W06
// 009   ----------------------------------------
	BYTE		        Ds1 
	BYTE	W12
	BYTE		N05   
	BYTE	W06
	BYTE		N05   
	BYTE	W12
	BYTE		        Cn2   v108
	BYTE	W06
	BYTE		        As1 
	BYTE	W12
	BYTE		        Gs1 
	BYTE	W12
	BYTE		        Gs1   v112
	BYTE	W24
	BYTE		        Gs1   v108
	BYTE	W06
	BYTE		        Gs1   v112
	BYTE	W06
// 010   ----------------------------------------
	BYTE		        Fn1 
	BYTE	W12
	BYTE		        Fn1   v108
	BYTE	W06
	BYTE		        Fn1   v112
	BYTE	W12
	BYTE		        Cn2   v108
	BYTE	W06
	BYTE		        As1 
	BYTE	W24
	BYTE		        Gs1 
	BYTE	W12
	BYTE		        Gs1   v112
	BYTE	W06
	BYTE		        Gs1   v108
	BYTE	W12
	BYTE		        Cs2   v112
	BYTE	W06
// 011   ----------------------------------------
	BYTE		        As1 
	BYTE	W12
	BYTE		        As1   v108
	BYTE	W06
	BYTE		N05   
	BYTE	W12
	BYTE		        Cs2 
	BYTE	W06
	BYTE		        Cn2 
	BYTE	W12
	BYTE		N12     Gs1   v112
	BYTE	W12
	BYTE		N05     As1 
	BYTE	W24
	BYTE		        Fn1   v108
	BYTE	W06
	BYTE		        Gs1 
	BYTE	W06
// 012   ----------------------------------------
	BYTE		        As1 
	BYTE	W12
	BYTE		        Gs1   v112
	BYTE	W06
	BYTE		        As1   v108
	BYTE	W12
	BYTE		        Cs2 
	BYTE	W06
	BYTE		        Cn2   v112
	BYTE	W48
	BYTE		        Fn1   v108
	BYTE	W06
	BYTE		        Gs1   v112
	BYTE	W06
// 013   ----------------------------------------
	BYTE		        As1 
	BYTE	W12
	BYTE		N05   
	BYTE	W06
	BYTE		N05   
	BYTE	W12
	BYTE		        Cs2   v108
	BYTE	W06
	BYTE		        Cn2 
	BYTE	W12
	BYTE		N12     Gs1   v112
	BYTE	W12
	BYTE		N05     As1   v108
	BYTE	W24
	BYTE		N05   
	BYTE	W06
	BYTE		        As1   v112
	BYTE	W06
// 014   ----------------------------------------
	BYTE		        Ds1 
	BYTE	W12
	BYTE		        Ds1   v108
	BYTE	W06
	BYTE		N05   
	BYTE	W12
	BYTE		        Ds1   v112
	BYTE	W06
	BYTE		        Gs1 
	BYTE	W24
	BYTE		        Gs1   v108
	BYTE	W06
	BYTE		N05   
	BYTE	W06
	BYTE		        Gs1   v112
	BYTE	W12
	BYTE		        Fn1   v108
	BYTE	W06
	BYTE		        Gs1   v112
	BYTE	W06
// 015   ----------------------------------------
	BYTE		        As1 
	BYTE	W12
	BYTE		N05   
	BYTE	W06
	BYTE		        As1   v108
	BYTE	W12
	BYTE		        Cs2   v112
	BYTE	W06
	BYTE		        Cn2 
	BYTE	W12
	BYTE		N12     Gs1   v108
	BYTE	W12
	BYTE		N05     As1   v112
	BYTE	W24
	BYTE		        Fn1 
	BYTE	W06
	BYTE		        Gs1   v108
	BYTE	W06
// 016   ----------------------------------------
	BYTE		        As1 
	BYTE	W12
	BYTE		        Gs1 
	BYTE	W06
	BYTE		        As1   v112
	BYTE	W12
	BYTE		        Cs2 
	BYTE	W06
	BYTE		        Cn2 
	BYTE	W48
	BYTE		        Fn1   v108
	BYTE	W06
	BYTE		        Gs1   v112
	BYTE	W06
// 017   ----------------------------------------
	BYTE		        As1 
	BYTE	W12
	BYTE		        As1   v108
	BYTE	W06
	BYTE		        As1   v112
	BYTE	W12
	BYTE		        Cs2   v108
	BYTE	W06
	BYTE		        Cn2   v112
	BYTE	W12
	BYTE		N12     Gs1   v108
	BYTE	W12
	BYTE		N05     As1   v112
	BYTE	W24
	BYTE		N05   
	BYTE	W06
	BYTE		N05   
	BYTE	W06
// 018   ----------------------------------------
	BYTE		        Ds1 
	BYTE	W12
	BYTE		        Ds1   v108
	BYTE	W06
	BYTE		        Ds1   v112
	BYTE	W12
	BYTE		        Ds1   v108
	BYTE	W06
	BYTE		        Gs1 
	BYTE	W24
	BYTE		N05   
	BYTE	W06
	BYTE		N05   
	BYTE	W06
	BYTE		N05   
	BYTE	W12
	BYTE		        Fn1 
	BYTE	W06
	BYTE		        Gs1   v112
	BYTE	W06
// 019   ----------------------------------------
	BYTE		        As1 
	BYTE	W12
	BYTE		N05   
	BYTE	W06
	BYTE		N05   
	BYTE	W12
	BYTE		        Cs2   v108
	BYTE	W06
	BYTE		        Cn2 
	BYTE	W12
	BYTE		N12     Gs1   v112
	BYTE	W12
	BYTE		N05     As1 
	BYTE	W24
	BYTE		        Fn1   v108
	BYTE	W06
	BYTE		        Gs1   v112
	BYTE	W06
// 020   ----------------------------------------
	BYTE		        As1 
	BYTE	W12
	BYTE		        Gs1   v108
	BYTE	W06
	BYTE		        As1 
	BYTE	W12
	BYTE		        Cs2   v112
	BYTE	W06
	BYTE		        Cn2 
	BYTE	W48
	BYTE		        Fn1 
	BYTE	W06
	BYTE		        Gs1 
	BYTE	W06
// 021   ----------------------------------------
	BYTE		        As1 
	BYTE	W12
	BYTE		N05   
	BYTE	W06
	BYTE		N05   
	BYTE	W12
	BYTE		        Cs2   v108
	BYTE	W06
	BYTE		        Cn2 
	BYTE	W12
	BYTE		        Gs1   v112
	BYTE	W12
	BYTE		        As1   v108
	BYTE	W24
	BYTE		        Fn1   v112
	BYTE	W06
	BYTE		        Gs1   v108
	BYTE	W06
// 022   ----------------------------------------
	BYTE		        As1 
	BYTE	W12
	BYTE		        Gs1   v112
	BYTE	W06
	BYTE		        As1   v108
	BYTE	W12
	BYTE		        Cs2 
	BYTE	W06
	BYTE		        Cn2 
	BYTE	W48
	BYTE		        Fn1   v112
	BYTE	W06
	BYTE		        Gs1 
	BYTE	W06
// 023   ----------------------------------------
	BYTE		        Ds1   v108
	BYTE	W12
	BYTE		N05   
	BYTE	W06
	BYTE		        Ds1   v112
	BYTE	W12
	BYTE		        Cn2 
	BYTE	W06
	BYTE		        As1 
	BYTE	W12
	BYTE		        Gs1   v108
	BYTE	W12
	BYTE		N05   
	BYTE	W24
	BYTE		        Fn1 
	BYTE	W06
	BYTE		        Gs1   v112
	BYTE	W06
// 024   ----------------------------------------
	BYTE		        Fn1 
	BYTE	W12
	BYTE		N05   
	BYTE	W06
	BYTE		N05   
	BYTE	W12
	BYTE		        Cn2   v108
	BYTE	W06
	BYTE		        As1 
	BYTE	W24
	BYTE		N05   
	BYTE	W06
	BYTE		N05   
	BYTE	W06
	BYTE		N05   
	BYTE	W06
	BYTE		        Cn2 
	BYTE	W12
	BYTE		        As1 
	BYTE	W06
// 025   ----------------------------------------
	BYTE		        Ds1   v112
	BYTE	W12
	BYTE		N05   
	BYTE	W06
	BYTE		N05   
	BYTE	W12
	BYTE		        Cn2   v108
	BYTE	W06
	BYTE		        As1 
	BYTE	W12
	BYTE		        Gs1 
	BYTE	W12
	BYTE		N05   
	BYTE	W24
	BYTE		        Gs1   v112
	BYTE	W06
	BYTE		        Gs1   v108
	BYTE	W06
// 026   ----------------------------------------
	BYTE		        Fn1   v112
	BYTE	W12
	BYTE		        Fn1   v108
	BYTE	W06
	BYTE		        Fn1   v112
	BYTE	W12
	BYTE		        Cn2 
	BYTE	W06
	BYTE		        As1   v108
	BYTE	W24
	BYTE		        Gs1 
	BYTE	W12
	BYTE		        Gs1   v112
	BYTE	W06
	BYTE		N05   
	BYTE	W12
	BYTE		        Cs2 
	BYTE	W06
// 027   ----------------------------------------
	BYTE		        Ds1 
	BYTE	W12
	BYTE		        Ds1   v108
	BYTE	W06
	BYTE		        Ds1   v112
	BYTE	W12
	BYTE		        Cn2   v108
	BYTE	W06
	BYTE		        As1   v112
	BYTE	W12
	BYTE		        Gs1 
	BYTE	W12
	BYTE		        Gs1   v108
	BYTE	W24
	BYTE		        Fn1 
	BYTE	W06
	BYTE		        Gs1   v112
	BYTE	W06
// 028   ----------------------------------------
	BYTE		        Fn1   v108
	BYTE	W12
	BYTE		N05   
	BYTE	W06
	BYTE		        Fn1   v112
	BYTE	W12
	BYTE		        Cn2 
	BYTE	W06
	BYTE		        As1 
	BYTE	W24
	BYTE		N05   
	BYTE	W06
	BYTE		N05   
	BYTE	W06
	BYTE		N05   
	BYTE	W06
	BYTE		        Cn2   v108
	BYTE	W12
	BYTE		        As1   v112
	BYTE	W06
// 029   ----------------------------------------
	BYTE		        Ds1 
	BYTE	W12
	BYTE		        Ds1   v108
	BYTE	W06
	BYTE		        Ds1   v112
	BYTE	W12
	BYTE		        Cn2 
	BYTE	W06
	BYTE		        As1   v108
	BYTE	W12
	BYTE		        Gs1   v112
	BYTE	W12
	BYTE		        Gs1   v108
	BYTE	W24
	BYTE		        Gs1   v112
	BYTE	W06
	BYTE		N05   
	BYTE	W06
// 030   ----------------------------------------
	BYTE		        Fn1   v108
	BYTE	W12
	BYTE		        Fn1   v112
	BYTE	W06
	BYTE		N05   
	BYTE	W12
	BYTE		        Cn2 
	BYTE	W06
	BYTE		        As1   v108
	BYTE	W24
	BYTE		        Gs1 
	BYTE	W12
	BYTE		N05   
	BYTE	W06
	BYTE		N05   
	BYTE	W12
	BYTE		        Cs2 
	BYTE	W06
// 031   ----------------------------------------
	BYTE		        As1 
	BYTE	W12
	BYTE		N05   
	BYTE	W06
	BYTE		        As1   v112
	BYTE	W12
	BYTE		        Cs2   v108
	BYTE	W06
	BYTE		        Cn2   v112
	BYTE	W12
	BYTE		N12     Gs1   v108
	BYTE	W12
	BYTE		N05     As1 
	BYTE	W24
	BYTE		        Fn1   v112
	BYTE	W06
	BYTE		        Gs1 
	BYTE	W06
// 032   ----------------------------------------
	BYTE		        As1 
	BYTE	W12
	BYTE		        Gs1 
	BYTE	W06
	BYTE		        As1   v108
	BYTE	W12
	BYTE		        Cs2   v112
	BYTE	W06
	BYTE		        Cn2   v108
	BYTE	W48
	BYTE		        Fn1 
	BYTE	W06
	BYTE		        Gs1 
	BYTE	W06
// 033   ----------------------------------------
	BYTE		        As1 
	BYTE	W12
	BYTE		N05   
	BYTE	W06
	BYTE		N05   
	BYTE	W12
	BYTE		        Cs2   v112
	BYTE	W06
	BYTE		        Cn2 
	BYTE	W12
	BYTE		N12     Gs1 
	BYTE	W12
	BYTE		N05     As1 
	BYTE	W24
	BYTE		N05   
	BYTE	W06
	BYTE		N05   
	BYTE	W06
// 034   ----------------------------------------
	BYTE		        Ds1   v108
	BYTE	W12
	BYTE		N05   
	BYTE	W06
	BYTE		N05   
	BYTE	W12
	BYTE		N05   
	BYTE	W06
	BYTE		        Gs1   v112
	BYTE	W24
	BYTE		N05   
	BYTE	W06
	BYTE		        Gs1   v108
	BYTE	W06
	BYTE		N05   
	BYTE	W12
	BYTE		        Fn1   v112
	BYTE	W06
	BYTE		        Gs1   v108
	BYTE	W06
// 035   ----------------------------------------
	BYTE		        As1   v112
	BYTE	W12
	BYTE		N05   
	BYTE	W06
	BYTE		        As1   v108
	BYTE	W12
	BYTE		        Cs2   v112
	BYTE	W06
	BYTE		        Cn2   v108
	BYTE	W12
	BYTE		N12     Gs1   v112
	BYTE	W12
	BYTE		N05     As1   v108
	BYTE	W24
	BYTE		        Fn1   v112
	BYTE	W06
	BYTE		        Gs1   v108
	BYTE	W06
// 036   ----------------------------------------
	BYTE		        As1   v112
	BYTE	W12
	BYTE		        Gs1 
	BYTE	W06
	BYTE		        As1   v108
	BYTE	W12
	BYTE		        Cs2 
	BYTE	W06
	BYTE		        Cn2 
	BYTE	W48
	BYTE		        Fn1   v112
	BYTE	W06
	BYTE		        Gs1   v108
	BYTE	W06
// 037   ----------------------------------------
	BYTE		        As1   v112
	BYTE	W12
	BYTE		N05   
	BYTE	W06
	BYTE		        As1   v108
	BYTE	W12
	BYTE		        Cs2 
	BYTE	W06
	BYTE		        Cn2   v112
	BYTE	W12
	BYTE		N12     Gs1 
	BYTE	W12
	BYTE		N05     As1   v108
	BYTE	W24
	BYTE		        As1   v112
	BYTE	W06
	BYTE		        As1   v108
	BYTE	W06
// 038   ----------------------------------------
	BYTE		        Ds1   v112
	BYTE	W12
	BYTE		        Ds1   v108
	BYTE	W06
	BYTE		        Ds1   v112
	BYTE	W12
	BYTE		        Ds1   v108
	BYTE	W06
	BYTE		        Gs1   v112
	BYTE	W24
	BYTE		N05   
	BYTE	W06
	BYTE		N05   
	BYTE	W06
	BYTE		        Gs1   v108
	BYTE	W12
	BYTE		        Fn1   v112
	BYTE	W06
	BYTE		        Gs1 
	BYTE	W06
// 039   ----------------------------------------
	BYTE		        As1 
	BYTE	W12
	BYTE		        As1   v108
	BYTE	W06
	BYTE		N05   
	BYTE	W12
	BYTE		        Cs2 
	BYTE	W06
	BYTE		        Cn2 
	BYTE	W12
	BYTE		N12     Gs1   v112
	BYTE	W12
	BYTE		N05     As1 
	BYTE	W24
	BYTE		        Fn1 
	BYTE	W06
	BYTE		        Gs1 
	BYTE	W06
// 040   ----------------------------------------
	BYTE		        As1 
	BYTE	W12
	BYTE		        Gs1 
	BYTE	W06
	BYTE		        As1 
	BYTE	W12
	BYTE		        Cs2 
	BYTE	W06
	BYTE		        Cn2 
	BYTE	W48
	BYTE		        Fn1 
	BYTE	W06
	BYTE		        Gs1   v108
	BYTE	W06
// 041   ----------------------------------------
	BYTE		        As1 
	BYTE	W12
	BYTE		N05   
	BYTE	W06
	BYTE		N05   
	BYTE	W12
	BYTE		        Cs2 
	BYTE	W06
	BYTE		        Cn2   v112
	BYTE	W12
	BYTE		        Gs1 
	BYTE	W12
	BYTE		        As1   v108
	BYTE	W24
	BYTE		        Fn1   v112
	BYTE	W06
	BYTE		        Gs1 
	BYTE	W06
// 042   ----------------------------------------
	BYTE		        As1 
	BYTE	W12
	BYTE		        Gs1 
	BYTE	W06
	BYTE		        As1   v108
	BYTE	W12
	BYTE		        Cs2   v112
	BYTE	W06
	BYTE		        Cn2 
	BYTE	W48
	BYTE		        Fn1 
	BYTE	W06
	BYTE		        Gs1   v108
	BYTE	W06
// 043   ----------------------------------------
	BYTE		        Ds1   v112
	BYTE	W12
	BYTE		N05   
	BYTE	W06
	BYTE		        Ds1   v108
	BYTE	W12
	BYTE		        Cn2   v112
	BYTE	W06
	BYTE		        As1 
	BYTE	W12
	BYTE		        Gs1 
	BYTE	W12
	BYTE		        Gs1   v108
	BYTE	W24
	BYTE		        Fn1   v112
	BYTE	W06
	BYTE		        Gs1 
	BYTE	W06
// 044   ----------------------------------------
	BYTE		        Fn1 
	BYTE	W12
	BYTE		        Fn1   v108
	BYTE	W06
	BYTE		N05   
	BYTE	W12
	BYTE		        Cn2 
	BYTE	W06
	BYTE		        As1 
	BYTE	W24
	BYTE		        As1   v112
	BYTE	W06
	BYTE		        As1   v108
	BYTE	W06
	BYTE		        As1   v112
	BYTE	W06
	BYTE		        Cn2   v108
	BYTE	W12
	BYTE		        As1   v112
	BYTE	W06
// 045   ----------------------------------------
	BYTE		        Ds1 
	BYTE	W12
	BYTE		        Ds1   v108
	BYTE	W06
	BYTE		N05   
	BYTE	W12
	BYTE		        Cn2 
	BYTE	W06
	BYTE		        As1 
	BYTE	W12
	BYTE		        Gs1   v112
	BYTE	W12
	BYTE		        Gs1   v108
	BYTE	W24
	BYTE		        Gs1   v112
	BYTE	W06
	BYTE		N05   
	BYTE	W06
// 046   ----------------------------------------
	BYTE		        Fn1 
	BYTE	W12
	BYTE		        Fn1   v108
	BYTE	W06
	BYTE		        Fn1   v112
	BYTE	W12
	BYTE		        Cn2 
	BYTE	W06
	BYTE		        As1 
	BYTE	W24
	BYTE		        Gs1   v108
	BYTE	W12
	BYTE		N05   
	BYTE	W06
	BYTE		        Gs1   v112
	BYTE	W12
	BYTE		        Cs2   v108
	BYTE	W06
// 047   ----------------------------------------
	BYTE		        Ds1 
	BYTE	W12
	BYTE		N05   
	BYTE	W06
	BYTE		        Ds1   v112
	BYTE	W12
	BYTE		        Cn2 
	BYTE	W06
	BYTE		        As1   v108
	BYTE	W12
	BYTE		        Gs1 
	BYTE	W12
	BYTE		        Gs1   v112
	BYTE	W24
	BYTE		        Fn1   v108
	BYTE	W06
	BYTE		        Gs1 
	BYTE	W06
// 048   ----------------------------------------
	BYTE	PATT
	 POIN2	never_gonna_2_004
// 049   ----------------------------------------
	BYTE		N05     Ds1   v112
	BYTE	W12
	BYTE		        Ds1   v108
	BYTE	W06
	BYTE		N05   
	BYTE	W12
	BYTE		        Cn2 
	BYTE	W06
	BYTE		        As1 
	BYTE	W12
	BYTE		        Gs1 
	BYTE	W12
	BYTE		        Gs1   v112
	BYTE	W24
	BYTE		N05   
	BYTE	W06
	BYTE		        Gs1   v108
	BYTE	W06
// 050   ----------------------------------------
	BYTE		        Fn1   v112
	BYTE	W12
	BYTE		        Fn1   v108
	BYTE	W06
	BYTE		        Fn1   v112
	BYTE	W12
	BYTE		        Cn2   v108
	BYTE	W06
	BYTE		        As1   v112
	BYTE	W24
	BYTE		        Gs1 
	BYTE	W12
	BYTE		        Gs1   v108
	BYTE	W06
	BYTE		N05   
	BYTE	W12
	BYTE		        Cs2 
	BYTE	W06
// 051   ----------------------------------------
	BYTE		        Ds1   v112
	BYTE	W12
	BYTE		        Ds1   v108
	BYTE	W06
	BYTE		        Ds1   v112
	BYTE	W12
	BYTE		        Cn2 
	BYTE	W06
	BYTE		        As1 
	BYTE	W12
	BYTE		        Gs1   v108
	BYTE	W12
	BYTE		N05   
	BYTE	W24
	BYTE		        Fn1   v112
	BYTE	W06
	BYTE		        Gs1 
	BYTE	W06
// 052   ----------------------------------------
	BYTE		        Fn1 
	BYTE	W12
	BYTE		        Fn1   v108
	BYTE	W06
	BYTE		        Fn1   v112
	BYTE	W12
	BYTE		        Cn2 
	BYTE	W06
	BYTE		        As1 
	BYTE	W24
	BYTE		N05   
	BYTE	W06
	BYTE		        As1   v108
	BYTE	W06
	BYTE		        As1   v112
	BYTE	W06
	BYTE		        Cn2   v108
	BYTE	W12
	BYTE		        As1 
	BYTE	W06
// 053   ----------------------------------------
	BYTE		        Ds1 
	BYTE	W12
	BYTE		N05   
	BYTE	W06
	BYTE		N05   
	BYTE	W12
	BYTE		        Cn2 
	BYTE	W06
	BYTE		        As1   v112
	BYTE	W12
	BYTE		        Gs1 
	BYTE	W12
	BYTE		N05   
	BYTE	W24
	BYTE		        Gs1   v108
	BYTE	W06
	BYTE		N05   
	BYTE	W06
// 054   ----------------------------------------
	BYTE		        Fn1   v112
	BYTE	W12
	BYTE		        Fn1   v108
	BYTE	W06
	BYTE		N05   
	BYTE	W12
	BYTE		        Cn2 
	BYTE	W06
	BYTE		        As1   v112
	BYTE	W24
	BYTE		        Gs1 
	BYTE	W12
	BYTE		        Gs1   v108
	BYTE	W06
	BYTE		        Gs1   v112
	BYTE	W12
	BYTE		        Cs2   v108
	BYTE	W06
// 055   ----------------------------------------
	BYTE		        Ds1 
	BYTE	W12
	BYTE		        Ds1   v112
	BYTE	W06
	BYTE		        Ds1   v108
	BYTE	W12
	BYTE		        Cn2 
	BYTE	W06
	BYTE		        As1 
	BYTE	W12
	BYTE		        Gs1   v112
	BYTE	W12
	BYTE		N05   
	BYTE	W24
	BYTE		        Fn1   v108
	BYTE	W06
	BYTE		        Gs1   v112
	BYTE	W06
// 056   ----------------------------------------
	BYTE		        Fn1 
	BYTE	W12
	BYTE		N05   
	BYTE	W06
	BYTE		        Fn1   v108
	BYTE	W12
	BYTE		        Cn2 
	BYTE	W06
	BYTE		        As1 
	BYTE	W24
	BYTE		N05   
	BYTE	W06
	BYTE		        As1   v112
	BYTE	W06
	BYTE		        As1   v108
	BYTE	W06
	BYTE		        Cn2 
	BYTE	W12
	BYTE		        As1 
	BYTE	W06
// 057   ----------------------------------------
	BYTE		        Ds1 
	BYTE	W12
	BYTE		N05   
	BYTE	W06
	BYTE		N05   
	BYTE	W12
	BYTE		        Cn2   v112
	BYTE	W06
	BYTE		        As1   v108
	BYTE	W12
	BYTE		        Gs1   v112
	BYTE	W12
	BYTE		N05   
	BYTE	W24
	BYTE		        Gs1   v108
	BYTE	W06
	BYTE		N05   
	BYTE	W06
// 058   ----------------------------------------
	BYTE		        Fn1   v112
	BYTE	W12
	BYTE		N05   
	BYTE	W06
	BYTE		        Fn1   v108
	BYTE	W12
	BYTE		        Cn2 
	BYTE	W06
	BYTE		        As1   v112
	BYTE	W24
	BYTE		        Gs1 
	BYTE	W12
	BYTE		        Gs1   v108
	BYTE	W06
	BYTE		N05   
	BYTE	W12
	BYTE		        Cs2 
	BYTE	W06
// 059   ----------------------------------------
	BYTE		        Ds2   v112
	BYTE	W12
	BYTE		        Cs2   v108
	BYTE	W06
	BYTE		        Ds2 
	BYTE	W12
	BYTE		        Fs2 
	BYTE	W06
	BYTE		        Fn2 
	BYTE	W12
	BYTE		N12     Cs2 
	BYTE	W12
	BYTE		N05     Ds2   v112
	BYTE	W24
	BYTE		        Fn1 
	BYTE	W06
	BYTE		        Gs1   v108
	BYTE	W06
// 060   ----------------------------------------
	BYTE		        As1   v112
	BYTE	W12
	BYTE		        Gs1   v108
	BYTE	W06
	BYTE		        As1   v112
	BYTE	W12
	BYTE		        Cs2 
	BYTE	W06
	BYTE		        Cn2   v108
	BYTE	W48
	BYTE		        As1   v112
	BYTE	W06
	BYTE		        Cs2   v108
	BYTE	W06
// 061   ----------------------------------------
	BYTE		        Ds2 
	BYTE	W12
	BYTE		        Cs2   v112
	BYTE	W06
	BYTE		        Ds2 
	BYTE	W12
	BYTE		        Fs2   v108
	BYTE	W06
	BYTE		        Fn2   v112
	BYTE	W12
	BYTE		N12     Cs2   v108
	BYTE	W12
	BYTE		N05     Ds2 
	BYTE	W24
	BYTE		        Fn1   v112
	BYTE	W06
	BYTE		        Gs1   v108
	BYTE	W06
// 062   ----------------------------------------
	BYTE		        As1   v112
	BYTE	W12
	BYTE		        Gs1   v108
	BYTE	W06
	BYTE		        As1 
	BYTE	W12
	BYTE		        Cs2   v112
	BYTE	W06
	BYTE		        Cn2 
	BYTE	W48
	BYTE		        As1 
	BYTE	W06
	BYTE		        Cs2 
	BYTE	W06
// 063   ----------------------------------------
	BYTE		        Ds2 
	BYTE	W12
	BYTE		        Cs2 
	BYTE	W06
	BYTE		        Ds2   v108
	BYTE	W12
	BYTE		        Fs2   v112
	BYTE	W06
	BYTE		        Fn2 
	BYTE	W12
	BYTE		N12     Cs2   v108
	BYTE	W12
	BYTE		N05     Ds2 
	BYTE	W24
	BYTE		        Fn1   v112
	BYTE	W06
	BYTE		        Gs1   v108
	BYTE	W06
// 064   ----------------------------------------
	BYTE		        As1 
	BYTE	W12
	BYTE		        Gs1   v112
	BYTE	W06
	BYTE		        As1 
	BYTE	W12
	BYTE		        Cs2 
	BYTE	W06
	BYTE		        Cn2   v108
	BYTE	W48
	BYTE		        As1   v112
	BYTE	W06
	BYTE		        Cs2 
	BYTE	W06
// 065   ----------------------------------------
	BYTE		        Ds2 
	BYTE	W12
	BYTE		        Cs2   v108
	BYTE	W06
	BYTE		        Ds2   v112
	BYTE	W12
	BYTE		        Fs2 
	BYTE	W06
	BYTE		        Fn2 
	BYTE	W12
	BYTE		N12     Cs2   v108
	BYTE	W12
	BYTE		N05     Ds2 
	BYTE	W24
	BYTE		        Fn1   v112
	BYTE	W06
	BYTE		        Gs1 
	BYTE	W06
// 066   ----------------------------------------
	BYTE		        As1 
	BYTE	W12
	BYTE		        Gs1 
	BYTE	W06
	BYTE		        As1 
	BYTE	W12
	BYTE		        Cs2   v108
	BYTE	W06
	BYTE		        Cn2   v112
	BYTE	W48
	BYTE		        As1 
	BYTE	W06
	BYTE		        Cs2   v108
	BYTE	W06
// 067   ----------------------------------------
	BYTE	W96
// 068   ----------------------------------------
	BYTE	W96
// 069   ----------------------------------------
	BYTE	W96
// 070   ----------------------------------------
	BYTE	W96
// 071   ----------------------------------------
	BYTE	W96
// 072   ----------------------------------------
	BYTE	W96
// 073   ----------------------------------------
	BYTE	W96
// 074   ----------------------------------------
	BYTE	W96
// 075   ----------------------------------------
	BYTE		        As1   v112
	BYTE	W12
	BYTE		N05   
	BYTE	W06
	BYTE		        As1   v108
	BYTE	W12
	BYTE		        Cs2   v112
	BYTE	W06
	BYTE		        Cn2 
	BYTE	W12
	BYTE		N12     Gs1   v108
	BYTE	W12
	BYTE		N05     As1   v112
	BYTE	W24
	BYTE		        Fn1   v108
	BYTE	W06
	BYTE		        Gs1   v112
	BYTE	W06
// 076   ----------------------------------------
	BYTE		        As1   v108
	BYTE	W12
	BYTE		        Gs1   v112
	BYTE	W06
	BYTE		        As1   v108
	BYTE	W12
	BYTE		        Cs2   v112
	BYTE	W06
	BYTE		        Cn2 
	BYTE	W48
	BYTE		        Fn1   v108
	BYTE	W06
	BYTE		        Gs1 
	BYTE	W06
// 077   ----------------------------------------
	BYTE		        As1   v112
	BYTE	W12
	BYTE		        As1   v108
	BYTE	W06
	BYTE		        As1   v112
	BYTE	W12
	BYTE		        Cs2 
	BYTE	W06
	BYTE		        Cn2   v108
	BYTE	W12
	BYTE		        Gs1 
	BYTE	W12
	BYTE		        As1   v112
	BYTE	W24
	BYTE		        Fn1 
	BYTE	W06
	BYTE		        Gs1   v108
	BYTE	W06
// 078   ----------------------------------------
	BYTE		        As1   v112
	BYTE	W12
	BYTE		        Gs1 
	BYTE	W06
	BYTE		        As1   v108
	BYTE	W12
	BYTE		        Cs2   v112
	BYTE	W06
	BYTE		        Cn2   v108
	BYTE	W48
	BYTE		        Fn1 
	BYTE	W06
	BYTE		        Gs1   v112
	BYTE	W06
// 079   ----------------------------------------
	BYTE		        Ds1 
	BYTE	W12
	BYTE		        Ds1   v108
	BYTE	W06
	BYTE		        Ds1   v112
	BYTE	W12
	BYTE		        Cn2 
	BYTE	W06
	BYTE		        As1   v108
	BYTE	W12
	BYTE		        Gs1   v112
	BYTE	W12
	BYTE		N05   
	BYTE	W24
	BYTE		        Fn1   v108
	BYTE	W06
	BYTE		        Gs1 
	BYTE	W06
// 080   ----------------------------------------
	BYTE		        Fn1 
	BYTE	W12
	BYTE		        Fn1   v112
	BYTE	W06
	BYTE		        Fn1   v108
	BYTE	W12
	BYTE		        Cn2 
	BYTE	W06
	BYTE		        As1 
	BYTE	W24
	BYTE		N05   
	BYTE	W06
	BYTE		        As1   v112
	BYTE	W06
	BYTE		        As1   v108
	BYTE	W06
	BYTE		        Cn2   v112
	BYTE	W12
	BYTE		        As1 
	BYTE	W06
// 081   ----------------------------------------
	BYTE		        Ds1   v108
	BYTE	W12
	BYTE		        Ds1   v112
	BYTE	W06
	BYTE		N05   
	BYTE	W12
	BYTE		        Cn2 
	BYTE	W06
	BYTE		        As1 
	BYTE	W12
	BYTE		        Gs1 
	BYTE	W12
	BYTE		N05   
	BYTE	W24
	BYTE		N05   
	BYTE	W06
	BYTE		N05   
	BYTE	W06
// 082   ----------------------------------------
	BYTE		        Fn1 
	BYTE	W12
	BYTE		N05   
	BYTE	W06
	BYTE		N05   
	BYTE	W12
	BYTE		        Cn2   v108
	BYTE	W06
	BYTE		        As1 
	BYTE	W24
	BYTE		        Gs1 
	BYTE	W12
	BYTE		N05   
	BYTE	W06
	BYTE		N05   
	BYTE	W12
	BYTE		        Cs2 
	BYTE	W06
// 083   ----------------------------------------
	BYTE		        Ds1 
	BYTE	W12
	BYTE		        Ds1   v112
	BYTE	W06
	BYTE		        Ds1   v108
	BYTE	W12
	BYTE		        Cn2 
	BYTE	W06
	BYTE		        As1   v112
	BYTE	W12
	BYTE		        Gs1 
	BYTE	W12
	BYTE		        Gs1   v108
	BYTE	W24
	BYTE		        Fn1 
	BYTE	W06
	BYTE		        Gs1 
	BYTE	W06
// 084   ----------------------------------------
	BYTE		        Fn1 
	BYTE	W12
	BYTE		N05   
	BYTE	W06
	BYTE		        Fn1   v112
	BYTE	W12
	BYTE		        Cn2 
	BYTE	W06
	BYTE		        As1   v108
	BYTE	W24
	BYTE		        As1   v112
	BYTE	W06
	BYTE		        As1   v108
	BYTE	W06
	BYTE		        As1   v112
	BYTE	W06
	BYTE		        Cn2 
	BYTE	W12
	BYTE		        As1 
	BYTE	W06
// 085   ----------------------------------------
	BYTE		        Ds1   v108
	BYTE	W12
	BYTE		N05   
	BYTE	W06
	BYTE		        Ds1   v112
	BYTE	W12
	BYTE		        Cn2   v108
	BYTE	W06
	BYTE		        As1 
	BYTE	W12
	BYTE		        Gs1 
	BYTE	W12
	BYTE		N05   
	BYTE	W24
	BYTE		N05   
	BYTE	W06
	BYTE		N05   
	BYTE	W06
// 086   ----------------------------------------
	BYTE		        Fn1 
	BYTE	W12
	BYTE		N05   
	BYTE	W06
	BYTE		        Fn1   v112
	BYTE	W12
	BYTE		        Cn2   v108
	BYTE	W06
	BYTE		        As1   v112
	BYTE	W24
	BYTE		        Gs1 
	BYTE	W12
	BYTE		        Gs1   v108
	BYTE	W06
	BYTE		N05   
	BYTE	W12
	BYTE		        Cs2   v112
	BYTE	W06
// 087   ----------------------------------------
	BYTE		        Ds1   v108
	BYTE	W12
	BYTE		        Ds1   v112
	BYTE	W06
	BYTE		        Ds1   v108
	BYTE	W12
	BYTE		        Cn2 
	BYTE	W06
	BYTE		        As1 
	BYTE	W12
	BYTE		        Gs1   v112
	BYTE	W12
	BYTE		        Gs1   v108
	BYTE	W24
	BYTE		        Fn1   v112
	BYTE	W06
	BYTE		        Gs1   v108
	BYTE	W06
// 088   ----------------------------------------
	BYTE		        Fn1   v112
	BYTE	W12
	BYTE		N05   
	BYTE	W06
	BYTE		        Fn1   v108
	BYTE	W12
	BYTE		        Cn2   v112
	BYTE	W06
	BYTE		        As1   v108
	BYTE	W24
	BYTE		        As1   v112
	BYTE	W06
	BYTE		N05   
	BYTE	W06
	BYTE		N05   
	BYTE	W06
	BYTE		        Cn2   v108
	BYTE	W12
	BYTE		        As1 
	BYTE	W06
// 089   ----------------------------------------
	BYTE		        Ds1 
	BYTE	W12
	BYTE		        Ds1   v112
	BYTE	W06
	BYTE		        Ds1   v108
	BYTE	W12
	BYTE		        Cn2 
	BYTE	W06
	BYTE		        As1 
	BYTE	W12
	BYTE		        Gs1   v112
	BYTE	W12
	BYTE		        Gs1   v108
	BYTE	W24
	BYTE		N05   
	BYTE	W06
	BYTE		N05   
	BYTE	W06
// 090   ----------------------------------------
	BYTE		        Fn1 
	BYTE	W12
	BYTE		N05   
	BYTE	W06
	BYTE		        Fn1   v112
	BYTE	W12
	BYTE		        Cn2   v108
	BYTE	W06
	BYTE		        As1 
	BYTE	W24
	BYTE		        Gs1   v112
	BYTE	W12
	BYTE		        Gs1   v108
	BYTE	W06
	BYTE		        Gs1   v112
	BYTE	W12
	BYTE		        Cs2   v108
	BYTE	W06
// 091   ----------------------------------------
	BYTE		        Ds1 
	BYTE	W12
	BYTE		        Ds1   v112
	BYTE	W06
	BYTE		N05   
	BYTE	W12
	BYTE		        Cn2 
	BYTE	W06
	BYTE		        As1   v108
	BYTE	W12
	BYTE		        Gs1 
	BYTE	W12
	BYTE		        Gs1   v112
	BYTE	W24
	BYTE		        Fn1   v108
	BYTE	W06
	BYTE		        Gs1   v112
	BYTE	W06
// 092   ----------------------------------------
	BYTE		        Fn1   v108
	BYTE	W12
	BYTE		        Fn1   v112
	BYTE	W06
	BYTE		N05   
	BYTE	W12
	BYTE		        Cn2   v108
	BYTE	W06
	BYTE		        As1 
	BYTE	W24
	BYTE		        As1   v112
	BYTE	W06
	BYTE		        As1   v108
	BYTE	W06
	BYTE		N05   
	BYTE	W06
	BYTE		        Cn2 
	BYTE	W12
	BYTE		        As1   v112
	BYTE	W06
// 093   ----------------------------------------
	BYTE		        Ds1 
	BYTE	W12
	BYTE		N05   
	BYTE	W06
	BYTE		N05   
	BYTE	W12
	BYTE		        Cn2   v108
	BYTE	W06
	BYTE		        As1   v112
	BYTE	W12
	BYTE		        Gs1   v108
	BYTE	W12
	BYTE		N05   
	BYTE	W24
	BYTE		        Gs1   v112
	BYTE	W06
	BYTE		N05   
	BYTE	W06
// 094   ----------------------------------------
	BYTE		        Fn1   v108
	BYTE	W12
	BYTE		        Fn1   v112
	BYTE	W06
	BYTE		        Fn1   v108
	BYTE	W12
	BYTE		        Cn2   v112
	BYTE	W06
	BYTE		        As1 
	BYTE	W24
	BYTE		        Gs1   v108
	BYTE	W12
	BYTE		        Gs1   v112
	BYTE	W06
	BYTE		N05   
	BYTE	W12
	BYTE		        Cs2 
	BYTE	W06
// 095   ----------------------------------------
	BYTE		        Ds1   v108
	BYTE	W12
	BYTE		        Ds1   v112
	BYTE	W06
	BYTE		N05   
	BYTE	W12
	BYTE		        Cn2 
	BYTE	W06
	BYTE		        As1 
	BYTE	W12
	BYTE		        Gs1 
	BYTE	W12
	BYTE		        Gs1   v108
	BYTE	W24
	BYTE		        Fn1 
	BYTE	W06
	BYTE		        Gs1 
	BYTE	W06
// 096   ----------------------------------------
	BYTE		        Fn1   v112
	BYTE	W12
	BYTE		N05   
	BYTE	W06
	BYTE		        Fn1   v108
	BYTE	W12
	BYTE		        Cn2 
	BYTE	W06
	BYTE		        As1 
	BYTE	W24
	BYTE		N05   
	BYTE	W06
	BYTE		N05   
	BYTE	W06
	BYTE		        As1   v112
	BYTE	W06
	BYTE		        Cn2 
	BYTE	W12
	BYTE		        As1   v108
	BYTE	W06
// 097   ----------------------------------------
	BYTE		        Ds1 
	BYTE	W12
	BYTE		N05   
	BYTE	W06
	BYTE		N05   
	BYTE	W12
	BYTE		        Cn2   v112
	BYTE	W06
	BYTE		        As1   v108
	BYTE	W12
	BYTE		        Gs1 
	BYTE	W12
	BYTE		        Gs1   v112
	BYTE	W24
	BYTE		        Gs1   v108
	BYTE	W06
	BYTE		        Gs1   v112
	BYTE	W06
// 098   ----------------------------------------
	BYTE		        Fn1   v108
	BYTE	W12
	BYTE		N05   
	BYTE	W06
	BYTE		N05   
	BYTE	W12
	BYTE		        Cn2 
	BYTE	W06
	BYTE		        As1 
	BYTE	W24
	BYTE		        Gs1 
	BYTE	W12
	BYTE		        Gs1   v112
	BYTE	W06
	BYTE		        Gs1   v108
	BYTE	W12
	BYTE		        Cs2 
	BYTE	W06
// 099   ----------------------------------------
	BYTE		        Ds1   v112
	BYTE	W12
	BYTE		        Ds1   v108
	BYTE	W06
	BYTE		N05   
	BYTE	W12
	BYTE		        Cn2   v112
	BYTE	W06
	BYTE		        As1 
	BYTE	W12
	BYTE		        Gs1 
	BYTE	W12
	BYTE		N05   
	BYTE	W24
	BYTE		        Fn1   v108
	BYTE	W06
	BYTE		        Gs1   v112
	BYTE	W06
// 100   ----------------------------------------
	BYTE		        Fn1   v108
	BYTE	W12
	BYTE		N05   
	BYTE	W06
	BYTE		N05   
	BYTE	W12
	BYTE		        Cn2   v112
	BYTE	W06
	BYTE		        As1 
	BYTE	W24
	BYTE		        As1   v108
	BYTE	W06
	BYTE		        As1   v112
	BYTE	W06
	BYTE		N05   
	BYTE	W06
	BYTE		        Cn2 
	BYTE	W12
	BYTE		        As1   v108
	BYTE	W06
// 101   ----------------------------------------
	BYTE		        Ds1   v112
	BYTE	W12
	BYTE		N05   
	BYTE	W06
	BYTE		N05   
	BYTE	W12
	BYTE		        Cn2 
	BYTE	W06
	BYTE		        As1   v108
	BYTE	W12
	BYTE		        Gs1 
	BYTE	W12
	BYTE		        Gs1   v112
	BYTE	W24
	BYTE		N05   
	BYTE	W06
	BYTE		        Gs1   v108
	BYTE	W06
// 102   ----------------------------------------
	BYTE		        Fn1   v112
	BYTE	W12
	BYTE		        Fn1   v108
	BYTE	W06
	BYTE		N05   
	BYTE	W12
	BYTE		        Cn2   v112
	BYTE	W06
	BYTE		        As1   v108
	BYTE	W24
	BYTE		        Gs1   v112
	BYTE	W12
	BYTE		N05   
	BYTE	W06
	BYTE		        Gs1   v108
	BYTE	W12
	BYTE		        Cs2 
	BYTE	W06
// 103   ----------------------------------------
	BYTE		        Ds1   v096
	BYTE	W12
	BYTE		        Ds1   v104
	BYTE	W06
	BYTE		        Ds1   v100
	BYTE	W18
	BYTE	GoTo
	 POIN2	never_gonna_2_B1
never_gonna_2_B2:
	BYTE		N24     Gs1   v112
	BYTE	W36
	BYTE		N18     Gs1   v108
	BYTE	W24
// 104   ----------------------------------------
	BYTE	W02
	BYTE		N78     Cs1   v104
	BYTE	W92
	BYTE	W02
// 105   ----------------------------------------
	BYTE	W28
	BYTE	FINE

//**************** Track 3 (Midi-Chn.4) ****************//

never_gonna_3:
	BYTE	KEYSH   never_gonna_key+0
// 000   ----------------------------------------
	BYTE	W20
	BYTE	W07
	BYTE	W01
	BYTE		VOICE   0
	BYTE		VOL     100*never_gonna_mvl/mxv
	BYTE		PAN     c_v+0
	BYTE	W23
	BYTE	W01
	BYTE	W44
// 001   ----------------------------------------
	BYTE	W96
// 002   ----------------------------------------
	BYTE	W96
// 003   ----------------------------------------
	BYTE		N30     As2   v092
	BYTE		N30     Cs3   v088
	BYTE		N30     Fn3   v092
	BYTE	W36
	BYTE		N54     Gs2 
	BYTE		N54     Cn3   v088
	BYTE		N54     Ds3   v096
	BYTE	W60
never_gonna_3_B1:
// 004   ----------------------------------------
	BYTE		N30     Gs2   v096
	BYTE		N30     Cn3   v088
	BYTE		N30     Ds3 
	BYTE	W36
	BYTE		N54     As2 
	BYTE		N54     Cs3   v092
	BYTE		N54     Fn3 
	BYTE	W60
// 005   ----------------------------------------
	BYTE		N30     As2 
	BYTE		N30     Cs3 
	BYTE		N30     Fn3 
	BYTE	W36
	BYTE		N54     Gs2 
	BYTE		N54     Cn3   v088
	BYTE		N54     Ds3   v096
	BYTE	W60
// 006   ----------------------------------------
	BYTE		N30     Gs2   v092
	BYTE		N30     Cn3 
	BYTE		N30     Ds3 
	BYTE	W36
	BYTE		N54     As2   v088
	BYTE		N54     Cs3 
	BYTE		N54     Fn3 
	BYTE	W60
// 007   ----------------------------------------
	BYTE		N24     As2   v096
	BYTE		N24     Cs3   v092
	BYTE		N24     Fn3 
	BYTE	W36
	BYTE		N54     Gs2   v096
	BYTE		N54     Cn3 
	BYTE		N54     Ds3   v088
	BYTE	W60
// 008   ----------------------------------------
	BYTE		N24     Gs2 
	BYTE		N24     Cn3 
	BYTE		N24     Ds3   v096
	BYTE	W36
	BYTE		N54     As2   v092
	BYTE		N54     Cs3 
	BYTE		N54     Fn3 
	BYTE	W60
// 009   ----------------------------------------
	BYTE		N24     As2   v088
	BYTE		N24     Cs3   v092
	BYTE		N24     Fn3   v088
	BYTE	W36
	BYTE		N54     Gs2   v092
	BYTE		N54     Cn3 
	BYTE		N54     Ds3 
	BYTE	W60
// 010   ----------------------------------------
	BYTE	W12
	BYTE		N06     As2 
	BYTE		N06     Cs3 
	BYTE		N06     Fn3 
	BYTE	W12
	BYTE		N66     As2   v096
	BYTE		N66     Cs3   v092
	BYTE		N66     Fn3   v088
	BYTE	W72
// 011   ----------------------------------------
	BYTE		N84     Fs2   v092
	BYTE		N84     As2 
	BYTE		N84     Cs3   v088
	BYTE		N84     Fn3   v096
	BYTE	W96
// 012   ----------------------------------------
	BYTE		        Gs2   v088
	BYTE		N84     Cn3   v092
	BYTE		N84     Ds3 
	BYTE	W96
// 013   ----------------------------------------
	BYTE		        Fs2   v096
	BYTE		N84     As2 
	BYTE		N84     Cs3   v092
	BYTE		N84     Fn3 
	BYTE	W96
// 014   ----------------------------------------
	BYTE		N30     As2 
	BYTE		N30     Cs3   v088
	BYTE		N30     Fn3 
	BYTE		N30     Gs3 
	BYTE	W36
	BYTE		N48     Gs2 
	BYTE		N48     Cn3   v092
	BYTE		N48     Ds3   v088
	BYTE	W60
// 015   ----------------------------------------
	BYTE		N84     Fs2   v092
	BYTE		N84     As2   v088
	BYTE		N84     Cs3   v096
	BYTE		N84     Fn3   v088
	BYTE	W96
// 016   ----------------------------------------
	BYTE		        Gs2 
	BYTE		N84     Cn3   v092
	BYTE		N84     Ds3   v088
	BYTE	W96
// 017   ----------------------------------------
	BYTE		N90     Fs2 
	BYTE		N90     As2   v092
	BYTE		N90     Cs3 
	BYTE		N90     Fn3   v088
	BYTE	W96
// 018   ----------------------------------------
	BYTE		N30     Fs2   v092
	BYTE		N30     As2 
	BYTE		N30     Cs3   v096
	BYTE		N30     Fn3 
	BYTE	W36
	BYTE		N54     Gs2   v088
	BYTE		N54     Cn3   v092
	BYTE		N54     Ds3 
	BYTE	W60
// 019   ----------------------------------------
	BYTE		N90     Cs3   v088
	BYTE		N90     Ds3   v096
	BYTE		N90     Fs3   v092
	BYTE		N90     As3 
	BYTE	W96
// 020   ----------------------------------------
	BYTE		        Cn3 
	BYTE		N90     Ds3   v088
	BYTE		N90     Fn3   v092
	BYTE		N96     Gs3 
	BYTE	W96
// 021   ----------------------------------------
	BYTE		N90     Cs3   v088
	BYTE		N90     Ds3 
	BYTE		N90     Fs3   v092
	BYTE		N90     As3   v088
	BYTE	W96
// 022   ----------------------------------------
	BYTE		N12     Cs3   v092
	BYTE		N12     Ds3 
	BYTE		N12     Fs3   v088
	BYTE		N12     As3 
	BYTE	W18
	BYTE		N06     Cs3   v096
	BYTE		N06     Ds3   v092
	BYTE		N06     Fs3   v088
	BYTE		N06     As3 
	BYTE	W18
	BYTE		N54     Ds3   v092
	BYTE		N54     Gs3 
	BYTE		N54     Cn4 
	BYTE	W60
// 023   ----------------------------------------
	BYTE		N30     As2 
	BYTE		N30     Cs3   v096
	BYTE		N30     Fn3   v088
	BYTE	W36
	BYTE		N54     Gs2   v092
	BYTE		N54     Cn3   v096
	BYTE		N54     Ds3   v092
	BYTE	W60
// 024   ----------------------------------------
	BYTE		N24     Fn2 
	BYTE		N24     Gs2   v088
	BYTE		N24     Cn3   v092
	BYTE	W36
	BYTE		N54     As2 
	BYTE		N54     Cs3 
	BYTE		N54     Fn3 
	BYTE	W60
// 025   ----------------------------------------
	BYTE		N30     As2 
	BYTE		N30     Cs3 
	BYTE		N30     Fn3   v088
	BYTE	W36
	BYTE		N48     Gs2   v096
	BYTE		N48     Cn3   v092
	BYTE		N48     Ds3 
	BYTE	W60
// 026   ----------------------------------------
	BYTE		N24     Fn2   v088
	BYTE		N24     Gs2 
	BYTE		N24     Cn3   v092
	BYTE	W36
	BYTE		N54     As2   v096
	BYTE		N54     Cs3   v088
	BYTE		N54     Fn3   v096
	BYTE	W60
// 027   ----------------------------------------
	BYTE		N30     As2   v088
	BYTE		N30     Cs3 
	BYTE		N30     Fn3 
	BYTE	W36
	BYTE		N54     Gs2   v092
	BYTE		N54     Cn3   v088
	BYTE		N54     Ds3 
	BYTE	W60
// 028   ----------------------------------------
	BYTE		N24     Fn2   v092
	BYTE		N24     Gs2 
	BYTE		N24     Cn3   v088
	BYTE	W36
	BYTE		N54     As2   v096
	BYTE		N54     Cs3   v092
	BYTE		N54     Fn3   v088
	BYTE	W60
// 029   ----------------------------------------
	BYTE		N30     As2   v092
	BYTE		N30     Cs3 
	BYTE		N30     Fn3 
	BYTE	W36
	BYTE		N54     Gs2   v088
	BYTE		N54     Cn3   v096
	BYTE		N54     Ds3 
	BYTE	W60
// 030   ----------------------------------------
	BYTE		N06     Gs2   v092
	BYTE		N06     Cn3 
	BYTE		N06     Ds3   v088
	BYTE	W24
	BYTE		N66     As2 
	BYTE		N66     Cs3   v092
	BYTE		N66     Fn3 
	BYTE	W72
// 031   ----------------------------------------
	BYTE		N84     Fs2 
	BYTE		N84     As2   v088
	BYTE		N84     Cs3 
	BYTE		N84     Fn3   v092
	BYTE	W96
// 032   ----------------------------------------
	BYTE		        Gs2 
	BYTE		N84     Cn3 
	BYTE		N84     Ds3 
	BYTE	W96
// 033   ----------------------------------------
	BYTE		        Fs2   v096
	BYTE		N84     As2   v092
	BYTE		N84     Cs3   v088
	BYTE		N84     Fn3   v092
	BYTE	W96
// 034   ----------------------------------------
	BYTE		N30     As2 
	BYTE		N30     Cs3   v088
	BYTE		N30     Fn3 
	BYTE		N30     Gs3   v092
	BYTE	W36
	BYTE		N48     Gs2   v088
	BYTE		N48     Cn3   v092
	BYTE		N48     Ds3 
	BYTE	W60
// 035   ----------------------------------------
	BYTE		N84     Fs2   v096
	BYTE		N84     As2   v088
	BYTE		N84     Cs3 
	BYTE		N84     Fn3   v092
	BYTE	W96
// 036   ----------------------------------------
	BYTE		        Gs2   v088
	BYTE		N84     Cn3 
	BYTE		N84     Ds3 
	BYTE	W96
// 037   ----------------------------------------
	BYTE		N90     Fs2   v096
	BYTE		N90     As2   v092
	BYTE		N90     Cs3 
	BYTE		N90     Fn3 
	BYTE	W96
// 038   ----------------------------------------
	BYTE		N30     Fs2   v088
	BYTE		N30     As2 
	BYTE		N30     Cs3   v092
	BYTE		N30     Fn3   v096
	BYTE	W36
	BYTE		N54     Gs2   v092
	BYTE		N54     Cn3   v088
	BYTE		N54     Ds3 
	BYTE	W60
// 039   ----------------------------------------
	BYTE		N90     Cs3   v092
	BYTE		N90     Ds3   v088
	BYTE		N90     Fs3   v096
	BYTE		N90     As3   v092
	BYTE	W96
// 040   ----------------------------------------
	BYTE		        Cn3 
	BYTE		N90     Ds3 
	BYTE		N90     Fn3 
	BYTE		N90     Gs3 
	BYTE	W96
// 041   ----------------------------------------
	BYTE		        Cs3 
	BYTE		N90     Ds3   v088
	BYTE		N90     Fs3   v092
	BYTE		N90     As3 
	BYTE	W96
// 042   ----------------------------------------
	BYTE		N12     Cs3 
	BYTE		N12     Ds3 
	BYTE		N12     Fs3   v088
	BYTE		N12     As3   v092
	BYTE	W18
	BYTE		N06     Cs3   v088
	BYTE		N06     Ds3   v092
	BYTE		N06     Fs3   v088
	BYTE		N06     As3   v092
	BYTE	W18
	BYTE		N54     Ds3 
	BYTE		N54     Gs3 
	BYTE		N54     Cn4   v088
	BYTE	W60
// 043   ----------------------------------------
	BYTE		N30     As2   v092
	BYTE		N30     Cs3 
	BYTE		N30     Fn3 
	BYTE	W36
	BYTE		N54     Gs2 
	BYTE		N54     Cn3 
	BYTE		N54     Ds3   v096
	BYTE	W60
// 044   ----------------------------------------
	BYTE		N30     Fn2   v092
	BYTE		N30     Gs2   v088
	BYTE		N30     Cn3   v092
	BYTE	W36
	BYTE		N54     As2   v088
	BYTE		N54     Cs3   v092
	BYTE		N54     Fn3 
	BYTE	W60
// 045   ----------------------------------------
	BYTE		N30     As2 
	BYTE		N30     Cs3   v088
	BYTE		N30     Fn3 
	BYTE	W36
	BYTE		N54     Gs2   v092
	BYTE		N54     Cn3   v096
	BYTE		N54     Ds3   v092
	BYTE	W60
// 046   ----------------------------------------
	BYTE		N30     Fn2 
	BYTE		N30     Gs2 
	BYTE		N30     Cn3 
	BYTE	W36
	BYTE		N54     As2 
	BYTE		N54     Cs3 
	BYTE		N54     Fn3   v088
	BYTE	W60
// 047   ----------------------------------------
	BYTE		N30     As2   v092
	BYTE		N30     Cs3   v088
	BYTE		N30     Fn3   v092
	BYTE	W36
	BYTE		N54     Gs2   v088
	BYTE		N54     Cn3 
	BYTE		N54     Ds3   v096
	BYTE	W60
// 048   ----------------------------------------
	BYTE		N30     Fn2   v088
	BYTE		N30     Gs2 
	BYTE		N30     Cn3 
	BYTE	W36
	BYTE		N54     As2 
	BYTE		N54     Cs3   v092
	BYTE		N54     Fn3   v096
	BYTE	W60
// 049   ----------------------------------------
	BYTE		N30     As2   v092
	BYTE		N30     Cs3 
	BYTE		N30     Fn3 
	BYTE	W36
	BYTE		N54     Gs2 
	BYTE		N54     Cn3   v088
	BYTE		N54     Ds3 
	BYTE	W60
// 050   ----------------------------------------
	BYTE		N12     Gs2   v092
	BYTE		N12     Cn3 
	BYTE		N12     Ds3   v088
	BYTE	W24
	BYTE		N66     As2 
	BYTE		N66     Cs3   v092
	BYTE		N66     Fn3 
	BYTE	W72
// 051   ----------------------------------------
	BYTE		N30     As2   v096
	BYTE		N30     Cs3   v092
	BYTE		N30     Fn3   v096
	BYTE	W36
	BYTE		N54     Gs2   v088
	BYTE		N54     Cn3 
	BYTE		N54     Ds3 
	BYTE	W60
// 052   ----------------------------------------
	BYTE		N30     Gs2 
	BYTE		N30     Cn3 
	BYTE		N30     Ds3   v092
	BYTE	W36
	BYTE		N54     As2 
	BYTE		N54     Cs3 
	BYTE		N54     Fn3   v088
	BYTE	W60
// 053   ----------------------------------------
never_gonna_3_053:
	BYTE		N30     As2   v088
	BYTE		N30     Cs3   v092
	BYTE		N30     Fn3 
	BYTE	W36
	BYTE		N54     Gs2 
	BYTE		N54     Cn3   v088
	BYTE		N54     Ds3   v092
	BYTE	W60
	BYTE	PEND
// 054   ----------------------------------------
	BYTE		N30     Gs2 
	BYTE		N30     Cn3   v096
	BYTE		N30     Ds3   v088
	BYTE	W36
	BYTE		N54     As2 
	BYTE		N54     Cs3   v096
	BYTE		N54     Fn3   v092
	BYTE	W60
// 055   ----------------------------------------
	BYTE		N30     As2   v096
	BYTE		N30     Cs3   v088
	BYTE		N30     Fn3   v092
	BYTE	W36
	BYTE		N54     Gs2   v088
	BYTE		N54     Cn3   v092
	BYTE		N54     Ds3   v088
	BYTE	W60
// 056   ----------------------------------------
	BYTE		N30     Gs2   v092
	BYTE		N30     Cn3   v088
	BYTE		N30     Ds3   v092
	BYTE	W36
	BYTE		N54     As2 
	BYTE		N54     Cs3 
	BYTE		N54     Fn3 
	BYTE	W60
// 057   ----------------------------------------
	BYTE	PATT
	 POIN2	never_gonna_3_053
// 058   ----------------------------------------
	BYTE		N12     Gs2   v092
	BYTE		N12     Cn3   v096
	BYTE		N12     Ds3   v092
	BYTE	W24
	BYTE		N72     As2 
	BYTE		N72     Cs3   v096
	BYTE		N72     Fn3   v092
	BYTE	W72
// 059   ----------------------------------------
	BYTE	W96
// 060   ----------------------------------------
	BYTE	W96
// 061   ----------------------------------------
	BYTE	W96
// 062   ----------------------------------------
	BYTE	W96
// 063   ----------------------------------------
	BYTE	W96
// 064   ----------------------------------------
	BYTE	W96
// 065   ----------------------------------------
	BYTE	W96
// 066   ----------------------------------------
	BYTE	W96
// 067   ----------------------------------------
	BYTE	W96
// 068   ----------------------------------------
	BYTE	W96
// 069   ----------------------------------------
	BYTE	W96
// 070   ----------------------------------------
	BYTE	W96
// 071   ----------------------------------------
	BYTE	W96
// 072   ----------------------------------------
	BYTE	W96
// 073   ----------------------------------------
	BYTE	W96
// 074   ----------------------------------------
	BYTE	W96
// 075   ----------------------------------------
	BYTE		N90     Cs3   v088
	BYTE		N90     Ds3   v092
	BYTE		N90     Fs3 
	BYTE		N90     As3 
	BYTE	W96
// 076   ----------------------------------------
	BYTE		        Cn3   v096
	BYTE		N90     Ds3 
	BYTE		N90     Fn3   v092
	BYTE		N90     Gs3 
	BYTE	W96
// 077   ----------------------------------------
	BYTE		        Cs3 
	BYTE		N90     Ds3 
	BYTE		N90     Fs3 
	BYTE		N90     As3   v088
	BYTE	W96
// 078   ----------------------------------------
	BYTE		N06     Cs3   v092
	BYTE		N06     Ds3 
	BYTE		N06     Fs3 
	BYTE		N06     As3   v088
	BYTE	W18
	BYTE		        Cs3   v096
	BYTE		N06     Ds3   v092
	BYTE		N06     Fs3   v088
	BYTE		N06     As3 
	BYTE	W18
	BYTE		N54     Ds3   v092
	BYTE		N54     Gs3   v088
	BYTE		N54     Cn4 
	BYTE	W60
// 079   ----------------------------------------
	BYTE		N30     As2 
	BYTE		N30     Cs3   v092
	BYTE		N30     Fn3   v088
	BYTE	W36
	BYTE		N54     Gs2 
	BYTE		N54     Cn3   v096
	BYTE		N54     Ds3 
	BYTE	W60
// 080   ----------------------------------------
	BYTE		N24     Fn2   v092
	BYTE		N24     Gs2   v096
	BYTE		N24     Cn3   v088
	BYTE	W36
	BYTE		N54     As2 
	BYTE		N54     Cs3 
	BYTE		N54     Fn3 
	BYTE	W60
// 081   ----------------------------------------
	BYTE		N30     As2 
	BYTE		N30     Cs3 
	BYTE		N30     Fn3   v096
	BYTE	W36
	BYTE		N48     Gs2   v088
	BYTE		N48     Cn3   v092
	BYTE		N48     Ds3   v088
	BYTE	W60
// 082   ----------------------------------------
	BYTE		N24     Fn2   v092
	BYTE		N24     Gs2 
	BYTE		N24     Cn3 
	BYTE	W36
	BYTE		N54     As2   v096
	BYTE		N54     Cs3 
	BYTE		N54     Fn3   v088
	BYTE	W60
// 083   ----------------------------------------
	BYTE		N30     As2   v092
	BYTE		N30     Cs3 
	BYTE		N30     Fn3 
	BYTE	W36
	BYTE		N54     Gs2   v088
	BYTE		N54     Cn3 
	BYTE		N54     Ds3   v092
	BYTE	W60
// 084   ----------------------------------------
	BYTE		N24     Fn2   v088
	BYTE		N24     Gs2   v092
	BYTE		N24     Cn3   v096
	BYTE	W36
	BYTE		N54     As2   v092
	BYTE		N54     Cs3   v088
	BYTE		N54     Fn3   v092
	BYTE	W60
// 085   ----------------------------------------
	BYTE		N30     As2   v088
	BYTE		N30     Cs3   v096
	BYTE		N30     Fn3   v092
	BYTE	W36
	BYTE		N54     Gs2 
	BYTE		N54     Cn3   v096
	BYTE		N54     Ds3   v092
	BYTE	W60
// 086   ----------------------------------------
	BYTE		N06     Gs2   v088
	BYTE		N06     Cn3 
	BYTE		N06     Ds3 
	BYTE	W24
	BYTE		N66     As2   v092
	BYTE		N66     Cs3 
	BYTE		N66     Fn3 
	BYTE	W72
// 087   ----------------------------------------
	BYTE		N30     As2 
	BYTE		N30     Cs3   v096
	BYTE		N30     Fn3   v092
	BYTE	W36
	BYTE		N54     Gs2 
	BYTE		N54     Cn3   v088
	BYTE		N54     Ds3   v092
	BYTE	W60
// 088   ----------------------------------------
	BYTE		N30     Gs2   v088
	BYTE		N30     Cn3   v092
	BYTE		N30     Ds3   v088
	BYTE	W36
	BYTE		N54     As2   v092
	BYTE		N54     Cs3 
	BYTE		N54     Fn3   v088
	BYTE	W60
// 089   ----------------------------------------
	BYTE		N30     As2   v096
	BYTE		N30     Cs3   v092
	BYTE		N30     Fn3   v096
	BYTE	W36
	BYTE		N54     Gs2   v092
	BYTE		N54     Cn3   v096
	BYTE		N54     Ds3   v092
	BYTE	W60
// 090   ----------------------------------------
	BYTE		N30     Gs2 
	BYTE		N30     Cn3   v088
	BYTE		N30     Ds3   v092
	BYTE	W36
	BYTE		N54     As2   v088
	BYTE		N54     Cs3 
	BYTE		N54     Fn3   v092
	BYTE	W60
// 091   ----------------------------------------
	BYTE		N30     As2 
	BYTE		N30     Cs3   v088
	BYTE		N30     Fn3   v092
	BYTE	W36
	BYTE		N54     Gs2 
	BYTE		N54     Cn3 
	BYTE		N54     Ds3 
	BYTE	W60
// 092   ----------------------------------------
	BYTE		N30     Gs2 
	BYTE		N30     Cn3 
	BYTE		N30     Ds3 
	BYTE	W36
	BYTE		N54     As2   v088
	BYTE		N54     Cs3   v092
	BYTE		N54     Fn3 
	BYTE	W60
// 093   ----------------------------------------
	BYTE		N30     As2 
	BYTE		N30     Cs3 
	BYTE		N30     Fn3   v088
	BYTE	W36
	BYTE		N54     Gs2   v096
	BYTE		N54     Cn3   v088
	BYTE		N54     Ds3   v092
	BYTE	W60
// 094   ----------------------------------------
	BYTE		N12     Gs2   v088
	BYTE		N12     Cn3 
	BYTE		N12     Ds3   v092
	BYTE	W24
	BYTE		N66     As2 
	BYTE		N66     Cs3 
	BYTE		N66     Fn3 
	BYTE	W72
// 095   ----------------------------------------
	BYTE		N30     As2 
	BYTE		N30     Cs3 
	BYTE		N30     Fn3   v088
	BYTE	W36
	BYTE		N54     Gs2   v092
	BYTE		N54     Cn3   v088
	BYTE		N54     Ds3   v092
	BYTE	W60
// 096   ----------------------------------------
	BYTE		N30     Gs2   v088
	BYTE		N30     Cn3   v096
	BYTE		N30     Ds3   v092
	BYTE	W36
	BYTE		N54     As2   v088
	BYTE		N54     Cs3 
	BYTE		N54     Fn3 
	BYTE	W60
// 097   ----------------------------------------
	BYTE		N30     As2 
	BYTE		N30     Cs3   v092
	BYTE		N30     Fn3   v088
	BYTE	W36
	BYTE		N54     Gs2   v096
	BYTE		N54     Cn3 
	BYTE		N54     Ds3   v092
	BYTE	W60
// 098   ----------------------------------------
	BYTE		N30     Gs2   v096
	BYTE		N30     Cn3   v092
	BYTE		N30     Ds3 
	BYTE	W36
	BYTE		N54     As2   v088
	BYTE		N54     Cs3   v096
	BYTE		N54     Fn3   v092
	BYTE	W60
// 099   ----------------------------------------
	BYTE		N30     As2   v096
	BYTE		N30     Cs3 
	BYTE		N30     Fn3   v092
	BYTE	W36
	BYTE		N54     Gs2 
	BYTE		N54     Cn3   v088
	BYTE		N54     Ds3 
	BYTE	W60
// 100   ----------------------------------------
	BYTE		N30     Gs2   v092
	BYTE		N30     Cn3 
	BYTE		N30     Ds3 
	BYTE	W36
	BYTE		N54     As2   v088
	BYTE		N54     Cs3   v092
	BYTE		N54     Fn3   v088
	BYTE	W60
// 101   ----------------------------------------
	BYTE		N30     As2   v092
	BYTE		N30     Cs3 
	BYTE		N30     Fn3 
	BYTE	W36
	BYTE		N54     Gs2 
	BYTE		N54     Cn3   v096
	BYTE		N54     Ds3   v088
	BYTE	W60
// 102   ----------------------------------------
	BYTE		N06     Gs2 
	BYTE		N06     Cn3 
	BYTE		N06     Ds3 
	BYTE	W24
	BYTE		N66     As2   v092
	BYTE		N66     Cs3   v088
	BYTE		N66     Fn3 
	BYTE	W48
	BYTE		N06     Gs3   v092
	BYTE	W06
	BYTE		        As3 
	BYTE	W06
	BYTE		        Cs4   v096
	BYTE	W06
	BYTE		        As3   v092
	BYTE	W06
// 103   ----------------------------------------
	BYTE		N18     As3   v088
	BYTE		N18     Cs4 
	BYTE		N18     Fn4   v092
	BYTE	W18
	BYTE		N06     As3   v096
	BYTE		N06     Cs4   v092
	BYTE		N06     Fn4 
	BYTE	W18
	BYTE	GoTo
	 POIN2	never_gonna_3_B1
never_gonna_3_B2:
	BYTE		N30     Gs3   v088
	BYTE		N30     Cn4 
	BYTE		N30     Ds4   v092
	BYTE	W36
	BYTE		N18     Cn4 
	BYTE		N18     Ds4   v088
	BYTE		N18     Gs4   v092
	BYTE	W24
// 104   ----------------------------------------
	BYTE		N96     Fn3   v088
	BYTE		N96     Gs3   v092
	BYTE		N96     Cn4 
	BYTE		N96     Ds4   v096
	BYTE	W96
// 105   ----------------------------------------
	BYTE	W28
	BYTE	FINE

//**************** Track 4 (Midi-Chn.5) ****************//

never_gonna_4:
	BYTE	KEYSH   never_gonna_key+0
// 000   ----------------------------------------
	BYTE	W21
	BYTE	W08
	BYTE		VOICE   90
	BYTE		VOL     100*never_gonna_mvl/mxv
	BYTE		PAN     c_v+0
	BYTE	W01
	BYTE	W23
	BYTE	W01
	BYTE	W42
// 001   ----------------------------------------
	BYTE	W96
// 002   ----------------------------------------
	BYTE	W96
// 003   ----------------------------------------
	BYTE	W96
never_gonna_4_B1:
// 004   ----------------------------------------
	BYTE	W96
// 005   ----------------------------------------
	BYTE	W96
// 006   ----------------------------------------
	BYTE	W96
// 007   ----------------------------------------
	BYTE	W96
// 008   ----------------------------------------
	BYTE	W96
// 009   ----------------------------------------
	BYTE	W96
// 010   ----------------------------------------
	BYTE	W96
// 011   ----------------------------------------
	BYTE	W96
// 012   ----------------------------------------
	BYTE	W96
// 013   ----------------------------------------
	BYTE	W96
// 014   ----------------------------------------
	BYTE	W96
// 015   ----------------------------------------
	BYTE	W96
// 016   ----------------------------------------
	BYTE	W96
// 017   ----------------------------------------
	BYTE	W96
// 018   ----------------------------------------
	BYTE	W96
// 019   ----------------------------------------
	BYTE		N90     Cs3   v084
	BYTE		N90     Ds3 
	BYTE		N90     Fs3 
	BYTE		N90     As3   v088
	BYTE	W96
// 020   ----------------------------------------
	BYTE		        Cn3 
	BYTE		N90     Ds3   v084
	BYTE		N90     Fn3   v088
	BYTE		N90     Gs3 
	BYTE	W96
// 021   ----------------------------------------
	BYTE		        Cs3 
	BYTE		N90     Ds3 
	BYTE		N90     Fs3 
	BYTE		N90     As3   v084
	BYTE	W96
// 022   ----------------------------------------
	BYTE		N12     Cs3 
	BYTE		N12     Ds3   v088
	BYTE		N12     Fs3   v084
	BYTE		N12     As3   v088
	BYTE	W18
	BYTE		N06     Cs3 
	BYTE		N06     Ds3   v084
	BYTE		N06     Fs3   v088
	BYTE		N06     As3   v084
	BYTE	W18
	BYTE		N60     Ds3 
	BYTE		N60     Gs3   v088
	BYTE		N60     Cn4 
	BYTE	W60
// 023   ----------------------------------------
	BYTE	W96
// 024   ----------------------------------------
	BYTE	W96
// 025   ----------------------------------------
	BYTE	W96
// 026   ----------------------------------------
	BYTE	W96
// 027   ----------------------------------------
	BYTE	W96
// 028   ----------------------------------------
	BYTE	W96
// 029   ----------------------------------------
	BYTE	W96
// 030   ----------------------------------------
	BYTE	W96
// 031   ----------------------------------------
	BYTE	W96
// 032   ----------------------------------------
	BYTE	W96
// 033   ----------------------------------------
	BYTE	W96
// 034   ----------------------------------------
	BYTE	W96
// 035   ----------------------------------------
	BYTE	W96
// 036   ----------------------------------------
	BYTE	W96
// 037   ----------------------------------------
	BYTE	W96
// 038   ----------------------------------------
	BYTE	W96
// 039   ----------------------------------------
	BYTE		N90     Cs3 
	BYTE		N90     Ds3 
	BYTE		N90     Fs3   v084
	BYTE		N90     As3   v088
	BYTE	W96
// 040   ----------------------------------------
	BYTE		        Cn3   v084
	BYTE		N90     Ds3   v088
	BYTE		N90     Fn3 
	BYTE		N90     Gs3   v084
	BYTE	W96
// 041   ----------------------------------------
	BYTE		        Cs3 
	BYTE		N90     Ds3   v088
	BYTE		N90     Fs3   v084
	BYTE		N90     As3   v088
	BYTE	W96
// 042   ----------------------------------------
	BYTE		N12     Cs3 
	BYTE		N12     Ds3 
	BYTE		N12     Fs3 
	BYTE		N12     As3 
	BYTE	W18
	BYTE		N06     Cs3 
	BYTE		N06     Ds3   v084
	BYTE		N06     Fs3   v088
	BYTE		N06     As3   v084
	BYTE	W18
	BYTE		N60     Ds3   v088
	BYTE		N60     Gs3 
	BYTE		N60     Cn4 
	BYTE	W60
// 043   ----------------------------------------
	BYTE	W96
// 044   ----------------------------------------
	BYTE	W96
// 045   ----------------------------------------
	BYTE	W96
// 046   ----------------------------------------
	BYTE	W96
// 047   ----------------------------------------
	BYTE	W96
// 048   ----------------------------------------
	BYTE	W96
// 049   ----------------------------------------
	BYTE	W96
// 050   ----------------------------------------
	BYTE	W96
// 051   ----------------------------------------
	BYTE	W96
// 052   ----------------------------------------
	BYTE	W96
// 053   ----------------------------------------
	BYTE	W96
// 054   ----------------------------------------
	BYTE	W96
// 055   ----------------------------------------
	BYTE	W96
// 056   ----------------------------------------
	BYTE	W96
// 057   ----------------------------------------
	BYTE	W96
// 058   ----------------------------------------
	BYTE	W96
// 059   ----------------------------------------
	BYTE	W96
// 060   ----------------------------------------
	BYTE	W96
// 061   ----------------------------------------
	BYTE	W96
// 062   ----------------------------------------
	BYTE	W96
// 063   ----------------------------------------
	BYTE	W96
// 064   ----------------------------------------
	BYTE	W96
// 065   ----------------------------------------
	BYTE	W96
// 066   ----------------------------------------
	BYTE	W96
// 067   ----------------------------------------
	BYTE	W96
// 068   ----------------------------------------
	BYTE	W96
// 069   ----------------------------------------
	BYTE	W96
// 070   ----------------------------------------
	BYTE	W96
// 071   ----------------------------------------
	BYTE	W96
// 072   ----------------------------------------
	BYTE	W96
// 073   ----------------------------------------
	BYTE	W96
// 074   ----------------------------------------
	BYTE	W96
// 075   ----------------------------------------
never_gonna_4_075:
	BYTE		N90     Cs3   v084
	BYTE		N90     Ds3 
	BYTE		N90     Fs3   v088
	BYTE		N90     As3   v084
	BYTE	W96
	BYTE	PEND
// 076   ----------------------------------------
	BYTE		        Cn3   v088
	BYTE		N90     Ds3 
	BYTE		N90     Fn3 
	BYTE		N90     Gs3   v084
	BYTE	W96
// 077   ----------------------------------------
	BYTE	PATT
	 POIN2	never_gonna_4_075
// 078   ----------------------------------------
	BYTE		N12     Cs3   v088
	BYTE		N12     Ds3 
	BYTE		N12     Fs3 
	BYTE		N12     As3   v084
	BYTE	W18
	BYTE		N06     Cs3 
	BYTE		N06     Ds3   v088
	BYTE		N06     Fs3   v084
	BYTE		N06     As3   v088
	BYTE	W18
	BYTE		N60     Ds3 
	BYTE		N60     Gs3 
	BYTE		N60     Cn4   v084
	BYTE	W60
// 079   ----------------------------------------
	BYTE	W96
// 080   ----------------------------------------
	BYTE	W96
// 081   ----------------------------------------
	BYTE	W96
// 082   ----------------------------------------
	BYTE	W96
// 083   ----------------------------------------
	BYTE	W96
// 084   ----------------------------------------
	BYTE	W96
// 085   ----------------------------------------
	BYTE	W96
// 086   ----------------------------------------
	BYTE	W96
// 087   ----------------------------------------
	BYTE	W96
// 088   ----------------------------------------
	BYTE	W96
// 089   ----------------------------------------
	BYTE	W96
// 090   ----------------------------------------
	BYTE	W96
// 091   ----------------------------------------
	BYTE	W96
// 092   ----------------------------------------
	BYTE	W96
// 093   ----------------------------------------
	BYTE	W96
// 094   ----------------------------------------
	BYTE	W96
// 095   ----------------------------------------
	BYTE	W96
// 096   ----------------------------------------
	BYTE	W96
// 097   ----------------------------------------
	BYTE	W96
// 098   ----------------------------------------
	BYTE	W96
// 099   ----------------------------------------
	BYTE	W96
// 100   ----------------------------------------
	BYTE	W96
// 101   ----------------------------------------
	BYTE	W96
// 102   ----------------------------------------
	BYTE	W96
// 103   ----------------------------------------
	BYTE	W36
	BYTE	GoTo
	 POIN2	never_gonna_4_B1
never_gonna_4_B2:
	BYTE	W60
// 104   ----------------------------------------
	BYTE	W96
// 105   ----------------------------------------
	BYTE	W28
	BYTE	FINE

//**************** Track 5 (Midi-Chn.6) ****************//

never_gonna_5:
	BYTE	KEYSH   never_gonna_key+0
// 000   ----------------------------------------
	BYTE	W21
	BYTE	W09
	BYTE		VOICE   28
	BYTE	W01
	BYTE		VOL     100*never_gonna_mvl/mxv
	BYTE		PAN     c_v-30
	BYTE	W23
	BYTE	W01
	BYTE	W40
	BYTE	W01
// 001   ----------------------------------------
	BYTE	W96
// 002   ----------------------------------------
	BYTE	W96
// 003   ----------------------------------------
	BYTE	W96
never_gonna_5_B1:
// 004   ----------------------------------------
	BYTE	W96
// 005   ----------------------------------------
	BYTE	W96
// 006   ----------------------------------------
	BYTE	W96
// 007   ----------------------------------------
	BYTE	W96
// 008   ----------------------------------------
	BYTE	W96
// 009   ----------------------------------------
	BYTE	W96
// 010   ----------------------------------------
	BYTE	W96
// 011   ----------------------------------------
	BYTE	W96
// 012   ----------------------------------------
	BYTE	W96
// 013   ----------------------------------------
	BYTE	W96
// 014   ----------------------------------------
	BYTE	W96
// 015   ----------------------------------------
	BYTE	W96
// 016   ----------------------------------------
	BYTE	W96
// 017   ----------------------------------------
	BYTE	W96
// 018   ----------------------------------------
	BYTE	W96
// 019   ----------------------------------------
	BYTE	W96
// 020   ----------------------------------------
	BYTE	W96
// 021   ----------------------------------------
	BYTE	W96
// 022   ----------------------------------------
	BYTE	W96
// 023   ----------------------------------------
	BYTE	W96
// 024   ----------------------------------------
	BYTE	W96
// 025   ----------------------------------------
	BYTE	W96
// 026   ----------------------------------------
	BYTE	W96
// 027   ----------------------------------------
	BYTE	W96
// 028   ----------------------------------------
	BYTE	W96
// 029   ----------------------------------------
	BYTE	W96
// 030   ----------------------------------------
	BYTE	W96
// 031   ----------------------------------------
	BYTE	W96
// 032   ----------------------------------------
	BYTE	W96
// 033   ----------------------------------------
	BYTE	W96
// 034   ----------------------------------------
	BYTE	W96
// 035   ----------------------------------------
	BYTE	W96
// 036   ----------------------------------------
	BYTE	W96
// 037   ----------------------------------------
	BYTE	W96
// 038   ----------------------------------------
	BYTE	W96
// 039   ----------------------------------------
	BYTE	W96
// 040   ----------------------------------------
	BYTE	W96
// 041   ----------------------------------------
	BYTE	W96
// 042   ----------------------------------------
	BYTE	W96
// 043   ----------------------------------------
	BYTE	W96
// 044   ----------------------------------------
	BYTE	W96
// 045   ----------------------------------------
	BYTE	W96
// 046   ----------------------------------------
	BYTE	W96
// 047   ----------------------------------------
	BYTE	W96
// 048   ----------------------------------------
	BYTE	W96
// 049   ----------------------------------------
	BYTE	W96
// 050   ----------------------------------------
	BYTE	W96
// 051   ----------------------------------------
	BYTE	W96
// 052   ----------------------------------------
	BYTE	W96
// 053   ----------------------------------------
	BYTE	W96
// 054   ----------------------------------------
	BYTE	W96
// 055   ----------------------------------------
	BYTE	W96
// 056   ----------------------------------------
	BYTE	W96
// 057   ----------------------------------------
	BYTE	W96
// 058   ----------------------------------------
	BYTE	W96
// 059   ----------------------------------------
	BYTE	W54
	BYTE		N02     Fn1   v080
	BYTE	W06
	BYTE		N02   
	BYTE	W06
	BYTE		        Fn1   v084
	BYTE	W06
	BYTE		        Gs1   v080
	BYTE	W06
	BYTE		        As1 
	BYTE	W12
	BYTE		N02   
	BYTE	W06
// 060   ----------------------------------------
	BYTE	W54
	BYTE		N02   
	BYTE	W06
	BYTE		        As1   v084
	BYTE	W06
	BYTE		N02   
	BYTE	W06
	BYTE		        Cs2   v080
	BYTE	W06
	BYTE		        Ds2 
	BYTE	W12
	BYTE		N02   
	BYTE	W06
// 061   ----------------------------------------
	BYTE	W54
	BYTE		        Fn1 
	BYTE	W06
	BYTE		N02   
	BYTE	W06
	BYTE		        Fn1   v084
	BYTE	W06
	BYTE		        Gs1 
	BYTE	W06
	BYTE		        As1   v080
	BYTE	W12
	BYTE		N02   
	BYTE	W06
// 062   ----------------------------------------
	BYTE	W54
	BYTE		N02   
	BYTE	W06
	BYTE		N02   
	BYTE	W06
	BYTE		N02   
	BYTE	W06
	BYTE		        Cs2   v084
	BYTE	W06
	BYTE		        Ds2   v080
	BYTE	W12
	BYTE		N02   
	BYTE	W06
// 063   ----------------------------------------
	BYTE	W54
	BYTE		        Fn1 
	BYTE	W06
	BYTE		N02   
	BYTE	W06
	BYTE		N02   
	BYTE	W06
	BYTE		        Gs1 
	BYTE	W06
	BYTE		        As1 
	BYTE	W12
	BYTE		N02   
	BYTE	W06
// 064   ----------------------------------------
	BYTE	W54
	BYTE		        As1   v084
	BYTE	W06
	BYTE		        As1   v080
	BYTE	W06
	BYTE		N02   
	BYTE	W06
	BYTE		        Cs2   v084
	BYTE	W06
	BYTE		        Ds2 
	BYTE	W12
	BYTE		N02   
	BYTE	W06
// 065   ----------------------------------------
	BYTE	W54
	BYTE		        Fn1   v080
	BYTE	W06
	BYTE		        Fn1   v084
	BYTE	W06
	BYTE		N02   
	BYTE	W06
	BYTE		        Gs1 
	BYTE	W06
	BYTE		        As1   v080
	BYTE	W12
	BYTE		N02   
	BYTE	W06
// 066   ----------------------------------------
	BYTE	W54
	BYTE		        As1   v084
	BYTE	W06
	BYTE		        As1   v080
	BYTE	W06
	BYTE		        As1   v084
	BYTE	W06
	BYTE		        Cs2 
	BYTE	W06
	BYTE		        Ds2 
	BYTE	W18
// 067   ----------------------------------------
	BYTE	W96
// 068   ----------------------------------------
	BYTE	W96
// 069   ----------------------------------------
	BYTE	W96
// 070   ----------------------------------------
	BYTE	W96
// 071   ----------------------------------------
	BYTE	W96
// 072   ----------------------------------------
	BYTE	W96
// 073   ----------------------------------------
	BYTE	W96
// 074   ----------------------------------------
	BYTE	W96
// 075   ----------------------------------------
	BYTE	W96
// 076   ----------------------------------------
	BYTE	W96
// 077   ----------------------------------------
	BYTE	W96
// 078   ----------------------------------------
	BYTE	W96
// 079   ----------------------------------------
	BYTE	W96
// 080   ----------------------------------------
	BYTE	W96
// 081   ----------------------------------------
	BYTE	W96
// 082   ----------------------------------------
	BYTE	W96
// 083   ----------------------------------------
	BYTE	W96
// 084   ----------------------------------------
	BYTE	W96
// 085   ----------------------------------------
	BYTE	W96
// 086   ----------------------------------------
	BYTE	W96
// 087   ----------------------------------------
	BYTE	W96
// 088   ----------------------------------------
	BYTE	W96
// 089   ----------------------------------------
	BYTE	W96
// 090   ----------------------------------------
	BYTE	W96
// 091   ----------------------------------------
	BYTE	W96
// 092   ----------------------------------------
	BYTE	W96
// 093   ----------------------------------------
	BYTE	W96
// 094   ----------------------------------------
	BYTE	W96
// 095   ----------------------------------------
	BYTE	W96
// 096   ----------------------------------------
	BYTE	W96
// 097   ----------------------------------------
	BYTE	W96
// 098   ----------------------------------------
	BYTE	W96
// 099   ----------------------------------------
	BYTE	W96
// 100   ----------------------------------------
	BYTE	W96
// 101   ----------------------------------------
	BYTE	W96
// 102   ----------------------------------------
	BYTE	W96
// 103   ----------------------------------------
	BYTE	W36
	BYTE	GoTo
	 POIN2	never_gonna_5_B1
never_gonna_5_B2:
	BYTE	W60
// 104   ----------------------------------------
	BYTE	W96
// 105   ----------------------------------------
	BYTE	W28
	BYTE	FINE

//**************** Track 6 (Midi-Chn.7) ****************//

never_gonna_6:
	BYTE	KEYSH   never_gonna_key+0
// 000   ----------------------------------------
	BYTE	W21
	BYTE	W10
	BYTE	W01
	BYTE		VOICE   27
	BYTE		VOL     100*never_gonna_mvl/mxv
	BYTE		PAN     c_v+30
	BYTE	W23
	BYTE	W01
	BYTE	W40
// 001   ----------------------------------------
	BYTE	W96
// 002   ----------------------------------------
	BYTE	W96
// 003   ----------------------------------------
	BYTE	W96
never_gonna_6_B1:
// 004   ----------------------------------------
	BYTE	W96
// 005   ----------------------------------------
	BYTE	W96
// 006   ----------------------------------------
	BYTE	W96
// 007   ----------------------------------------
	BYTE	W96
// 008   ----------------------------------------
	BYTE	W96
// 009   ----------------------------------------
	BYTE	W96
// 010   ----------------------------------------
	BYTE	W96
// 011   ----------------------------------------
	BYTE	W96
// 012   ----------------------------------------
	BYTE	W96
// 013   ----------------------------------------
	BYTE	W96
// 014   ----------------------------------------
	BYTE	W96
// 015   ----------------------------------------
	BYTE	W96
// 016   ----------------------------------------
	BYTE	W96
// 017   ----------------------------------------
	BYTE	W96
// 018   ----------------------------------------
	BYTE	W96
// 019   ----------------------------------------
	BYTE	W96
// 020   ----------------------------------------
	BYTE	W96
// 021   ----------------------------------------
	BYTE	W96
// 022   ----------------------------------------
	BYTE	W96
// 023   ----------------------------------------
	BYTE	W96
// 024   ----------------------------------------
	BYTE	W96
// 025   ----------------------------------------
	BYTE	W96
// 026   ----------------------------------------
	BYTE	W96
// 027   ----------------------------------------
	BYTE	W96
// 028   ----------------------------------------
	BYTE	W96
// 029   ----------------------------------------
	BYTE	W96
// 030   ----------------------------------------
	BYTE	W96
// 031   ----------------------------------------
	BYTE	W96
// 032   ----------------------------------------
	BYTE	W96
// 033   ----------------------------------------
	BYTE	W96
// 034   ----------------------------------------
	BYTE	W96
// 035   ----------------------------------------
	BYTE	W96
// 036   ----------------------------------------
	BYTE	W96
// 037   ----------------------------------------
	BYTE	W96
// 038   ----------------------------------------
	BYTE	W96
// 039   ----------------------------------------
	BYTE	W96
// 040   ----------------------------------------
	BYTE	W96
// 041   ----------------------------------------
	BYTE	W96
// 042   ----------------------------------------
	BYTE	W96
// 043   ----------------------------------------
	BYTE	W96
// 044   ----------------------------------------
	BYTE	W96
// 045   ----------------------------------------
	BYTE	W96
// 046   ----------------------------------------
	BYTE	W96
// 047   ----------------------------------------
	BYTE	W96
// 048   ----------------------------------------
	BYTE	W96
// 049   ----------------------------------------
	BYTE	W96
// 050   ----------------------------------------
	BYTE	W96
// 051   ----------------------------------------
	BYTE	W96
// 052   ----------------------------------------
	BYTE	W96
// 053   ----------------------------------------
	BYTE	W96
// 054   ----------------------------------------
	BYTE	W96
// 055   ----------------------------------------
	BYTE	W96
// 056   ----------------------------------------
	BYTE	W96
// 057   ----------------------------------------
	BYTE	W96
// 058   ----------------------------------------
	BYTE	W96
// 059   ----------------------------------------
	BYTE		N10     As2   v088
	BYTE		N10     Cs3 
	BYTE		N10     Fn3 
	BYTE	W18
	BYTE		N03     As2 
	BYTE		N03     Cs3   v084
	BYTE		N03     Fn3 
	BYTE	W18
	BYTE		        As2 
	BYTE		N03     Cs3   v088
	BYTE		N03     Fn3 
	BYTE	W12
	BYTE		N10     As2 
	BYTE		N10     Cs3   v084
	BYTE		N10     Fn3   v088
	BYTE	W18
	BYTE		N03     As2 
	BYTE		N03     Cs3   v084
	BYTE		N03     Fn3   v088
	BYTE	W18
	BYTE		        As2   v084
	BYTE		N03     Cs3 
	BYTE		N03     Fn3   v088
	BYTE	W12
// 060   ----------------------------------------
	BYTE	W12
	BYTE		        As2   v084
	BYTE		N03     Cs3   v088
	BYTE		N03     Fn3 
	BYTE	W06
	BYTE		        As2 
	BYTE		N03     Cs3 
	BYTE		N03     Fn3 
	BYTE	W06
	BYTE		N10     As2 
	BYTE		N10     Cs3 
	BYTE		N10     Fn3 
	BYTE	W12
	BYTE		N03     Gs2 
	BYTE		N03     Cn3 
	BYTE		N03     Ds3   v084
	BYTE	W60
// 061   ----------------------------------------
	BYTE		N10     As2   v088
	BYTE		N10     Cs3 
	BYTE		N10     Fn3 
	BYTE	W18
	BYTE		N03     As2 
	BYTE		N03     Cs3 
	BYTE		N03     Fn3 
	BYTE	W18
	BYTE		        As2 
	BYTE		N03     Cs3 
	BYTE		N03     Fn3 
	BYTE	W12
	BYTE		N10     As2 
	BYTE		N10     Cs3 
	BYTE		N10     Fn3 
	BYTE	W18
	BYTE		N03     As2   v084
	BYTE		N03     Cs3   v088
	BYTE		N03     Fn3 
	BYTE	W18
	BYTE		        As2 
	BYTE		N03     Cs3 
	BYTE		N03     Fn3   v084
	BYTE	W12
// 062   ----------------------------------------
	BYTE	W12
	BYTE		        As2 
	BYTE		N03     Cs3   v088
	BYTE		N03     Fn3 
	BYTE	W06
	BYTE		        As2 
	BYTE		N03     Cs3 
	BYTE		N03     Fn3 
	BYTE	W06
	BYTE		N10     As2   v084
	BYTE		N10     Cs3   v088
	BYTE		N10     Fn3 
	BYTE	W12
	BYTE		N03     Gs2 
	BYTE		N03     Cn3 
	BYTE		N03     Ds3 
	BYTE	W60
// 063   ----------------------------------------
	BYTE		N10     As2   v084
	BYTE		N10     Cs3   v088
	BYTE		N10     Fn3 
	BYTE	W18
	BYTE		N03     As2 
	BYTE		N03     Cs3 
	BYTE		N03     Fn3   v084
	BYTE	W18
	BYTE		        As2   v088
	BYTE		N03     Cs3 
	BYTE		N03     Fn3 
	BYTE	W12
	BYTE		N10     As2 
	BYTE		N10     Cs3 
	BYTE		N10     Fn3 
	BYTE	W18
	BYTE		N03     As2   v084
	BYTE		N03     Cs3   v088
	BYTE		N03     Fn3 
	BYTE	W18
	BYTE		        As2 
	BYTE		N03     Cs3 
	BYTE		N03     Fn3 
	BYTE	W12
// 064   ----------------------------------------
	BYTE	W12
	BYTE		        As2 
	BYTE		N03     Cs3 
	BYTE		N03     Fn3 
	BYTE	W06
	BYTE		        As2 
	BYTE		N03     Cs3 
	BYTE		N03     Fn3 
	BYTE	W06
	BYTE		N10     As2 
	BYTE		N10     Cs3 
	BYTE		N10     Fn3 
	BYTE	W12
	BYTE		N03     Gs2   v084
	BYTE		N03     Cn3 
	BYTE		N03     Ds3   v088
	BYTE	W60
// 065   ----------------------------------------
	BYTE		N10     As2 
	BYTE		N10     Cs3 
	BYTE		N10     Fn3 
	BYTE	W18
	BYTE		N03     As2 
	BYTE		N03     Cs3 
	BYTE		N03     Fn3 
	BYTE	W18
	BYTE		        As2 
	BYTE		N03     Cs3 
	BYTE		N03     Fn3   v084
	BYTE	W12
	BYTE		N10     As2   v088
	BYTE		N10     Cs3 
	BYTE		N10     Fn3 
	BYTE	W18
	BYTE		N03     As2 
	BYTE		N03     Cs3 
	BYTE		N03     Fn3 
	BYTE	W18
	BYTE		        As2 
	BYTE		N03     Cs3 
	BYTE		N03     Fn3   v084
	BYTE	W12
// 066   ----------------------------------------
	BYTE	W12
	BYTE		        As2 
	BYTE		N03     Cs3   v088
	BYTE		N03     Fn3 
	BYTE	W06
	BYTE		        As2 
	BYTE		N03     Cs3 
	BYTE		N03     Fn3 
	BYTE	W06
	BYTE		N10     As2 
	BYTE		N10     Cs3 
	BYTE		N10     Fn3 
	BYTE	W12
	BYTE		N03     Gs2 
	BYTE		N03     Cn3 
	BYTE		N03     Ds3 
	BYTE	W60
// 067   ----------------------------------------
	BYTE	W96
// 068   ----------------------------------------
	BYTE	W96
// 069   ----------------------------------------
	BYTE	W96
// 070   ----------------------------------------
	BYTE	W96
// 071   ----------------------------------------
	BYTE	W96
// 072   ----------------------------------------
	BYTE	W96
// 073   ----------------------------------------
	BYTE	W96
// 074   ----------------------------------------
	BYTE	W96
// 075   ----------------------------------------
	BYTE	W96
// 076   ----------------------------------------
	BYTE	W96
// 077   ----------------------------------------
	BYTE	W96
// 078   ----------------------------------------
	BYTE	W96
// 079   ----------------------------------------
	BYTE	W96
// 080   ----------------------------------------
	BYTE	W96
// 081   ----------------------------------------
	BYTE	W96
// 082   ----------------------------------------
	BYTE	W96
// 083   ----------------------------------------
	BYTE	W96
// 084   ----------------------------------------
	BYTE	W96
// 085   ----------------------------------------
	BYTE	W96
// 086   ----------------------------------------
	BYTE	W96
// 087   ----------------------------------------
	BYTE	W96
// 088   ----------------------------------------
	BYTE	W96
// 089   ----------------------------------------
	BYTE	W96
// 090   ----------------------------------------
	BYTE	W96
// 091   ----------------------------------------
	BYTE	W96
// 092   ----------------------------------------
	BYTE	W96
// 093   ----------------------------------------
	BYTE	W96
// 094   ----------------------------------------
	BYTE	W96
// 095   ----------------------------------------
	BYTE	W96
// 096   ----------------------------------------
	BYTE	W96
// 097   ----------------------------------------
	BYTE	W96
// 098   ----------------------------------------
	BYTE	W96
// 099   ----------------------------------------
	BYTE	W96
// 100   ----------------------------------------
	BYTE	W96
// 101   ----------------------------------------
	BYTE	W96
// 102   ----------------------------------------
	BYTE	W96
// 103   ----------------------------------------
	BYTE	W36
	BYTE	GoTo
	 POIN2	never_gonna_6_B1
never_gonna_6_B2:
	BYTE	W60
// 104   ----------------------------------------
	BYTE	W96
// 105   ----------------------------------------
	BYTE	W28
	BYTE	FINE

//**************** Track 7 (Midi-Chn.8) ****************//

never_gonna_7:
	BYTE	KEYSH   never_gonna_key+0
// 000   ----------------------------------------
	BYTE	W21
	BYTE	W11
	BYTE	W01
	BYTE		VOICE   61
	BYTE		VOL     100*never_gonna_mvl/mxv
	BYTE		PAN     c_v+0
	BYTE	W23
	BYTE	W01
	BYTE	W36
	BYTE	W03
// 001   ----------------------------------------
	BYTE	W96
// 002   ----------------------------------------
	BYTE	W96
// 003   ----------------------------------------
	BYTE	W96
never_gonna_7_B1:
// 004   ----------------------------------------
	BYTE	W96
// 005   ----------------------------------------
	BYTE	W96
// 006   ----------------------------------------
	BYTE	W72
	BYTE		N04     As2   v096
	BYTE		N04     As3   v116
	BYTE	W06
	BYTE		        Cs3   v092
	BYTE		N04     Cs4   v116
	BYTE	W06
	BYTE		        As2   v092
	BYTE		N04     As3   v120
	BYTE	W06
	BYTE		        Cs3   v092
	BYTE		N04     Cs4   v120
	BYTE	W06
// 007   ----------------------------------------
	BYTE	W96
// 008   ----------------------------------------
	BYTE	W96
// 009   ----------------------------------------
	BYTE	W96
// 010   ----------------------------------------
	BYTE	W60
	BYTE		        Cs4   v088
	BYTE		N04     Cs5   v108
	BYTE	W06
	BYTE		        Cs4   v088
	BYTE		N04     Cs5   v104
	BYTE	W06
	BYTE		        Cs4   v088
	BYTE		N04     Cs5   v104
	BYTE	W06
	BYTE		        Cs4   v088
	BYTE		N04     Cs5   v104
	BYTE	W12
	BYTE		        Cs4   v088
	BYTE		N04     Cs5   v108
	BYTE	W06
// 011   ----------------------------------------
	BYTE	W96
// 012   ----------------------------------------
	BYTE	W96
// 013   ----------------------------------------
	BYTE	W96
// 014   ----------------------------------------
	BYTE	W96
// 015   ----------------------------------------
	BYTE	W96
// 016   ----------------------------------------
	BYTE	W96
// 017   ----------------------------------------
	BYTE		N96     Gs3   v072
	BYTE		N96     Gs4   v088
	BYTE	W96
// 018   ----------------------------------------
	BYTE	W12
	BYTE		N12     Fn3   v076
	BYTE		N12     Fn4   v084
	BYTE	W24
	BYTE		        Ds3   v072
	BYTE		N12     Ds4   v088
	BYTE	W24
	BYTE		        Cs3   v072
	BYTE		N12     Cs4   v084
	BYTE	W24
	BYTE		N96     As2   v076
	BYTE		N96     As3   v084
	BYTE	W12
// 019   ----------------------------------------
	BYTE	W96
// 020   ----------------------------------------
	BYTE	W96
// 021   ----------------------------------------
	BYTE	W96
// 022   ----------------------------------------
	BYTE	W60
	BYTE		N04     Gs2 
	BYTE		N04     Gs3 
	BYTE		N04     Gs4   v108
	BYTE	W06
	BYTE		        Gs2   v084
	BYTE		N04     Gs3   v112
	BYTE		N04     Gs4 
	BYTE	W30
// 023   ----------------------------------------
	BYTE	W96
// 024   ----------------------------------------
	BYTE	W96
// 025   ----------------------------------------
	BYTE	W96
// 026   ----------------------------------------
	BYTE	W60
	BYTE		        Gs2   v084
	BYTE		N04     Gs3   v088
	BYTE		N04     Gs4   v112
	BYTE	W06
	BYTE		        Gs2   v084
	BYTE		N04     Gs3 
	BYTE		N04     Gs4   v108
	BYTE	W30
// 027   ----------------------------------------
	BYTE	W96
// 028   ----------------------------------------
	BYTE	W96
// 029   ----------------------------------------
	BYTE	W96
// 030   ----------------------------------------
	BYTE	W60
	BYTE		        Cs4   v084
	BYTE		N04     Cs5   v112
	BYTE	W06
	BYTE		        Cs4   v084
	BYTE		N04     Cs5   v108
	BYTE	W06
	BYTE		        Cs4   v084
	BYTE		N04     Cs5   v112
	BYTE	W06
	BYTE		        Cs4   v088
	BYTE		N04     Cs5   v112
	BYTE	W12
	BYTE		        Cs4   v088
	BYTE		N04     Cs5   v112
	BYTE	W06
// 031   ----------------------------------------
	BYTE	W96
// 032   ----------------------------------------
	BYTE	W96
// 033   ----------------------------------------
	BYTE	W96
// 034   ----------------------------------------
	BYTE	W96
// 035   ----------------------------------------
	BYTE	W96
// 036   ----------------------------------------
	BYTE	W96
// 037   ----------------------------------------
	BYTE		N96     Gs3   v072
	BYTE		N96     Gs4   v084
	BYTE	W96
// 038   ----------------------------------------
	BYTE	W12
	BYTE		N12     Fn3   v076
	BYTE		N12     Fn4   v088
	BYTE	W24
	BYTE		        Ds3   v072
	BYTE		N12     Ds4   v084
	BYTE	W24
	BYTE		        Cs3   v072
	BYTE		N12     Cs4   v084
	BYTE	W24
	BYTE		N96     As2   v072
	BYTE		N96     As3   v084
	BYTE	W12
// 039   ----------------------------------------
	BYTE	W96
// 040   ----------------------------------------
	BYTE	W96
// 041   ----------------------------------------
	BYTE	W96
// 042   ----------------------------------------
	BYTE	W60
	BYTE		N04     Gs2 
	BYTE		N04     Gs3 
	BYTE		N04     Gs4   v108
	BYTE	W06
	BYTE		        Gs2   v088
	BYTE		N04     Gs3   v112
	BYTE		N04     Gs4   v108
	BYTE	W30
// 043   ----------------------------------------
	BYTE	W96
// 044   ----------------------------------------
	BYTE	W96
// 045   ----------------------------------------
	BYTE	W96
// 046   ----------------------------------------
never_gonna_7_046:
	BYTE	W60
	BYTE		N04     Gs2   v084
	BYTE		N04     Gs3 
	BYTE		N04     Gs4   v108
	BYTE	W06
	BYTE		        Gs2   v084
	BYTE		N04     Gs3 
	BYTE		N04     Gs4   v112
	BYTE	W30
	BYTE	PEND
// 047   ----------------------------------------
	BYTE	W96
// 048   ----------------------------------------
	BYTE	W96
// 049   ----------------------------------------
	BYTE	W96
// 050   ----------------------------------------
	BYTE	W60
	BYTE		        Cs4   v088
	BYTE		N04     Cs5   v108
	BYTE	W06
	BYTE		        Cs4   v084
	BYTE		N04     Cs5   v112
	BYTE	W06
	BYTE		        Cs4   v084
	BYTE		N04     Cs5   v112
	BYTE	W06
	BYTE		        Cs4   v084
	BYTE		N04     Cs5   v108
	BYTE	W12
	BYTE		        Cs4   v084
	BYTE		N04     Cs5   v108
	BYTE	W06
// 051   ----------------------------------------
	BYTE	W96
// 052   ----------------------------------------
	BYTE	W96
// 053   ----------------------------------------
	BYTE	W96
// 054   ----------------------------------------
	BYTE	W60
	BYTE		        Gs2   v084
	BYTE		N04     Gs3 
	BYTE		N04     Gs4   v108
	BYTE	W06
	BYTE		        Gs2   v084
	BYTE		N04     Gs3 
	BYTE		N04     Gs4   v108
	BYTE	W30
// 055   ----------------------------------------
	BYTE	W96
// 056   ----------------------------------------
	BYTE	W96
// 057   ----------------------------------------
	BYTE	W96
// 058   ----------------------------------------
	BYTE	W60
	BYTE		        Cs4   v084
	BYTE		N04     Cs5   v112
	BYTE	W06
	BYTE		        Cs4   v084
	BYTE		N04     Cs5   v112
	BYTE	W06
	BYTE		        Cs4   v088
	BYTE		N04     Cs5   v108
	BYTE	W06
	BYTE		        Cs4   v084
	BYTE		N04     Cs5   v112
	BYTE	W12
	BYTE		        Cs4   v084
	BYTE		N04     Cs5   v108
	BYTE	W06
// 059   ----------------------------------------
	BYTE	W96
// 060   ----------------------------------------
	BYTE	W96
// 061   ----------------------------------------
	BYTE	W96
// 062   ----------------------------------------
	BYTE	W96
// 063   ----------------------------------------
	BYTE	W96
// 064   ----------------------------------------
	BYTE	W96
// 065   ----------------------------------------
	BYTE	W96
// 066   ----------------------------------------
	BYTE	W96
// 067   ----------------------------------------
	BYTE	W96
// 068   ----------------------------------------
	BYTE	W96
// 069   ----------------------------------------
	BYTE	W96
// 070   ----------------------------------------
	BYTE	W96
// 071   ----------------------------------------
	BYTE	W96
// 072   ----------------------------------------
	BYTE	W96
// 073   ----------------------------------------
	BYTE	W96
// 074   ----------------------------------------
	BYTE	W96
// 075   ----------------------------------------
	BYTE	W96
// 076   ----------------------------------------
	BYTE	W96
// 077   ----------------------------------------
	BYTE	W96
// 078   ----------------------------------------
	BYTE	W60
	BYTE		        Gs2   v084
	BYTE		N04     Gs3   v112
	BYTE		N04     Gs4 
	BYTE	W06
	BYTE		        Gs2   v084
	BYTE		N04     Gs3 
	BYTE		N04     Gs4   v112
	BYTE	W30
// 079   ----------------------------------------
	BYTE	W96
// 080   ----------------------------------------
	BYTE	W96
// 081   ----------------------------------------
	BYTE	W96
// 082   ----------------------------------------
	BYTE	PATT
	 POIN2	never_gonna_7_046
// 083   ----------------------------------------
	BYTE	W96
// 084   ----------------------------------------
	BYTE	W96
// 085   ----------------------------------------
	BYTE	W96
// 086   ----------------------------------------
	BYTE	W60
	BYTE		N04     Cs4   v084
	BYTE		N04     Cs5   v108
	BYTE	W06
	BYTE		        Cs4   v084
	BYTE		N04     Cs5   v112
	BYTE	W06
	BYTE		        Cs4   v084
	BYTE		N04     Cs5   v112
	BYTE	W06
	BYTE		        Cs4   v084
	BYTE		N04     Cs5   v108
	BYTE	W12
	BYTE		        Cs4   v084
	BYTE		N04     Cs5   v112
	BYTE	W06
// 087   ----------------------------------------
	BYTE	W96
// 088   ----------------------------------------
	BYTE	W96
// 089   ----------------------------------------
	BYTE	W96
// 090   ----------------------------------------
	BYTE	W60
	BYTE		        Gs2   v084
	BYTE		N04     Gs3   v088
	BYTE		N04     Gs4   v108
	BYTE	W06
	BYTE		        Gs2   v084
	BYTE		N04     Gs3 
	BYTE		N04     Gs4   v108
	BYTE	W30
// 091   ----------------------------------------
	BYTE	W96
// 092   ----------------------------------------
	BYTE	W96
// 093   ----------------------------------------
	BYTE	W96
// 094   ----------------------------------------
	BYTE	W60
	BYTE		        Cs4   v084
	BYTE		N04     Cs5   v112
	BYTE	W06
	BYTE		        Cs4   v084
	BYTE		N04     Cs5   v108
	BYTE	W06
	BYTE		        Cs4   v084
	BYTE		N04     Cs5   v112
	BYTE	W06
	BYTE		        Cs4   v084
	BYTE		N04     Cs5   v108
	BYTE	W12
	BYTE		        Cs4   v084
	BYTE		N04     Cs5   v108
	BYTE	W06
// 095   ----------------------------------------
	BYTE	W96
// 096   ----------------------------------------
	BYTE	W96
// 097   ----------------------------------------
	BYTE	W96
// 098   ----------------------------------------
	BYTE	PATT
	 POIN2	never_gonna_7_046
// 099   ----------------------------------------
	BYTE	W96
// 100   ----------------------------------------
	BYTE	W96
// 101   ----------------------------------------
	BYTE	W96
// 102   ----------------------------------------
	BYTE	W96
// 103   ----------------------------------------
	BYTE	W36
	BYTE	GoTo
	 POIN2	never_gonna_7_B1
never_gonna_7_B2:
	BYTE	W60
// 104   ----------------------------------------
	BYTE	W96
// 105   ----------------------------------------
	BYTE	W28
	BYTE	FINE

//**************** Track 8 (Midi-Chn.9) ****************//

never_gonna_8:
	BYTE	KEYSH   never_gonna_key+0
// 000   ----------------------------------------
	BYTE	W22
	BYTE	W12
	BYTE		VOICE   48
	BYTE		VOL     100*never_gonna_mvl/mxv
	BYTE		PAN     c_v+0
	BYTE	W01
	BYTE	W23
	BYTE	W01
	BYTE	W36
	BYTE	W01
// 001   ----------------------------------------
	BYTE	W96
// 002   ----------------------------------------
	BYTE	W96
// 003   ----------------------------------------
	BYTE		N32     Cs3   v096
	BYTE	W36
	BYTE		        Ds3   v100
	BYTE	W36
	BYTE		N22     Gs2 
	BYTE	W24
never_gonna_8_B1:
// 004   ----------------------------------------
	BYTE		N32     Ds3   v096
	BYTE	W36
	BYTE		        Fn3   v100
	BYTE	W36
	BYTE		N05     Gs3 
	BYTE	W06
	BYTE		        Fs3 
	BYTE	W06
	BYTE		        Fn3 
	BYTE	W06
	BYTE		N36     Cs3 
	BYTE	W06
// 005   ----------------------------------------
	BYTE	W36
	BYTE		N32     Ds3   v096
	BYTE	W36
	BYTE		N80     Gs2 
	BYTE	W24
// 006   ----------------------------------------
	BYTE	W72
	BYTE		N05     Gs3 
	BYTE	W06
	BYTE		        Fs3   v100
	BYTE	W06
	BYTE		        Fn3   v096
	BYTE	W06
	BYTE		N36     Cs3   v100
	BYTE	W06
// 007   ----------------------------------------
	BYTE	W36
	BYTE		N32     Ds3   v096
	BYTE	W36
	BYTE		N22     Gs2   v100
	BYTE	W24
// 008   ----------------------------------------
	BYTE		N32     Ds3   v096
	BYTE	W36
	BYTE		        Fn3 
	BYTE	W36
	BYTE		N05     Gs3   v100
	BYTE	W06
	BYTE		        Fs3   v096
	BYTE	W06
	BYTE		        Fn3   v100
	BYTE	W06
	BYTE		N36     Cs3   v096
	BYTE	W06
// 009   ----------------------------------------
	BYTE	W36
	BYTE		N32     Ds3 
	BYTE	W36
	BYTE		TIE     Gs2   v100
	BYTE	W24
// 010   ----------------------------------------
	BYTE	W72
	BYTE	W03
	BYTE		EOT   
	BYTE	W21
// 011   ----------------------------------------
	BYTE	W96
// 012   ----------------------------------------
	BYTE	W96
// 013   ----------------------------------------
	BYTE	W96
// 014   ----------------------------------------
	BYTE	W96
// 015   ----------------------------------------
	BYTE	W96
// 016   ----------------------------------------
	BYTE	W96
// 017   ----------------------------------------
	BYTE	W96
// 018   ----------------------------------------
	BYTE	W96
// 019   ----------------------------------------
	BYTE	W96
// 020   ----------------------------------------
	BYTE	W96
// 021   ----------------------------------------
	BYTE	W96
// 022   ----------------------------------------
	BYTE	W96
// 023   ----------------------------------------
never_gonna_8_023:
	BYTE		N32     Cs4   v100
	BYTE	W36
	BYTE		        Ds4 
	BYTE	W36
	BYTE		N22     Gs3 
	BYTE	W24
	BYTE	PEND
// 024   ----------------------------------------
	BYTE		N32     Ds4   v096
	BYTE	W36
	BYTE		        Fn4   v100
	BYTE	W36
	BYTE		N05     Gs4   v096
	BYTE	W06
	BYTE		        Fs4   v100
	BYTE	W06
	BYTE		        Fn4   v096
	BYTE	W06
	BYTE		N36     Cs4   v100
	BYTE	W06
// 025   ----------------------------------------
never_gonna_8_025:
	BYTE	W36
	BYTE		N32     Ds4   v096
	BYTE	W36
	BYTE		N80     Gs3   v100
	BYTE	W24
	BYTE	PEND
// 026   ----------------------------------------
never_gonna_8_026:
	BYTE	W72
	BYTE		N05     Gs4   v100
	BYTE	W06
	BYTE		        Fs4   v096
	BYTE	W06
	BYTE		        Fn4   v100
	BYTE	W06
	BYTE		N36     Cs4 
	BYTE	W06
	BYTE	PEND
// 027   ----------------------------------------
	BYTE	W36
	BYTE		N32     Ds4   v096
	BYTE	W36
	BYTE		N22     Gs3   v100
	BYTE	W24
// 028   ----------------------------------------
	BYTE		N32     Ds4   v096
	BYTE	W36
	BYTE		        Fn4 
	BYTE	W36
	BYTE		N05     Gs4   v100
	BYTE	W06
	BYTE		        Fs4 
	BYTE	W06
	BYTE		        Fn4 
	BYTE	W06
	BYTE		N36     Cs4 
	BYTE	W06
// 029   ----------------------------------------
never_gonna_8_029:
	BYTE	W36
	BYTE		N32     Ds4   v100
	BYTE	W36
	BYTE		TIE     Gs3 
	BYTE	W24
	BYTE	PEND
// 030   ----------------------------------------
	BYTE	W72
	BYTE	W03
	BYTE		EOT   
	BYTE	W21
// 031   ----------------------------------------
	BYTE	W96
// 032   ----------------------------------------
	BYTE	W96
// 033   ----------------------------------------
	BYTE	W96
// 034   ----------------------------------------
	BYTE	W96
// 035   ----------------------------------------
	BYTE	W96
// 036   ----------------------------------------
	BYTE	W96
// 037   ----------------------------------------
	BYTE	W96
// 038   ----------------------------------------
	BYTE	W96
// 039   ----------------------------------------
	BYTE	W96
// 040   ----------------------------------------
	BYTE	W96
// 041   ----------------------------------------
	BYTE	W96
// 042   ----------------------------------------
	BYTE	W96
// 043   ----------------------------------------
	BYTE	PATT
	 POIN2	never_gonna_8_023
// 044   ----------------------------------------
never_gonna_8_044:
	BYTE		N32     Ds4   v100
	BYTE	W36
	BYTE		        Fn4   v096
	BYTE	W36
	BYTE		N05     Gs4 
	BYTE	W06
	BYTE		        Fs4   v100
	BYTE	W06
	BYTE		        Fn4 
	BYTE	W06
	BYTE		N36     Cs4 
	BYTE	W06
	BYTE	PEND
// 045   ----------------------------------------
	BYTE	PATT
	 POIN2	never_gonna_8_025
// 046   ----------------------------------------
	BYTE	W72
	BYTE		N05     Gs4   v096
	BYTE	W06
	BYTE		        Fs4 
	BYTE	W06
	BYTE		        Fn4   v100
	BYTE	W06
	BYTE		N36     Cs4   v096
	BYTE	W06
// 047   ----------------------------------------
never_gonna_8_047:
	BYTE	W36
	BYTE		N32     Ds4   v096
	BYTE	W36
	BYTE		N22     Gs3 
	BYTE	W24
	BYTE	PEND
// 048   ----------------------------------------
	BYTE		N32     Ds4   v100
	BYTE	W36
	BYTE		        Fn4 
	BYTE	W36
	BYTE		N05     Gs4 
	BYTE	W06
	BYTE		        Fs4 
	BYTE	W06
	BYTE		        Fn4 
	BYTE	W06
	BYTE		N36     Cs4   v096
	BYTE	W06
// 049   ----------------------------------------
never_gonna_8_049:
	BYTE	W36
	BYTE		N32     Ds4   v096
	BYTE	W36
	BYTE		TIE     Gs3 
	BYTE	W24
	BYTE	PEND
// 050   ----------------------------------------
	BYTE	W72
	BYTE	W03
	BYTE		EOT   
	BYTE	W21
// 051   ----------------------------------------
never_gonna_8_051:
	BYTE		N32     Cs4   v100
	BYTE	W36
	BYTE		        Ds4 
	BYTE	W36
	BYTE		N22     Gs3   v096
	BYTE	W24
	BYTE	PEND
// 052   ----------------------------------------
	BYTE	PATT
	 POIN2	never_gonna_8_044
// 053   ----------------------------------------
	BYTE	W36
	BYTE		N32     Ds4   v100
	BYTE	W36
	BYTE		N80     Gs3 
	BYTE	W24
// 054   ----------------------------------------
	BYTE	PATT
	 POIN2	never_gonna_8_026
// 055   ----------------------------------------
	BYTE	PATT
	 POIN2	never_gonna_8_047
// 056   ----------------------------------------
	BYTE		N32     Ds4   v100
	BYTE	W36
	BYTE		        Fn4 
	BYTE	W36
	BYTE		N05     Gs4   v096
	BYTE	W06
	BYTE		        Fs4   v100
	BYTE	W06
	BYTE		        Fn4 
	BYTE	W06
	BYTE		N36     Cs4   v096
	BYTE	W06
// 057   ----------------------------------------
	BYTE	PATT
	 POIN2	never_gonna_8_029
// 058   ----------------------------------------
	BYTE	W72
	BYTE	W03
	BYTE		EOT     Gs3 
	BYTE	W21
// 059   ----------------------------------------
	BYTE	W96
// 060   ----------------------------------------
	BYTE	W96
// 061   ----------------------------------------
	BYTE	W96
// 062   ----------------------------------------
	BYTE	W96
// 063   ----------------------------------------
	BYTE	W96
// 064   ----------------------------------------
	BYTE	W96
// 065   ----------------------------------------
	BYTE	W96
// 066   ----------------------------------------
	BYTE	W96
// 067   ----------------------------------------
	BYTE	W96
// 068   ----------------------------------------
	BYTE	W96
// 069   ----------------------------------------
	BYTE	W96
// 070   ----------------------------------------
	BYTE	W96
// 071   ----------------------------------------
	BYTE	W96
// 072   ----------------------------------------
	BYTE	W96
// 073   ----------------------------------------
	BYTE	W96
// 074   ----------------------------------------
	BYTE	W96
// 075   ----------------------------------------
	BYTE		N92     As3   v100
	BYTE	W96
// 076   ----------------------------------------
	BYTE		N44     Ds4 
	BYTE	W48
	BYTE		        Fn4   v096
	BYTE	W48
// 077   ----------------------------------------
	BYTE		N92     As3 
	BYTE	W96
// 078   ----------------------------------------
	BYTE	W96
// 079   ----------------------------------------
	BYTE	PATT
	 POIN2	never_gonna_8_051
// 080   ----------------------------------------
	BYTE		N32     Ds4   v096
	BYTE	W36
	BYTE		        Fn4 
	BYTE	W36
	BYTE		N05     Gs4 
	BYTE	W06
	BYTE		        Fs4 
	BYTE	W06
	BYTE		        Fn4   v100
	BYTE	W06
	BYTE		N36     Cs4   v096
	BYTE	W06
// 081   ----------------------------------------
	BYTE	PATT
	 POIN2	never_gonna_8_025
// 082   ----------------------------------------
never_gonna_8_082:
	BYTE	W72
	BYTE		N05     Gs4   v100
	BYTE	W06
	BYTE		        Fs4 
	BYTE	W06
	BYTE		        Fn4   v096
	BYTE	W06
	BYTE		N36     Cs4 
	BYTE	W06
	BYTE	PEND
// 083   ----------------------------------------
	BYTE	W36
	BYTE		N32     Ds4   v100
	BYTE	W36
	BYTE		N22     Gs3 
	BYTE	W24
// 084   ----------------------------------------
	BYTE		N32     Ds4   v096
	BYTE	W36
	BYTE		        Fn4 
	BYTE	W36
	BYTE		N05     Gs4   v100
	BYTE	W06
	BYTE		        Fs4 
	BYTE	W06
	BYTE		        Fn4   v096
	BYTE	W06
	BYTE		N36     Cs4 
	BYTE	W06
// 085   ----------------------------------------
	BYTE	PATT
	 POIN2	never_gonna_8_049
// 086   ----------------------------------------
	BYTE	W72
	BYTE	W03
	BYTE		EOT     Gs3 
	BYTE	W21
// 087   ----------------------------------------
never_gonna_8_087:
	BYTE		N32     Cs4   v100
	BYTE	W36
	BYTE		        Ds4   v096
	BYTE	W36
	BYTE		N22     Gs3 
	BYTE	W24
	BYTE	PEND
// 088   ----------------------------------------
	BYTE		N32     Ds4 
	BYTE	W36
	BYTE		        Fn4   v100
	BYTE	W36
	BYTE		N05     Gs4 
	BYTE	W06
	BYTE		        Fs4   v096
	BYTE	W06
	BYTE		        Fn4   v100
	BYTE	W06
	BYTE		N36     Cs4 
	BYTE	W06
// 089   ----------------------------------------
	BYTE	PATT
	 POIN2	never_gonna_8_025
// 090   ----------------------------------------
	BYTE	PATT
	 POIN2	never_gonna_8_082
// 091   ----------------------------------------
	BYTE	PATT
	 POIN2	never_gonna_8_047
// 092   ----------------------------------------
	BYTE		N32     Ds4   v096
	BYTE	W36
	BYTE		        Fn4 
	BYTE	W36
	BYTE		N05     Gs4   v100
	BYTE	W06
	BYTE		        Fs4 
	BYTE	W06
	BYTE		        Fn4 
	BYTE	W06
	BYTE		N36     Cs4   v096
	BYTE	W06
// 093   ----------------------------------------
	BYTE	PATT
	 POIN2	never_gonna_8_049
// 094   ----------------------------------------
	BYTE	W72
	BYTE	W03
	BYTE		EOT     Gs3 
	BYTE	W21
// 095   ----------------------------------------
	BYTE	PATT
	 POIN2	never_gonna_8_087
// 096   ----------------------------------------
	BYTE		N32     Ds4   v100
	BYTE	W36
	BYTE		        Fn4 
	BYTE	W36
	BYTE		N05     Gs4 
	BYTE	W06
	BYTE		        Fs4   v096
	BYTE	W06
	BYTE		        Fn4 
	BYTE	W06
	BYTE		N36     Cs4   v100
	BYTE	W06
// 097   ----------------------------------------
	BYTE	W36
	BYTE		N32     Ds4 
	BYTE	W36
	BYTE		N80     Gs3   v096
	BYTE	W24
// 098   ----------------------------------------
	BYTE	W72
	BYTE		N05     Gs4   v100
	BYTE	W06
	BYTE		        Fs4   v096
	BYTE	W06
	BYTE		        Fn4 
	BYTE	W06
	BYTE		N36     Cs4 
	BYTE	W06
// 099   ----------------------------------------
	BYTE	PATT
	 POIN2	never_gonna_8_047
// 100   ----------------------------------------
	BYTE		N32     Ds4   v096
	BYTE	W36
	BYTE		        Fn4   v100
	BYTE	W36
	BYTE		N05     Gs4 
	BYTE	W06
	BYTE		        Fs4 
	BYTE	W06
	BYTE		        Fn4 
	BYTE	W06
	BYTE		N36     Cs4 
	BYTE	W06
// 101   ----------------------------------------
	BYTE	PATT
	 POIN2	never_gonna_8_049
// 102   ----------------------------------------
	BYTE	W72
	BYTE	W03
	BYTE		EOT     Gs3 
	BYTE	W21
// 103   ----------------------------------------
	BYTE		N16     Fn4   v100
	BYTE	W18
	BYTE		N11     Fn4   v096
	BYTE	W18
	BYTE	GoTo
	 POIN2	never_gonna_8_B1
never_gonna_8_B2:
	BYTE		N32     Ds4   v096
	BYTE	W36
	BYTE		N22     Gs4   v100
	BYTE	W24
// 104   ----------------------------------------
	BYTE		N90   
	BYTE	W12
	BYTE		VOL     100*never_gonna_mvl/mxv
	BYTE	W06
	BYTE		        95*never_gonna_mvl/mxv
	BYTE	W06
	BYTE		        90*never_gonna_mvl/mxv
	BYTE	W06
	BYTE		        85*never_gonna_mvl/mxv
	BYTE	W06
	BYTE		        83*never_gonna_mvl/mxv
	BYTE	W06
	BYTE		        79*never_gonna_mvl/mxv
	BYTE	W06
	BYTE		        74*never_gonna_mvl/mxv
	BYTE	W06
	BYTE		        68*never_gonna_mvl/mxv
	BYTE	W06
	BYTE		        64*never_gonna_mvl/mxv
	BYTE	W06
	BYTE		        59*never_gonna_mvl/mxv
	BYTE	W06
	BYTE		        56*never_gonna_mvl/mxv
	BYTE	W06
	BYTE		        50*never_gonna_mvl/mxv
	BYTE	W06
	BYTE		        47*never_gonna_mvl/mxv
	BYTE	W06
	BYTE		        35*never_gonna_mvl/mxv
	BYTE	W06
// 105   ----------------------------------------
	BYTE	W28
	BYTE	FINE

//**************** Track 9 (Midi-Chn.10) ****************//

never_gonna_9:
	BYTE	KEYSH   never_gonna_key+0
// 000   ----------------------------------------
	BYTE	W22
	BYTE	W13
	BYTE		VOICE   0
	BYTE	W01
	BYTE		VOL     100*never_gonna_mvl/mxv
	BYTE		PAN     c_v+0
	BYTE	W23
	BYTE	W01
	BYTE	W36
// 001   ----------------------------------------
	BYTE	W96
// 002   ----------------------------------------
	BYTE	W36
	BYTE		N01     Dn2   v108
	BYTE	W06
	BYTE		        Dn2   v104
	BYTE	W12
	BYTE		        Dn2   v112
	BYTE	W06
	BYTE		        Cn2   v104
	BYTE	W06
	BYTE		        Bn1   v108
	BYTE	W06
	BYTE		        An1   v112
	BYTE	W06
	BYTE		N01   
	BYTE	W06
	BYTE		        Gn1 
	BYTE	W06
	BYTE		        Fn1   v104
	BYTE	W06
// 003   ----------------------------------------
	BYTE		        Cn1   v108
	BYTE		N01     Fs1   v084
	BYTE	W12
	BYTE		        As1   v092
	BYTE	W12
	BYTE		        Dn1   v104
	BYTE		N01     Ds1   v088
	BYTE		N01     Fs1   v084
	BYTE	W12
	BYTE		        Fs1   v088
	BYTE	W06
	BYTE		        Fs1   v084
	BYTE	W06
	BYTE		        Cn1   v104
	BYTE		N01     Fs1   v084
	BYTE	W12
	BYTE		        As1   v092
	BYTE	W12
	BYTE		        Dn1   v108
	BYTE		N01     Ds1   v084
	BYTE		N01     Fs1   v080
	BYTE	W12
	BYTE		        As1   v092
	BYTE	W12
never_gonna_9_B1:
// 004   ----------------------------------------
	BYTE		N01     Cn1   v104
	BYTE		N01     Fs1   v084
	BYTE	W12
	BYTE		        As1   v088
	BYTE	W12
	BYTE		        Dn1   v104
	BYTE		N01     Ds1   v088
	BYTE		N01     Fs1 
	BYTE	W12
	BYTE		        As1   v092
	BYTE	W12
	BYTE		        Cn1   v104
	BYTE		N01     Fs1   v084
	BYTE	W12
	BYTE		        As1   v092
	BYTE	W12
	BYTE		        Dn1   v108
	BYTE		N01     Ds1   v088
	BYTE		N01     Fs1   v084
	BYTE	W12
	BYTE		        As1   v088
	BYTE	W12
// 005   ----------------------------------------
	BYTE		        Cn1   v104
	BYTE		N01     Fs1   v084
	BYTE	W12
	BYTE		        As1   v088
	BYTE	W12
	BYTE		        Dn1   v108
	BYTE		N01     Ds1   v084
	BYTE		N01     Fs1 
	BYTE	W12
	BYTE		N01   
	BYTE	W06
	BYTE		N01   
	BYTE	W06
	BYTE		        Cn1   v112
	BYTE		N01     Fs1   v084
	BYTE	W12
	BYTE		        As1   v088
	BYTE	W12
	BYTE		        Dn1   v108
	BYTE		N01     Ds1   v088
	BYTE		N01     Fs1 
	BYTE	W12
	BYTE		        As1   v092
	BYTE	W12
// 006   ----------------------------------------
	BYTE		        Cn1   v108
	BYTE		N01     Fs1   v084
	BYTE	W12
	BYTE		        As1   v088
	BYTE	W12
	BYTE		        Dn1   v104
	BYTE		N01     Ds1   v088
	BYTE		N01     Fs1   v080
	BYTE	W12
	BYTE		        As1   v092
	BYTE	W12
	BYTE		        Cn1   v108
	BYTE		N01     Fs1   v084
	BYTE	W12
	BYTE		        As1   v092
	BYTE	W12
	BYTE		        Dn1   v104
	BYTE		N01     Ds1   v088
	BYTE		N01     Fs1   v084
	BYTE	W12
	BYTE		        As1   v092
	BYTE	W12
// 007   ----------------------------------------
	BYTE		        Cn1   v104
	BYTE		N01     Fs1   v084
	BYTE	W12
	BYTE		        As1   v088
	BYTE	W12
	BYTE		        Dn1   v104
	BYTE		N01     Ds1   v084
	BYTE		N01     Fs1 
	BYTE	W12
	BYTE		        Fs1   v088
	BYTE	W06
	BYTE		        Fs1   v084
	BYTE	W06
	BYTE		        Cn1   v104
	BYTE		N01     Fs1   v084
	BYTE	W12
	BYTE		        As1   v092
	BYTE	W12
	BYTE		        Dn1   v104
	BYTE		N01     Ds1   v088
	BYTE		N01     Fs1 
	BYTE	W12
	BYTE		        As1   v092
	BYTE	W12
// 008   ----------------------------------------
	BYTE		        Cn1   v108
	BYTE		N01     Fs1   v084
	BYTE	W12
	BYTE		        As1   v092
	BYTE	W12
	BYTE		        Dn1   v108
	BYTE		N01     Ds1   v088
	BYTE		N01     Fs1 
	BYTE	W12
	BYTE		        As1   v092
	BYTE	W12
	BYTE		        Cn1   v104
	BYTE		N01     Fs1   v084
	BYTE	W12
	BYTE		        As1   v088
	BYTE	W12
	BYTE		        Dn1   v108
	BYTE		N01     Ds1   v084
	BYTE		N01     Fs1 
	BYTE	W12
	BYTE		        As1   v092
	BYTE	W12
// 009   ----------------------------------------
	BYTE		        Cn1   v104
	BYTE		N01     Fs1   v084
	BYTE	W12
	BYTE		        As1   v092
	BYTE	W12
	BYTE		        Dn1   v108
	BYTE		N01     Ds1   v084
	BYTE		N01     Fs1 
	BYTE	W12
	BYTE		N01   
	BYTE	W06
	BYTE		N01   
	BYTE	W06
	BYTE		        Cn1   v108
	BYTE		N01     Fs1   v084
	BYTE	W12
	BYTE		        As1   v092
	BYTE	W12
	BYTE		        Dn1   v112
	BYTE		N01     Ds1   v088
	BYTE		N01     Fs1   v084
	BYTE	W12
	BYTE		        As1   v092
	BYTE	W12
// 010   ----------------------------------------
	BYTE		        Cn1   v108
	BYTE		N01     Fs1   v088
	BYTE	W12
	BYTE		        As1   v092
	BYTE	W12
	BYTE		        Dn1   v108
	BYTE		N01     Ds1   v084
	BYTE		N01     Fs1   v088
	BYTE	W12
	BYTE		        As1 
	BYTE	W12
	BYTE		        Cn1   v104
	BYTE		N01     Ds1   v084
	BYTE		N01     Fs1 
	BYTE		N01     An1   v080
	BYTE	W06
	BYTE		        Ds1   v088
	BYTE		N01     An1   v084
	BYTE	W06
	BYTE		        Gn1 
	BYTE		N01     As1   v092
	BYTE	W06
	BYTE		        Gn1   v088
	BYTE	W06
	BYTE		        Dn1   v104
	BYTE		N01     Ds1   v084
	BYTE		N01     Fs1   v088
	BYTE		N01     An1   v084
	BYTE	W06
	BYTE		        Ds1 
	BYTE		N01     An1   v080
	BYTE	W06
	BYTE		        Gn1   v088
	BYTE		N01     As1   v092
	BYTE	W06
	BYTE		        Gn1   v084
	BYTE	W06
// 011   ----------------------------------------
	BYTE		        Cn1   v108
	BYTE		N01     Fs1   v088
	BYTE	W12
	BYTE		        As1   v092
	BYTE	W12
	BYTE		        Dn1   v104
	BYTE		N01     Ds1   v084
	BYTE		N01     Fs1 
	BYTE	W12
	BYTE		N01   
	BYTE	W06
	BYTE		N01   
	BYTE	W06
	BYTE		        Cn1   v108
	BYTE		N01     Fs1   v084
	BYTE	W12
	BYTE		        As1   v088
	BYTE	W12
	BYTE		        Dn1   v104
	BYTE		N01     Ds1   v084
	BYTE		N01     Fs1 
	BYTE	W12
	BYTE		        As1   v088
	BYTE	W12
// 012   ----------------------------------------
	BYTE		        Cn1   v104
	BYTE		N01     Fs1   v088
	BYTE	W12
	BYTE		        As1 
	BYTE	W12
	BYTE		        Dn1   v108
	BYTE		N01     Ds1   v080
	BYTE		N01     Fs1   v088
	BYTE	W12
	BYTE		        As1 
	BYTE	W12
	BYTE		        Cn1   v108
	BYTE		N01     Fs1   v080
	BYTE	W12
	BYTE		        As1   v092
	BYTE	W12
	BYTE		        Dn1   v112
	BYTE		N01     Ds1   v088
	BYTE		N01     Fs1 
	BYTE	W12
	BYTE		        As1   v092
	BYTE	W12
// 013   ----------------------------------------
	BYTE		        Cn1   v104
	BYTE		N01     Fs1   v084
	BYTE	W12
	BYTE		        As1   v092
	BYTE	W12
	BYTE		        Dn1   v108
	BYTE		N01     Ds1   v088
	BYTE		N01     Fs1   v084
	BYTE	W12
	BYTE		N01   
	BYTE	W06
	BYTE		        Fs1   v088
	BYTE	W06
	BYTE		        Cn1   v112
	BYTE		N01     Fs1   v084
	BYTE	W12
	BYTE		        As1   v088
	BYTE	W12
	BYTE		        Dn1   v108
	BYTE		N01     Ds1   v088
	BYTE		N01     Fs1   v084
	BYTE	W12
	BYTE		        As1   v092
	BYTE	W12
// 014   ----------------------------------------
	BYTE		        Cn1   v104
	BYTE		N01     Fs1   v084
	BYTE	W12
	BYTE		        As1   v092
	BYTE	W12
	BYTE		        Dn1   v104
	BYTE		N01     Ds1   v084
	BYTE		N01     Fs1 
	BYTE	W12
	BYTE		        As1   v092
	BYTE	W12
	BYTE		        Cn1   v104
	BYTE		N01     Fs1   v088
	BYTE	W12
	BYTE		        As1   v092
	BYTE	W12
	BYTE		        Dn1   v108
	BYTE		N01     Ds1   v088
	BYTE		N01     Fs1   v084
	BYTE	W12
	BYTE		        As1   v088
	BYTE	W12
// 015   ----------------------------------------
	BYTE		        Cn1   v108
	BYTE		N01     Fs1   v084
	BYTE	W12
	BYTE		        As1   v092
	BYTE	W12
	BYTE		        Dn1   v112
	BYTE		N01     Ds1   v084
	BYTE		N01     Fs1 
	BYTE	W12
	BYTE		N01   
	BYTE	W06
	BYTE		N01   
	BYTE	W06
	BYTE		        Cn1   v108
	BYTE		N01     Fs1   v084
	BYTE	W12
	BYTE		        As1   v092
	BYTE	W12
	BYTE		        Dn1   v104
	BYTE		N01     Ds1   v084
	BYTE		N01     Fs1 
	BYTE	W12
	BYTE		        As1   v092
	BYTE	W12
// 016   ----------------------------------------
	BYTE		        Cn1   v104
	BYTE		N01     Fs1   v084
	BYTE	W12
	BYTE		        As1   v092
	BYTE	W12
	BYTE		        Dn1   v104
	BYTE		N01     Ds1   v084
	BYTE		N01     Fs1 
	BYTE	W12
	BYTE		        As1   v092
	BYTE	W12
	BYTE		        Cn1   v112
	BYTE		N01     Fs1   v080
	BYTE	W12
	BYTE		        As1   v092
	BYTE	W12
	BYTE		        Dn1   v108
	BYTE		N01     Ds1   v084
	BYTE		N01     Fs1 
	BYTE	W12
	BYTE		        As1   v092
	BYTE	W12
// 017   ----------------------------------------
	BYTE		        Cn1   v108
	BYTE		N01     Fs1   v088
	BYTE	W12
	BYTE		        As1   v092
	BYTE	W12
	BYTE		        Dn1   v104
	BYTE		N01     Ds1   v088
	BYTE		N01     Fs1   v084
	BYTE	W12
	BYTE		N01   
	BYTE	W06
	BYTE		N01   
	BYTE	W06
	BYTE		        Cn1   v108
	BYTE		N01     Fs1   v088
	BYTE	W12
	BYTE		        As1   v092
	BYTE	W12
	BYTE		        Dn1   v104
	BYTE		N01     Ds1   v080
	BYTE		N01     Fs1   v084
	BYTE	W12
	BYTE		        As1   v092
	BYTE	W12
// 018   ----------------------------------------
	BYTE		        Cn1   v104
	BYTE		N01     Fs1   v088
	BYTE	W12
	BYTE		        As1 
	BYTE	W12
	BYTE		        Dn1   v104
	BYTE		N01     Ds1   v088
	BYTE		N01     Fs1   v084
	BYTE	W12
	BYTE		        As1   v088
	BYTE	W12
	BYTE		        Cn1   v104
	BYTE		N01     Fs1   v084
	BYTE	W06
	BYTE		        An1   v080
	BYTE	W06
	BYTE		        Gn1   v088
	BYTE		N01     As1   v092
	BYTE	W06
	BYTE		        Gn1   v084
	BYTE	W06
	BYTE		        Dn1   v108
	BYTE		N01     Ds1   v084
	BYTE		N01     Fs1   v088
	BYTE		N01     Gn1   v080
	BYTE	W12
	BYTE		        As1   v092
	BYTE	W12
// 019   ----------------------------------------
	BYTE		        Cn1   v104
	BYTE		N01     Fs1   v084
	BYTE	W12
	BYTE		        As1   v092
	BYTE	W12
	BYTE		        Dn1   v108
	BYTE		N01     Ds1   v084
	BYTE		N01     Fs1 
	BYTE	W12
	BYTE		N01   
	BYTE	W06
	BYTE		N01   
	BYTE	W06
	BYTE		        Cn1   v108
	BYTE		N01     Fs1   v084
	BYTE	W12
	BYTE		        As1   v092
	BYTE	W12
	BYTE		        Dn1   v104
	BYTE		N01     Ds1   v080
	BYTE		N01     Fs1   v084
	BYTE	W12
	BYTE		        As1   v092
	BYTE	W12
// 020   ----------------------------------------
	BYTE		        Cn1   v108
	BYTE		N01     Fs1   v084
	BYTE	W12
	BYTE		        As1   v092
	BYTE	W12
	BYTE		        Dn1   v104
	BYTE		N01     Ds1   v088
	BYTE		N01     Fs1   v084
	BYTE	W12
	BYTE		        As1   v088
	BYTE	W12
	BYTE		        Cn1   v104
	BYTE		N01     Fs1   v088
	BYTE	W12
	BYTE		        As1   v092
	BYTE	W12
	BYTE		        Dn1   v108
	BYTE		N01     Ds1   v080
	BYTE		N01     Fs1   v084
	BYTE	W12
	BYTE		        As1   v092
	BYTE	W12
// 021   ----------------------------------------
	BYTE		        Cn1   v104
	BYTE		N01     Fs1   v084
	BYTE	W12
	BYTE		        As1   v092
	BYTE	W12
	BYTE		        Dn1   v108
	BYTE		N01     Ds1   v088
	BYTE		N01     Fs1   v084
	BYTE	W12
	BYTE		N01   
	BYTE	W06
	BYTE		N01   
	BYTE	W06
	BYTE		        Cn1   v112
	BYTE		N01     Fs1   v088
	BYTE	W12
	BYTE		        As1   v092
	BYTE	W12
	BYTE		        Dn1   v108
	BYTE		N01     Ds1   v088
	BYTE		N01     Fs1   v084
	BYTE	W12
	BYTE		        As1   v092
	BYTE	W12
// 022   ----------------------------------------
	BYTE		        Cn1   v104
	BYTE		N01     Fs1   v080
	BYTE	W12
	BYTE		        As1   v088
	BYTE	W12
	BYTE		        Dn1   v104
	BYTE		N01     Ds1   v080
	BYTE		N01     Fs1   v084
	BYTE	W12
	BYTE		        An1   v088
	BYTE		N01     As1   v092
	BYTE	W06
	BYTE		        An1   v080
	BYTE	W06
	BYTE		        Cn1   v104
	BYTE		N01     Ds1   v084
	BYTE		N01     Fs1 
	BYTE		N01     An1   v080
	BYTE	W06
	BYTE		        Ds1   v088
	BYTE		N01     An1   v080
	BYTE	W06
	BYTE		        Gn1   v088
	BYTE		N01     As1 
	BYTE	W06
	BYTE		        Gn1   v084
	BYTE	W06
	BYTE		        Dn1   v108
	BYTE		N01     Ds1   v088
	BYTE		N01     Fs1   v084
	BYTE		N01     An1 
	BYTE	W06
	BYTE		        Ds1   v088
	BYTE		N01     An1 
	BYTE	W06
	BYTE		        Gn1   v084
	BYTE		N01     As1   v092
	BYTE	W06
	BYTE		        Gn1   v088
	BYTE	W06
// 023   ----------------------------------------
	BYTE		        Cn1   v108
	BYTE		N01     Fs1   v084
	BYTE	W12
	BYTE		        As1   v092
	BYTE	W12
	BYTE		        Dn1   v104
	BYTE		N01     Ds1   v084
	BYTE		N01     Fs1 
	BYTE	W12
	BYTE		        Fs1   v080
	BYTE	W06
	BYTE		        Fs1   v084
	BYTE	W06
	BYTE		        Cn1   v108
	BYTE		N01     Fs1   v084
	BYTE	W12
	BYTE		        As1   v092
	BYTE	W12
	BYTE		        Dn1   v108
	BYTE		N01     Ds1   v088
	BYTE		N01     Fs1   v080
	BYTE	W12
	BYTE		        As1   v092
	BYTE	W12
// 024   ----------------------------------------
	BYTE		        Cn1   v104
	BYTE		N01     Fs1   v080
	BYTE	W12
	BYTE		        As1   v092
	BYTE	W12
	BYTE		        Dn1   v108
	BYTE		N01     Ds1   v084
	BYTE		N01     Fs1 
	BYTE	W12
	BYTE		        As1   v092
	BYTE	W12
	BYTE		        Cn1   v104
	BYTE		N01     Fs1   v080
	BYTE	W12
	BYTE		        As1   v092
	BYTE	W12
	BYTE		        Dn1   v108
	BYTE		N01     Ds1   v088
	BYTE		N01     Fs1   v084
	BYTE	W12
	BYTE		        As1   v092
	BYTE	W12
// 025   ----------------------------------------
	BYTE		        Cn1   v108
	BYTE		N01     Fs1   v084
	BYTE	W12
	BYTE		        As1   v092
	BYTE	W12
	BYTE		        Dn1   v104
	BYTE		N01     Ds1   v088
	BYTE		N01     Fs1   v080
	BYTE	W12
	BYTE		        Fs1   v084
	BYTE	W06
	BYTE		N01   
	BYTE	W06
	BYTE		        Cn1   v112
	BYTE		N01     Fs1   v084
	BYTE	W12
	BYTE		        As1   v092
	BYTE	W12
	BYTE		        Dn1   v108
	BYTE		N01     Ds1   v084
	BYTE		N01     Fs1 
	BYTE	W12
	BYTE		        As1   v092
	BYTE	W12
// 026   ----------------------------------------
	BYTE		        Cn1   v104
	BYTE		N01     Fs1   v080
	BYTE	W12
	BYTE		        As1   v092
	BYTE	W12
	BYTE		        Dn1   v108
	BYTE		N01     Ds1   v080
	BYTE		N01     Fs1   v084
	BYTE	W12
	BYTE		        As1   v092
	BYTE	W12
	BYTE		        Cn1   v112
	BYTE		N01     Fs1   v084
	BYTE	W12
	BYTE		        As1   v092
	BYTE	W12
	BYTE		        Dn1   v108
	BYTE		N01     Ds1   v084
	BYTE		N01     Fs1 
	BYTE	W12
	BYTE		        As1   v092
	BYTE	W12
// 027   ----------------------------------------
	BYTE		        Cn1   v108
	BYTE		N01     Fs1   v084
	BYTE	W12
	BYTE		        As1   v092
	BYTE	W12
	BYTE		        Dn1   v108
	BYTE		N01     Ds1   v084
	BYTE		N01     Fs1 
	BYTE	W12
	BYTE		N01   
	BYTE	W06
	BYTE		N01   
	BYTE	W06
	BYTE		        Cn1   v108
	BYTE		N01     Fs1   v084
	BYTE	W12
	BYTE		        As1   v088
	BYTE	W12
	BYTE		        Dn1   v112
	BYTE		N01     Ds1   v088
	BYTE		N01     Fs1   v084
	BYTE	W12
	BYTE		        As1   v092
	BYTE	W12
// 028   ----------------------------------------
	BYTE		        Cn1   v108
	BYTE		N01     Fs1   v084
	BYTE	W12
	BYTE		        As1   v092
	BYTE	W12
	BYTE		        Dn1   v104
	BYTE		N01     Ds1   v084
	BYTE		N01     Fs1 
	BYTE	W12
	BYTE		        As1   v092
	BYTE	W12
	BYTE		        Cn1   v104
	BYTE		N01     Fs1   v088
	BYTE	W12
	BYTE		        As1   v092
	BYTE	W12
	BYTE		        Dn1   v108
	BYTE		N01     Ds1   v084
	BYTE		N01     Fs1 
	BYTE	W12
	BYTE		        As1   v092
	BYTE	W12
// 029   ----------------------------------------
	BYTE		        Cn1   v104
	BYTE		N01     Fs1   v084
	BYTE	W12
	BYTE		        As1   v092
	BYTE	W12
	BYTE		        Dn1   v108
	BYTE		N01     Ds1   v084
	BYTE		N01     Fs1   v088
	BYTE	W12
	BYTE		        Fs1   v084
	BYTE	W06
	BYTE		N01   
	BYTE	W06
	BYTE		        Cn1   v104
	BYTE		N01     Fs1   v080
	BYTE	W12
	BYTE		        As1   v092
	BYTE	W12
	BYTE		        Dn1   v104
	BYTE		N01     Ds1   v084
	BYTE		N01     Fs1 
	BYTE	W12
	BYTE		        As1   v092
	BYTE	W12
// 030   ----------------------------------------
	BYTE		        Cn1   v104
	BYTE		N01     Fs1   v084
	BYTE	W12
	BYTE		        As1   v092
	BYTE	W12
	BYTE		        Dn1   v108
	BYTE		N01     Ds1   v084
	BYTE		N01     Fs1   v080
	BYTE	W12
	BYTE		        As1   v088
	BYTE	W12
	BYTE		        Cn1   v104
	BYTE		N01     Ds1   v088
	BYTE		N01     Fs1   v080
	BYTE		N01     An1   v084
	BYTE	W06
	BYTE		        Ds1   v088
	BYTE		N01     An1 
	BYTE	W06
	BYTE		        Gn1   v080
	BYTE		N01     As1   v092
	BYTE	W06
	BYTE		        Gn1   v080
	BYTE	W06
	BYTE		        Dn1   v104
	BYTE		N01     Ds1   v088
	BYTE		N01     Fs1 
	BYTE		N01     An1   v084
	BYTE	W06
	BYTE		        Ds1   v080
	BYTE		N01     An1   v088
	BYTE	W06
	BYTE		        Gn1 
	BYTE		N01     As1   v092
	BYTE	W06
	BYTE		        Gn1   v084
	BYTE	W06
// 031   ----------------------------------------
	BYTE		        Cn1   v108
	BYTE		N01     Fs1   v084
	BYTE	W12
	BYTE		        As1   v088
	BYTE	W12
	BYTE		        Dn1   v108
	BYTE		N01     Ds1   v084
	BYTE		N01     Fs1   v080
	BYTE	W12
	BYTE		        Fs1   v088
	BYTE	W06
	BYTE		        Fs1   v084
	BYTE	W06
	BYTE		        Cn1   v108
	BYTE		N01     Fs1   v084
	BYTE	W12
	BYTE		        As1   v088
	BYTE	W12
	BYTE		        Dn1   v108
	BYTE		N01     Ds1   v088
	BYTE		N01     Fs1   v084
	BYTE	W12
	BYTE		        As1   v092
	BYTE	W12
// 032   ----------------------------------------
	BYTE		        Cn1   v108
	BYTE		N01     Fs1   v080
	BYTE	W12
	BYTE		        As1   v092
	BYTE	W12
	BYTE		        Dn1   v108
	BYTE		N01     Ds1   v084
	BYTE		N01     Fs1 
	BYTE	W12
	BYTE		        As1   v088
	BYTE	W12
	BYTE		        Cn1   v104
	BYTE		N01     Fs1   v084
	BYTE	W12
	BYTE		        As1   v092
	BYTE	W12
	BYTE		        Dn1   v104
	BYTE		N01     Ds1   v084
	BYTE		N01     Fs1 
	BYTE	W12
	BYTE		        As1   v092
	BYTE	W12
// 033   ----------------------------------------
	BYTE		        Cn1   v108
	BYTE		N01     Fs1   v084
	BYTE	W12
	BYTE		        As1   v088
	BYTE	W12
	BYTE		        Dn1   v104
	BYTE		N01     Ds1   v084
	BYTE		N01     Fs1   v080
	BYTE	W12
	BYTE		        Fs1   v084
	BYTE	W06
	BYTE		N01   
	BYTE	W06
	BYTE		        Cn1   v108
	BYTE		N01     Fs1   v084
	BYTE	W12
	BYTE		        As1   v092
	BYTE	W12
	BYTE		        Dn1   v104
	BYTE		N01     Ds1   v088
	BYTE		N01     Fs1   v084
	BYTE	W12
	BYTE		        As1   v092
	BYTE	W12
// 034   ----------------------------------------
	BYTE		        Cn1   v104
	BYTE		N01     Fs1   v084
	BYTE	W12
	BYTE		        As1   v092
	BYTE	W12
	BYTE		        Dn1   v108
	BYTE		N01     Ds1   v088
	BYTE		N01     Fs1   v084
	BYTE	W12
	BYTE		        As1   v092
	BYTE	W12
	BYTE		        Cn1   v104
	BYTE		N01     Fs1   v084
	BYTE	W12
	BYTE		        As1   v092
	BYTE	W12
	BYTE		        Dn1   v104
	BYTE		N01     Ds1   v084
	BYTE		N01     Fs1   v080
	BYTE	W12
	BYTE		        As1   v092
	BYTE	W12
// 035   ----------------------------------------
	BYTE		        Cn1   v108
	BYTE		N01     Fs1   v084
	BYTE	W12
	BYTE		        As1   v088
	BYTE	W12
	BYTE		        Dn1   v112
	BYTE		N01     Ds1   v084
	BYTE		N01     Fs1 
	BYTE	W12
	BYTE		N01   
	BYTE	W06
	BYTE		        Fs1   v088
	BYTE	W06
	BYTE		        Cn1   v108
	BYTE		N01     Fs1   v084
	BYTE	W12
	BYTE		        As1   v088
	BYTE	W12
	BYTE		        Dn1   v104
	BYTE		N01     Ds1   v088
	BYTE		N01     Fs1   v080
	BYTE	W12
	BYTE		        As1   v092
	BYTE	W12
// 036   ----------------------------------------
	BYTE		        Cn1   v108
	BYTE		N01     Fs1   v084
	BYTE	W12
	BYTE		        As1   v092
	BYTE	W12
	BYTE		        Dn1   v104
	BYTE		N01     Ds1   v084
	BYTE		N01     Fs1   v088
	BYTE	W12
	BYTE		        As1   v092
	BYTE	W12
	BYTE		        Cn1   v112
	BYTE		N01     Fs1   v084
	BYTE	W12
	BYTE		        As1   v092
	BYTE	W12
	BYTE		        Dn1   v104
	BYTE		N01     Ds1   v084
	BYTE		N01     Fs1 
	BYTE	W12
	BYTE		        As1   v088
	BYTE	W12
// 037   ----------------------------------------
	BYTE		        Cn1   v104
	BYTE		N01     Fs1   v084
	BYTE	W12
	BYTE		        As1   v088
	BYTE	W12
	BYTE		        Dn1   v104
	BYTE		N01     Ds1   v088
	BYTE		N01     Fs1   v084
	BYTE	W12
	BYTE		N01   
	BYTE	W06
	BYTE		N01   
	BYTE	W06
	BYTE		        Cn1   v108
	BYTE		N01     Fs1   v084
	BYTE	W12
	BYTE		        As1   v092
	BYTE	W12
	BYTE		        Dn1   v108
	BYTE		N01     Ds1   v080
	BYTE		N01     Fs1   v084
	BYTE	W12
	BYTE		        As1   v088
	BYTE	W12
// 038   ----------------------------------------
	BYTE		        Cn1   v104
	BYTE		N01     Fs1   v084
	BYTE	W12
	BYTE		        As1   v092
	BYTE	W12
	BYTE		        Dn1   v108
	BYTE		N01     Ds1   v088
	BYTE		N01     Fs1   v084
	BYTE	W12
	BYTE		        As1   v088
	BYTE	W12
	BYTE		        Cn1   v108
	BYTE		N01     Fs1   v080
	BYTE	W06
	BYTE		        An1   v084
	BYTE	W06
	BYTE		        Gn1 
	BYTE		N01     As1   v088
	BYTE	W06
	BYTE		        Gn1 
	BYTE	W06
	BYTE		        Dn1   v108
	BYTE		N01     Ds1   v084
	BYTE		N01     Fs1   v080
	BYTE		N01     Gn1   v084
	BYTE	W12
	BYTE		        As1   v092
	BYTE	W12
// 039   ----------------------------------------
	BYTE		        Cn1   v108
	BYTE		N01     Fs1   v084
	BYTE	W12
	BYTE		        As1   v088
	BYTE	W12
	BYTE		        Dn1   v108
	BYTE		N01     Ds1   v084
	BYTE		N01     Fs1   v080
	BYTE	W12
	BYTE		N01   
	BYTE	W06
	BYTE		        Fs1   v084
	BYTE	W06
	BYTE		        Cn1   v108
	BYTE		N01     Fs1   v084
	BYTE	W12
	BYTE		        As1   v092
	BYTE	W12
	BYTE		        Dn1   v112
	BYTE		N01     Ds1   v088
	BYTE		N01     Fs1   v084
	BYTE	W12
	BYTE		        As1   v088
	BYTE	W12
// 040   ----------------------------------------
	BYTE		        Cn1   v104
	BYTE		N01     Fs1   v088
	BYTE	W12
	BYTE		        As1   v092
	BYTE	W12
	BYTE		        Dn1   v104
	BYTE		N01     Ds1   v084
	BYTE		N01     Fs1 
	BYTE	W12
	BYTE		        As1   v092
	BYTE	W12
	BYTE		        Cn1   v108
	BYTE		N01     Fs1   v084
	BYTE	W12
	BYTE		        As1   v092
	BYTE	W12
	BYTE		        Dn1   v104
	BYTE		N01     Ds1   v088
	BYTE		N01     Fs1 
	BYTE	W12
	BYTE		        As1   v092
	BYTE	W12
// 041   ----------------------------------------
	BYTE		        Cn1   v104
	BYTE		N01     Fs1   v080
	BYTE	W12
	BYTE		        As1   v092
	BYTE	W12
	BYTE		        Dn1   v104
	BYTE		N01     Ds1   v084
	BYTE		N01     Fs1 
	BYTE	W12
	BYTE		        Fs1   v088
	BYTE	W06
	BYTE		N01   
	BYTE	W06
	BYTE		        Cn1   v108
	BYTE		N01     Fs1   v084
	BYTE	W12
	BYTE		        As1   v092
	BYTE	W12
	BYTE		        Dn1   v104
	BYTE		N01     Ds1   v084
	BYTE		N01     Fs1 
	BYTE	W12
	BYTE		        As1   v092
	BYTE	W12
// 042   ----------------------------------------
	BYTE		        Cn1   v104
	BYTE		N01     Fs1   v084
	BYTE	W12
	BYTE		        As1   v092
	BYTE	W12
	BYTE		        Dn1   v108
	BYTE		N01     Ds1   v080
	BYTE		N01     Fs1   v084
	BYTE	W12
	BYTE		        An1 
	BYTE		N01     As1   v088
	BYTE	W06
	BYTE		        An1   v084
	BYTE	W06
	BYTE		        Cn1   v108
	BYTE		N01     Ds1   v084
	BYTE		N01     Fs1 
	BYTE		N01     An1 
	BYTE	W06
	BYTE		        Ds1   v080
	BYTE		N01     An1   v088
	BYTE	W06
	BYTE		        Gn1 
	BYTE		N01     As1   v092
	BYTE	W06
	BYTE		        Gn1   v088
	BYTE	W06
	BYTE		        Dn1   v104
	BYTE		N01     Ds1   v088
	BYTE		N01     Fs1 
	BYTE		N01     An1 
	BYTE	W06
	BYTE		        Ds1 
	BYTE		N01     An1   v080
	BYTE	W06
	BYTE		        Gn1   v088
	BYTE		N01     As1   v092
	BYTE	W06
	BYTE		        Gn1   v088
	BYTE	W06
// 043   ----------------------------------------
	BYTE		        Cn1   v104
	BYTE		N01     Fs1   v088
	BYTE	W12
	BYTE		        As1   v092
	BYTE	W12
	BYTE		        Dn1   v108
	BYTE		N01     Ds1   v084
	BYTE		N01     Fs1 
	BYTE	W12
	BYTE		N01   
	BYTE	W06
	BYTE		N01   
	BYTE	W06
	BYTE		        Cn1   v112
	BYTE		N01     Fs1   v084
	BYTE	W12
	BYTE		        As1   v092
	BYTE	W12
	BYTE		        Dn1   v108
	BYTE		N01     Ds1   v084
	BYTE		N01     Fs1 
	BYTE	W12
	BYTE		        As1   v088
	BYTE	W12
// 044   ----------------------------------------
	BYTE		        Cn1   v104
	BYTE		N01     Fs1   v084
	BYTE	W12
	BYTE		        As1   v088
	BYTE	W12
	BYTE		        Dn1   v104
	BYTE		N01     Ds1   v084
	BYTE		N01     Fs1 
	BYTE	W12
	BYTE		        As1   v088
	BYTE	W12
	BYTE		        Cn1   v104
	BYTE		N01     Fs1   v080
	BYTE	W12
	BYTE		        As1   v088
	BYTE	W12
	BYTE		        Dn1   v104
	BYTE		N01     Ds1   v084
	BYTE		N01     Fs1 
	BYTE	W12
	BYTE		        As1   v092
	BYTE	W12
// 045   ----------------------------------------
	BYTE		        Cn1   v112
	BYTE		N01     Fs1   v084
	BYTE	W12
	BYTE		        As1   v088
	BYTE	W12
	BYTE		        Dn1   v108
	BYTE		N01     Ds1   v084
	BYTE		N01     Fs1 
	BYTE	W12
	BYTE		        Fs1   v080
	BYTE	W06
	BYTE		        Fs1   v084
	BYTE	W06
	BYTE		        Cn1   v108
	BYTE		N01     Fs1   v084
	BYTE	W12
	BYTE		        As1   v092
	BYTE	W12
	BYTE		        Dn1   v108
	BYTE		N01     Ds1   v088
	BYTE		N01     Fs1   v084
	BYTE	W12
	BYTE		        As1   v092
	BYTE	W12
// 046   ----------------------------------------
	BYTE		        Cn1   v108
	BYTE		N01     Fs1   v088
	BYTE	W12
	BYTE		        As1   v092
	BYTE	W12
	BYTE		        Dn1   v104
	BYTE		N01     Ds1   v084
	BYTE		N01     Fs1 
	BYTE	W12
	BYTE		        As1   v088
	BYTE	W12
	BYTE		        Cn1   v108
	BYTE		N01     Fs1   v084
	BYTE	W12
	BYTE		        As1   v092
	BYTE	W12
	BYTE		        Dn1   v104
	BYTE		N01     Ds1   v084
	BYTE		N01     Fs1   v080
	BYTE	W12
	BYTE		        As1   v088
	BYTE	W12
// 047   ----------------------------------------
	BYTE		        Cn1   v104
	BYTE		N01     Fs1   v084
	BYTE	W12
	BYTE		        As1   v092
	BYTE	W12
	BYTE		        Dn1   v108
	BYTE		N01     Ds1   v084
	BYTE		N01     Fs1 
	BYTE	W12
	BYTE		N01   
	BYTE	W06
	BYTE		N01   
	BYTE	W06
	BYTE		        Cn1   v112
	BYTE		N01     Fs1   v084
	BYTE	W12
	BYTE		        As1   v088
	BYTE	W12
	BYTE		        Dn1   v108
	BYTE		N01     Ds1   v088
	BYTE		N01     Fs1   v084
	BYTE	W12
	BYTE		        As1   v092
	BYTE	W12
// 048   ----------------------------------------
	BYTE		        Cn1   v108
	BYTE		N01     Fs1   v084
	BYTE	W12
	BYTE		        As1   v092
	BYTE	W12
	BYTE		        Dn1   v104
	BYTE		N01     Ds1   v084
	BYTE		N01     Fs1 
	BYTE	W12
	BYTE		        As1   v088
	BYTE	W12
	BYTE		        Cn1   v104
	BYTE		N01     Fs1   v084
	BYTE	W12
	BYTE		        As1   v088
	BYTE	W12
	BYTE		        Dn1   v104
	BYTE		N01     Ds1   v088
	BYTE		N01     Fs1   v084
	BYTE	W12
	BYTE		        As1   v088
	BYTE	W12
// 049   ----------------------------------------
	BYTE		        Cn1   v104
	BYTE		N01     Fs1   v084
	BYTE	W12
	BYTE		        As1   v088
	BYTE	W12
	BYTE		        Dn1   v108
	BYTE		N01     Ds1   v088
	BYTE		N01     Fs1   v080
	BYTE	W12
	BYTE		        Fs1   v084
	BYTE	W06
	BYTE		N01   
	BYTE	W06
	BYTE		        Cn1   v104
	BYTE		N01     Fs1   v080
	BYTE	W12
	BYTE		        As1   v092
	BYTE	W12
	BYTE		        Dn1   v108
	BYTE		N01     Ds1   v084
	BYTE		N01     Fs1   v080
	BYTE	W12
	BYTE		        As1   v088
	BYTE	W12
// 050   ----------------------------------------
	BYTE		        Cn1   v108
	BYTE		N01     Fs1   v084
	BYTE	W12
	BYTE		        As1   v092
	BYTE	W12
	BYTE		        Dn1   v108
	BYTE		N01     Ds1   v088
	BYTE		N01     Fs1   v084
	BYTE	W12
	BYTE		        As1   v088
	BYTE	W12
	BYTE		        Cn1   v108
	BYTE		N01     Fs1   v084
	BYTE		N01     An1   v088
	BYTE	W06
	BYTE		N01   
	BYTE	W06
	BYTE		        Gn1 
	BYTE		N01     As1   v092
	BYTE	W06
	BYTE		        Gn1   v088
	BYTE	W06
	BYTE		        Dn1   v112
	BYTE		N01     Ds1   v088
	BYTE		N01     Fs1 
	BYTE		N01     An1   v084
	BYTE	W06
	BYTE		        An1   v088
	BYTE	W06
	BYTE		        Gn1 
	BYTE		N01     As1   v092
	BYTE	W06
	BYTE		        Gn1 
	BYTE	W06
// 051   ----------------------------------------
	BYTE		        Cn1   v104
	BYTE		N01     Fs1   v084
	BYTE	W12
	BYTE		        As1   v092
	BYTE	W12
	BYTE		        Dn1   v108
	BYTE		N01     Ds1   v084
	BYTE		N01     Fs1   v088
	BYTE	W12
	BYTE		        Fs1   v084
	BYTE	W06
	BYTE		N01   
	BYTE	W06
	BYTE		        Cn1   v104
	BYTE		N01     Fs1   v080
	BYTE	W12
	BYTE		        As1   v092
	BYTE	W12
	BYTE		        Dn1   v108
	BYTE		N01     Ds1   v088
	BYTE		N01     Fs1   v080
	BYTE	W12
	BYTE		        As1   v092
	BYTE	W12
// 052   ----------------------------------------
	BYTE		        Cn1   v108
	BYTE		N01     Fs1   v080
	BYTE	W12
	BYTE		        As1   v092
	BYTE	W12
	BYTE		        Dn1   v104
	BYTE		N01     Ds1   v088
	BYTE		N01     Fs1   v084
	BYTE	W12
	BYTE		        As1   v092
	BYTE	W12
	BYTE		        Cn1   v108
	BYTE		N01     Fs1   v088
	BYTE	W12
	BYTE		        As1   v092
	BYTE	W12
	BYTE		        Dn1   v104
	BYTE		N01     Ds1   v084
	BYTE		N01     Fs1 
	BYTE	W12
	BYTE		        As1   v092
	BYTE	W12
// 053   ----------------------------------------
	BYTE		        Cn1   v104
	BYTE		N01     Fs1   v084
	BYTE	W12
	BYTE		        As1   v092
	BYTE	W12
	BYTE		        Dn1   v108
	BYTE		N01     Ds1   v084
	BYTE		N01     Fs1   v088
	BYTE	W12
	BYTE		        Fs1   v080
	BYTE	W06
	BYTE		        Fs1   v084
	BYTE	W06
	BYTE		        Cn1   v104
	BYTE		N01     Fs1   v084
	BYTE	W12
	BYTE		        As1   v092
	BYTE	W12
	BYTE		        Dn1   v108
	BYTE		N01     Ds1   v088
	BYTE		N01     Fs1   v084
	BYTE	W12
	BYTE		        As1   v092
	BYTE	W12
// 054   ----------------------------------------
	BYTE		        Cn1   v108
	BYTE		N01     Fs1   v080
	BYTE	W12
	BYTE		        As1   v088
	BYTE	W12
	BYTE		        Dn1   v108
	BYTE		N01     Ds1   v080
	BYTE		N01     Fs1   v088
	BYTE	W12
	BYTE		        As1 
	BYTE	W12
	BYTE		        Cn1   v104
	BYTE		N01     Fs1   v084
	BYTE	W12
	BYTE		        As1   v092
	BYTE	W12
	BYTE		        Dn1   v104
	BYTE		N01     Ds1   v080
	BYTE		N01     Fs1   v084
	BYTE	W12
	BYTE		        As1   v088
	BYTE	W12
// 055   ----------------------------------------
	BYTE		        Cn1   v104
	BYTE		N01     Fs1   v084
	BYTE	W12
	BYTE		        As1   v092
	BYTE	W12
	BYTE		        Dn1   v108
	BYTE		N01     Ds1   v084
	BYTE		N01     Fs1   v080
	BYTE	W12
	BYTE		N01   
	BYTE	W06
	BYTE		        Fs1   v088
	BYTE	W06
	BYTE		        Cn1   v108
	BYTE		N01     Fs1   v088
	BYTE	W12
	BYTE		        As1 
	BYTE	W12
	BYTE		        Dn1   v104
	BYTE		N01     Ds1   v088
	BYTE		N01     Fs1   v084
	BYTE	W12
	BYTE		        As1   v088
	BYTE	W12
// 056   ----------------------------------------
	BYTE		        Cn1   v104
	BYTE		N01     Fs1   v084
	BYTE	W12
	BYTE		        As1   v088
	BYTE	W12
	BYTE		        Dn1   v104
	BYTE		N01     Ds1   v088
	BYTE		N01     Fs1   v084
	BYTE	W12
	BYTE		        As1   v088
	BYTE	W12
	BYTE		        Cn1   v112
	BYTE		N01     Fs1   v084
	BYTE	W12
	BYTE		        As1   v088
	BYTE	W12
	BYTE		        Dn1   v112
	BYTE		N01     Ds1   v088
	BYTE		N01     Fs1   v084
	BYTE	W12
	BYTE		        As1   v092
	BYTE	W12
// 057   ----------------------------------------
	BYTE		        Cn1   v104
	BYTE		N01     Fs1   v084
	BYTE	W12
	BYTE		        As1   v092
	BYTE	W12
	BYTE		        Dn1   v108
	BYTE		N01     Ds1   v088
	BYTE		N01     Fs1   v084
	BYTE	W12
	BYTE		N01   
	BYTE	W06
	BYTE		        Fs1   v088
	BYTE	W06
	BYTE		        Cn1   v104
	BYTE		N01     Fs1   v084
	BYTE	W12
	BYTE		        As1   v092
	BYTE	W12
	BYTE		        Dn1   v104
	BYTE		N01     Ds1   v084
	BYTE		N01     Fs1 
	BYTE	W12
	BYTE		        As1   v092
	BYTE	W12
// 058   ----------------------------------------
	BYTE		        Cn1   v108
	BYTE		N01     Fs1   v084
	BYTE	W12
	BYTE		        An1   v088
	BYTE		N01     As1   v092
	BYTE	W12
	BYTE		        Dn1   v104
	BYTE		N01     Ds1   v084
	BYTE		N01     Fs1 
	BYTE	W12
	BYTE		        As1   v092
	BYTE	W12
	BYTE		        Cn1   v112
	BYTE		N01     Ds1   v084
	BYTE		N01     Fs1 
	BYTE	W06
	BYTE		        Ds1   v080
	BYTE	W06
	BYTE		        As1   v092
	BYTE	W12
	BYTE		        Dn1   v108
	BYTE		N01     Ds1   v088
	BYTE		N01     Fs1 
	BYTE	W06
	BYTE		        Ds1 
	BYTE	W06
	BYTE		        An1 
	BYTE		N01     As1   v092
	BYTE	W06
	BYTE		        An1   v084
	BYTE	W06
// 059   ----------------------------------------
	BYTE		        Cn1   v104
	BYTE		N01     Fs1   v080
	BYTE	W12
	BYTE		        As1   v092
	BYTE	W12
	BYTE		        Dn1   v108
	BYTE		N01     Ds1   v084
	BYTE		N01     Fs1 
	BYTE	W12
	BYTE		        Fs1   v088
	BYTE	W06
	BYTE		        Fs1   v084
	BYTE	W06
	BYTE		        Cn1   v108
	BYTE		N01     Fs1   v080
	BYTE	W12
	BYTE		        As1   v088
	BYTE	W12
	BYTE		        Dn1   v108
	BYTE		N01     Ds1   v084
	BYTE		N01     Fs1 
	BYTE	W12
	BYTE		        As1   v088
	BYTE	W12
// 060   ----------------------------------------
	BYTE		        Cn1   v108
	BYTE		N01     Fs1   v084
	BYTE	W12
	BYTE		        As1   v092
	BYTE	W12
	BYTE		        Dn1   v104
	BYTE		N01     Ds1   v088
	BYTE		N01     Fs1 
	BYTE	W12
	BYTE		        As1 
	BYTE	W12
	BYTE		        Cn1   v108
	BYTE		N01     Fs1   v084
	BYTE	W12
	BYTE		        As1   v092
	BYTE	W12
	BYTE		        Dn1   v112
	BYTE		N01     Ds1   v084
	BYTE		N01     Fs1   v080
	BYTE	W12
	BYTE		        As1   v092
	BYTE	W12
// 061   ----------------------------------------
	BYTE		        Cn1   v104
	BYTE		N01     Fs1   v084
	BYTE	W12
	BYTE		        As1   v092
	BYTE	W12
	BYTE		        Dn1   v104
	BYTE		N01     Ds1   v088
	BYTE		N01     Fs1   v084
	BYTE	W12
	BYTE		N01   
	BYTE	W06
	BYTE		N01   
	BYTE	W06
	BYTE		        Cn1   v104
	BYTE		N01     Fs1   v084
	BYTE	W12
	BYTE		        As1   v092
	BYTE	W12
	BYTE		        Dn1   v108
	BYTE		N01     Ds1   v084
	BYTE		N01     Fs1   v088
	BYTE	W12
	BYTE		        As1 
	BYTE	W12
// 062   ----------------------------------------
	BYTE		        Cn1   v104
	BYTE		N01     Fs1   v088
	BYTE	W12
	BYTE		        As1 
	BYTE	W12
	BYTE		        Dn1   v108
	BYTE		N01     Ds1   v080
	BYTE		N01     Fs1   v088
	BYTE	W12
	BYTE		        As1   v092
	BYTE	W12
	BYTE		        Cn1   v108
	BYTE		N01     Fs1   v088
	BYTE	W12
	BYTE		        As1 
	BYTE	W12
	BYTE		        Dn1   v104
	BYTE		N01     Ds1   v084
	BYTE		N01     Fs1 
	BYTE	W12
	BYTE		        As1   v092
	BYTE	W12
// 063   ----------------------------------------
	BYTE		        Cn1   v108
	BYTE		N01     Fs1   v080
	BYTE	W12
	BYTE		        As1   v092
	BYTE	W12
	BYTE		        Dn1   v104
	BYTE		N01     Ds1   v084
	BYTE		N01     Fs1   v080
	BYTE	W12
	BYTE		        Fs1   v084
	BYTE	W06
	BYTE		        Fs1   v088
	BYTE	W06
	BYTE		        Cn1   v104
	BYTE		N01     Fs1   v088
	BYTE	W12
	BYTE		        As1   v092
	BYTE	W12
	BYTE		        Dn1   v112
	BYTE		N01     Ds1   v088
	BYTE		N01     Fs1   v084
	BYTE	W12
	BYTE		        As1   v092
	BYTE	W12
// 064   ----------------------------------------
	BYTE		        Cn1   v104
	BYTE		N01     Fs1   v088
	BYTE	W12
	BYTE		        As1 
	BYTE	W12
	BYTE		        Dn1   v108
	BYTE		N01     Ds1   v084
	BYTE		N01     Fs1   v088
	BYTE	W12
	BYTE		        As1   v092
	BYTE	W12
	BYTE		        Cn1   v104
	BYTE		N01     Fs1   v088
	BYTE	W12
	BYTE		        As1 
	BYTE	W12
	BYTE		        Dn1   v104
	BYTE		N01     Ds1   v088
	BYTE		N01     Fs1   v084
	BYTE	W12
	BYTE		        As1   v092
	BYTE	W12
// 065   ----------------------------------------
	BYTE		        Cn1   v104
	BYTE		N01     Fs1   v084
	BYTE	W12
	BYTE		        As1   v092
	BYTE	W12
	BYTE		        Dn1   v104
	BYTE		N01     Ds1   v084
	BYTE		N01     Fs1   v080
	BYTE	W12
	BYTE		        Fs1   v084
	BYTE	W06
	BYTE		N01   
	BYTE	W06
	BYTE		        Cn1   v104
	BYTE		N01     Fs1   v084
	BYTE	W12
	BYTE		        As1   v092
	BYTE	W12
	BYTE		        Dn1   v108
	BYTE		N01     Ds1   v084
	BYTE		N01     Fs1   v088
	BYTE	W12
	BYTE		        As1   v092
	BYTE	W12
// 066   ----------------------------------------
	BYTE		        Cn1   v108
	BYTE		N01     Fs1   v080
	BYTE	W06
	BYTE		        An1   v088
	BYTE	W06
	BYTE		        As1   v092
	BYTE	W12
	BYTE		        Dn1   v104
	BYTE		N01     Ds1   v084
	BYTE		N01     Fs1 
	BYTE		N01     An1   v080
	BYTE	W12
	BYTE		        As1   v092
	BYTE	W12
	BYTE		        Cn1   v104
	BYTE		N01     Ds1   v084
	BYTE		N01     Fs1 
	BYTE		N01     An1 
	BYTE	W06
	BYTE		        Ds1   v080
	BYTE		N01     An1   v084
	BYTE	W06
	BYTE		        Ds1 
	BYTE		N01     Gn1 
	BYTE		N01     As1   v088
	BYTE	W06
	BYTE		        Ds1 
	BYTE		N01     Gn1   v084
	BYTE	W06
	BYTE		        Dn1   v108
	BYTE		N01     Ds1   v084
	BYTE		N01     Fs1 
	BYTE		N01     An1   v080
	BYTE	W06
	BYTE		N01   
	BYTE	W06
	BYTE		        Gn1   v088
	BYTE		N01     As1 
	BYTE	W06
	BYTE		        Gn1   v084
	BYTE	W06
// 067   ----------------------------------------
	BYTE		        Cn1   v108
	BYTE		N01     Fs1   v080
	BYTE	W12
	BYTE		        As1   v088
	BYTE	W12
	BYTE		        Dn1   v104
	BYTE		N01     Ds1   v084
	BYTE		N01     Fs1 
	BYTE	W12
	BYTE		N01   
	BYTE	W06
	BYTE		        Fs1   v088
	BYTE	W06
	BYTE		        Cn1   v112
	BYTE		N01     Fs1   v084
	BYTE	W12
	BYTE		        As1   v092
	BYTE	W12
	BYTE		        Dn1   v104
	BYTE		N01     Ds1   v088
	BYTE		N01     Fs1   v080
	BYTE	W12
	BYTE		        As1   v092
	BYTE	W12
// 068   ----------------------------------------
	BYTE		        Cn1   v108
	BYTE		N01     Fs1   v084
	BYTE	W12
	BYTE		        As1   v092
	BYTE	W12
	BYTE		        Dn1   v108
	BYTE		N01     Ds1   v080
	BYTE		N01     Fs1   v084
	BYTE	W12
	BYTE		        As1   v088
	BYTE	W12
	BYTE		        Cn1   v112
	BYTE		N01     Fs1   v084
	BYTE	W12
	BYTE		        As1   v092
	BYTE	W12
	BYTE		        Dn1   v108
	BYTE		N01     Ds1   v084
	BYTE		N01     Fs1 
	BYTE	W12
	BYTE		        As1   v088
	BYTE	W12
// 069   ----------------------------------------
	BYTE		        Cn1   v112
	BYTE		N01     Fs1   v084
	BYTE	W12
	BYTE		        As1   v088
	BYTE	W12
	BYTE		        Dn1   v108
	BYTE		N01     Ds1   v088
	BYTE		N01     Fs1   v084
	BYTE	W12
	BYTE		N01   
	BYTE	W06
	BYTE		N01   
	BYTE	W06
	BYTE		        Cn1   v108
	BYTE		N01     Fs1   v084
	BYTE	W12
	BYTE		        As1   v092
	BYTE	W12
	BYTE		        Dn1   v104
	BYTE		N01     Ds1   v084
	BYTE		N01     Fs1 
	BYTE	W12
	BYTE		        As1   v088
	BYTE	W12
// 070   ----------------------------------------
	BYTE		        Cn1   v112
	BYTE		N01     Fs1   v084
	BYTE	W12
	BYTE		        As1   v088
	BYTE	W12
	BYTE		        Dn1   v104
	BYTE		N01     Ds1   v084
	BYTE		N01     Fs1 
	BYTE	W12
	BYTE		        As1   v088
	BYTE	W12
	BYTE		        Cn1   v108
	BYTE		N01     Fs1   v080
	BYTE	W12
	BYTE		        As1   v092
	BYTE	W12
	BYTE		        Dn1   v112
	BYTE		N01     Ds1   v088
	BYTE		N01     Fs1 
	BYTE	W12
	BYTE		        As1 
	BYTE	W12
// 071   ----------------------------------------
	BYTE		        Cn1   v104
	BYTE		N01     Fs1   v088
	BYTE	W12
	BYTE		        As1 
	BYTE	W12
	BYTE		        Dn1   v104
	BYTE		N01     Ds1   v080
	BYTE		N01     Fs1 
	BYTE	W12
	BYTE		        Fs1   v084
	BYTE	W06
	BYTE		N01   
	BYTE	W06
	BYTE		        Cn1   v112
	BYTE		N01     Fs1   v088
	BYTE	W12
	BYTE		        As1   v092
	BYTE	W12
	BYTE		        Dn1   v104
	BYTE		N01     Ds1   v084
	BYTE		N01     Fs1 
	BYTE	W12
	BYTE		        As1   v092
	BYTE	W12
// 072   ----------------------------------------
	BYTE		        Cn1   v104
	BYTE		N01     Fs1   v084
	BYTE	W12
	BYTE		        As1   v092
	BYTE	W12
	BYTE		        Dn1   v108
	BYTE		N01     Ds1   v088
	BYTE		N01     Fs1 
	BYTE	W12
	BYTE		        As1 
	BYTE	W12
	BYTE		        Cn1   v108
	BYTE		N01     Fs1   v088
	BYTE	W12
	BYTE		        As1   v092
	BYTE	W12
	BYTE		        Dn1   v108
	BYTE		N01     Ds1   v088
	BYTE		N01     Fs1   v084
	BYTE	W12
	BYTE		        As1   v088
	BYTE	W12
// 073   ----------------------------------------
	BYTE		        Cn1   v104
	BYTE		N01     Fs1   v084
	BYTE	W12
	BYTE		        As1   v092
	BYTE	W12
	BYTE		        Dn1   v108
	BYTE		N01     Ds1   v084
	BYTE		N01     Fs1 
	BYTE	W12
	BYTE		N01   
	BYTE	W06
	BYTE		        Fs1   v088
	BYTE	W06
	BYTE		        Cn1   v104
	BYTE		N01     Fs1   v088
	BYTE	W12
	BYTE		        As1 
	BYTE	W12
	BYTE		        Dn1   v104
	BYTE		N01     Ds1   v084
	BYTE		N01     Fs1 
	BYTE	W12
	BYTE		        As1   v092
	BYTE	W12
// 074   ----------------------------------------
	BYTE		        Cn1   v112
	BYTE		N01     Fs1   v084
	BYTE	W12
	BYTE		        As1   v092
	BYTE	W12
	BYTE		        Dn1   v108
	BYTE		N01     Ds1   v084
	BYTE		N01     Fs1   v080
	BYTE	W12
	BYTE		        As1   v092
	BYTE	W12
	BYTE		        Cn1   v108
	BYTE		N01     Fs1   v080
	BYTE		N01     An1   v084
	BYTE	W06
	BYTE		N01   
	BYTE	W06
	BYTE		        Gn1   v088
	BYTE		N01     As1 
	BYTE	W06
	BYTE		        Gn1 
	BYTE	W06
	BYTE		        Dn1   v104
	BYTE		N01     Ds1   v084
	BYTE		N01     Fs1 
	BYTE		N01     An1 
	BYTE	W06
	BYTE		        An1   v088
	BYTE	W06
	BYTE		        Gn1 
	BYTE		N01     As1   v092
	BYTE	W06
	BYTE		        Gn1   v084
	BYTE	W06
// 075   ----------------------------------------
	BYTE		        Cn1   v112
	BYTE		N01     Fs1   v084
	BYTE	W12
	BYTE		        As1   v092
	BYTE	W12
	BYTE		        Dn1   v108
	BYTE		N01     Ds1   v084
	BYTE		N01     Fs1 
	BYTE	W12
	BYTE		        Fs1   v080
	BYTE	W06
	BYTE		        Fs1   v084
	BYTE	W06
	BYTE		        Cn1   v108
	BYTE		N01     Fs1   v084
	BYTE	W12
	BYTE		        As1   v092
	BYTE	W12
	BYTE		        Dn1   v108
	BYTE		N01     Ds1   v080
	BYTE		N01     Fs1   v084
	BYTE	W12
	BYTE		        As1   v092
	BYTE	W12
// 076   ----------------------------------------
	BYTE		        Cn1   v104
	BYTE		N01     Fs1   v084
	BYTE	W12
	BYTE		        As1   v092
	BYTE	W12
	BYTE		        Dn1   v104
	BYTE		N01     Ds1   v084
	BYTE		N01     Fs1 
	BYTE	W12
	BYTE		        As1   v092
	BYTE	W12
	BYTE		        Cn1   v104
	BYTE		N01     Fs1   v080
	BYTE	W12
	BYTE		        As1   v088
	BYTE	W12
	BYTE		        Dn1   v104
	BYTE		N01     Ds1   v088
	BYTE		N01     Fs1   v084
	BYTE	W12
	BYTE		        As1   v088
	BYTE	W12
// 077   ----------------------------------------
	BYTE		        Cn1   v108
	BYTE		N01     Fs1   v088
	BYTE	W12
	BYTE		        As1   v092
	BYTE	W12
	BYTE		        Dn1   v104
	BYTE		N01     Ds1   v080
	BYTE		N01     Fs1   v084
	BYTE	W12
	BYTE		N01   
	BYTE	W06
	BYTE		        Fs1   v080
	BYTE	W06
	BYTE		        Cn1   v104
	BYTE		N01     Fs1   v084
	BYTE	W12
	BYTE		        As1   v092
	BYTE	W12
	BYTE		        Dn1   v104
	BYTE		N01     Ds1   v084
	BYTE		N01     Fs1 
	BYTE	W12
	BYTE		        As1   v088
	BYTE	W12
// 078   ----------------------------------------
	BYTE		        Cn1   v104
	BYTE		N01     Fs1   v084
	BYTE	W12
	BYTE		        As1   v092
	BYTE	W12
	BYTE		        Dn1   v104
	BYTE		N01     Ds1   v088
	BYTE		N01     Fs1   v084
	BYTE	W06
	BYTE		        An1   v088
	BYTE	W06
	BYTE		        An1   v084
	BYTE		N01     As1   v092
	BYTE	W12
	BYTE		        Cn1   v104
	BYTE		N01     Ds1   v088
	BYTE		N01     Fs1   v084
	BYTE	W06
	BYTE		        Ds1   v088
	BYTE		N01     An1   v084
	BYTE	W06
	BYTE		N01   
	BYTE		N01     As1   v092
	BYTE	W12
	BYTE		        Dn1   v108
	BYTE		N01     Ds1   v084
	BYTE		N01     Fs1 
	BYTE		N01     An1 
	BYTE	W06
	BYTE		        Ds1 
	BYTE		N01     An1   v088
	BYTE	W06
	BYTE		        Gn1   v084
	BYTE		N01     As1   v092
	BYTE	W06
	BYTE		        Gn1   v088
	BYTE	W06
// 079   ----------------------------------------
	BYTE		        Cn1   v104
	BYTE		N01     Fs1   v080
	BYTE	W12
	BYTE		        As1   v092
	BYTE	W12
	BYTE		        Dn1   v108
	BYTE		N01     Ds1   v088
	BYTE		N01     Fs1   v084
	BYTE	W12
	BYTE		N01   
	BYTE	W06
	BYTE		N01   
	BYTE	W06
	BYTE		        Cn1   v104
	BYTE		N01     Fs1   v088
	BYTE	W12
	BYTE		        As1   v092
	BYTE	W12
	BYTE		        Dn1   v104
	BYTE		N01     Ds1   v084
	BYTE		N01     Fs1   v088
	BYTE	W12
	BYTE		        As1   v092
	BYTE	W12
// 080   ----------------------------------------
	BYTE		        Cn1   v104
	BYTE		N01     Fs1   v084
	BYTE	W12
	BYTE		        As1   v092
	BYTE	W12
	BYTE		        Dn1   v112
	BYTE		N01     Ds1   v084
	BYTE		N01     Fs1 
	BYTE	W12
	BYTE		        As1   v088
	BYTE	W12
	BYTE		        Cn1   v104
	BYTE		N01     Fs1   v084
	BYTE	W12
	BYTE		        As1   v092
	BYTE	W12
	BYTE		        Dn1   v108
	BYTE		N01     Ds1   v088
	BYTE		N01     Fs1   v084
	BYTE	W12
	BYTE		        As1   v088
	BYTE	W12
// 081   ----------------------------------------
	BYTE		        Cn1   v104
	BYTE		N01     Fs1   v084
	BYTE	W12
	BYTE		        As1   v092
	BYTE	W12
	BYTE		        Dn1   v108
	BYTE		N01     Ds1   v084
	BYTE		N01     Fs1 
	BYTE	W12
	BYTE		N01   
	BYTE	W06
	BYTE		        Fs1   v088
	BYTE	W06
	BYTE		        Cn1   v104
	BYTE		N01     Fs1   v084
	BYTE	W12
	BYTE		        As1   v088
	BYTE	W12
	BYTE		        Dn1   v104
	BYTE		N01     Ds1   v088
	BYTE		N01     Fs1   v084
	BYTE	W12
	BYTE		        As1   v092
	BYTE	W12
// 082   ----------------------------------------
	BYTE		        Cn1   v104
	BYTE		N01     Fs1   v084
	BYTE	W12
	BYTE		        As1   v092
	BYTE	W12
	BYTE		        Dn1   v108
	BYTE		N01     Ds1   v088
	BYTE		N01     Fs1   v084
	BYTE	W12
	BYTE		        As1   v088
	BYTE	W12
	BYTE		        Cn1   v104
	BYTE		N01     Fs1   v084
	BYTE	W12
	BYTE		        As1   v092
	BYTE	W12
	BYTE		        Dn1   v104
	BYTE		N01     Ds1   v088
	BYTE		N01     Fs1   v084
	BYTE	W12
	BYTE		        As1   v092
	BYTE	W12
// 083   ----------------------------------------
	BYTE		        Cn1   v112
	BYTE		N01     Fs1   v088
	BYTE	W12
	BYTE		        As1   v092
	BYTE	W12
	BYTE		        Dn1   v104
	BYTE		N01     Ds1   v088
	BYTE		N01     Fs1   v084
	BYTE	W12
	BYTE		N01   
	BYTE	W06
	BYTE		        Fs1   v080
	BYTE	W06
	BYTE		        Cn1   v108
	BYTE		N01     Fs1   v084
	BYTE	W12
	BYTE		        As1   v092
	BYTE	W12
	BYTE		        Dn1   v104
	BYTE		N01     Ds1   v080
	BYTE		N01     Fs1   v084
	BYTE	W12
	BYTE		        As1   v088
	BYTE	W12
// 084   ----------------------------------------
	BYTE		        Cn1   v104
	BYTE		N01     Fs1   v080
	BYTE	W12
	BYTE		        As1   v092
	BYTE	W12
	BYTE		        Dn1   v108
	BYTE		N01     Ds1   v088
	BYTE		N01     Fs1 
	BYTE	W12
	BYTE		        As1   v092
	BYTE	W12
	BYTE		        Cn1   v108
	BYTE		N01     Fs1   v084
	BYTE	W12
	BYTE		        As1   v088
	BYTE	W12
	BYTE		        Dn1   v112
	BYTE		N01     Ds1   v084
	BYTE		N01     Fs1 
	BYTE	W12
	BYTE		        As1   v092
	BYTE	W12
// 085   ----------------------------------------
	BYTE		        Cn1   v104
	BYTE		N01     Fs1   v084
	BYTE	W12
	BYTE		        As1   v092
	BYTE	W12
	BYTE		        Dn1   v108
	BYTE		N01     Ds1   v084
	BYTE		N01     Fs1 
	BYTE	W12
	BYTE		        Fs1   v080
	BYTE	W06
	BYTE		        Fs1   v084
	BYTE	W06
	BYTE		        Cn1   v108
	BYTE		N01     Fs1   v084
	BYTE	W12
	BYTE		        As1   v088
	BYTE	W12
	BYTE		        Dn1   v108
	BYTE		N01     Ds1   v088
	BYTE		N01     Fs1   v084
	BYTE	W12
	BYTE		        As1   v092
	BYTE	W12
// 086   ----------------------------------------
	BYTE		        Cn1   v108
	BYTE		N01     Fs1   v080
	BYTE	W12
	BYTE		        As1   v092
	BYTE	W12
	BYTE		        Dn1   v104
	BYTE		N01     Ds1   v088
	BYTE		N01     Fs1   v084
	BYTE	W12
	BYTE		        As1   v092
	BYTE	W12
	BYTE		        Cn1   v104
	BYTE		N01     Fs1   v084
	BYTE		N01     An1 
	BYTE	W06
	BYTE		N01   
	BYTE	W06
	BYTE		        Gn1   v088
	BYTE		N01     As1   v092
	BYTE	W06
	BYTE		        Gn1   v084
	BYTE	W06
	BYTE		        Dn1   v112
	BYTE		N01     Ds1   v088
	BYTE		N01     Fs1 
	BYTE		N01     An1 
	BYTE	W06
	BYTE		N01   
	BYTE	W06
	BYTE		        Gn1   v084
	BYTE		N01     As1   v092
	BYTE	W06
	BYTE		        Gn1   v080
	BYTE	W06
// 087   ----------------------------------------
	BYTE		        Cn1   v108
	BYTE		N01     Fs1   v084
	BYTE	W12
	BYTE		        As1   v092
	BYTE	W12
	BYTE		        Dn1   v104
	BYTE		N01     Ds1   v084
	BYTE		N01     Fs1 
	BYTE	W12
	BYTE		        Fs1   v088
	BYTE	W06
	BYTE		        Fs1   v084
	BYTE	W06
	BYTE		        Cn1   v104
	BYTE		N01     Fs1   v088
	BYTE	W12
	BYTE		        As1   v092
	BYTE	W12
	BYTE		        Dn1   v104
	BYTE		N01     Ds1   v088
	BYTE		N01     Fs1   v084
	BYTE	W12
	BYTE		        As1   v092
	BYTE	W12
// 088   ----------------------------------------
	BYTE		        Cn1   v112
	BYTE		N01     Fs1   v084
	BYTE	W12
	BYTE		        As1   v092
	BYTE	W12
	BYTE		        Dn1   v104
	BYTE		N01     Ds1   v088
	BYTE		N01     Fs1   v084
	BYTE	W12
	BYTE		        As1   v092
	BYTE	W12
	BYTE		        Cn1   v104
	BYTE		N01     Fs1   v080
	BYTE	W12
	BYTE		        As1   v092
	BYTE	W12
	BYTE		        Dn1   v108
	BYTE		N01     Ds1   v088
	BYTE		N01     Fs1   v080
	BYTE	W12
	BYTE		        As1   v088
	BYTE	W12
// 089   ----------------------------------------
	BYTE		        Cn1   v104
	BYTE		N01     Fs1   v084
	BYTE	W12
	BYTE		        As1   v092
	BYTE	W12
	BYTE		        Dn1   v104
	BYTE		N01     Ds1   v088
	BYTE		N01     Fs1 
	BYTE	W12
	BYTE		        Fs1   v084
	BYTE	W06
	BYTE		N01   
	BYTE	W06
	BYTE		        Cn1   v112
	BYTE		N01     Fs1   v084
	BYTE	W12
	BYTE		        As1   v092
	BYTE	W12
	BYTE		        Dn1   v104
	BYTE		N01     Ds1   v088
	BYTE		N01     Fs1   v080
	BYTE	W12
	BYTE		        As1   v088
	BYTE	W12
// 090   ----------------------------------------
	BYTE		        Cn1   v104
	BYTE		N01     Fs1   v080
	BYTE	W12
	BYTE		        As1   v092
	BYTE	W12
	BYTE		        Dn1   v108
	BYTE		N01     Ds1   v088
	BYTE		N01     Fs1   v084
	BYTE	W12
	BYTE		        As1   v092
	BYTE	W12
	BYTE		        Cn1   v104
	BYTE		N01     Fs1   v080
	BYTE	W12
	BYTE		        As1   v092
	BYTE	W12
	BYTE		        Dn1   v104
	BYTE		N01     Ds1   v084
	BYTE		N01     Fs1 
	BYTE	W12
	BYTE		        As1   v092
	BYTE	W12
// 091   ----------------------------------------
	BYTE		        Cn1   v108
	BYTE		N01     Fs1   v084
	BYTE	W12
	BYTE		        As1   v092
	BYTE	W12
	BYTE		        Dn1   v112
	BYTE		N01     Ds1   v080
	BYTE		N01     Fs1   v088
	BYTE	W12
	BYTE		        Fs1   v084
	BYTE	W06
	BYTE		N01   
	BYTE	W06
	BYTE		        Cn1   v104
	BYTE		N01     Fs1   v084
	BYTE	W12
	BYTE		        As1   v092
	BYTE	W12
	BYTE		        Dn1   v104
	BYTE		N01     Ds1   v084
	BYTE		N01     Fs1   v088
	BYTE	W12
	BYTE		        As1   v092
	BYTE	W12
// 092   ----------------------------------------
	BYTE		        Cn1   v104
	BYTE		N01     Fs1   v084
	BYTE	W12
	BYTE		        As1   v092
	BYTE	W12
	BYTE		        Dn1   v104
	BYTE		N01     Ds1   v088
	BYTE		N01     Fs1   v084
	BYTE	W12
	BYTE		        As1   v092
	BYTE	W12
	BYTE		        Cn1   v104
	BYTE		N01     Fs1   v084
	BYTE	W12
	BYTE		        As1   v092
	BYTE	W12
	BYTE		        Dn1   v104
	BYTE		N01     Ds1   v088
	BYTE		N01     Fs1   v084
	BYTE	W12
	BYTE		        As1   v088
	BYTE	W12
// 093   ----------------------------------------
	BYTE		        Cn1   v108
	BYTE		N01     Fs1   v080
	BYTE	W12
	BYTE		        As1   v088
	BYTE	W12
	BYTE		        Dn1   v104
	BYTE		N01     Ds1   v084
	BYTE		N01     Fs1   v088
	BYTE	W12
	BYTE		N01   
	BYTE	W06
	BYTE		        Fs1   v084
	BYTE	W06
	BYTE		        Cn1   v104
	BYTE		N01     Fs1   v084
	BYTE	W12
	BYTE		        As1   v092
	BYTE	W12
	BYTE		        Dn1   v108
	BYTE		N01     Ds1   v088
	BYTE		N01     Fs1   v084
	BYTE	W12
	BYTE		        As1   v088
	BYTE	W12
// 094   ----------------------------------------
	BYTE		        Cn1   v104
	BYTE		N01     Fs1   v084
	BYTE	W12
	BYTE		        As1   v088
	BYTE	W12
	BYTE		        Dn1   v108
	BYTE		N01     Ds1   v084
	BYTE		N01     Fs1 
	BYTE	W12
	BYTE		        As1   v088
	BYTE	W12
	BYTE		        Cn1   v108
	BYTE		N01     Ds1   v084
	BYTE		N01     Fs1 
	BYTE	W06
	BYTE		        Ds1 
	BYTE	W06
	BYTE		        As1   v092
	BYTE	W12
	BYTE		        Dn1   v104
	BYTE		N01     Ds1   v084
	BYTE		N01     Fs1 
	BYTE		N01     An1 
	BYTE	W06
	BYTE		        Ds1 
	BYTE		N01     An1 
	BYTE	W06
	BYTE		        As1   v088
	BYTE	W12
// 095   ----------------------------------------
	BYTE		        Cn1   v108
	BYTE		N01     Fs1   v084
	BYTE	W12
	BYTE		        As1   v088
	BYTE	W12
	BYTE		        Dn1   v104
	BYTE		N01     Ds1   v088
	BYTE		N01     Fs1   v084
	BYTE	W12
	BYTE		N01   
	BYTE	W06
	BYTE		N01   
	BYTE	W06
	BYTE		        Cn1   v108
	BYTE		N01     Fs1   v080
	BYTE	W12
	BYTE		        As1   v092
	BYTE	W12
	BYTE		        Dn1   v108
	BYTE		N01     Ds1   v088
	BYTE		N01     Fs1   v084
	BYTE	W12
	BYTE		        As1   v092
	BYTE	W12
// 096   ----------------------------------------
	BYTE		        Cn1   v108
	BYTE		N01     Fs1   v084
	BYTE	W12
	BYTE		        As1   v092
	BYTE	W12
	BYTE		        Dn1   v104
	BYTE		N01     Ds1   v088
	BYTE		N01     Fs1   v084
	BYTE	W12
	BYTE		        As1   v092
	BYTE	W12
	BYTE		        Cn1   v104
	BYTE		N01     Fs1   v080
	BYTE	W12
	BYTE		        As1   v088
	BYTE	W12
	BYTE		        Dn1   v104
	BYTE		N01     Ds1   v084
	BYTE		N01     Fs1 
	BYTE	W12
	BYTE		        As1   v092
	BYTE	W12
// 097   ----------------------------------------
	BYTE		        Cn1   v112
	BYTE		N01     Fs1   v084
	BYTE	W12
	BYTE		        As1   v088
	BYTE	W12
	BYTE		        Dn1   v112
	BYTE		N01     Ds1   v088
	BYTE		N01     Fs1   v080
	BYTE	W12
	BYTE		        Fs1   v084
	BYTE	W06
	BYTE		N01   
	BYTE	W06
	BYTE		        Cn1   v108
	BYTE		N01     Fs1   v084
	BYTE	W12
	BYTE		        As1   v092
	BYTE	W12
	BYTE		        Dn1   v104
	BYTE		N01     Ds1   v088
	BYTE		N01     Fs1   v084
	BYTE	W12
	BYTE		        As1   v088
	BYTE	W12
// 098   ----------------------------------------
	BYTE		        Cn1   v112
	BYTE		N01     Fs1   v084
	BYTE	W12
	BYTE		        As1   v092
	BYTE	W12
	BYTE		        Dn1   v108
	BYTE		N01     Ds1   v088
	BYTE		N01     Fs1   v084
	BYTE	W12
	BYTE		        As1   v092
	BYTE	W12
	BYTE		        Cn1   v104
	BYTE		N01     Fs1   v088
	BYTE	W12
	BYTE		        As1   v092
	BYTE	W12
	BYTE		        Dn1   v112
	BYTE		N01     Ds1   v088
	BYTE		N01     Fs1   v084
	BYTE	W12
	BYTE		        As1   v092
	BYTE	W12
// 099   ----------------------------------------
	BYTE		        Cn1   v104
	BYTE		N01     Fs1   v084
	BYTE	W12
	BYTE		        As1   v088
	BYTE	W12
	BYTE		        Dn1   v112
	BYTE		N01     Ds1   v084
	BYTE		N01     Fs1 
	BYTE	W12
	BYTE		        Fs1   v080
	BYTE	W06
	BYTE		        Fs1   v084
	BYTE	W06
	BYTE		        Cn1   v108
	BYTE		N01     Fs1   v080
	BYTE	W12
	BYTE		        As1   v088
	BYTE	W12
	BYTE		        Dn1   v104
	BYTE		N01     Ds1   v084
	BYTE		N01     Fs1 
	BYTE	W12
	BYTE		        As1   v088
	BYTE	W12
// 100   ----------------------------------------
	BYTE		        Cn1   v104
	BYTE		N01     Fs1   v084
	BYTE	W12
	BYTE		        As1   v092
	BYTE	W12
	BYTE		        Dn1   v104
	BYTE		N01     Ds1   v088
	BYTE		N01     Fs1   v084
	BYTE	W12
	BYTE		        As1   v092
	BYTE	W12
	BYTE		        Cn1   v104
	BYTE		N01     Fs1   v084
	BYTE	W12
	BYTE		        As1   v092
	BYTE	W12
	BYTE		        Dn1   v108
	BYTE		N01     Ds1   v084
	BYTE		N01     Fs1 
	BYTE	W12
	BYTE		        As1   v088
	BYTE	W12
// 101   ----------------------------------------
	BYTE		        Cn1   v112
	BYTE		N01     Fs1   v080
	BYTE	W12
	BYTE		        As1   v092
	BYTE	W12
	BYTE		        Dn1   v104
	BYTE		N01     Ds1   v084
	BYTE		N01     Fs1   v088
	BYTE	W12
	BYTE		        Fs1   v084
	BYTE	W06
	BYTE		N01   
	BYTE	W06
	BYTE		        Cn1   v108
	BYTE		N01     Fs1   v084
	BYTE	W12
	BYTE		        As1   v088
	BYTE	W12
	BYTE		        Dn1   v104
	BYTE		N01     Ds1   v088
	BYTE		N01     Fs1   v084
	BYTE	W12
	BYTE		        As1   v088
	BYTE	W12
// 102   ----------------------------------------
	BYTE		        Cn1   v104
	BYTE		N01     Fs1   v084
	BYTE	W12
	BYTE		        As1   v088
	BYTE	W12
	BYTE		        Dn1   v104
	BYTE		N01     Ds1   v088
	BYTE		N01     Fs1   v084
	BYTE	W12
	BYTE		        As1   v088
	BYTE	W12
	BYTE		        Cn1   v108
	BYTE		N01     Fs1   v084
	BYTE		N01     An1 
	BYTE	W06
	BYTE		N01   
	BYTE	W06
	BYTE		        Gn1   v080
	BYTE		N01     As1   v088
	BYTE	W06
	BYTE		        Gn1   v084
	BYTE	W06
	BYTE		        Dn1   v104
	BYTE		N01     Ds1   v084
	BYTE		N01     Fs1   v080
	BYTE		N01     An1   v084
	BYTE	W06
	BYTE		N01   
	BYTE	W06
	BYTE		        Gn1 
	BYTE		N01     As1   v092
	BYTE	W06
	BYTE		        Gn1   v088
	BYTE	W06
// 103   ----------------------------------------
	BYTE		        Cn1   v104
	BYTE		N01     As1   v092
	BYTE	W18
	BYTE		        Cn1   v108
	BYTE		N01     Fs1   v088
	BYTE	W06
	BYTE		        Dn1   v104
	BYTE	W12
	BYTE	GoTo
	 POIN2	never_gonna_9_B1
never_gonna_9_B2:
	BYTE		N01     Cn1   v104
	BYTE		N01     As1   v088
	BYTE	W36
	BYTE		        An1   v084
	BYTE	W06
	BYTE		N01   
	BYTE	W06
	BYTE		        Gn1   v080
	BYTE	W06
	BYTE		        Gn1   v088
	BYTE	W06
// 104   ----------------------------------------
	BYTE		        Cn1   v104
	BYTE		N01     An1   v060
	BYTE		N01     As1   v088
	BYTE		N01     Ds2   v092
	BYTE	W96
// 105   ----------------------------------------
	BYTE	W28
	BYTE	FINE

//**************** Track 10 (Midi-Chn.11) ****************//

never_gonna_10:
	BYTE	KEYSH   never_gonna_key+0
// 000   ----------------------------------------
	BYTE	W22
	BYTE	W14
	BYTE	W01
	BYTE		VOICE   82
	BYTE		VOL     100*never_gonna_mvl/mxv
	BYTE		PAN     c_v+0
	BYTE	W23
	BYTE	W01
	BYTE	W32
	BYTE	W03
// 001   ----------------------------------------
	BYTE	W96
// 002   ----------------------------------------
	BYTE	W96
// 003   ----------------------------------------
	BYTE	W96
never_gonna_10_B1:
// 004   ----------------------------------------
	BYTE	W96
// 005   ----------------------------------------
	BYTE	W96
// 006   ----------------------------------------
	BYTE	W96
// 007   ----------------------------------------
	BYTE	W96
// 008   ----------------------------------------
	BYTE	W96
// 009   ----------------------------------------
	BYTE	W96
// 010   ----------------------------------------
	BYTE	W96
// 011   ----------------------------------------
	BYTE	W96
// 012   ----------------------------------------
	BYTE	W96
// 013   ----------------------------------------
	BYTE	W96
// 014   ----------------------------------------
	BYTE	W96
// 015   ----------------------------------------
	BYTE	W96
// 016   ----------------------------------------
	BYTE	W96
// 017   ----------------------------------------
	BYTE	W96
// 018   ----------------------------------------
	BYTE	W96
// 019   ----------------------------------------
	BYTE	W96
// 020   ----------------------------------------
	BYTE	W96
// 021   ----------------------------------------
	BYTE	W96
// 022   ----------------------------------------
	BYTE	W96
// 023   ----------------------------------------
	BYTE	W96
// 024   ----------------------------------------
	BYTE	W96
// 025   ----------------------------------------
	BYTE	W96
// 026   ----------------------------------------
	BYTE	W96
// 027   ----------------------------------------
	BYTE	W96
// 028   ----------------------------------------
	BYTE	W96
// 029   ----------------------------------------
	BYTE	W96
// 030   ----------------------------------------
	BYTE	W96
// 031   ----------------------------------------
	BYTE	W96
// 032   ----------------------------------------
	BYTE	W96
// 033   ----------------------------------------
	BYTE	W96
// 034   ----------------------------------------
	BYTE	W96
// 035   ----------------------------------------
	BYTE	W96
// 036   ----------------------------------------
	BYTE	W96
// 037   ----------------------------------------
	BYTE	W96
// 038   ----------------------------------------
	BYTE	W96
// 039   ----------------------------------------
	BYTE	W96
// 040   ----------------------------------------
	BYTE	W96
// 041   ----------------------------------------
	BYTE	W96
// 042   ----------------------------------------
	BYTE	W96
// 043   ----------------------------------------
	BYTE	W96
// 044   ----------------------------------------
	BYTE	W96
// 045   ----------------------------------------
	BYTE	W96
// 046   ----------------------------------------
	BYTE	W96
// 047   ----------------------------------------
	BYTE	W96
// 048   ----------------------------------------
	BYTE	W96
// 049   ----------------------------------------
	BYTE	W96
// 050   ----------------------------------------
	BYTE	W96
// 051   ----------------------------------------
	BYTE	W96
// 052   ----------------------------------------
	BYTE	W96
// 053   ----------------------------------------
	BYTE	W96
// 054   ----------------------------------------
	BYTE	W96
// 055   ----------------------------------------
	BYTE	W96
// 056   ----------------------------------------
	BYTE	W96
// 057   ----------------------------------------
	BYTE	W96
// 058   ----------------------------------------
	BYTE	W96
// 059   ----------------------------------------
	BYTE	W96
// 060   ----------------------------------------
	BYTE	W96
// 061   ----------------------------------------
	BYTE	W96
// 062   ----------------------------------------
	BYTE	W96
// 063   ----------------------------------------
	BYTE	W96
// 064   ----------------------------------------
	BYTE	W96
// 065   ----------------------------------------
	BYTE	W96
// 066   ----------------------------------------
	BYTE	W96
// 067   ----------------------------------------
	BYTE	W96
// 068   ----------------------------------------
	BYTE	W96
// 069   ----------------------------------------
	BYTE	W96
// 070   ----------------------------------------
	BYTE		N30     Fs2   v060
	BYTE		N30     As2   v064
	BYTE		N30     Cs3   v060
	BYTE		N30     Fn3 
	BYTE	W36
	BYTE		N60     Fn2   v064
	BYTE		N60     Gs2 
	BYTE		N60     Cn3 
	BYTE		N60     Ds3   v060
	BYTE	W60
// 071   ----------------------------------------
	BYTE	W96
// 072   ----------------------------------------
	BYTE	W96
// 073   ----------------------------------------
	BYTE	W96
// 074   ----------------------------------------
	BYTE		N30     Fs2 
	BYTE		N30     As2   v064
	BYTE		N30     Cs3   v060
	BYTE		N30     Fn3   v064
	BYTE	W36
	BYTE		N54     Fn2   v060
	BYTE		N54     Gs2   v064
	BYTE		N54     Cn3   v060
	BYTE		N54     Ds3 
	BYTE	W60
// 075   ----------------------------------------
	BYTE	W96
// 076   ----------------------------------------
	BYTE	W96
// 077   ----------------------------------------
	BYTE	W96
// 078   ----------------------------------------
	BYTE	W96
// 079   ----------------------------------------
	BYTE	W96
// 080   ----------------------------------------
	BYTE	W96
// 081   ----------------------------------------
	BYTE	W96
// 082   ----------------------------------------
	BYTE	W96
// 083   ----------------------------------------
	BYTE	W96
// 084   ----------------------------------------
	BYTE	W96
// 085   ----------------------------------------
	BYTE	W96
// 086   ----------------------------------------
	BYTE	W96
// 087   ----------------------------------------
	BYTE	W96
// 088   ----------------------------------------
	BYTE	W96
// 089   ----------------------------------------
	BYTE	W96
// 090   ----------------------------------------
	BYTE	W96
// 091   ----------------------------------------
	BYTE	W96
// 092   ----------------------------------------
	BYTE	W96
// 093   ----------------------------------------
	BYTE	W96
// 094   ----------------------------------------
	BYTE	W96
// 095   ----------------------------------------
	BYTE	W96
// 096   ----------------------------------------
	BYTE	W96
// 097   ----------------------------------------
	BYTE	W96
// 098   ----------------------------------------
	BYTE	W96
// 099   ----------------------------------------
	BYTE	W96
// 100   ----------------------------------------
	BYTE	W96
// 101   ----------------------------------------
	BYTE	W96
// 102   ----------------------------------------
	BYTE	W96
// 103   ----------------------------------------
	BYTE	W36
	BYTE	GoTo
	 POIN2	never_gonna_10_B1
never_gonna_10_B2:
	BYTE	W60
// 104   ----------------------------------------
	BYTE	W96
// 105   ----------------------------------------
	BYTE	W28
	BYTE	FINE

//**************** Track 11 (Midi-Chn.14) ****************//

never_gonna_11:
	BYTE	KEYSH   never_gonna_key+0
// 000   ----------------------------------------
	BYTE	W23
	BYTE	W17
	BYTE		VOICE   53
	BYTE	W01
	BYTE		VOL     100*never_gonna_mvl/mxv
	BYTE		PAN     c_v+20
	BYTE	W23
	BYTE	W01
	BYTE	W30
	BYTE	W01
// 001   ----------------------------------------
	BYTE	W96
// 002   ----------------------------------------
	BYTE	W96
// 003   ----------------------------------------
	BYTE	W96
never_gonna_11_B1:
// 004   ----------------------------------------
	BYTE	W96
// 005   ----------------------------------------
	BYTE	W96
// 006   ----------------------------------------
	BYTE	W96
// 007   ----------------------------------------
	BYTE	W96
// 008   ----------------------------------------
	BYTE	W96
// 009   ----------------------------------------
	BYTE	W96
// 010   ----------------------------------------
	BYTE	W96
// 011   ----------------------------------------
	BYTE	W96
// 012   ----------------------------------------
	BYTE	W96
// 013   ----------------------------------------
	BYTE	W96
// 014   ----------------------------------------
	BYTE	W96
// 015   ----------------------------------------
	BYTE	W96
// 016   ----------------------------------------
	BYTE	W96
// 017   ----------------------------------------
	BYTE	W96
// 018   ----------------------------------------
	BYTE	W96
// 019   ----------------------------------------
	BYTE	W96
// 020   ----------------------------------------
	BYTE	W96
// 021   ----------------------------------------
	BYTE	W96
// 022   ----------------------------------------
	BYTE	W96
// 023   ----------------------------------------
	BYTE		N17     Fn3   v088
	BYTE		N17     Gs3 
	BYTE		N17     Cs4   v084
	BYTE	W24
	BYTE		N11     Fn3   v088
	BYTE		N11     Gs3   v084
	BYTE		N11     Cs4   v088
	BYTE	W12
	BYTE		        Ds3   v084
	BYTE		N11     Gs3 
	BYTE		N11     Cn4   v088
	BYTE	W60
// 024   ----------------------------------------
	BYTE		N17     Ds3   v092
	BYTE		N17     Gs3   v088
	BYTE		N17     Cn4   v084
	BYTE	W24
	BYTE		N11     Ds3 
	BYTE		N11     Gs3   v088
	BYTE		N11     Cn4 
	BYTE	W12
	BYTE		        Cs3 
	BYTE		N11     Fn3   v092
	BYTE		N11     As3   v084
	BYTE	W60
// 025   ----------------------------------------
	BYTE	W96
// 026   ----------------------------------------
	BYTE		N17     Ds3   v092
	BYTE		N17     Gs3   v088
	BYTE		N17     Cn4 
	BYTE	W24
	BYTE		N52     Fn3 
	BYTE		N52     As3   v084
	BYTE		N52     Cs4 
	BYTE	W72
// 027   ----------------------------------------
	BYTE		N17     Ds3   v088
	BYTE		N17     Gs3   v092
	BYTE		N17     Cs4   v084
	BYTE	W24
	BYTE		N11     Ds3   v088
	BYTE		N11     Gs3   v092
	BYTE		N11     Cs4   v088
	BYTE	W12
	BYTE		N32     Ds3 
	BYTE		N32     Gs3   v084
	BYTE		N32     Cn4 
	BYTE	W60
// 028   ----------------------------------------
	BYTE		N17     Gs3   v088
	BYTE		N17     Cn4 
	BYTE		N17     Ds4 
	BYTE	W24
	BYTE		N11     Gs3 
	BYTE		N11     Cn4 
	BYTE		N11     Ds4   v084
	BYTE	W12
	BYTE		N17     Fn3   v088
	BYTE		N17     As3   v084
	BYTE		N17     Cs4   v088
	BYTE	W18
	BYTE		N05     Ds3 
	BYTE		N05     Gs3   v084
	BYTE		N05     Cn4   v088
	BYTE	W06
	BYTE		N11     Cs3   v084
	BYTE		N11     Fn3 
	BYTE		N11     As3 
	BYTE	W36
// 029   ----------------------------------------
	BYTE	W96
// 030   ----------------------------------------
	BYTE		N17     Ds3   v088
	BYTE		N17     Gs3 
	BYTE		N17     Cn4   v084
	BYTE	W24
	BYTE		N44     Fn3   v088
	BYTE		N44     Gs3   v084
	BYTE		N44     Cs4   v088
	BYTE	W72
// 031   ----------------------------------------
	BYTE	W96
// 032   ----------------------------------------
	BYTE	W96
// 033   ----------------------------------------
	BYTE	W96
// 034   ----------------------------------------
	BYTE	W96
// 035   ----------------------------------------
	BYTE	W96
// 036   ----------------------------------------
	BYTE	W96
// 037   ----------------------------------------
	BYTE	W96
// 038   ----------------------------------------
	BYTE	W96
// 039   ----------------------------------------
	BYTE	W96
// 040   ----------------------------------------
	BYTE	W96
// 041   ----------------------------------------
	BYTE	W96
// 042   ----------------------------------------
	BYTE	W96
// 043   ----------------------------------------
	BYTE		N17     Fn3 
	BYTE		N17     Gs3 
	BYTE		N17     Cs4   v084
	BYTE	W24
	BYTE		N11     Fn3 
	BYTE		N11     Gs3   v088
	BYTE		N11     Cs4 
	BYTE	W12
	BYTE		        Ds3 
	BYTE		N11     Gs3   v084
	BYTE		N11     Cn4 
	BYTE	W60
// 044   ----------------------------------------
	BYTE		N17     Ds3   v088
	BYTE		N17     Gs3 
	BYTE		N17     Cn4   v084
	BYTE	W24
	BYTE		N11     Ds3   v088
	BYTE		N11     Gs3   v084
	BYTE		N11     Cn4   v088
	BYTE	W12
	BYTE		        Cs3 
	BYTE		N11     Fn3 
	BYTE		N11     As3   v084
	BYTE	W60
// 045   ----------------------------------------
	BYTE	W96
// 046   ----------------------------------------
	BYTE		N17     Ds3   v088
	BYTE		N17     Gs3 
	BYTE		N17     Cn4 
	BYTE	W24
	BYTE		N52     Fn3   v084
	BYTE		N52     As3 
	BYTE		N52     Cs4 
	BYTE	W72
// 047   ----------------------------------------
	BYTE		N17     Ds3   v088
	BYTE		N17     Gs3   v084
	BYTE		N17     Cs4   v088
	BYTE	W24
	BYTE		N11     Ds3   v092
	BYTE		N11     Gs3 
	BYTE		N11     Cs4   v084
	BYTE	W12
	BYTE		N32     Ds3 
	BYTE		N32     Gs3 
	BYTE		N32     Cn4   v088
	BYTE	W60
// 048   ----------------------------------------
	BYTE		N17     Gs3   v084
	BYTE		N17     Cn4   v088
	BYTE		N17     Ds4 
	BYTE	W24
	BYTE		N11     Gs3 
	BYTE		N11     Cn4 
	BYTE		N11     Ds4   v092
	BYTE	W12
	BYTE		N17     Fn3   v088
	BYTE		N17     As3   v092
	BYTE		N17     Cs4   v088
	BYTE	W18
	BYTE		N05     Ds3   v084
	BYTE		N05     Gs3   v088
	BYTE		N05     Cn4   v084
	BYTE	W06
	BYTE		N11     Cs3   v088
	BYTE		N11     Fn3   v084
	BYTE		N11     As3 
	BYTE	W36
// 049   ----------------------------------------
	BYTE	W96
// 050   ----------------------------------------
	BYTE		N17     Ds3 
	BYTE		N17     Gs3   v088
	BYTE		N17     Cn4 
	BYTE	W24
	BYTE		N44     Fn3 
	BYTE		N44     Gs3   v092
	BYTE		N44     Cs4   v088
	BYTE	W72
// 051   ----------------------------------------
	BYTE		N17     Fn3   v092
	BYTE		N17     Gs3   v084
	BYTE		N17     Cs4   v088
	BYTE	W24
	BYTE		N11     Fn3   v084
	BYTE		N11     Gs3 
	BYTE		N11     Cs4 
	BYTE	W12
	BYTE		        Ds3   v088
	BYTE		N11     Gs3 
	BYTE		N11     Cn4   v092
	BYTE	W60
// 052   ----------------------------------------
	BYTE		N17     Ds3   v088
	BYTE		N17     Gs3   v084
	BYTE		N17     Cn4   v092
	BYTE	W24
	BYTE		N11     Ds3   v088
	BYTE		N11     Gs3   v084
	BYTE		N11     Cn4 
	BYTE	W12
	BYTE		        Cs3   v088
	BYTE		N11     Fn3   v084
	BYTE		N11     As3   v088
	BYTE	W60
// 053   ----------------------------------------
	BYTE	W96
// 054   ----------------------------------------
	BYTE		N17     Ds3   v092
	BYTE		N17     Gs3   v088
	BYTE		N17     Cn4 
	BYTE	W24
	BYTE		N52     Fn3   v084
	BYTE		N52     As3   v088
	BYTE		N52     Cs4 
	BYTE	W72
// 055   ----------------------------------------
	BYTE		N17     Ds3 
	BYTE		N17     Gs3   v092
	BYTE		N17     Cs4   v088
	BYTE	W24
	BYTE		N11     Ds3   v084
	BYTE		N11     Gs3 
	BYTE		N11     Cs4 
	BYTE	W12
	BYTE		N32     Ds3 
	BYTE		N32     Gs3   v092
	BYTE		N32     Cn4   v088
	BYTE	W60
// 056   ----------------------------------------
	BYTE		N17     Gs3 
	BYTE		N17     Cn4 
	BYTE		N17     Ds4   v092
	BYTE	W24
	BYTE		N11     Gs3   v088
	BYTE		N11     Cn4 
	BYTE		N11     Ds4   v084
	BYTE	W12
	BYTE		N17     Fn3   v088
	BYTE		N17     As3 
	BYTE		N17     Cs4 
	BYTE	W18
	BYTE		N05     Ds3   v084
	BYTE		N05     Gs3 
	BYTE		N05     Cn4   v088
	BYTE	W06
	BYTE		N11     Cs3   v092
	BYTE		N11     Fn3   v088
	BYTE		N11     As3 
	BYTE	W36
// 057   ----------------------------------------
	BYTE	W96
// 058   ----------------------------------------
	BYTE		N17     Ds3   v084
	BYTE		N17     Gs3 
	BYTE		N17     Cn4 
	BYTE	W24
	BYTE		N44     Fn3   v092
	BYTE		N44     Gs3   v084
	BYTE		N44     Cs4   v088
	BYTE	W72
// 059   ----------------------------------------
	BYTE		N76     Gs3 
	BYTE	W78
	BYTE		N05     Fs3   v092
	BYTE	W06
	BYTE		        Fn3   v088
	BYTE	W06
	BYTE		        Ds3   v092
	BYTE	W06
// 060   ----------------------------------------
	BYTE		N11     Fn3 
	BYTE	W96
// 061   ----------------------------------------
	BYTE		N76     Gs3   v084
	BYTE	W78
	BYTE		N05     Fs3   v088
	BYTE	W06
	BYTE		        Fn3   v084
	BYTE	W06
	BYTE		        Ds3 
	BYTE	W06
// 062   ----------------------------------------
	BYTE		N11     Fn3   v092
	BYTE	W96
// 063   ----------------------------------------
	BYTE		N76     Gs3   v084
	BYTE	W78
	BYTE		N05     Fs3   v088
	BYTE	W06
	BYTE		        Fn3 
	BYTE	W06
	BYTE		        Ds3 
	BYTE	W06
// 064   ----------------------------------------
	BYTE		N11     Fn3 
	BYTE	W96
// 065   ----------------------------------------
	BYTE		N76     Gs3 
	BYTE	W78
	BYTE		N05     Fs3   v084
	BYTE	W06
	BYTE		        Fn3   v092
	BYTE	W06
	BYTE		        Ds3   v088
	BYTE	W06
// 066   ----------------------------------------
	BYTE		N11     Fn3   v084
	BYTE	W96
// 067   ----------------------------------------
	BYTE	W96
// 068   ----------------------------------------
	BYTE	W96
// 069   ----------------------------------------
	BYTE	W96
// 070   ----------------------------------------
	BYTE	W96
// 071   ----------------------------------------
	BYTE	W96
// 072   ----------------------------------------
	BYTE	W96
// 073   ----------------------------------------
	BYTE	W96
// 074   ----------------------------------------
	BYTE	W96
// 075   ----------------------------------------
	BYTE	W96
// 076   ----------------------------------------
	BYTE	W96
// 077   ----------------------------------------
	BYTE	W96
// 078   ----------------------------------------
	BYTE	W96
// 079   ----------------------------------------
	BYTE		N17   
	BYTE		N17     Gs3   v092
	BYTE		N17     Cs4   v084
	BYTE	W24
	BYTE		N11     Fn3   v088
	BYTE		N11     Gs3   v092
	BYTE		N11     Cs4 
	BYTE	W12
	BYTE		        Ds3   v084
	BYTE		N11     Gs3   v088
	BYTE		N11     Cn4 
	BYTE	W60
// 080   ----------------------------------------
	BYTE		N17     Ds3   v084
	BYTE		N17     Gs3 
	BYTE		N17     Cn4   v088
	BYTE	W24
	BYTE		N11     Ds3   v084
	BYTE		N11     Gs3   v088
	BYTE		N11     Cn4 
	BYTE	W12
	BYTE		        Cs3 
	BYTE		N11     Fn3   v084
	BYTE		N11     As3 
	BYTE	W60
// 081   ----------------------------------------
	BYTE	W96
// 082   ----------------------------------------
	BYTE		N17     Ds3   v088
	BYTE		N17     Gs3 
	BYTE		N17     Cn4 
	BYTE	W24
	BYTE		N52     Fn3   v092
	BYTE		N52     As3   v084
	BYTE		N52     Cs4   v088
	BYTE	W72
// 083   ----------------------------------------
	BYTE		N17     Ds3   v084
	BYTE		N17     Gs3 
	BYTE		N17     Cs4   v092
	BYTE	W24
	BYTE		N11     Ds3   v088
	BYTE		N11     Gs3   v092
	BYTE		N11     Cs4   v088
	BYTE	W12
	BYTE		N32     Ds3 
	BYTE		N32     Gs3 
	BYTE		N32     Cn4 
	BYTE	W60
// 084   ----------------------------------------
	BYTE		N17     Gs3 
	BYTE		N17     Cn4   v084
	BYTE		N17     Ds4   v088
	BYTE	W24
	BYTE		N11     Gs3 
	BYTE		N11     Cn4   v084
	BYTE		N11     Ds4   v088
	BYTE	W12
	BYTE		N17     Fn3 
	BYTE		N17     As3   v084
	BYTE		N17     Cs4   v088
	BYTE	W18
	BYTE		N05     Ds3   v092
	BYTE		N05     Gs3   v084
	BYTE		N05     Cn4 
	BYTE	W06
	BYTE		N11     Cs3   v088
	BYTE		N11     Fn3 
	BYTE		N11     As3   v084
	BYTE	W36
// 085   ----------------------------------------
	BYTE	W96
// 086   ----------------------------------------
	BYTE		N17     Ds3   v088
	BYTE		N17     Gs3 
	BYTE		N17     Cn4 
	BYTE	W24
	BYTE		N44     Fn3   v084
	BYTE		N44     Gs3 
	BYTE		N44     Cs4   v088
	BYTE	W72
// 087   ----------------------------------------
	BYTE		N17     Fn3   v084
	BYTE		N17     Gs3   v088
	BYTE		N17     Cs4 
	BYTE	W24
	BYTE		N11     Fn3 
	BYTE		N11     Gs3   v084
	BYTE		N11     Cs4 
	BYTE	W12
	BYTE		        Ds3 
	BYTE		N11     Gs3 
	BYTE		N11     Cn4 
	BYTE	W60
// 088   ----------------------------------------
	BYTE		N17     Ds3   v088
	BYTE		N17     Gs3 
	BYTE		N17     Cn4   v084
	BYTE	W24
	BYTE		N11     Ds3   v088
	BYTE		N11     Gs3 
	BYTE		N11     Cn4   v084
	BYTE	W12
	BYTE		        Cs3   v088
	BYTE		N11     Fn3 
	BYTE		N11     As3   v092
	BYTE	W60
// 089   ----------------------------------------
	BYTE	W96
// 090   ----------------------------------------
	BYTE		N17     Ds3   v088
	BYTE		N17     Gs3   v084
	BYTE		N17     Cn4   v088
	BYTE	W24
	BYTE		N52     Fn3 
	BYTE		N52     As3   v092
	BYTE		N52     Cs4   v084
	BYTE	W72
// 091   ----------------------------------------
	BYTE		N17     Ds3   v088
	BYTE		N17     Gs3   v084
	BYTE		N17     Cs4   v088
	BYTE	W24
	BYTE		N11     Ds3 
	BYTE		N11     Gs3 
	BYTE		N11     Cs4   v092
	BYTE	W12
	BYTE		N32     Ds3   v088
	BYTE		N32     Gs3 
	BYTE		N32     Cn4 
	BYTE	W60
// 092   ----------------------------------------
	BYTE		N17     Gs3   v092
	BYTE		N17     Cn4   v088
	BYTE		N17     Ds4   v084
	BYTE	W24
	BYTE		N11     Gs3 
	BYTE		N11     Cn4   v092
	BYTE		N11     Ds4   v084
	BYTE	W12
	BYTE		N17     Fn3 
	BYTE		N17     As3 
	BYTE		N17     Cs4 
	BYTE	W18
	BYTE		N05     Ds3   v088
	BYTE		N05     Gs3 
	BYTE		N05     Cn4 
	BYTE	W06
	BYTE		N11     Cs3 
	BYTE		N11     Fn3 
	BYTE		N11     As3 
	BYTE	W36
// 093   ----------------------------------------
	BYTE	W96
// 094   ----------------------------------------
	BYTE		N17     Ds3   v084
	BYTE		N17     Gs3   v092
	BYTE		N17     Cn4   v088
	BYTE	W24
	BYTE		N44     Fn3 
	BYTE		N44     Gs3   v084
	BYTE		N44     Cs4   v088
	BYTE	W72
// 095   ----------------------------------------
	BYTE		N17     Fn3 
	BYTE		N17     Gs3 
	BYTE		N17     Cs4   v084
	BYTE	W24
	BYTE		N11     Fn3 
	BYTE		N11     Gs3 
	BYTE		N11     Cs4 
	BYTE	W12
	BYTE		        Ds3   v088
	BYTE		N11     Gs3   v092
	BYTE		N11     Cn4   v084
	BYTE	W60
// 096   ----------------------------------------
	BYTE		N17     Ds3 
	BYTE		N17     Gs3 
	BYTE		N17     Cn4 
	BYTE	W24
	BYTE		N11     Ds3 
	BYTE		N11     Gs3   v092
	BYTE		N11     Cn4   v084
	BYTE	W12
	BYTE		        Cs3 
	BYTE		N11     Fn3   v088
	BYTE		N11     As3   v084
	BYTE	W60
// 097   ----------------------------------------
	BYTE	W96
// 098   ----------------------------------------
	BYTE		N17     Ds3   v088
	BYTE		N17     Gs3   v084
	BYTE		N17     Cn4 
	BYTE	W24
	BYTE		N52     Fn3   v092
	BYTE		N52     As3   v088
	BYTE		N52     Cs4 
	BYTE	W72
// 099   ----------------------------------------
	BYTE		N17     Ds3   v084
	BYTE		N17     Gs3   v088
	BYTE		N17     Cs4   v084
	BYTE	W24
	BYTE		N11     Ds3 
	BYTE		N11     Gs3 
	BYTE		N11     Cs4 
	BYTE	W12
	BYTE		N32     Ds3 
	BYTE		N32     Gs3   v088
	BYTE		N32     Cn4   v084
	BYTE	W60
// 100   ----------------------------------------
	BYTE		N17     Gs3   v088
	BYTE		N17     Cn4   v084
	BYTE		N17     Ds4   v088
	BYTE	W24
	BYTE		N11     Gs3   v084
	BYTE		N11     Cn4   v088
	BYTE		N11     Ds4   v092
	BYTE	W12
	BYTE		N17     Fn3 
	BYTE		N17     As3   v084
	BYTE		N17     Cs4 
	BYTE	W18
	BYTE		N05     Ds3   v088
	BYTE		N05     Gs3 
	BYTE		N05     Cn4   v084
	BYTE	W06
	BYTE		N11     Cs3 
	BYTE		N11     Fn3   v088
	BYTE		N11     As3   v092
	BYTE	W36
// 101   ----------------------------------------
	BYTE	W96
// 102   ----------------------------------------
	BYTE		N17     Ds3   v088
	BYTE		N17     Gs3 
	BYTE		N17     Cn4   v084
	BYTE	W24
	BYTE		N44     Fn3 
	BYTE		N44     Gs3 
	BYTE		N44     Cs4 
	BYTE	W72
// 103   ----------------------------------------
	BYTE	W36
	BYTE	GoTo
	 POIN2	never_gonna_11_B1
never_gonna_11_B2:
	BYTE	W60
// 104   ----------------------------------------
	BYTE	W96
// 105   ----------------------------------------
	BYTE	W28
	BYTE	FINE

//**************** Track 12 (Midi-Chn.15) ****************//

never_gonna_12:
	BYTE	KEYSH   never_gonna_key+0
// 000   ----------------------------------------
	BYTE	W23
	BYTE	W18
	BYTE	W01
	BYTE		VOICE   53
	BYTE		VOL     100*never_gonna_mvl/mxv
	BYTE		PAN     c_v-20
	BYTE	W23
	BYTE	W01
	BYTE	W30
// 001   ----------------------------------------
	BYTE	W96
// 002   ----------------------------------------
	BYTE	W96
// 003   ----------------------------------------
	BYTE	W96
never_gonna_12_B1:
// 004   ----------------------------------------
	BYTE	W96
// 005   ----------------------------------------
	BYTE	W96
// 006   ----------------------------------------
	BYTE	W96
// 007   ----------------------------------------
	BYTE		N76     Gs3   v084
	BYTE	W78
	BYTE		N05     Fs3   v080
	BYTE	W06
	BYTE		        Fn3   v076
	BYTE	W06
	BYTE		        Ds3   v080
	BYTE	W06
// 008   ----------------------------------------
	BYTE		N68     Fn3   v084
	BYTE	W96
// 009   ----------------------------------------
	BYTE	W96
// 010   ----------------------------------------
	BYTE	W96
// 011   ----------------------------------------
	BYTE	W96
// 012   ----------------------------------------
	BYTE	W96
// 013   ----------------------------------------
	BYTE	W96
// 014   ----------------------------------------
	BYTE	W96
// 015   ----------------------------------------
	BYTE	W96
// 016   ----------------------------------------
	BYTE	W96
// 017   ----------------------------------------
	BYTE	W96
// 018   ----------------------------------------
	BYTE	W96
// 019   ----------------------------------------
	BYTE	W96
// 020   ----------------------------------------
	BYTE	W96
// 021   ----------------------------------------
	BYTE	W96
// 022   ----------------------------------------
	BYTE	W96
// 023   ----------------------------------------
	BYTE	W96
// 024   ----------------------------------------
	BYTE	W96
// 025   ----------------------------------------
	BYTE	W96
// 026   ----------------------------------------
	BYTE	W96
// 027   ----------------------------------------
	BYTE	W96
// 028   ----------------------------------------
	BYTE	W96
// 029   ----------------------------------------
	BYTE	W96
// 030   ----------------------------------------
	BYTE	W96
// 031   ----------------------------------------
	BYTE	W96
// 032   ----------------------------------------
	BYTE	W96
// 033   ----------------------------------------
	BYTE	W96
// 034   ----------------------------------------
	BYTE	W96
// 035   ----------------------------------------
	BYTE	W96
// 036   ----------------------------------------
	BYTE	W96
// 037   ----------------------------------------
	BYTE	W96
// 038   ----------------------------------------
	BYTE	W96
// 039   ----------------------------------------
	BYTE	W96
// 040   ----------------------------------------
	BYTE	W96
// 041   ----------------------------------------
	BYTE	W96
// 042   ----------------------------------------
	BYTE	W96
// 043   ----------------------------------------
	BYTE	W96
// 044   ----------------------------------------
	BYTE	W96
// 045   ----------------------------------------
	BYTE	W96
// 046   ----------------------------------------
	BYTE	W96
// 047   ----------------------------------------
	BYTE	W96
// 048   ----------------------------------------
	BYTE	W96
// 049   ----------------------------------------
	BYTE	W96
// 050   ----------------------------------------
	BYTE	W96
// 051   ----------------------------------------
	BYTE	W96
// 052   ----------------------------------------
	BYTE	W96
// 053   ----------------------------------------
	BYTE	W96
// 054   ----------------------------------------
	BYTE	W96
// 055   ----------------------------------------
	BYTE	W96
// 056   ----------------------------------------
	BYTE	W96
// 057   ----------------------------------------
	BYTE	W96
// 058   ----------------------------------------
	BYTE	W96
// 059   ----------------------------------------
	BYTE	W96
// 060   ----------------------------------------
	BYTE		N17   
	BYTE		N17     Gs3   v080
	BYTE		N17     Cs4 
	BYTE	W18
	BYTE		        Fn3 
	BYTE		N17     Gs3 
	BYTE		N17     Cs4   v076
	BYTE	W18
	BYTE		        Ds3   v080
	BYTE		N17     Gs3 
	BYTE		N17     Cn4 
	BYTE	W60
// 061   ----------------------------------------
	BYTE	W96
// 062   ----------------------------------------
	BYTE		        Fn3 
	BYTE		N17     Gs3   v084
	BYTE		N17     Cs4   v076
	BYTE	W18
	BYTE		        Fn3   v080
	BYTE		N17     Gs3   v084
	BYTE		N17     Cs4 
	BYTE	W18
	BYTE		        Ds3   v080
	BYTE		N17     Gs3 
	BYTE		N17     Cn4 
	BYTE	W60
// 063   ----------------------------------------
	BYTE	W96
// 064   ----------------------------------------
	BYTE		        Fn3 
	BYTE		N17     Gs3   v084
	BYTE		N17     Cs4   v080
	BYTE	W18
	BYTE		        Fn3 
	BYTE		N17     Gs3 
	BYTE		N17     Cs4   v084
	BYTE	W18
	BYTE		        Ds3 
	BYTE		N17     Gs3 
	BYTE		N17     Cn4   v080
	BYTE	W60
// 065   ----------------------------------------
	BYTE	W96
// 066   ----------------------------------------
	BYTE		        Fn3   v084
	BYTE		N17     Gs3   v080
	BYTE		N17     Cs4   v084
	BYTE	W18
	BYTE		        Fn3   v080
	BYTE		N17     Gs3 
	BYTE		N17     Cs4   v084
	BYTE	W18
	BYTE		        Ds3 
	BYTE		N17     Gs3 
	BYTE		N17     Cn4   v080
	BYTE	W60
// 067   ----------------------------------------
	BYTE	W96
// 068   ----------------------------------------
	BYTE	W96
// 069   ----------------------------------------
	BYTE	W96
// 070   ----------------------------------------
	BYTE	W96
// 071   ----------------------------------------
	BYTE	W96
// 072   ----------------------------------------
	BYTE	W96
// 073   ----------------------------------------
	BYTE	W96
// 074   ----------------------------------------
	BYTE	W96
// 075   ----------------------------------------
	BYTE	W96
// 076   ----------------------------------------
	BYTE	W96
// 077   ----------------------------------------
	BYTE	W96
// 078   ----------------------------------------
	BYTE	W96
// 079   ----------------------------------------
	BYTE	W96
// 080   ----------------------------------------
	BYTE	W96
// 081   ----------------------------------------
	BYTE	W96
// 082   ----------------------------------------
	BYTE	W96
// 083   ----------------------------------------
	BYTE	W96
// 084   ----------------------------------------
	BYTE	W96
// 085   ----------------------------------------
	BYTE	W96
// 086   ----------------------------------------
	BYTE	W96
// 087   ----------------------------------------
	BYTE	W96
// 088   ----------------------------------------
	BYTE	W96
// 089   ----------------------------------------
	BYTE	W96
// 090   ----------------------------------------
	BYTE	W96
// 091   ----------------------------------------
	BYTE	W96
// 092   ----------------------------------------
	BYTE	W96
// 093   ----------------------------------------
	BYTE	W96
// 094   ----------------------------------------
	BYTE	W96
// 095   ----------------------------------------
	BYTE	W96
// 096   ----------------------------------------
	BYTE	W96
// 097   ----------------------------------------
	BYTE	W96
// 098   ----------------------------------------
	BYTE	W96
// 099   ----------------------------------------
	BYTE	W96
// 100   ----------------------------------------
	BYTE	W96
// 101   ----------------------------------------
	BYTE	W96
// 102   ----------------------------------------
	BYTE	W96
// 103   ----------------------------------------
	BYTE	W36
	BYTE	GoTo
	 POIN2	never_gonna_12_B1
never_gonna_12_B2:
	BYTE	W60
// 104   ----------------------------------------
	BYTE	W96
// 105   ----------------------------------------
	BYTE	W28
	BYTE	FINE

//**************** Track 13 (Midi-Chn.16) ****************//

never_gonna_13:
	BYTE	KEYSH   never_gonna_key+0
// 000   ----------------------------------------
	BYTE	W23
	BYTE	W19
	BYTE	W01
	BYTE		VOICE   65
	BYTE		VOL     100*never_gonna_mvl/mxv
	BYTE		PAN     c_v+0
	BYTE	W23
	BYTE	W01
	BYTE	W28
	BYTE	W01
// 001   ----------------------------------------
	BYTE	W96
// 002   ----------------------------------------
	BYTE	W96
// 003   ----------------------------------------
	BYTE	W96
never_gonna_13_B1:
// 004   ----------------------------------------
	BYTE	W96
// 005   ----------------------------------------
	BYTE	W96
// 006   ----------------------------------------
	BYTE	W96
// 007   ----------------------------------------
	BYTE	W96
// 008   ----------------------------------------
	BYTE	W96
// 009   ----------------------------------------
	BYTE	W96
// 010   ----------------------------------------
	BYTE	W96
// 011   ----------------------------------------
	BYTE	W12
	BYTE		N05     Cs3   v124
	BYTE	W12
	BYTE		N11   
	BYTE	W12
	BYTE		        As2 
	BYTE	W12
	BYTE		        Cs3 
	BYTE	W12
	BYTE		N16     Ds3   v120
	BYTE	W36
// 012   ----------------------------------------
	BYTE	W12
	BYTE		N11     Cn3   v124
	BYTE	W12
	BYTE		        As2 
	BYTE	W12
	BYTE		N16     Cn3   v120
	BYTE	W18
	BYTE		N05     As2 
	BYTE	W06
	BYTE		N16     Gs2   v124
	BYTE	W36
// 013   ----------------------------------------
	BYTE	W12
	BYTE		N05     As2 
	BYTE	W12
	BYTE		N11   
	BYTE	W12
	BYTE		        Cn3 
	BYTE	W12
	BYTE		        Cs3   v120
	BYTE	W12
	BYTE		        As2   v124
	BYTE	W24
	BYTE		        Gs2 
	BYTE	W12
// 014   ----------------------------------------
	BYTE		N16     Gs3 
	BYTE	W24
	BYTE		N11   
	BYTE	W12
	BYTE		N32     Ds3   v120
	BYTE	W60
// 015   ----------------------------------------
	BYTE	W12
	BYTE		N05     As2   v124
	BYTE	W12
	BYTE		N11   
	BYTE	W12
	BYTE		        Cn3   v120
	BYTE	W12
	BYTE		        Cs3 
	BYTE	W12
	BYTE		        As2   v124
	BYTE	W12
	BYTE		        Cs3 
	BYTE	W12
	BYTE		        Ds3   v120
	BYTE	W12
// 016   ----------------------------------------
	BYTE	W12
	BYTE		        Cn3 
	BYTE	W12
	BYTE		        As2 
	BYTE	W12
	BYTE		N16     Cn3   v124
	BYTE	W18
	BYTE		N05     As2 
	BYTE	W06
	BYTE		N16     Gs2 
	BYTE	W36
// 017   ----------------------------------------
never_gonna_13_017:
	BYTE	W12
	BYTE		N05     As2   v120
	BYTE	W12
	BYTE		N11     As2   v124
	BYTE	W12
	BYTE		        Cn3   v120
	BYTE	W12
	BYTE		        Cs3   v124
	BYTE	W12
	BYTE		        As2 
	BYTE	W12
	BYTE		        Gs2   v120
	BYTE	W24
	BYTE	PEND
// 018   ----------------------------------------
	BYTE		N05     Ds3   v124
	BYTE	W12
	BYTE		        Ds3   v120
	BYTE	W12
	BYTE		N11     Ds3   v124
	BYTE	W12
	BYTE		        Fn3 
	BYTE	W12
	BYTE		N40     Ds3   v120
	BYTE	W48
// 019   ----------------------------------------
	BYTE		N56     Cs3   v124
	BYTE	W60
	BYTE		N11     Ds3   v120
	BYTE	W12
	BYTE		        Fn3   v124
	BYTE	W12
	BYTE		        Cs3   v120
	BYTE	W12
// 020   ----------------------------------------
	BYTE		N05     Ds3 
	BYTE	W12
	BYTE		N05   
	BYTE	W12
	BYTE		N11     Ds3   v124
	BYTE	W12
	BYTE		        Fn3   v120
	BYTE	W12
	BYTE		        Ds3 
	BYTE	W12
	BYTE		        Gs2   v124
	BYTE	W12
	BYTE		N22   
	BYTE	W24
// 021   ----------------------------------------
	BYTE	W48
	BYTE		N11     As2   v120
	BYTE	W12
	BYTE		        Cn3   v124
	BYTE	W12
	BYTE		        Cs3 
	BYTE	W12
	BYTE		        As2 
	BYTE	W12
// 022   ----------------------------------------
	BYTE	W12
	BYTE		        Ds3   v120
	BYTE	W12
	BYTE		        Fn3 
	BYTE	W12
	BYTE		N28     Ds3   v124
	BYTE	W36
	BYTE		N05     Gs2 
	BYTE	W06
	BYTE		        As2   v120
	BYTE	W06
	BYTE		        Cs3   v124
	BYTE	W06
	BYTE		        As2 
	BYTE	W06
// 023   ----------------------------------------
	BYTE		N16     Fn3 
	BYTE	W24
	BYTE		N11     Fn3   v120
	BYTE	W12
	BYTE		N32     Ds3 
	BYTE	W36
	BYTE		N05     Gs2   v124
	BYTE	W06
	BYTE		        As2   v120
	BYTE	W06
	BYTE		        Cs3 
	BYTE	W06
	BYTE		        As2   v124
	BYTE	W06
// 024   ----------------------------------------
	BYTE		N16     Ds3 
	BYTE	W24
	BYTE		N11     Ds3   v120
	BYTE	W12
	BYTE		N16     Cs3   v124
	BYTE	W18
	BYTE		N05     Cn3   v120
	BYTE	W06
	BYTE		N11     As2 
	BYTE	W12
	BYTE		N05     Gs2   v124
	BYTE	W06
	BYTE		        As2 
	BYTE	W06
	BYTE		        Cs3 
	BYTE	W06
	BYTE		        As2 
	BYTE	W06
// 025   ----------------------------------------
	BYTE		N22     Cs3   v120
	BYTE	W24
	BYTE		N11     Ds3 
	BYTE	W12
	BYTE		N16     Cn3   v124
	BYTE	W18
	BYTE		N05     As2   v120
	BYTE	W06
	BYTE		N11     Gs2   v124
	BYTE	W12
	BYTE		N11   
	BYTE	W12
	BYTE		N32     Ds3 
	BYTE	W12
// 026   ----------------------------------------
	BYTE	W24
	BYTE		N44     Cs3   v120
	BYTE	W48
	BYTE		N05     Gs2   v124
	BYTE	W06
	BYTE		        As2 
	BYTE	W06
	BYTE		        Cs3 
	BYTE	W06
	BYTE		        As2 
	BYTE	W06
// 027   ----------------------------------------
	BYTE		N16     Fn3 
	BYTE	W24
	BYTE		N11   
	BYTE	W12
	BYTE		N32     Ds3   v120
	BYTE	W36
	BYTE		N05     Gs2   v124
	BYTE	W06
	BYTE		        As2 
	BYTE	W06
	BYTE		        Cs3 
	BYTE	W06
	BYTE		        As2 
	BYTE	W06
// 028   ----------------------------------------
	BYTE		N22     Gs3   v120
	BYTE	W24
	BYTE		N11     Cn3   v124
	BYTE	W12
	BYTE		N16     Cs3 
	BYTE	W18
	BYTE		N05     Cn3 
	BYTE	W06
	BYTE		N11     As2 
	BYTE	W12
	BYTE		N05     Gs2 
	BYTE	W06
	BYTE		        As2 
	BYTE	W06
	BYTE		        Cs3   v120
	BYTE	W06
	BYTE		        As2 
	BYTE	W06
// 029   ----------------------------------------
	BYTE		N22     Cs3   v124
	BYTE	W24
	BYTE		N11     Ds3   v120
	BYTE	W12
	BYTE		N16     Cn3 
	BYTE	W18
	BYTE		N05     As2   v124
	BYTE	W06
	BYTE		N16     Gs2   v120
	BYTE	W24
	BYTE		N11   
	BYTE	W12
// 030   ----------------------------------------
	BYTE		N22     Ds3   v124
	BYTE	W24
	BYTE		N52     Cs3 
	BYTE	W72
// 031   ----------------------------------------
	BYTE	W24
	BYTE		N11     As2   v120
	BYTE	W12
	BYTE		        Cn3 
	BYTE	W12
	BYTE		N05     Cs3 
	BYTE	W12
	BYTE		N11     Cs3   v124
	BYTE	W12
	BYTE		        Ds3   v120
	BYTE	W12
	BYTE		N16     Cn3 
	BYTE	W12
// 032   ----------------------------------------
	BYTE	W06
	BYTE		N05     As2 
	BYTE	W06
	BYTE		N76     Gs2   v124
	BYTE	W84
// 033   ----------------------------------------
	BYTE	W12
	BYTE		N05     As2 
	BYTE	W12
	BYTE		N11   
	BYTE	W12
	BYTE		        Cn3   v120
	BYTE	W12
	BYTE		        Cs3 
	BYTE	W12
	BYTE		        As2   v124
	BYTE	W24
	BYTE		        Gs2 
	BYTE	W12
// 034   ----------------------------------------
	BYTE		N16     Gs3 
	BYTE	W24
	BYTE		N11   
	BYTE	W12
	BYTE		N22     Ds3 
	BYTE	W24
	BYTE		N11     Fn3   v120
	BYTE	W12
	BYTE		        Ds3 
	BYTE	W12
	BYTE		        Cs3 
	BYTE	W12
// 035   ----------------------------------------
	BYTE	W12
	BYTE		N05     As2   v124
	BYTE	W12
	BYTE		N11   
	BYTE	W12
	BYTE		        Cn3   v120
	BYTE	W12
	BYTE		        Cs3   v124
	BYTE	W12
	BYTE		        As2   v120
	BYTE	W12
	BYTE		        Cs3 
	BYTE	W12
	BYTE		        Ds3 
	BYTE	W12
// 036   ----------------------------------------
	BYTE	W12
	BYTE		        Cn3   v124
	BYTE	W12
	BYTE		        As2 
	BYTE	W12
	BYTE		N22     Cn3   v120
	BYTE	W18
	BYTE		N05     As2   v124
	BYTE	W06
	BYTE		N32     Gs2 
	BYTE	W36
// 037   ----------------------------------------
	BYTE	PATT
	 POIN2	never_gonna_13_017
// 038   ----------------------------------------
	BYTE		N11     Ds3   v124
	BYTE	W12
	BYTE		N05     Ds3   v120
	BYTE	W12
	BYTE		N11     Ds3   v124
	BYTE	W12
	BYTE		        Fn3 
	BYTE	W12
	BYTE		N40     Ds3   v120
	BYTE	W48
// 039   ----------------------------------------
	BYTE		N56     Cs3   v124
	BYTE	W60
	BYTE		N11     Ds3 
	BYTE	W12
	BYTE		        Fn3 
	BYTE	W12
	BYTE		        Cs3   v120
	BYTE	W12
// 040   ----------------------------------------
	BYTE		N05     Ds3 
	BYTE	W12
	BYTE		        Ds3   v124
	BYTE	W12
	BYTE		N11   
	BYTE	W12
	BYTE		        Fn3 
	BYTE	W12
	BYTE		        Ds3 
	BYTE	W12
	BYTE		        Gs2   v120
	BYTE	W12
	BYTE		N22   
	BYTE	W24
// 041   ----------------------------------------
	BYTE	W48
	BYTE		N11     As2   v124
	BYTE	W12
	BYTE		        Cn3 
	BYTE	W12
	BYTE		        Cs3 
	BYTE	W12
	BYTE		        As2   v120
	BYTE	W12
// 042   ----------------------------------------
	BYTE	W12
	BYTE		        Ds3   v124
	BYTE	W12
	BYTE		        Fn3 
	BYTE	W12
	BYTE		N28     Ds3 
	BYTE	W36
	BYTE		N05     Gs2 
	BYTE	W06
	BYTE		        As2 
	BYTE	W06
	BYTE		        Cs3   v120
	BYTE	W06
	BYTE		        As2   v124
	BYTE	W06
// 043   ----------------------------------------
	BYTE		N16     Fn3 
	BYTE	W24
	BYTE		N11     Fn3   v120
	BYTE	W12
	BYTE		N32     Ds3 
	BYTE	W36
	BYTE		N05     Gs2   v124
	BYTE	W06
	BYTE		        As2 
	BYTE	W06
	BYTE		        Cs3   v120
	BYTE	W06
	BYTE		        As2   v124
	BYTE	W06
// 044   ----------------------------------------
	BYTE		N16     Ds3 
	BYTE	W24
	BYTE		N11   
	BYTE	W12
	BYTE		N16     Cs3 
	BYTE	W18
	BYTE		N05     Cn3   v120
	BYTE	W06
	BYTE		N11     As2   v124
	BYTE	W12
	BYTE		N05     Gs2 
	BYTE	W06
	BYTE		        As2 
	BYTE	W06
	BYTE		        Cs3   v120
	BYTE	W06
	BYTE		        As2   v124
	BYTE	W06
// 045   ----------------------------------------
	BYTE		N22     Cs3 
	BYTE	W24
	BYTE		N11     Ds3   v120
	BYTE	W12
	BYTE		N16     Cn3   v124
	BYTE	W18
	BYTE		N05     As2 
	BYTE	W06
	BYTE		N11     Gs2   v120
	BYTE	W12
	BYTE		        Gs2   v124
	BYTE	W12
	BYTE		N32     Ds3   v120
	BYTE	W12
// 046   ----------------------------------------
	BYTE	W24
	BYTE		N44     Cs3   v124
	BYTE	W48
	BYTE		N05     Gs2 
	BYTE	W06
	BYTE		        As2 
	BYTE	W06
	BYTE		        Cs3 
	BYTE	W06
	BYTE		        As2   v120
	BYTE	W06
// 047   ----------------------------------------
	BYTE		N16     Fn3   v124
	BYTE	W24
	BYTE		N11   
	BYTE	W12
	BYTE		N32     Ds3 
	BYTE	W36
	BYTE		N05     Gs2 
	BYTE	W06
	BYTE		        As2   v120
	BYTE	W06
	BYTE		        Cs3 
	BYTE	W06
	BYTE		        As2 
	BYTE	W06
// 048   ----------------------------------------
	BYTE		N22     Gs3   v124
	BYTE	W24
	BYTE		N11     Cn3   v120
	BYTE	W12
	BYTE		N16     Cs3   v124
	BYTE	W18
	BYTE		N05     Cn3 
	BYTE	W06
	BYTE		N11     As2 
	BYTE	W12
	BYTE		N05     Gs2   v120
	BYTE	W06
	BYTE		        As2   v124
	BYTE	W06
	BYTE		        Cs3 
	BYTE	W06
	BYTE		        As2 
	BYTE	W06
// 049   ----------------------------------------
	BYTE		N22     Cs3 
	BYTE	W24
	BYTE		N11     Ds3 
	BYTE	W12
	BYTE		N16     Cn3 
	BYTE	W18
	BYTE		N05     As2 
	BYTE	W06
	BYTE		N16     Gs2   v120
	BYTE	W24
	BYTE		N11     Gs2   v124
	BYTE	W12
// 050   ----------------------------------------
	BYTE		N22     Ds3   v120
	BYTE	W24
	BYTE		N52     Cs3   v124
	BYTE	W48
	BYTE		N05     Gs2 
	BYTE	W06
	BYTE		        As2 
	BYTE	W06
	BYTE		        Cs3   v120
	BYTE	W06
	BYTE		        As2 
	BYTE	W06
// 051   ----------------------------------------
	BYTE		N16     Fn3 
	BYTE	W24
	BYTE		N11     Fn3   v124
	BYTE	W12
	BYTE		N32     Ds3 
	BYTE	W36
	BYTE		N05     Gs2   v120
	BYTE	W06
	BYTE		        As2   v124
	BYTE	W06
	BYTE		        Cs3   v120
	BYTE	W06
	BYTE		        As2   v124
	BYTE	W06
// 052   ----------------------------------------
	BYTE		N16     Ds3 
	BYTE	W24
	BYTE		N11     Ds3   v120
	BYTE	W12
	BYTE		N16     Cs3   v124
	BYTE	W18
	BYTE		N05     Cn3 
	BYTE	W06
	BYTE		N11     As2   v120
	BYTE	W12
	BYTE		N05     Gs2 
	BYTE	W06
	BYTE		        As2   v124
	BYTE	W06
	BYTE		        Cs3 
	BYTE	W06
	BYTE		        As2   v120
	BYTE	W06
// 053   ----------------------------------------
	BYTE		N22     Cs3   v124
	BYTE	W24
	BYTE		N11     Ds3 
	BYTE	W12
	BYTE		N16     Cn3   v120
	BYTE	W18
	BYTE		N05     As2   v124
	BYTE	W06
	BYTE		        Gs2 
	BYTE	W12
	BYTE		N11   
	BYTE	W12
	BYTE		N32     Ds3 
	BYTE	W12
// 054   ----------------------------------------
	BYTE	W24
	BYTE		N40     Cs3 
	BYTE	W48
	BYTE		N05     Gs2 
	BYTE	W06
	BYTE		        As2 
	BYTE	W06
	BYTE		        Cs3 
	BYTE	W06
	BYTE		        As2   v120
	BYTE	W06
// 055   ----------------------------------------
	BYTE		N16     Fn3 
	BYTE	W24
	BYTE		N11   
	BYTE	W12
	BYTE		N32     Ds3   v124
	BYTE	W36
	BYTE		N05     Gs2   v120
	BYTE	W06
	BYTE		        As2   v124
	BYTE	W06
	BYTE		        Cs3 
	BYTE	W06
	BYTE		        As2   v120
	BYTE	W06
// 056   ----------------------------------------
	BYTE		N22     Gs3   v124
	BYTE	W24
	BYTE		N11     Cn3 
	BYTE	W12
	BYTE		N16     Cs3 
	BYTE	W18
	BYTE		N05     Cn3 
	BYTE	W06
	BYTE		N11     As2 
	BYTE	W12
	BYTE		N05     Gs2 
	BYTE	W06
	BYTE		        As2 
	BYTE	W06
	BYTE		        Cs3 
	BYTE	W06
	BYTE		        As2 
	BYTE	W06
// 057   ----------------------------------------
	BYTE		N22     Cs3   v120
	BYTE	W24
	BYTE		N11     Ds3 
	BYTE	W12
	BYTE		N16     Cn3   v124
	BYTE	W18
	BYTE		N05     As2 
	BYTE	W06
	BYTE		N16     Gs2 
	BYTE	W24
	BYTE		N11     Gs2   v120
	BYTE	W12
// 058   ----------------------------------------
	BYTE		        Ds3   v124
	BYTE	W12
	BYTE		N05     Cs3   v120
	BYTE	W12
	BYTE		N52   
	BYTE	W72
// 059   ----------------------------------------
	BYTE	W96
// 060   ----------------------------------------
	BYTE	W96
// 061   ----------------------------------------
	BYTE	W96
// 062   ----------------------------------------
	BYTE	W96
// 063   ----------------------------------------
	BYTE	W12
	BYTE		N05     Gs2   v124
	BYTE	W06
	BYTE		        As2   v120
	BYTE	W06
	BYTE		        Cs3   v124
	BYTE	W06
	BYTE		        As2 
	BYTE	W06
	BYTE		        Fn3   v120
	BYTE	W12
	BYTE		        Gs2 
	BYTE	W06
	BYTE		        As2 
	BYTE	W06
	BYTE		        Cs3   v124
	BYTE	W06
	BYTE		        As2   v120
	BYTE	W06
	BYTE		N11     Fn3 
	BYTE	W24
// 064   ----------------------------------------
	BYTE	W96
// 065   ----------------------------------------
	BYTE	W12
	BYTE		N05     Gs2   v124
	BYTE	W06
	BYTE		        As2 
	BYTE	W06
	BYTE		        Cs3 
	BYTE	W06
	BYTE		        As2 
	BYTE	W06
	BYTE		        Fn3 
	BYTE	W12
	BYTE		        Gs2   v120
	BYTE	W06
	BYTE		        As2 
	BYTE	W06
	BYTE		        Cs3 
	BYTE	W06
	BYTE		        As2   v124
	BYTE	W06
	BYTE		N11     Fn3 
	BYTE	W24
// 066   ----------------------------------------
	BYTE	W96
// 067   ----------------------------------------
	BYTE	W12
	BYTE		        Cs3 
	BYTE	W12
	BYTE		N11   
	BYTE	W12
	BYTE		        As2   v120
	BYTE	W12
	BYTE		        Cs3   v124
	BYTE	W12
	BYTE		N22     Ds3 
	BYTE	W36
// 068   ----------------------------------------
	BYTE	W12
	BYTE		N11     Cn3 
	BYTE	W12
	BYTE		        As2 
	BYTE	W12
	BYTE		N16     Cn3 
	BYTE	W18
	BYTE		N05     As2 
	BYTE	W06
	BYTE		N28     Gs2 
	BYTE	W36
// 069   ----------------------------------------
	BYTE	W12
	BYTE		N05     As2   v120
	BYTE	W12
	BYTE		N11   
	BYTE	W12
	BYTE		        Cn3   v124
	BYTE	W12
	BYTE		        Cs3   v120
	BYTE	W12
	BYTE		        As2 
	BYTE	W12
	BYTE		N22     Gs2   v124
	BYTE	W24
// 070   ----------------------------------------
	BYTE	W12
	BYTE		N05     Gs3 
	BYTE	W12
	BYTE		N11   
	BYTE	W12
	BYTE		N22     Ds3 
	BYTE	W24
	BYTE		N11     Fn3 
	BYTE	W12
	BYTE		        Ds3   v120
	BYTE	W12
	BYTE		        Cs3   v124
	BYTE	W12
// 071   ----------------------------------------
	BYTE	W12
	BYTE		        Cs3   v120
	BYTE	W12
	BYTE		        Cs3   v124
	BYTE	W12
	BYTE		        As2   v120
	BYTE	W12
	BYTE		        Cs3   v124
	BYTE	W12
	BYTE		        As2 
	BYTE	W12
	BYTE		        Cs3 
	BYTE	W12
	BYTE		        Ds3   v120
	BYTE	W12
// 072   ----------------------------------------
	BYTE	W12
	BYTE		        Cn3 
	BYTE	W12
	BYTE		        As2   v124
	BYTE	W12
	BYTE		N16     Cn3 
	BYTE	W18
	BYTE		N05     As2 
	BYTE	W06
	BYTE		N28     Gs2 
	BYTE	W36
// 073   ----------------------------------------
	BYTE	W12
	BYTE		N11     As2 
	BYTE	W12
	BYTE		N11   
	BYTE	W12
	BYTE		        Cn3   v120
	BYTE	W12
	BYTE		        Cs3   v124
	BYTE	W12
	BYTE		        As2   v120
	BYTE	W12
	BYTE		N22     Gs2   v124
	BYTE	W24
// 074   ----------------------------------------
	BYTE	W12
	BYTE		N11     Ds3   v120
	BYTE	W12
	BYTE		        Fn3 
	BYTE	W12
	BYTE		N22   
	BYTE	W24
	BYTE		        Ds3   v124
	BYTE	W36
// 075   ----------------------------------------
	BYTE		N52     Cs3   v120
	BYTE	W60
	BYTE		N11     Ds3   v124
	BYTE	W12
	BYTE		        Fn3 
	BYTE	W12
	BYTE		        Cs3 
	BYTE	W12
// 076   ----------------------------------------
	BYTE		        Ds3 
	BYTE	W12
	BYTE		N10   
	BYTE	W12
	BYTE		N11     Ds3   v120
	BYTE	W12
	BYTE		        Fn3   v124
	BYTE	W12
	BYTE		        Ds3   v120
	BYTE	W12
	BYTE		        Gs2   v124
	BYTE	W12
	BYTE		N44   
	BYTE	W24
// 077   ----------------------------------------
	BYTE	W48
	BYTE		N11     As2 
	BYTE	W12
	BYTE		        Cn3 
	BYTE	W12
	BYTE		        Cs3 
	BYTE	W12
	BYTE		        As2 
	BYTE	W12
// 078   ----------------------------------------
	BYTE	W12
	BYTE		        Ds3   v120
	BYTE	W12
	BYTE		        Fn3   v124
	BYTE	W12
	BYTE		N32     Ds3   v120
	BYTE	W36
	BYTE		N05     Gs2 
	BYTE	W06
	BYTE		        As2 
	BYTE	W06
	BYTE		        Cs3 
	BYTE	W06
	BYTE		        As2 
	BYTE	W06
// 079   ----------------------------------------
	BYTE		N16     Fn3   v124
	BYTE	W24
	BYTE		N11     Fn3   v120
	BYTE	W12
	BYTE		N32     Ds3 
	BYTE	W36
	BYTE		N05     Gs2 
	BYTE	W06
	BYTE		        As2   v124
	BYTE	W06
	BYTE		        Cs3 
	BYTE	W06
	BYTE		        As2 
	BYTE	W06
// 080   ----------------------------------------
	BYTE		N16     Ds3   v120
	BYTE	W24
	BYTE		N11   
	BYTE	W12
	BYTE		N16     Cs3   v124
	BYTE	W18
	BYTE		N05     Cn3 
	BYTE	W06
	BYTE		N11     As2   v120
	BYTE	W12
	BYTE		N05     Gs2 
	BYTE	W06
	BYTE		        As2   v124
	BYTE	W06
	BYTE		        Cs3 
	BYTE	W06
	BYTE		        As2 
	BYTE	W06
// 081   ----------------------------------------
	BYTE		N22     Cs3 
	BYTE	W24
	BYTE		N11     Ds3   v120
	BYTE	W12
	BYTE		N16     Cn3 
	BYTE	W18
	BYTE		N05     As2   v124
	BYTE	W06
	BYTE		N11     Gs2   v120
	BYTE	W12
	BYTE		N11   
	BYTE	W12
	BYTE		N32     Ds3   v124
	BYTE	W12
// 082   ----------------------------------------
	BYTE	W24
	BYTE		N44     Cs3 
	BYTE	W48
	BYTE		N05     Gs2   v120
	BYTE	W06
	BYTE		        As2 
	BYTE	W06
	BYTE		        Cs3   v124
	BYTE	W06
	BYTE		        As2   v120
	BYTE	W06
// 083   ----------------------------------------
	BYTE		N16     Fn3   v124
	BYTE	W24
	BYTE		N11   
	BYTE	W12
	BYTE		N32     Ds3 
	BYTE	W36
	BYTE		N05     Gs2 
	BYTE	W06
	BYTE		        As2 
	BYTE	W06
	BYTE		        Cs3 
	BYTE	W06
	BYTE		        As2 
	BYTE	W06
// 084   ----------------------------------------
	BYTE		N22     Gs3 
	BYTE	W24
	BYTE		N11     Cn3 
	BYTE	W12
	BYTE		N16     Cs3 
	BYTE	W18
	BYTE		N05     Cn3 
	BYTE	W06
	BYTE		N11     As2 
	BYTE	W12
	BYTE		N05     Gs2   v120
	BYTE	W06
	BYTE		        As2 
	BYTE	W06
	BYTE		        Cs3   v124
	BYTE	W06
	BYTE		        As2 
	BYTE	W06
// 085   ----------------------------------------
	BYTE		N22     Cs3 
	BYTE	W24
	BYTE		N11     Ds3   v120
	BYTE	W12
	BYTE		N16     Cn3 
	BYTE	W18
	BYTE		N05     As2   v124
	BYTE	W06
	BYTE		N16     Gs2 
	BYTE	W24
	BYTE		N11     Gs2   v120
	BYTE	W12
// 086   ----------------------------------------
	BYTE		N22     Ds3 
	BYTE	W24
	BYTE		N52     Cs3   v124
	BYTE	W48
	BYTE		N05     Gs2 
	BYTE	W06
	BYTE		        As2 
	BYTE	W06
	BYTE		        Cs3   v120
	BYTE	W06
	BYTE		        As2   v124
	BYTE	W06
// 087   ----------------------------------------
	BYTE		N16     Fn3 
	BYTE	W24
	BYTE		N11     Fn3   v120
	BYTE	W12
	BYTE		N32     Ds3   v124
	BYTE	W36
	BYTE		N05     Gs2   v120
	BYTE	W06
	BYTE		        As2   v124
	BYTE	W06
	BYTE		        Cs3 
	BYTE	W06
	BYTE		        As2 
	BYTE	W06
// 088   ----------------------------------------
	BYTE		N16     Ds3   v120
	BYTE	W24
	BYTE		N11     Ds3   v124
	BYTE	W12
	BYTE		N16     Cs3 
	BYTE	W18
	BYTE		N05     Cn3 
	BYTE	W06
	BYTE		N11     As2   v120
	BYTE	W12
	BYTE		N05     Gs2   v124
	BYTE	W06
	BYTE		        As2 
	BYTE	W06
	BYTE		        Cs3   v120
	BYTE	W06
	BYTE		        As2   v124
	BYTE	W06
// 089   ----------------------------------------
	BYTE		N22     Cs3 
	BYTE	W24
	BYTE		N11     Ds3   v120
	BYTE	W12
	BYTE		N16     Cn3   v124
	BYTE	W18
	BYTE		N05     As2   v120
	BYTE	W06
	BYTE		        Gs2   v124
	BYTE	W12
	BYTE		N11   
	BYTE	W12
	BYTE		N32     Ds3   v120
	BYTE	W12
// 090   ----------------------------------------
	BYTE	W24
	BYTE		N40     Cs3   v124
	BYTE	W48
	BYTE		N05     Gs2   v120
	BYTE	W06
	BYTE		        As2   v124
	BYTE	W06
	BYTE		        Cs3   v120
	BYTE	W06
	BYTE		        As2   v124
	BYTE	W06
// 091   ----------------------------------------
	BYTE		N16     Fn3 
	BYTE	W24
	BYTE		N11     Fn3   v120
	BYTE	W12
	BYTE		N32     Ds3   v124
	BYTE	W36
	BYTE		N05     Gs2 
	BYTE	W06
	BYTE		        As2 
	BYTE	W06
	BYTE		        Cs3 
	BYTE	W06
	BYTE		        As2 
	BYTE	W06
// 092   ----------------------------------------
	BYTE		N22     Gs3 
	BYTE	W24
	BYTE		N11     Cn3 
	BYTE	W12
	BYTE		N16     Cs3 
	BYTE	W18
	BYTE		N05     Cn3   v120
	BYTE	W06
	BYTE		N11     As2   v124
	BYTE	W12
	BYTE		N05     Gs2   v120
	BYTE	W06
	BYTE		        As2   v124
	BYTE	W06
	BYTE		        Cs3 
	BYTE	W06
	BYTE		        As2 
	BYTE	W06
// 093   ----------------------------------------
	BYTE		N22     Cs3 
	BYTE	W24
	BYTE		N11     Ds3   v120
	BYTE	W12
	BYTE		N16     Cn3   v124
	BYTE	W18
	BYTE		N05     As2 
	BYTE	W06
	BYTE		N16     Gs2   v120
	BYTE	W24
	BYTE		N11   
	BYTE	W12
// 094   ----------------------------------------
	BYTE		        Ds3   v124
	BYTE	W12
	BYTE		N05     Cs3 
	BYTE	W12
	BYTE		N52   
	BYTE	W48
	BYTE		N05     Gs2 
	BYTE	W06
	BYTE		        As2 
	BYTE	W06
	BYTE		        Cs3 
	BYTE	W06
	BYTE		        As2   v120
	BYTE	W06
// 095   ----------------------------------------
	BYTE		N16     Fn3 
	BYTE	W24
	BYTE		N11   
	BYTE	W12
	BYTE		N32     Ds3   v124
	BYTE	W36
	BYTE		N05     Gs2 
	BYTE	W06
	BYTE		        As2 
	BYTE	W06
	BYTE		        Cs3 
	BYTE	W06
	BYTE		        As2   v120
	BYTE	W06
// 096   ----------------------------------------
	BYTE		N16     Ds3   v124
	BYTE	W24
	BYTE		N11   
	BYTE	W12
	BYTE		N16     Cs3   v120
	BYTE	W18
	BYTE		N05     Cn3   v124
	BYTE	W06
	BYTE		N11     As2   v120
	BYTE	W12
	BYTE		N05     Gs2   v124
	BYTE	W06
	BYTE		        As2   v120
	BYTE	W06
	BYTE		        Cs3   v124
	BYTE	W06
	BYTE		        As2 
	BYTE	W06
// 097   ----------------------------------------
	BYTE		N22     Cs3   v120
	BYTE	W24
	BYTE		N11     Ds3   v124
	BYTE	W12
	BYTE		N16     Cn3   v120
	BYTE	W18
	BYTE		N05     As2   v124
	BYTE	W06
	BYTE		        Gs2 
	BYTE	W12
	BYTE		N11   
	BYTE	W12
	BYTE		N32     Ds3 
	BYTE	W12
// 098   ----------------------------------------
	BYTE	W24
	BYTE		N40     Cs3 
	BYTE	W48
	BYTE		N05     Gs2   v120
	BYTE	W06
	BYTE		        As2 
	BYTE	W06
	BYTE		        Cs3 
	BYTE	W06
	BYTE		        As2 
	BYTE	W06
// 099   ----------------------------------------
	BYTE		N16     Fn3 
	BYTE	W24
	BYTE		N11   
	BYTE	W12
	BYTE		N32     Ds3   v124
	BYTE	W36
	BYTE		N05     Gs2 
	BYTE	W06
	BYTE		        As2 
	BYTE	W06
	BYTE		        Cs3 
	BYTE	W06
	BYTE		        As2 
	BYTE	W06
// 100   ----------------------------------------
	BYTE		N22     Gs3 
	BYTE	W24
	BYTE		N11     Cn3 
	BYTE	W12
	BYTE		N16     Cs3 
	BYTE	W18
	BYTE		N05     Cn3 
	BYTE	W06
	BYTE		N11     As2   v120
	BYTE	W12
	BYTE		N05     Gs2   v124
	BYTE	W06
	BYTE		        As2 
	BYTE	W06
	BYTE		        Cs3 
	BYTE	W06
	BYTE		        As2 
	BYTE	W06
// 101   ----------------------------------------
	BYTE		N22     Cs3 
	BYTE	W24
	BYTE		N11     Ds3 
	BYTE	W12
	BYTE		N16     Cn3 
	BYTE	W18
	BYTE		N05     As2   v120
	BYTE	W06
	BYTE		N16     Gs2   v124
	BYTE	W24
	BYTE		N11     Gs2   v120
	BYTE	W12
// 102   ----------------------------------------
	BYTE		        Ds3 
	BYTE	W12
	BYTE		N05     Cs3   v124
	BYTE	W12
	BYTE		N52   
	BYTE	W72
// 103   ----------------------------------------
	BYTE	W36
	BYTE	GoTo
	 POIN2	never_gonna_13_B1
never_gonna_13_B2:
	BYTE	W60
// 104   ----------------------------------------
	BYTE	W96
// 105   ----------------------------------------
	BYTE	W28
	BYTE	FINE

//******************************************************//
	ALIGN 4

never_gonna:
	BYTE	13	// NumTrks
	BYTE	0	// NumBlks
	BYTE	never_gonna_pri	// Priority
	BYTE	never_gonna_rev	// Reverb.

	POIN2	never_gonna_grp

	POIN2	never_gonna_1
	POIN2	never_gonna_2
	POIN2	never_gonna_3
	POIN2	never_gonna_4
	POIN2	never_gonna_5
	POIN2	never_gonna_6
	POIN2	never_gonna_7
	POIN2	never_gonna_8
	POIN2	never_gonna_9
	POIN2	never_gonna_10
	POIN2	never_gonna_11
	POIN2	never_gonna_12
	POIN2	never_gonna_13

	
