//Event file generated from Sappy .s format.
	#include "MPlayDef.event"

	#define	seahorse_grp  voicegroup000
	#define	seahorse_pri  0
	#define	seahorse_rev  0
	#define	seahorse_mvl  85
	#define	seahorse_key  0
	#define	seahorse_tbs  1
	#define	seahorse_exg  0
	#define	seahorse_cmp  1

	// .rodata
	//	seahorse
	ALIGN 4

//**************** Track 1 (Midi-Chn.1) ****************//

seahorse_1:
	BYTE	KEYSH   seahorse_key+0
// 000   ----------------------------------------
	BYTE	TEMPO   170*seahorse_tbs/2
	BYTE		VOICE   34
	BYTE		VOL     115*seahorse_mvl/mxv
	BYTE		N12     Cs1   v104
	BYTE	W12
	BYTE		N09     Ds1 
	BYTE	W12
	BYTE		        Ds1   v064
	BYTE	W12
	BYTE		N24     Cs1   v104
	BYTE	W24
	BYTE		N09     Ds1 
	BYTE	W12
	BYTE		        Ds1   v064
	BYTE	W12
	BYTE		N21     An0   v104
	BYTE	W12
// 001   ----------------------------------------
seahorse_1_001:
	BYTE	W12
	BYTE		N09     An0   v104
	BYTE	W12
	BYTE		N21   
	BYTE	W24
	BYTE		N09   
	BYTE	W12
	BYTE		N32     Cn1 
	BYTE	W36
	BYTE	PEND
// 002   ----------------------------------------
seahorse_1_002:
	BYTE		N12     Cs1   v104
	BYTE	W12
	BYTE		N09     Ds1 
	BYTE	W12
	BYTE		        Ds1   v064
	BYTE	W12
	BYTE		N24     Cs1   v104
	BYTE	W24
	BYTE		N09     Ds1 
	BYTE	W12
	BYTE		        Ds1   v064
	BYTE	W12
	BYTE		N21     An0   v104
	BYTE	W12
	BYTE	PEND
// 003   ----------------------------------------
seahorse_1_003:
	BYTE	W12
	BYTE		N09     An0   v104
	BYTE	W12
	BYTE		N21   
	BYTE	W24
	BYTE		N09   
	BYTE	W12
	BYTE		N32     Gs0 
	BYTE	W36
	BYTE	PEND
// 004   ----------------------------------------
	BYTE	PATT
	 POIN2	seahorse_1_002
// 005   ----------------------------------------
	BYTE	PATT
	 POIN2	seahorse_1_003
// 006   ----------------------------------------
	BYTE	PATT
	 POIN2	seahorse_1_002
// 007   ----------------------------------------
	BYTE	PATT
	 POIN2	seahorse_1_003
// 008   ----------------------------------------
	BYTE	PATT
	 POIN2	seahorse_1_002
// 009   ----------------------------------------
	BYTE	PATT
	 POIN2	seahorse_1_003
// 010   ----------------------------------------
seahorse_1_010:
	BYTE		N09     Gn0   v104
	BYTE	W12
	BYTE		        Gn1 
	BYTE	W12
	BYTE		        Gn1   v064
	BYTE	W12
	BYTE		N21     Gn0   v104
	BYTE	W24
	BYTE		N09     Gn1 
	BYTE	W12
	BYTE		        Gn1   v064
	BYTE	W12
	BYTE		N21     Gs0   v104
	BYTE	W12
	BYTE	PEND
// 011   ----------------------------------------
seahorse_1_011:
	BYTE	W12
	BYTE		N09     Gs0   v104
	BYTE	W12
	BYTE		N21   
	BYTE	W24
	BYTE		N16   
	BYTE	W16
	BYTE		N16   
	BYTE	W16
	BYTE		N16   
	BYTE	W16
	BYTE	PEND
// 012   ----------------------------------------
	BYTE	PATT
	 POIN2	seahorse_1_002
// 013   ----------------------------------------
	BYTE	PATT
	 POIN2	seahorse_1_003
// 014   ----------------------------------------
	BYTE	PATT
	 POIN2	seahorse_1_002
// 015   ----------------------------------------
	BYTE	PATT
	 POIN2	seahorse_1_003
// 016   ----------------------------------------
	BYTE	PATT
	 POIN2	seahorse_1_002
// 017   ----------------------------------------
	BYTE	PATT
	 POIN2	seahorse_1_003
// 018   ----------------------------------------
	BYTE	PATT
	 POIN2	seahorse_1_010
// 019   ----------------------------------------
	BYTE	PATT
	 POIN2	seahorse_1_011
// 020   ----------------------------------------
seahorse_1_020:
	BYTE		N36     Cs1   v104
	BYTE	W36
	BYTE		N12   
	BYTE	W12
	BYTE		N36   
	BYTE	W36
	BYTE		N48     An0 
	BYTE	W12
	BYTE	PEND
// 021   ----------------------------------------
seahorse_1_021:
	BYTE	W36
	BYTE		N12     An0   v104
	BYTE	W12
	BYTE		N48   
	BYTE	W48
	BYTE	PEND
// 022   ----------------------------------------
seahorse_1_022:
	BYTE		N36     Ds1   v104
	BYTE	W36
	BYTE		N12   
	BYTE	W12
	BYTE		N36   
	BYTE	W36
	BYTE		N48     Cn1 
	BYTE	W12
	BYTE	PEND
// 023   ----------------------------------------
seahorse_1_023:
	BYTE	W36
	BYTE		N12     Cn1   v104
	BYTE	W12
	BYTE		N12   
	BYTE	W12
	BYTE		N24   
	BYTE	W24
	BYTE		N12   
	BYTE	W12
	BYTE	PEND
// 024   ----------------------------------------
seahorse_1_024:
	BYTE		N12     Cs1   v104
	BYTE	W12
	BYTE		N12   
	BYTE	W12
	BYTE		N12   
	BYTE	W12
	BYTE		N12   
	BYTE	W12
	BYTE		N12   
	BYTE	W12
	BYTE		N12   
	BYTE	W12
	BYTE		N12   
	BYTE	W12
	BYTE		N24     An0 
	BYTE	W12
	BYTE	PEND
// 025   ----------------------------------------
seahorse_1_025:
	BYTE	W12
	BYTE		N12     An0   v104
	BYTE	W12
	BYTE		N12   
	BYTE	W12
	BYTE		N12   
	BYTE	W12
	BYTE		N12   
	BYTE	W12
	BYTE		N12   
	BYTE	W12
	BYTE		N12   
	BYTE	W12
	BYTE		N12   
	BYTE	W12
	BYTE	PEND
// 026   ----------------------------------------
seahorse_1_026:
	BYTE		N12     Fs0   v104
	BYTE	W12
	BYTE		N12   
	BYTE	W12
	BYTE		N12   
	BYTE	W12
	BYTE		N12   
	BYTE	W12
	BYTE		N12   
	BYTE	W12
	BYTE		N12   
	BYTE	W12
	BYTE		N12   
	BYTE	W12
	BYTE		N24     Gs0 
	BYTE	W12
	BYTE	PEND
// 027   ----------------------------------------
seahorse_1_027:
	BYTE	W12
	BYTE		N12     Gs0   v104
	BYTE	W12
	BYTE		N12   
	BYTE	W12
	BYTE		N12   
	BYTE	W12
	BYTE		N16   
	BYTE	W16
	BYTE		        As0 
	BYTE	W16
	BYTE		        Cn1 
	BYTE	W16
	BYTE	PEND
// 028   ----------------------------------------
seahorse_1_028:
	BYTE		N12     Cs1   v104
	BYTE	W12
	BYTE		N12   
	BYTE	W12
	BYTE		N12   
	BYTE	W12
	BYTE		N12   
	BYTE	W12
	BYTE		N12   
	BYTE	W12
	BYTE		N12   
	BYTE	W12
	BYTE		N12   
	BYTE	W12
	BYTE		N24   
	BYTE	W12
	BYTE	PEND
// 029   ----------------------------------------
seahorse_1_029:
	BYTE	W12
	BYTE		N12     Cs1   v104
	BYTE	W12
	BYTE		N12   
	BYTE	W12
	BYTE		N12   
	BYTE	W12
	BYTE		N16   
	BYTE	W16
	BYTE		N16   
	BYTE	W16
	BYTE		N16   
	BYTE	W16
	BYTE	PEND
// 030   ----------------------------------------
seahorse_1_030:
	BYTE		N12     Cs1   v104
	BYTE	W12
	BYTE		N12   
	BYTE	W12
	BYTE		N12   
	BYTE	W12
	BYTE		N12   
	BYTE	W12
	BYTE		N12   
	BYTE	W12
	BYTE		N12   
	BYTE	W12
	BYTE		N12   
	BYTE	W12
	BYTE		N12   
	BYTE	W12
	BYTE	PEND
// 031   ----------------------------------------
seahorse_1_031:
	BYTE	W12
	BYTE		N12     En1   v104
	BYTE	W12
	BYTE		        Ds1 
	BYTE	W12
	BYTE		        Cs1 
	BYTE	W12
	BYTE		        Gs0 
	BYTE	W12
	BYTE		N24     Fs0 
	BYTE	W24
	BYTE		N12     En0 
	BYTE	W12
	BYTE	PEND
// 032   ----------------------------------------
seahorse_1_032:
	BYTE		VOL     115*seahorse_mvl/mxv
	BYTE		N12     Cs1   v104
	BYTE	W12
	BYTE		N09     Ds1 
	BYTE	W12
	BYTE		        Ds1   v064
	BYTE	W12
	BYTE		N24     Cs1   v104
	BYTE	W24
	BYTE		N09     Ds1 
	BYTE	W12
	BYTE		        Ds1   v064
	BYTE	W12
	BYTE		N21     An0   v104
	BYTE	W12
	BYTE	PEND
// 033   ----------------------------------------
	BYTE	PATT
	 POIN2	seahorse_1_001
// 034   ----------------------------------------
	BYTE	PATT
	 POIN2	seahorse_1_002
// 035   ----------------------------------------
	BYTE	PATT
	 POIN2	seahorse_1_003
// 036   ----------------------------------------
	BYTE	PATT
	 POIN2	seahorse_1_002
// 037   ----------------------------------------
	BYTE	PATT
	 POIN2	seahorse_1_003
// 038   ----------------------------------------
	BYTE	PATT
	 POIN2	seahorse_1_002
// 039   ----------------------------------------
	BYTE	PATT
	 POIN2	seahorse_1_003
// 040   ----------------------------------------
	BYTE	PATT
	 POIN2	seahorse_1_002
// 041   ----------------------------------------
	BYTE	PATT
	 POIN2	seahorse_1_003
// 042   ----------------------------------------
	BYTE	PATT
	 POIN2	seahorse_1_010
// 043   ----------------------------------------
	BYTE	PATT
	 POIN2	seahorse_1_011
// 044   ----------------------------------------
	BYTE	PATT
	 POIN2	seahorse_1_002
// 045   ----------------------------------------
	BYTE	PATT
	 POIN2	seahorse_1_003
// 046   ----------------------------------------
	BYTE	PATT
	 POIN2	seahorse_1_002
// 047   ----------------------------------------
	BYTE	PATT
	 POIN2	seahorse_1_003
// 048   ----------------------------------------
	BYTE	PATT
	 POIN2	seahorse_1_002
// 049   ----------------------------------------
	BYTE	PATT
	 POIN2	seahorse_1_003
// 050   ----------------------------------------
	BYTE	PATT
	 POIN2	seahorse_1_010
// 051   ----------------------------------------
	BYTE	PATT
	 POIN2	seahorse_1_011
// 052   ----------------------------------------
	BYTE	PATT
	 POIN2	seahorse_1_020
// 053   ----------------------------------------
	BYTE	PATT
	 POIN2	seahorse_1_021
// 054   ----------------------------------------
	BYTE	PATT
	 POIN2	seahorse_1_022
// 055   ----------------------------------------
	BYTE	PATT
	 POIN2	seahorse_1_023
// 056   ----------------------------------------
	BYTE	PATT
	 POIN2	seahorse_1_024
// 057   ----------------------------------------
	BYTE	PATT
	 POIN2	seahorse_1_025
// 058   ----------------------------------------
	BYTE	PATT
	 POIN2	seahorse_1_026
// 059   ----------------------------------------
	BYTE	PATT
	 POIN2	seahorse_1_027
// 060   ----------------------------------------
	BYTE	PATT
	 POIN2	seahorse_1_028
// 061   ----------------------------------------
	BYTE	PATT
	 POIN2	seahorse_1_029
// 062   ----------------------------------------
	BYTE	PATT
	 POIN2	seahorse_1_030
// 063   ----------------------------------------
	BYTE	PATT
	 POIN2	seahorse_1_031
// 064   ----------------------------------------
	BYTE	PATT
	 POIN2	seahorse_1_032
// 065   ----------------------------------------
	BYTE	PATT
	 POIN2	seahorse_1_001
// 066   ----------------------------------------
	BYTE	PATT
	 POIN2	seahorse_1_002
// 067   ----------------------------------------
	BYTE	PATT
	 POIN2	seahorse_1_003
// 068   ----------------------------------------
	BYTE		VOL     114*seahorse_mvl/mxv
	BYTE		N12     Cs1   v104
	BYTE	W06
	BYTE		VOL     113*seahorse_mvl/mxv
	BYTE	W06
	BYTE		N09     Ds1 
	BYTE	W01
	BYTE		VOL     112*seahorse_mvl/mxv
	BYTE	W07
	BYTE		        111*seahorse_mvl/mxv
	BYTE	W04
	BYTE		N09     Ds1   v064
	BYTE	W02
	BYTE		VOL     110*seahorse_mvl/mxv
	BYTE	W07
	BYTE		        109*seahorse_mvl/mxv
	BYTE	W03
	BYTE		N24     Cs1   v104
	BYTE	W04
	BYTE		VOL     108*seahorse_mvl/mxv
	BYTE	W07
	BYTE		        107*seahorse_mvl/mxv
	BYTE	W06
	BYTE		        106*seahorse_mvl/mxv
	BYTE	W07
	BYTE		        105*seahorse_mvl/mxv
	BYTE		N09     Ds1 
	BYTE	W07
	BYTE		VOL     104*seahorse_mvl/mxv
	BYTE	W05
	BYTE		N09     Ds1   v064
	BYTE	W02
	BYTE		VOL     103*seahorse_mvl/mxv
	BYTE	W06
	BYTE		        102*seahorse_mvl/mxv
	BYTE	W04
	BYTE		N21     An0   v104
	BYTE	W03
	BYTE		VOL     101*seahorse_mvl/mxv
	BYTE	W07
	BYTE		        100*seahorse_mvl/mxv
	BYTE	W02
// 069   ----------------------------------------
	BYTE	W05
	BYTE		        99*seahorse_mvl/mxv
	BYTE	W06
	BYTE		        98*seahorse_mvl/mxv
	BYTE	W01
	BYTE		N09   
	BYTE	W06
	BYTE		VOL     97*seahorse_mvl/mxv
	BYTE	W06
	BYTE		N21   
	BYTE	W01
	BYTE		VOL     96*seahorse_mvl/mxv
	BYTE	W07
	BYTE		        95*seahorse_mvl/mxv
	BYTE	W06
	BYTE		        94*seahorse_mvl/mxv
	BYTE	W07
	BYTE		        93*seahorse_mvl/mxv
	BYTE	W03
	BYTE		N09   
	BYTE	W04
	BYTE		VOL     92*seahorse_mvl/mxv
	BYTE	W06
	BYTE		        91*seahorse_mvl/mxv
	BYTE	W02
	BYTE		N32     Gs0 
	BYTE	W05
	BYTE		VOL     90*seahorse_mvl/mxv
	BYTE	W07
	BYTE		        89*seahorse_mvl/mxv
	BYTE	W07
	BYTE		        88*seahorse_mvl/mxv
	BYTE	W06
	BYTE		        87*seahorse_mvl/mxv
	BYTE	W07
	BYTE		        86*seahorse_mvl/mxv
	BYTE	W04
// 070   ----------------------------------------
	BYTE		N12     Cs1 
	BYTE	W03
	BYTE		VOL     85*seahorse_mvl/mxv
	BYTE	W07
	BYTE		        84*seahorse_mvl/mxv
	BYTE	W02
	BYTE		N09     Ds1 
	BYTE	W04
	BYTE		VOL     83*seahorse_mvl/mxv
	BYTE	W07
	BYTE		        82*seahorse_mvl/mxv
	BYTE	W01
	BYTE		N09     Ds1   v064
	BYTE	W06
	BYTE		VOL     81*seahorse_mvl/mxv
	BYTE	W06
	BYTE		N24     Cs1   v104
	BYTE	W01
	BYTE		VOL     80*seahorse_mvl/mxv
	BYTE	W06
	BYTE		        79*seahorse_mvl/mxv
	BYTE	W07
	BYTE		        78*seahorse_mvl/mxv
	BYTE	W07
	BYTE		        77*seahorse_mvl/mxv
	BYTE	W03
	BYTE		N09     Ds1 
	BYTE	W04
	BYTE		VOL     76*seahorse_mvl/mxv
	BYTE	W06
	BYTE		        75*seahorse_mvl/mxv
	BYTE	W02
	BYTE		N09     Ds1   v064
	BYTE	W05
	BYTE		VOL     74*seahorse_mvl/mxv
	BYTE	W07
	BYTE		        73*seahorse_mvl/mxv
	BYTE		N21     An0   v104
	BYTE	W06
	BYTE		VOL     72*seahorse_mvl/mxv
	BYTE	W06
// 071   ----------------------------------------
	BYTE	W01
	BYTE		        71*seahorse_mvl/mxv
	BYTE	W07
	BYTE		        70*seahorse_mvl/mxv
	BYTE	W04
	BYTE		N09   
	BYTE	W03
	BYTE		VOL     69*seahorse_mvl/mxv
	BYTE	W06
	BYTE		        68*seahorse_mvl/mxv
	BYTE	W03
	BYTE		N21   
	BYTE	W04
	BYTE		VOL     67*seahorse_mvl/mxv
	BYTE	W07
	BYTE		        66*seahorse_mvl/mxv
	BYTE	W07
	BYTE		        65*seahorse_mvl/mxv
	BYTE	W06
	BYTE		        64*seahorse_mvl/mxv
	BYTE		N09   
	BYTE	W07
	BYTE		VOL     63*seahorse_mvl/mxv
	BYTE	W05
	BYTE		N32     Gs0 
	BYTE	W02
	BYTE		VOL     62*seahorse_mvl/mxv
	BYTE	W07
	BYTE		        61*seahorse_mvl/mxv
	BYTE	W06
	BYTE		        60*seahorse_mvl/mxv
	BYTE	W07
	BYTE		        59*seahorse_mvl/mxv
	BYTE	W07
	BYTE		        58*seahorse_mvl/mxv
	BYTE	W07
// 072   ----------------------------------------
	BYTE		        57*seahorse_mvl/mxv
	BYTE		N12     Cs1 
	BYTE	W06
	BYTE		VOL     56*seahorse_mvl/mxv
	BYTE	W06
	BYTE		N09     Ds1 
	BYTE	W01
	BYTE		VOL     55*seahorse_mvl/mxv
	BYTE	W07
	BYTE		        54*seahorse_mvl/mxv
	BYTE	W04
	BYTE		N09     Ds1   v064
	BYTE	W02
	BYTE		VOL     53*seahorse_mvl/mxv
	BYTE	W07
	BYTE		        52*seahorse_mvl/mxv
	BYTE	W03
	BYTE		N24     Cs1   v104
	BYTE	W04
	BYTE		VOL     51*seahorse_mvl/mxv
	BYTE	W07
	BYTE		        50*seahorse_mvl/mxv
	BYTE	W06
	BYTE		        49*seahorse_mvl/mxv
	BYTE	W07
	BYTE		        48*seahorse_mvl/mxv
	BYTE		N09     Ds1 
	BYTE	W07
	BYTE		VOL     47*seahorse_mvl/mxv
	BYTE	W05
	BYTE		N09     Ds1   v064
	BYTE	W02
	BYTE		VOL     46*seahorse_mvl/mxv
	BYTE	W06
	BYTE		        45*seahorse_mvl/mxv
	BYTE	W04
	BYTE		N21     An0   v104
	BYTE	W03
	BYTE		VOL     44*seahorse_mvl/mxv
	BYTE	W07
	BYTE		        43*seahorse_mvl/mxv
	BYTE	W02
// 073   ----------------------------------------
	BYTE	W05
	BYTE		        42*seahorse_mvl/mxv
	BYTE	W06
	BYTE		        41*seahorse_mvl/mxv
	BYTE	W01
	BYTE		N09   
	BYTE	W06
	BYTE		VOL     40*seahorse_mvl/mxv
	BYTE	W06
	BYTE		N21   
	BYTE	W01
	BYTE		VOL     39*seahorse_mvl/mxv
	BYTE	W07
	BYTE		        38*seahorse_mvl/mxv
	BYTE	W06
	BYTE		        37*seahorse_mvl/mxv
	BYTE	W07
	BYTE		        36*seahorse_mvl/mxv
	BYTE	W03
	BYTE		N09   
	BYTE	W04
	BYTE		VOL     35*seahorse_mvl/mxv
	BYTE	W06
	BYTE		        34*seahorse_mvl/mxv
	BYTE	W02
	BYTE		N32     Gs0 
	BYTE	W05
	BYTE		VOL     33*seahorse_mvl/mxv
	BYTE	W07
	BYTE		        32*seahorse_mvl/mxv
	BYTE	W07
	BYTE		        31*seahorse_mvl/mxv
	BYTE	W06
	BYTE		        30*seahorse_mvl/mxv
	BYTE	W07
	BYTE		        29*seahorse_mvl/mxv
	BYTE	W04
// 074   ----------------------------------------
	BYTE		N09     Gn0 
	BYTE	W03
	BYTE		VOL     28*seahorse_mvl/mxv
	BYTE	W07
	BYTE		        27*seahorse_mvl/mxv
	BYTE	W02
	BYTE		N09     Gn1 
	BYTE	W04
	BYTE		VOL     26*seahorse_mvl/mxv
	BYTE	W07
	BYTE		        25*seahorse_mvl/mxv
	BYTE	W01
	BYTE		N09     Gn1   v064
	BYTE	W06
	BYTE		VOL     24*seahorse_mvl/mxv
	BYTE	W06
	BYTE		N21     Gn0   v104
	BYTE	W01
	BYTE		VOL     23*seahorse_mvl/mxv
	BYTE	W06
	BYTE		        22*seahorse_mvl/mxv
	BYTE	W07
	BYTE		        21*seahorse_mvl/mxv
	BYTE	W07
	BYTE		        20*seahorse_mvl/mxv
	BYTE	W03
	BYTE		N09     Gn1 
	BYTE	W04
	BYTE		VOL     19*seahorse_mvl/mxv
	BYTE	W06
	BYTE		        18*seahorse_mvl/mxv
	BYTE	W02
	BYTE		N09     Gn1   v064
	BYTE	W05
	BYTE		VOL     17*seahorse_mvl/mxv
	BYTE	W07
	BYTE		        16*seahorse_mvl/mxv
	BYTE		N21     Gs0   v104
	BYTE	W06
	BYTE		VOL     15*seahorse_mvl/mxv
	BYTE	W06
// 075   ----------------------------------------
	BYTE	W01
	BYTE		        14*seahorse_mvl/mxv
	BYTE	W07
	BYTE		        13*seahorse_mvl/mxv
	BYTE	W04
	BYTE		N09   
	BYTE	W03
	BYTE		VOL     12*seahorse_mvl/mxv
	BYTE	W06
	BYTE		        11*seahorse_mvl/mxv
	BYTE	W03
	BYTE		N21   
	BYTE	W04
	BYTE		VOL     10*seahorse_mvl/mxv
	BYTE	W07
	BYTE		        9*seahorse_mvl/mxv
	BYTE	W07
	BYTE		        8*seahorse_mvl/mxv
	BYTE	W06
	BYTE		        7*seahorse_mvl/mxv
	BYTE		N16   
	BYTE	W07
	BYTE		VOL     6*seahorse_mvl/mxv
	BYTE	W07
	BYTE		        5*seahorse_mvl/mxv
	BYTE	W02
	BYTE		N16   
	BYTE	W05
	BYTE		VOL     4*seahorse_mvl/mxv
	BYTE	W06
	BYTE		        3*seahorse_mvl/mxv
	BYTE	W05
	BYTE		N16   
	BYTE	W02
	BYTE		VOL     2*seahorse_mvl/mxv
	BYTE	W07
	BYTE		        1*seahorse_mvl/mxv
	BYTE	W07
// 076   ----------------------------------------
	BYTE	FINE

//**************** Track 2 (Midi-Chn.2) ****************//

seahorse_2:
	BYTE	KEYSH   seahorse_key+0
// 000   ----------------------------------------
	BYTE		VOICE   34
	BYTE		VOL     127*seahorse_mvl/mxv
	BYTE		N12     Cs1   v104
	BYTE	W12
	BYTE		N09     Ds1 
	BYTE	W12
	BYTE		        Ds1   v064
	BYTE	W12
	BYTE		N24     Cs1   v104
	BYTE	W24
	BYTE		N09     Ds1 
	BYTE	W12
	BYTE		        Ds1   v064
	BYTE	W12
	BYTE		N21     An0   v104
	BYTE	W12
// 001   ----------------------------------------
seahorse_2_001:
	BYTE	W12
	BYTE		N09     An0   v104
	BYTE	W12
	BYTE		N21   
	BYTE	W24
	BYTE		N09   
	BYTE	W12
	BYTE		N32     Cn1 
	BYTE	W36
	BYTE	PEND
// 002   ----------------------------------------
seahorse_2_002:
	BYTE		N12     Cs1   v104
	BYTE	W12
	BYTE		N09     Ds1 
	BYTE	W12
	BYTE		        Ds1   v064
	BYTE	W12
	BYTE		N24     Cs1   v104
	BYTE	W24
	BYTE		N09     Ds1 
	BYTE	W12
	BYTE		        Ds1   v064
	BYTE	W12
	BYTE		N21     An0   v104
	BYTE	W12
	BYTE	PEND
// 003   ----------------------------------------
seahorse_2_003:
	BYTE	W12
	BYTE		N09     An0   v104
	BYTE	W12
	BYTE		N21   
	BYTE	W24
	BYTE		N09   
	BYTE	W12
	BYTE		N32     Gs0 
	BYTE	W36
	BYTE	PEND
// 004   ----------------------------------------
	BYTE	PATT
	 POIN2	seahorse_2_002
// 005   ----------------------------------------
	BYTE	PATT
	 POIN2	seahorse_2_003
// 006   ----------------------------------------
	BYTE	PATT
	 POIN2	seahorse_2_002
// 007   ----------------------------------------
	BYTE	PATT
	 POIN2	seahorse_2_003
// 008   ----------------------------------------
	BYTE	PATT
	 POIN2	seahorse_2_002
// 009   ----------------------------------------
	BYTE	PATT
	 POIN2	seahorse_2_003
// 010   ----------------------------------------
seahorse_2_010:
	BYTE		N09     Gn0   v104
	BYTE	W12
	BYTE		        Gn1 
	BYTE	W12
	BYTE		        Gn1   v064
	BYTE	W12
	BYTE		N21     Gn0   v104
	BYTE	W24
	BYTE		N09     Gn1 
	BYTE	W12
	BYTE		        Gn1   v064
	BYTE	W12
	BYTE		N21     Gs0   v104
	BYTE	W12
	BYTE	PEND
// 011   ----------------------------------------
seahorse_2_011:
	BYTE	W12
	BYTE		N09     Gs0   v104
	BYTE	W12
	BYTE		N21   
	BYTE	W24
	BYTE		N16   
	BYTE	W16
	BYTE		N16   
	BYTE	W16
	BYTE		N16   
	BYTE	W16
	BYTE	PEND
// 012   ----------------------------------------
	BYTE	PATT
	 POIN2	seahorse_2_002
// 013   ----------------------------------------
	BYTE	PATT
	 POIN2	seahorse_2_003
// 014   ----------------------------------------
	BYTE	PATT
	 POIN2	seahorse_2_002
// 015   ----------------------------------------
	BYTE	PATT
	 POIN2	seahorse_2_003
// 016   ----------------------------------------
	BYTE	PATT
	 POIN2	seahorse_2_002
// 017   ----------------------------------------
	BYTE	PATT
	 POIN2	seahorse_2_003
// 018   ----------------------------------------
	BYTE	PATT
	 POIN2	seahorse_2_010
// 019   ----------------------------------------
	BYTE	PATT
	 POIN2	seahorse_2_011
// 020   ----------------------------------------
seahorse_2_020:
	BYTE		N36     Cs1   v104
	BYTE	W36
	BYTE		N12   
	BYTE	W12
	BYTE		N36   
	BYTE	W36
	BYTE		N48     An0 
	BYTE	W12
	BYTE	PEND
// 021   ----------------------------------------
seahorse_2_021:
	BYTE	W36
	BYTE		N12     An0   v104
	BYTE	W12
	BYTE		N48   
	BYTE	W48
	BYTE	PEND
// 022   ----------------------------------------
seahorse_2_022:
	BYTE		N36     Ds1   v104
	BYTE	W36
	BYTE		N12   
	BYTE	W12
	BYTE		N36   
	BYTE	W36
	BYTE		N48     Cn1 
	BYTE	W12
	BYTE	PEND
// 023   ----------------------------------------
seahorse_2_023:
	BYTE	W36
	BYTE		N12     Cn1   v104
	BYTE	W12
	BYTE		N12   
	BYTE	W12
	BYTE		N24   
	BYTE	W24
	BYTE		N12   
	BYTE	W12
	BYTE	PEND
// 024   ----------------------------------------
seahorse_2_024:
	BYTE		N12     Cs1   v104
	BYTE	W12
	BYTE		N12   
	BYTE	W12
	BYTE		N12   
	BYTE	W12
	BYTE		N12   
	BYTE	W12
	BYTE		N12   
	BYTE	W12
	BYTE		N12   
	BYTE	W12
	BYTE		N12   
	BYTE	W12
	BYTE		N24     An0 
	BYTE	W12
	BYTE	PEND
// 025   ----------------------------------------
seahorse_2_025:
	BYTE	W12
	BYTE		N12     An0   v104
	BYTE	W12
	BYTE		N12   
	BYTE	W12
	BYTE		N12   
	BYTE	W12
	BYTE		N12   
	BYTE	W12
	BYTE		N12   
	BYTE	W12
	BYTE		N12   
	BYTE	W12
	BYTE		N12   
	BYTE	W12
	BYTE	PEND
// 026   ----------------------------------------
seahorse_2_026:
	BYTE		N12     Fs0   v104
	BYTE	W12
	BYTE		N12   
	BYTE	W12
	BYTE		N12   
	BYTE	W12
	BYTE		N12   
	BYTE	W12
	BYTE		N12   
	BYTE	W12
	BYTE		N12   
	BYTE	W12
	BYTE		N12   
	BYTE	W12
	BYTE		N24     Gs0 
	BYTE	W12
	BYTE	PEND
// 027   ----------------------------------------
seahorse_2_027:
	BYTE	W12
	BYTE		N12     Gs0   v104
	BYTE	W12
	BYTE		N12   
	BYTE	W12
	BYTE		N12   
	BYTE	W12
	BYTE		N16   
	BYTE	W16
	BYTE		        As0 
	BYTE	W16
	BYTE		        Cn1 
	BYTE	W16
	BYTE	PEND
// 028   ----------------------------------------
seahorse_2_028:
	BYTE		N12     Cs1   v104
	BYTE	W12
	BYTE		N12   
	BYTE	W12
	BYTE		N12   
	BYTE	W12
	BYTE		N12   
	BYTE	W12
	BYTE		N12   
	BYTE	W12
	BYTE		N12   
	BYTE	W12
	BYTE		N12   
	BYTE	W12
	BYTE		N24   
	BYTE	W12
	BYTE	PEND
// 029   ----------------------------------------
seahorse_2_029:
	BYTE	W12
	BYTE		N12     Cs1   v104
	BYTE	W12
	BYTE		N12   
	BYTE	W12
	BYTE		N12   
	BYTE	W12
	BYTE		N16   
	BYTE	W16
	BYTE		N16   
	BYTE	W16
	BYTE		N16   
	BYTE	W16
	BYTE	PEND
// 030   ----------------------------------------
seahorse_2_030:
	BYTE		N12     Cs1   v104
	BYTE	W12
	BYTE		N12   
	BYTE	W12
	BYTE		N12   
	BYTE	W12
	BYTE		N12   
	BYTE	W12
	BYTE		N12   
	BYTE	W12
	BYTE		N12   
	BYTE	W12
	BYTE		N12   
	BYTE	W12
	BYTE		N12   
	BYTE	W12
	BYTE	PEND
// 031   ----------------------------------------
seahorse_2_031:
	BYTE	W12
	BYTE		N12     En1   v104
	BYTE	W12
	BYTE		        Ds1 
	BYTE	W12
	BYTE		        Cs1 
	BYTE	W12
	BYTE		        Gs0 
	BYTE	W12
	BYTE		N24     Fs0 
	BYTE	W24
	BYTE		N12     En0 
	BYTE	W12
	BYTE	PEND
// 032   ----------------------------------------
seahorse_2_032:
	BYTE		VOL     127*seahorse_mvl/mxv
	BYTE		N12     Cs1   v104
	BYTE	W12
	BYTE		N09     Ds1 
	BYTE	W12
	BYTE		        Ds1   v064
	BYTE	W12
	BYTE		N24     Cs1   v104
	BYTE	W24
	BYTE		N09     Ds1 
	BYTE	W12
	BYTE		        Ds1   v064
	BYTE	W12
	BYTE		N21     An0   v104
	BYTE	W12
	BYTE	PEND
// 033   ----------------------------------------
	BYTE	PATT
	 POIN2	seahorse_2_001
// 034   ----------------------------------------
	BYTE	PATT
	 POIN2	seahorse_2_002
// 035   ----------------------------------------
	BYTE	PATT
	 POIN2	seahorse_2_003
// 036   ----------------------------------------
	BYTE	PATT
	 POIN2	seahorse_2_002
// 037   ----------------------------------------
	BYTE	PATT
	 POIN2	seahorse_2_003
// 038   ----------------------------------------
	BYTE	PATT
	 POIN2	seahorse_2_002
// 039   ----------------------------------------
	BYTE	PATT
	 POIN2	seahorse_2_003
// 040   ----------------------------------------
	BYTE	PATT
	 POIN2	seahorse_2_002
// 041   ----------------------------------------
	BYTE	PATT
	 POIN2	seahorse_2_003
// 042   ----------------------------------------
	BYTE	PATT
	 POIN2	seahorse_2_010
// 043   ----------------------------------------
	BYTE	PATT
	 POIN2	seahorse_2_011
// 044   ----------------------------------------
	BYTE	PATT
	 POIN2	seahorse_2_002
// 045   ----------------------------------------
	BYTE	PATT
	 POIN2	seahorse_2_003
// 046   ----------------------------------------
	BYTE	PATT
	 POIN2	seahorse_2_002
// 047   ----------------------------------------
	BYTE	PATT
	 POIN2	seahorse_2_003
// 048   ----------------------------------------
	BYTE	PATT
	 POIN2	seahorse_2_002
// 049   ----------------------------------------
	BYTE	PATT
	 POIN2	seahorse_2_003
// 050   ----------------------------------------
	BYTE	PATT
	 POIN2	seahorse_2_010
// 051   ----------------------------------------
	BYTE	PATT
	 POIN2	seahorse_2_011
// 052   ----------------------------------------
	BYTE	PATT
	 POIN2	seahorse_2_020
// 053   ----------------------------------------
	BYTE	PATT
	 POIN2	seahorse_2_021
// 054   ----------------------------------------
	BYTE	PATT
	 POIN2	seahorse_2_022
// 055   ----------------------------------------
	BYTE	PATT
	 POIN2	seahorse_2_023
// 056   ----------------------------------------
	BYTE	PATT
	 POIN2	seahorse_2_024
// 057   ----------------------------------------
	BYTE	PATT
	 POIN2	seahorse_2_025
// 058   ----------------------------------------
	BYTE	PATT
	 POIN2	seahorse_2_026
// 059   ----------------------------------------
	BYTE	PATT
	 POIN2	seahorse_2_027
// 060   ----------------------------------------
	BYTE	PATT
	 POIN2	seahorse_2_028
// 061   ----------------------------------------
	BYTE	PATT
	 POIN2	seahorse_2_029
// 062   ----------------------------------------
	BYTE	PATT
	 POIN2	seahorse_2_030
// 063   ----------------------------------------
	BYTE	PATT
	 POIN2	seahorse_2_031
// 064   ----------------------------------------
	BYTE	PATT
	 POIN2	seahorse_2_032
// 065   ----------------------------------------
	BYTE	PATT
	 POIN2	seahorse_2_001
// 066   ----------------------------------------
	BYTE	PATT
	 POIN2	seahorse_2_002
// 067   ----------------------------------------
	BYTE	PATT
	 POIN2	seahorse_2_003
// 068   ----------------------------------------
	BYTE		VOL     127*seahorse_mvl/mxv
	BYTE		N12     Cs1   v104
	BYTE	W06
	BYTE		VOL     126*seahorse_mvl/mxv
	BYTE	W06
	BYTE		        125*seahorse_mvl/mxv
	BYTE		N09     Ds1 
	BYTE	W06
	BYTE		VOL     124*seahorse_mvl/mxv
	BYTE	W06
	BYTE		        123*seahorse_mvl/mxv
	BYTE		N09     Ds1   v064
	BYTE	W06
	BYTE		VOL     122*seahorse_mvl/mxv
	BYTE	W06
	BYTE		        121*seahorse_mvl/mxv
	BYTE		N24     Cs1   v104
	BYTE	W07
	BYTE		VOL     120*seahorse_mvl/mxv
	BYTE	W06
	BYTE		        119*seahorse_mvl/mxv
	BYTE	W06
	BYTE		        118*seahorse_mvl/mxv
	BYTE	W05
	BYTE		N09     Ds1 
	BYTE	W01
	BYTE		VOL     117*seahorse_mvl/mxv
	BYTE	W06
	BYTE		        116*seahorse_mvl/mxv
	BYTE	W05
	BYTE		N09     Ds1   v064
	BYTE	W01
	BYTE		VOL     115*seahorse_mvl/mxv
	BYTE	W06
	BYTE		        114*seahorse_mvl/mxv
	BYTE	W05
	BYTE		N21     An0   v104
	BYTE	W01
	BYTE		VOL     113*seahorse_mvl/mxv
	BYTE	W06
	BYTE		        112*seahorse_mvl/mxv
	BYTE	W05
// 069   ----------------------------------------
	BYTE	W01
	BYTE		        111*seahorse_mvl/mxv
	BYTE	W06
	BYTE		        110*seahorse_mvl/mxv
	BYTE	W05
	BYTE		N09   
	BYTE	W01
	BYTE		VOL     109*seahorse_mvl/mxv
	BYTE	W06
	BYTE		        108*seahorse_mvl/mxv
	BYTE	W05
	BYTE		N21   
	BYTE	W01
	BYTE		VOL     107*seahorse_mvl/mxv
	BYTE	W06
	BYTE		        106*seahorse_mvl/mxv
	BYTE	W06
	BYTE		        105*seahorse_mvl/mxv
	BYTE	W06
	BYTE		        104*seahorse_mvl/mxv
	BYTE	W05
	BYTE		N09   
	BYTE	W01
	BYTE		VOL     103*seahorse_mvl/mxv
	BYTE	W06
	BYTE		        102*seahorse_mvl/mxv
	BYTE	W05
	BYTE		N32     Gs0 
	BYTE	W01
	BYTE		VOL     101*seahorse_mvl/mxv
	BYTE	W06
	BYTE		        100*seahorse_mvl/mxv
	BYTE	W06
	BYTE		        99*seahorse_mvl/mxv
	BYTE	W06
	BYTE		        98*seahorse_mvl/mxv
	BYTE	W06
	BYTE		        97*seahorse_mvl/mxv
	BYTE	W06
	BYTE		        96*seahorse_mvl/mxv
	BYTE	W05
// 070   ----------------------------------------
	BYTE		N12     Cs1 
	BYTE	W01
	BYTE		VOL     95*seahorse_mvl/mxv
	BYTE	W06
	BYTE		        94*seahorse_mvl/mxv
	BYTE	W05
	BYTE		N09     Ds1 
	BYTE	W01
	BYTE		VOL     93*seahorse_mvl/mxv
	BYTE	W06
	BYTE		        92*seahorse_mvl/mxv
	BYTE	W05
	BYTE		N09     Ds1   v064
	BYTE	W01
	BYTE		VOL     91*seahorse_mvl/mxv
	BYTE	W06
	BYTE		        90*seahorse_mvl/mxv
	BYTE	W05
	BYTE		N24     Cs1   v104
	BYTE	W01
	BYTE		VOL     89*seahorse_mvl/mxv
	BYTE	W06
	BYTE		        88*seahorse_mvl/mxv
	BYTE	W06
	BYTE		        87*seahorse_mvl/mxv
	BYTE	W06
	BYTE		        86*seahorse_mvl/mxv
	BYTE	W05
	BYTE		N09     Ds1 
	BYTE	W02
	BYTE		VOL     85*seahorse_mvl/mxv
	BYTE	W06
	BYTE		        84*seahorse_mvl/mxv
	BYTE	W04
	BYTE		N09     Ds1   v064
	BYTE	W02
	BYTE		VOL     83*seahorse_mvl/mxv
	BYTE	W06
	BYTE		        82*seahorse_mvl/mxv
	BYTE	W04
	BYTE		N21     An0   v104
	BYTE	W02
	BYTE		VOL     81*seahorse_mvl/mxv
	BYTE	W06
	BYTE		        80*seahorse_mvl/mxv
	BYTE	W04
// 071   ----------------------------------------
	BYTE	W02
	BYTE		        79*seahorse_mvl/mxv
	BYTE	W06
	BYTE		        78*seahorse_mvl/mxv
	BYTE	W04
	BYTE		N09   
	BYTE	W02
	BYTE		VOL     77*seahorse_mvl/mxv
	BYTE	W06
	BYTE		        76*seahorse_mvl/mxv
	BYTE	W04
	BYTE		N21   
	BYTE	W02
	BYTE		VOL     75*seahorse_mvl/mxv
	BYTE	W06
	BYTE		        74*seahorse_mvl/mxv
	BYTE	W06
	BYTE		        73*seahorse_mvl/mxv
	BYTE	W06
	BYTE		        72*seahorse_mvl/mxv
	BYTE	W04
	BYTE		N09   
	BYTE	W02
	BYTE		VOL     71*seahorse_mvl/mxv
	BYTE	W06
	BYTE		        70*seahorse_mvl/mxv
	BYTE	W04
	BYTE		N32     Gs0 
	BYTE	W02
	BYTE		VOL     69*seahorse_mvl/mxv
	BYTE	W06
	BYTE		        68*seahorse_mvl/mxv
	BYTE	W06
	BYTE		        67*seahorse_mvl/mxv
	BYTE	W06
	BYTE		        66*seahorse_mvl/mxv
	BYTE	W06
	BYTE		        65*seahorse_mvl/mxv
	BYTE	W06
	BYTE		        64*seahorse_mvl/mxv
	BYTE	W04
// 072   ----------------------------------------
	BYTE		N12     Cs1 
	BYTE	W02
	BYTE		VOL     63*seahorse_mvl/mxv
	BYTE	W06
	BYTE		        62*seahorse_mvl/mxv
	BYTE	W04
	BYTE		N09     Ds1 
	BYTE	W02
	BYTE		VOL     61*seahorse_mvl/mxv
	BYTE	W06
	BYTE		        60*seahorse_mvl/mxv
	BYTE	W04
	BYTE		N09     Ds1   v064
	BYTE	W02
	BYTE		VOL     59*seahorse_mvl/mxv
	BYTE	W06
	BYTE		        58*seahorse_mvl/mxv
	BYTE	W04
	BYTE		N24     Cs1   v104
	BYTE	W02
	BYTE		VOL     57*seahorse_mvl/mxv
	BYTE	W06
	BYTE		        56*seahorse_mvl/mxv
	BYTE	W06
	BYTE		        55*seahorse_mvl/mxv
	BYTE	W06
	BYTE		        54*seahorse_mvl/mxv
	BYTE	W04
	BYTE		N09     Ds1 
	BYTE	W02
	BYTE		VOL     53*seahorse_mvl/mxv
	BYTE	W06
	BYTE		        52*seahorse_mvl/mxv
	BYTE	W04
	BYTE		N09     Ds1   v064
	BYTE	W02
	BYTE		VOL     51*seahorse_mvl/mxv
	BYTE	W06
	BYTE		        50*seahorse_mvl/mxv
	BYTE	W04
	BYTE		N21     An0   v104
	BYTE	W03
	BYTE		VOL     49*seahorse_mvl/mxv
	BYTE	W06
	BYTE		        48*seahorse_mvl/mxv
	BYTE	W03
// 073   ----------------------------------------
	BYTE	W03
	BYTE		        47*seahorse_mvl/mxv
	BYTE	W06
	BYTE		        46*seahorse_mvl/mxv
	BYTE	W03
	BYTE		N09   
	BYTE	W03
	BYTE		VOL     45*seahorse_mvl/mxv
	BYTE	W06
	BYTE		        44*seahorse_mvl/mxv
	BYTE	W03
	BYTE		N21   
	BYTE	W03
	BYTE		VOL     43*seahorse_mvl/mxv
	BYTE	W06
	BYTE		        42*seahorse_mvl/mxv
	BYTE	W06
	BYTE		        41*seahorse_mvl/mxv
	BYTE	W06
	BYTE		        40*seahorse_mvl/mxv
	BYTE	W03
	BYTE		N09   
	BYTE	W03
	BYTE		VOL     39*seahorse_mvl/mxv
	BYTE	W06
	BYTE		        38*seahorse_mvl/mxv
	BYTE	W03
	BYTE		N32     Gs0 
	BYTE	W03
	BYTE		VOL     37*seahorse_mvl/mxv
	BYTE	W06
	BYTE		        36*seahorse_mvl/mxv
	BYTE	W06
	BYTE		        35*seahorse_mvl/mxv
	BYTE	W06
	BYTE		        34*seahorse_mvl/mxv
	BYTE	W06
	BYTE		        33*seahorse_mvl/mxv
	BYTE	W06
	BYTE		        32*seahorse_mvl/mxv
	BYTE	W03
// 074   ----------------------------------------
	BYTE		N09     Gn0 
	BYTE	W03
	BYTE		VOL     31*seahorse_mvl/mxv
	BYTE	W06
	BYTE		        30*seahorse_mvl/mxv
	BYTE	W03
	BYTE		N09     Gn1 
	BYTE	W03
	BYTE		VOL     29*seahorse_mvl/mxv
	BYTE	W06
	BYTE		        28*seahorse_mvl/mxv
	BYTE	W03
	BYTE		N09     Gn1   v064
	BYTE	W03
	BYTE		VOL     27*seahorse_mvl/mxv
	BYTE	W06
	BYTE		        26*seahorse_mvl/mxv
	BYTE	W03
	BYTE		N21     Gn0   v104
	BYTE	W03
	BYTE		VOL     25*seahorse_mvl/mxv
	BYTE	W06
	BYTE		        24*seahorse_mvl/mxv
	BYTE	W06
	BYTE		        23*seahorse_mvl/mxv
	BYTE	W06
	BYTE		        22*seahorse_mvl/mxv
	BYTE	W03
	BYTE		N09     Gn1 
	BYTE	W03
	BYTE		VOL     21*seahorse_mvl/mxv
	BYTE	W06
	BYTE		        20*seahorse_mvl/mxv
	BYTE	W03
	BYTE		N09     Gn1   v064
	BYTE	W03
	BYTE		VOL     19*seahorse_mvl/mxv
	BYTE	W06
	BYTE		        18*seahorse_mvl/mxv
	BYTE	W03
	BYTE		N21     Gs0   v104
	BYTE	W03
	BYTE		VOL     17*seahorse_mvl/mxv
	BYTE	W06
	BYTE		        16*seahorse_mvl/mxv
	BYTE	W03
// 075   ----------------------------------------
	BYTE	W03
	BYTE		        15*seahorse_mvl/mxv
	BYTE	W07
	BYTE		        14*seahorse_mvl/mxv
	BYTE	W02
	BYTE		N09   
	BYTE	W04
	BYTE		VOL     13*seahorse_mvl/mxv
	BYTE	W06
	BYTE		        12*seahorse_mvl/mxv
	BYTE	W02
	BYTE		N21   
	BYTE	W04
	BYTE		VOL     11*seahorse_mvl/mxv
	BYTE	W06
	BYTE		        10*seahorse_mvl/mxv
	BYTE	W06
	BYTE		        9*seahorse_mvl/mxv
	BYTE	W06
	BYTE		        8*seahorse_mvl/mxv
	BYTE	W02
	BYTE		N16   
	BYTE	W04
	BYTE		VOL     7*seahorse_mvl/mxv
	BYTE	W06
	BYTE		        6*seahorse_mvl/mxv
	BYTE	W06
	BYTE		        5*seahorse_mvl/mxv
	BYTE		N16   
	BYTE	W06
	BYTE		VOL     4*seahorse_mvl/mxv
	BYTE	W06
	BYTE		        3*seahorse_mvl/mxv
	BYTE	W04
	BYTE		N16   
	BYTE	W02
	BYTE		VOL     2*seahorse_mvl/mxv
	BYTE	W06
	BYTE		        1*seahorse_mvl/mxv
	BYTE	W08
// 076   ----------------------------------------
	BYTE	FINE

//**************** Track 3 (Midi-Chn.3) ****************//

seahorse_3:
	BYTE	KEYSH   seahorse_key+0
// 000   ----------------------------------------
	BYTE		VOICE   29
	BYTE		VOL     109*seahorse_mvl/mxv
	BYTE		PAN     c_v-8
	BYTE		N12     Cs1   v104
	BYTE		N12     Gs1   v064
	BYTE		N12     Cs2 
	BYTE	W12
	BYTE		N09     Ds1   v104
	BYTE		N09     As1   v064
	BYTE		N09     Ds2 
	BYTE	W24
	BYTE		N24     Cs1   v104
	BYTE		N24     Gs1   v064
	BYTE		N24     Cs2 
	BYTE	W24
	BYTE		N09     Ds1   v104
	BYTE		N09     As1   v064
	BYTE		N09     Ds2 
	BYTE	W24
	BYTE		N21     An0   v104
	BYTE		N21     En1   v064
	BYTE		N21     An1 
	BYTE	W12
// 001   ----------------------------------------
seahorse_3_001:
	BYTE	W12
	BYTE		N09     An0   v104
	BYTE		N09     En1   v064
	BYTE		N09     An1 
	BYTE	W12
	BYTE		N21     An0   v104
	BYTE		N21     En1   v064
	BYTE		N21     An1 
	BYTE	W24
	BYTE		N09     An0   v104
	BYTE		N09     En1   v064
	BYTE		N09     An1 
	BYTE	W12
	BYTE		N32     Cn1   v104
	BYTE		N32     Gn1   v064
	BYTE		N32     Cn2 
	BYTE	W36
	BYTE	PEND
// 002   ----------------------------------------
seahorse_3_002:
	BYTE		N12     Cs1   v104
	BYTE		N12     Gs1   v064
	BYTE		N12     Cs2 
	BYTE	W12
	BYTE		N09     Ds1   v104
	BYTE		N09     As1   v064
	BYTE		N09     Ds2 
	BYTE	W24
	BYTE		N24     Cs1   v104
	BYTE		N24     Gs1   v064
	BYTE		N24     Cs2 
	BYTE	W24
	BYTE		N09     Ds1   v104
	BYTE		N09     As1   v064
	BYTE		N09     Ds2 
	BYTE	W24
	BYTE		N21     An0   v104
	BYTE		N21     En1   v064
	BYTE		N21     An1 
	BYTE	W12
	BYTE	PEND
// 003   ----------------------------------------
seahorse_3_003:
	BYTE	W12
	BYTE		N09     An0   v104
	BYTE		N09     En1   v064
	BYTE		N09     An1 
	BYTE	W12
	BYTE		N21     An0   v104
	BYTE		N21     En1   v064
	BYTE		N21     An1 
	BYTE	W24
	BYTE		N09     An0   v104
	BYTE		N09     En1   v064
	BYTE		N09     An1 
	BYTE	W12
	BYTE		N32     Gs0   v104
	BYTE		N32     Ds1   v064
	BYTE		N32     Gs1 
	BYTE	W36
	BYTE	PEND
// 004   ----------------------------------------
	BYTE	PATT
	 POIN2	seahorse_3_002
// 005   ----------------------------------------
	BYTE	PATT
	 POIN2	seahorse_3_003
// 006   ----------------------------------------
	BYTE	PATT
	 POIN2	seahorse_3_002
// 007   ----------------------------------------
	BYTE	PATT
	 POIN2	seahorse_3_003
// 008   ----------------------------------------
	BYTE	PATT
	 POIN2	seahorse_3_002
// 009   ----------------------------------------
	BYTE	PATT
	 POIN2	seahorse_3_003
// 010   ----------------------------------------
seahorse_3_010:
	BYTE		N09     Gn0   v104
	BYTE		N09     Dn1   v064
	BYTE		N09     Gn1 
	BYTE	W12
	BYTE		        Gn0   v104
	BYTE		N09     Dn1   v064
	BYTE		N09     Gn1 
	BYTE	W12
	BYTE		N21     Gn0   v104
	BYTE		N21     Dn1   v064
	BYTE		N21     Gn1 
	BYTE	W24
	BYTE		N09     Gn0   v104
	BYTE		N09     Dn1   v064
	BYTE		N09     Gn1 
	BYTE	W12
	BYTE		N21     Gn0   v104
	BYTE		N21     Dn1   v064
	BYTE		N21     Gn1 
	BYTE	W24
	BYTE		        Gs0   v104
	BYTE		N21     Ds1   v064
	BYTE		N21     Gs1 
	BYTE	W12
	BYTE	PEND
// 011   ----------------------------------------
seahorse_3_011:
	BYTE	W12
	BYTE		N09     Gs0   v104
	BYTE		N09     Ds1   v064
	BYTE		N09     Gs1 
	BYTE	W12
	BYTE		N21     Gs0   v104
	BYTE		N21     Ds1   v064
	BYTE		N21     Gs1 
	BYTE	W24
	BYTE		N13     Gs0   v104
	BYTE		N13     Ds1   v064
	BYTE		N13     Gs1 
	BYTE	W16
	BYTE		        An0   v104
	BYTE		N13     En1   v064
	BYTE		N13     An1 
	BYTE	W16
	BYTE		        As0   v104
	BYTE		N13     Fn1   v064
	BYTE		N13     As1 
	BYTE	W16
	BYTE	PEND
// 012   ----------------------------------------
	BYTE	PATT
	 POIN2	seahorse_3_002
// 013   ----------------------------------------
	BYTE	PATT
	 POIN2	seahorse_3_003
// 014   ----------------------------------------
	BYTE	PATT
	 POIN2	seahorse_3_002
// 015   ----------------------------------------
	BYTE	PATT
	 POIN2	seahorse_3_003
// 016   ----------------------------------------
	BYTE	PATT
	 POIN2	seahorse_3_002
// 017   ----------------------------------------
	BYTE	PATT
	 POIN2	seahorse_3_003
// 018   ----------------------------------------
	BYTE	PATT
	 POIN2	seahorse_3_010
// 019   ----------------------------------------
	BYTE	PATT
	 POIN2	seahorse_3_011
// 020   ----------------------------------------
	BYTE	W96
// 021   ----------------------------------------
	BYTE	W96
// 022   ----------------------------------------
	BYTE	W96
// 023   ----------------------------------------
	BYTE	W96
// 024   ----------------------------------------
	BYTE	W96
// 025   ----------------------------------------
	BYTE	W96
// 026   ----------------------------------------
	BYTE	W96
// 027   ----------------------------------------
	BYTE	W96
// 028   ----------------------------------------
seahorse_3_028:
	BYTE		N09     Gs0   v104
	BYTE		N09     Cs1   v064
	BYTE		N09     Gs1 
	BYTE	W12
	BYTE		        Gs0   v104
	BYTE		N09     Cs1   v064
	BYTE		N09     Gs1 
	BYTE	W12
	BYTE		N21     Gs0   v104
	BYTE		N21     Cs1   v064
	BYTE		N21     Gs1 
	BYTE	W24
	BYTE		N09     Gs0   v104
	BYTE		N09     Cs1   v064
	BYTE		N09     Gs1 
	BYTE	W12
	BYTE		N21     Gs0   v104
	BYTE		N21     Cs1   v064
	BYTE		N21     Gs1 
	BYTE	W24
	BYTE		        Gs0   v104
	BYTE		N21     Cs1   v064
	BYTE		N21     Gs1 
	BYTE	W12
	BYTE	PEND
// 029   ----------------------------------------
seahorse_3_029:
	BYTE	W12
	BYTE		N09     Gs0   v104
	BYTE		N09     Cs1   v064
	BYTE		N09     Gs1 
	BYTE	W12
	BYTE		N21     Gs0   v104
	BYTE		N21     Cs1   v064
	BYTE		N21     Gs1 
	BYTE	W24
	BYTE		N13     Gs0   v104
	BYTE		N13     Cs1   v064
	BYTE		N13     Gs1 
	BYTE	W16
	BYTE		        Gs0   v104
	BYTE		N13     Cs1   v064
	BYTE		N13     Gs1 
	BYTE	W16
	BYTE		        Gs0   v104
	BYTE		N13     Cs1   v064
	BYTE		N13     Gs1 
	BYTE	W16
	BYTE	PEND
// 030   ----------------------------------------
seahorse_3_030:
	BYTE		N09     Gs0   v104
	BYTE		N09     Cs1   v064
	BYTE		N09     Gs1 
	BYTE	W12
	BYTE		        Gs0   v104
	BYTE		N09     Cs1   v064
	BYTE		N09     Gs1 
	BYTE	W12
	BYTE		N21     Gs0   v104
	BYTE		N21     Cs1   v064
	BYTE		N21     Gs1 
	BYTE	W24
	BYTE		N09     Gs0   v104
	BYTE		N09     Cs1   v064
	BYTE		N09     Gs1 
	BYTE	W12
	BYTE		N21     Gs0   v104
	BYTE		N21     Cs1   v064
	BYTE		N21     Gs1 
	BYTE	W24
	BYTE		N09     Gs0   v104
	BYTE		N09     Cs1   v064
	BYTE		N09     Gs1 
	BYTE	W12
	BYTE	PEND
// 031   ----------------------------------------
seahorse_3_031:
	BYTE	W12
	BYTE		N10     En2   v104
	BYTE		N10     Bn2   v064
	BYTE		N10     En3 
	BYTE	W12
	BYTE		        Ds2   v104
	BYTE		N10     As2 
	BYTE		N10     Ds3   v064
	BYTE	W12
	BYTE		        Cs2   v104
	BYTE		N10     Gs2   v064
	BYTE		N10     Cs3 
	BYTE	W12
	BYTE		        Gs1   v104
	BYTE		N10     Ds2   v064
	BYTE		N10     Gs2 
	BYTE	W12
	BYTE		N22     Fs1   v104
	BYTE		N22     Cs2   v064
	BYTE		N22     Fs2 
	BYTE	W24
	BYTE		N10     En1   v104
	BYTE		N10     Bn1   v064
	BYTE		N10     En2 
	BYTE	W12
	BYTE	PEND
// 032   ----------------------------------------
seahorse_3_032:
	BYTE		VOL     109*seahorse_mvl/mxv
	BYTE		PAN     c_v-8
	BYTE		N12     Cs1   v104
	BYTE		N12     Gs1   v064
	BYTE		N12     Cs2 
	BYTE	W12
	BYTE		N09     Ds1   v104
	BYTE		N09     As1   v064
	BYTE		N09     Ds2 
	BYTE	W24
	BYTE		N24     Cs1   v104
	BYTE		N24     Gs1   v064
	BYTE		N24     Cs2 
	BYTE	W24
	BYTE		N09     Ds1   v104
	BYTE		N09     As1   v064
	BYTE		N09     Ds2 
	BYTE	W24
	BYTE		N21     An0   v104
	BYTE		N21     En1   v064
	BYTE		N21     An1 
	BYTE	W12
	BYTE	PEND
// 033   ----------------------------------------
	BYTE	PATT
	 POIN2	seahorse_3_001
// 034   ----------------------------------------
	BYTE	PATT
	 POIN2	seahorse_3_002
// 035   ----------------------------------------
	BYTE	PATT
	 POIN2	seahorse_3_003
// 036   ----------------------------------------
	BYTE	PATT
	 POIN2	seahorse_3_002
// 037   ----------------------------------------
	BYTE	PATT
	 POIN2	seahorse_3_003
// 038   ----------------------------------------
	BYTE	PATT
	 POIN2	seahorse_3_002
// 039   ----------------------------------------
	BYTE	PATT
	 POIN2	seahorse_3_003
// 040   ----------------------------------------
	BYTE	PATT
	 POIN2	seahorse_3_002
// 041   ----------------------------------------
	BYTE	PATT
	 POIN2	seahorse_3_003
// 042   ----------------------------------------
	BYTE	PATT
	 POIN2	seahorse_3_010
// 043   ----------------------------------------
	BYTE	PATT
	 POIN2	seahorse_3_011
// 044   ----------------------------------------
	BYTE	PATT
	 POIN2	seahorse_3_002
// 045   ----------------------------------------
	BYTE	PATT
	 POIN2	seahorse_3_003
// 046   ----------------------------------------
	BYTE	PATT
	 POIN2	seahorse_3_002
// 047   ----------------------------------------
	BYTE	PATT
	 POIN2	seahorse_3_003
// 048   ----------------------------------------
	BYTE	PATT
	 POIN2	seahorse_3_002
// 049   ----------------------------------------
	BYTE	PATT
	 POIN2	seahorse_3_003
// 050   ----------------------------------------
	BYTE	PATT
	 POIN2	seahorse_3_010
// 051   ----------------------------------------
	BYTE	PATT
	 POIN2	seahorse_3_011
// 052   ----------------------------------------
	BYTE	W96
// 053   ----------------------------------------
	BYTE	W96
// 054   ----------------------------------------
	BYTE	W96
// 055   ----------------------------------------
	BYTE	W96
// 056   ----------------------------------------
	BYTE	W96
// 057   ----------------------------------------
	BYTE	W96
// 058   ----------------------------------------
	BYTE	W96
// 059   ----------------------------------------
	BYTE	W96
// 060   ----------------------------------------
	BYTE	PATT
	 POIN2	seahorse_3_028
// 061   ----------------------------------------
	BYTE	PATT
	 POIN2	seahorse_3_029
// 062   ----------------------------------------
	BYTE	PATT
	 POIN2	seahorse_3_030
// 063   ----------------------------------------
	BYTE	PATT
	 POIN2	seahorse_3_031
// 064   ----------------------------------------
	BYTE	PATT
	 POIN2	seahorse_3_032
// 065   ----------------------------------------
	BYTE	PATT
	 POIN2	seahorse_3_001
// 066   ----------------------------------------
	BYTE	PATT
	 POIN2	seahorse_3_002
// 067   ----------------------------------------
	BYTE	PATT
	 POIN2	seahorse_3_003
// 068   ----------------------------------------
	BYTE		VOL     108*seahorse_mvl/mxv
	BYTE		N12     Cs1   v104
	BYTE		N12     Gs1   v064
	BYTE		N12     Cs2 
	BYTE	W07
	BYTE		VOL     107*seahorse_mvl/mxv
	BYTE	W05
	BYTE		N09     Ds1   v104
	BYTE		N09     As1   v064
	BYTE		N09     Ds2 
	BYTE	W02
	BYTE		VOL     106*seahorse_mvl/mxv
	BYTE	W07
	BYTE		        105*seahorse_mvl/mxv
	BYTE	W07
	BYTE		        104*seahorse_mvl/mxv
	BYTE	W07
	BYTE		        103*seahorse_mvl/mxv
	BYTE	W01
	BYTE		N24     Cs1   v104
	BYTE		N24     Gs1   v064
	BYTE		N24     Cs2 
	BYTE	W06
	BYTE		VOL     102*seahorse_mvl/mxv
	BYTE	W07
	BYTE		        101*seahorse_mvl/mxv
	BYTE	W07
	BYTE		        100*seahorse_mvl/mxv
	BYTE	W04
	BYTE		N09     Ds1   v104
	BYTE		N09     As1   v064
	BYTE		N09     Ds2 
	BYTE	W03
	BYTE		VOL     99*seahorse_mvl/mxv
	BYTE	W07
	BYTE		        98*seahorse_mvl/mxv
	BYTE	W08
	BYTE		        97*seahorse_mvl/mxv
	BYTE	W06
	BYTE		N21     An0   v104
	BYTE		N21     En1   v064
	BYTE		N21     An1 
	BYTE	W01
	BYTE		VOL     96*seahorse_mvl/mxv
	BYTE	W07
	BYTE		        95*seahorse_mvl/mxv
	BYTE	W04
// 069   ----------------------------------------
	BYTE	W03
	BYTE		        94*seahorse_mvl/mxv
	BYTE	W07
	BYTE		        93*seahorse_mvl/mxv
	BYTE	W02
	BYTE		N09     An0   v104
	BYTE		N09     En1   v064
	BYTE		N09     An1 
	BYTE	W05
	BYTE		VOL     92*seahorse_mvl/mxv
	BYTE	W07
	BYTE		        91*seahorse_mvl/mxv
	BYTE		N21     An0   v104
	BYTE		N21     En1   v064
	BYTE		N21     An1 
	BYTE	W07
	BYTE		VOL     90*seahorse_mvl/mxv
	BYTE	W07
	BYTE		        89*seahorse_mvl/mxv
	BYTE	W07
	BYTE		        88*seahorse_mvl/mxv
	BYTE	W03
	BYTE		N09     An0   v104
	BYTE		N09     En1   v064
	BYTE		N09     An1 
	BYTE	W05
	BYTE		VOL     87*seahorse_mvl/mxv
	BYTE	W07
	BYTE		        86*seahorse_mvl/mxv
	BYTE		N32     Gs0   v104
	BYTE		N32     Ds1   v064
	BYTE		N32     Gs1 
	BYTE	W07
	BYTE		VOL     85*seahorse_mvl/mxv
	BYTE	W07
	BYTE		        84*seahorse_mvl/mxv
	BYTE	W07
	BYTE		        83*seahorse_mvl/mxv
	BYTE	W07
	BYTE		        82*seahorse_mvl/mxv
	BYTE	W07
	BYTE		        81*seahorse_mvl/mxv
	BYTE	W01
// 070   ----------------------------------------
	BYTE		N12     Cs1   v104
	BYTE		N12     Gs1   v064
	BYTE		N12     Cs2 
	BYTE	W06
	BYTE		VOL     80*seahorse_mvl/mxv
	BYTE	W06
	BYTE		N09     Ds1   v104
	BYTE		N09     As1   v064
	BYTE		N09     Ds2 
	BYTE	W01
	BYTE		VOL     79*seahorse_mvl/mxv
	BYTE	W07
	BYTE		        78*seahorse_mvl/mxv
	BYTE	W07
	BYTE		        77*seahorse_mvl/mxv
	BYTE	W08
	BYTE		        76*seahorse_mvl/mxv
	BYTE	W01
	BYTE		N24     Cs1   v104
	BYTE		N24     Gs1   v064
	BYTE		N24     Cs2 
	BYTE	W06
	BYTE		VOL     75*seahorse_mvl/mxv
	BYTE	W07
	BYTE		        74*seahorse_mvl/mxv
	BYTE	W07
	BYTE		        73*seahorse_mvl/mxv
	BYTE	W04
	BYTE		N09     Ds1   v104
	BYTE		N09     As1   v064
	BYTE		N09     Ds2 
	BYTE	W03
	BYTE		VOL     72*seahorse_mvl/mxv
	BYTE	W07
	BYTE		        71*seahorse_mvl/mxv
	BYTE	W07
	BYTE		        70*seahorse_mvl/mxv
	BYTE	W07
	BYTE		        69*seahorse_mvl/mxv
	BYTE		N21     An0   v104
	BYTE		N21     En1   v064
	BYTE		N21     An1 
	BYTE	W07
	BYTE		VOL     68*seahorse_mvl/mxv
	BYTE	W05
// 071   ----------------------------------------
	BYTE	W02
	BYTE		        67*seahorse_mvl/mxv
	BYTE	W08
	BYTE		        66*seahorse_mvl/mxv
	BYTE	W02
	BYTE		N09     An0   v104
	BYTE		N09     En1   v064
	BYTE		N09     An1 
	BYTE	W05
	BYTE		VOL     65*seahorse_mvl/mxv
	BYTE	W07
	BYTE		        64*seahorse_mvl/mxv
	BYTE		N21     An0   v104
	BYTE		N21     En1   v064
	BYTE		N21     An1 
	BYTE	W07
	BYTE		VOL     63*seahorse_mvl/mxv
	BYTE	W07
	BYTE		        62*seahorse_mvl/mxv
	BYTE	W07
	BYTE		        61*seahorse_mvl/mxv
	BYTE	W03
	BYTE		N09     An0   v104
	BYTE		N09     En1   v064
	BYTE		N09     An1 
	BYTE	W04
	BYTE		VOL     60*seahorse_mvl/mxv
	BYTE	W07
	BYTE		        59*seahorse_mvl/mxv
	BYTE	W01
	BYTE		N32     Gs0   v104
	BYTE		N32     Ds1   v064
	BYTE		N32     Gs1 
	BYTE	W06
	BYTE		VOL     58*seahorse_mvl/mxv
	BYTE	W07
	BYTE		        57*seahorse_mvl/mxv
	BYTE	W08
	BYTE		        56*seahorse_mvl/mxv
	BYTE	W07
	BYTE		        55*seahorse_mvl/mxv
	BYTE	W07
	BYTE		        54*seahorse_mvl/mxv
	BYTE	W01
// 072   ----------------------------------------
	BYTE		N12     Cs1   v104
	BYTE		N12     Gs1   v064
	BYTE		N12     Cs2 
	BYTE	W06
	BYTE		VOL     53*seahorse_mvl/mxv
	BYTE	W06
	BYTE		N09     Ds1   v104
	BYTE		N09     As1   v064
	BYTE		N09     Ds2 
	BYTE	W01
	BYTE		VOL     52*seahorse_mvl/mxv
	BYTE	W07
	BYTE		        51*seahorse_mvl/mxv
	BYTE	W07
	BYTE		        50*seahorse_mvl/mxv
	BYTE	W07
	BYTE		        49*seahorse_mvl/mxv
	BYTE	W02
	BYTE		N24     Cs1   v104
	BYTE		N24     Gs1   v064
	BYTE		N24     Cs2 
	BYTE	W05
	BYTE		VOL     48*seahorse_mvl/mxv
	BYTE	W07
	BYTE		        47*seahorse_mvl/mxv
	BYTE	W07
	BYTE		        46*seahorse_mvl/mxv
	BYTE	W05
	BYTE		N09     Ds1   v104
	BYTE		N09     As1   v064
	BYTE		N09     Ds2 
	BYTE	W03
	BYTE		VOL     45*seahorse_mvl/mxv
	BYTE	W07
	BYTE		        44*seahorse_mvl/mxv
	BYTE	W07
	BYTE		        43*seahorse_mvl/mxv
	BYTE	W07
	BYTE		        42*seahorse_mvl/mxv
	BYTE		N21     An0   v104
	BYTE		N21     En1   v064
	BYTE		N21     An1 
	BYTE	W07
	BYTE		VOL     41*seahorse_mvl/mxv
	BYTE	W05
// 073   ----------------------------------------
	BYTE	W02
	BYTE		        40*seahorse_mvl/mxv
	BYTE	W07
	BYTE		        39*seahorse_mvl/mxv
	BYTE	W03
	BYTE		N09     An0   v104
	BYTE		N09     En1   v064
	BYTE		N09     An1 
	BYTE	W04
	BYTE		VOL     38*seahorse_mvl/mxv
	BYTE	W07
	BYTE		        37*seahorse_mvl/mxv
	BYTE	W01
	BYTE		N21     An0   v104
	BYTE		N21     En1   v064
	BYTE		N21     An1 
	BYTE	W06
	BYTE		VOL     36*seahorse_mvl/mxv
	BYTE	W08
	BYTE		        35*seahorse_mvl/mxv
	BYTE	W07
	BYTE		        34*seahorse_mvl/mxv
	BYTE	W03
	BYTE		N09     An0   v104
	BYTE		N09     En1   v064
	BYTE		N09     An1 
	BYTE	W04
	BYTE		VOL     33*seahorse_mvl/mxv
	BYTE	W07
	BYTE		        32*seahorse_mvl/mxv
	BYTE	W01
	BYTE		N32     Gs0   v104
	BYTE		N32     Ds1   v064
	BYTE		N32     Gs1 
	BYTE	W06
	BYTE		VOL     31*seahorse_mvl/mxv
	BYTE	W07
	BYTE		        30*seahorse_mvl/mxv
	BYTE	W07
	BYTE		        29*seahorse_mvl/mxv
	BYTE	W07
	BYTE		        28*seahorse_mvl/mxv
	BYTE	W07
	BYTE		        27*seahorse_mvl/mxv
	BYTE	W02
// 074   ----------------------------------------
	BYTE		N09     Gn0   v104
	BYTE		N09     Dn1   v064
	BYTE		N09     Gn1 
	BYTE	W05
	BYTE		VOL     26*seahorse_mvl/mxv
	BYTE	W07
	BYTE		N09     Gn0   v104
	BYTE		N09     Dn1   v064
	BYTE		N09     Gn1 
	BYTE	W01
	BYTE		VOL     25*seahorse_mvl/mxv
	BYTE	W07
	BYTE		        24*seahorse_mvl/mxv
	BYTE	W04
	BYTE		N21     Gn0   v104
	BYTE		N21     Dn1   v064
	BYTE		N21     Gn1 
	BYTE	W03
	BYTE		VOL     23*seahorse_mvl/mxv
	BYTE	W07
	BYTE		        22*seahorse_mvl/mxv
	BYTE	W07
	BYTE		        21*seahorse_mvl/mxv
	BYTE	W07
	BYTE		        20*seahorse_mvl/mxv
	BYTE		N09     Gn0   v104
	BYTE		N09     Dn1   v064
	BYTE		N09     Gn1 
	BYTE	W07
	BYTE		VOL     19*seahorse_mvl/mxv
	BYTE	W05
	BYTE		N21     Gn0   v104
	BYTE		N21     Dn1   v064
	BYTE		N21     Gn1 
	BYTE	W02
	BYTE		VOL     18*seahorse_mvl/mxv
	BYTE	W07
	BYTE		        17*seahorse_mvl/mxv
	BYTE	W07
	BYTE		        16*seahorse_mvl/mxv
	BYTE	W07
	BYTE		        15*seahorse_mvl/mxv
	BYTE	W01
	BYTE		N21     Gs0   v104
	BYTE		N21     Ds1   v064
	BYTE		N21     Gs1 
	BYTE	W07
	BYTE		VOL     14*seahorse_mvl/mxv
	BYTE	W05
// 075   ----------------------------------------
	BYTE	W02
	BYTE		        13*seahorse_mvl/mxv
	BYTE	W07
	BYTE		        12*seahorse_mvl/mxv
	BYTE	W03
	BYTE		N09     Gs0   v104
	BYTE		N09     Ds1   v064
	BYTE		N09     Gs1 
	BYTE	W04
	BYTE		VOL     11*seahorse_mvl/mxv
	BYTE	W07
	BYTE		        10*seahorse_mvl/mxv
	BYTE	W01
	BYTE		N21     Gs0   v104
	BYTE		N21     Ds1   v064
	BYTE		N21     Gs1 
	BYTE	W06
	BYTE		VOL     9*seahorse_mvl/mxv
	BYTE	W07
	BYTE		        8*seahorse_mvl/mxv
	BYTE	W07
	BYTE		        7*seahorse_mvl/mxv
	BYTE	W04
	BYTE		N13     Gs0   v104
	BYTE		N13     Ds1   v064
	BYTE		N13     Gs1 
	BYTE	W03
	BYTE		VOL     6*seahorse_mvl/mxv
	BYTE	W07
	BYTE		        5*seahorse_mvl/mxv
	BYTE	W06
	BYTE		N13     An0   v104
	BYTE		N13     En1   v064
	BYTE		N13     An1 
	BYTE	W02
	BYTE		VOL     4*seahorse_mvl/mxv
	BYTE	W07
	BYTE		        3*seahorse_mvl/mxv
	BYTE	W07
	BYTE		        2*seahorse_mvl/mxv
	BYTE		N13     As0   v104
	BYTE		N13     Fn1   v064
	BYTE		N13     As1 
	BYTE	W07
	BYTE		VOL     1*seahorse_mvl/mxv
	BYTE	W09
// 076   ----------------------------------------
	BYTE	FINE

//**************** Track 4 (Midi-Chn.4) ****************//

seahorse_4:
	BYTE	KEYSH   seahorse_key+0
// 000   ----------------------------------------
	BYTE		VOICE   29
	BYTE		VOL     64*seahorse_mvl/mxv
	BYTE		PAN     c_v+19
	BYTE	W12
	BYTE		N12     Cs1   v104
	BYTE		N12     Gs1   v064
	BYTE		N12     Cs2 
	BYTE	W12
	BYTE		N09     Ds1   v104
	BYTE		N09     As1   v064
	BYTE		N09     Ds2 
	BYTE	W24
	BYTE		N24     Cs1   v104
	BYTE		N24     Gs1   v064
	BYTE		N24     Cs2 
	BYTE	W24
	BYTE		N09     Ds1   v104
	BYTE		N09     As1   v064
	BYTE		N09     Ds2 
	BYTE	W24
// 001   ----------------------------------------
seahorse_4_001:
	BYTE		N21     An0   v104
	BYTE		N21     En1   v064
	BYTE		N21     An1 
	BYTE	W24
	BYTE		N09     An0   v104
	BYTE		N09     En1   v064
	BYTE		N09     An1 
	BYTE	W12
	BYTE		N21     An0   v104
	BYTE		N21     En1   v064
	BYTE		N21     An1 
	BYTE	W24
	BYTE		N09     An0   v104
	BYTE		N09     En1   v064
	BYTE		N09     An1 
	BYTE	W12
	BYTE		N32     Cn1   v104
	BYTE		N32     Gn1   v064
	BYTE		N32     Cn2 
	BYTE	W24
	BYTE	PEND
// 002   ----------------------------------------
seahorse_4_002:
	BYTE	W12
	BYTE		N12     Cs1   v104
	BYTE		N12     Gs1   v064
	BYTE		N12     Cs2 
	BYTE	W12
	BYTE		N09     Ds1   v104
	BYTE		N09     As1   v064
	BYTE		N09     Ds2 
	BYTE	W24
	BYTE		N24     Cs1   v104
	BYTE		N24     Gs1   v064
	BYTE		N24     Cs2 
	BYTE	W24
	BYTE		N09     Ds1   v104
	BYTE		N09     As1   v064
	BYTE		N09     Ds2 
	BYTE	W24
	BYTE	PEND
// 003   ----------------------------------------
seahorse_4_003:
	BYTE		N21     An0   v104
	BYTE		N21     En1   v064
	BYTE		N21     An1 
	BYTE	W24
	BYTE		N09     An0   v104
	BYTE		N09     En1   v064
	BYTE		N09     An1 
	BYTE	W12
	BYTE		N21     An0   v104
	BYTE		N21     En1   v064
	BYTE		N21     An1 
	BYTE	W24
	BYTE		N09     An0   v104
	BYTE		N09     En1   v064
	BYTE		N09     An1 
	BYTE	W12
	BYTE		N32     Gs0   v104
	BYTE		N32     Ds1   v064
	BYTE		N32     Gs1 
	BYTE	W24
	BYTE	PEND
// 004   ----------------------------------------
	BYTE	PATT
	 POIN2	seahorse_4_002
// 005   ----------------------------------------
	BYTE	PATT
	 POIN2	seahorse_4_003
// 006   ----------------------------------------
	BYTE	PATT
	 POIN2	seahorse_4_002
// 007   ----------------------------------------
	BYTE	PATT
	 POIN2	seahorse_4_003
// 008   ----------------------------------------
	BYTE	PATT
	 POIN2	seahorse_4_002
// 009   ----------------------------------------
	BYTE	PATT
	 POIN2	seahorse_4_003
// 010   ----------------------------------------
seahorse_4_010:
	BYTE	W12
	BYTE		N09     Gn0   v104
	BYTE		N09     Dn1   v064
	BYTE		N09     Gn1 
	BYTE	W12
	BYTE		        Gn0   v104
	BYTE		N09     Dn1   v064
	BYTE		N09     Gn1 
	BYTE	W12
	BYTE		N21     Gn0   v104
	BYTE		N21     Dn1   v064
	BYTE		N21     Gn1 
	BYTE	W24
	BYTE		N09     Gn0   v104
	BYTE		N09     Dn1   v064
	BYTE		N09     Gn1 
	BYTE	W12
	BYTE		N21     Gn0   v104
	BYTE		N21     Dn1   v064
	BYTE		N21     Gn1 
	BYTE	W24
	BYTE	PEND
// 011   ----------------------------------------
seahorse_4_011:
	BYTE		N21     Gs0   v104
	BYTE		N21     Ds1   v064
	BYTE		N21     Gs1 
	BYTE	W24
	BYTE		N09     Gs0   v104
	BYTE		N09     Ds1   v064
	BYTE		N09     Gs1 
	BYTE	W12
	BYTE		N21     Gs0   v104
	BYTE		N21     Ds1   v064
	BYTE		N21     Gs1 
	BYTE	W24
	BYTE		N13     Gs0   v104
	BYTE		N13     Ds1   v064
	BYTE		N13     Gs1 
	BYTE	W16
	BYTE		        An0   v104
	BYTE		N13     En1   v064
	BYTE		N13     An1 
	BYTE	W16
	BYTE		        As0   v104
	BYTE		N13     Fn1   v064
	BYTE		N13     As1 
	BYTE	W04
	BYTE	PEND
// 012   ----------------------------------------
	BYTE	PATT
	 POIN2	seahorse_4_002
// 013   ----------------------------------------
	BYTE	PATT
	 POIN2	seahorse_4_003
// 014   ----------------------------------------
	BYTE	PATT
	 POIN2	seahorse_4_002
// 015   ----------------------------------------
	BYTE	PATT
	 POIN2	seahorse_4_003
// 016   ----------------------------------------
	BYTE	PATT
	 POIN2	seahorse_4_002
// 017   ----------------------------------------
	BYTE	PATT
	 POIN2	seahorse_4_003
// 018   ----------------------------------------
	BYTE	PATT
	 POIN2	seahorse_4_010
// 019   ----------------------------------------
	BYTE	PATT
	 POIN2	seahorse_4_011
// 020   ----------------------------------------
	BYTE	W96
// 021   ----------------------------------------
	BYTE	W96
// 022   ----------------------------------------
	BYTE	W96
// 023   ----------------------------------------
	BYTE	W96
// 024   ----------------------------------------
	BYTE	W96
// 025   ----------------------------------------
	BYTE	W96
// 026   ----------------------------------------
	BYTE	W96
// 027   ----------------------------------------
	BYTE	W96
// 028   ----------------------------------------
seahorse_4_028:
	BYTE	W12
	BYTE		N09     Gs0   v104
	BYTE		N09     Cs1   v064
	BYTE		N09     Gs1 
	BYTE	W12
	BYTE		        Gs0   v104
	BYTE		N09     Cs1   v064
	BYTE		N09     Gs1 
	BYTE	W12
	BYTE		N21     Gs0   v104
	BYTE		N21     Cs1   v064
	BYTE		N21     Gs1 
	BYTE	W24
	BYTE		N09     Gs0   v104
	BYTE		N09     Cs1   v064
	BYTE		N09     Gs1 
	BYTE	W12
	BYTE		N21     Gs0   v104
	BYTE		N21     Cs1   v064
	BYTE		N21     Gs1 
	BYTE	W24
	BYTE	PEND
// 029   ----------------------------------------
seahorse_4_029:
	BYTE		N21     Gs0   v104
	BYTE		N21     Cs1   v064
	BYTE		N21     Gs1 
	BYTE	W24
	BYTE		N09     Gs0   v104
	BYTE		N09     Cs1   v064
	BYTE		N09     Gs1 
	BYTE	W12
	BYTE		N21     Gs0   v104
	BYTE		N21     Cs1   v064
	BYTE		N21     Gs1 
	BYTE	W24
	BYTE		N13     Gs0   v104
	BYTE		N13     Cs1   v064
	BYTE		N13     Gs1 
	BYTE	W16
	BYTE		        Gs0   v104
	BYTE		N13     Cs1   v064
	BYTE		N13     Gs1 
	BYTE	W16
	BYTE		        Gs0   v104
	BYTE		N13     Cs1   v064
	BYTE		N13     Gs1 
	BYTE	W04
	BYTE	PEND
// 030   ----------------------------------------
	BYTE	PATT
	 POIN2	seahorse_4_028
// 031   ----------------------------------------
seahorse_4_031:
	BYTE		N09     Gs0   v104
	BYTE		N09     Cs1   v064
	BYTE		N09     Gs1 
	BYTE	W24
	BYTE		N10     En2   v104
	BYTE		N10     Bn2   v064
	BYTE		N10     En3 
	BYTE	W12
	BYTE		        Ds2   v104
	BYTE		N10     As2 
	BYTE		N10     Ds3   v064
	BYTE	W12
	BYTE		        Cs2   v104
	BYTE		N10     Gs2   v064
	BYTE		N10     Cs3 
	BYTE	W12
	BYTE		        Gs1   v104
	BYTE		N10     Ds2   v064
	BYTE		N10     Gs2 
	BYTE	W12
	BYTE		N22     Fs1   v104
	BYTE		N22     Cs2   v064
	BYTE		N22     Fs2 
	BYTE	W24
	BYTE	PEND
// 032   ----------------------------------------
seahorse_4_032:
	BYTE		VOL     64*seahorse_mvl/mxv
	BYTE		PAN     c_v+19
	BYTE		N10     En1   v104
	BYTE		N10     Bn1   v064
	BYTE		N10     En2 
	BYTE	W12
	BYTE		N12     Cs1   v104
	BYTE		N12     Gs1   v064
	BYTE		N12     Cs2 
	BYTE	W12
	BYTE		N09     Ds1   v104
	BYTE		N09     As1   v064
	BYTE		N09     Ds2 
	BYTE	W24
	BYTE		N24     Cs1   v104
	BYTE		N24     Gs1   v064
	BYTE		N24     Cs2 
	BYTE	W24
	BYTE		N09     Ds1   v104
	BYTE		N09     As1   v064
	BYTE		N09     Ds2 
	BYTE	W24
	BYTE	PEND
// 033   ----------------------------------------
	BYTE	PATT
	 POIN2	seahorse_4_001
// 034   ----------------------------------------
	BYTE	PATT
	 POIN2	seahorse_4_002
// 035   ----------------------------------------
	BYTE	PATT
	 POIN2	seahorse_4_003
// 036   ----------------------------------------
	BYTE	PATT
	 POIN2	seahorse_4_002
// 037   ----------------------------------------
	BYTE	PATT
	 POIN2	seahorse_4_003
// 038   ----------------------------------------
	BYTE	PATT
	 POIN2	seahorse_4_002
// 039   ----------------------------------------
	BYTE	PATT
	 POIN2	seahorse_4_003
// 040   ----------------------------------------
	BYTE	PATT
	 POIN2	seahorse_4_002
// 041   ----------------------------------------
	BYTE	PATT
	 POIN2	seahorse_4_003
// 042   ----------------------------------------
	BYTE	PATT
	 POIN2	seahorse_4_010
// 043   ----------------------------------------
	BYTE	PATT
	 POIN2	seahorse_4_011
// 044   ----------------------------------------
	BYTE	PATT
	 POIN2	seahorse_4_002
// 045   ----------------------------------------
	BYTE	PATT
	 POIN2	seahorse_4_003
// 046   ----------------------------------------
	BYTE	PATT
	 POIN2	seahorse_4_002
// 047   ----------------------------------------
	BYTE	PATT
	 POIN2	seahorse_4_003
// 048   ----------------------------------------
	BYTE	PATT
	 POIN2	seahorse_4_002
// 049   ----------------------------------------
	BYTE	PATT
	 POIN2	seahorse_4_003
// 050   ----------------------------------------
	BYTE	PATT
	 POIN2	seahorse_4_010
// 051   ----------------------------------------
	BYTE	PATT
	 POIN2	seahorse_4_011
// 052   ----------------------------------------
	BYTE	W96
// 053   ----------------------------------------
	BYTE	W96
// 054   ----------------------------------------
	BYTE	W96
// 055   ----------------------------------------
	BYTE	W96
// 056   ----------------------------------------
	BYTE	W96
// 057   ----------------------------------------
	BYTE	W96
// 058   ----------------------------------------
	BYTE	W96
// 059   ----------------------------------------
	BYTE	W96
// 060   ----------------------------------------
	BYTE	PATT
	 POIN2	seahorse_4_028
// 061   ----------------------------------------
	BYTE	PATT
	 POIN2	seahorse_4_029
// 062   ----------------------------------------
	BYTE	PATT
	 POIN2	seahorse_4_028
// 063   ----------------------------------------
	BYTE	PATT
	 POIN2	seahorse_4_031
// 064   ----------------------------------------
	BYTE	PATT
	 POIN2	seahorse_4_032
// 065   ----------------------------------------
	BYTE	PATT
	 POIN2	seahorse_4_001
// 066   ----------------------------------------
	BYTE	PATT
	 POIN2	seahorse_4_002
// 067   ----------------------------------------
	BYTE	PATT
	 POIN2	seahorse_4_003
// 068   ----------------------------------------
	BYTE		VOL     63*seahorse_mvl/mxv
	BYTE	W12
	BYTE		        62*seahorse_mvl/mxv
	BYTE		N12     Cs1   v104
	BYTE		N12     Gs1   v064
	BYTE		N12     Cs2 
	BYTE	W12
	BYTE		VOL     61*seahorse_mvl/mxv
	BYTE		N09     Ds1   v104
	BYTE		N09     As1   v064
	BYTE		N09     Ds2 
	BYTE	W12
	BYTE		VOL     60*seahorse_mvl/mxv
	BYTE	W12
	BYTE		        59*seahorse_mvl/mxv
	BYTE		N24     Cs1   v104
	BYTE		N24     Gs1   v064
	BYTE		N24     Cs2 
	BYTE	W13
	BYTE		VOL     58*seahorse_mvl/mxv
	BYTE	W11
	BYTE		N09     Ds1   v104
	BYTE		N09     As1   v064
	BYTE		N09     Ds2 
	BYTE	W01
	BYTE		VOL     57*seahorse_mvl/mxv
	BYTE	W12
	BYTE		        56*seahorse_mvl/mxv
	BYTE	W11
// 069   ----------------------------------------
	BYTE		N21     An0   v104
	BYTE		N21     En1   v064
	BYTE		N21     An1 
	BYTE	W01
	BYTE		VOL     55*seahorse_mvl/mxv
	BYTE	W12
	BYTE		        54*seahorse_mvl/mxv
	BYTE	W11
	BYTE		N09     An0   v104
	BYTE		N09     En1   v064
	BYTE		N09     An1 
	BYTE	W02
	BYTE		VOL     53*seahorse_mvl/mxv
	BYTE	W10
	BYTE		N21     An0   v104
	BYTE		N21     En1   v064
	BYTE		N21     An1 
	BYTE	W02
	BYTE		VOL     52*seahorse_mvl/mxv
	BYTE	W12
	BYTE		        51*seahorse_mvl/mxv
	BYTE	W10
	BYTE		N09     An0   v104
	BYTE		N09     En1   v064
	BYTE		N09     An1 
	BYTE	W02
	BYTE		VOL     50*seahorse_mvl/mxv
	BYTE	W10
	BYTE		N32     Gs0   v104
	BYTE		N32     Ds1   v064
	BYTE		N32     Gs1 
	BYTE	W02
	BYTE		VOL     49*seahorse_mvl/mxv
	BYTE	W13
	BYTE		        48*seahorse_mvl/mxv
	BYTE	W09
// 070   ----------------------------------------
	BYTE	W03
	BYTE		        47*seahorse_mvl/mxv
	BYTE	W09
	BYTE		N12     Cs1   v104
	BYTE		N12     Gs1   v064
	BYTE		N12     Cs2 
	BYTE	W03
	BYTE		VOL     46*seahorse_mvl/mxv
	BYTE	W09
	BYTE		N09     Ds1   v104
	BYTE		N09     As1   v064
	BYTE		N09     Ds2 
	BYTE	W03
	BYTE		VOL     45*seahorse_mvl/mxv
	BYTE	W12
	BYTE		        44*seahorse_mvl/mxv
	BYTE	W09
	BYTE		N24     Cs1   v104
	BYTE		N24     Gs1   v064
	BYTE		N24     Cs2 
	BYTE	W04
	BYTE		VOL     43*seahorse_mvl/mxv
	BYTE	W12
	BYTE		        42*seahorse_mvl/mxv
	BYTE	W08
	BYTE		N09     Ds1   v104
	BYTE		N09     As1   v064
	BYTE		N09     Ds2 
	BYTE	W04
	BYTE		VOL     41*seahorse_mvl/mxv
	BYTE	W12
	BYTE		        40*seahorse_mvl/mxv
	BYTE	W08
// 071   ----------------------------------------
	BYTE		N21     An0   v104
	BYTE		N21     En1   v064
	BYTE		N21     An1 
	BYTE	W04
	BYTE		VOL     39*seahorse_mvl/mxv
	BYTE	W13
	BYTE		        38*seahorse_mvl/mxv
	BYTE	W07
	BYTE		N09     An0   v104
	BYTE		N09     En1   v064
	BYTE		N09     An1 
	BYTE	W05
	BYTE		VOL     37*seahorse_mvl/mxv
	BYTE	W07
	BYTE		N21     An0   v104
	BYTE		N21     En1   v064
	BYTE		N21     An1 
	BYTE	W05
	BYTE		VOL     36*seahorse_mvl/mxv
	BYTE	W12
	BYTE		        35*seahorse_mvl/mxv
	BYTE	W07
	BYTE		N09     An0   v104
	BYTE		N09     En1   v064
	BYTE		N09     An1 
	BYTE	W05
	BYTE		VOL     34*seahorse_mvl/mxv
	BYTE	W07
	BYTE		N32     Gs0   v104
	BYTE		N32     Ds1   v064
	BYTE		N32     Gs1 
	BYTE	W06
	BYTE		VOL     33*seahorse_mvl/mxv
	BYTE	W12
	BYTE		        32*seahorse_mvl/mxv
	BYTE	W06
// 072   ----------------------------------------
	BYTE	W06
	BYTE		        31*seahorse_mvl/mxv
	BYTE	W06
	BYTE		N12     Cs1   v104
	BYTE		N12     Gs1   v064
	BYTE		N12     Cs2 
	BYTE	W06
	BYTE		VOL     30*seahorse_mvl/mxv
	BYTE	W06
	BYTE		N09     Ds1   v104
	BYTE		N09     As1   v064
	BYTE		N09     Ds2 
	BYTE	W06
	BYTE		VOL     29*seahorse_mvl/mxv
	BYTE	W13
	BYTE		        28*seahorse_mvl/mxv
	BYTE	W05
	BYTE		N24     Cs1   v104
	BYTE		N24     Gs1   v064
	BYTE		N24     Cs2 
	BYTE	W07
	BYTE		VOL     27*seahorse_mvl/mxv
	BYTE	W12
	BYTE		        26*seahorse_mvl/mxv
	BYTE	W05
	BYTE		N09     Ds1   v104
	BYTE		N09     As1   v064
	BYTE		N09     Ds2 
	BYTE	W07
	BYTE		VOL     25*seahorse_mvl/mxv
	BYTE	W12
	BYTE		        24*seahorse_mvl/mxv
	BYTE	W05
// 073   ----------------------------------------
	BYTE		N21     An0   v104
	BYTE		N21     En1   v064
	BYTE		N21     An1 
	BYTE	W08
	BYTE		VOL     23*seahorse_mvl/mxv
	BYTE	W12
	BYTE		        22*seahorse_mvl/mxv
	BYTE	W04
	BYTE		N09     An0   v104
	BYTE		N09     En1   v064
	BYTE		N09     An1 
	BYTE	W08
	BYTE		VOL     21*seahorse_mvl/mxv
	BYTE	W04
	BYTE		N21     An0   v104
	BYTE		N21     En1   v064
	BYTE		N21     An1 
	BYTE	W08
	BYTE		VOL     20*seahorse_mvl/mxv
	BYTE	W12
	BYTE		        19*seahorse_mvl/mxv
	BYTE	W04
	BYTE		N09     An0   v104
	BYTE		N09     En1   v064
	BYTE		N09     An1 
	BYTE	W09
	BYTE		VOL     18*seahorse_mvl/mxv
	BYTE	W03
	BYTE		N32     Gs0   v104
	BYTE		N32     Ds1   v064
	BYTE		N32     Gs1 
	BYTE	W09
	BYTE		VOL     17*seahorse_mvl/mxv
	BYTE	W12
	BYTE		        16*seahorse_mvl/mxv
	BYTE	W03
// 074   ----------------------------------------
	BYTE	W09
	BYTE		        15*seahorse_mvl/mxv
	BYTE	W03
	BYTE		N09     Gn0   v104
	BYTE		N09     Dn1   v064
	BYTE		N09     Gn1 
	BYTE	W09
	BYTE		VOL     14*seahorse_mvl/mxv
	BYTE	W03
	BYTE		N09     Gn0   v104
	BYTE		N09     Dn1   v064
	BYTE		N09     Gn1 
	BYTE	W10
	BYTE		VOL     13*seahorse_mvl/mxv
	BYTE	W02
	BYTE		N21     Gn0   v104
	BYTE		N21     Dn1   v064
	BYTE		N21     Gn1 
	BYTE	W10
	BYTE		VOL     12*seahorse_mvl/mxv
	BYTE	W12
	BYTE		        11*seahorse_mvl/mxv
	BYTE	W02
	BYTE		N09     Gn0   v104
	BYTE		N09     Dn1   v064
	BYTE		N09     Gn1 
	BYTE	W10
	BYTE		VOL     10*seahorse_mvl/mxv
	BYTE	W02
	BYTE		N21     Gn0   v104
	BYTE		N21     Dn1   v064
	BYTE		N21     Gn1 
	BYTE	W10
	BYTE		VOL     9*seahorse_mvl/mxv
	BYTE	W13
	BYTE		        8*seahorse_mvl/mxv
	BYTE	W01
// 075   ----------------------------------------
	BYTE		N21     Gs0   v104
	BYTE		N21     Ds1   v064
	BYTE		N21     Gs1 
	BYTE	W11
	BYTE		VOL     7*seahorse_mvl/mxv
	BYTE	W12
	BYTE		        6*seahorse_mvl/mxv
	BYTE	W01
	BYTE		N09     Gs0   v104
	BYTE		N09     Ds1   v064
	BYTE		N09     Gs1 
	BYTE	W11
	BYTE		VOL     5*seahorse_mvl/mxv
	BYTE	W01
	BYTE		N21     Gs0   v104
	BYTE		N21     Ds1   v064
	BYTE		N21     Gs1 
	BYTE	W11
	BYTE		VOL     4*seahorse_mvl/mxv
	BYTE	W13
	BYTE		        3*seahorse_mvl/mxv
	BYTE		N13     Gs0   v104
	BYTE		N13     Ds1   v064
	BYTE		N13     Gs1 
	BYTE	W12
	BYTE		VOL     2*seahorse_mvl/mxv
	BYTE	W04
	BYTE		N13     An0   v104
	BYTE		N13     En1   v064
	BYTE		N13     An1 
	BYTE	W08
	BYTE		VOL     1*seahorse_mvl/mxv
	BYTE	W12
// 076   ----------------------------------------
	BYTE	FINE

//**************** Track 5 (Midi-Chn.5) ****************//

seahorse_5:
	BYTE	KEYSH   seahorse_key+0
// 000   ----------------------------------------
	BYTE		VOICE   30
	BYTE		VOL     122*seahorse_mvl/mxv
	BYTE		PAN     c_v+24
	BYTE		N12     Cs3   v104
	BYTE	W12
	BYTE		N09     Ds3 
	BYTE	W24
	BYTE		N24     Cs3 
	BYTE	W24
	BYTE		N09     Ds3 
	BYTE	W24
	BYTE		N21     An2 
	BYTE	W12
// 001   ----------------------------------------
seahorse_5_001:
	BYTE	W12
	BYTE		N09     An2   v104
	BYTE	W12
	BYTE		N21   
	BYTE	W24
	BYTE		N09   
	BYTE	W12
	BYTE		N32     Cn3 
	BYTE	W36
	BYTE	PEND
// 002   ----------------------------------------
seahorse_5_002:
	BYTE		N12     Cs3   v104
	BYTE	W12
	BYTE		N09     Ds3 
	BYTE	W24
	BYTE		N24     Cs3 
	BYTE	W24
	BYTE		N09     Ds3 
	BYTE	W24
	BYTE		N21     An2 
	BYTE	W12
	BYTE	PEND
// 003   ----------------------------------------
seahorse_5_003:
	BYTE	W12
	BYTE		N09     An2   v104
	BYTE	W12
	BYTE		N21   
	BYTE	W24
	BYTE		N09   
	BYTE	W12
	BYTE		N32     Gs2 
	BYTE	W36
	BYTE	PEND
// 004   ----------------------------------------
	BYTE	PATT
	 POIN2	seahorse_5_002
// 005   ----------------------------------------
	BYTE	PATT
	 POIN2	seahorse_5_003
// 006   ----------------------------------------
	BYTE	PATT
	 POIN2	seahorse_5_002
// 007   ----------------------------------------
	BYTE	PATT
	 POIN2	seahorse_5_003
// 008   ----------------------------------------
	BYTE	PATT
	 POIN2	seahorse_5_002
// 009   ----------------------------------------
	BYTE	PATT
	 POIN2	seahorse_5_003
// 010   ----------------------------------------
seahorse_5_010:
	BYTE		N09     Gn2   v104
	BYTE	W12
	BYTE		N09   
	BYTE	W12
	BYTE		N21   
	BYTE	W24
	BYTE		N09   
	BYTE	W12
	BYTE		N21   
	BYTE	W24
	BYTE		        Gs2 
	BYTE	W12
	BYTE	PEND
// 011   ----------------------------------------
seahorse_5_011:
	BYTE	W12
	BYTE		N09     Gs2   v104
	BYTE	W12
	BYTE		N21   
	BYTE	W24
	BYTE		N13   
	BYTE	W16
	BYTE		        An2 
	BYTE	W16
	BYTE		        As2 
	BYTE	W16
	BYTE	PEND
// 012   ----------------------------------------
	BYTE	PATT
	 POIN2	seahorse_5_002
// 013   ----------------------------------------
	BYTE	PATT
	 POIN2	seahorse_5_003
// 014   ----------------------------------------
	BYTE	PATT
	 POIN2	seahorse_5_002
// 015   ----------------------------------------
	BYTE	PATT
	 POIN2	seahorse_5_003
// 016   ----------------------------------------
	BYTE	PATT
	 POIN2	seahorse_5_002
// 017   ----------------------------------------
	BYTE	PATT
	 POIN2	seahorse_5_003
// 018   ----------------------------------------
	BYTE	PATT
	 POIN2	seahorse_5_010
// 019   ----------------------------------------
	BYTE	PATT
	 POIN2	seahorse_5_011
// 020   ----------------------------------------
seahorse_5_020:
	BYTE		N09     Cs3   v104
	BYTE	W12
	BYTE		N09   
	BYTE	W12
	BYTE		N21   
	BYTE	W24
	BYTE		N09   
	BYTE	W12
	BYTE		N21   
	BYTE	W24
	BYTE		        An2 
	BYTE	W12
	BYTE	PEND
// 021   ----------------------------------------
seahorse_5_021:
	BYTE	W12
	BYTE		N09     An2   v104
	BYTE	W12
	BYTE		N21   
	BYTE	W24
	BYTE		N09   
	BYTE	W12
	BYTE		N32   
	BYTE	W36
	BYTE	PEND
// 022   ----------------------------------------
seahorse_5_022:
	BYTE		N09     Ds3   v104
	BYTE	W12
	BYTE		N09   
	BYTE	W12
	BYTE		N21   
	BYTE	W24
	BYTE		N09   
	BYTE	W12
	BYTE		N21   
	BYTE	W24
	BYTE		        Cn3 
	BYTE	W12
	BYTE	PEND
// 023   ----------------------------------------
seahorse_5_023:
	BYTE	W12
	BYTE		N09     Cn3   v104
	BYTE	W12
	BYTE		N21   
	BYTE	W24
	BYTE		N09   
	BYTE	W12
	BYTE		N32   
	BYTE	W36
	BYTE	PEND
// 024   ----------------------------------------
	BYTE	PATT
	 POIN2	seahorse_5_020
// 025   ----------------------------------------
	BYTE	PATT
	 POIN2	seahorse_5_021
// 026   ----------------------------------------
	BYTE	PATT
	 POIN2	seahorse_5_022
// 027   ----------------------------------------
seahorse_5_027:
	BYTE	W12
	BYTE		N09     Cn3   v104
	BYTE	W12
	BYTE		N21   
	BYTE	W24
	BYTE		N13   
	BYTE	W16
	BYTE		        Cs3 
	BYTE	W16
	BYTE		        Ds3 
	BYTE	W16
	BYTE	PEND
// 028   ----------------------------------------
seahorse_5_028:
	BYTE		N09     Fs3   v104
	BYTE	W12
	BYTE		N09   
	BYTE	W12
	BYTE		N21   
	BYTE	W24
	BYTE		N09   
	BYTE	W12
	BYTE		N21   
	BYTE	W24
	BYTE		N21   
	BYTE	W12
	BYTE	PEND
// 029   ----------------------------------------
seahorse_5_029:
	BYTE	W12
	BYTE		N09     Fs3   v104
	BYTE	W12
	BYTE		N21   
	BYTE	W24
	BYTE		N13   
	BYTE	W16
	BYTE		N13   
	BYTE	W16
	BYTE		N13   
	BYTE	W16
	BYTE	PEND
// 030   ----------------------------------------
seahorse_5_030:
	BYTE		N09     Fn3   v104
	BYTE	W12
	BYTE		N09   
	BYTE	W12
	BYTE		N21   
	BYTE	W24
	BYTE		N09   
	BYTE	W12
	BYTE		N21   
	BYTE	W24
	BYTE		N09   
	BYTE	W12
	BYTE	PEND
// 031   ----------------------------------------
	BYTE	W96
// 032   ----------------------------------------
seahorse_5_032:
	BYTE		VOL     122*seahorse_mvl/mxv
	BYTE		PAN     c_v+24
	BYTE		N12     Cs3   v104
	BYTE	W12
	BYTE		N09     Ds3 
	BYTE	W24
	BYTE		N24     Cs3 
	BYTE	W24
	BYTE		N09     Ds3 
	BYTE	W24
	BYTE		N21     An2 
	BYTE	W12
	BYTE	PEND
// 033   ----------------------------------------
	BYTE	PATT
	 POIN2	seahorse_5_001
// 034   ----------------------------------------
	BYTE	PATT
	 POIN2	seahorse_5_002
// 035   ----------------------------------------
	BYTE	PATT
	 POIN2	seahorse_5_003
// 036   ----------------------------------------
	BYTE	PATT
	 POIN2	seahorse_5_002
// 037   ----------------------------------------
	BYTE	PATT
	 POIN2	seahorse_5_003
// 038   ----------------------------------------
	BYTE	PATT
	 POIN2	seahorse_5_002
// 039   ----------------------------------------
	BYTE	PATT
	 POIN2	seahorse_5_003
// 040   ----------------------------------------
	BYTE	PATT
	 POIN2	seahorse_5_002
// 041   ----------------------------------------
	BYTE	PATT
	 POIN2	seahorse_5_003
// 042   ----------------------------------------
	BYTE	PATT
	 POIN2	seahorse_5_010
// 043   ----------------------------------------
	BYTE	PATT
	 POIN2	seahorse_5_011
// 044   ----------------------------------------
	BYTE	PATT
	 POIN2	seahorse_5_002
// 045   ----------------------------------------
	BYTE	PATT
	 POIN2	seahorse_5_003
// 046   ----------------------------------------
	BYTE	PATT
	 POIN2	seahorse_5_002
// 047   ----------------------------------------
	BYTE	PATT
	 POIN2	seahorse_5_003
// 048   ----------------------------------------
	BYTE	PATT
	 POIN2	seahorse_5_002
// 049   ----------------------------------------
	BYTE	PATT
	 POIN2	seahorse_5_003
// 050   ----------------------------------------
	BYTE	PATT
	 POIN2	seahorse_5_010
// 051   ----------------------------------------
	BYTE	PATT
	 POIN2	seahorse_5_011
// 052   ----------------------------------------
	BYTE	PATT
	 POIN2	seahorse_5_020
// 053   ----------------------------------------
	BYTE	PATT
	 POIN2	seahorse_5_021
// 054   ----------------------------------------
	BYTE	PATT
	 POIN2	seahorse_5_022
// 055   ----------------------------------------
	BYTE	PATT
	 POIN2	seahorse_5_023
// 056   ----------------------------------------
	BYTE	PATT
	 POIN2	seahorse_5_020
// 057   ----------------------------------------
	BYTE	PATT
	 POIN2	seahorse_5_021
// 058   ----------------------------------------
	BYTE	PATT
	 POIN2	seahorse_5_022
// 059   ----------------------------------------
	BYTE	PATT
	 POIN2	seahorse_5_027
// 060   ----------------------------------------
	BYTE	PATT
	 POIN2	seahorse_5_028
// 061   ----------------------------------------
	BYTE	PATT
	 POIN2	seahorse_5_029
// 062   ----------------------------------------
	BYTE	PATT
	 POIN2	seahorse_5_030
// 063   ----------------------------------------
	BYTE	W96
// 064   ----------------------------------------
	BYTE	PATT
	 POIN2	seahorse_5_032
// 065   ----------------------------------------
	BYTE	PATT
	 POIN2	seahorse_5_001
// 066   ----------------------------------------
	BYTE	PATT
	 POIN2	seahorse_5_002
// 067   ----------------------------------------
	BYTE	PATT
	 POIN2	seahorse_5_003
// 068   ----------------------------------------
	BYTE		VOL     121*seahorse_mvl/mxv
	BYTE		N12     Cs3   v104
	BYTE	W06
	BYTE		VOL     120*seahorse_mvl/mxv
	BYTE	W06
	BYTE		        119*seahorse_mvl/mxv
	BYTE		N09     Ds3 
	BYTE	W07
	BYTE		VOL     118*seahorse_mvl/mxv
	BYTE	W06
	BYTE		        117*seahorse_mvl/mxv
	BYTE	W06
	BYTE		        116*seahorse_mvl/mxv
	BYTE	W05
	BYTE		N24     Cs3 
	BYTE	W02
	BYTE		VOL     115*seahorse_mvl/mxv
	BYTE	W06
	BYTE		        114*seahorse_mvl/mxv
	BYTE	W06
	BYTE		        113*seahorse_mvl/mxv
	BYTE	W07
	BYTE		        112*seahorse_mvl/mxv
	BYTE	W03
	BYTE		N09     Ds3 
	BYTE	W03
	BYTE		VOL     111*seahorse_mvl/mxv
	BYTE	W06
	BYTE		        110*seahorse_mvl/mxv
	BYTE	W07
	BYTE		        109*seahorse_mvl/mxv
	BYTE	W06
	BYTE		        108*seahorse_mvl/mxv
	BYTE	W02
	BYTE		N21     An2 
	BYTE	W04
	BYTE		VOL     107*seahorse_mvl/mxv
	BYTE	W07
	BYTE		        106*seahorse_mvl/mxv
	BYTE	W01
// 069   ----------------------------------------
	BYTE	W05
	BYTE		        105*seahorse_mvl/mxv
	BYTE	W06
	BYTE		        104*seahorse_mvl/mxv
	BYTE	W01
	BYTE		N09   
	BYTE	W06
	BYTE		VOL     103*seahorse_mvl/mxv
	BYTE	W06
	BYTE		        102*seahorse_mvl/mxv
	BYTE		N21   
	BYTE	W06
	BYTE		VOL     101*seahorse_mvl/mxv
	BYTE	W07
	BYTE		        100*seahorse_mvl/mxv
	BYTE	W06
	BYTE		        99*seahorse_mvl/mxv
	BYTE	W05
	BYTE		N09   
	BYTE	W01
	BYTE		VOL     98*seahorse_mvl/mxv
	BYTE	W07
	BYTE		        97*seahorse_mvl/mxv
	BYTE	W04
	BYTE		N32     Gs2 
	BYTE	W02
	BYTE		VOL     96*seahorse_mvl/mxv
	BYTE	W07
	BYTE		        95*seahorse_mvl/mxv
	BYTE	W06
	BYTE		        94*seahorse_mvl/mxv
	BYTE	W06
	BYTE		        93*seahorse_mvl/mxv
	BYTE	W07
	BYTE		        92*seahorse_mvl/mxv
	BYTE	W06
	BYTE		        91*seahorse_mvl/mxv
	BYTE	W02
// 070   ----------------------------------------
	BYTE		N12     Cs3 
	BYTE	W04
	BYTE		VOL     90*seahorse_mvl/mxv
	BYTE	W07
	BYTE		        89*seahorse_mvl/mxv
	BYTE	W01
	BYTE		N09     Ds3 
	BYTE	W05
	BYTE		VOL     88*seahorse_mvl/mxv
	BYTE	W06
	BYTE		        87*seahorse_mvl/mxv
	BYTE	W07
	BYTE		        86*seahorse_mvl/mxv
	BYTE	W06
	BYTE		        85*seahorse_mvl/mxv
	BYTE		N24     Cs3 
	BYTE	W06
	BYTE		VOL     84*seahorse_mvl/mxv
	BYTE	W07
	BYTE		        83*seahorse_mvl/mxv
	BYTE	W06
	BYTE		        82*seahorse_mvl/mxv
	BYTE	W05
	BYTE		N09     Ds3 
	BYTE	W01
	BYTE		VOL     81*seahorse_mvl/mxv
	BYTE	W07
	BYTE		        80*seahorse_mvl/mxv
	BYTE	W06
	BYTE		        79*seahorse_mvl/mxv
	BYTE	W06
	BYTE		        78*seahorse_mvl/mxv
	BYTE	W04
	BYTE		N21     An2 
	BYTE	W03
	BYTE		VOL     77*seahorse_mvl/mxv
	BYTE	W06
	BYTE		        76*seahorse_mvl/mxv
	BYTE	W03
// 071   ----------------------------------------
	BYTE	W03
	BYTE		        75*seahorse_mvl/mxv
	BYTE	W07
	BYTE		        74*seahorse_mvl/mxv
	BYTE	W02
	BYTE		N09   
	BYTE	W04
	BYTE		VOL     73*seahorse_mvl/mxv
	BYTE	W07
	BYTE		        72*seahorse_mvl/mxv
	BYTE	W01
	BYTE		N21   
	BYTE	W05
	BYTE		VOL     71*seahorse_mvl/mxv
	BYTE	W06
	BYTE		        70*seahorse_mvl/mxv
	BYTE	W07
	BYTE		        69*seahorse_mvl/mxv
	BYTE	W06
	BYTE		        68*seahorse_mvl/mxv
	BYTE		N09   
	BYTE	W06
	BYTE		VOL     67*seahorse_mvl/mxv
	BYTE	W06
	BYTE		N32     Gs2 
	BYTE	W01
	BYTE		VOL     66*seahorse_mvl/mxv
	BYTE	W06
	BYTE		        65*seahorse_mvl/mxv
	BYTE	W06
	BYTE		        64*seahorse_mvl/mxv
	BYTE	W07
	BYTE		        63*seahorse_mvl/mxv
	BYTE	W06
	BYTE		        62*seahorse_mvl/mxv
	BYTE	W06
	BYTE		        61*seahorse_mvl/mxv
	BYTE	W04
// 072   ----------------------------------------
	BYTE		N12     Cs3 
	BYTE	W03
	BYTE		VOL     60*seahorse_mvl/mxv
	BYTE	W06
	BYTE		        59*seahorse_mvl/mxv
	BYTE	W03
	BYTE		N09     Ds3 
	BYTE	W03
	BYTE		VOL     58*seahorse_mvl/mxv
	BYTE	W07
	BYTE		        57*seahorse_mvl/mxv
	BYTE	W06
	BYTE		        56*seahorse_mvl/mxv
	BYTE	W06
	BYTE		        55*seahorse_mvl/mxv
	BYTE	W02
	BYTE		N24     Cs3 
	BYTE	W05
	BYTE		VOL     54*seahorse_mvl/mxv
	BYTE	W06
	BYTE		        53*seahorse_mvl/mxv
	BYTE	W06
	BYTE		        52*seahorse_mvl/mxv
	BYTE	W07
	BYTE		        51*seahorse_mvl/mxv
	BYTE		N09     Ds3 
	BYTE	W06
	BYTE		VOL     50*seahorse_mvl/mxv
	BYTE	W07
	BYTE		        49*seahorse_mvl/mxv
	BYTE	W06
	BYTE		        48*seahorse_mvl/mxv
	BYTE	W05
	BYTE		N21     An2 
	BYTE	W01
	BYTE		VOL     47*seahorse_mvl/mxv
	BYTE	W07
	BYTE		        46*seahorse_mvl/mxv
	BYTE	W04
// 073   ----------------------------------------
	BYTE	W02
	BYTE		        45*seahorse_mvl/mxv
	BYTE	W06
	BYTE		        44*seahorse_mvl/mxv
	BYTE	W04
	BYTE		N09   
	BYTE	W03
	BYTE		VOL     43*seahorse_mvl/mxv
	BYTE	W06
	BYTE		        42*seahorse_mvl/mxv
	BYTE	W03
	BYTE		N21   
	BYTE	W03
	BYTE		VOL     41*seahorse_mvl/mxv
	BYTE	W07
	BYTE		        40*seahorse_mvl/mxv
	BYTE	W06
	BYTE		        39*seahorse_mvl/mxv
	BYTE	W06
	BYTE		        38*seahorse_mvl/mxv
	BYTE	W02
	BYTE		N09   
	BYTE	W05
	BYTE		VOL     37*seahorse_mvl/mxv
	BYTE	W06
	BYTE		        36*seahorse_mvl/mxv
	BYTE	W01
	BYTE		N32     Gs2 
	BYTE	W05
	BYTE		VOL     35*seahorse_mvl/mxv
	BYTE	W07
	BYTE		        34*seahorse_mvl/mxv
	BYTE	W06
	BYTE		        33*seahorse_mvl/mxv
	BYTE	W06
	BYTE		        32*seahorse_mvl/mxv
	BYTE	W07
	BYTE		        31*seahorse_mvl/mxv
	BYTE	W05
// 074   ----------------------------------------
	BYTE		N09     Gn2 
	BYTE	W01
	BYTE		VOL     30*seahorse_mvl/mxv
	BYTE	W06
	BYTE		        29*seahorse_mvl/mxv
	BYTE	W05
	BYTE		N09   
	BYTE	W02
	BYTE		VOL     28*seahorse_mvl/mxv
	BYTE	W06
	BYTE		        27*seahorse_mvl/mxv
	BYTE	W04
	BYTE		N21   
	BYTE	W02
	BYTE		VOL     26*seahorse_mvl/mxv
	BYTE	W07
	BYTE		        25*seahorse_mvl/mxv
	BYTE	W06
	BYTE		        24*seahorse_mvl/mxv
	BYTE	W07
	BYTE		        23*seahorse_mvl/mxv
	BYTE	W02
	BYTE		N09   
	BYTE	W04
	BYTE		VOL     22*seahorse_mvl/mxv
	BYTE	W06
	BYTE		        21*seahorse_mvl/mxv
	BYTE	W02
	BYTE		N21   
	BYTE	W05
	BYTE		VOL     20*seahorse_mvl/mxv
	BYTE	W06
	BYTE		        19*seahorse_mvl/mxv
	BYTE	W06
	BYTE		        18*seahorse_mvl/mxv
	BYTE	W07
	BYTE		        17*seahorse_mvl/mxv
	BYTE		N21     Gs2 
	BYTE	W06
	BYTE		VOL     16*seahorse_mvl/mxv
	BYTE	W06
// 075   ----------------------------------------
	BYTE		        15*seahorse_mvl/mxv
	BYTE	W07
	BYTE		        14*seahorse_mvl/mxv
	BYTE	W05
	BYTE		N09   
	BYTE	W01
	BYTE		VOL     13*seahorse_mvl/mxv
	BYTE	W06
	BYTE		        12*seahorse_mvl/mxv
	BYTE	W05
	BYTE		N21   
	BYTE	W02
	BYTE		VOL     11*seahorse_mvl/mxv
	BYTE	W06
	BYTE		        10*seahorse_mvl/mxv
	BYTE	W06
	BYTE		        9*seahorse_mvl/mxv
	BYTE	W07
	BYTE		        8*seahorse_mvl/mxv
	BYTE	W03
	BYTE		N13   
	BYTE	W03
	BYTE		VOL     7*seahorse_mvl/mxv
	BYTE	W06
	BYTE		        6*seahorse_mvl/mxv
	BYTE	W07
	BYTE		        5*seahorse_mvl/mxv
	BYTE		N13     An2 
	BYTE	W06
	BYTE		VOL     4*seahorse_mvl/mxv
	BYTE	W06
	BYTE		        3*seahorse_mvl/mxv
	BYTE	W04
	BYTE		N13     As2 
	BYTE	W03
	BYTE		VOL     2*seahorse_mvl/mxv
	BYTE	W06
	BYTE		        1*seahorse_mvl/mxv
	BYTE	W07
// 076   ----------------------------------------
	BYTE	FINE

//**************** Track 6 (Midi-Chn.6) ****************//

seahorse_6:
	BYTE	KEYSH   seahorse_key+0
// 000   ----------------------------------------
	BYTE		VOICE   30
	BYTE		VOL     70*seahorse_mvl/mxv
	BYTE		PAN     c_v-13
	BYTE	W12
	BYTE		N12     Cs3   v104
	BYTE	W12
	BYTE		N09     Ds3 
	BYTE	W24
	BYTE		N24     Cs3 
	BYTE	W24
	BYTE		N09     Ds3 
	BYTE	W24
// 001   ----------------------------------------
seahorse_6_001:
	BYTE		N21     An2   v104
	BYTE	W24
	BYTE		N09   
	BYTE	W12
	BYTE		N21   
	BYTE	W24
	BYTE		N09   
	BYTE	W12
	BYTE		N32     Cn3 
	BYTE	W24
	BYTE	PEND
// 002   ----------------------------------------
seahorse_6_002:
	BYTE	W12
	BYTE		N12     Cs3   v104
	BYTE	W12
	BYTE		N09     Ds3 
	BYTE	W24
	BYTE		N24     Cs3 
	BYTE	W24
	BYTE		N09     Ds3 
	BYTE	W24
	BYTE	PEND
// 003   ----------------------------------------
seahorse_6_003:
	BYTE		N21     An2   v104
	BYTE	W24
	BYTE		N09   
	BYTE	W12
	BYTE		N21   
	BYTE	W24
	BYTE		N09   
	BYTE	W12
	BYTE		N32     Gs2 
	BYTE	W24
	BYTE	PEND
// 004   ----------------------------------------
	BYTE	PATT
	 POIN2	seahorse_6_002
// 005   ----------------------------------------
	BYTE	PATT
	 POIN2	seahorse_6_003
// 006   ----------------------------------------
	BYTE	PATT
	 POIN2	seahorse_6_002
// 007   ----------------------------------------
	BYTE	PATT
	 POIN2	seahorse_6_003
// 008   ----------------------------------------
	BYTE	PATT
	 POIN2	seahorse_6_002
// 009   ----------------------------------------
	BYTE	PATT
	 POIN2	seahorse_6_003
// 010   ----------------------------------------
seahorse_6_010:
	BYTE	W12
	BYTE		N09     Gn2   v104
	BYTE	W12
	BYTE		N09   
	BYTE	W12
	BYTE		N21   
	BYTE	W24
	BYTE		N09   
	BYTE	W12
	BYTE		N21   
	BYTE	W24
	BYTE	PEND
// 011   ----------------------------------------
seahorse_6_011:
	BYTE		N21     Gs2   v104
	BYTE	W24
	BYTE		N09   
	BYTE	W12
	BYTE		N21   
	BYTE	W24
	BYTE		N13   
	BYTE	W16
	BYTE		        An2 
	BYTE	W16
	BYTE		        As2 
	BYTE	W04
	BYTE	PEND
// 012   ----------------------------------------
	BYTE	PATT
	 POIN2	seahorse_6_002
// 013   ----------------------------------------
	BYTE	PATT
	 POIN2	seahorse_6_003
// 014   ----------------------------------------
	BYTE	PATT
	 POIN2	seahorse_6_002
// 015   ----------------------------------------
	BYTE	PATT
	 POIN2	seahorse_6_003
// 016   ----------------------------------------
	BYTE	PATT
	 POIN2	seahorse_6_002
// 017   ----------------------------------------
	BYTE	PATT
	 POIN2	seahorse_6_003
// 018   ----------------------------------------
	BYTE	PATT
	 POIN2	seahorse_6_010
// 019   ----------------------------------------
	BYTE	PATT
	 POIN2	seahorse_6_011
// 020   ----------------------------------------
seahorse_6_020:
	BYTE	W12
	BYTE		N09     Cs3   v104
	BYTE	W12
	BYTE		N09   
	BYTE	W12
	BYTE		N21   
	BYTE	W24
	BYTE		N09   
	BYTE	W12
	BYTE		N21   
	BYTE	W24
	BYTE	PEND
// 021   ----------------------------------------
seahorse_6_021:
	BYTE		N21     An2   v104
	BYTE	W24
	BYTE		N09   
	BYTE	W12
	BYTE		N21   
	BYTE	W24
	BYTE		N09   
	BYTE	W12
	BYTE		N32   
	BYTE	W24
	BYTE	PEND
// 022   ----------------------------------------
seahorse_6_022:
	BYTE	W12
	BYTE		N09     Ds3   v104
	BYTE	W12
	BYTE		N09   
	BYTE	W12
	BYTE		N21   
	BYTE	W24
	BYTE		N09   
	BYTE	W12
	BYTE		N21   
	BYTE	W24
	BYTE	PEND
// 023   ----------------------------------------
seahorse_6_023:
	BYTE		N21     Cn3   v104
	BYTE	W24
	BYTE		N09   
	BYTE	W12
	BYTE		N21   
	BYTE	W24
	BYTE		N09   
	BYTE	W12
	BYTE		N32   
	BYTE	W24
	BYTE	PEND
// 024   ----------------------------------------
	BYTE	PATT
	 POIN2	seahorse_6_020
// 025   ----------------------------------------
	BYTE	PATT
	 POIN2	seahorse_6_021
// 026   ----------------------------------------
	BYTE	PATT
	 POIN2	seahorse_6_022
// 027   ----------------------------------------
seahorse_6_027:
	BYTE		N21     Cn3   v104
	BYTE	W24
	BYTE		N09   
	BYTE	W12
	BYTE		N21   
	BYTE	W24
	BYTE		N13   
	BYTE	W16
	BYTE		        Cs3 
	BYTE	W16
	BYTE		        Ds3 
	BYTE	W04
	BYTE	PEND
// 028   ----------------------------------------
seahorse_6_028:
	BYTE	W12
	BYTE		N09     Fs3   v104
	BYTE	W12
	BYTE		N09   
	BYTE	W12
	BYTE		N21   
	BYTE	W24
	BYTE		N09   
	BYTE	W12
	BYTE		N21   
	BYTE	W24
	BYTE	PEND
// 029   ----------------------------------------
seahorse_6_029:
	BYTE		N21     Fs3   v104
	BYTE	W24
	BYTE		N09   
	BYTE	W12
	BYTE		N21   
	BYTE	W24
	BYTE		N13   
	BYTE	W16
	BYTE		N13   
	BYTE	W16
	BYTE		N13   
	BYTE	W04
	BYTE	PEND
// 030   ----------------------------------------
seahorse_6_030:
	BYTE	W12
	BYTE		N09     Fn3   v104
	BYTE	W12
	BYTE		N09   
	BYTE	W12
	BYTE		N21   
	BYTE	W24
	BYTE		N09   
	BYTE	W12
	BYTE		N21   
	BYTE	W24
	BYTE	PEND
// 031   ----------------------------------------
	BYTE		N09   
	BYTE	W96
// 032   ----------------------------------------
seahorse_6_032:
	BYTE		VOL     70*seahorse_mvl/mxv
	BYTE		PAN     c_v-13
	BYTE	W12
	BYTE		N12     Cs3   v104
	BYTE	W12
	BYTE		N09     Ds3 
	BYTE	W24
	BYTE		N24     Cs3 
	BYTE	W24
	BYTE		N09     Ds3 
	BYTE	W24
	BYTE	PEND
// 033   ----------------------------------------
	BYTE	PATT
	 POIN2	seahorse_6_001
// 034   ----------------------------------------
	BYTE	PATT
	 POIN2	seahorse_6_002
// 035   ----------------------------------------
	BYTE	PATT
	 POIN2	seahorse_6_003
// 036   ----------------------------------------
	BYTE	PATT
	 POIN2	seahorse_6_002
// 037   ----------------------------------------
	BYTE	PATT
	 POIN2	seahorse_6_003
// 038   ----------------------------------------
	BYTE	PATT
	 POIN2	seahorse_6_002
// 039   ----------------------------------------
	BYTE	PATT
	 POIN2	seahorse_6_003
// 040   ----------------------------------------
	BYTE	PATT
	 POIN2	seahorse_6_002
// 041   ----------------------------------------
	BYTE	PATT
	 POIN2	seahorse_6_003
// 042   ----------------------------------------
	BYTE	PATT
	 POIN2	seahorse_6_010
// 043   ----------------------------------------
	BYTE	PATT
	 POIN2	seahorse_6_011
// 044   ----------------------------------------
	BYTE	PATT
	 POIN2	seahorse_6_002
// 045   ----------------------------------------
	BYTE	PATT
	 POIN2	seahorse_6_003
// 046   ----------------------------------------
	BYTE	PATT
	 POIN2	seahorse_6_002
// 047   ----------------------------------------
	BYTE	PATT
	 POIN2	seahorse_6_003
// 048   ----------------------------------------
	BYTE	PATT
	 POIN2	seahorse_6_002
// 049   ----------------------------------------
	BYTE	PATT
	 POIN2	seahorse_6_003
// 050   ----------------------------------------
	BYTE	PATT
	 POIN2	seahorse_6_010
// 051   ----------------------------------------
	BYTE	PATT
	 POIN2	seahorse_6_011
// 052   ----------------------------------------
	BYTE	PATT
	 POIN2	seahorse_6_020
// 053   ----------------------------------------
	BYTE	PATT
	 POIN2	seahorse_6_021
// 054   ----------------------------------------
	BYTE	PATT
	 POIN2	seahorse_6_022
// 055   ----------------------------------------
	BYTE	PATT
	 POIN2	seahorse_6_023
// 056   ----------------------------------------
	BYTE	PATT
	 POIN2	seahorse_6_020
// 057   ----------------------------------------
	BYTE	PATT
	 POIN2	seahorse_6_021
// 058   ----------------------------------------
	BYTE	PATT
	 POIN2	seahorse_6_022
// 059   ----------------------------------------
	BYTE	PATT
	 POIN2	seahorse_6_027
// 060   ----------------------------------------
	BYTE	PATT
	 POIN2	seahorse_6_028
// 061   ----------------------------------------
	BYTE	PATT
	 POIN2	seahorse_6_029
// 062   ----------------------------------------
	BYTE	PATT
	 POIN2	seahorse_6_030
// 063   ----------------------------------------
	BYTE		N09     Fn3   v104
	BYTE	W96
// 064   ----------------------------------------
	BYTE	PATT
	 POIN2	seahorse_6_032
// 065   ----------------------------------------
	BYTE	PATT
	 POIN2	seahorse_6_001
// 066   ----------------------------------------
	BYTE	PATT
	 POIN2	seahorse_6_002
// 067   ----------------------------------------
	BYTE		N21     An2   v104
	BYTE	W24
	BYTE		N09   
	BYTE	W12
	BYTE		N21   
	BYTE	W24
	BYTE		N09   
	BYTE	W12
	BYTE		N32     Gs2 
	BYTE	W23
	BYTE		VOL     69*seahorse_mvl/mxv
	BYTE	W01
// 068   ----------------------------------------
	BYTE	W10
	BYTE		        68*seahorse_mvl/mxv
	BYTE	W02
	BYTE		N12     Cs3 
	BYTE	W09
	BYTE		VOL     67*seahorse_mvl/mxv
	BYTE	W03
	BYTE		N09     Ds3 
	BYTE	W08
	BYTE		VOL     66*seahorse_mvl/mxv
	BYTE	W11
	BYTE		        65*seahorse_mvl/mxv
	BYTE	W05
	BYTE		N24     Cs3 
	BYTE	W06
	BYTE		VOL     64*seahorse_mvl/mxv
	BYTE	W11
	BYTE		        63*seahorse_mvl/mxv
	BYTE	W07
	BYTE		N09     Ds3 
	BYTE	W05
	BYTE		VOL     62*seahorse_mvl/mxv
	BYTE	W11
	BYTE		        61*seahorse_mvl/mxv
	BYTE	W08
// 069   ----------------------------------------
	BYTE		N21     An2 
	BYTE	W03
	BYTE		VOL     60*seahorse_mvl/mxv
	BYTE	W11
	BYTE		        59*seahorse_mvl/mxv
	BYTE	W10
	BYTE		N09   
	BYTE	W01
	BYTE		VOL     58*seahorse_mvl/mxv
	BYTE	W11
	BYTE		        57*seahorse_mvl/mxv
	BYTE		N21   
	BYTE	W11
	BYTE		VOL     56*seahorse_mvl/mxv
	BYTE	W12
	BYTE		        55*seahorse_mvl/mxv
	BYTE	W01
	BYTE		N09   
	BYTE	W10
	BYTE		VOL     54*seahorse_mvl/mxv
	BYTE	W02
	BYTE		N32     Gs2 
	BYTE	W09
	BYTE		VOL     53*seahorse_mvl/mxv
	BYTE	W11
	BYTE		        52*seahorse_mvl/mxv
	BYTE	W04
// 070   ----------------------------------------
	BYTE	W07
	BYTE		        51*seahorse_mvl/mxv
	BYTE	W05
	BYTE		N12     Cs3 
	BYTE	W06
	BYTE		VOL     50*seahorse_mvl/mxv
	BYTE	W06
	BYTE		N09     Ds3 
	BYTE	W05
	BYTE		VOL     49*seahorse_mvl/mxv
	BYTE	W11
	BYTE		        48*seahorse_mvl/mxv
	BYTE	W08
	BYTE		N24     Cs3 
	BYTE	W04
	BYTE		VOL     47*seahorse_mvl/mxv
	BYTE	W11
	BYTE		        46*seahorse_mvl/mxv
	BYTE	W09
	BYTE		N09     Ds3 
	BYTE	W02
	BYTE		VOL     45*seahorse_mvl/mxv
	BYTE	W11
	BYTE		        44*seahorse_mvl/mxv
	BYTE	W11
// 071   ----------------------------------------
	BYTE		        43*seahorse_mvl/mxv
	BYTE		N21     An2 
	BYTE	W11
	BYTE		VOL     42*seahorse_mvl/mxv
	BYTE	W11
	BYTE		        41*seahorse_mvl/mxv
	BYTE	W02
	BYTE		N09   
	BYTE	W09
	BYTE		VOL     40*seahorse_mvl/mxv
	BYTE	W03
	BYTE		N21   
	BYTE	W09
	BYTE		VOL     39*seahorse_mvl/mxv
	BYTE	W11
	BYTE		        38*seahorse_mvl/mxv
	BYTE	W04
	BYTE		N09   
	BYTE	W07
	BYTE		VOL     37*seahorse_mvl/mxv
	BYTE	W05
	BYTE		N32     Gs2 
	BYTE	W06
	BYTE		VOL     36*seahorse_mvl/mxv
	BYTE	W11
	BYTE		        35*seahorse_mvl/mxv
	BYTE	W07
// 072   ----------------------------------------
	BYTE	W04
	BYTE		        34*seahorse_mvl/mxv
	BYTE	W08
	BYTE		N12     Cs3 
	BYTE	W03
	BYTE		VOL     33*seahorse_mvl/mxv
	BYTE	W09
	BYTE		N09     Ds3 
	BYTE	W03
	BYTE		VOL     32*seahorse_mvl/mxv
	BYTE	W11
	BYTE		        31*seahorse_mvl/mxv
	BYTE	W10
	BYTE		N24     Cs3 
	BYTE	W01
	BYTE		VOL     30*seahorse_mvl/mxv
	BYTE	W11
	BYTE		        29*seahorse_mvl/mxv
	BYTE	W11
	BYTE		        28*seahorse_mvl/mxv
	BYTE	W01
	BYTE		N09     Ds3 
	BYTE	W10
	BYTE		VOL     27*seahorse_mvl/mxv
	BYTE	W11
	BYTE		        26*seahorse_mvl/mxv
	BYTE	W03
// 073   ----------------------------------------
	BYTE		N21     An2 
	BYTE	W08
	BYTE		VOL     25*seahorse_mvl/mxv
	BYTE	W12
	BYTE		        24*seahorse_mvl/mxv
	BYTE	W04
	BYTE		N09   
	BYTE	W07
	BYTE		VOL     23*seahorse_mvl/mxv
	BYTE	W05
	BYTE		N21   
	BYTE	W06
	BYTE		VOL     22*seahorse_mvl/mxv
	BYTE	W11
	BYTE		        21*seahorse_mvl/mxv
	BYTE	W07
	BYTE		N09   
	BYTE	W04
	BYTE		VOL     20*seahorse_mvl/mxv
	BYTE	W08
	BYTE		N32     Gs2 
	BYTE	W03
	BYTE		VOL     19*seahorse_mvl/mxv
	BYTE	W11
	BYTE		        18*seahorse_mvl/mxv
	BYTE	W10
// 074   ----------------------------------------
	BYTE	W01
	BYTE		        17*seahorse_mvl/mxv
	BYTE	W11
	BYTE		N09     Gn2 
	BYTE	W01
	BYTE		VOL     16*seahorse_mvl/mxv
	BYTE	W11
	BYTE		        15*seahorse_mvl/mxv
	BYTE		N09   
	BYTE	W11
	BYTE		VOL     14*seahorse_mvl/mxv
	BYTE	W01
	BYTE		N21   
	BYTE	W10
	BYTE		VOL     13*seahorse_mvl/mxv
	BYTE	W11
	BYTE		        12*seahorse_mvl/mxv
	BYTE	W03
	BYTE		N09   
	BYTE	W08
	BYTE		VOL     11*seahorse_mvl/mxv
	BYTE	W04
	BYTE		N21   
	BYTE	W07
	BYTE		VOL     10*seahorse_mvl/mxv
	BYTE	W12
	BYTE		        9*seahorse_mvl/mxv
	BYTE	W05
// 075   ----------------------------------------
	BYTE		N21     Gs2 
	BYTE	W06
	BYTE		VOL     8*seahorse_mvl/mxv
	BYTE	W11
	BYTE		        7*seahorse_mvl/mxv
	BYTE	W07
	BYTE		N09   
	BYTE	W04
	BYTE		VOL     6*seahorse_mvl/mxv
	BYTE	W08
	BYTE		N21   
	BYTE	W03
	BYTE		VOL     5*seahorse_mvl/mxv
	BYTE	W11
	BYTE		        4*seahorse_mvl/mxv
	BYTE	W10
	BYTE		N13   
	BYTE	W01
	BYTE		VOL     3*seahorse_mvl/mxv
	BYTE	W11
	BYTE		        2*seahorse_mvl/mxv
	BYTE	W04
	BYTE		N13     An2 
	BYTE	W08
	BYTE		VOL     1*seahorse_mvl/mxv
	BYTE	W12
// 076   ----------------------------------------
	BYTE	FINE

//**************** Track 7 (Midi-Chn.7) ****************//

seahorse_7:
	BYTE	KEYSH   seahorse_key+0
// 000   ----------------------------------------
	BYTE		VOICE   30
	BYTE		VOL     108*seahorse_mvl/mxv
	BYTE		PAN     c_v-26
	BYTE		N12     Gs2   v104
	BYTE	W12
	BYTE		N09     As2 
	BYTE	W24
	BYTE		N24     Gs2 
	BYTE	W24
	BYTE		N09     As2 
	BYTE	W24
	BYTE		N21     En2 
	BYTE	W12
// 001   ----------------------------------------
seahorse_7_001:
	BYTE	W12
	BYTE		N09     En2   v104
	BYTE	W12
	BYTE		N21   
	BYTE	W24
	BYTE		N09   
	BYTE	W12
	BYTE		N32     Gn2 
	BYTE	W36
	BYTE	PEND
// 002   ----------------------------------------
seahorse_7_002:
	BYTE		N12     Gs2   v104
	BYTE	W12
	BYTE		N09     As2 
	BYTE	W24
	BYTE		N24     Gs2 
	BYTE	W24
	BYTE		N09     As2 
	BYTE	W24
	BYTE		N21     En2 
	BYTE	W12
	BYTE	PEND
// 003   ----------------------------------------
seahorse_7_003:
	BYTE	W12
	BYTE		N09     En2   v104
	BYTE	W12
	BYTE		N21   
	BYTE	W24
	BYTE		N09   
	BYTE	W12
	BYTE		N32     Ds2 
	BYTE	W36
	BYTE	PEND
// 004   ----------------------------------------
	BYTE	PATT
	 POIN2	seahorse_7_002
// 005   ----------------------------------------
	BYTE	PATT
	 POIN2	seahorse_7_003
// 006   ----------------------------------------
	BYTE	PATT
	 POIN2	seahorse_7_002
// 007   ----------------------------------------
	BYTE	PATT
	 POIN2	seahorse_7_003
// 008   ----------------------------------------
	BYTE	PATT
	 POIN2	seahorse_7_002
// 009   ----------------------------------------
	BYTE	PATT
	 POIN2	seahorse_7_003
// 010   ----------------------------------------
seahorse_7_010:
	BYTE		N09     Dn2   v104
	BYTE	W12
	BYTE		N09   
	BYTE	W12
	BYTE		N21   
	BYTE	W24
	BYTE		N09   
	BYTE	W12
	BYTE		N21   
	BYTE	W24
	BYTE		        Ds2 
	BYTE	W12
	BYTE	PEND
// 011   ----------------------------------------
seahorse_7_011:
	BYTE	W12
	BYTE		N09     Ds2   v104
	BYTE	W12
	BYTE		N21   
	BYTE	W24
	BYTE		N13   
	BYTE	W16
	BYTE		        En2 
	BYTE	W16
	BYTE		        Fn2 
	BYTE	W16
	BYTE	PEND
// 012   ----------------------------------------
	BYTE	PATT
	 POIN2	seahorse_7_002
// 013   ----------------------------------------
	BYTE	PATT
	 POIN2	seahorse_7_003
// 014   ----------------------------------------
	BYTE	PATT
	 POIN2	seahorse_7_002
// 015   ----------------------------------------
	BYTE	PATT
	 POIN2	seahorse_7_003
// 016   ----------------------------------------
	BYTE	PATT
	 POIN2	seahorse_7_002
// 017   ----------------------------------------
	BYTE	PATT
	 POIN2	seahorse_7_003
// 018   ----------------------------------------
	BYTE	PATT
	 POIN2	seahorse_7_010
// 019   ----------------------------------------
	BYTE	PATT
	 POIN2	seahorse_7_011
// 020   ----------------------------------------
seahorse_7_020:
	BYTE		N09     Gs2   v104
	BYTE	W12
	BYTE		N09   
	BYTE	W12
	BYTE		N21   
	BYTE	W24
	BYTE		N09   
	BYTE	W12
	BYTE		N21   
	BYTE	W24
	BYTE		        En2 
	BYTE	W12
	BYTE	PEND
// 021   ----------------------------------------
seahorse_7_021:
	BYTE	W12
	BYTE		N09     En2   v104
	BYTE	W12
	BYTE		N21   
	BYTE	W24
	BYTE		N09   
	BYTE	W12
	BYTE		N32   
	BYTE	W36
	BYTE	PEND
// 022   ----------------------------------------
seahorse_7_022:
	BYTE		N09     Cn3   v104
	BYTE	W12
	BYTE		N09   
	BYTE	W12
	BYTE		N21   
	BYTE	W24
	BYTE		N09   
	BYTE	W12
	BYTE		N21   
	BYTE	W24
	BYTE		        Gs2 
	BYTE	W12
	BYTE	PEND
// 023   ----------------------------------------
seahorse_7_023:
	BYTE	W12
	BYTE		N09     Gs2   v104
	BYTE	W12
	BYTE		N21   
	BYTE	W24
	BYTE		N09   
	BYTE	W12
	BYTE		N32   
	BYTE	W36
	BYTE	PEND
// 024   ----------------------------------------
	BYTE	PATT
	 POIN2	seahorse_7_020
// 025   ----------------------------------------
	BYTE	PATT
	 POIN2	seahorse_7_021
// 026   ----------------------------------------
	BYTE	PATT
	 POIN2	seahorse_7_022
// 027   ----------------------------------------
seahorse_7_027:
	BYTE	W12
	BYTE		N09     Gs2   v104
	BYTE	W12
	BYTE		N21   
	BYTE	W24
	BYTE		N13   
	BYTE	W16
	BYTE		        As2 
	BYTE	W16
	BYTE		        Cn3 
	BYTE	W16
	BYTE	PEND
// 028   ----------------------------------------
seahorse_7_028:
	BYTE		N09     Cs3   v104
	BYTE	W12
	BYTE		N09   
	BYTE	W12
	BYTE		N21   
	BYTE	W24
	BYTE		N09   
	BYTE	W12
	BYTE		N21   
	BYTE	W24
	BYTE		N21   
	BYTE	W12
	BYTE	PEND
// 029   ----------------------------------------
seahorse_7_029:
	BYTE	W12
	BYTE		N09     Cs3   v104
	BYTE	W12
	BYTE		N21   
	BYTE	W24
	BYTE		N13   
	BYTE	W16
	BYTE		N13   
	BYTE	W16
	BYTE		N13   
	BYTE	W16
	BYTE	PEND
// 030   ----------------------------------------
seahorse_7_030:
	BYTE		N09     Cs3   v104
	BYTE	W12
	BYTE		N09   
	BYTE	W12
	BYTE		N21   
	BYTE	W24
	BYTE		N09   
	BYTE	W12
	BYTE		N21   
	BYTE	W24
	BYTE		N09   
	BYTE	W12
	BYTE	PEND
// 031   ----------------------------------------
	BYTE	W96
// 032   ----------------------------------------
seahorse_7_032:
	BYTE		VOL     108*seahorse_mvl/mxv
	BYTE		PAN     c_v-26
	BYTE		N12     Gs2   v104
	BYTE	W12
	BYTE		N09     As2 
	BYTE	W24
	BYTE		N24     Gs2 
	BYTE	W24
	BYTE		N09     As2 
	BYTE	W24
	BYTE		N21     En2 
	BYTE	W12
	BYTE	PEND
// 033   ----------------------------------------
	BYTE	PATT
	 POIN2	seahorse_7_001
// 034   ----------------------------------------
	BYTE	PATT
	 POIN2	seahorse_7_002
// 035   ----------------------------------------
	BYTE	PATT
	 POIN2	seahorse_7_003
// 036   ----------------------------------------
	BYTE	PATT
	 POIN2	seahorse_7_002
// 037   ----------------------------------------
	BYTE	PATT
	 POIN2	seahorse_7_003
// 038   ----------------------------------------
	BYTE	PATT
	 POIN2	seahorse_7_002
// 039   ----------------------------------------
	BYTE	PATT
	 POIN2	seahorse_7_003
// 040   ----------------------------------------
	BYTE	PATT
	 POIN2	seahorse_7_002
// 041   ----------------------------------------
	BYTE	PATT
	 POIN2	seahorse_7_003
// 042   ----------------------------------------
	BYTE	PATT
	 POIN2	seahorse_7_010
// 043   ----------------------------------------
	BYTE	PATT
	 POIN2	seahorse_7_011
// 044   ----------------------------------------
	BYTE	PATT
	 POIN2	seahorse_7_002
// 045   ----------------------------------------
	BYTE	PATT
	 POIN2	seahorse_7_003
// 046   ----------------------------------------
	BYTE	PATT
	 POIN2	seahorse_7_002
// 047   ----------------------------------------
	BYTE	PATT
	 POIN2	seahorse_7_003
// 048   ----------------------------------------
	BYTE	PATT
	 POIN2	seahorse_7_002
// 049   ----------------------------------------
	BYTE	PATT
	 POIN2	seahorse_7_003
// 050   ----------------------------------------
	BYTE	PATT
	 POIN2	seahorse_7_010
// 051   ----------------------------------------
	BYTE	PATT
	 POIN2	seahorse_7_011
// 052   ----------------------------------------
	BYTE	PATT
	 POIN2	seahorse_7_020
// 053   ----------------------------------------
	BYTE	PATT
	 POIN2	seahorse_7_021
// 054   ----------------------------------------
	BYTE	PATT
	 POIN2	seahorse_7_022
// 055   ----------------------------------------
	BYTE	PATT
	 POIN2	seahorse_7_023
// 056   ----------------------------------------
	BYTE	PATT
	 POIN2	seahorse_7_020
// 057   ----------------------------------------
	BYTE	PATT
	 POIN2	seahorse_7_021
// 058   ----------------------------------------
	BYTE	PATT
	 POIN2	seahorse_7_022
// 059   ----------------------------------------
	BYTE	PATT
	 POIN2	seahorse_7_027
// 060   ----------------------------------------
	BYTE	PATT
	 POIN2	seahorse_7_028
// 061   ----------------------------------------
	BYTE	PATT
	 POIN2	seahorse_7_029
// 062   ----------------------------------------
	BYTE	PATT
	 POIN2	seahorse_7_030
// 063   ----------------------------------------
	BYTE	W96
// 064   ----------------------------------------
	BYTE	PATT
	 POIN2	seahorse_7_032
// 065   ----------------------------------------
	BYTE	PATT
	 POIN2	seahorse_7_001
// 066   ----------------------------------------
	BYTE	PATT
	 POIN2	seahorse_7_002
// 067   ----------------------------------------
	BYTE	PATT
	 POIN2	seahorse_7_003
// 068   ----------------------------------------
	BYTE		VOL     108*seahorse_mvl/mxv
	BYTE		N12     Gs2   v104
	BYTE	W07
	BYTE		VOL     107*seahorse_mvl/mxv
	BYTE	W05
	BYTE		N09     As2 
	BYTE	W02
	BYTE		VOL     106*seahorse_mvl/mxv
	BYTE	W07
	BYTE		        105*seahorse_mvl/mxv
	BYTE	W07
	BYTE		        104*seahorse_mvl/mxv
	BYTE	W07
	BYTE		        103*seahorse_mvl/mxv
	BYTE	W01
	BYTE		N24     Gs2 
	BYTE	W06
	BYTE		VOL     102*seahorse_mvl/mxv
	BYTE	W07
	BYTE		        101*seahorse_mvl/mxv
	BYTE	W07
	BYTE		        100*seahorse_mvl/mxv
	BYTE	W04
	BYTE		N09     As2 
	BYTE	W04
	BYTE		VOL     99*seahorse_mvl/mxv
	BYTE	W07
	BYTE		        98*seahorse_mvl/mxv
	BYTE	W07
	BYTE		        97*seahorse_mvl/mxv
	BYTE	W06
	BYTE		N21     En2 
	BYTE	W01
	BYTE		VOL     96*seahorse_mvl/mxv
	BYTE	W07
	BYTE		        95*seahorse_mvl/mxv
	BYTE	W04
// 069   ----------------------------------------
	BYTE	W03
	BYTE		        94*seahorse_mvl/mxv
	BYTE	W07
	BYTE		        93*seahorse_mvl/mxv
	BYTE	W02
	BYTE		N09   
	BYTE	W05
	BYTE		VOL     92*seahorse_mvl/mxv
	BYTE	W07
	BYTE		N21   
	BYTE	W01
	BYTE		VOL     91*seahorse_mvl/mxv
	BYTE	W07
	BYTE		        90*seahorse_mvl/mxv
	BYTE	W07
	BYTE		        89*seahorse_mvl/mxv
	BYTE	W07
	BYTE		        88*seahorse_mvl/mxv
	BYTE	W02
	BYTE		N09   
	BYTE	W05
	BYTE		VOL     87*seahorse_mvl/mxv
	BYTE	W07
	BYTE		        86*seahorse_mvl/mxv
	BYTE		N32     Ds2 
	BYTE	W07
	BYTE		VOL     85*seahorse_mvl/mxv
	BYTE	W07
	BYTE		        84*seahorse_mvl/mxv
	BYTE	W07
	BYTE		        83*seahorse_mvl/mxv
	BYTE	W08
	BYTE		        82*seahorse_mvl/mxv
	BYTE	W07
// 070   ----------------------------------------
	BYTE		        81*seahorse_mvl/mxv
	BYTE		N12     Gs2 
	BYTE	W07
	BYTE		VOL     80*seahorse_mvl/mxv
	BYTE	W05
	BYTE		N09     As2 
	BYTE	W02
	BYTE		VOL     79*seahorse_mvl/mxv
	BYTE	W07
	BYTE		        78*seahorse_mvl/mxv
	BYTE	W07
	BYTE		        77*seahorse_mvl/mxv
	BYTE	W07
	BYTE		        76*seahorse_mvl/mxv
	BYTE	W01
	BYTE		N24     Gs2 
	BYTE	W06
	BYTE		VOL     75*seahorse_mvl/mxv
	BYTE	W08
	BYTE		        74*seahorse_mvl/mxv
	BYTE	W07
	BYTE		        73*seahorse_mvl/mxv
	BYTE	W03
	BYTE		N09     As2 
	BYTE	W04
	BYTE		VOL     72*seahorse_mvl/mxv
	BYTE	W07
	BYTE		        71*seahorse_mvl/mxv
	BYTE	W07
	BYTE		        70*seahorse_mvl/mxv
	BYTE	W06
	BYTE		N21     En2 
	BYTE	W01
	BYTE		VOL     69*seahorse_mvl/mxv
	BYTE	W07
	BYTE		        68*seahorse_mvl/mxv
	BYTE	W04
// 071   ----------------------------------------
	BYTE	W03
	BYTE		        67*seahorse_mvl/mxv
	BYTE	W07
	BYTE		        66*seahorse_mvl/mxv
	BYTE	W02
	BYTE		N09   
	BYTE	W06
	BYTE		VOL     65*seahorse_mvl/mxv
	BYTE	W06
	BYTE		N21   
	BYTE	W01
	BYTE		VOL     64*seahorse_mvl/mxv
	BYTE	W07
	BYTE		        63*seahorse_mvl/mxv
	BYTE	W07
	BYTE		        62*seahorse_mvl/mxv
	BYTE	W07
	BYTE		        61*seahorse_mvl/mxv
	BYTE	W02
	BYTE		N09   
	BYTE	W05
	BYTE		VOL     60*seahorse_mvl/mxv
	BYTE	W07
	BYTE		        59*seahorse_mvl/mxv
	BYTE		N32     Ds2 
	BYTE	W07
	BYTE		VOL     58*seahorse_mvl/mxv
	BYTE	W08
	BYTE		        57*seahorse_mvl/mxv
	BYTE	W07
	BYTE		        56*seahorse_mvl/mxv
	BYTE	W07
	BYTE		        55*seahorse_mvl/mxv
	BYTE	W07
// 072   ----------------------------------------
	BYTE		        54*seahorse_mvl/mxv
	BYTE		N12     Gs2 
	BYTE	W07
	BYTE		VOL     53*seahorse_mvl/mxv
	BYTE	W05
	BYTE		N09     As2 
	BYTE	W02
	BYTE		VOL     52*seahorse_mvl/mxv
	BYTE	W07
	BYTE		        51*seahorse_mvl/mxv
	BYTE	W07
	BYTE		        50*seahorse_mvl/mxv
	BYTE	W08
	BYTE		        49*seahorse_mvl/mxv
	BYTE		N24     Gs2 
	BYTE	W07
	BYTE		VOL     48*seahorse_mvl/mxv
	BYTE	W07
	BYTE		        47*seahorse_mvl/mxv
	BYTE	W07
	BYTE		        46*seahorse_mvl/mxv
	BYTE	W03
	BYTE		N09     As2 
	BYTE	W04
	BYTE		VOL     45*seahorse_mvl/mxv
	BYTE	W07
	BYTE		        44*seahorse_mvl/mxv
	BYTE	W07
	BYTE		        43*seahorse_mvl/mxv
	BYTE	W06
	BYTE		N21     En2 
	BYTE	W01
	BYTE		VOL     42*seahorse_mvl/mxv
	BYTE	W07
	BYTE		        41*seahorse_mvl/mxv
	BYTE	W04
// 073   ----------------------------------------
	BYTE	W04
	BYTE		        40*seahorse_mvl/mxv
	BYTE	W07
	BYTE		        39*seahorse_mvl/mxv
	BYTE	W01
	BYTE		N09   
	BYTE	W06
	BYTE		VOL     38*seahorse_mvl/mxv
	BYTE	W06
	BYTE		N21   
	BYTE	W01
	BYTE		VOL     37*seahorse_mvl/mxv
	BYTE	W07
	BYTE		        36*seahorse_mvl/mxv
	BYTE	W07
	BYTE		        35*seahorse_mvl/mxv
	BYTE	W07
	BYTE		        34*seahorse_mvl/mxv
	BYTE	W02
	BYTE		N09   
	BYTE	W05
	BYTE		VOL     33*seahorse_mvl/mxv
	BYTE	W07
	BYTE		N32     Ds2 
	BYTE	W01
	BYTE		VOL     32*seahorse_mvl/mxv
	BYTE	W07
	BYTE		        31*seahorse_mvl/mxv
	BYTE	W07
	BYTE		        30*seahorse_mvl/mxv
	BYTE	W07
	BYTE		        29*seahorse_mvl/mxv
	BYTE	W07
	BYTE		        28*seahorse_mvl/mxv
	BYTE	W07
// 074   ----------------------------------------
	BYTE		        27*seahorse_mvl/mxv
	BYTE		N09     Dn2 
	BYTE	W07
	BYTE		VOL     26*seahorse_mvl/mxv
	BYTE	W05
	BYTE		N09   
	BYTE	W02
	BYTE		VOL     25*seahorse_mvl/mxv
	BYTE	W07
	BYTE		        24*seahorse_mvl/mxv
	BYTE	W03
	BYTE		N21   
	BYTE	W05
	BYTE		VOL     23*seahorse_mvl/mxv
	BYTE	W07
	BYTE		        22*seahorse_mvl/mxv
	BYTE	W07
	BYTE		        21*seahorse_mvl/mxv
	BYTE	W05
	BYTE		N09   
	BYTE	W02
	BYTE		VOL     20*seahorse_mvl/mxv
	BYTE	W07
	BYTE		        19*seahorse_mvl/mxv
	BYTE	W03
	BYTE		N21   
	BYTE	W04
	BYTE		VOL     18*seahorse_mvl/mxv
	BYTE	W07
	BYTE		        17*seahorse_mvl/mxv
	BYTE	W07
	BYTE		        16*seahorse_mvl/mxv
	BYTE	W06
	BYTE		N21     Ds2 
	BYTE	W02
	BYTE		VOL     15*seahorse_mvl/mxv
	BYTE	W07
	BYTE		        14*seahorse_mvl/mxv
	BYTE	W03
// 075   ----------------------------------------
	BYTE	W04
	BYTE		        13*seahorse_mvl/mxv
	BYTE	W07
	BYTE		        12*seahorse_mvl/mxv
	BYTE	W01
	BYTE		N09   
	BYTE	W06
	BYTE		VOL     11*seahorse_mvl/mxv
	BYTE	W06
	BYTE		N21   
	BYTE	W01
	BYTE		VOL     10*seahorse_mvl/mxv
	BYTE	W07
	BYTE		        9*seahorse_mvl/mxv
	BYTE	W07
	BYTE		        8*seahorse_mvl/mxv
	BYTE	W07
	BYTE		        7*seahorse_mvl/mxv
	BYTE	W02
	BYTE		N13   
	BYTE	W06
	BYTE		VOL     6*seahorse_mvl/mxv
	BYTE	W07
	BYTE		        5*seahorse_mvl/mxv
	BYTE	W03
	BYTE		N13     En2 
	BYTE	W04
	BYTE		VOL     4*seahorse_mvl/mxv
	BYTE	W07
	BYTE		        3*seahorse_mvl/mxv
	BYTE	W05
	BYTE		N13     Fn2 
	BYTE	W02
	BYTE		VOL     2*seahorse_mvl/mxv
	BYTE	W07
	BYTE		        1*seahorse_mvl/mxv
	BYTE	W07
// 076   ----------------------------------------
	BYTE	FINE

//**************** Track 8 (Midi-Chn.8) ****************//

seahorse_8:
	BYTE	KEYSH   seahorse_key+0
// 000   ----------------------------------------
	BYTE		VOICE   30
	BYTE		VOL     70*seahorse_mvl/mxv
	BYTE		PAN     c_v+12
	BYTE	W12
	BYTE		N12     Gs2   v104
	BYTE	W12
	BYTE		N09     As2 
	BYTE	W24
	BYTE		N24     Gs2 
	BYTE	W24
	BYTE		N09     As2 
	BYTE	W24
// 001   ----------------------------------------
seahorse_8_001:
	BYTE		N21     En2   v104
	BYTE	W24
	BYTE		N09   
	BYTE	W12
	BYTE		N21   
	BYTE	W24
	BYTE		N09   
	BYTE	W12
	BYTE		N32     Gn2 
	BYTE	W24
	BYTE	PEND
// 002   ----------------------------------------
seahorse_8_002:
	BYTE	W12
	BYTE		N12     Gs2   v104
	BYTE	W12
	BYTE		N09     As2 
	BYTE	W24
	BYTE		N24     Gs2 
	BYTE	W24
	BYTE		N09     As2 
	BYTE	W24
	BYTE	PEND
// 003   ----------------------------------------
seahorse_8_003:
	BYTE		N21     En2   v104
	BYTE	W24
	BYTE		N09   
	BYTE	W12
	BYTE		N21   
	BYTE	W24
	BYTE		N09   
	BYTE	W12
	BYTE		N32     Ds2 
	BYTE	W24
	BYTE	PEND
// 004   ----------------------------------------
	BYTE	PATT
	 POIN2	seahorse_8_002
// 005   ----------------------------------------
	BYTE	PATT
	 POIN2	seahorse_8_003
// 006   ----------------------------------------
	BYTE	PATT
	 POIN2	seahorse_8_002
// 007   ----------------------------------------
	BYTE	PATT
	 POIN2	seahorse_8_003
// 008   ----------------------------------------
	BYTE	PATT
	 POIN2	seahorse_8_002
// 009   ----------------------------------------
	BYTE	PATT
	 POIN2	seahorse_8_003
// 010   ----------------------------------------
seahorse_8_010:
	BYTE	W12
	BYTE		N09     Dn2   v104
	BYTE	W12
	BYTE		N09   
	BYTE	W12
	BYTE		N21   
	BYTE	W24
	BYTE		N09   
	BYTE	W12
	BYTE		N21   
	BYTE	W24
	BYTE	PEND
// 011   ----------------------------------------
seahorse_8_011:
	BYTE		N21     Ds2   v104
	BYTE	W24
	BYTE		N09   
	BYTE	W12
	BYTE		N21   
	BYTE	W24
	BYTE		N13   
	BYTE	W16
	BYTE		        En2 
	BYTE	W16
	BYTE		        Fn2 
	BYTE	W04
	BYTE	PEND
// 012   ----------------------------------------
	BYTE	PATT
	 POIN2	seahorse_8_002
// 013   ----------------------------------------
	BYTE	PATT
	 POIN2	seahorse_8_003
// 014   ----------------------------------------
	BYTE	PATT
	 POIN2	seahorse_8_002
// 015   ----------------------------------------
	BYTE	PATT
	 POIN2	seahorse_8_003
// 016   ----------------------------------------
	BYTE	PATT
	 POIN2	seahorse_8_002
// 017   ----------------------------------------
	BYTE	PATT
	 POIN2	seahorse_8_003
// 018   ----------------------------------------
	BYTE	PATT
	 POIN2	seahorse_8_010
// 019   ----------------------------------------
	BYTE	PATT
	 POIN2	seahorse_8_011
// 020   ----------------------------------------
seahorse_8_020:
	BYTE	W12
	BYTE		N09     Gs2   v104
	BYTE	W12
	BYTE		N09   
	BYTE	W12
	BYTE		N21   
	BYTE	W24
	BYTE		N09   
	BYTE	W12
	BYTE		N21   
	BYTE	W24
	BYTE	PEND
// 021   ----------------------------------------
seahorse_8_021:
	BYTE		N21     En2   v104
	BYTE	W24
	BYTE		N09   
	BYTE	W12
	BYTE		N21   
	BYTE	W24
	BYTE		N09   
	BYTE	W12
	BYTE		N32   
	BYTE	W24
	BYTE	PEND
// 022   ----------------------------------------
seahorse_8_022:
	BYTE	W12
	BYTE		N09     Cn3   v104
	BYTE	W12
	BYTE		N09   
	BYTE	W12
	BYTE		N21   
	BYTE	W24
	BYTE		N09   
	BYTE	W12
	BYTE		N21   
	BYTE	W24
	BYTE	PEND
// 023   ----------------------------------------
seahorse_8_023:
	BYTE		N21     Gs2   v104
	BYTE	W24
	BYTE		N09   
	BYTE	W12
	BYTE		N21   
	BYTE	W24
	BYTE		N09   
	BYTE	W12
	BYTE		N32   
	BYTE	W24
	BYTE	PEND
// 024   ----------------------------------------
	BYTE	PATT
	 POIN2	seahorse_8_020
// 025   ----------------------------------------
	BYTE	PATT
	 POIN2	seahorse_8_021
// 026   ----------------------------------------
	BYTE	PATT
	 POIN2	seahorse_8_022
// 027   ----------------------------------------
seahorse_8_027:
	BYTE		N21     Gs2   v104
	BYTE	W24
	BYTE		N09   
	BYTE	W12
	BYTE		N21   
	BYTE	W24
	BYTE		N13   
	BYTE	W16
	BYTE		        As2 
	BYTE	W16
	BYTE		        Cn3 
	BYTE	W04
	BYTE	PEND
// 028   ----------------------------------------
seahorse_8_028:
	BYTE	W12
	BYTE		N09     Cs3   v104
	BYTE	W12
	BYTE		N09   
	BYTE	W12
	BYTE		N21   
	BYTE	W24
	BYTE		N09   
	BYTE	W12
	BYTE		N21   
	BYTE	W24
	BYTE	PEND
// 029   ----------------------------------------
seahorse_8_029:
	BYTE		N21     Cs3   v104
	BYTE	W24
	BYTE		N09   
	BYTE	W12
	BYTE		N21   
	BYTE	W24
	BYTE		N13   
	BYTE	W16
	BYTE		N13   
	BYTE	W16
	BYTE		N13   
	BYTE	W04
	BYTE	PEND
// 030   ----------------------------------------
	BYTE	PATT
	 POIN2	seahorse_8_028
// 031   ----------------------------------------
	BYTE		N09     Cs3   v104
	BYTE	W96
// 032   ----------------------------------------
seahorse_8_032:
	BYTE		VOL     70*seahorse_mvl/mxv
	BYTE		PAN     c_v+12
	BYTE	W12
	BYTE		N12     Gs2   v104
	BYTE	W12
	BYTE		N09     As2 
	BYTE	W24
	BYTE		N24     Gs2 
	BYTE	W24
	BYTE		N09     As2 
	BYTE	W24
	BYTE	PEND
// 033   ----------------------------------------
	BYTE	PATT
	 POIN2	seahorse_8_001
// 034   ----------------------------------------
	BYTE	PATT
	 POIN2	seahorse_8_002
// 035   ----------------------------------------
	BYTE	PATT
	 POIN2	seahorse_8_003
// 036   ----------------------------------------
	BYTE	PATT
	 POIN2	seahorse_8_002
// 037   ----------------------------------------
	BYTE	PATT
	 POIN2	seahorse_8_003
// 038   ----------------------------------------
	BYTE	PATT
	 POIN2	seahorse_8_002
// 039   ----------------------------------------
	BYTE	PATT
	 POIN2	seahorse_8_003
// 040   ----------------------------------------
	BYTE	PATT
	 POIN2	seahorse_8_002
// 041   ----------------------------------------
	BYTE	PATT
	 POIN2	seahorse_8_003
// 042   ----------------------------------------
	BYTE	PATT
	 POIN2	seahorse_8_010
// 043   ----------------------------------------
	BYTE	PATT
	 POIN2	seahorse_8_011
// 044   ----------------------------------------
	BYTE	PATT
	 POIN2	seahorse_8_002
// 045   ----------------------------------------
	BYTE	PATT
	 POIN2	seahorse_8_003
// 046   ----------------------------------------
	BYTE	PATT
	 POIN2	seahorse_8_002
// 047   ----------------------------------------
	BYTE	PATT
	 POIN2	seahorse_8_003
// 048   ----------------------------------------
	BYTE	PATT
	 POIN2	seahorse_8_002
// 049   ----------------------------------------
	BYTE	PATT
	 POIN2	seahorse_8_003
// 050   ----------------------------------------
	BYTE	PATT
	 POIN2	seahorse_8_010
// 051   ----------------------------------------
	BYTE	PATT
	 POIN2	seahorse_8_011
// 052   ----------------------------------------
	BYTE	PATT
	 POIN2	seahorse_8_020
// 053   ----------------------------------------
	BYTE	PATT
	 POIN2	seahorse_8_021
// 054   ----------------------------------------
	BYTE	PATT
	 POIN2	seahorse_8_022
// 055   ----------------------------------------
	BYTE	PATT
	 POIN2	seahorse_8_023
// 056   ----------------------------------------
	BYTE	PATT
	 POIN2	seahorse_8_020
// 057   ----------------------------------------
	BYTE	PATT
	 POIN2	seahorse_8_021
// 058   ----------------------------------------
	BYTE	PATT
	 POIN2	seahorse_8_022
// 059   ----------------------------------------
	BYTE	PATT
	 POIN2	seahorse_8_027
// 060   ----------------------------------------
	BYTE	PATT
	 POIN2	seahorse_8_028
// 061   ----------------------------------------
	BYTE	PATT
	 POIN2	seahorse_8_029
// 062   ----------------------------------------
	BYTE	PATT
	 POIN2	seahorse_8_028
// 063   ----------------------------------------
	BYTE		N09     Cs3   v104
	BYTE	W96
// 064   ----------------------------------------
	BYTE	PATT
	 POIN2	seahorse_8_032
// 065   ----------------------------------------
	BYTE	PATT
	 POIN2	seahorse_8_001
// 066   ----------------------------------------
	BYTE	PATT
	 POIN2	seahorse_8_002
// 067   ----------------------------------------
	BYTE	PATT
	 POIN2	seahorse_8_003
// 068   ----------------------------------------
	BYTE		VOL     69*seahorse_mvl/mxv
	BYTE	W11
	BYTE		        68*seahorse_mvl/mxv
	BYTE	W01
	BYTE		N12     Gs2   v104
	BYTE	W10
	BYTE		VOL     67*seahorse_mvl/mxv
	BYTE	W02
	BYTE		N09     As2 
	BYTE	W09
	BYTE		VOL     66*seahorse_mvl/mxv
	BYTE	W11
	BYTE		        65*seahorse_mvl/mxv
	BYTE	W04
	BYTE		N24     Gs2 
	BYTE	W07
	BYTE		VOL     64*seahorse_mvl/mxv
	BYTE	W11
	BYTE		        63*seahorse_mvl/mxv
	BYTE	W06
	BYTE		N09     As2 
	BYTE	W05
	BYTE		VOL     62*seahorse_mvl/mxv
	BYTE	W11
	BYTE		        61*seahorse_mvl/mxv
	BYTE	W08
// 069   ----------------------------------------
	BYTE		N21     En2 
	BYTE	W03
	BYTE		VOL     60*seahorse_mvl/mxv
	BYTE	W12
	BYTE		        59*seahorse_mvl/mxv
	BYTE	W09
	BYTE		N09   
	BYTE	W02
	BYTE		VOL     58*seahorse_mvl/mxv
	BYTE	W10
	BYTE		N21   
	BYTE	W01
	BYTE		VOL     57*seahorse_mvl/mxv
	BYTE	W11
	BYTE		        56*seahorse_mvl/mxv
	BYTE	W11
	BYTE		        55*seahorse_mvl/mxv
	BYTE	W01
	BYTE		N09   
	BYTE	W10
	BYTE		VOL     54*seahorse_mvl/mxv
	BYTE	W02
	BYTE		N32     Ds2 
	BYTE	W09
	BYTE		VOL     53*seahorse_mvl/mxv
	BYTE	W11
	BYTE		        52*seahorse_mvl/mxv
	BYTE	W04
// 070   ----------------------------------------
	BYTE	W07
	BYTE		        51*seahorse_mvl/mxv
	BYTE	W05
	BYTE		N12     Gs2 
	BYTE	W07
	BYTE		VOL     50*seahorse_mvl/mxv
	BYTE	W05
	BYTE		N09     As2 
	BYTE	W06
	BYTE		VOL     49*seahorse_mvl/mxv
	BYTE	W11
	BYTE		        48*seahorse_mvl/mxv
	BYTE	W07
	BYTE		N24     Gs2 
	BYTE	W04
	BYTE		VOL     47*seahorse_mvl/mxv
	BYTE	W11
	BYTE		        46*seahorse_mvl/mxv
	BYTE	W09
	BYTE		N09     As2 
	BYTE	W02
	BYTE		VOL     45*seahorse_mvl/mxv
	BYTE	W11
	BYTE		        44*seahorse_mvl/mxv
	BYTE	W11
// 071   ----------------------------------------
	BYTE		        43*seahorse_mvl/mxv
	BYTE		N21     En2 
	BYTE	W11
	BYTE		VOL     42*seahorse_mvl/mxv
	BYTE	W12
	BYTE		        41*seahorse_mvl/mxv
	BYTE	W01
	BYTE		N09   
	BYTE	W10
	BYTE		VOL     40*seahorse_mvl/mxv
	BYTE	W02
	BYTE		N21   
	BYTE	W09
	BYTE		VOL     39*seahorse_mvl/mxv
	BYTE	W11
	BYTE		        38*seahorse_mvl/mxv
	BYTE	W04
	BYTE		N09   
	BYTE	W07
	BYTE		VOL     37*seahorse_mvl/mxv
	BYTE	W05
	BYTE		N32     Ds2 
	BYTE	W06
	BYTE		VOL     36*seahorse_mvl/mxv
	BYTE	W11
	BYTE		        35*seahorse_mvl/mxv
	BYTE	W07
// 072   ----------------------------------------
	BYTE	W04
	BYTE		        34*seahorse_mvl/mxv
	BYTE	W08
	BYTE		N12     Gs2 
	BYTE	W03
	BYTE		VOL     33*seahorse_mvl/mxv
	BYTE	W09
	BYTE		N09     As2 
	BYTE	W02
	BYTE		VOL     32*seahorse_mvl/mxv
	BYTE	W12
	BYTE		        31*seahorse_mvl/mxv
	BYTE	W10
	BYTE		N24     Gs2 
	BYTE	W01
	BYTE		VOL     30*seahorse_mvl/mxv
	BYTE	W11
	BYTE		        29*seahorse_mvl/mxv
	BYTE	W11
	BYTE		        28*seahorse_mvl/mxv
	BYTE	W01
	BYTE		N09     As2 
	BYTE	W10
	BYTE		VOL     27*seahorse_mvl/mxv
	BYTE	W11
	BYTE		        26*seahorse_mvl/mxv
	BYTE	W03
// 073   ----------------------------------------
	BYTE		N21     En2 
	BYTE	W08
	BYTE		VOL     25*seahorse_mvl/mxv
	BYTE	W11
	BYTE		        24*seahorse_mvl/mxv
	BYTE	W05
	BYTE		N09   
	BYTE	W06
	BYTE		VOL     23*seahorse_mvl/mxv
	BYTE	W06
	BYTE		N21   
	BYTE	W06
	BYTE		VOL     22*seahorse_mvl/mxv
	BYTE	W11
	BYTE		        21*seahorse_mvl/mxv
	BYTE	W07
	BYTE		N09   
	BYTE	W04
	BYTE		VOL     20*seahorse_mvl/mxv
	BYTE	W08
	BYTE		N32     Ds2 
	BYTE	W03
	BYTE		VOL     19*seahorse_mvl/mxv
	BYTE	W11
	BYTE		        18*seahorse_mvl/mxv
	BYTE	W10
// 074   ----------------------------------------
	BYTE	W01
	BYTE		        17*seahorse_mvl/mxv
	BYTE	W11
	BYTE		        16*seahorse_mvl/mxv
	BYTE		N09     Dn2 
	BYTE	W11
	BYTE		VOL     15*seahorse_mvl/mxv
	BYTE	W01
	BYTE		N09   
	BYTE	W10
	BYTE		VOL     14*seahorse_mvl/mxv
	BYTE	W02
	BYTE		N21   
	BYTE	W10
	BYTE		VOL     13*seahorse_mvl/mxv
	BYTE	W11
	BYTE		        12*seahorse_mvl/mxv
	BYTE	W03
	BYTE		N09   
	BYTE	W08
	BYTE		VOL     11*seahorse_mvl/mxv
	BYTE	W04
	BYTE		N21   
	BYTE	W07
	BYTE		VOL     10*seahorse_mvl/mxv
	BYTE	W11
	BYTE		        9*seahorse_mvl/mxv
	BYTE	W06
// 075   ----------------------------------------
	BYTE		N21     Ds2 
	BYTE	W05
	BYTE		VOL     8*seahorse_mvl/mxv
	BYTE	W11
	BYTE		        7*seahorse_mvl/mxv
	BYTE	W08
	BYTE		N09   
	BYTE	W03
	BYTE		VOL     6*seahorse_mvl/mxv
	BYTE	W09
	BYTE		N21   
	BYTE	W02
	BYTE		VOL     5*seahorse_mvl/mxv
	BYTE	W11
	BYTE		        4*seahorse_mvl/mxv
	BYTE	W11
	BYTE		N13   
	BYTE	W01
	BYTE		VOL     3*seahorse_mvl/mxv
	BYTE	W11
	BYTE		        2*seahorse_mvl/mxv
	BYTE	W04
	BYTE		N13     En2 
	BYTE	W07
	BYTE		VOL     1*seahorse_mvl/mxv
	BYTE	W13
// 076   ----------------------------------------
	BYTE	FINE

//**************** Track 9 (Midi-Chn.9) ****************//

seahorse_9:
	BYTE	KEYSH   seahorse_key+0
// 000   ----------------------------------------
	BYTE		VOICE   40
	BYTE		PAN     c_v+7
	BYTE		VOL     127*seahorse_mvl/mxv
	BYTE	W96
// 001   ----------------------------------------
	BYTE	W96
// 002   ----------------------------------------
	BYTE	W96
// 003   ----------------------------------------
	BYTE	W96
// 004   ----------------------------------------
seahorse_9_004:
	BYTE		N44     Gs3   v104
	BYTE	W48
	BYTE		N22     Cs4 
	BYTE	W24
	BYTE		N10     Gs3 
	BYTE	W12
	BYTE		N22     En4 
	BYTE	W12
	BYTE	PEND
// 005   ----------------------------------------
seahorse_9_005:
	BYTE	W12
	BYTE		N10     Ds4   v104
	BYTE	W12
	BYTE		N22     Cs4 
	BYTE	W24
	BYTE		N10   
	BYTE	W12
	BYTE		        Bn3 
	BYTE	W24
	BYTE		N68     Cs4 
	BYTE	W12
	BYTE	PEND
// 006   ----------------------------------------
seahorse_9_006:
	BYTE	W60
	BYTE		N22     Gs3   v104
	BYTE	W24
	BYTE		N10     Fs3 
	BYTE	W12
	BYTE	PEND
// 007   ----------------------------------------
seahorse_9_007:
	BYTE		N10     En3   v104
	BYTE	W12
	BYTE		        Ds3 
	BYTE	W24
	BYTE		N22     Cs3 
	BYTE	W24
	BYTE		        Ds3 
	BYTE	W24
	BYTE		N32     En3 
	BYTE	W12
	BYTE	PEND
// 008   ----------------------------------------
seahorse_9_008:
	BYTE	W24
	BYTE		N22     Fs3   v104
	BYTE	W24
	BYTE		        Gs3 
	BYTE	W24
	BYTE		N10     An3 
	BYTE	W12
	BYTE		N22     Cs4 
	BYTE	W12
	BYTE	PEND
// 009   ----------------------------------------
seahorse_9_009:
	BYTE	W12
	BYTE		N10     Gs4   v104
	BYTE	W24
	BYTE		N10   
	BYTE	W12
	BYTE		N16   
	BYTE	W18
	BYTE		        Fs4 
	BYTE	W18
	BYTE		N10     En4 
	BYTE	W12
	BYTE	PEND
// 010   ----------------------------------------
seahorse_9_010:
	BYTE		N44     Ds4   v104
	BYTE	W48
	BYTE		N22     Fs4 
	BYTE	W24
	BYTE		N10     En4 
	BYTE	W12
	BYTE		N22     Ds4 
	BYTE	W12
	BYTE	PEND
// 011   ----------------------------------------
seahorse_9_011:
	BYTE	W12
	BYTE		N10     Cn4   v104
	BYTE	W12
	BYTE		N22   
	BYTE	W24
	BYTE		N14   
	BYTE	W16
	BYTE		        Cs4 
	BYTE	W16
	BYTE		        Ds4 
	BYTE	W16
	BYTE	PEND
// 012   ----------------------------------------
seahorse_9_012:
	BYTE		N10     En4   v104
	BYTE	W12
	BYTE		        Ds4 
	BYTE	W24
	BYTE		N68     En4 
	BYTE	W60
	BYTE	PEND
// 013   ----------------------------------------
seahorse_9_013:
	BYTE	W12
	BYTE		N10     Cs4   v104
	BYTE	W12
	BYTE		N22   
	BYTE	W24
	BYTE		N10   
	BYTE	W12
	BYTE		N32     Ds4 
	BYTE	W36
	BYTE	PEND
// 014   ----------------------------------------
seahorse_9_014:
	BYTE		N10     En4   v104
	BYTE	W12
	BYTE		        Ds4 
	BYTE	W24
	BYTE		N22     En4 
	BYTE	W24
	BYTE		        Gs4 
	BYTE	W24
	BYTE		        Fs4 
	BYTE	W12
	BYTE	PEND
// 015   ----------------------------------------
seahorse_9_015:
	BYTE	W12
	BYTE		N10     En4   v104
	BYTE	W24
	BYTE		N22     Ds4 
	BYTE	W24
	BYTE		        Cs4 
	BYTE	W24
	BYTE		N10     Ds4 
	BYTE	W12
	BYTE	PEND
// 016   ----------------------------------------
seahorse_9_016:
	BYTE		N06     En4   v104
	BYTE	W08
	BYTE		        Fs4 
	BYTE	W08
	BYTE		        Gs4 
	BYTE	W08
	BYTE		        En4 
	BYTE	W08
	BYTE		        Fs4 
	BYTE	W08
	BYTE		        Gs4 
	BYTE	W08
	BYTE		        En4 
	BYTE	W08
	BYTE		        Fs4 
	BYTE	W08
	BYTE		        Gs4 
	BYTE	W08
	BYTE		        En4 
	BYTE	W08
	BYTE		        Fs4 
	BYTE	W08
	BYTE		        Gs4 
	BYTE	W08
	BYTE	PEND
// 017   ----------------------------------------
seahorse_9_017:
	BYTE		N56     Cs5   v104
	BYTE	W60
	BYTE		N32     Gs4 
	BYTE	W36
	BYTE	PEND
// 018   ----------------------------------------
seahorse_9_018:
	BYTE		N32     As4   v104
	BYTE	W36
	BYTE		        Bn4 
	BYTE	W36
	BYTE		N10     As4 
	BYTE	W12
	BYTE		N56     Cn5 
	BYTE	W12
	BYTE	PEND
// 019   ----------------------------------------
seahorse_9_019:
	BYTE	W48
	BYTE		N14     Cn5   v104
	BYTE	W16
	BYTE		        Cs5 
	BYTE	W16
	BYTE		        Ds5 
	BYTE	W16
	BYTE	PEND
// 020   ----------------------------------------
	BYTE		TIE     Cs5 
	BYTE	W96
// 021   ----------------------------------------
	BYTE	W92
	BYTE	W02
	BYTE		EOT   
	BYTE	W02
// 022   ----------------------------------------
seahorse_9_022:
	BYTE		N80     An4   v104
	BYTE	W84
	BYTE		N68     Fs4 
	BYTE	W12
	BYTE	PEND
// 023   ----------------------------------------
seahorse_9_023:
	BYTE	W60
	BYTE		N22     En4   v104
	BYTE	W24
	BYTE		N10     Ds4 
	BYTE	W12
	BYTE	PEND
// 024   ----------------------------------------
seahorse_9_024:
	BYTE		N06     En4   v104
	BYTE	W08
	BYTE		        Ds4 
	BYTE	W08
	BYTE		        Cs4 
	BYTE	W08
	BYTE		        En4 
	BYTE	W08
	BYTE		        Ds4 
	BYTE	W08
	BYTE		        Cs4 
	BYTE	W08
	BYTE		        En4 
	BYTE	W08
	BYTE		        Ds4 
	BYTE	W08
	BYTE		        Cs4 
	BYTE	W08
	BYTE		        En4 
	BYTE	W08
	BYTE		        Ds4 
	BYTE	W08
	BYTE		        Cs4 
	BYTE	W08
	BYTE	PEND
// 025   ----------------------------------------
	BYTE	PATT
	 POIN2	seahorse_9_024
// 026   ----------------------------------------
seahorse_9_026:
	BYTE		N06     Fs4   v104
	BYTE	W08
	BYTE		        En4 
	BYTE	W08
	BYTE		        Ds4 
	BYTE	W08
	BYTE		N06   
	BYTE	W08
	BYTE		        Cs4 
	BYTE	W08
	BYTE		        Cn4 
	BYTE	W08
	BYTE		N14   
	BYTE	W16
	BYTE		        Cs4 
	BYTE	W16
	BYTE		        Ds4 
	BYTE	W16
	BYTE	PEND
// 027   ----------------------------------------
seahorse_9_027:
	BYTE		N14     Ds4   v104
	BYTE	W16
	BYTE		        En4 
	BYTE	W16
	BYTE		        Fs4 
	BYTE	W16
	BYTE		N14   
	BYTE	W16
	BYTE		        En4 
	BYTE	W16
	BYTE		        Ds4 
	BYTE	W16
	BYTE	PEND
// 028   ----------------------------------------
	BYTE		TIE     Fs4 
	BYTE	W96
// 029   ----------------------------------------
	BYTE	W44
	BYTE	W02
	BYTE		EOT   
	BYTE	W02
	BYTE		N14   
	BYTE	W16
	BYTE		        Gs4 
	BYTE	W16
	BYTE		        Fs4 
	BYTE	W16
// 030   ----------------------------------------
	BYTE		N96     Fn4 
	BYTE	W96
// 031   ----------------------------------------
seahorse_9_031:
	BYTE	W12
	BYTE		N10     En4   v104
	BYTE	W12
	BYTE		        Ds4 
	BYTE	W12
	BYTE		        Cs4 
	BYTE	W12
	BYTE		        Gs3 
	BYTE	W12
	BYTE		N22     Fs3 
	BYTE	W24
	BYTE		N10     En3 
	BYTE	W12
	BYTE	PEND
// 032   ----------------------------------------
	BYTE		PAN     c_v+7
	BYTE		VOL     127*seahorse_mvl/mxv
	BYTE	W96
// 033   ----------------------------------------
	BYTE	W96
// 034   ----------------------------------------
	BYTE	W96
// 035   ----------------------------------------
	BYTE	W96
// 036   ----------------------------------------
	BYTE	PATT
	 POIN2	seahorse_9_004
// 037   ----------------------------------------
	BYTE	PATT
	 POIN2	seahorse_9_005
// 038   ----------------------------------------
	BYTE	PATT
	 POIN2	seahorse_9_006
// 039   ----------------------------------------
	BYTE	PATT
	 POIN2	seahorse_9_007
// 040   ----------------------------------------
	BYTE	PATT
	 POIN2	seahorse_9_008
// 041   ----------------------------------------
	BYTE	PATT
	 POIN2	seahorse_9_009
// 042   ----------------------------------------
	BYTE	PATT
	 POIN2	seahorse_9_010
// 043   ----------------------------------------
	BYTE	PATT
	 POIN2	seahorse_9_011
// 044   ----------------------------------------
	BYTE	PATT
	 POIN2	seahorse_9_012
// 045   ----------------------------------------
	BYTE	PATT
	 POIN2	seahorse_9_013
// 046   ----------------------------------------
	BYTE	PATT
	 POIN2	seahorse_9_014
// 047   ----------------------------------------
	BYTE	PATT
	 POIN2	seahorse_9_015
// 048   ----------------------------------------
	BYTE	PATT
	 POIN2	seahorse_9_016
// 049   ----------------------------------------
	BYTE	PATT
	 POIN2	seahorse_9_017
// 050   ----------------------------------------
	BYTE	PATT
	 POIN2	seahorse_9_018
// 051   ----------------------------------------
	BYTE	PATT
	 POIN2	seahorse_9_019
// 052   ----------------------------------------
	BYTE		TIE     Cs5   v104
	BYTE	W96
// 053   ----------------------------------------
	BYTE	W92
	BYTE	W02
	BYTE		EOT   
	BYTE	W02
// 054   ----------------------------------------
	BYTE	PATT
	 POIN2	seahorse_9_022
// 055   ----------------------------------------
	BYTE	PATT
	 POIN2	seahorse_9_023
// 056   ----------------------------------------
	BYTE	PATT
	 POIN2	seahorse_9_024
// 057   ----------------------------------------
	BYTE	PATT
	 POIN2	seahorse_9_024
// 058   ----------------------------------------
	BYTE	PATT
	 POIN2	seahorse_9_026
// 059   ----------------------------------------
	BYTE	PATT
	 POIN2	seahorse_9_027
// 060   ----------------------------------------
	BYTE		TIE     Fs4   v104
	BYTE	W96
// 061   ----------------------------------------
	BYTE	W44
	BYTE	W02
	BYTE		EOT   
	BYTE	W02
	BYTE		N14   
	BYTE	W16
	BYTE		        Gs4 
	BYTE	W16
	BYTE		        Fs4 
	BYTE	W16
// 062   ----------------------------------------
	BYTE		N96     Fn4 
	BYTE	W96
// 063   ----------------------------------------
	BYTE	PATT
	 POIN2	seahorse_9_031
// 064   ----------------------------------------
	BYTE		PAN     c_v+7
	BYTE		VOL     127*seahorse_mvl/mxv
	BYTE	W96
// 065   ----------------------------------------
	BYTE	W96
// 066   ----------------------------------------
	BYTE	W96
// 067   ----------------------------------------
	BYTE	W92
	BYTE	W03
	BYTE		        126*seahorse_mvl/mxv
	BYTE	W01
// 068   ----------------------------------------
	BYTE		N44     Gs3   v104
	BYTE	W05
	BYTE		VOL     125*seahorse_mvl/mxv
	BYTE	W06
	BYTE		        124*seahorse_mvl/mxv
	BYTE	W06
	BYTE		        123*seahorse_mvl/mxv
	BYTE	W06
	BYTE		        122*seahorse_mvl/mxv
	BYTE	W06
	BYTE		        121*seahorse_mvl/mxv
	BYTE	W06
	BYTE		        120*seahorse_mvl/mxv
	BYTE	W06
	BYTE		        119*seahorse_mvl/mxv
	BYTE	W06
	BYTE		        118*seahorse_mvl/mxv
	BYTE	W01
	BYTE		N22     Cs4 
	BYTE	W06
	BYTE		VOL     117*seahorse_mvl/mxv
	BYTE	W06
	BYTE		        116*seahorse_mvl/mxv
	BYTE	W06
	BYTE		        115*seahorse_mvl/mxv
	BYTE	W06
	BYTE		        114*seahorse_mvl/mxv
	BYTE		N10     Gs3 
	BYTE	W06
	BYTE		VOL     113*seahorse_mvl/mxv
	BYTE	W06
	BYTE		        112*seahorse_mvl/mxv
	BYTE		N22     En4 
	BYTE	W06
	BYTE		VOL     111*seahorse_mvl/mxv
	BYTE	W06
// 069   ----------------------------------------
	BYTE		        110*seahorse_mvl/mxv
	BYTE	W06
	BYTE		        109*seahorse_mvl/mxv
	BYTE	W06
	BYTE		        108*seahorse_mvl/mxv
	BYTE		N10     Ds4 
	BYTE	W07
	BYTE		VOL     107*seahorse_mvl/mxv
	BYTE	W05
	BYTE		N22     Cs4 
	BYTE	W01
	BYTE		VOL     106*seahorse_mvl/mxv
	BYTE	W06
	BYTE		        105*seahorse_mvl/mxv
	BYTE	W06
	BYTE		        104*seahorse_mvl/mxv
	BYTE	W06
	BYTE		        103*seahorse_mvl/mxv
	BYTE	W05
	BYTE		N10   
	BYTE	W01
	BYTE		VOL     102*seahorse_mvl/mxv
	BYTE	W06
	BYTE		        101*seahorse_mvl/mxv
	BYTE	W05
	BYTE		N10     Bn3 
	BYTE	W01
	BYTE		VOL     100*seahorse_mvl/mxv
	BYTE	W06
	BYTE		        99*seahorse_mvl/mxv
	BYTE	W06
	BYTE		        98*seahorse_mvl/mxv
	BYTE	W06
	BYTE		        97*seahorse_mvl/mxv
	BYTE	W05
	BYTE		N68     Cs4 
	BYTE	W02
	BYTE		VOL     96*seahorse_mvl/mxv
	BYTE	W06
	BYTE		        95*seahorse_mvl/mxv
	BYTE	W04
// 070   ----------------------------------------
	BYTE	W02
	BYTE		        94*seahorse_mvl/mxv
	BYTE	W06
	BYTE		        93*seahorse_mvl/mxv
	BYTE	W06
	BYTE		        92*seahorse_mvl/mxv
	BYTE	W06
	BYTE		        91*seahorse_mvl/mxv
	BYTE	W06
	BYTE		        90*seahorse_mvl/mxv
	BYTE	W06
	BYTE		        89*seahorse_mvl/mxv
	BYTE	W06
	BYTE		        88*seahorse_mvl/mxv
	BYTE	W06
	BYTE		        87*seahorse_mvl/mxv
	BYTE	W07
	BYTE		        86*seahorse_mvl/mxv
	BYTE	W06
	BYTE		        85*seahorse_mvl/mxv
	BYTE	W03
	BYTE		N22     Gs3 
	BYTE	W03
	BYTE		VOL     84*seahorse_mvl/mxv
	BYTE	W06
	BYTE		        83*seahorse_mvl/mxv
	BYTE	W06
	BYTE		        82*seahorse_mvl/mxv
	BYTE	W06
	BYTE		        81*seahorse_mvl/mxv
	BYTE	W03
	BYTE		N10     Fs3 
	BYTE	W03
	BYTE		VOL     80*seahorse_mvl/mxv
	BYTE	W06
	BYTE		        79*seahorse_mvl/mxv
	BYTE	W03
// 071   ----------------------------------------
	BYTE		N10     En3 
	BYTE	W03
	BYTE		VOL     78*seahorse_mvl/mxv
	BYTE	W06
	BYTE		        77*seahorse_mvl/mxv
	BYTE	W03
	BYTE		N10     Ds3 
	BYTE	W03
	BYTE		VOL     76*seahorse_mvl/mxv
	BYTE	W07
	BYTE		        75*seahorse_mvl/mxv
	BYTE	W06
	BYTE		        74*seahorse_mvl/mxv
	BYTE	W06
	BYTE		        73*seahorse_mvl/mxv
	BYTE	W02
	BYTE		N22     Cs3 
	BYTE	W04
	BYTE		VOL     72*seahorse_mvl/mxv
	BYTE	W06
	BYTE		        71*seahorse_mvl/mxv
	BYTE	W06
	BYTE		        70*seahorse_mvl/mxv
	BYTE	W06
	BYTE		        69*seahorse_mvl/mxv
	BYTE	W02
	BYTE		N22     Ds3 
	BYTE	W04
	BYTE		VOL     68*seahorse_mvl/mxv
	BYTE	W06
	BYTE		        67*seahorse_mvl/mxv
	BYTE	W06
	BYTE		        66*seahorse_mvl/mxv
	BYTE	W07
	BYTE		        65*seahorse_mvl/mxv
	BYTE	W01
	BYTE		N32     En3 
	BYTE	W05
	BYTE		VOL     64*seahorse_mvl/mxv
	BYTE	W06
	BYTE		        63*seahorse_mvl/mxv
	BYTE	W01
// 072   ----------------------------------------
	BYTE	W05
	BYTE		        62*seahorse_mvl/mxv
	BYTE	W06
	BYTE		        61*seahorse_mvl/mxv
	BYTE	W06
	BYTE		        60*seahorse_mvl/mxv
	BYTE	W06
	BYTE		        59*seahorse_mvl/mxv
	BYTE	W01
	BYTE		N22     Fs3 
	BYTE	W05
	BYTE		VOL     58*seahorse_mvl/mxv
	BYTE	W06
	BYTE		        57*seahorse_mvl/mxv
	BYTE	W06
	BYTE		        56*seahorse_mvl/mxv
	BYTE	W06
	BYTE		        55*seahorse_mvl/mxv
	BYTE	W01
	BYTE		N22     Gs3 
	BYTE	W06
	BYTE		VOL     54*seahorse_mvl/mxv
	BYTE	W06
	BYTE		        53*seahorse_mvl/mxv
	BYTE	W06
	BYTE		        52*seahorse_mvl/mxv
	BYTE	W06
	BYTE		        51*seahorse_mvl/mxv
	BYTE		N10     An3 
	BYTE	W06
	BYTE		VOL     50*seahorse_mvl/mxv
	BYTE	W06
	BYTE		        49*seahorse_mvl/mxv
	BYTE		N22     Cs4 
	BYTE	W06
	BYTE		VOL     48*seahorse_mvl/mxv
	BYTE	W06
// 073   ----------------------------------------
	BYTE		        47*seahorse_mvl/mxv
	BYTE	W06
	BYTE		        46*seahorse_mvl/mxv
	BYTE	W06
	BYTE		        45*seahorse_mvl/mxv
	BYTE		N10     Gs4 
	BYTE	W07
	BYTE		VOL     44*seahorse_mvl/mxv
	BYTE	W06
	BYTE		        43*seahorse_mvl/mxv
	BYTE	W06
	BYTE		        42*seahorse_mvl/mxv
	BYTE	W05
	BYTE		N10   
	BYTE	W01
	BYTE		VOL     41*seahorse_mvl/mxv
	BYTE	W06
	BYTE		        40*seahorse_mvl/mxv
	BYTE	W05
	BYTE		N16   
	BYTE	W01
	BYTE		VOL     39*seahorse_mvl/mxv
	BYTE	W06
	BYTE		        38*seahorse_mvl/mxv
	BYTE	W06
	BYTE		        37*seahorse_mvl/mxv
	BYTE	W05
	BYTE		N16     Fs4 
	BYTE	W01
	BYTE		VOL     36*seahorse_mvl/mxv
	BYTE	W06
	BYTE		        35*seahorse_mvl/mxv
	BYTE	W06
	BYTE		        34*seahorse_mvl/mxv
	BYTE	W05
	BYTE		N10     En4 
	BYTE	W02
	BYTE		VOL     33*seahorse_mvl/mxv
	BYTE	W06
	BYTE		        32*seahorse_mvl/mxv
	BYTE	W04
// 074   ----------------------------------------
	BYTE		N44     Ds4 
	BYTE	W02
	BYTE		VOL     31*seahorse_mvl/mxv
	BYTE	W06
	BYTE		        30*seahorse_mvl/mxv
	BYTE	W06
	BYTE		        29*seahorse_mvl/mxv
	BYTE	W06
	BYTE		        28*seahorse_mvl/mxv
	BYTE	W06
	BYTE		        27*seahorse_mvl/mxv
	BYTE	W06
	BYTE		        26*seahorse_mvl/mxv
	BYTE	W06
	BYTE		        25*seahorse_mvl/mxv
	BYTE	W06
	BYTE		        24*seahorse_mvl/mxv
	BYTE	W04
	BYTE		N22     Fs4 
	BYTE	W03
	BYTE		VOL     23*seahorse_mvl/mxv
	BYTE	W06
	BYTE		        22*seahorse_mvl/mxv
	BYTE	W06
	BYTE		        21*seahorse_mvl/mxv
	BYTE	W06
	BYTE		        20*seahorse_mvl/mxv
	BYTE	W03
	BYTE		N10     En4 
	BYTE	W03
	BYTE		VOL     19*seahorse_mvl/mxv
	BYTE	W06
	BYTE		        18*seahorse_mvl/mxv
	BYTE	W03
	BYTE		N22     Ds4 
	BYTE	W03
	BYTE		VOL     17*seahorse_mvl/mxv
	BYTE	W06
	BYTE		        16*seahorse_mvl/mxv
	BYTE	W03
// 075   ----------------------------------------
	BYTE	W03
	BYTE		        15*seahorse_mvl/mxv
	BYTE	W06
	BYTE		        14*seahorse_mvl/mxv
	BYTE	W03
	BYTE		N10     Cn4 
	BYTE	W03
	BYTE		VOL     13*seahorse_mvl/mxv
	BYTE	W07
	BYTE		        12*seahorse_mvl/mxv
	BYTE	W02
	BYTE		N22   
	BYTE	W04
	BYTE		VOL     11*seahorse_mvl/mxv
	BYTE	W06
	BYTE		        10*seahorse_mvl/mxv
	BYTE	W06
	BYTE		        9*seahorse_mvl/mxv
	BYTE	W06
	BYTE		        8*seahorse_mvl/mxv
	BYTE	W02
	BYTE		N14   
	BYTE	W04
	BYTE		VOL     7*seahorse_mvl/mxv
	BYTE	W06
	BYTE		        6*seahorse_mvl/mxv
	BYTE	W06
	BYTE		        5*seahorse_mvl/mxv
	BYTE		N14     Cs4 
	BYTE	W06
	BYTE		VOL     4*seahorse_mvl/mxv
	BYTE	W06
	BYTE		        3*seahorse_mvl/mxv
	BYTE	W04
	BYTE		N14     Ds4 
	BYTE	W03
	BYTE		VOL     2*seahorse_mvl/mxv
	BYTE	W06
	BYTE		        1*seahorse_mvl/mxv
	BYTE	W07
// 076   ----------------------------------------
	BYTE	FINE

//**************** Track 10 (Midi-Chn.11) ****************//

seahorse_10:
	BYTE	KEYSH   seahorse_key+0
// 000   ----------------------------------------
	BYTE		VOICE   40
	BYTE		VOL     77*seahorse_mvl/mxv
	BYTE		PAN     c_v-20
	BYTE	W96
// 001   ----------------------------------------
	BYTE	W96
// 002   ----------------------------------------
	BYTE	W96
// 003   ----------------------------------------
	BYTE	W96
// 004   ----------------------------------------
seahorse_10_004:
	BYTE	W12
	BYTE		N44     Gs3   v104
	BYTE	W48
	BYTE		N22     Cs4 
	BYTE	W24
	BYTE		N10     Gs3 
	BYTE	W12
	BYTE	PEND
// 005   ----------------------------------------
seahorse_10_005:
	BYTE		N22     En4   v104
	BYTE	W24
	BYTE		N10     Ds4 
	BYTE	W12
	BYTE		N22     Cs4 
	BYTE	W24
	BYTE		N10   
	BYTE	W12
	BYTE		        Bn3 
	BYTE	W24
	BYTE	PEND
// 006   ----------------------------------------
seahorse_10_006:
	BYTE		N68     Cs4   v104
	BYTE	W72
	BYTE		N22     Gs3 
	BYTE	W24
	BYTE	PEND
// 007   ----------------------------------------
seahorse_10_007:
	BYTE		N10     Fs3   v104
	BYTE	W12
	BYTE		        En3 
	BYTE	W12
	BYTE		        Ds3 
	BYTE	W24
	BYTE		N22     Cs3 
	BYTE	W24
	BYTE		        Ds3 
	BYTE	W24
	BYTE	PEND
// 008   ----------------------------------------
seahorse_10_008:
	BYTE		N32     En3   v104
	BYTE	W36
	BYTE		N22     Fs3 
	BYTE	W24
	BYTE		        Gs3 
	BYTE	W24
	BYTE		N10     An3 
	BYTE	W12
	BYTE	PEND
// 009   ----------------------------------------
seahorse_10_009:
	BYTE		N22     Cs4   v104
	BYTE	W24
	BYTE		N10     Gs4 
	BYTE	W24
	BYTE		N10   
	BYTE	W12
	BYTE		N16   
	BYTE	W18
	BYTE		        Fs4 
	BYTE	W18
	BYTE	PEND
// 010   ----------------------------------------
seahorse_10_010:
	BYTE		N10     En4   v104
	BYTE	W12
	BYTE		N44     Ds4 
	BYTE	W48
	BYTE		N22     Fs4 
	BYTE	W24
	BYTE		N10     En4 
	BYTE	W12
	BYTE	PEND
// 011   ----------------------------------------
seahorse_10_011:
	BYTE		N22     Ds4   v104
	BYTE	W24
	BYTE		N10     Cn4 
	BYTE	W12
	BYTE		N22   
	BYTE	W24
	BYTE		N14   
	BYTE	W16
	BYTE		        Cs4 
	BYTE	W16
	BYTE		        Ds4 
	BYTE	W04
	BYTE	PEND
// 012   ----------------------------------------
seahorse_10_012:
	BYTE	W12
	BYTE		N10     En4   v104
	BYTE	W12
	BYTE		        Ds4 
	BYTE	W24
	BYTE		N68     En4 
	BYTE	W48
	BYTE	PEND
// 013   ----------------------------------------
seahorse_10_013:
	BYTE	W24
	BYTE		N10     Cs4   v104
	BYTE	W12
	BYTE		N22   
	BYTE	W24
	BYTE		N10   
	BYTE	W12
	BYTE		N32     Ds4 
	BYTE	W24
	BYTE	PEND
// 014   ----------------------------------------
seahorse_10_014:
	BYTE	W12
	BYTE		N10     En4   v104
	BYTE	W12
	BYTE		        Ds4 
	BYTE	W24
	BYTE		N22     En4 
	BYTE	W24
	BYTE		        Gs4 
	BYTE	W24
	BYTE	PEND
// 015   ----------------------------------------
seahorse_10_015:
	BYTE		N22     Fs4   v104
	BYTE	W24
	BYTE		N10     En4 
	BYTE	W24
	BYTE		N22     Ds4 
	BYTE	W24
	BYTE		        Cs4 
	BYTE	W24
	BYTE	PEND
// 016   ----------------------------------------
seahorse_10_016:
	BYTE		N10     Ds4   v104
	BYTE	W12
	BYTE		N06     En4 
	BYTE	W08
	BYTE		        Fs4 
	BYTE	W08
	BYTE		        Gs4 
	BYTE	W08
	BYTE		        En4 
	BYTE	W08
	BYTE		        Fs4 
	BYTE	W08
	BYTE		        Gs4 
	BYTE	W08
	BYTE		        En4 
	BYTE	W08
	BYTE		        Fs4 
	BYTE	W08
	BYTE		        Gs4 
	BYTE	W08
	BYTE		        En4 
	BYTE	W08
	BYTE		        Fs4 
	BYTE	W04
	BYTE	PEND
// 017   ----------------------------------------
seahorse_10_017:
	BYTE	W04
	BYTE		N06     Gs4   v104
	BYTE	W08
	BYTE		N56     Cs5 
	BYTE	W60
	BYTE		N32     Gs4 
	BYTE	W24
	BYTE	PEND
// 018   ----------------------------------------
seahorse_10_018:
	BYTE	W12
	BYTE		N32     As4   v104
	BYTE	W36
	BYTE		        Bn4 
	BYTE	W36
	BYTE		N10     As4 
	BYTE	W12
	BYTE	PEND
// 019   ----------------------------------------
seahorse_10_019:
	BYTE		N56     Cn5   v104
	BYTE	W60
	BYTE		N14   
	BYTE	W16
	BYTE		        Cs5 
	BYTE	W16
	BYTE		        Ds5 
	BYTE	W04
	BYTE	PEND
// 020   ----------------------------------------
seahorse_10_020:
	BYTE	W12
	BYTE		TIE     Cs5   v104
	BYTE	W84
	BYTE	PEND
// 021   ----------------------------------------
	BYTE	W96
// 022   ----------------------------------------
	BYTE	W10
	BYTE		EOT   
	BYTE	W02
	BYTE		N80     An4 
	BYTE	W84
// 023   ----------------------------------------
seahorse_10_023:
	BYTE		N68     Fs4   v104
	BYTE	W72
	BYTE		N22     En4 
	BYTE	W24
	BYTE	PEND
// 024   ----------------------------------------
seahorse_10_024:
	BYTE		N10     Ds4   v104
	BYTE	W12
	BYTE		N06     En4 
	BYTE	W08
	BYTE		        Ds4 
	BYTE	W08
	BYTE		        Cs4 
	BYTE	W08
	BYTE		        En4 
	BYTE	W08
	BYTE		        Ds4 
	BYTE	W08
	BYTE		        Cs4 
	BYTE	W08
	BYTE		        En4 
	BYTE	W08
	BYTE		        Ds4 
	BYTE	W08
	BYTE		        Cs4 
	BYTE	W08
	BYTE		        En4 
	BYTE	W08
	BYTE		        Ds4 
	BYTE	W04
	BYTE	PEND
// 025   ----------------------------------------
seahorse_10_025:
	BYTE	W04
	BYTE		N06     Cs4   v104
	BYTE	W08
	BYTE		        En4 
	BYTE	W08
	BYTE		        Ds4 
	BYTE	W08
	BYTE		        Cs4 
	BYTE	W08
	BYTE		        En4 
	BYTE	W08
	BYTE		        Ds4 
	BYTE	W08
	BYTE		        Cs4 
	BYTE	W08
	BYTE		        En4 
	BYTE	W08
	BYTE		        Ds4 
	BYTE	W08
	BYTE		        Cs4 
	BYTE	W08
	BYTE		        En4 
	BYTE	W08
	BYTE		        Ds4 
	BYTE	W04
	BYTE	PEND
// 026   ----------------------------------------
seahorse_10_026:
	BYTE	W04
	BYTE		N06     Cs4   v104
	BYTE	W08
	BYTE		        Fs4 
	BYTE	W08
	BYTE		        En4 
	BYTE	W08
	BYTE		        Ds4 
	BYTE	W08
	BYTE		N06   
	BYTE	W08
	BYTE		        Cs4 
	BYTE	W08
	BYTE		        Cn4 
	BYTE	W08
	BYTE		N14   
	BYTE	W16
	BYTE		        Cs4 
	BYTE	W16
	BYTE		        Ds4 
	BYTE	W04
	BYTE	PEND
// 027   ----------------------------------------
seahorse_10_027:
	BYTE	W12
	BYTE		N14     Ds4   v104
	BYTE	W16
	BYTE		        En4 
	BYTE	W16
	BYTE		        Fs4 
	BYTE	W16
	BYTE		N14   
	BYTE	W16
	BYTE		        En4 
	BYTE	W16
	BYTE		        Ds4 
	BYTE	W04
	BYTE	PEND
// 028   ----------------------------------------
seahorse_10_028:
	BYTE	W12
	BYTE		TIE     Fs4   v104
	BYTE	W84
	BYTE	PEND
// 029   ----------------------------------------
	BYTE	W56
	BYTE	W02
	BYTE		EOT   
	BYTE	W02
	BYTE		N14   
	BYTE	W16
	BYTE		        Gs4 
	BYTE	W16
	BYTE		        Fs4 
	BYTE	W04
// 030   ----------------------------------------
	BYTE	W12
	BYTE		N96     Fn4 
	BYTE	W84
// 031   ----------------------------------------
seahorse_10_031:
	BYTE	W24
	BYTE		N10     En4   v104
	BYTE	W12
	BYTE		        Ds4 
	BYTE	W12
	BYTE		        Cs4 
	BYTE	W12
	BYTE		        Gs3 
	BYTE	W12
	BYTE		N22     Fs3 
	BYTE	W24
	BYTE	PEND
// 032   ----------------------------------------
seahorse_10_032:
	BYTE		VOL     77*seahorse_mvl/mxv
	BYTE		PAN     c_v-20
	BYTE		N10     En3   v104
	BYTE	W96
	BYTE	PEND
// 033   ----------------------------------------
	BYTE	W96
// 034   ----------------------------------------
	BYTE	W96
// 035   ----------------------------------------
	BYTE	W96
// 036   ----------------------------------------
	BYTE	PATT
	 POIN2	seahorse_10_004
// 037   ----------------------------------------
	BYTE	PATT
	 POIN2	seahorse_10_005
// 038   ----------------------------------------
	BYTE	PATT
	 POIN2	seahorse_10_006
// 039   ----------------------------------------
	BYTE	PATT
	 POIN2	seahorse_10_007
// 040   ----------------------------------------
	BYTE	PATT
	 POIN2	seahorse_10_008
// 041   ----------------------------------------
	BYTE	PATT
	 POIN2	seahorse_10_009
// 042   ----------------------------------------
	BYTE	PATT
	 POIN2	seahorse_10_010
// 043   ----------------------------------------
	BYTE	PATT
	 POIN2	seahorse_10_011
// 044   ----------------------------------------
	BYTE	PATT
	 POIN2	seahorse_10_012
// 045   ----------------------------------------
	BYTE	PATT
	 POIN2	seahorse_10_013
// 046   ----------------------------------------
	BYTE	PATT
	 POIN2	seahorse_10_014
// 047   ----------------------------------------
	BYTE	PATT
	 POIN2	seahorse_10_015
// 048   ----------------------------------------
	BYTE	PATT
	 POIN2	seahorse_10_016
// 049   ----------------------------------------
	BYTE	PATT
	 POIN2	seahorse_10_017
// 050   ----------------------------------------
	BYTE	PATT
	 POIN2	seahorse_10_018
// 051   ----------------------------------------
	BYTE	PATT
	 POIN2	seahorse_10_019
// 052   ----------------------------------------
	BYTE	PATT
	 POIN2	seahorse_10_020
// 053   ----------------------------------------
	BYTE	W96
// 054   ----------------------------------------
	BYTE	W10
	BYTE		EOT     Cs5 
	BYTE	W02
	BYTE		N80     An4   v104
	BYTE	W84
// 055   ----------------------------------------
	BYTE	PATT
	 POIN2	seahorse_10_023
// 056   ----------------------------------------
	BYTE	PATT
	 POIN2	seahorse_10_024
// 057   ----------------------------------------
	BYTE	PATT
	 POIN2	seahorse_10_025
// 058   ----------------------------------------
	BYTE	PATT
	 POIN2	seahorse_10_026
// 059   ----------------------------------------
	BYTE	PATT
	 POIN2	seahorse_10_027
// 060   ----------------------------------------
	BYTE	PATT
	 POIN2	seahorse_10_028
// 061   ----------------------------------------
	BYTE	W56
	BYTE	W02
	BYTE		EOT     Fs4 
	BYTE	W02
	BYTE		N14     Fs4   v104
	BYTE	W16
	BYTE		        Gs4 
	BYTE	W16
	BYTE		        Fs4 
	BYTE	W04
// 062   ----------------------------------------
	BYTE	W12
	BYTE		N96     Fn4 
	BYTE	W84
// 063   ----------------------------------------
	BYTE	PATT
	 POIN2	seahorse_10_031
// 064   ----------------------------------------
	BYTE	PATT
	 POIN2	seahorse_10_032
// 065   ----------------------------------------
	BYTE	W96
// 066   ----------------------------------------
	BYTE	W96
// 067   ----------------------------------------
	BYTE	W96
// 068   ----------------------------------------
	BYTE		VOL     76*seahorse_mvl/mxv
	BYTE	W10
	BYTE		        75*seahorse_mvl/mxv
	BYTE	W02
	BYTE		N44     Gs3   v104
	BYTE	W09
	BYTE		VOL     74*seahorse_mvl/mxv
	BYTE	W10
	BYTE		        73*seahorse_mvl/mxv
	BYTE	W10
	BYTE		        72*seahorse_mvl/mxv
	BYTE	W10
	BYTE		        71*seahorse_mvl/mxv
	BYTE	W09
	BYTE		N22     Cs4 
	BYTE	W01
	BYTE		VOL     70*seahorse_mvl/mxv
	BYTE	W10
	BYTE		        69*seahorse_mvl/mxv
	BYTE	W10
	BYTE		        68*seahorse_mvl/mxv
	BYTE	W03
	BYTE		N10     Gs3 
	BYTE	W07
	BYTE		VOL     67*seahorse_mvl/mxv
	BYTE	W05
// 069   ----------------------------------------
	BYTE		N22     En4 
	BYTE	W05
	BYTE		VOL     66*seahorse_mvl/mxv
	BYTE	W10
	BYTE		        65*seahorse_mvl/mxv
	BYTE	W09
	BYTE		N10     Ds4 
	BYTE	W02
	BYTE		VOL     64*seahorse_mvl/mxv
	BYTE	W10
	BYTE		        63*seahorse_mvl/mxv
	BYTE		N22     Cs4 
	BYTE	W10
	BYTE		VOL     62*seahorse_mvl/mxv
	BYTE	W10
	BYTE		        61*seahorse_mvl/mxv
	BYTE	W04
	BYTE		N10   
	BYTE	W06
	BYTE		VOL     60*seahorse_mvl/mxv
	BYTE	W06
	BYTE		N10     Bn3 
	BYTE	W04
	BYTE		VOL     59*seahorse_mvl/mxv
	BYTE	W10
	BYTE		        58*seahorse_mvl/mxv
	BYTE	W10
// 070   ----------------------------------------
	BYTE		        57*seahorse_mvl/mxv
	BYTE		N68     Cs4 
	BYTE	W10
	BYTE		VOL     56*seahorse_mvl/mxv
	BYTE	W11
	BYTE		        55*seahorse_mvl/mxv
	BYTE	W10
	BYTE		        54*seahorse_mvl/mxv
	BYTE	W10
	BYTE		        53*seahorse_mvl/mxv
	BYTE	W10
	BYTE		        52*seahorse_mvl/mxv
	BYTE	W10
	BYTE		        51*seahorse_mvl/mxv
	BYTE	W10
	BYTE		        50*seahorse_mvl/mxv
	BYTE	W01
	BYTE		N22     Gs3 
	BYTE	W09
	BYTE		VOL     49*seahorse_mvl/mxv
	BYTE	W10
	BYTE		        48*seahorse_mvl/mxv
	BYTE	W05
// 071   ----------------------------------------
	BYTE		N10     Fs3 
	BYTE	W05
	BYTE		VOL     47*seahorse_mvl/mxv
	BYTE	W07
	BYTE		N10     En3 
	BYTE	W03
	BYTE		VOL     46*seahorse_mvl/mxv
	BYTE	W09
	BYTE		N10     Ds3 
	BYTE	W02
	BYTE		VOL     45*seahorse_mvl/mxv
	BYTE	W10
	BYTE		        44*seahorse_mvl/mxv
	BYTE	W10
	BYTE		        43*seahorse_mvl/mxv
	BYTE	W02
	BYTE		N22     Cs3 
	BYTE	W08
	BYTE		VOL     42*seahorse_mvl/mxv
	BYTE	W10
	BYTE		        41*seahorse_mvl/mxv
	BYTE	W06
	BYTE		N22     Ds3 
	BYTE	W04
	BYTE		VOL     40*seahorse_mvl/mxv
	BYTE	W10
	BYTE		        39*seahorse_mvl/mxv
	BYTE	W10
// 072   ----------------------------------------
	BYTE		        38*seahorse_mvl/mxv
	BYTE		N32     En3 
	BYTE	W10
	BYTE		VOL     37*seahorse_mvl/mxv
	BYTE	W11
	BYTE		        36*seahorse_mvl/mxv
	BYTE	W10
	BYTE		        35*seahorse_mvl/mxv
	BYTE	W05
	BYTE		N22     Fs3 
	BYTE	W05
	BYTE		VOL     34*seahorse_mvl/mxv
	BYTE	W10
	BYTE		        33*seahorse_mvl/mxv
	BYTE	W09
	BYTE		N22     Gs3 
	BYTE	W01
	BYTE		VOL     32*seahorse_mvl/mxv
	BYTE	W10
	BYTE		        31*seahorse_mvl/mxv
	BYTE	W10
	BYTE		        30*seahorse_mvl/mxv
	BYTE	W03
	BYTE		N10     An3 
	BYTE	W07
	BYTE		VOL     29*seahorse_mvl/mxv
	BYTE	W05
// 073   ----------------------------------------
	BYTE		N22     Cs4 
	BYTE	W05
	BYTE		VOL     28*seahorse_mvl/mxv
	BYTE	W10
	BYTE		        27*seahorse_mvl/mxv
	BYTE	W09
	BYTE		N10     Gs4 
	BYTE	W02
	BYTE		VOL     26*seahorse_mvl/mxv
	BYTE	W10
	BYTE		        25*seahorse_mvl/mxv
	BYTE	W10
	BYTE		        24*seahorse_mvl/mxv
	BYTE	W02
	BYTE		N10   
	BYTE	W08
	BYTE		VOL     23*seahorse_mvl/mxv
	BYTE	W04
	BYTE		N16   
	BYTE	W06
	BYTE		VOL     22*seahorse_mvl/mxv
	BYTE	W10
	BYTE		        21*seahorse_mvl/mxv
	BYTE	W02
	BYTE		N16     Fs4 
	BYTE	W08
	BYTE		VOL     20*seahorse_mvl/mxv
	BYTE	W10
// 074   ----------------------------------------
	BYTE		        19*seahorse_mvl/mxv
	BYTE		N10     En4 
	BYTE	W10
	BYTE		VOL     18*seahorse_mvl/mxv
	BYTE	W02
	BYTE		N44     Ds4 
	BYTE	W09
	BYTE		VOL     17*seahorse_mvl/mxv
	BYTE	W10
	BYTE		        16*seahorse_mvl/mxv
	BYTE	W10
	BYTE		        15*seahorse_mvl/mxv
	BYTE	W10
	BYTE		        14*seahorse_mvl/mxv
	BYTE	W09
	BYTE		N22     Fs4 
	BYTE	W01
	BYTE		VOL     13*seahorse_mvl/mxv
	BYTE	W10
	BYTE		        12*seahorse_mvl/mxv
	BYTE	W10
	BYTE		        11*seahorse_mvl/mxv
	BYTE	W03
	BYTE		N10     En4 
	BYTE	W07
	BYTE		VOL     10*seahorse_mvl/mxv
	BYTE	W05
// 075   ----------------------------------------
	BYTE		N22     Ds4 
	BYTE	W05
	BYTE		VOL     9*seahorse_mvl/mxv
	BYTE	W10
	BYTE		        8*seahorse_mvl/mxv
	BYTE	W09
	BYTE		N10     Cn4 
	BYTE	W02
	BYTE		VOL     7*seahorse_mvl/mxv
	BYTE	W10
	BYTE		        6*seahorse_mvl/mxv
	BYTE		N22   
	BYTE	W10
	BYTE		VOL     5*seahorse_mvl/mxv
	BYTE	W10
	BYTE		        4*seahorse_mvl/mxv
	BYTE	W04
	BYTE		N14   
	BYTE	W06
	BYTE		VOL     3*seahorse_mvl/mxv
	BYTE	W10
	BYTE		        2*seahorse_mvl/mxv
	BYTE		N14     Cs4 
	BYTE	W10
	BYTE		VOL     1*seahorse_mvl/mxv
	BYTE	W10
// 076   ----------------------------------------
	BYTE	FINE

//**************** Track 11 (Midi-Chn.12) ****************//

seahorse_11:
	BYTE	KEYSH   seahorse_key+0
// 000   ----------------------------------------
	BYTE		VOICE   40
	BYTE		PAN     c_v+19
	BYTE		VOL     64*seahorse_mvl/mxv
	BYTE	W96
// 001   ----------------------------------------
	BYTE	W96
// 002   ----------------------------------------
	BYTE	W96
// 003   ----------------------------------------
	BYTE	W96
// 004   ----------------------------------------
seahorse_11_004:
	BYTE	W24
	BYTE		N44     Gs3   v104
	BYTE	W48
	BYTE		N22     Cs4 
	BYTE	W24
	BYTE	PEND
// 005   ----------------------------------------
seahorse_11_005:
	BYTE		N10     Gs3   v104
	BYTE	W12
	BYTE		N22     En4 
	BYTE	W24
	BYTE		N10     Ds4 
	BYTE	W12
	BYTE		N22     Cs4 
	BYTE	W24
	BYTE		N10   
	BYTE	W12
	BYTE		        Bn3 
	BYTE	W12
	BYTE	PEND
// 006   ----------------------------------------
seahorse_11_006:
	BYTE	W12
	BYTE		N68     Cs4   v104
	BYTE	W72
	BYTE		N22     Gs3 
	BYTE	W12
	BYTE	PEND
// 007   ----------------------------------------
seahorse_11_007:
	BYTE	W12
	BYTE		N10     Fs3   v104
	BYTE	W12
	BYTE		        En3 
	BYTE	W12
	BYTE		        Ds3 
	BYTE	W24
	BYTE		N22     Cs3 
	BYTE	W24
	BYTE		        Ds3 
	BYTE	W12
	BYTE	PEND
// 008   ----------------------------------------
seahorse_11_008:
	BYTE	W12
	BYTE		N32     En3   v104
	BYTE	W36
	BYTE		N22     Fs3 
	BYTE	W24
	BYTE		        Gs3 
	BYTE	W24
	BYTE	PEND
// 009   ----------------------------------------
seahorse_11_009:
	BYTE		N10     An3   v104
	BYTE	W12
	BYTE		N22     Cs4 
	BYTE	W24
	BYTE		N10     Gs4 
	BYTE	W24
	BYTE		N10   
	BYTE	W12
	BYTE		N16   
	BYTE	W18
	BYTE		        Fs4 
	BYTE	W06
	BYTE	PEND
// 010   ----------------------------------------
seahorse_11_010:
	BYTE	W12
	BYTE		N10     En4   v104
	BYTE	W12
	BYTE		N44     Ds4 
	BYTE	W48
	BYTE		N22     Fs4 
	BYTE	W24
	BYTE	PEND
// 011   ----------------------------------------
seahorse_11_011:
	BYTE		N10     En4   v104
	BYTE	W12
	BYTE		N22     Ds4 
	BYTE	W24
	BYTE		N10     Cn4 
	BYTE	W12
	BYTE		N22   
	BYTE	W24
	BYTE		N14   
	BYTE	W16
	BYTE		        Cs4 
	BYTE	W08
	BYTE	PEND
// 012   ----------------------------------------
seahorse_11_012:
	BYTE	W08
	BYTE		N14     Ds4   v104
	BYTE	W16
	BYTE		N10     En4 
	BYTE	W12
	BYTE		        Ds4 
	BYTE	W24
	BYTE		N68     En4 
	BYTE	W36
	BYTE	PEND
// 013   ----------------------------------------
seahorse_11_013:
	BYTE	W36
	BYTE		N10     Cs4   v104
	BYTE	W12
	BYTE		N22   
	BYTE	W24
	BYTE		N10   
	BYTE	W12
	BYTE		N32     Ds4 
	BYTE	W12
	BYTE	PEND
// 014   ----------------------------------------
seahorse_11_014:
	BYTE	W24
	BYTE		N10     En4   v104
	BYTE	W12
	BYTE		        Ds4 
	BYTE	W24
	BYTE		N22     En4 
	BYTE	W24
	BYTE		        Gs4 
	BYTE	W12
	BYTE	PEND
// 015   ----------------------------------------
seahorse_11_015:
	BYTE	W12
	BYTE		N22     Fs4   v104
	BYTE	W24
	BYTE		N10     En4 
	BYTE	W24
	BYTE		N22     Ds4 
	BYTE	W24
	BYTE		        Cs4 
	BYTE	W12
	BYTE	PEND
// 016   ----------------------------------------
seahorse_11_016:
	BYTE	W12
	BYTE		N10     Ds4   v104
	BYTE	W12
	BYTE		N06     En4 
	BYTE	W08
	BYTE		        Fs4 
	BYTE	W08
	BYTE		        Gs4 
	BYTE	W08
	BYTE		        En4 
	BYTE	W08
	BYTE		        Fs4 
	BYTE	W08
	BYTE		        Gs4 
	BYTE	W08
	BYTE		        En4 
	BYTE	W08
	BYTE		        Fs4 
	BYTE	W08
	BYTE		        Gs4 
	BYTE	W08
	BYTE	PEND
// 017   ----------------------------------------
seahorse_11_017:
	BYTE		N06     En4   v104
	BYTE	W08
	BYTE		        Fs4 
	BYTE	W08
	BYTE		        Gs4 
	BYTE	W08
	BYTE		N56     Cs5 
	BYTE	W60
	BYTE		N32     Gs4 
	BYTE	W12
	BYTE	PEND
// 018   ----------------------------------------
seahorse_11_018:
	BYTE	W24
	BYTE		N32     As4   v104
	BYTE	W36
	BYTE		        Bn4 
	BYTE	W36
	BYTE	PEND
// 019   ----------------------------------------
seahorse_11_019:
	BYTE		N10     As4   v104
	BYTE	W12
	BYTE		N56     Cn5 
	BYTE	W60
	BYTE		N14   
	BYTE	W16
	BYTE		        Cs5 
	BYTE	W08
	BYTE	PEND
// 020   ----------------------------------------
seahorse_11_020:
	BYTE	W08
	BYTE		N14     Ds5   v104
	BYTE	W16
	BYTE		TIE     Cs5 
	BYTE	W72
	BYTE	PEND
// 021   ----------------------------------------
	BYTE	W96
// 022   ----------------------------------------
	BYTE	W22
	BYTE		EOT   
	BYTE	W02
	BYTE		N80     An4 
	BYTE	W72
// 023   ----------------------------------------
seahorse_11_023:
	BYTE	W12
	BYTE		N68     Fs4   v104
	BYTE	W72
	BYTE		N22     En4 
	BYTE	W12
	BYTE	PEND
// 024   ----------------------------------------
seahorse_11_024:
	BYTE	W12
	BYTE		N10     Ds4   v104
	BYTE	W12
	BYTE		N06     En4 
	BYTE	W08
	BYTE		        Ds4 
	BYTE	W08
	BYTE		        Cs4 
	BYTE	W08
	BYTE		        En4 
	BYTE	W08
	BYTE		        Ds4 
	BYTE	W08
	BYTE		        Cs4 
	BYTE	W08
	BYTE		        En4 
	BYTE	W08
	BYTE		        Ds4 
	BYTE	W08
	BYTE		        Cs4 
	BYTE	W08
	BYTE	PEND
// 025   ----------------------------------------
seahorse_11_025:
	BYTE		N06     En4   v104
	BYTE	W08
	BYTE		        Ds4 
	BYTE	W08
	BYTE		        Cs4 
	BYTE	W08
	BYTE		        En4 
	BYTE	W08
	BYTE		        Ds4 
	BYTE	W08
	BYTE		        Cs4 
	BYTE	W08
	BYTE		        En4 
	BYTE	W08
	BYTE		        Ds4 
	BYTE	W08
	BYTE		        Cs4 
	BYTE	W08
	BYTE		        En4 
	BYTE	W08
	BYTE		        Ds4 
	BYTE	W08
	BYTE		        Cs4 
	BYTE	W08
	BYTE	PEND
// 026   ----------------------------------------
seahorse_11_026:
	BYTE		N06     En4   v104
	BYTE	W08
	BYTE		        Ds4 
	BYTE	W08
	BYTE		        Cs4 
	BYTE	W08
	BYTE		        Fs4 
	BYTE	W08
	BYTE		        En4 
	BYTE	W08
	BYTE		        Ds4 
	BYTE	W08
	BYTE		N06   
	BYTE	W08
	BYTE		        Cs4 
	BYTE	W08
	BYTE		        Cn4 
	BYTE	W08
	BYTE		N14   
	BYTE	W16
	BYTE		        Cs4 
	BYTE	W08
	BYTE	PEND
// 027   ----------------------------------------
seahorse_11_027:
	BYTE	W08
	BYTE		N14     Ds4   v104
	BYTE	W16
	BYTE		N14   
	BYTE	W16
	BYTE		        En4 
	BYTE	W16
	BYTE		        Fs4 
	BYTE	W16
	BYTE		N14   
	BYTE	W16
	BYTE		        En4 
	BYTE	W08
	BYTE	PEND
// 028   ----------------------------------------
seahorse_11_028:
	BYTE	W08
	BYTE		N14     Ds4   v104
	BYTE	W16
	BYTE		TIE     Fs4 
	BYTE	W72
	BYTE	PEND
// 029   ----------------------------------------
	BYTE	W68
	BYTE	W02
	BYTE		EOT   
	BYTE	W02
	BYTE		N14   
	BYTE	W16
	BYTE		        Gs4 
	BYTE	W08
// 030   ----------------------------------------
seahorse_11_030:
	BYTE	W08
	BYTE		N14     Fs4   v104
	BYTE	W16
	BYTE		N96     Fn4 
	BYTE	W72
	BYTE	PEND
// 031   ----------------------------------------
seahorse_11_031:
	BYTE	W36
	BYTE		N10     En4   v104
	BYTE	W12
	BYTE		        Ds4 
	BYTE	W12
	BYTE		        Cs4 
	BYTE	W12
	BYTE		        Gs3 
	BYTE	W12
	BYTE		N22     Fs3 
	BYTE	W12
	BYTE	PEND
// 032   ----------------------------------------
seahorse_11_032:
	BYTE		PAN     c_v+19
	BYTE		VOL     64*seahorse_mvl/mxv
	BYTE	W12
	BYTE		N10     En3   v104
	BYTE	W84
	BYTE	PEND
// 033   ----------------------------------------
	BYTE	W96
// 034   ----------------------------------------
	BYTE	W96
// 035   ----------------------------------------
	BYTE	W96
// 036   ----------------------------------------
	BYTE	PATT
	 POIN2	seahorse_11_004
// 037   ----------------------------------------
	BYTE	PATT
	 POIN2	seahorse_11_005
// 038   ----------------------------------------
	BYTE	PATT
	 POIN2	seahorse_11_006
// 039   ----------------------------------------
	BYTE	PATT
	 POIN2	seahorse_11_007
// 040   ----------------------------------------
	BYTE	PATT
	 POIN2	seahorse_11_008
// 041   ----------------------------------------
	BYTE	PATT
	 POIN2	seahorse_11_009
// 042   ----------------------------------------
	BYTE	PATT
	 POIN2	seahorse_11_010
// 043   ----------------------------------------
	BYTE	PATT
	 POIN2	seahorse_11_011
// 044   ----------------------------------------
	BYTE	PATT
	 POIN2	seahorse_11_012
// 045   ----------------------------------------
	BYTE	PATT
	 POIN2	seahorse_11_013
// 046   ----------------------------------------
	BYTE	PATT
	 POIN2	seahorse_11_014
// 047   ----------------------------------------
	BYTE	PATT
	 POIN2	seahorse_11_015
// 048   ----------------------------------------
	BYTE	PATT
	 POIN2	seahorse_11_016
// 049   ----------------------------------------
	BYTE	PATT
	 POIN2	seahorse_11_017
// 050   ----------------------------------------
	BYTE	PATT
	 POIN2	seahorse_11_018
// 051   ----------------------------------------
	BYTE	PATT
	 POIN2	seahorse_11_019
// 052   ----------------------------------------
	BYTE	PATT
	 POIN2	seahorse_11_020
// 053   ----------------------------------------
	BYTE	W96
// 054   ----------------------------------------
	BYTE	W22
	BYTE		EOT     Cs5 
	BYTE	W02
	BYTE		N80     An4   v104
	BYTE	W72
// 055   ----------------------------------------
	BYTE	PATT
	 POIN2	seahorse_11_023
// 056   ----------------------------------------
	BYTE	PATT
	 POIN2	seahorse_11_024
// 057   ----------------------------------------
	BYTE	PATT
	 POIN2	seahorse_11_025
// 058   ----------------------------------------
	BYTE	PATT
	 POIN2	seahorse_11_026
// 059   ----------------------------------------
	BYTE	PATT
	 POIN2	seahorse_11_027
// 060   ----------------------------------------
	BYTE	PATT
	 POIN2	seahorse_11_028
// 061   ----------------------------------------
	BYTE	W68
	BYTE	W02
	BYTE		EOT     Fs4 
	BYTE	W02
	BYTE		N14     Fs4   v104
	BYTE	W16
	BYTE		        Gs4 
	BYTE	W08
// 062   ----------------------------------------
	BYTE	PATT
	 POIN2	seahorse_11_030
// 063   ----------------------------------------
	BYTE	PATT
	 POIN2	seahorse_11_031
// 064   ----------------------------------------
	BYTE	PATT
	 POIN2	seahorse_11_032
// 065   ----------------------------------------
	BYTE	W96
// 066   ----------------------------------------
	BYTE	W96
// 067   ----------------------------------------
	BYTE	W96
// 068   ----------------------------------------
	BYTE		VOL     63*seahorse_mvl/mxv
	BYTE	W12
	BYTE		        62*seahorse_mvl/mxv
	BYTE	W12
	BYTE		N44     Gs3   v104
	BYTE	W01
	BYTE		VOL     61*seahorse_mvl/mxv
	BYTE	W12
	BYTE		        60*seahorse_mvl/mxv
	BYTE	W12
	BYTE		        59*seahorse_mvl/mxv
	BYTE	W12
	BYTE		        58*seahorse_mvl/mxv
	BYTE	W11
	BYTE		N22     Cs4 
	BYTE	W01
	BYTE		VOL     57*seahorse_mvl/mxv
	BYTE	W13
	BYTE		        56*seahorse_mvl/mxv
	BYTE	W10
// 069   ----------------------------------------
	BYTE		N10     Gs3 
	BYTE	W02
	BYTE		VOL     55*seahorse_mvl/mxv
	BYTE	W10
	BYTE		N22     En4 
	BYTE	W02
	BYTE		VOL     54*seahorse_mvl/mxv
	BYTE	W12
	BYTE		        53*seahorse_mvl/mxv
	BYTE	W10
	BYTE		N10     Ds4 
	BYTE	W02
	BYTE		VOL     52*seahorse_mvl/mxv
	BYTE	W10
	BYTE		N22     Cs4 
	BYTE	W02
	BYTE		VOL     51*seahorse_mvl/mxv
	BYTE	W13
	BYTE		        50*seahorse_mvl/mxv
	BYTE	W09
	BYTE		N10   
	BYTE	W03
	BYTE		VOL     49*seahorse_mvl/mxv
	BYTE	W09
	BYTE		N10     Bn3 
	BYTE	W03
	BYTE		VOL     48*seahorse_mvl/mxv
	BYTE	W09
// 070   ----------------------------------------
	BYTE	W03
	BYTE		        47*seahorse_mvl/mxv
	BYTE	W09
	BYTE		N68     Cs4 
	BYTE	W03
	BYTE		VOL     46*seahorse_mvl/mxv
	BYTE	W13
	BYTE		        45*seahorse_mvl/mxv
	BYTE	W12
	BYTE		        44*seahorse_mvl/mxv
	BYTE	W12
	BYTE		        43*seahorse_mvl/mxv
	BYTE	W12
	BYTE		        42*seahorse_mvl/mxv
	BYTE	W12
	BYTE		        41*seahorse_mvl/mxv
	BYTE	W08
	BYTE		N22     Gs3 
	BYTE	W04
	BYTE		VOL     40*seahorse_mvl/mxv
	BYTE	W08
// 071   ----------------------------------------
	BYTE	W05
	BYTE		        39*seahorse_mvl/mxv
	BYTE	W07
	BYTE		N10     Fs3 
	BYTE	W05
	BYTE		VOL     38*seahorse_mvl/mxv
	BYTE	W07
	BYTE		N10     En3 
	BYTE	W05
	BYTE		VOL     37*seahorse_mvl/mxv
	BYTE	W07
	BYTE		N10     Ds3 
	BYTE	W05
	BYTE		VOL     36*seahorse_mvl/mxv
	BYTE	W12
	BYTE		        35*seahorse_mvl/mxv
	BYTE	W07
	BYTE		N22     Cs3 
	BYTE	W05
	BYTE		VOL     34*seahorse_mvl/mxv
	BYTE	W13
	BYTE		        33*seahorse_mvl/mxv
	BYTE	W06
	BYTE		N22     Ds3 
	BYTE	W06
	BYTE		VOL     32*seahorse_mvl/mxv
	BYTE	W06
// 072   ----------------------------------------
	BYTE	W06
	BYTE		        31*seahorse_mvl/mxv
	BYTE	W06
	BYTE		N32     En3 
	BYTE	W06
	BYTE		VOL     30*seahorse_mvl/mxv
	BYTE	W12
	BYTE		        29*seahorse_mvl/mxv
	BYTE	W13
	BYTE		        28*seahorse_mvl/mxv
	BYTE	W05
	BYTE		N22     Fs3 
	BYTE	W07
	BYTE		VOL     27*seahorse_mvl/mxv
	BYTE	W12
	BYTE		        26*seahorse_mvl/mxv
	BYTE	W05
	BYTE		N22     Gs3 
	BYTE	W07
	BYTE		VOL     25*seahorse_mvl/mxv
	BYTE	W12
	BYTE		        24*seahorse_mvl/mxv
	BYTE	W05
// 073   ----------------------------------------
	BYTE		N10     An3 
	BYTE	W07
	BYTE		VOL     23*seahorse_mvl/mxv
	BYTE	W05
	BYTE		N22     Cs4 
	BYTE	W08
	BYTE		VOL     22*seahorse_mvl/mxv
	BYTE	W12
	BYTE		        21*seahorse_mvl/mxv
	BYTE	W04
	BYTE		N10     Gs4 
	BYTE	W08
	BYTE		VOL     20*seahorse_mvl/mxv
	BYTE	W12
	BYTE		        19*seahorse_mvl/mxv
	BYTE	W04
	BYTE		N10   
	BYTE	W08
	BYTE		VOL     18*seahorse_mvl/mxv
	BYTE	W04
	BYTE		N16   
	BYTE	W08
	BYTE		VOL     17*seahorse_mvl/mxv
	BYTE	W10
	BYTE		N16     Fs4 
	BYTE	W03
	BYTE		VOL     16*seahorse_mvl/mxv
	BYTE	W03
// 074   ----------------------------------------
	BYTE	W09
	BYTE		        15*seahorse_mvl/mxv
	BYTE	W03
	BYTE		N10     En4 
	BYTE	W09
	BYTE		VOL     14*seahorse_mvl/mxv
	BYTE	W03
	BYTE		N44     Ds4 
	BYTE	W09
	BYTE		VOL     13*seahorse_mvl/mxv
	BYTE	W12
	BYTE		        12*seahorse_mvl/mxv
	BYTE	W13
	BYTE		        11*seahorse_mvl/mxv
	BYTE	W12
	BYTE		        10*seahorse_mvl/mxv
	BYTE	W02
	BYTE		N22     Fs4 
	BYTE	W10
	BYTE		VOL     9*seahorse_mvl/mxv
	BYTE	W12
	BYTE		        8*seahorse_mvl/mxv
	BYTE	W02
// 075   ----------------------------------------
	BYTE		N10     En4 
	BYTE	W10
	BYTE		VOL     7*seahorse_mvl/mxv
	BYTE	W02
	BYTE		N22     Ds4 
	BYTE	W10
	BYTE		VOL     6*seahorse_mvl/mxv
	BYTE	W13
	BYTE		        5*seahorse_mvl/mxv
	BYTE	W01
	BYTE		N10     Cn4 
	BYTE	W11
	BYTE		VOL     4*seahorse_mvl/mxv
	BYTE	W01
	BYTE		N22   
	BYTE	W11
	BYTE		VOL     3*seahorse_mvl/mxv
	BYTE	W12
	BYTE		        2*seahorse_mvl/mxv
	BYTE	W01
	BYTE		N14   
	BYTE	W11
	BYTE		VOL     1*seahorse_mvl/mxv
	BYTE	W13
// 076   ----------------------------------------
	BYTE	FINE

//**************** Track 12 (Midi-Chn.13) ****************//

seahorse_12:
	BYTE	KEYSH   seahorse_key+0
// 000   ----------------------------------------
	BYTE		VOICE   63
	BYTE		VOL     101*seahorse_mvl/mxv
	BYTE	W96
// 001   ----------------------------------------
	BYTE	W96
// 002   ----------------------------------------
	BYTE	W96
// 003   ----------------------------------------
	BYTE	W96
// 004   ----------------------------------------
	BYTE	W96
// 005   ----------------------------------------
	BYTE	W96
// 006   ----------------------------------------
	BYTE	W96
// 007   ----------------------------------------
	BYTE	W96
// 008   ----------------------------------------
	BYTE	W96
// 009   ----------------------------------------
	BYTE	W96
// 010   ----------------------------------------
	BYTE	W96
// 011   ----------------------------------------
	BYTE	W96
// 012   ----------------------------------------
	BYTE	W96
// 013   ----------------------------------------
	BYTE	W96
// 014   ----------------------------------------
	BYTE	W96
// 015   ----------------------------------------
	BYTE	W96
// 016   ----------------------------------------
	BYTE	W96
// 017   ----------------------------------------
	BYTE	W96
// 018   ----------------------------------------
	BYTE	W96
// 019   ----------------------------------------
	BYTE	W96
// 020   ----------------------------------------
	BYTE	W96
// 021   ----------------------------------------
	BYTE	W96
// 022   ----------------------------------------
	BYTE	W96
// 023   ----------------------------------------
	BYTE	W96
// 024   ----------------------------------------
seahorse_12_024:
	BYTE		N80     Cs3   v104
	BYTE	W84
	BYTE		TIE     An2 
	BYTE	W12
	BYTE	PEND
// 025   ----------------------------------------
	BYTE	W92
	BYTE	W01
	BYTE		EOT   
	BYTE	W03
// 026   ----------------------------------------
seahorse_12_026:
	BYTE		N80     Ds3   v104
	BYTE	W84
	BYTE		N56     Cn3 
	BYTE	W12
	BYTE	PEND
// 027   ----------------------------------------
seahorse_12_027:
	BYTE	W48
	BYTE		N13     Cn3   v104
	BYTE	W16
	BYTE		        Cs3 
	BYTE	W16
	BYTE		        Ds3 
	BYTE	W16
	BYTE	PEND
// 028   ----------------------------------------
	BYTE	W96
// 029   ----------------------------------------
	BYTE	W96
// 030   ----------------------------------------
	BYTE	W96
// 031   ----------------------------------------
	BYTE	W96
// 032   ----------------------------------------
	BYTE		VOL     101*seahorse_mvl/mxv
	BYTE	W96
// 033   ----------------------------------------
	BYTE	W96
// 034   ----------------------------------------
	BYTE	W96
// 035   ----------------------------------------
	BYTE	W96
// 036   ----------------------------------------
	BYTE	W96
// 037   ----------------------------------------
	BYTE	W96
// 038   ----------------------------------------
	BYTE	W96
// 039   ----------------------------------------
	BYTE	W96
// 040   ----------------------------------------
	BYTE	W96
// 041   ----------------------------------------
	BYTE	W96
// 042   ----------------------------------------
	BYTE	W96
// 043   ----------------------------------------
	BYTE	W96
// 044   ----------------------------------------
	BYTE	W96
// 045   ----------------------------------------
	BYTE	W96
// 046   ----------------------------------------
	BYTE	W96
// 047   ----------------------------------------
	BYTE	W96
// 048   ----------------------------------------
	BYTE	W96
// 049   ----------------------------------------
	BYTE	W96
// 050   ----------------------------------------
	BYTE	W96
// 051   ----------------------------------------
	BYTE	W96
// 052   ----------------------------------------
	BYTE	W96
// 053   ----------------------------------------
	BYTE	W96
// 054   ----------------------------------------
	BYTE	W96
// 055   ----------------------------------------
	BYTE	W96
// 056   ----------------------------------------
	BYTE	PATT
	 POIN2	seahorse_12_024
// 057   ----------------------------------------
	BYTE	W92
	BYTE	W01
	BYTE		EOT     An2 
	BYTE	W03
// 058   ----------------------------------------
	BYTE	PATT
	 POIN2	seahorse_12_026
// 059   ----------------------------------------
	BYTE	PATT
	 POIN2	seahorse_12_027
// 060   ----------------------------------------
	BYTE	W96
// 061   ----------------------------------------
	BYTE	W96
// 062   ----------------------------------------
	BYTE	W96
// 063   ----------------------------------------
	BYTE	W96
// 064   ----------------------------------------
	BYTE		VOL     101*seahorse_mvl/mxv
	BYTE	W96
// 065   ----------------------------------------
	BYTE	W96
// 066   ----------------------------------------
	BYTE	W96
// 067   ----------------------------------------
	BYTE	W96
// 068   ----------------------------------------
	BYTE	W96
// 069   ----------------------------------------
	BYTE	W96
// 070   ----------------------------------------
	BYTE	W96
// 071   ----------------------------------------
	BYTE	W96
// 072   ----------------------------------------
	BYTE	W96
// 073   ----------------------------------------
	BYTE	W96
// 074   ----------------------------------------
	BYTE	W96
// 075   ----------------------------------------
	BYTE	W96
// 076   ----------------------------------------
	BYTE	FINE

//**************** Track 13 (Midi-Chn.14) ****************//

seahorse_13:
	BYTE	KEYSH   seahorse_key+0
// 000   ----------------------------------------
	BYTE		VOICE   30
	BYTE		VOL     127*seahorse_mvl/mxv
	BYTE		PAN     c_v-13
	BYTE	W96
// 001   ----------------------------------------
	BYTE	W96
// 002   ----------------------------------------
	BYTE	W96
// 003   ----------------------------------------
	BYTE	W96
// 004   ----------------------------------------
	BYTE	W96
// 005   ----------------------------------------
	BYTE	W96
// 006   ----------------------------------------
	BYTE	W96
// 007   ----------------------------------------
	BYTE	W96
// 008   ----------------------------------------
	BYTE	W96
// 009   ----------------------------------------
	BYTE	W96
// 010   ----------------------------------------
	BYTE	W96
// 011   ----------------------------------------
	BYTE	W96
// 012   ----------------------------------------
	BYTE	W96
// 013   ----------------------------------------
	BYTE	W96
// 014   ----------------------------------------
	BYTE	W96
// 015   ----------------------------------------
	BYTE	W96
// 016   ----------------------------------------
	BYTE	W96
// 017   ----------------------------------------
	BYTE	W96
// 018   ----------------------------------------
	BYTE	W96
// 019   ----------------------------------------
	BYTE	W96
// 020   ----------------------------------------
seahorse_13_020:
	BYTE		N24     Cs3   v108
	BYTE	W24
	BYTE		N10     Gs3 
	BYTE	W12
	BYTE		        Fs3 
	BYTE	W24
	BYTE		N22     En3 
	BYTE	W24
	BYTE		        Ds3 
	BYTE	W12
	BYTE	PEND
// 021   ----------------------------------------
seahorse_13_021:
	BYTE	W12
	BYTE		N10     En3   v108
	BYTE	W12
	BYTE		        Ds3 
	BYTE	W12
	BYTE		        En3 
	BYTE	W24
	BYTE		N32     Cs3 
	BYTE	W36
	BYTE	PEND
// 022   ----------------------------------------
seahorse_13_022:
	BYTE		N24     Fs2   v108
	BYTE	W24
	BYTE		N10     Fs3 
	BYTE	W12
	BYTE		        En3 
	BYTE	W24
	BYTE		N22     Fs3 
	BYTE	W24
	BYTE		        Ds3 
	BYTE	W12
	BYTE	PEND
// 023   ----------------------------------------
seahorse_13_023:
	BYTE	W12
	BYTE		N32     Gs2   v108
	BYTE	W36
	BYTE		N22     En3 
	BYTE	W24
	BYTE		        Ds3 
	BYTE	W24
	BYTE	PEND
// 024   ----------------------------------------
	BYTE	W96
// 025   ----------------------------------------
	BYTE	W96
// 026   ----------------------------------------
	BYTE	W96
// 027   ----------------------------------------
	BYTE	W96
// 028   ----------------------------------------
	BYTE	W96
// 029   ----------------------------------------
	BYTE	W96
// 030   ----------------------------------------
	BYTE	W96
// 031   ----------------------------------------
	BYTE	W96
// 032   ----------------------------------------
	BYTE		VOL     127*seahorse_mvl/mxv
	BYTE		PAN     c_v-13
	BYTE	W96
// 033   ----------------------------------------
	BYTE	W96
// 034   ----------------------------------------
	BYTE	W96
// 035   ----------------------------------------
	BYTE	W96
// 036   ----------------------------------------
	BYTE	W96
// 037   ----------------------------------------
	BYTE	W96
// 038   ----------------------------------------
	BYTE	W96
// 039   ----------------------------------------
	BYTE	W96
// 040   ----------------------------------------
	BYTE	W96
// 041   ----------------------------------------
	BYTE	W96
// 042   ----------------------------------------
	BYTE	W96
// 043   ----------------------------------------
	BYTE	W96
// 044   ----------------------------------------
	BYTE	W96
// 045   ----------------------------------------
	BYTE	W96
// 046   ----------------------------------------
	BYTE	W96
// 047   ----------------------------------------
	BYTE	W96
// 048   ----------------------------------------
	BYTE	W96
// 049   ----------------------------------------
	BYTE	W96
// 050   ----------------------------------------
	BYTE	W96
// 051   ----------------------------------------
	BYTE	W96
// 052   ----------------------------------------
	BYTE	PATT
	 POIN2	seahorse_13_020
// 053   ----------------------------------------
	BYTE	PATT
	 POIN2	seahorse_13_021
// 054   ----------------------------------------
	BYTE	PATT
	 POIN2	seahorse_13_022
// 055   ----------------------------------------
	BYTE	PATT
	 POIN2	seahorse_13_023
// 056   ----------------------------------------
	BYTE	W96
// 057   ----------------------------------------
	BYTE	W96
// 058   ----------------------------------------
	BYTE	W96
// 059   ----------------------------------------
	BYTE	W96
// 060   ----------------------------------------
	BYTE	W96
// 061   ----------------------------------------
	BYTE	W96
// 062   ----------------------------------------
	BYTE	W96
// 063   ----------------------------------------
	BYTE	W96
// 064   ----------------------------------------
	BYTE		VOL     127*seahorse_mvl/mxv
	BYTE		PAN     c_v-13
	BYTE	W96
// 065   ----------------------------------------
	BYTE	W96
// 066   ----------------------------------------
	BYTE	W96
// 067   ----------------------------------------
	BYTE	W96
// 068   ----------------------------------------
	BYTE	W96
// 069   ----------------------------------------
	BYTE	W96
// 070   ----------------------------------------
	BYTE	W96
// 071   ----------------------------------------
	BYTE	W96
// 072   ----------------------------------------
	BYTE	W96
// 073   ----------------------------------------
	BYTE	W96
// 074   ----------------------------------------
	BYTE	W96
// 075   ----------------------------------------
	BYTE	W96
// 076   ----------------------------------------
	BYTE	FINE

//**************** Track 14 (Midi-Chn.15) ****************//

seahorse_14:
	BYTE	KEYSH   seahorse_key+0
// 000   ----------------------------------------
	BYTE		VOICE   30
	BYTE		PAN     c_v+19
	BYTE		VOL     76*seahorse_mvl/mxv
	BYTE	W96
// 001   ----------------------------------------
	BYTE	W96
// 002   ----------------------------------------
	BYTE	W96
// 003   ----------------------------------------
	BYTE	W96
// 004   ----------------------------------------
	BYTE	W96
// 005   ----------------------------------------
	BYTE	W96
// 006   ----------------------------------------
	BYTE	W96
// 007   ----------------------------------------
	BYTE	W96
// 008   ----------------------------------------
	BYTE	W96
// 009   ----------------------------------------
	BYTE	W96
// 010   ----------------------------------------
	BYTE	W96
// 011   ----------------------------------------
	BYTE	W96
// 012   ----------------------------------------
	BYTE	W96
// 013   ----------------------------------------
	BYTE	W96
// 014   ----------------------------------------
	BYTE	W96
// 015   ----------------------------------------
	BYTE	W96
// 016   ----------------------------------------
	BYTE	W96
// 017   ----------------------------------------
	BYTE	W96
// 018   ----------------------------------------
	BYTE	W96
// 019   ----------------------------------------
	BYTE	W96
// 020   ----------------------------------------
seahorse_14_020:
	BYTE	W12
	BYTE		N24     Cs3   v108
	BYTE	W24
	BYTE		N10     Gs3 
	BYTE	W12
	BYTE		        Fs3 
	BYTE	W24
	BYTE		N22     En3 
	BYTE	W24
	BYTE	PEND
// 021   ----------------------------------------
seahorse_14_021:
	BYTE		N22     Ds3   v108
	BYTE	W24
	BYTE		N10     En3 
	BYTE	W12
	BYTE		        Ds3 
	BYTE	W12
	BYTE		        En3 
	BYTE	W24
	BYTE		N32     Cs3 
	BYTE	W24
	BYTE	PEND
// 022   ----------------------------------------
seahorse_14_022:
	BYTE	W12
	BYTE		N24     Fs2   v108
	BYTE	W24
	BYTE		N10     Fs3 
	BYTE	W12
	BYTE		        En3 
	BYTE	W24
	BYTE		N22     Fs3 
	BYTE	W24
	BYTE	PEND
// 023   ----------------------------------------
seahorse_14_023:
	BYTE		N22     Ds3   v108
	BYTE	W24
	BYTE		N32     Gs2 
	BYTE	W36
	BYTE		N22     En3 
	BYTE	W24
	BYTE		        Ds3 
	BYTE	W12
	BYTE	PEND
// 024   ----------------------------------------
	BYTE	W96
// 025   ----------------------------------------
	BYTE	W96
// 026   ----------------------------------------
	BYTE	W96
// 027   ----------------------------------------
	BYTE	W96
// 028   ----------------------------------------
	BYTE	W96
// 029   ----------------------------------------
	BYTE	W96
// 030   ----------------------------------------
	BYTE	W96
// 031   ----------------------------------------
	BYTE	W96
// 032   ----------------------------------------
	BYTE		PAN     c_v+19
	BYTE		VOL     76*seahorse_mvl/mxv
	BYTE	W96
// 033   ----------------------------------------
	BYTE	W96
// 034   ----------------------------------------
	BYTE	W96
// 035   ----------------------------------------
	BYTE	W96
// 036   ----------------------------------------
	BYTE	W96
// 037   ----------------------------------------
	BYTE	W96
// 038   ----------------------------------------
	BYTE	W96
// 039   ----------------------------------------
	BYTE	W96
// 040   ----------------------------------------
	BYTE	W96
// 041   ----------------------------------------
	BYTE	W96
// 042   ----------------------------------------
	BYTE	W96
// 043   ----------------------------------------
	BYTE	W96
// 044   ----------------------------------------
	BYTE	W96
// 045   ----------------------------------------
	BYTE	W96
// 046   ----------------------------------------
	BYTE	W96
// 047   ----------------------------------------
	BYTE	W96
// 048   ----------------------------------------
	BYTE	W96
// 049   ----------------------------------------
	BYTE	W96
// 050   ----------------------------------------
	BYTE	W96
// 051   ----------------------------------------
	BYTE	W96
// 052   ----------------------------------------
	BYTE	PATT
	 POIN2	seahorse_14_020
// 053   ----------------------------------------
	BYTE	PATT
	 POIN2	seahorse_14_021
// 054   ----------------------------------------
	BYTE	PATT
	 POIN2	seahorse_14_022
// 055   ----------------------------------------
	BYTE	PATT
	 POIN2	seahorse_14_023
// 056   ----------------------------------------
	BYTE	W96
// 057   ----------------------------------------
	BYTE	W96
// 058   ----------------------------------------
	BYTE	W96
// 059   ----------------------------------------
	BYTE	W96
// 060   ----------------------------------------
	BYTE	W96
// 061   ----------------------------------------
	BYTE	W96
// 062   ----------------------------------------
	BYTE	W96
// 063   ----------------------------------------
	BYTE	W96
// 064   ----------------------------------------
	BYTE		PAN     c_v+19
	BYTE		VOL     76*seahorse_mvl/mxv
	BYTE	W96
// 065   ----------------------------------------
	BYTE	W96
// 066   ----------------------------------------
	BYTE	W96
// 067   ----------------------------------------
	BYTE	W96
// 068   ----------------------------------------
	BYTE	W96
// 069   ----------------------------------------
	BYTE	W96
// 070   ----------------------------------------
	BYTE	W96
// 071   ----------------------------------------
	BYTE	W96
// 072   ----------------------------------------
	BYTE	W96
// 073   ----------------------------------------
	BYTE	W96
// 074   ----------------------------------------
	BYTE	W96
// 075   ----------------------------------------
	BYTE	W96
// 076   ----------------------------------------
	BYTE	FINE

//**************** Track 15 (Midi-Chn.16) ****************//

seahorse_15:
	BYTE	KEYSH   seahorse_key+0
// 000   ----------------------------------------
	BYTE		VOICE   121
	BYTE		VOL     103*seahorse_mvl/mxv
	BYTE		N06     Cn1   v104
	BYTE		N06     Fs1 
	BYTE		N06     An2 
	BYTE	W12
	BYTE		        Cn1 
	BYTE		N06     Fs1 
	BYTE	W12
	BYTE		        Dn1 
	BYTE		N06     Fs1 
	BYTE	W12
	BYTE		N06   
	BYTE	W12
	BYTE		        Cn1 
	BYTE		N06     Fs1 
	BYTE	W12
	BYTE		        Cn1 
	BYTE		N06     Fs1 
	BYTE	W12
	BYTE		        Dn1 
	BYTE		N06     Fs1 
	BYTE	W12
	BYTE		N06   
	BYTE	W12
// 001   ----------------------------------------
seahorse_15_001:
	BYTE		N06     Cn1   v104
	BYTE		N06     Fs1 
	BYTE	W12
	BYTE		        Cn1 
	BYTE		N06     Fs1 
	BYTE	W12
	BYTE		        Dn1 
	BYTE		N06     Fs1 
	BYTE	W12
	BYTE		N06   
	BYTE	W12
	BYTE		        Cn1 
	BYTE		N06     Fs1 
	BYTE	W12
	BYTE		        Cn1 
	BYTE		N06     Fs1 
	BYTE	W12
	BYTE		        Dn1 
	BYTE		N06     Fs1 
	BYTE	W12
	BYTE		        As1 
	BYTE	W12
	BYTE	PEND
// 002   ----------------------------------------
seahorse_15_002:
	BYTE		N06     Cn1   v104
	BYTE		N06     Fs1 
	BYTE	W12
	BYTE		        Cn1 
	BYTE		N06     Fs1 
	BYTE	W12
	BYTE		        Dn1 
	BYTE		N06     Fs1 
	BYTE	W12
	BYTE		N06   
	BYTE	W12
	BYTE		        Cn1 
	BYTE		N06     Fs1 
	BYTE	W12
	BYTE		        Cn1 
	BYTE		N06     Fs1 
	BYTE	W12
	BYTE		        Dn1 
	BYTE		N06     Fs1 
	BYTE	W12
	BYTE		N06   
	BYTE	W12
	BYTE	PEND
// 003   ----------------------------------------
seahorse_15_003:
	BYTE		N06     Cn1   v104
	BYTE		N06     Fs1 
	BYTE	W12
	BYTE		        Cn1 
	BYTE		N06     Fs1 
	BYTE	W12
	BYTE		        Dn1 
	BYTE		N06     Fs1 
	BYTE	W12
	BYTE		N06   
	BYTE	W12
	BYTE		        Cn2 
	BYTE		N06     Dn2 
	BYTE	W06
	BYTE		        Cn2 
	BYTE		N06     Dn2 
	BYTE	W06
	BYTE		        Bn1 
	BYTE		N06     Cn2 
	BYTE	W06
	BYTE		        Bn1 
	BYTE		N06     Cn2 
	BYTE	W06
	BYTE		        Gn1 
	BYTE		N06     An1 
	BYTE	W06
	BYTE		        Gn1 
	BYTE		N06     An1 
	BYTE	W06
	BYTE		        Fn1 
	BYTE		N06     Gn1 
	BYTE	W06
	BYTE		        Fn1 
	BYTE		N06     Gn1 
	BYTE	W06
	BYTE	PEND
// 004   ----------------------------------------
seahorse_15_004:
	BYTE		N06     Cn1   v104
	BYTE		N06     Fs1 
	BYTE		N06     Cs2 
	BYTE		N06     An2 
	BYTE	W12
	BYTE		        Cn1 
	BYTE		N06     Fs1 
	BYTE	W12
	BYTE		        Dn1 
	BYTE		N06     Fs1 
	BYTE	W12
	BYTE		N06   
	BYTE	W12
	BYTE		        Cn1 
	BYTE		N06     Fs1 
	BYTE	W12
	BYTE		        Cn1 
	BYTE		N06     Fs1 
	BYTE	W12
	BYTE		        Dn1 
	BYTE		N06     Fs1 
	BYTE	W12
	BYTE		N06   
	BYTE	W12
	BYTE	PEND
// 005   ----------------------------------------
	BYTE	PATT
	 POIN2	seahorse_15_001
// 006   ----------------------------------------
	BYTE	PATT
	 POIN2	seahorse_15_002
// 007   ----------------------------------------
	BYTE	PATT
	 POIN2	seahorse_15_001
// 008   ----------------------------------------
	BYTE	PATT
	 POIN2	seahorse_15_002
// 009   ----------------------------------------
	BYTE	PATT
	 POIN2	seahorse_15_001
// 010   ----------------------------------------
	BYTE	PATT
	 POIN2	seahorse_15_002
// 011   ----------------------------------------
seahorse_15_011:
	BYTE		N06     Cn1   v104
	BYTE		N06     Fs1 
	BYTE	W12
	BYTE		        Cn1 
	BYTE		N06     Fs1 
	BYTE	W12
	BYTE		        Dn1 
	BYTE		N06     Fs1 
	BYTE	W12
	BYTE		N06   
	BYTE	W12
	BYTE		        Cn1 
	BYTE		N06     An2 
	BYTE	W16
	BYTE		        Cn1 
	BYTE		N06     An2 
	BYTE	W16
	BYTE		        Cn1 
	BYTE		N06     An2 
	BYTE	W16
	BYTE	PEND
// 012   ----------------------------------------
	BYTE	PATT
	 POIN2	seahorse_15_004
// 013   ----------------------------------------
	BYTE	PATT
	 POIN2	seahorse_15_001
// 014   ----------------------------------------
	BYTE	PATT
	 POIN2	seahorse_15_002
// 015   ----------------------------------------
	BYTE	PATT
	 POIN2	seahorse_15_001
// 016   ----------------------------------------
	BYTE	PATT
	 POIN2	seahorse_15_002
// 017   ----------------------------------------
	BYTE	PATT
	 POIN2	seahorse_15_001
// 018   ----------------------------------------
	BYTE	PATT
	 POIN2	seahorse_15_002
// 019   ----------------------------------------
	BYTE	PATT
	 POIN2	seahorse_15_011
// 020   ----------------------------------------
seahorse_15_020:
	BYTE		N06     Cn1   v104
	BYTE		N06     Fs1 
	BYTE		N06     Cs2 
	BYTE		N06     An2 
	BYTE	W12
	BYTE		        Fs1 
	BYTE	W12
	BYTE		        As1 
	BYTE	W12
	BYTE		        Cn1 
	BYTE		N06     Fs1 
	BYTE	W12
	BYTE		        Cn1 
	BYTE		N06     Fs1 
	BYTE	W12
	BYTE		N06   
	BYTE	W12
	BYTE		        As1 
	BYTE	W12
	BYTE		        Fs1 
	BYTE	W12
	BYTE	PEND
// 021   ----------------------------------------
seahorse_15_021:
	BYTE		N06     Cn1   v104
	BYTE		N06     Fs1 
	BYTE	W12
	BYTE		N06   
	BYTE	W12
	BYTE		        As1 
	BYTE	W12
	BYTE		        Fs1 
	BYTE	W12
	BYTE		        Cn1 
	BYTE		N06     Fs1 
	BYTE	W12
	BYTE		N06   
	BYTE	W12
	BYTE		        As1 
	BYTE	W12
	BYTE		        Fs1 
	BYTE	W12
	BYTE	PEND
// 022   ----------------------------------------
	BYTE	PATT
	 POIN2	seahorse_15_021
// 023   ----------------------------------------
seahorse_15_023:
	BYTE		N06     Cn1   v104
	BYTE		N06     Fs1 
	BYTE	W12
	BYTE		        Dn1 
	BYTE		N06     Fs1 
	BYTE	W12
	BYTE		        As1 
	BYTE	W12
	BYTE		        Fs1 
	BYTE	W06
	BYTE		        Dn1 
	BYTE	W06
	BYTE		        Bn1 
	BYTE		N06     Cn2 
	BYTE	W06
	BYTE		        Bn1 
	BYTE		N06     Cn2 
	BYTE	W06
	BYTE		        An1 
	BYTE		N06     Bn1 
	BYTE	W06
	BYTE		        An1 
	BYTE		N06     Bn1 
	BYTE	W06
	BYTE		        Gn1 
	BYTE		N06     An1 
	BYTE	W06
	BYTE		        Gn1 
	BYTE		N06     An1 
	BYTE	W06
	BYTE		        Fn1 
	BYTE		N06     Gn1 
	BYTE	W06
	BYTE		        Fn1 
	BYTE		N06     Gn1 
	BYTE	W06
	BYTE	PEND
// 024   ----------------------------------------
	BYTE	PATT
	 POIN2	seahorse_15_004
// 025   ----------------------------------------
	BYTE	PATT
	 POIN2	seahorse_15_001
// 026   ----------------------------------------
	BYTE	PATT
	 POIN2	seahorse_15_002
// 027   ----------------------------------------
	BYTE	PATT
	 POIN2	seahorse_15_011
// 028   ----------------------------------------
	BYTE	PATT
	 POIN2	seahorse_15_002
// 029   ----------------------------------------
	BYTE	PATT
	 POIN2	seahorse_15_011
// 030   ----------------------------------------
seahorse_15_030:
	BYTE		N06     Cn1   v104
	BYTE		N06     Fs1 
	BYTE	W12
	BYTE		        Cn1 
	BYTE		N06     Fs1 
	BYTE	W12
	BYTE		        Dn1 
	BYTE		N06     Fs1 
	BYTE	W12
	BYTE		N06   
	BYTE	W12
	BYTE		        Cn1 
	BYTE		N06     As1 
	BYTE	W06
	BYTE		        Dn1 
	BYTE	W06
	BYTE		        Cn1 
	BYTE	W12
	BYTE		        Dn1 
	BYTE	W12
	BYTE		N06   
	BYTE	W06
	BYTE		N06   
	BYTE	W06
	BYTE	PEND
// 031   ----------------------------------------
seahorse_15_031:
	BYTE		N06     Cn1   v104
	BYTE		N06     Fs1 
	BYTE		N06     Cs2 
	BYTE	W12
	BYTE		        Cn1 
	BYTE		N06     Fs1 
	BYTE	W12
	BYTE		        Dn1 
	BYTE		N06     Fs1 
	BYTE	W12
	BYTE		N06   
	BYTE	W12
	BYTE		        Cn1 
	BYTE		N06     As1 
	BYTE	W06
	BYTE		        Dn1 
	BYTE	W06
	BYTE		        Cn1 
	BYTE	W12
	BYTE		        Dn1 
	BYTE	W12
	BYTE		N06   
	BYTE		N06     An2 
	BYTE	W06
	BYTE		        Dn1 
	BYTE	W06
	BYTE	PEND
// 032   ----------------------------------------
seahorse_15_032:
	BYTE		VOL     103*seahorse_mvl/mxv
	BYTE		N06     Cn1   v104
	BYTE		N06     Fs1 
	BYTE		N06     An2 
	BYTE	W12
	BYTE		        Cn1 
	BYTE		N06     Fs1 
	BYTE	W12
	BYTE		        Dn1 
	BYTE		N06     Fs1 
	BYTE	W12
	BYTE		N06   
	BYTE	W12
	BYTE		        Cn1 
	BYTE		N06     Fs1 
	BYTE	W12
	BYTE		        Cn1 
	BYTE		N06     Fs1 
	BYTE	W12
	BYTE		        Dn1 
	BYTE		N06     Fs1 
	BYTE	W12
	BYTE		N06   
	BYTE	W12
	BYTE	PEND
// 033   ----------------------------------------
	BYTE	PATT
	 POIN2	seahorse_15_001
// 034   ----------------------------------------
	BYTE	PATT
	 POIN2	seahorse_15_002
// 035   ----------------------------------------
	BYTE	PATT
	 POIN2	seahorse_15_003
// 036   ----------------------------------------
	BYTE	PATT
	 POIN2	seahorse_15_004
// 037   ----------------------------------------
	BYTE	PATT
	 POIN2	seahorse_15_001
// 038   ----------------------------------------
	BYTE	PATT
	 POIN2	seahorse_15_002
// 039   ----------------------------------------
	BYTE	PATT
	 POIN2	seahorse_15_001
// 040   ----------------------------------------
	BYTE	PATT
	 POIN2	seahorse_15_002
// 041   ----------------------------------------
	BYTE	PATT
	 POIN2	seahorse_15_001
// 042   ----------------------------------------
	BYTE	PATT
	 POIN2	seahorse_15_002
// 043   ----------------------------------------
	BYTE	PATT
	 POIN2	seahorse_15_011
// 044   ----------------------------------------
	BYTE	PATT
	 POIN2	seahorse_15_004
// 045   ----------------------------------------
	BYTE	PATT
	 POIN2	seahorse_15_001
// 046   ----------------------------------------
	BYTE	PATT
	 POIN2	seahorse_15_002
// 047   ----------------------------------------
	BYTE	PATT
	 POIN2	seahorse_15_001
// 048   ----------------------------------------
	BYTE	PATT
	 POIN2	seahorse_15_002
// 049   ----------------------------------------
	BYTE	PATT
	 POIN2	seahorse_15_001
// 050   ----------------------------------------
	BYTE	PATT
	 POIN2	seahorse_15_002
// 051   ----------------------------------------
	BYTE	PATT
	 POIN2	seahorse_15_011
// 052   ----------------------------------------
	BYTE	PATT
	 POIN2	seahorse_15_020
// 053   ----------------------------------------
	BYTE	PATT
	 POIN2	seahorse_15_021
// 054   ----------------------------------------
	BYTE	PATT
	 POIN2	seahorse_15_021
// 055   ----------------------------------------
	BYTE	PATT
	 POIN2	seahorse_15_023
// 056   ----------------------------------------
	BYTE	PATT
	 POIN2	seahorse_15_004
// 057   ----------------------------------------
	BYTE	PATT
	 POIN2	seahorse_15_001
// 058   ----------------------------------------
	BYTE	PATT
	 POIN2	seahorse_15_002
// 059   ----------------------------------------
	BYTE	PATT
	 POIN2	seahorse_15_011
// 060   ----------------------------------------
	BYTE	PATT
	 POIN2	seahorse_15_002
// 061   ----------------------------------------
	BYTE	PATT
	 POIN2	seahorse_15_011
// 062   ----------------------------------------
	BYTE	PATT
	 POIN2	seahorse_15_030
// 063   ----------------------------------------
	BYTE	PATT
	 POIN2	seahorse_15_031
// 064   ----------------------------------------
	BYTE	PATT
	 POIN2	seahorse_15_032
// 065   ----------------------------------------
	BYTE	PATT
	 POIN2	seahorse_15_001
// 066   ----------------------------------------
	BYTE	PATT
	 POIN2	seahorse_15_002
// 067   ----------------------------------------
	BYTE	PATT
	 POIN2	seahorse_15_003
// 068   ----------------------------------------
	BYTE		VOL     102*seahorse_mvl/mxv
	BYTE		N06     Cn1   v104
	BYTE		N06     Fs1 
	BYTE		N06     Cs2 
	BYTE		N06     An2 
	BYTE	W07
	BYTE		VOL     101*seahorse_mvl/mxv
	BYTE	W05
	BYTE		N06     Cn1 
	BYTE		N06     Fs1 
	BYTE	W03
	BYTE		VOL     100*seahorse_mvl/mxv
	BYTE	W07
	BYTE		        99*seahorse_mvl/mxv
	BYTE	W02
	BYTE		N06     Dn1 
	BYTE		N06     Fs1 
	BYTE	W06
	BYTE		VOL     98*seahorse_mvl/mxv
	BYTE	W06
	BYTE		N06   
	BYTE	W01
	BYTE		VOL     97*seahorse_mvl/mxv
	BYTE	W08
	BYTE		        96*seahorse_mvl/mxv
	BYTE	W03
	BYTE		N06     Cn1 
	BYTE		N06     Fs1 
	BYTE	W04
	BYTE		VOL     95*seahorse_mvl/mxv
	BYTE	W08
	BYTE		        94*seahorse_mvl/mxv
	BYTE		N06     Cn1 
	BYTE		N06     Fs1 
	BYTE	W07
	BYTE		VOL     93*seahorse_mvl/mxv
	BYTE	W05
	BYTE		N06     Dn1 
	BYTE		N06     Fs1 
	BYTE	W03
	BYTE		VOL     92*seahorse_mvl/mxv
	BYTE	W07
	BYTE		        91*seahorse_mvl/mxv
	BYTE	W02
	BYTE		N06   
	BYTE	W06
	BYTE		VOL     90*seahorse_mvl/mxv
	BYTE	W06
// 069   ----------------------------------------
	BYTE		N06     Cn1 
	BYTE		N06     Fs1 
	BYTE	W01
	BYTE		VOL     89*seahorse_mvl/mxv
	BYTE	W08
	BYTE		        88*seahorse_mvl/mxv
	BYTE	W03
	BYTE		N06     Cn1 
	BYTE		N06     Fs1 
	BYTE	W04
	BYTE		VOL     87*seahorse_mvl/mxv
	BYTE	W08
	BYTE		        86*seahorse_mvl/mxv
	BYTE		N06     Dn1 
	BYTE		N06     Fs1 
	BYTE	W07
	BYTE		VOL     85*seahorse_mvl/mxv
	BYTE	W05
	BYTE		N06   
	BYTE	W03
	BYTE		VOL     84*seahorse_mvl/mxv
	BYTE	W07
	BYTE		        83*seahorse_mvl/mxv
	BYTE	W02
	BYTE		N06     Cn1 
	BYTE		N06     Fs1 
	BYTE	W06
	BYTE		VOL     82*seahorse_mvl/mxv
	BYTE	W06
	BYTE		N06     Cn1 
	BYTE		N06     Fs1 
	BYTE	W01
	BYTE		VOL     81*seahorse_mvl/mxv
	BYTE	W08
	BYTE		        80*seahorse_mvl/mxv
	BYTE	W03
	BYTE		N06     Dn1 
	BYTE		N06     Fs1 
	BYTE	W04
	BYTE		VOL     79*seahorse_mvl/mxv
	BYTE	W08
	BYTE		        78*seahorse_mvl/mxv
	BYTE		N06     As1 
	BYTE	W07
	BYTE		VOL     77*seahorse_mvl/mxv
	BYTE	W05
// 070   ----------------------------------------
	BYTE		N06     Cn1 
	BYTE		N06     Fs1 
	BYTE	W03
	BYTE		VOL     76*seahorse_mvl/mxv
	BYTE	W07
	BYTE		        75*seahorse_mvl/mxv
	BYTE	W02
	BYTE		N06     Cn1 
	BYTE		N06     Fs1 
	BYTE	W06
	BYTE		VOL     74*seahorse_mvl/mxv
	BYTE	W06
	BYTE		N06     Dn1 
	BYTE		N06     Fs1 
	BYTE	W01
	BYTE		VOL     73*seahorse_mvl/mxv
	BYTE	W08
	BYTE		        72*seahorse_mvl/mxv
	BYTE	W03
	BYTE		N06   
	BYTE	W04
	BYTE		VOL     71*seahorse_mvl/mxv
	BYTE	W08
	BYTE		        70*seahorse_mvl/mxv
	BYTE		N06     Cn1 
	BYTE		N06     Fs1 
	BYTE	W07
	BYTE		VOL     69*seahorse_mvl/mxv
	BYTE	W05
	BYTE		N06     Cn1 
	BYTE		N06     Fs1 
	BYTE	W03
	BYTE		VOL     68*seahorse_mvl/mxv
	BYTE	W07
	BYTE		        67*seahorse_mvl/mxv
	BYTE	W02
	BYTE		N06     Dn1 
	BYTE		N06     Fs1 
	BYTE	W06
	BYTE		VOL     66*seahorse_mvl/mxv
	BYTE	W06
	BYTE		N06   
	BYTE	W02
	BYTE		VOL     65*seahorse_mvl/mxv
	BYTE	W07
	BYTE		        64*seahorse_mvl/mxv
	BYTE	W03
// 071   ----------------------------------------
	BYTE		N06     Cn1 
	BYTE		N06     Fs1 
	BYTE	W05
	BYTE		VOL     63*seahorse_mvl/mxv
	BYTE	W07
	BYTE		        62*seahorse_mvl/mxv
	BYTE		N06     Cn1 
	BYTE		N06     Fs1 
	BYTE	W08
	BYTE		VOL     61*seahorse_mvl/mxv
	BYTE	W04
	BYTE		N06     Dn1 
	BYTE		N06     Fs1 
	BYTE	W03
	BYTE		VOL     60*seahorse_mvl/mxv
	BYTE	W08
	BYTE		        59*seahorse_mvl/mxv
	BYTE	W01
	BYTE		N06   
	BYTE	W06
	BYTE		VOL     58*seahorse_mvl/mxv
	BYTE	W06
	BYTE		N06     Cn1 
	BYTE		N06     Fs1 
	BYTE	W02
	BYTE		VOL     57*seahorse_mvl/mxv
	BYTE	W07
	BYTE		        56*seahorse_mvl/mxv
	BYTE	W03
	BYTE		N06     Cn1 
	BYTE		N06     Fs1 
	BYTE	W05
	BYTE		VOL     55*seahorse_mvl/mxv
	BYTE	W07
	BYTE		        54*seahorse_mvl/mxv
	BYTE		N06     Dn1 
	BYTE		N06     Fs1 
	BYTE	W08
	BYTE		VOL     53*seahorse_mvl/mxv
	BYTE	W04
	BYTE		N06     As1 
	BYTE	W03
	BYTE		VOL     52*seahorse_mvl/mxv
	BYTE	W08
	BYTE		        51*seahorse_mvl/mxv
	BYTE	W01
// 072   ----------------------------------------
	BYTE		N06     Cn1 
	BYTE		N06     Fs1 
	BYTE	W06
	BYTE		VOL     50*seahorse_mvl/mxv
	BYTE	W06
	BYTE		N06     Cn1 
	BYTE		N06     Fs1 
	BYTE	W02
	BYTE		VOL     49*seahorse_mvl/mxv
	BYTE	W07
	BYTE		        48*seahorse_mvl/mxv
	BYTE	W03
	BYTE		N06     Dn1 
	BYTE		N06     Fs1 
	BYTE	W05
	BYTE		VOL     47*seahorse_mvl/mxv
	BYTE	W07
	BYTE		        46*seahorse_mvl/mxv
	BYTE		N06   
	BYTE	W08
	BYTE		VOL     45*seahorse_mvl/mxv
	BYTE	W04
	BYTE		N06     Cn1 
	BYTE		N06     Fs1 
	BYTE	W03
	BYTE		VOL     44*seahorse_mvl/mxv
	BYTE	W08
	BYTE		        43*seahorse_mvl/mxv
	BYTE	W01
	BYTE		N06     Cn1 
	BYTE		N06     Fs1 
	BYTE	W06
	BYTE		VOL     42*seahorse_mvl/mxv
	BYTE	W06
	BYTE		N06     Dn1 
	BYTE		N06     Fs1 
	BYTE	W02
	BYTE		VOL     41*seahorse_mvl/mxv
	BYTE	W07
	BYTE		        40*seahorse_mvl/mxv
	BYTE	W03
	BYTE		N06   
	BYTE	W05
	BYTE		VOL     39*seahorse_mvl/mxv
	BYTE	W07
// 073   ----------------------------------------
	BYTE		        38*seahorse_mvl/mxv
	BYTE		N06     Cn1 
	BYTE		N06     Fs1 
	BYTE	W08
	BYTE		VOL     37*seahorse_mvl/mxv
	BYTE	W04
	BYTE		N06     Cn1 
	BYTE		N06     Fs1 
	BYTE	W03
	BYTE		VOL     36*seahorse_mvl/mxv
	BYTE	W08
	BYTE		        35*seahorse_mvl/mxv
	BYTE	W01
	BYTE		N06     Dn1 
	BYTE		N06     Fs1 
	BYTE	W06
	BYTE		VOL     34*seahorse_mvl/mxv
	BYTE	W06
	BYTE		N06   
	BYTE	W02
	BYTE		VOL     33*seahorse_mvl/mxv
	BYTE	W07
	BYTE		        32*seahorse_mvl/mxv
	BYTE	W03
	BYTE		N06     Cn1 
	BYTE		N06     Fs1 
	BYTE	W05
	BYTE		VOL     31*seahorse_mvl/mxv
	BYTE	W07
	BYTE		N06     Cn1 
	BYTE		N06     Fs1 
	BYTE	W01
	BYTE		VOL     30*seahorse_mvl/mxv
	BYTE	W07
	BYTE		        29*seahorse_mvl/mxv
	BYTE	W04
	BYTE		N06     Dn1 
	BYTE		N06     Fs1 
	BYTE	W04
	BYTE		VOL     28*seahorse_mvl/mxv
	BYTE	W07
	BYTE		        27*seahorse_mvl/mxv
	BYTE	W01
	BYTE		N06     As1 
	BYTE	W07
	BYTE		VOL     26*seahorse_mvl/mxv
	BYTE	W05
// 074   ----------------------------------------
	BYTE		N06     Cn1 
	BYTE		N06     Fs1 
	BYTE	W02
	BYTE		VOL     25*seahorse_mvl/mxv
	BYTE	W08
	BYTE		        24*seahorse_mvl/mxv
	BYTE	W02
	BYTE		N06     Cn1 
	BYTE		N06     Fs1 
	BYTE	W05
	BYTE		VOL     23*seahorse_mvl/mxv
	BYTE	W07
	BYTE		N06     Dn1 
	BYTE		N06     Fs1 
	BYTE	W01
	BYTE		VOL     22*seahorse_mvl/mxv
	BYTE	W07
	BYTE		        21*seahorse_mvl/mxv
	BYTE	W04
	BYTE		N06   
	BYTE	W04
	BYTE		VOL     20*seahorse_mvl/mxv
	BYTE	W07
	BYTE		        19*seahorse_mvl/mxv
	BYTE	W01
	BYTE		N06     Cn1 
	BYTE		N06     Fs1 
	BYTE	W07
	BYTE		VOL     18*seahorse_mvl/mxv
	BYTE	W05
	BYTE		N06     Cn1 
	BYTE		N06     Fs1 
	BYTE	W02
	BYTE		VOL     17*seahorse_mvl/mxv
	BYTE	W08
	BYTE		        16*seahorse_mvl/mxv
	BYTE	W02
	BYTE		N06     Dn1 
	BYTE		N06     Fs1 
	BYTE	W05
	BYTE		VOL     15*seahorse_mvl/mxv
	BYTE	W07
	BYTE		N06   
	BYTE	W01
	BYTE		VOL     14*seahorse_mvl/mxv
	BYTE	W07
	BYTE		        13*seahorse_mvl/mxv
	BYTE	W04
// 075   ----------------------------------------
	BYTE		N06     Cn1 
	BYTE		N06     Fs1 
	BYTE	W04
	BYTE		VOL     12*seahorse_mvl/mxv
	BYTE	W07
	BYTE		        11*seahorse_mvl/mxv
	BYTE	W01
	BYTE		N06     Cn1 
	BYTE		N06     Fs1 
	BYTE	W07
	BYTE		VOL     10*seahorse_mvl/mxv
	BYTE	W05
	BYTE		N06     Dn1 
	BYTE		N06     Fs1 
	BYTE	W02
	BYTE		VOL     9*seahorse_mvl/mxv
	BYTE	W08
	BYTE		        8*seahorse_mvl/mxv
	BYTE	W02
	BYTE		N06   
	BYTE	W05
	BYTE		VOL     7*seahorse_mvl/mxv
	BYTE	W07
	BYTE		N06     Cn1 
	BYTE		N06     An2 
	BYTE	W01
	BYTE		VOL     6*seahorse_mvl/mxv
	BYTE	W07
	BYTE		        5*seahorse_mvl/mxv
	BYTE	W08
	BYTE		        4*seahorse_mvl/mxv
	BYTE		N06     Cn1 
	BYTE		N06     An2 
	BYTE	W07
	BYTE		VOL     3*seahorse_mvl/mxv
	BYTE	W08
	BYTE		        2*seahorse_mvl/mxv
	BYTE	W01
	BYTE		N06     Cn1 
	BYTE		N06     An2 
	BYTE	W06
	BYTE		VOL     1*seahorse_mvl/mxv
	BYTE	W10
// 076   ----------------------------------------
	BYTE	FINE

//******************************************************//
	ALIGN 4

seahorse:
	BYTE	15	// NumTrks
	BYTE	0	// NumBlks
	BYTE	seahorse_pri	// Priority
	BYTE	seahorse_rev	// Reverb.

	POIN2	seahorse_grp

	POIN2	seahorse_1
	POIN2	seahorse_2
	POIN2	seahorse_3
	POIN2	seahorse_4
	POIN2	seahorse_5
	POIN2	seahorse_6
	POIN2	seahorse_7
	POIN2	seahorse_8
	POIN2	seahorse_9
	POIN2	seahorse_10
	POIN2	seahorse_11
	POIN2	seahorse_12
	POIN2	seahorse_13
	POIN2	seahorse_14
	POIN2	seahorse_15

	
